timestamp 4280000 us: [FA] Start
timestamp 4280000 us: [B0 05 00] channel 1: control change 5 value: 0
timestamp 4280000 us: [B1 05 00] channel 2: control change 5 value: 0
timestamp 4280000 us: [B2 05 00] channel 3: control change 5 value: 0
timestamp 4280000 us: [B3 05 00] channel 4: control change 5 value: 0
timestamp 4280000 us: [B4 05 00] channel 5: control change 5 value: 0
timestamp 4290000 us: [B5 05 00] channel 6: control change 5 value: 0
timestamp 4290000 us: [B6 05 00] channel 7: control change 5 value: 0
timestamp 4290000 us: [B7 05 00] channel 8: control change 5 value: 0
timestamp 4290000 us: [B8 05 00] channel 9: control change 5 value: 0
timestamp 4290000 us: [B9 05 00] channel 10: control change 5 value: 0
timestamp 4290000 us: [BA 05 00] channel 11: control change 5 value: 0
timestamp 4290000 us: [BB 05 00] channel 12: control change 5 value: 0
timestamp 4290000 us: [BC 05 00] channel 13: control change 5 value: 0
timestamp 4290000 us: [BD 05 00] channel 14: control change 5 value: 0
timestamp 4290000 us: [BE 05 00] channel 15: control change 5 value: 0
timestamp 4300000 us: [BF 05 00] channel 16: control change 5 value: 0
timestamp 4750000 us: [C1 21] channel 2: program change 33
timestamp 4760000 us: [B1 0A 40] channel 2: control change 10 value: 64
timestamp 4760000 us: [B1 48 40] channel 2: control change 72 value: 64
timestamp 4760000 us: [B1 62 66] channel 2: control change 98 value: 102
timestamp 4760000 us: [B1 63 01] channel 2: control change 99 value: 1
timestamp 4760000 us: [B1 06 40] channel 2: control change 6 value: 64
timestamp 4760000 us: [B1 4A 40] channel 2: control change 74 value: 64
timestamp 4760000 us: [B1 62 20] channel 2: control change 98 value: 32
timestamp 4760000 us: [B1 63 01] channel 2: control change 99 value: 1
timestamp 4760000 us: [B1 06 40] channel 2: control change 6 value: 64
timestamp 4760000 us: [B1 0A 40] channel 2: control change 10 value: 64
timestamp 4760000 us: [C2 00] channel 3: program change 0
timestamp 4770000 us: [B2 0A 2C] channel 3: control change 10 value: 44
timestamp 4770000 us: [B2 48 40] channel 3: control change 72 value: 64
timestamp 4770000 us: [B2 62 66] channel 3: control change 98 value: 102
timestamp 4770000 us: [B2 63 01] channel 3: control change 99 value: 1
timestamp 4770000 us: [B2 06 40] channel 3: control change 6 value: 64
timestamp 4770000 us: [B2 4A 40] channel 3: control change 74 value: 64
timestamp 4770000 us: [B2 62 20] channel 3: control change 98 value: 32
timestamp 4770000 us: [B2 63 01] channel 3: control change 99 value: 1
timestamp 4770000 us: [B2 06 40] channel 3: control change 6 value: 64
timestamp 4770000 us: [B2 0A 2C] channel 3: control change 10 value: 44
timestamp 4770000 us: [C3 4B] channel 4: program change 75
timestamp 4780000 us: [B3 0A 4C] channel 4: control change 10 value: 76
timestamp 4780000 us: [B3 48 40] channel 4: control change 72 value: 64
timestamp 4780000 us: [B3 62 66] channel 4: control change 98 value: 102
timestamp 4780000 us: [B3 63 01] channel 4: control change 99 value: 1
timestamp 4780000 us: [B3 06 40] channel 4: control change 6 value: 64
timestamp 4780000 us: [B3 4A 40] channel 4: control change 74 value: 64
timestamp 4780000 us: [B3 62 20] channel 4: control change 98 value: 32
timestamp 4780000 us: [B3 63 01] channel 4: control change 99 value: 1
timestamp 4780000 us: [B3 06 40] channel 4: control change 6 value: 64
timestamp 4780000 us: [B3 0A 4C] channel 4: control change 10 value: 76
timestamp 4780000 us: [C4 30] channel 5: program change 48
timestamp 4790000 us: [B4 0A 58] channel 5: control change 10 value: 88
timestamp 4790000 us: [B4 48 40] channel 5: control change 72 value: 64
timestamp 4790000 us: [B4 62 66] channel 5: control change 98 value: 102
timestamp 4790000 us: [B4 63 01] channel 5: control change 99 value: 1
timestamp 4790000 us: [B4 06 40] channel 5: control change 6 value: 64
timestamp 4790000 us: [B4 4A 40] channel 5: control change 74 value: 64
timestamp 4790000 us: [B4 62 20] channel 5: control change 98 value: 32
timestamp 4790000 us: [B4 63 01] channel 5: control change 99 value: 1
timestamp 4790000 us: [B4 06 40] channel 5: control change 6 value: 64
timestamp 4790000 us: [B4 0A 58] channel 5: control change 10 value: 88
timestamp 4800000 us: [C5 1B] channel 6: program change 27
timestamp 4800000 us: [B5 0A 54] channel 6: control change 10 value: 84
timestamp 4800000 us: [B5 48 40] channel 6: control change 72 value: 64
timestamp 4800000 us: [B5 62 66] channel 6: control change 98 value: 102
timestamp 4800000 us: [B5 63 01] channel 6: control change 99 value: 1
timestamp 4800000 us: [B5 06 40] channel 6: control change 6 value: 64
timestamp 4800000 us: [B5 4A 40] channel 6: control change 74 value: 64
timestamp 4800000 us: [B5 62 20] channel 6: control change 98 value: 32
timestamp 4800000 us: [B5 63 01] channel 6: control change 99 value: 1
timestamp 4800000 us: [B5 06 40] channel 6: control change 6 value: 64
timestamp 4800000 us: [B5 0A 54] channel 6: control change 10 value: 84
timestamp 4810000 us: [C6 19] channel 7: program change 25
timestamp 4810000 us: [B6 0A 6A] channel 7: control change 10 value: 106
timestamp 4810000 us: [B6 48 40] channel 7: control change 72 value: 64
timestamp 4810000 us: [B6 62 66] channel 7: control change 98 value: 102
timestamp 4810000 us: [B6 63 01] channel 7: control change 99 value: 1
timestamp 4810000 us: [B6 06 40] channel 7: control change 6 value: 64
timestamp 4810000 us: [B6 4A 40] channel 7: control change 74 value: 64
timestamp 4810000 us: [B6 62 20] channel 7: control change 98 value: 32
timestamp 4810000 us: [B6 63 01] channel 7: control change 99 value: 1
timestamp 4810000 us: [B6 06 40] channel 7: control change 6 value: 64
timestamp 4810000 us: [B6 0A 6A] channel 7: control change 10 value: 106
timestamp 4810000 us: [C7 34] channel 8: program change 52
timestamp 4820000 us: [B7 0A 5C] channel 8: control change 10 value: 92
timestamp 4820000 us: [B7 48 40] channel 8: control change 72 value: 64
timestamp 4820000 us: [B7 62 66] channel 8: control change 98 value: 102
timestamp 4820000 us: [B7 63 01] channel 8: control change 99 value: 1
timestamp 4820000 us: [B7 06 40] channel 8: control change 6 value: 64
timestamp 4820000 us: [B7 4A 40] channel 8: control change 74 value: 64
timestamp 4820000 us: [B7 62 20] channel 8: control change 98 value: 32
timestamp 4820000 us: [B7 63 01] channel 8: control change 99 value: 1
timestamp 4820000 us: [B7 06 40] channel 8: control change 6 value: 64
timestamp 4820000 us: [B7 0A 5C] channel 8: control change 10 value: 92
timestamp 4830000 us: [C8 3D] channel 9: program change 61
timestamp 4830000 us: [B8 0A 26] channel 9: control change 10 value: 38
timestamp 4830000 us: [B8 48 40] channel 9: control change 72 value: 64
timestamp 4830000 us: [B8 62 66] channel 9: control change 98 value: 102
timestamp 4830000 us: [B8 63 01] channel 9: control change 99 value: 1
timestamp 4830000 us: [B8 06 40] channel 9: control change 6 value: 64
timestamp 4830000 us: [B8 4A 40] channel 9: control change 74 value: 64
timestamp 4830000 us: [B8 62 20] channel 9: control change 98 value: 32
timestamp 4830000 us: [B8 63 01] channel 9: control change 99 value: 1
timestamp 4830000 us: [B8 06 40] channel 9: control change 6 value: 64
timestamp 4840000 us: [B8 0A 26] channel 9: control change 10 value: 38
timestamp 4840000 us: [C9 00] channel 10: program change 0
timestamp 4840000 us: [B9 0A 40] channel 10: control change 10 value: 64
timestamp 4840000 us: [B9 48 40] channel 10: control change 72 value: 64
timestamp 4840000 us: [B9 62 66] channel 10: control change 98 value: 102
timestamp 4840000 us: [B9 63 01] channel 10: control change 99 value: 1
timestamp 4840000 us: [B9 06 40] channel 10: control change 6 value: 64
timestamp 4840000 us: [B9 4A 40] channel 10: control change 74 value: 64
timestamp 4840000 us: [B9 62 20] channel 10: control change 98 value: 32
timestamp 4840000 us: [B9 63 01] channel 10: control change 99 value: 1
timestamp 4840000 us: [B9 06 40] channel 10: control change 6 value: 64
timestamp 6230000 us: [B0 0A 40] channel 1: control change 10 value: 64
timestamp 6230000 us: [B0 48 40] channel 1: control change 72 value: 64
timestamp 6240000 us: [B0 62 66] channel 1: control change 98 value: 102
timestamp 6240000 us: [B0 63 01] channel 1: control change 99 value: 1
timestamp 6240000 us: [B0 06 40] channel 1: control change 6 value: 64
timestamp 6240000 us: [B0 4A 40] channel 1: control change 74 value: 64
timestamp 6240000 us: [B0 62 20] channel 1: control change 98 value: 32
timestamp 6240000 us: [B0 63 01] channel 1: control change 99 value: 1
timestamp 6240000 us: [B0 06 40] channel 1: control change 6 value: 64
timestamp 6240000 us: Sysex message: F0 43 10 4C 00 00 04 7F F7
timestamp 6240000 us: [B0 07 64] channel 1: control change 7 value: 100
timestamp 6240000 us: [B0 0B 7F] channel 1: control change 11 value: 127
timestamp 6240000 us: [90 19 02] channel 1: note On C#1 velocity: 2
timestamp 6320000 us: [90 19 00] channel 1: note On C#1 velocity: 0
timestamp 6340000 us: [90 3E 02] channel 1: note On D4 velocity: 2
timestamp 6360000 us: [90 3E 00] channel 1: note On D4 velocity: 0
timestamp 6420000 us: [90 4C 02] channel 1: note On E5 velocity: 2
timestamp 6460000 us: [90 4C 00] channel 1: note On E5 velocity: 0
timestamp 6500000 us: [90 17 02] channel 1: note On B0 velocity: 2
timestamp 6520000 us: [90 17 00] channel 1: note On B0 velocity: 0
timestamp 6590000 us: [90 16 02] channel 1: note On A#0 velocity: 2
timestamp 6650000 us: [90 16 00] channel 1: note On A#0 velocity: 0
timestamp 6650000 us: [B1 79 00] channel 2: control change 121 value: 0
timestamp 6720000 us: [90 35 02] channel 1: note On F3 velocity: 2
timestamp 6730000 us: [B1 5B 00] channel 2: control change 91 value: 0
timestamp 6730000 us: [B1 5D 20] channel 2: control change 93 value: 32
timestamp 6740000 us: [B2 79 00] channel 3: control change 121 value: 0
timestamp 6740000 us: [B3 79 00] channel 4: control change 121 value: 0
timestamp 6780000 us: [90 35 00] channel 1: note On F3 velocity: 0
timestamp 6810000 us: [B2 5B 40] channel 3: control change 91 value: 64
timestamp 6810000 us: [B2 5D 00] channel 3: control change 93 value: 0
timestamp 6820000 us: [90 21 02] channel 1: note On A1 velocity: 2
timestamp 6840000 us: [B4 79 00] channel 5: control change 121 value: 0
timestamp 6840000 us: [90 21 00] channel 1: note On A1 velocity: 0
timestamp 6850000 us: [90 0B 02] channel 1: note On B-1 velocity: 2
timestamp 6850000 us: [B5 79 00] channel 6: control change 121 value: 0
timestamp 6850000 us: [B6 79 00] channel 7: control change 121 value: 0
timestamp 6860000 us: [B7 79 00] channel 8: control change 121 value: 0
timestamp 6880000 us: [B3 5B 68] channel 4: control change 91 value: 104
timestamp 6880000 us: [B3 5D 00] channel 4: control change 93 value: 0
timestamp 6930000 us: [90 0B 00] channel 1: note On B-1 velocity: 0
timestamp 6940000 us: [B4 5B 6E] channel 5: control change 91 value: 110
timestamp 6940000 us: [B4 5D 18] channel 5: control change 93 value: 24
timestamp 6980000 us: [90 3C 02] channel 1: note On C4 velocity: 2
timestamp 7010000 us: [90 3C 00] channel 1: note On C4 velocity: 0
timestamp 7030000 us: [B5 5B 68] channel 6: control change 91 value: 104
timestamp 7030000 us: [B5 5D 54] channel 6: control change 93 value: 84
timestamp 7080000 us: [90 05 02] channel 1: note On F-1 velocity: 2
timestamp 7080000 us: [B8 79 00] channel 9: control change 121 value: 0
timestamp 7100000 us: [B6 5B 52] channel 7: control change 91 value: 82
timestamp 7100000 us: [B6 5D 00] channel 7: control change 93 value: 0
timestamp 7150000 us: [90 05 00] channel 1: note On F-1 velocity: 0
timestamp 7150000 us: [90 31 02] channel 1: note On C#3 velocity: 2
timestamp 7170000 us: [90 31 00] channel 1: note On C#3 velocity: 0
timestamp 7170000 us: [B7 5B 6C] channel 8: control change 91 value: 108
timestamp 7170000 us: [B7 5D 00] channel 8: control change 93 value: 0
timestamp 7230000 us: [90 0E 02] channel 1: note On D0 velocity: 2
timestamp 7260000 us: [B8 5B 64] channel 9: control change 91 value: 100
timestamp 7260000 us: [B8 5D 00] channel 9: control change 93 value: 0
timestamp 7310000 us: [90 0E 00] channel 1: note On D0 velocity: 0
timestamp 7330000 us: [B9 5B 34] channel 10: control change 91 value: 52
timestamp 7330000 us: [B9 5D 00] channel 10: control change 93 value: 0
timestamp 7340000 us: [90 0B 02] channel 1: note On B-1 velocity: 2
timestamp 7360000 us: [90 0B 00] channel 1: note On B-1 velocity: 0
timestamp 7390000 us: [90 43 02] channel 1: note On G4 velocity: 2
timestamp 7460000 us: [90 43 00] channel 1: note On G4 velocity: 0
timestamp 7560000 us: [90 2B 02] channel 1: note On G2 velocity: 2
timestamp 7610000 us: [90 2B 00] channel 1: note On G2 velocity: 0
timestamp 7670000 us: [90 11 02] channel 1: note On F0 velocity: 2
timestamp 7710000 us: [90 11 00] channel 1: note On F0 velocity: 0
timestamp 7770000 us: [E4 00 40] channel 5: pitch wheel change 8192
timestamp 7780000 us: [E1 00 40] channel 2: pitch wheel change 8192
timestamp 7790000 us: [E2 00 40] channel 3: pitch wheel change 8192
timestamp 7790000 us: [E3 00 40] channel 4: pitch wheel change 8192
timestamp 7790000 us: [E5 00 40] channel 6: pitch wheel change 8192
timestamp 7790000 us: [E6 00 40] channel 7: pitch wheel change 8192
timestamp 7800000 us: [E7 00 40] channel 8: pitch wheel change 8192
timestamp 7800000 us: [E8 00 40] channel 9: pitch wheel change 8192
timestamp 7800000 us: [E9 00 40] channel 10: pitch wheel change 8192
timestamp 7800000 us: [90 3D 02] channel 1: note On C#4 velocity: 2
timestamp 7870000 us: [E4 00 00] channel 5: pitch wheel change 0
timestamp 7880000 us: [90 3D 00] channel 1: note On C#4 velocity: 0
timestamp 7910000 us: [90 21 02] channel 1: note On A1 velocity: 2
timestamp 7930000 us: [90 21 00] channel 1: note On A1 velocity: 0
timestamp 7940000 us: [90 49 02] channel 1: note On C#5 velocity: 2
timestamp 8000000 us: [90 49 00] channel 1: note On C#5 velocity: 0
timestamp 8020000 us: [90 0D 02] channel 1: note On C#0 velocity: 2
timestamp 8100000 us: [90 0D 00] channel 1: note On C#0 velocity: 0
timestamp 8140000 us: [90 42 02] channel 1: note On F#4 velocity: 2
timestamp 8230000 us: [90 42 00] channel 1: note On F#4 velocity: 0
timestamp 8260000 us: [90 2F 02] channel 1: note On B2 velocity: 2
timestamp 8350000 us: [90 2F 00] channel 1: note On B2 velocity: 0
timestamp 8390000 us: [90 06 02] channel 1: note On F#-1 velocity: 2
timestamp 8410000 us: [90 06 00] channel 1: note On F#-1 velocity: 0
timestamp 8450000 us: [90 3D 02] channel 1: note On C#4 velocity: 2
timestamp 8510000 us: [90 3D 00] channel 1: note On C#4 velocity: 0
timestamp 8560000 us: [90 06 02] channel 1: note On F#-1 velocity: 2
timestamp 8600000 us: [90 06 00] channel 1: note On F#-1 velocity: 0
timestamp 8690000 us: [90 0B 02] channel 1: note On B-1 velocity: 2
timestamp 8750000 us: [90 0B 00] channel 1: note On B-1 velocity: 0
timestamp 8840000 us: [90 46 02] channel 1: note On A#4 velocity: 2
timestamp 8850000 us: [90 46 00] channel 1: note On A#4 velocity: 0
timestamp 8860000 us: [90 1C 02] channel 1: note On E1 velocity: 2
timestamp 8950000 us: [90 1C 00] channel 1: note On E1 velocity: 0
timestamp 8970000 us: [90 0C 02] channel 1: note On C0 velocity: 2
timestamp 9050000 us: [90 0C 00] channel 1: note On C0 velocity: 0
timestamp 9050000 us: [90 19 02] channel 1: note On C#1 velocity: 2
timestamp 9130000 us: [90 19 00] channel 1: note On C#1 velocity: 0
timestamp 9160000 us: [90 50 02] channel 1: note On G#5 velocity: 2
timestamp 9180000 us: [90 50 00] channel 1: note On G#5 velocity: 0
timestamp 9270000 us: [90 4E 02] channel 1: note On F#5 velocity: 2
timestamp 9280000 us: [90 4E 00] channel 1: note On F#5 velocity: 0
timestamp 9290000 us: [90 07 02] channel 1: note On G-1 velocity: 2
timestamp 9380000 us: [90 07 00] channel 1: note On G-1 velocity: 0
timestamp 9480000 us: [90 2F 02] channel 1: note On B2 velocity: 2
timestamp 9540000 us: [90 2F 00] channel 1: note On B2 velocity: 0
timestamp 9570000 us: [90 03 02] channel 1: note On D#-1 velocity: 2
timestamp 9580000 us: [90 03 00] channel 1: note On D#-1 velocity: 0
timestamp 9610000 us: [90 43 02] channel 1: note On G4 velocity: 2
timestamp 9650000 us: [90 43 00] channel 1: note On G4 velocity: 0
timestamp 9720000 us: [90 31 02] channel 1: note On C#3 velocity: 2
timestamp 9730000 us: [B4 07 54] channel 5: control change 7 value: 84
timestamp 9730000 us: [B4 0B 7F] channel 5: control change 11 value: 127
timestamp 9730000 us: [94 4D 64] channel 5: note On F5 velocity: 100
timestamp 9730000 us: [94 59 73] channel 5: note On F6 velocity: 115
timestamp 9780000 us: [90 31 00] channel 1: note On C#3 velocity: 0
timestamp 9790000 us: [90 09 02] channel 1: note On A-1 velocity: 2
timestamp 9800000 us: [90 09 00] channel 1: note On A-1 velocity: 0
timestamp 9860000 us: [B1 07 6E] channel 2: control change 7 value: 110
timestamp 9860000 us: [B1 0B 7F] channel 2: control change 11 value: 127
timestamp 9860000 us: [91 1D 5C] channel 2: note On F1 velocity: 92
timestamp 9870000 us: [B9 07 72] channel 10: control change 7 value: 114
timestamp 9870000 us: [B9 0B 7F] channel 10: control change 11 value: 127
timestamp 9870000 us: [99 23 6D] channel 10: note On B1 velocity: 109
timestamp 9870000 us: [90 3B 02] channel 1: note On B3 velocity: 2
timestamp 9870000 us: [99 23 00] channel 10: note On B1 velocity: 0
timestamp 9890000 us: [90 3B 00] channel 1: note On B3 velocity: 0
timestamp 9900000 us: [90 14 02] channel 1: note On G#0 velocity: 2
timestamp 9920000 us: [E4 00 12] channel 5: pitch wheel change 2304
timestamp 9940000 us: [E4 00 25] channel 5: pitch wheel change 4736
timestamp 9950000 us: [E4 00 2F] channel 5: pitch wheel change 6016
timestamp 9960000 us: [90 14 00] channel 1: note On G#0 velocity: 0
timestamp 9970000 us: [E4 00 3A] channel 5: pitch wheel change 7424
timestamp 9990000 us: [E4 00 40] channel 5: pitch wheel change 8192
timestamp 10200000 us: [B2 07 77] channel 3: control change 7 value: 119
timestamp 10200000 us: [B2 0B 7F] channel 3: control change 11 value: 127
timestamp 10200000 us: [92 35 45] channel 3: note On F3 velocity: 69
timestamp 10330000 us: [99 23 6D] channel 10: note On B1 velocity: 109
timestamp 10340000 us: [92 3E 55] channel 3: note On D4 velocity: 85
timestamp 10340000 us: [99 23 00] channel 10: note On B1 velocity: 0
timestamp 10340000 us: [92 3A 4E] channel 3: note On A#3 velocity: 78
timestamp 10410000 us: [92 3E 00] channel 3: note On D4 velocity: 0
timestamp 10410000 us: [92 3A 00] channel 3: note On A#3 velocity: 0
timestamp 10470000 us: [92 35 00] channel 3: note On F3 velocity: 0
timestamp 10670000 us: [92 35 46] channel 3: note On F3 velocity: 70
timestamp 10670000 us: [92 39 46] channel 3: note On A3 velocity: 70
timestamp 10680000 us: [92 3C 46] channel 3: note On C4 velocity: 70
timestamp 10790000 us: [99 23 6D] channel 10: note On B1 velocity: 109
timestamp 10800000 us: [99 23 00] channel 10: note On B1 velocity: 0
timestamp 10960000 us: [92 35 00] channel 3: note On F3 velocity: 0
timestamp 11030000 us: [92 3C 00] channel 3: note On C4 velocity: 0
timestamp 11030000 us: [92 39 00] channel 3: note On A3 velocity: 0
timestamp 11120000 us: [92 35 48] channel 3: note On F3 velocity: 72
timestamp 11260000 us: [92 3A 56] channel 3: note On A#3 velocity: 86
timestamp 11260000 us: [92 3E 52] channel 3: note On D4 velocity: 82
timestamp 11260000 us: [99 23 6D] channel 10: note On B1 velocity: 109
timestamp 11270000 us: [99 23 00] channel 10: note On B1 velocity: 0
timestamp 11330000 us: [92 3E 00] channel 3: note On D4 velocity: 0
timestamp 11330000 us: [92 3A 00] channel 3: note On A#3 velocity: 0
timestamp 11380000 us: [92 35 00] channel 3: note On F3 velocity: 0
timestamp 11590000 us: [92 35 48] channel 3: note On F3 velocity: 72
timestamp 11600000 us: [92 39 42] channel 3: note On A3 velocity: 66
timestamp 11600000 us: [92 3C 42] channel 3: note On C4 velocity: 66
timestamp 11720000 us: [99 23 6D] channel 10: note On B1 velocity: 109
timestamp 11730000 us: [99 23 00] channel 10: note On B1 velocity: 0
timestamp 11940000 us: [92 35 00] channel 3: note On F3 velocity: 0
timestamp 12010000 us: [92 3C 00] channel 3: note On C4 velocity: 0
timestamp 12030000 us: [92 39 00] channel 3: note On A3 velocity: 0
timestamp 12050000 us: [92 35 45] channel 3: note On F3 velocity: 69
timestamp 12120000 us: [92 35 00] channel 3: note On F3 velocity: 0
timestamp 12190000 us: [92 3A 57] channel 3: note On A#3 velocity: 87
timestamp 12190000 us: [99 23 6D] channel 10: note On B1 velocity: 109
timestamp 12200000 us: [92 3E 56] channel 3: note On D4 velocity: 86
timestamp 12200000 us: [99 23 00] channel 10: note On B1 velocity: 0
timestamp 12200000 us: [92 35 50] channel 3: note On F3 velocity: 80
timestamp 12260000 us: [92 3A 00] channel 3: note On A#3 velocity: 0
timestamp 12260000 us: [94 59 00] channel 5: note On F6 velocity: 0
timestamp 12260000 us: [94 4D 00] channel 5: note On F5 velocity: 0
timestamp 12270000 us: [92 3E 00] channel 3: note On D4 velocity: 0
timestamp 12300000 us: [92 35 00] channel 3: note On F3 velocity: 0
timestamp 12480000 us: [94 48 65] channel 5: note On C5 velocity: 101
timestamp 12480000 us: [94 54 65] channel 5: note On C6 velocity: 101
timestamp 12530000 us: [92 35 41] channel 3: note On F3 velocity: 65
timestamp 12530000 us: [92 39 40] channel 3: note On A3 velocity: 64
timestamp 12540000 us: [92 3C 41] channel 3: note On C4 velocity: 65
timestamp 12550000 us: [94 54 00] channel 5: note On C6 velocity: 0
timestamp 12550000 us: [94 48 00] channel 5: note On C5 velocity: 0
timestamp 12630000 us: [94 4B 69] channel 5: note On D#5 velocity: 105
timestamp 12640000 us: [94 57 67] channel 5: note On D#6 velocity: 103
timestamp 12650000 us: [99 23 6D] channel 10: note On B1 velocity: 109
timestamp 12660000 us: [99 23 00] channel 10: note On B1 velocity: 0
timestamp 12710000 us: [94 57 00] channel 5: note On D#6 velocity: 0
timestamp 12710000 us: [94 4B 00] channel 5: note On D#5 velocity: 0
timestamp 12790000 us: [94 48 65] channel 5: note On C5 velocity: 101
timestamp 12790000 us: [94 54 63] channel 5: note On C6 velocity: 99
timestamp 12860000 us: [92 35 00] channel 3: note On F3 velocity: 0
timestamp 12860000 us: [94 54 00] channel 5: note On C6 velocity: 0
timestamp 12860000 us: [94 48 00] channel 5: note On C5 velocity: 0
timestamp 12920000 us: [92 39 00] channel 3: note On A3 velocity: 0
timestamp 12930000 us: [92 3C 00] channel 3: note On C4 velocity: 0
timestamp 12950000 us: [94 45 65] channel 5: note On A4 velocity: 101
timestamp 12950000 us: [94 51 65] channel 5: note On A5 velocity: 101
timestamp 12990000 us: [92 35 45] channel 3: note On F3 velocity: 69
timestamp 13020000 us: [94 51 00] channel 5: note On A5 velocity: 0
timestamp 13020000 us: [94 45 00] channel 5: note On A4 velocity: 0
timestamp 13090000 us: [92 35 00] channel 3: note On F3 velocity: 0
timestamp 13100000 us: [94 41 65] channel 5: note On F4 velocity: 101
timestamp 13100000 us: [94 4D 63] channel 5: note On F5 velocity: 99
timestamp 13120000 us: [99 23 6D] channel 10: note On B1 velocity: 109
timestamp 13130000 us: [92 35 45] channel 3: note On F3 velocity: 69
timestamp 13130000 us: [92 3A 51] channel 3: note On A#3 velocity: 81
timestamp 13130000 us: [92 3E 56] channel 3: note On D4 velocity: 86
timestamp 13130000 us: [99 23 00] channel 10: note On B1 velocity: 0
timestamp 13170000 us: [94 4D 00] channel 5: note On F5 velocity: 0
timestamp 13170000 us: [94 41 00] channel 5: note On F4 velocity: 0
timestamp 13200000 us: [92 3E 00] channel 3: note On D4 velocity: 0
timestamp 13200000 us: [92 3A 00] channel 3: note On A#3 velocity: 0
timestamp 13200000 us: [92 35 00] channel 3: note On F3 velocity: 0
timestamp 13260000 us: [94 3F 6A] channel 5: note On D#4 velocity: 106
timestamp 13260000 us: [94 4B 69] channel 5: note On D#5 velocity: 105
timestamp 13330000 us: [94 4B 00] channel 5: note On D#5 velocity: 0
timestamp 13330000 us: [94 3F 00] channel 5: note On D#4 velocity: 0
timestamp 13350000 us: [91 1D 00] channel 2: note On F1 velocity: 0
timestamp 13410000 us: [94 3C 63] channel 5: note On C4 velocity: 99
timestamp 13410000 us: [94 48 64] channel 5: note On C5 velocity: 100
timestamp 13460000 us: [91 1D 59] channel 2: note On F1 velocity: 89
timestamp 13460000 us: [92 35 48] channel 3: note On F3 velocity: 72
timestamp 13460000 us: [92 39 44] channel 3: note On A3 velocity: 68
timestamp 13470000 us: [92 3C 45] channel 3: note On C4 velocity: 69
timestamp 13480000 us: [94 48 00] channel 5: note On C5 velocity: 0
timestamp 13480000 us: [94 3C 00] channel 5: note On C4 velocity: 0
timestamp 13570000 us: [E4 00 0C] channel 5: pitch wheel change 1536
timestamp 13570000 us: [94 41 6C] channel 5: note On F4 velocity: 108
timestamp 13570000 us: [94 4D 6E] channel 5: note On F5 velocity: 110
timestamp 13580000 us: [99 23 6D] channel 10: note On B1 velocity: 109
timestamp 13590000 us: [99 23 00] channel 10: note On B1 velocity: 0
timestamp 13720000 us: [E4 00 16] channel 5: pitch wheel change 2816
timestamp 13740000 us: [E4 00 24] channel 5: pitch wheel change 4608
timestamp 13760000 us: [92 35 00] channel 3: note On F3 velocity: 0
timestamp 13770000 us: [E4 00 30] channel 5: pitch wheel change 6144
timestamp 13790000 us: [E4 00 37] channel 5: pitch wheel change 7040
timestamp 13800000 us: [E4 00 40] channel 5: pitch wheel change 8192
timestamp 13810000 us: [92 39 00] channel 3: note On A3 velocity: 0
timestamp 13840000 us: [92 3C 00] channel 3: note On C4 velocity: 0
timestamp 13910000 us: [92 35 48] channel 3: note On F3 velocity: 72
timestamp 14010000 us: [92 35 00] channel 3: note On F3 velocity: 0
timestamp 14050000 us: [99 23 6D] channel 10: note On B1 velocity: 109
timestamp 14060000 us: [92 3A 53] channel 3: note On A#3 velocity: 83
timestamp 14060000 us: [92 3E 55] channel 3: note On D4 velocity: 85
timestamp 14060000 us: [99 23 00] channel 10: note On B1 velocity: 0
timestamp 14060000 us: [92 35 51] channel 3: note On F3 velocity: 81
timestamp 14130000 us: [92 3E 00] channel 3: note On D4 velocity: 0
timestamp 14130000 us: [92 3A 00] channel 3: note On A#3 velocity: 0
timestamp 14130000 us: [92 35 00] channel 3: note On F3 velocity: 0
timestamp 14320000 us: [94 4D 00] channel 5: note On F5 velocity: 0
timestamp 14320000 us: [94 41 00] channel 5: note On F4 velocity: 0
timestamp 14340000 us: [94 3C 5F] channel 5: note On C4 velocity: 95
timestamp 14340000 us: [94 48 60] channel 5: note On C5 velocity: 96
timestamp 14390000 us: [92 35 41] channel 3: note On F3 velocity: 65
timestamp 14390000 us: [92 39 42] channel 3: note On A3 velocity: 66
timestamp 14390000 us: [92 3C 45] channel 3: note On C4 velocity: 69
timestamp 14510000 us: [99 23 6D] channel 10: note On B1 velocity: 109
timestamp 14520000 us: [99 23 00] channel 10: note On B1 velocity: 0
timestamp 14700000 us: [92 35 00] channel 3: note On F3 velocity: 0
timestamp 14770000 us: [92 39 00] channel 3: note On A3 velocity: 0
timestamp 14780000 us: [92 3C 00] channel 3: note On C4 velocity: 0
timestamp 14840000 us: [92 35 46] channel 3: note On F3 velocity: 70
timestamp 14940000 us: [92 35 00] channel 3: note On F3 velocity: 0
timestamp 14980000 us: [92 3A 55] channel 3: note On A#3 velocity: 85
timestamp 14980000 us: [92 3E 55] channel 3: note On D4 velocity: 85
timestamp 14980000 us: [99 23 6D] channel 10: note On B1 velocity: 109
timestamp 14990000 us: [92 35 4E] channel 3: note On F3 velocity: 78
timestamp 14990000 us: [99 23 00] channel 10: note On B1 velocity: 0
timestamp 15050000 us: [92 3E 00] channel 3: note On D4 velocity: 0
timestamp 15050000 us: [92 3A 00] channel 3: note On A#3 velocity: 0
timestamp 15060000 us: [92 35 00] channel 3: note On F3 velocity: 0
timestamp 15320000 us: [92 35 42] channel 3: note On F3 velocity: 66
timestamp 15320000 us: [92 39 42] channel 3: note On A3 velocity: 66
timestamp 15330000 us: [92 3C 45] channel 3: note On C4 velocity: 69
timestamp 15330000 us: [94 48 00] channel 5: note On C5 velocity: 0
timestamp 15330000 us: [94 3C 00] channel 5: note On C4 velocity: 0
timestamp 15430000 us: [E4 00 0C] channel 5: pitch wheel change 1536
timestamp 15430000 us: [94 41 77] channel 5: note On F4 velocity: 119
timestamp 15430000 us: [94 4D 6C] channel 5: note On F5 velocity: 108
timestamp 15450000 us: [99 23 6D] channel 10: note On B1 velocity: 109
timestamp 15450000 us: [99 23 00] channel 10: note On B1 velocity: 0
timestamp 15590000 us: [E4 00 16] channel 5: pitch wheel change 2816
timestamp 15609000 us: [E4 00 24] channel 5: pitch wheel change 4608
timestamp 15633000 us: [E4 00 30] channel 5: pitch wheel change 6144
timestamp 15653000 us: [E4 00 37] channel 5: pitch wheel change 7040
timestamp 15667000 us: [E4 00 40] channel 5: pitch wheel change 8192
timestamp 15672000 us: [92 35 00] channel 3: note On F3 velocity: 0
timestamp 15700000 us: [92 39 00] channel 3: note On A3 velocity: 0
timestamp 15730000 us: [92 3C 00] channel 3: note On C4 velocity: 0
timestamp 15788000 us: [92 35 45] channel 3: note On F3 velocity: 69
timestamp 15870000 us: [92 35 00] channel 3: note On F3 velocity: 0
timestamp 15914000 us: [99 23 6D] channel 10: note On B1 velocity: 109
timestamp 15925000 us: [92 3A 56] channel 3: note On A#3 velocity: 86
timestamp 15926000 us: [99 23 00] channel 10: note On B1 velocity: 0
timestamp 15927000 us: [92 3E 56] channel 3: note On D4 velocity: 86
timestamp 15929000 us: [92 35 4E] channel 3: note On F3 velocity: 78
timestamp 15987000 us: [92 3A 00] channel 3: note On A#3 velocity: 0
timestamp 15987000 us: [92 3E 00] channel 3: note On D4 velocity: 0
timestamp 15987000 us: [92 35 00] channel 3: note On F3 velocity: 0
timestamp 16253000 us: [92 35 40] channel 3: note On F3 velocity: 64
timestamp 16258000 us: [92 39 45] channel 3: note On A3 velocity: 69
timestamp 16260000 us: [92 3C 47] channel 3: note On C4 velocity: 71
timestamp 16380000 us: [99 23 6D] channel 10: note On B1 velocity: 109
timestamp 16388000 us: [99 23 00] channel 10: note On B1 velocity: 0
timestamp 16587000 us: [92 35 00] channel 3: note On F3 velocity: 0
timestamp 16597000 us: [92 3C 00] channel 3: note On C4 velocity: 0
timestamp 16597000 us: [92 39 00] channel 3: note On A3 velocity: 0
timestamp 16689000 us: [99 28 4C] channel 10: note On E2 velocity: 76
timestamp 16698000 us: [99 28 00] channel 10: note On E2 velocity: 0
timestamp 16709000 us: [92 35 45] channel 3: note On F3 velocity: 69
timestamp 16724000 us: [94 4D 00] channel 5: note On F5 velocity: 0
timestamp 16725000 us: [94 41 00] channel 5: note On F4 velocity: 0
timestamp 16771000 us: [92 35 00] channel 3: note On F3 velocity: 0
timestamp 16844000 us: [92 3A 57] channel 3: note On A#3 velocity: 87
timestamp 16846000 us: [92 3E 56] channel 3: note On D4 velocity: 86
timestamp 16848000 us: [99 23 61] channel 10: note On B1 velocity: 97
timestamp 16849000 us: [92 35 50] channel 3: note On F3 velocity: 80
timestamp 16851000 us: [99 28 5C] channel 10: note On E2 velocity: 92
timestamp 16854000 us: [99 23 00] channel 10: note On B1 velocity: 0
timestamp 16855000 us: [99 28 00] channel 10: note On E2 velocity: 0
timestamp 16912000 us: [92 3E 00] channel 3: note On D4 velocity: 0
timestamp 16913000 us: [92 3A 00] channel 3: note On A#3 velocity: 0
timestamp 16946000 us: [92 35 00] channel 3: note On F3 velocity: 0
timestamp 17048000 us: [91 1D 00] channel 2: note On F1 velocity: 0
timestamp 17155000 us: [99 23 4F] channel 10: note On B1 velocity: 79
timestamp 17164000 us: [99 23 00] channel 10: note On B1 velocity: 0
timestamp 17174000 us: [E4 00 00] channel 5: pitch wheel change 0
timestamp 17176000 us: [94 4D 65] channel 5: note On F5 velocity: 101
timestamp 17178000 us: [94 59 69] channel 5: note On F6 velocity: 105
timestamp 17180000 us: [91 1D 5E] channel 2: note On F1 velocity: 94
timestamp 17185000 us: [92 35 41] channel 3: note On F3 velocity: 65
timestamp 17185000 us: [92 39 40] channel 3: note On A3 velocity: 64
timestamp 17187000 us: [92 3C 41] channel 3: note On C4 velocity: 65
timestamp 17310000 us: [99 23 6D] channel 10: note On B1 velocity: 109
timestamp 17318000 us: [99 23 00] channel 10: note On B1 velocity: 0
timestamp 17359000 us: [E4 00 12] channel 5: pitch wheel change 2304
timestamp 17379000 us: [E4 00 25] channel 5: pitch wheel change 4736
timestamp 17399000 us: [E4 00 2F] channel 5: pitch wheel change 6016
timestamp 17419000 us: [E4 00 3A] channel 5: pitch wheel change 7424
timestamp 17439000 us: [E4 00 40] channel 5: pitch wheel change 8192
timestamp 17509000 us: [92 35 00] channel 3: note On F3 velocity: 0
timestamp 17569000 us: [92 39 00] channel 3: note On A3 velocity: 0
timestamp 17579000 us: [92 3C 00] channel 3: note On C4 velocity: 0
timestamp 17639000 us: [92 35 45] channel 3: note On F3 velocity: 69
timestamp 17745000 us: [92 35 00] channel 3: note On F3 velocity: 0
timestamp 17775000 us: [92 35 45] channel 3: note On F3 velocity: 69
timestamp 17776000 us: [92 3A 51] channel 3: note On A#3 velocity: 81
timestamp 17777000 us: [92 3E 56] channel 3: note On D4 velocity: 86
timestamp 17779000 us: [99 23 6D] channel 10: note On B1 velocity: 109
timestamp 17780000 us: [99 28 5C] channel 10: note On E2 velocity: 92
timestamp 17784000 us: [99 23 00] channel 10: note On B1 velocity: 0
timestamp 17784000 us: [99 28 00] channel 10: note On E2 velocity: 0
timestamp 17839000 us: [92 3E 00] channel 3: note On D4 velocity: 0
timestamp 17839000 us: [92 3A 00] channel 3: note On A#3 velocity: 0
timestamp 17839000 us: [92 35 00] channel 3: note On F3 velocity: 0
timestamp 18115000 us: [92 35 48] channel 3: note On F3 velocity: 72
timestamp 18117000 us: [92 39 44] channel 3: note On A3 velocity: 68
timestamp 18118000 us: [92 3C 45] channel 3: note On C4 velocity: 69
timestamp 18240000 us: [99 23 6D] channel 10: note On B1 velocity: 109
timestamp 18249000 us: [99 23 00] channel 10: note On B1 velocity: 0
timestamp 18415000 us: [92 35 00] channel 3: note On F3 velocity: 0
timestamp 18457000 us: [92 39 00] channel 3: note On A3 velocity: 0
timestamp 18491000 us: [92 3C 00] channel 3: note On C4 velocity: 0
timestamp 18569000 us: [92 35 48] channel 3: note On F3 velocity: 72
timestamp 18670000 us: [92 35 00] channel 3: note On F3 velocity: 0
timestamp 18705000 us: [99 23 6D] channel 10: note On B1 velocity: 109
timestamp 18707000 us: [92 35 51] channel 3: note On F3 velocity: 81
timestamp 18708000 us: [92 3A 53] channel 3: note On A#3 velocity: 83
timestamp 18709000 us: [92 3E 55] channel 3: note On D4 velocity: 85
timestamp 18711000 us: [99 28 5C] channel 10: note On E2 velocity: 92
timestamp 18714000 us: [99 23 00] channel 10: note On B1 velocity: 0
timestamp 18715000 us: [99 28 00] channel 10: note On E2 velocity: 0
timestamp 18773000 us: [92 3E 00] channel 3: note On D4 velocity: 0
timestamp 18774000 us: [92 3A 00] channel 3: note On A#3 velocity: 0
timestamp 18775000 us: [92 35 00] channel 3: note On F3 velocity: 0
timestamp 19044000 us: [92 35 41] channel 3: note On F3 velocity: 65
timestamp 19045000 us: [92 39 42] channel 3: note On A3 velocity: 66
timestamp 19047000 us: [92 3C 45] channel 3: note On C4 velocity: 69
timestamp 19171000 us: [99 23 6D] channel 10: note On B1 velocity: 109
timestamp 19179000 us: [99 23 00] channel 10: note On B1 velocity: 0
timestamp 19359000 us: [92 35 00] channel 3: note On F3 velocity: 0
timestamp 19421000 us: [92 39 00] channel 3: note On A3 velocity: 0
timestamp 19421000 us: [92 3C 00] channel 3: note On C4 velocity: 0
timestamp 19499000 us: [92 35 46] channel 3: note On F3 velocity: 70
timestamp 19601000 us: [92 35 00] channel 3: note On F3 velocity: 0
timestamp 19635000 us: [92 35 4E] channel 3: note On F3 velocity: 78
timestamp 19636000 us: [92 3A 55] channel 3: note On A#3 velocity: 85
timestamp 19638000 us: [92 3E 55] channel 3: note On D4 velocity: 85
timestamp 19640000 us: [99 23 6D] channel 10: note On B1 velocity: 109
timestamp 19641000 us: [99 28 5C] channel 10: note On E2 velocity: 92
timestamp 19644000 us: [99 23 00] channel 10: note On B1 velocity: 0
timestamp 19645000 us: [99 28 00] channel 10: note On E2 velocity: 0
timestamp 19704000 us: [92 3E 00] channel 3: note On D4 velocity: 0
timestamp 19704000 us: [92 3A 00] channel 3: note On A#3 velocity: 0
timestamp 19705000 us: [92 35 00] channel 3: note On F3 velocity: 0
timestamp 19707000 us: [94 59 00] channel 5: note On F6 velocity: 0
timestamp 19708000 us: [94 4D 00] channel 5: note On F5 velocity: 0
timestamp 19926000 us: [94 48 64] channel 5: note On C5 velocity: 100
timestamp 19928000 us: [94 54 65] channel 5: note On C6 velocity: 101
timestamp 19975000 us: [92 35 42] channel 3: note On F3 velocity: 66
timestamp 19976000 us: [92 39 42] channel 3: note On A3 velocity: 66
timestamp 19977000 us: [92 3C 45] channel 3: note On C4 velocity: 69
timestamp 19998000 us: [94 54 00] channel 5: note On C6 velocity: 0
timestamp 19999000 us: [94 48 00] channel 5: note On C5 velocity: 0
timestamp 20078000 us: [94 4B 66] channel 5: note On D#5 velocity: 102
timestamp 20078000 us: [94 57 67] channel 5: note On D#6 velocity: 103
timestamp 20098000 us: [99 23 6D] channel 10: note On B1 velocity: 109
timestamp 20108000 us: [99 23 00] channel 10: note On B1 velocity: 0
timestamp 20154000 us: [94 57 00] channel 5: note On D#6 velocity: 0
timestamp 20155000 us: [94 4B 00] channel 5: note On D#5 velocity: 0
timestamp 20236000 us: [94 48 64] channel 5: note On C5 velocity: 100
timestamp 20238000 us: [94 54 63] channel 5: note On C6 velocity: 99
timestamp 20308000 us: [94 54 00] channel 5: note On C6 velocity: 0
timestamp 20309000 us: [94 48 00] channel 5: note On C5 velocity: 0
timestamp 20318000 us: [92 35 00] channel 3: note On F3 velocity: 0
timestamp 20347000 us: [92 39 00] channel 3: note On A3 velocity: 0
timestamp 20385000 us: [92 3C 00] channel 3: note On C4 velocity: 0
timestamp 20392000 us: [94 45 66] channel 5: note On A4 velocity: 102
timestamp 20394000 us: [94 51 65] channel 5: note On A5 velocity: 101
timestamp 20430000 us: [92 35 45] channel 3: note On F3 velocity: 69
timestamp 20464000 us: [94 51 00] channel 5: note On A5 velocity: 0
timestamp 20465000 us: [94 45 00] channel 5: note On A4 velocity: 0
timestamp 20512000 us: [92 35 00] channel 3: note On F3 velocity: 0
timestamp 20547000 us: [94 41 63] channel 5: note On F4 velocity: 99
timestamp 20548000 us: [94 4D 63] channel 5: note On F5 velocity: 99
timestamp 20566000 us: [92 3A 56] channel 3: note On A#3 velocity: 86
timestamp 20568000 us: [99 23 6D] channel 10: note On B1 velocity: 109
timestamp 20570000 us: [92 35 4E] channel 3: note On F3 velocity: 78
timestamp 20571000 us: [92 3E 56] channel 3: note On D4 velocity: 86
timestamp 20572000 us: [99 28 5C] channel 10: note On E2 velocity: 92
timestamp 20575000 us: [99 23 00] channel 10: note On B1 velocity: 0
timestamp 20577000 us: [99 28 00] channel 10: note On E2 velocity: 0
timestamp 20618000 us: [94 4D 00] channel 5: note On F5 velocity: 0
timestamp 20619000 us: [94 41 00] channel 5: note On F4 velocity: 0
timestamp 20636000 us: [92 3A 00] channel 3: note On A#3 velocity: 0
timestamp 20637000 us: [92 3E 00] channel 3: note On D4 velocity: 0
timestamp 20638000 us: [92 35 00] channel 3: note On F3 velocity: 0
timestamp 20702000 us: [94 3F 66] channel 5: note On D#4 velocity: 102
timestamp 20703000 us: [94 4B 69] channel 5: note On D#5 velocity: 105
timestamp 20769000 us: [91 1D 00] channel 2: note On F1 velocity: 0
timestamp 20775000 us: [94 4B 00] channel 5: note On D#5 velocity: 0
timestamp 20776000 us: [94 3F 00] channel 5: note On D#4 velocity: 0
timestamp 20855000 us: [94 3C 64] channel 5: note On C4 velocity: 100
timestamp 20855000 us: [94 48 64] channel 5: note On C5 velocity: 100
timestamp 20905000 us: [91 1D 62] channel 2: note On F1 velocity: 98
timestamp 20906000 us: [92 35 40] channel 3: note On F3 velocity: 64
timestamp 20908000 us: [92 39 45] channel 3: note On A3 velocity: 69
timestamp 20909000 us: [92 3C 47] channel 3: note On C4 velocity: 71
timestamp 20929000 us: [94 48 00] channel 5: note On C5 velocity: 0
timestamp 20929000 us: [94 3C 00] channel 5: note On C4 velocity: 0
timestamp 21012000 us: [E4 00 0C] channel 5: pitch wheel change 1536
timestamp 21017000 us: [94 41 68] channel 5: note On F4 velocity: 104
timestamp 21018000 us: [94 4D 6E] channel 5: note On F5 velocity: 110
timestamp 21031000 us: [99 23 6D] channel 10: note On B1 velocity: 109
timestamp 21039000 us: [99 23 00] channel 10: note On B1 velocity: 0
timestamp 21171000 us: [E4 00 16] channel 5: pitch wheel change 2816
timestamp 21190000 us: [E4 00 24] channel 5: pitch wheel change 4608
timestamp 21215000 us: [E4 00 30] channel 5: pitch wheel change 6144
timestamp 21229000 us: [E5 00 3B] channel 6: pitch wheel change 7552
timestamp 21235000 us: [E4 00 37] channel 5: pitch wheel change 7040
timestamp 21239000 us: [92 35 00] channel 3: note On F3 velocity: 0
timestamp 21244000 us: [92 3C 00] channel 3: note On C4 velocity: 0
timestamp 21245000 us: [92 39 00] channel 3: note On A3 velocity: 0
timestamp 21248000 us: [E5 00 33] channel 6: pitch wheel change 6528
timestamp 21250000 us: [E4 00 40] channel 5: pitch wheel change 8192
timestamp 21264000 us: [E5 00 2A] channel 6: pitch wheel change 5376
timestamp 21282000 us: [E5 00 22] channel 6: pitch wheel change 4352
timestamp 21297000 us: [E5 00 18] channel 6: pitch wheel change 3072
timestamp 21360000 us: [92 35 45] channel 3: note On F3 velocity: 69
timestamp 21466000 us: [92 35 00] channel 3: note On F3 velocity: 0
timestamp 21496000 us: [99 23 6D] channel 10: note On B1 velocity: 109
timestamp 21498000 us: [92 35 45] channel 3: note On F3 velocity: 69
timestamp 21499000 us: [92 3A 51] channel 3: note On A#3 velocity: 81
timestamp 21500000 us: [92 3E 56] channel 3: note On D4 velocity: 86
timestamp 21502000 us: [99 28 5C] channel 10: note On E2 velocity: 92
timestamp 21505000 us: [99 23 00] channel 10: note On B1 velocity: 0
timestamp 21505000 us: [99 28 00] channel 10: note On E2 velocity: 0
timestamp 21564000 us: [92 3E 00] channel 3: note On D4 velocity: 0
timestamp 21565000 us: [92 3A 00] channel 3: note On A#3 velocity: 0
timestamp 21565000 us: [92 35 00] channel 3: note On F3 velocity: 0
timestamp 21767000 us: [94 4D 00] channel 5: note On F5 velocity: 0
timestamp 21767000 us: [94 41 00] channel 5: note On F4 velocity: 0
timestamp 21787000 us: [94 3C 5B] channel 5: note On C4 velocity: 91
timestamp 21788000 us: [94 48 60] channel 5: note On C5 velocity: 96
timestamp 21835000 us: [92 35 48] channel 3: note On F3 velocity: 72
timestamp 21836000 us: [92 39 44] channel 3: note On A3 velocity: 68
timestamp 21838000 us: [92 3C 45] channel 3: note On C4 velocity: 69
timestamp 21961000 us: [99 23 6D] channel 10: note On B1 velocity: 109
timestamp 21970000 us: [99 23 00] channel 10: note On B1 velocity: 0
timestamp 22135000 us: [92 35 00] channel 3: note On F3 velocity: 0
timestamp 22184000 us: [92 39 00] channel 3: note On A3 velocity: 0
timestamp 22212000 us: [92 3C 00] channel 3: note On C4 velocity: 0
timestamp 22290000 us: [92 35 48] channel 3: note On F3 velocity: 72
timestamp 22391000 us: [92 35 00] channel 3: note On F3 velocity: 0
timestamp 22426000 us: [99 23 6D] channel 10: note On B1 velocity: 109
timestamp 22428000 us: [92 35 51] channel 3: note On F3 velocity: 81
timestamp 22429000 us: [92 3A 53] channel 3: note On A#3 velocity: 83
timestamp 22431000 us: [92 3E 55] channel 3: note On D4 velocity: 85
timestamp 22432000 us: [99 28 5C] channel 10: note On E2 velocity: 92
timestamp 22435000 us: [99 23 00] channel 10: note On B1 velocity: 0
timestamp 22436000 us: [99 28 00] channel 10: note On E2 velocity: 0
timestamp 22494000 us: [92 3E 00] channel 3: note On D4 velocity: 0
timestamp 22495000 us: [92 3A 00] channel 3: note On A#3 velocity: 0
timestamp 22496000 us: [92 35 00] channel 3: note On F3 velocity: 0
timestamp 22759000 us: [92 35 41] channel 3: note On F3 velocity: 65
timestamp 22759000 us: [92 39 42] channel 3: note On A3 velocity: 66
timestamp 22759000 us: [92 3C 45] channel 3: note On C4 velocity: 69
timestamp 22779000 us: [94 48 00] channel 5: note On C5 velocity: 0
timestamp 22779000 us: [94 3C 00] channel 5: note On C4 velocity: 0
timestamp 22869000 us: [E4 00 0C] channel 5: pitch wheel change 1536
timestamp 22869000 us: [94 41 66] channel 5: note On F4 velocity: 102
timestamp 22879000 us: [94 4D 6C] channel 5: note On F5 velocity: 108
timestamp 22889000 us: [99 23 6D] channel 10: note On B1 velocity: 109
timestamp 22899000 us: [99 23 00] channel 10: note On B1 velocity: 0
timestamp 23029000 us: [E4 00 16] channel 5: pitch wheel change 2816
timestamp 23049000 us: [E4 00 24] channel 5: pitch wheel change 4608
timestamp 23069000 us: [E4 00 30] channel 5: pitch wheel change 6144
timestamp 23079000 us: [92 35 00] channel 3: note On F3 velocity: 0
timestamp 23089000 us: [E4 00 37] channel 5: pitch wheel change 7040
timestamp 23109000 us: [E4 00 40] channel 5: pitch wheel change 8192
timestamp 23139000 us: [92 39 00] channel 3: note On A3 velocity: 0
timestamp 23139000 us: [92 3C 00] channel 3: note On C4 velocity: 0
timestamp 23169000 us: [B5 07 60] channel 6: control change 7 value: 96
timestamp 23169000 us: [B5 0B 7F] channel 6: control change 11 value: 127
timestamp 23169000 us: [95 41 37] channel 6: note On F4 velocity: 55
timestamp 23169000 us: [95 45 52] channel 6: note On A4 velocity: 82
timestamp 23169000 us: [E5 00 10] channel 6: pitch wheel change 2048
timestamp 23189000 us: [E5 00 0A] channel 6: pitch wheel change 1280
timestamp 23219000 us: [92 35 46] channel 3: note On F3 velocity: 70
timestamp 23219000 us: [E5 00 08] channel 6: pitch wheel change 1024
timestamp 23269000 us: [E5 00 0C] channel 6: pitch wheel change 1536
timestamp 23309000 us: [E5 00 1A] channel 6: pitch wheel change 3328
timestamp 23319000 us: [92 35 00] channel 3: note On F3 velocity: 0
timestamp 23329000 us: [E5 00 26] channel 6: pitch wheel change 4864
timestamp 23349000 us: [E5 00 2B] channel 6: pitch wheel change 5504
timestamp 23349000 us: [92 3A 55] channel 3: note On A#3 velocity: 85
timestamp 23349000 us: [92 3E 55] channel 3: note On D4 velocity: 85
timestamp 23359000 us: [99 23 6D] channel 10: note On B1 velocity: 109
timestamp 23359000 us: [92 35 4E] channel 3: note On F3 velocity: 78
timestamp 23359000 us: [99 28 5C] channel 10: note On E2 velocity: 92
timestamp 23359000 us: [99 23 00] channel 10: note On B1 velocity: 0
timestamp 23359000 us: [99 28 00] channel 10: note On E2 velocity: 0
timestamp 23369000 us: [E5 00 32] channel 6: pitch wheel change 6400
timestamp 23379000 us: [E5 00 3B] channel 6: pitch wheel change 7552
timestamp 23399000 us: [E5 00 40] channel 6: pitch wheel change 8192
timestamp 23419000 us: [92 3E 00] channel 3: note On D4 velocity: 0
timestamp 23419000 us: [92 3A 00] channel 3: note On A#3 velocity: 0
timestamp 23419000 us: [92 35 00] channel 3: note On F3 velocity: 0
timestamp 23569000 us: [E5 00 3E] channel 6: pitch wheel change 7936
timestamp 23579000 us: [E5 00 37] channel 6: pitch wheel change 7040
timestamp 23599000 us: [E5 00 2E] channel 6: pitch wheel change 5888
timestamp 23619000 us: [E5 00 24] channel 6: pitch wheel change 4608
timestamp 23629000 us: [E5 00 14] channel 6: pitch wheel change 2560
timestamp 23649000 us: [95 45 00] channel 6: note On A4 velocity: 0
timestamp 23649000 us: [95 41 00] channel 6: note On F4 velocity: 0
timestamp 23649000 us: [E5 00 06] channel 6: pitch wheel change 768
timestamp 23659000 us: [95 3C 32] channel 6: note On C4 velocity: 50
timestamp 23659000 us: [95 41 4F] channel 6: note On F4 velocity: 79
timestamp 23669000 us: [E5 00 00] channel 6: pitch wheel change 0
timestamp 23689000 us: [92 35 42] channel 3: note On F3 velocity: 66
timestamp 23689000 us: [92 39 42] channel 3: note On A3 velocity: 66
timestamp 23689000 us: [92 3C 45] channel 3: note On C4 velocity: 69
timestamp 23779000 us: [E5 00 04] channel 6: pitch wheel change 512
timestamp 23799000 us: [E5 00 0E] channel 6: pitch wheel change 1792
timestamp 23819000 us: [99 23 6D] channel 10: note On B1 velocity: 109
timestamp 23819000 us: [E5 00 1C] channel 6: pitch wheel change 3584
timestamp 23829000 us: [99 23 00] channel 10: note On B1 velocity: 0
timestamp 23839000 us: [E5 00 28] channel 6: pitch wheel change 5120
timestamp 23859000 us: [E5 00 2F] channel 6: pitch wheel change 6016
timestamp 23869000 us: [E5 00 39] channel 6: pitch wheel change 7296
timestamp 23889000 us: [E5 00 40] channel 6: pitch wheel change 8192
timestamp 24039000 us: [92 35 00] channel 3: note On F3 velocity: 0
timestamp 24049000 us: [E5 00 3B] channel 6: pitch wheel change 7552
timestamp 24059000 us: [92 39 00] channel 3: note On A3 velocity: 0
timestamp 24079000 us: [E5 00 27] channel 6: pitch wheel change 4992
timestamp 24089000 us: [E5 00 18] channel 6: pitch wheel change 3072
timestamp 24099000 us: [92 3C 00] channel 3: note On C4 velocity: 0
timestamp 24109000 us: [E5 00 08] channel 6: pitch wheel change 1024
timestamp 24129000 us: [99 2A 3E] channel 10: note On F#2 velocity: 62
timestamp 24129000 us: [E5 00 00] channel 6: pitch wheel change 0
timestamp 24129000 us: [99 28 5C] channel 10: note On E2 velocity: 92
timestamp 24139000 us: [99 2A 00] channel 10: note On F#2 velocity: 0
timestamp 24139000 us: [99 28 00] channel 10: note On E2 velocity: 0
timestamp 24149000 us: [92 35 45] channel 3: note On F3 velocity: 69
timestamp 24159000 us: [95 41 00] channel 6: note On F4 velocity: 0
timestamp 24159000 us: [95 3C 00] channel 6: note On C4 velocity: 0
timestamp 24169000 us: [95 35 27] channel 6: note On F3 velocity: 39
timestamp 24169000 us: [95 3C 41] channel 6: note On C4 velocity: 65
timestamp 24229000 us: [92 35 00] channel 3: note On F3 velocity: 0
timestamp 24259000 us: [E5 00 0A] channel 6: pitch wheel change 1280
timestamp 24279000 us: [E5 00 14] channel 6: pitch wheel change 2560
timestamp 24279000 us: [99 23 6D] channel 10: note On B1 velocity: 109
timestamp 24279000 us: [99 2D 54] channel 10: note On A2 velocity: 84
timestamp 24289000 us: [99 2E 2D] channel 10: note On A#2 velocity: 45
timestamp 24289000 us: [92 3A 56] channel 3: note On A#3 velocity: 86
timestamp 24289000 us: [92 3E 56] channel 3: note On D4 velocity: 86
timestamp 24289000 us: [99 28 4C] channel 10: note On E2 velocity: 76
timestamp 24289000 us: [92 35 4E] channel 3: note On F3 velocity: 78
timestamp 24299000 us: [99 2E 00] channel 10: note On A#2 velocity: 0
timestamp 24299000 us: [99 23 00] channel 10: note On B1 velocity: 0
timestamp 24299000 us: [99 2D 00] channel 10: note On A2 velocity: 0
timestamp 24299000 us: [99 28 00] channel 10: note On E2 velocity: 0
timestamp 24299000 us: [E5 00 20] channel 6: pitch wheel change 4096
timestamp 24319000 us: [E5 00 29] channel 6: pitch wheel change 5248
timestamp 24329000 us: [E5 00 2F] channel 6: pitch wheel change 6016
timestamp 24349000 us: [92 3E 00] channel 3: note On D4 velocity: 0
timestamp 24349000 us: [92 3A 00] channel 3: note On A#3 velocity: 0
timestamp 24349000 us: [E5 00 37] channel 6: pitch wheel change 7040
timestamp 24359000 us: [92 35 00] channel 3: note On F3 velocity: 0
timestamp 24369000 us: [E5 00 3E] channel 6: pitch wheel change 7936
timestamp 24379000 us: [E5 00 40] channel 6: pitch wheel change 8192
timestamp 24439000 us: [99 2C 25] channel 10: note On G#2 velocity: 37
timestamp 24449000 us: [99 2C 00] channel 10: note On G#2 velocity: 0
timestamp 24469000 us: [94 4D 00] channel 5: note On F5 velocity: 0
timestamp 24469000 us: [94 41 00] channel 5: note On F4 velocity: 0
timestamp 24589000 us: [B3 07 77] channel 4: control change 7 value: 119
timestamp 24589000 us: [B3 0B 7F] channel 4: control change 11 value: 127
timestamp 24589000 us: [93 41 4D] channel 4: note On F4 velocity: 77
timestamp 24599000 us: [99 2D 3B] channel 10: note On A2 velocity: 59
timestamp 24599000 us: [99 2D 00] channel 10: note On A2 velocity: 0
timestamp 24629000 us: [92 35 40] channel 3: note On F3 velocity: 64
timestamp 24629000 us: [92 39 45] channel 3: note On A3 velocity: 69
timestamp 24629000 us: [92 3C 47] channel 3: note On C4 velocity: 71
timestamp 24729000 us: [93 41 00] channel 4: note On F4 velocity: 0
timestamp 24739000 us: [91 1D 00] channel 2: note On F1 velocity: 0
timestamp 24749000 us: [91 1D 62] channel 2: note On F1 velocity: 98
timestamp 24749000 us: [93 45 64] channel 4: note On A4 velocity: 100
timestamp 24749000 us: [95 30 4A] channel 6: note On C3 velocity: 74
timestamp 24749000 us: [B6 07 5B] channel 7: control change 7 value: 91
timestamp 24749000 us: [B6 0B 7F] channel 7: control change 11 value: 127
timestamp 24749000 us: [96 35 4E] channel 7: note On F3 velocity: 78
timestamp 24759000 us: [99 23 6D] channel 10: note On B1 velocity: 109
timestamp 24759000 us: [99 31 41] channel 10: note On C#3 velocity: 65
timestamp 24759000 us: [99 31 00] channel 10: note On C#3 velocity: 0
timestamp 24759000 us: [99 23 00] channel 10: note On B1 velocity: 0
timestamp 24769000 us: [96 39 46] channel 7: note On A3 velocity: 70
timestamp 24779000 us: [91 1D 00] channel 2: note On F1 velocity: 0
timestamp 24779000 us: [96 3C 4D] channel 7: note On C4 velocity: 77
timestamp 24889000 us: [95 3C 00] channel 6: note On C4 velocity: 0
timestamp 24889000 us: [95 35 00] channel 6: note On F3 velocity: 0
timestamp 24959000 us: [92 35 00] channel 3: note On F3 velocity: 0
timestamp 24959000 us: [92 3C 00] channel 3: note On C4 velocity: 0
timestamp 24959000 us: [92 39 00] channel 3: note On A3 velocity: 0
timestamp 24999000 us: [93 45 00] channel 4: note On A4 velocity: 0
timestamp 25019000 us: [95 30 00] channel 6: note On C3 velocity: 0
timestamp 25039000 us: [96 3C 00] channel 7: note On C4 velocity: 0
timestamp 25039000 us: [96 39 00] channel 7: note On A3 velocity: 0
timestamp 25049000 us: [96 35 00] channel 7: note On F3 velocity: 0
timestamp 25059000 us: [93 45 59] channel 4: note On A4 velocity: 89
timestamp 25059000 us: [95 30 2D] channel 6: note On C3 velocity: 45
timestamp 25059000 us: [96 35 44] channel 7: note On F3 velocity: 68
timestamp 25059000 us: [99 2A 25] channel 10: note On F#2 velocity: 37
timestamp 25069000 us: [99 2A 00] channel 10: note On F#2 velocity: 0
timestamp 25079000 us: [92 35 45] channel 3: note On F3 velocity: 69
timestamp 25139000 us: [95 30 00] channel 6: note On C3 velocity: 0
timestamp 25179000 us: [93 45 00] channel 4: note On A4 velocity: 0
timestamp 25179000 us: [92 35 00] channel 3: note On F3 velocity: 0
timestamp 25209000 us: [92 35 45] channel 3: note On F3 velocity: 69
timestamp 25209000 us: [92 3A 51] channel 3: note On A#3 velocity: 81
timestamp 25219000 us: [92 3E 56] channel 3: note On D4 velocity: 86
timestamp 25219000 us: [93 45 60] channel 4: note On A4 velocity: 96
timestamp 25219000 us: [95 2E 37] channel 6: note On A#2 velocity: 55
timestamp 25219000 us: [95 32 4C] channel 6: note On D3 velocity: 76
timestamp 25219000 us: [96 3A 5E] channel 7: note On A#3 velocity: 94
timestamp 25219000 us: [99 23 6D] channel 10: note On B1 velocity: 109
timestamp 25229000 us: [99 2A 49] channel 10: note On F#2 velocity: 73
timestamp 25229000 us: [99 28 5C] channel 10: note On E2 velocity: 92
timestamp 25229000 us: [99 2A 00] channel 10: note On F#2 velocity: 0
timestamp 25229000 us: [99 23 00] channel 10: note On B1 velocity: 0
timestamp 25229000 us: [99 28 00] channel 10: note On E2 velocity: 0
timestamp 25239000 us: [96 3E 5B] channel 7: note On D4 velocity: 91
timestamp 25279000 us: [92 3E 00] channel 3: note On D4 velocity: 0
timestamp 25279000 us: [92 3A 00] channel 3: note On A#3 velocity: 0
timestamp 25279000 us: [92 35 00] channel 3: note On F3 velocity: 0
timestamp 25329000 us: [93 45 00] channel 4: note On A4 velocity: 0
timestamp 25329000 us: [95 32 00] channel 6: note On D3 velocity: 0
timestamp 25329000 us: [95 2E 00] channel 6: note On A#2 velocity: 0
timestamp 25369000 us: [93 45 51] channel 4: note On A4 velocity: 81
timestamp 25389000 us: [96 35 00] channel 7: note On F3 velocity: 0
timestamp 25399000 us: [96 3A 00] channel 7: note On A#3 velocity: 0
timestamp 25409000 us: [96 3E 00] channel 7: note On D4 velocity: 0
timestamp 25519000 us: [93 45 00] channel 4: note On A4 velocity: 0
timestamp 25519000 us: [93 41 62] channel 4: note On F4 velocity: 98
timestamp 25529000 us: [95 30 2E] channel 6: note On C3 velocity: 46
timestamp 25529000 us: [96 35 41] channel 7: note On F3 velocity: 65
timestamp 25529000 us: [99 2A 25] channel 10: note On F#2 velocity: 37
timestamp 25529000 us: [99 2A 00] channel 10: note On F#2 velocity: 0
timestamp 25549000 us: [92 35 48] channel 3: note On F3 velocity: 72
timestamp 25549000 us: [92 39 44] channel 3: note On A3 velocity: 68
timestamp 25559000 us: [92 3C 45] channel 3: note On C4 velocity: 69
timestamp 25589000 us: [95 30 00] channel 6: note On C3 velocity: 0
timestamp 25669000 us: [96 35 00] channel 7: note On F3 velocity: 0
timestamp 25679000 us: [95 30 45] channel 6: note On C3 velocity: 69
timestamp 25679000 us: [96 35 4E] channel 7: note On F3 velocity: 78
timestamp 25679000 us: [99 23 6D] channel 10: note On B1 velocity: 109
timestamp 25679000 us: [99 2A 35] channel 10: note On F#2 velocity: 53
timestamp 25689000 us: [99 2A 00] channel 10: note On F#2 velocity: 0
timestamp 25689000 us: [99 23 00] channel 10: note On B1 velocity: 0
timestamp 25689000 us: [96 39 46] channel 7: note On A3 velocity: 70
timestamp 25709000 us: [96 3C 4D] channel 7: note On C4 velocity: 77
timestamp 25759000 us: [93 41 00] channel 4: note On F4 velocity: 0
timestamp 25829000 us: [93 41 5F] channel 4: note On F4 velocity: 95
timestamp 25849000 us: [92 35 00] channel 3: note On F3 velocity: 0
timestamp 25899000 us: [92 39 00] channel 3: note On A3 velocity: 0
timestamp 25929000 us: [92 3C 00] channel 3: note On C4 velocity: 0
timestamp 25939000 us: [95 30 00] channel 6: note On C3 velocity: 0
timestamp 25969000 us: [96 3C 00] channel 7: note On C4 velocity: 0
timestamp 25969000 us: [96 39 00] channel 7: note On A3 velocity: 0
timestamp 25979000 us: [96 35 00] channel 7: note On F3 velocity: 0
timestamp 25989000 us: [95 30 31] channel 6: note On C3 velocity: 49
timestamp 25989000 us: [96 35 41] channel 7: note On F3 velocity: 65
timestamp 25989000 us: [99 2A 25] channel 10: note On F#2 velocity: 37
timestamp 25999000 us: [99 2A 00] channel 10: note On F#2 velocity: 0
timestamp 26009000 us: [92 35 48] channel 3: note On F3 velocity: 72
timestamp 26049000 us: [93 41 00] channel 4: note On F4 velocity: 0
timestamp 26109000 us: [92 35 00] channel 3: note On F3 velocity: 0
timestamp 26139000 us: [95 2E 38] channel 6: note On A#2 velocity: 56
timestamp 26139000 us: [95 32 4C] channel 6: note On D3 velocity: 76
timestamp 26149000 us: [96 3A 5E] channel 7: note On A#3 velocity: 94
timestamp 26149000 us: [99 23 6D] channel 10: note On B1 velocity: 109
timestamp 26149000 us: [99 2A 49] channel 10: note On F#2 velocity: 73
timestamp 26149000 us: [92 35 51] channel 3: note On F3 velocity: 81
timestamp 26149000 us: [92 3A 53] channel 3: note On A#3 velocity: 83
timestamp 26149000 us: [92 3E 55] channel 3: note On D4 velocity: 85
timestamp 26159000 us: [95 30 00] channel 6: note On C3 velocity: 0
timestamp 26159000 us: [99 28 5C] channel 10: note On E2 velocity: 92
timestamp 26159000 us: [99 2A 00] channel 10: note On F#2 velocity: 0
timestamp 26159000 us: [99 23 00] channel 10: note On B1 velocity: 0
timestamp 26159000 us: [99 28 00] channel 10: note On E2 velocity: 0
timestamp 26169000 us: [96 3E 5B] channel 7: note On D4 velocity: 91
timestamp 26209000 us: [92 3E 00] channel 3: note On D4 velocity: 0
timestamp 26209000 us: [92 3A 00] channel 3: note On A#3 velocity: 0
timestamp 26209000 us: [92 35 00] channel 3: note On F3 velocity: 0
timestamp 26259000 us: [95 32 00] channel 6: note On D3 velocity: 0
timestamp 26259000 us: [95 2E 00] channel 6: note On A#2 velocity: 0
timestamp 26319000 us: [96 35 00] channel 7: note On F3 velocity: 0
timestamp 26329000 us: [96 3A 00] channel 7: note On A#3 velocity: 0
timestamp 26339000 us: [96 3E 00] channel 7: note On D4 velocity: 0
timestamp 26449000 us: [93 41 3F] channel 4: note On F4 velocity: 63
timestamp 26459000 us: [95 30 2F] channel 6: note On C3 velocity: 47
timestamp 26459000 us: [96 35 41] channel 7: note On F3 velocity: 65
timestamp 26459000 us: [99 2A 25] channel 10: note On F#2 velocity: 37
timestamp 26459000 us: [99 2A 00] channel 10: note On F#2 velocity: 0
timestamp 26479000 us: [92 35 41] channel 3: note On F3 velocity: 65
timestamp 26479000 us: [92 39 42] channel 3: note On A3 velocity: 66
timestamp 26489000 us: [92 3C 45] channel 3: note On C4 velocity: 69
timestamp 26539000 us: [93 41 00] channel 4: note On F4 velocity: 0
timestamp 26549000 us: [95 30 00] channel 6: note On C3 velocity: 0
timestamp 26599000 us: [96 35 00] channel 7: note On F3 velocity: 0
timestamp 26609000 us: [93 45 60] channel 4: note On A4 velocity: 96
timestamp 26609000 us: [95 30 42] channel 6: note On C3 velocity: 66
timestamp 26609000 us: [96 35 4E] channel 7: note On F3 velocity: 78
timestamp 26609000 us: [99 23 6D] channel 10: note On B1 velocity: 109
timestamp 26609000 us: [99 2A 35] channel 10: note On F#2 velocity: 53
timestamp 26619000 us: [99 2A 00] channel 10: note On F#2 velocity: 0
timestamp 26619000 us: [99 23 00] channel 10: note On B1 velocity: 0
timestamp 26619000 us: [96 39 46] channel 7: note On A3 velocity: 70
timestamp 26639000 us: [96 3C 4D] channel 7: note On C4 velocity: 77
timestamp 26799000 us: [92 35 00] channel 3: note On F3 velocity: 0
timestamp 26849000 us: [93 45 00] channel 4: note On A4 velocity: 0
timestamp 26859000 us: [92 39 00] channel 3: note On A3 velocity: 0
timestamp 26859000 us: [92 3C 00] channel 3: note On C4 velocity: 0
timestamp 26879000 us: [95 30 00] channel 6: note On C3 velocity: 0
timestamp 26899000 us: [96 3C 00] channel 7: note On C4 velocity: 0
timestamp 26899000 us: [96 39 00] channel 7: note On A3 velocity: 0
timestamp 26909000 us: [96 35 00] channel 7: note On F3 velocity: 0
timestamp 26919000 us: [93 45 54] channel 4: note On A4 velocity: 84
timestamp 26919000 us: [95 30 32] channel 6: note On C3 velocity: 50
timestamp 26919000 us: [96 35 44] channel 7: note On F3 velocity: 68
timestamp 26919000 us: [99 2A 25] channel 10: note On F#2 velocity: 37
timestamp 26929000 us: [99 2A 00] channel 10: note On F#2 velocity: 0
timestamp 26939000 us: [92 35 46] channel 3: note On F3 velocity: 70
timestamp 27029000 us: [93 45 00] channel 4: note On A4 velocity: 0
timestamp 27039000 us: [92 35 00] channel 3: note On F3 velocity: 0
timestamp 27069000 us: [95 30 00] channel 6: note On C3 velocity: 0
timestamp 27069000 us: [92 35 4E] channel 3: note On F3 velocity: 78
timestamp 27079000 us: [92 3A 55] channel 3: note On A#3 velocity: 85
timestamp 27079000 us: [92 3E 55] channel 3: note On D4 velocity: 85
timestamp 27079000 us: [93 45 5B] channel 4: note On A4 velocity: 91
timestamp 27079000 us: [95 2E 37] channel 6: note On A#2 velocity: 55
timestamp 27079000 us: [95 32 4B] channel 6: note On D3 velocity: 75
timestamp 27079000 us: [96 3A 5E] channel 7: note On A#3 velocity: 94
timestamp 27079000 us: [99 23 6D] channel 10: note On B1 velocity: 109
timestamp 27089000 us: [99 2A 49] channel 10: note On F#2 velocity: 73
timestamp 27089000 us: [99 28 5C] channel 10: note On E2 velocity: 92
timestamp 27089000 us: [99 2A 00] channel 10: note On F#2 velocity: 0
timestamp 27089000 us: [99 23 00] channel 10: note On B1 velocity: 0
timestamp 27089000 us: [99 28 00] channel 10: note On E2 velocity: 0
timestamp 27099000 us: [96 3E 5B] channel 7: note On D4 velocity: 91
timestamp 27139000 us: [92 3E 00] channel 3: note On D4 velocity: 0
timestamp 27139000 us: [92 3A 00] channel 3: note On A#3 velocity: 0
timestamp 27149000 us: [92 35 00] channel 3: note On F3 velocity: 0
timestamp 27219000 us: [95 32 00] channel 6: note On D3 velocity: 0
timestamp 27219000 us: [95 2E 00] channel 6: note On A#2 velocity: 0
timestamp 27249000 us: [96 35 00] channel 7: note On F3 velocity: 0
timestamp 27259000 us: [96 3A 00] channel 7: note On A#3 velocity: 0
timestamp 27269000 us: [96 3E 00] channel 7: note On D4 velocity: 0
timestamp 27319000 us: [93 45 00] channel 4: note On A4 velocity: 0
timestamp 27379000 us: [93 41 54] channel 4: note On F4 velocity: 84
timestamp 27389000 us: [95 30 2E] channel 6: note On C3 velocity: 46
timestamp 27389000 us: [96 35 41] channel 7: note On F3 velocity: 65
timestamp 27389000 us: [99 2A 25] channel 10: note On F#2 velocity: 37
timestamp 27389000 us: [99 2A 00] channel 10: note On F#2 velocity: 0
timestamp 27409000 us: [92 35 42] channel 3: note On F3 velocity: 66
timestamp 27409000 us: [92 39 42] channel 3: note On A3 velocity: 66
timestamp 27419000 us: [92 3C 45] channel 3: note On C4 velocity: 69
timestamp 27489000 us: [95 30 00] channel 6: note On C3 velocity: 0
timestamp 27529000 us: [96 35 00] channel 7: note On F3 velocity: 0
timestamp 27539000 us: [95 30 45] channel 6: note On C3 velocity: 69
timestamp 27539000 us: [96 35 4E] channel 7: note On F3 velocity: 78
timestamp 27539000 us: [99 23 6D] channel 10: note On B1 velocity: 109
timestamp 27539000 us: [99 2A 35] channel 10: note On F#2 velocity: 53
timestamp 27549000 us: [99 2A 00] channel 10: note On F#2 velocity: 0
timestamp 27549000 us: [99 23 00] channel 10: note On B1 velocity: 0
timestamp 27549000 us: [96 39 46] channel 7: note On A3 velocity: 70
timestamp 27569000 us: [96 3C 4D] channel 7: note On C4 velocity: 77
timestamp 27659000 us: [93 41 00] channel 4: note On F4 velocity: 0
timestamp 27759000 us: [92 35 00] channel 3: note On F3 velocity: 0
timestamp 27789000 us: [92 39 00] channel 3: note On A3 velocity: 0
timestamp 27799000 us: [95 30 00] channel 6: note On C3 velocity: 0
timestamp 27819000 us: [92 3C 00] channel 3: note On C4 velocity: 0
timestamp 27829000 us: [96 3C 00] channel 7: note On C4 velocity: 0
timestamp 27829000 us: [96 39 00] channel 7: note On A3 velocity: 0
timestamp 27839000 us: [96 35 00] channel 7: note On F3 velocity: 0
timestamp 27849000 us: [95 30 30] channel 6: note On C3 velocity: 48
timestamp 27849000 us: [96 35 41] channel 7: note On F3 velocity: 65
timestamp 27849000 us: [99 2A 25] channel 10: note On F#2 velocity: 37
timestamp 27859000 us: [99 2A 00] channel 10: note On F#2 velocity: 0
timestamp 27869000 us: [92 35 45] channel 3: note On F3 velocity: 69
timestamp 27949000 us: [92 35 00] channel 3: note On F3 velocity: 0
timestamp 27979000 us: [95 30 00] channel 6: note On C3 velocity: 0
timestamp 27999000 us: [92 3A 56] channel 3: note On A#3 velocity: 86
timestamp 28009000 us: [95 2E 37] channel 6: note On A#2 velocity: 55
timestamp 28009000 us: [95 32 4B] channel 6: note On D3 velocity: 75
timestamp 28009000 us: [96 3A 5E] channel 7: note On A#3 velocity: 94
timestamp 28009000 us: [99 23 6D] channel 10: note On B1 velocity: 109
timestamp 28009000 us: [99 2A 49] channel 10: note On F#2 velocity: 73
timestamp 28009000 us: [92 35 4E] channel 3: note On F3 velocity: 78
timestamp 28009000 us: [92 3E 56] channel 3: note On D4 velocity: 86
timestamp 28019000 us: [99 28 5C] channel 10: note On E2 velocity: 92
timestamp 28019000 us: [99 2A 00] channel 10: note On F#2 velocity: 0
timestamp 28019000 us: [99 23 00] channel 10: note On B1 velocity: 0
timestamp 28019000 us: [99 28 00] channel 10: note On E2 velocity: 0
timestamp 28029000 us: [96 3E 5B] channel 7: note On D4 velocity: 91
timestamp 28069000 us: [92 3A 00] channel 3: note On A#3 velocity: 0
timestamp 28069000 us: [92 3E 00] channel 3: note On D4 velocity: 0
timestamp 28069000 us: [92 35 00] channel 3: note On F3 velocity: 0
timestamp 28119000 us: [95 32 00] channel 6: note On D3 velocity: 0
timestamp 28119000 us: [95 2E 00] channel 6: note On A#2 velocity: 0
timestamp 28179000 us: [96 35 00] channel 7: note On F3 velocity: 0
timestamp 28189000 us: [96 3A 00] channel 7: note On A#3 velocity: 0
timestamp 28199000 us: [96 3E 00] channel 7: note On D4 velocity: 0
timestamp 28309000 us: [93 41 52] channel 4: note On F4 velocity: 82
timestamp 28319000 us: [95 30 2D] channel 6: note On C3 velocity: 45
timestamp 28319000 us: [96 35 41] channel 7: note On F3 velocity: 65
timestamp 28319000 us: [99 2A 25] channel 10: note On F#2 velocity: 37
timestamp 28319000 us: [99 2A 00] channel 10: note On F#2 velocity: 0
timestamp 28339000 us: [91 1D 62] channel 2: note On F1 velocity: 98
timestamp 28339000 us: [92 35 40] channel 3: note On F3 velocity: 64
timestamp 28349000 us: [92 39 45] channel 3: note On A3 velocity: 69
timestamp 28349000 us: [92 3C 47] channel 3: note On C4 velocity: 71
timestamp 28439000 us: [93 41 00] channel 4: note On F4 velocity: 0
timestamp 28459000 us: [95 30 00] channel 6: note On C3 velocity: 0
timestamp 28459000 us: [96 35 00] channel 7: note On F3 velocity: 0
timestamp 28469000 us: [93 45 64] channel 4: note On A4 velocity: 100
timestamp 28469000 us: [95 30 4A] channel 6: note On C3 velocity: 74
timestamp 28469000 us: [96 35 4E] channel 7: note On F3 velocity: 78
timestamp 28469000 us: [99 23 6D] channel 10: note On B1 velocity: 109
timestamp 28479000 us: [99 2A 35] channel 10: note On F#2 velocity: 53
timestamp 28479000 us: [99 2A 00] channel 10: note On F#2 velocity: 0
timestamp 28479000 us: [99 23 00] channel 10: note On B1 velocity: 0
timestamp 28479000 us: [96 39 46] channel 7: note On A3 velocity: 70
timestamp 28499000 us: [96 3C 4D] channel 7: note On C4 velocity: 77
timestamp 28679000 us: [92 35 00] channel 3: note On F3 velocity: 0
timestamp 28679000 us: [92 3C 00] channel 3: note On C4 velocity: 0
timestamp 28679000 us: [92 39 00] channel 3: note On A3 velocity: 0
timestamp 28699000 us: [93 45 00] channel 4: note On A4 velocity: 0
timestamp 28739000 us: [95 30 00] channel 6: note On C3 velocity: 0
timestamp 28759000 us: [96 3C 00] channel 7: note On C4 velocity: 0
timestamp 28759000 us: [96 39 00] channel 7: note On A3 velocity: 0
timestamp 28769000 us: [96 35 00] channel 7: note On F3 velocity: 0
timestamp 28779000 us: [93 45 54] channel 4: note On A4 velocity: 84
timestamp 28779000 us: [95 30 2D] channel 6: note On C3 velocity: 45
timestamp 28779000 us: [96 35 44] channel 7: note On F3 velocity: 68
timestamp 28779000 us: [99 2A 25] channel 10: note On F#2 velocity: 37
timestamp 28789000 us: [99 2A 00] channel 10: note On F#2 velocity: 0
timestamp 28799000 us: [92 35 45] channel 3: note On F3 velocity: 69
timestamp 28859000 us: [95 30 00] channel 6: note On C3 velocity: 0
timestamp 28889000 us: [93 45 00] channel 4: note On A4 velocity: 0
timestamp 28899000 us: [92 35 00] channel 3: note On F3 velocity: 0
timestamp 28929000 us: [93 46 5F] channel 4: note On A#4 velocity: 95
timestamp 28939000 us: [95 2E 37] channel 6: note On A#2 velocity: 55
timestamp 28939000 us: [95 32 4C] channel 6: note On D3 velocity: 76
timestamp 28939000 us: [96 3A 5E] channel 7: note On A#3 velocity: 94
timestamp 28939000 us: [99 23 6D] channel 10: note On B1 velocity: 109
timestamp 28939000 us: [99 2A 49] channel 10: note On F#2 velocity: 73
timestamp 28939000 us: [92 35 45] channel 3: note On F3 velocity: 69
timestamp 28939000 us: [92 3A 51] channel 3: note On A#3 velocity: 81
timestamp 28949000 us: [92 3E 56] channel 3: note On D4 velocity: 86
timestamp 28949000 us: [99 28 5C] channel 10: note On E2 velocity: 92
timestamp 28949000 us: [99 2A 00] channel 10: note On F#2 velocity: 0
timestamp 28949000 us: [99 23 00] channel 10: note On B1 velocity: 0
timestamp 28949000 us: [99 28 00] channel 10: note On E2 velocity: 0
timestamp 28959000 us: [96 3E 5B] channel 7: note On D4 velocity: 91
timestamp 28999000 us: [92 3E 00] channel 3: note On D4 velocity: 0
timestamp 28999000 us: [92 3A 00] channel 3: note On A#3 velocity: 0
timestamp 28999000 us: [92 35 00] channel 3: note On F3 velocity: 0
timestamp 29049000 us: [95 32 00] channel 6: note On D3 velocity: 0
timestamp 29059000 us: [95 2E 00] channel 6: note On A#2 velocity: 0
timestamp 29109000 us: [96 35 00] channel 7: note On F3 velocity: 0
timestamp 29119000 us: [96 3A 00] channel 7: note On A#3 velocity: 0
timestamp 29129000 us: [96 3E 00] channel 7: note On D4 velocity: 0
timestamp 29199000 us: [93 46 00] channel 4: note On A#4 velocity: 0
timestamp 29239000 us: [93 46 5D] channel 4: note On A#4 velocity: 93
timestamp 29249000 us: [95 30 2E] channel 6: note On C3 velocity: 46
timestamp 29249000 us: [96 35 41] channel 7: note On F3 velocity: 65
timestamp 29249000 us: [99 2A 25] channel 10: note On F#2 velocity: 37
timestamp 29249000 us: [99 2A 00] channel 10: note On F#2 velocity: 0
timestamp 29269000 us: [92 35 48] channel 3: note On F3 velocity: 72
timestamp 29269000 us: [92 39 44] channel 3: note On A3 velocity: 68
timestamp 29279000 us: [92 3C 45] channel 3: note On C4 velocity: 69
timestamp 29309000 us: [95 30 00] channel 6: note On C3 velocity: 0
timestamp 29379000 us: [93 46 00] channel 4: note On A#4 velocity: 0
timestamp 29389000 us: [96 35 00] channel 7: note On F3 velocity: 0
timestamp 29399000 us: [93 48 5F] channel 4: note On C5 velocity: 95
timestamp 29399000 us: [95 30 45] channel 6: note On C3 velocity: 69
timestamp 29399000 us: [96 35 4E] channel 7: note On F3 velocity: 78
timestamp 29399000 us: [99 23 6D] channel 10: note On B1 velocity: 109
timestamp 29409000 us: [99 2A 35] channel 10: note On F#2 velocity: 53
timestamp 29409000 us: [99 2A 00] channel 10: note On F#2 velocity: 0
timestamp 29409000 us: [99 23 00] channel 10: note On B1 velocity: 0
timestamp 29409000 us: [96 39 46] channel 7: note On A3 velocity: 70
timestamp 29429000 us: [96 3C 4D] channel 7: note On C4 velocity: 77
timestamp 29569000 us: [92 35 00] channel 3: note On F3 velocity: 0
timestamp 29599000 us: [93 48 00] channel 4: note On C5 velocity: 0
timestamp 29619000 us: [92 39 00] channel 3: note On A3 velocity: 0
timestamp 29649000 us: [92 3C 00] channel 3: note On C4 velocity: 0
timestamp 29659000 us: [95 30 00] channel 6: note On C3 velocity: 0
timestamp 29689000 us: [96 3C 00] channel 7: note On C4 velocity: 0
timestamp 29689000 us: [96 39 00] channel 7: note On A3 velocity: 0
timestamp 29699000 us: [96 35 00] channel 7: note On F3 velocity: 0
timestamp 29709000 us: [93 48 56] channel 4: note On C5 velocity: 86
timestamp 29709000 us: [95 30 31] channel 6: note On C3 velocity: 49
timestamp 29709000 us: [96 35 41] channel 7: note On F3 velocity: 65
timestamp 29709000 us: [99 2A 25] channel 10: note On F#2 velocity: 37
timestamp 29719000 us: [99 2A 00] channel 10: note On F#2 velocity: 0
timestamp 29729000 us: [92 35 48] channel 3: note On F3 velocity: 72
timestamp 29829000 us: [92 35 00] channel 3: note On F3 velocity: 0
timestamp 29839000 us: [93 48 00] channel 4: note On C5 velocity: 0
timestamp 29859000 us: [95 2E 38] channel 6: note On A#2 velocity: 56
timestamp 29869000 us: [95 32 4C] channel 6: note On D3 velocity: 76
timestamp 29869000 us: [96 3A 5E] channel 7: note On A#3 velocity: 94
timestamp 29869000 us: [99 23 6D] channel 10: note On B1 velocity: 109
timestamp 29869000 us: [99 2A 49] channel 10: note On F#2 velocity: 73
timestamp 29869000 us: [92 35 51] channel 3: note On F3 velocity: 81
timestamp 29869000 us: [92 3A 53] channel 3: note On A#3 velocity: 83
timestamp 29869000 us: [92 3E 55] channel 3: note On D4 velocity: 85
timestamp 29879000 us: [95 30 00] channel 6: note On C3 velocity: 0
timestamp 29879000 us: [99 28 5C] channel 10: note On E2 velocity: 92
timestamp 29879000 us: [99 2A 00] channel 10: note On F#2 velocity: 0
timestamp 29879000 us: [99 23 00] channel 10: note On B1 velocity: 0
timestamp 29879000 us: [99 28 00] channel 10: note On E2 velocity: 0
timestamp 29889000 us: [96 3E 5B] channel 7: note On D4 velocity: 91
timestamp 29929000 us: [92 3E 00] channel 3: note On D4 velocity: 0
timestamp 29929000 us: [92 3A 00] channel 3: note On A#3 velocity: 0
timestamp 29929000 us: [92 35 00] channel 3: note On F3 velocity: 0
timestamp 29979000 us: [95 32 00] channel 6: note On D3 velocity: 0
timestamp 29979000 us: [95 2E 00] channel 6: note On A#2 velocity: 0
timestamp 30039000 us: [96 35 00] channel 7: note On F3 velocity: 0
timestamp 30049000 us: [96 3A 00] channel 7: note On A#3 velocity: 0
timestamp 30059000 us: [96 3E 00] channel 7: note On D4 velocity: 0
timestamp 30169000 us: [93 48 54] channel 4: note On C5 velocity: 84
timestamp 30179000 us: [95 30 2F] channel 6: note On C3 velocity: 47
timestamp 30179000 us: [96 35 41] channel 7: note On F3 velocity: 65
timestamp 30179000 us: [99 2A 25] channel 10: note On F#2 velocity: 37
timestamp 30179000 us: [99 2A 00] channel 10: note On F#2 velocity: 0
timestamp 30199000 us: [92 35 41] channel 3: note On F3 velocity: 65
timestamp 30199000 us: [92 39 42] channel 3: note On A3 velocity: 66
timestamp 30209000 us: [92 3C 45] channel 3: note On C4 velocity: 69
timestamp 30259000 us: [93 48 00] channel 4: note On C5 velocity: 0
timestamp 30269000 us: [95 30 00] channel 6: note On C3 velocity: 0
timestamp 30319000 us: [96 35 00] channel 7: note On F3 velocity: 0
timestamp 30329000 us: [93 48 5D] channel 4: note On C5 velocity: 93
timestamp 30329000 us: [95 30 42] channel 6: note On C3 velocity: 66
timestamp 30329000 us: [96 35 4E] channel 7: note On F3 velocity: 78
timestamp 30329000 us: [99 23 6D] channel 10: note On B1 velocity: 109
timestamp 30339000 us: [99 2A 35] channel 10: note On F#2 velocity: 53
timestamp 30339000 us: [99 2A 00] channel 10: note On F#2 velocity: 0
timestamp 30339000 us: [99 23 00] channel 10: note On B1 velocity: 0
timestamp 30339000 us: [96 39 46] channel 7: note On A3 velocity: 70
timestamp 30359000 us: [96 3C 4D] channel 7: note On C4 velocity: 77
timestamp 30519000 us: [92 35 00] channel 3: note On F3 velocity: 0
timestamp 30559000 us: [93 48 00] channel 4: note On C5 velocity: 0
timestamp 30579000 us: [92 39 00] channel 3: note On A3 velocity: 0
timestamp 30589000 us: [92 3C 00] channel 3: note On C4 velocity: 0
timestamp 30609000 us: [95 30 00] channel 6: note On C3 velocity: 0
timestamp 30619000 us: [96 3C 00] channel 7: note On C4 velocity: 0
timestamp 30629000 us: [96 39 00] channel 7: note On A3 velocity: 0
timestamp 30629000 us: [96 35 00] channel 7: note On F3 velocity: 0
timestamp 30639000 us: [93 48 58] channel 4: note On C5 velocity: 88
timestamp 30639000 us: [95 30 32] channel 6: note On C3 velocity: 50
timestamp 30639000 us: [96 35 44] channel 7: note On F3 velocity: 68
timestamp 30639000 us: [99 2A 25] channel 10: note On F#2 velocity: 37
timestamp 30649000 us: [99 2A 00] channel 10: note On F#2 velocity: 0
timestamp 30659000 us: [92 35 46] channel 3: note On F3 velocity: 70
timestamp 30759000 us: [93 48 00] channel 4: note On C5 velocity: 0
timestamp 30759000 us: [92 35 00] channel 3: note On F3 velocity: 0
timestamp 30789000 us: [95 30 00] channel 6: note On C3 velocity: 0
timestamp 30789000 us: [92 3A 55] channel 3: note On A#3 velocity: 85
timestamp 30799000 us: [92 3E 55] channel 3: note On D4 velocity: 85
timestamp 30799000 us: [93 48 54] channel 4: note On C5 velocity: 84
timestamp 30799000 us: [95 2E 37] channel 6: note On A#2 velocity: 55
timestamp 30799000 us: [95 32 4B] channel 6: note On D3 velocity: 75
timestamp 30799000 us: [96 3A 5E] channel 7: note On A#3 velocity: 94
timestamp 30799000 us: [99 23 6D] channel 10: note On B1 velocity: 109
timestamp 30799000 us: [99 2A 49] channel 10: note On F#2 velocity: 73
timestamp 30809000 us: [92 35 4E] channel 3: note On F3 velocity: 78
timestamp 30809000 us: [99 28 5C] channel 10: note On E2 velocity: 92
timestamp 30809000 us: [99 2A 00] channel 10: note On F#2 velocity: 0
timestamp 30809000 us: [99 23 00] channel 10: note On B1 velocity: 0
timestamp 30809000 us: [99 28 00] channel 10: note On E2 velocity: 0
timestamp 30819000 us: [96 3E 5B] channel 7: note On D4 velocity: 91
timestamp 30859000 us: [92 3E 00] channel 3: note On D4 velocity: 0
timestamp 30859000 us: [92 3A 00] channel 3: note On A#3 velocity: 0
timestamp 30859000 us: [92 35 00] channel 3: note On F3 velocity: 0
timestamp 30939000 us: [95 32 00] channel 6: note On D3 velocity: 0
timestamp 30939000 us: [95 2E 00] channel 6: note On A#2 velocity: 0
timestamp 30969000 us: [96 35 00] channel 7: note On F3 velocity: 0
timestamp 30979000 us: [96 3A 00] channel 7: note On A#3 velocity: 0
timestamp 30989000 us: [96 3E 00] channel 7: note On D4 velocity: 0
timestamp 31019000 us: [93 48 00] channel 4: note On C5 velocity: 0
timestamp 31099000 us: [93 4A 58] channel 4: note On D5 velocity: 88
timestamp 31109000 us: [95 30 2E] channel 6: note On C3 velocity: 46
timestamp 31109000 us: [96 35 41] channel 7: note On F3 velocity: 65
timestamp 31109000 us: [99 2A 25] channel 10: note On F#2 velocity: 37
timestamp 31109000 us: [99 2A 00] channel 10: note On F#2 velocity: 0
timestamp 31139000 us: [92 35 42] channel 3: note On F3 velocity: 66
timestamp 31139000 us: [92 39 42] channel 3: note On A3 velocity: 66
timestamp 31139000 us: [92 3C 45] channel 3: note On C4 velocity: 69
timestamp 31209000 us: [95 30 00] channel 6: note On C3 velocity: 0
timestamp 31249000 us: [93 4A 00] channel 4: note On D5 velocity: 0
timestamp 31259000 us: [96 35 00] channel 7: note On F3 velocity: 0
timestamp 31259000 us: [93 45 60] channel 4: note On A4 velocity: 96
timestamp 31259000 us: [95 30 45] channel 6: note On C3 velocity: 69
timestamp 31259000 us: [96 35 4E] channel 7: note On F3 velocity: 78
timestamp 31259000 us: [99 23 6D] channel 10: note On B1 velocity: 109
timestamp 31269000 us: [99 2A 35] channel 10: note On F#2 velocity: 53
timestamp 31269000 us: [99 2A 00] channel 10: note On F#2 velocity: 0
timestamp 31269000 us: [99 23 00] channel 10: note On B1 velocity: 0
timestamp 31279000 us: [96 39 46] channel 7: note On A3 velocity: 70
timestamp 31289000 us: [96 3C 4D] channel 7: note On C4 velocity: 77
timestamp 31479000 us: [92 35 00] channel 3: note On F3 velocity: 0
timestamp 31509000 us: [92 39 00] channel 3: note On A3 velocity: 0
timestamp 31509000 us: [93 45 00] channel 4: note On A4 velocity: 0
timestamp 31519000 us: [95 30 00] channel 6: note On C3 velocity: 0
timestamp 31549000 us: [92 3C 00] channel 3: note On C4 velocity: 0
timestamp 31549000 us: [96 3C 00] channel 7: note On C4 velocity: 0
timestamp 31559000 us: [96 39 00] channel 7: note On A3 velocity: 0
timestamp 31559000 us: [96 35 00] channel 7: note On F3 velocity: 0
timestamp 31569000 us: [93 41 5B] channel 4: note On F4 velocity: 91
timestamp 31569000 us: [95 30 30] channel 6: note On C3 velocity: 48
timestamp 31569000 us: [96 35 41] channel 7: note On F3 velocity: 65
timestamp 31569000 us: [99 2A 38] channel 10: note On F#2 velocity: 56
timestamp 31579000 us: [99 28 5C] channel 10: note On E2 velocity: 92
timestamp 31579000 us: [99 2A 00] channel 10: note On F#2 velocity: 0
timestamp 31579000 us: [99 28 00] channel 10: note On E2 velocity: 0
timestamp 31589000 us: [92 35 45] channel 3: note On F3 velocity: 69
timestamp 31669000 us: [92 35 00] channel 3: note On F3 velocity: 0
timestamp 31699000 us: [95 30 00] channel 6: note On C3 velocity: 0
timestamp 31719000 us: [93 41 00] channel 4: note On F4 velocity: 0
timestamp 31719000 us: [93 41 5B] channel 4: note On F4 velocity: 91
timestamp 31729000 us: [95 2E 37] channel 6: note On A#2 velocity: 55
timestamp 31729000 us: [95 32 4B] channel 6: note On D3 velocity: 75
timestamp 31729000 us: [96 3A 5E] channel 7: note On A#3 velocity: 94
timestamp 31729000 us: [B7 07 74] channel 8: control change 7 value: 116
timestamp 31729000 us: [B7 0B 7F] channel 8: control change 11 value: 127
timestamp 31729000 us: [97 41 4E] channel 8: note On F4 velocity: 78
timestamp 31729000 us: [97 45 60] channel 8: note On A4 velocity: 96
timestamp 31739000 us: [99 23 6D] channel 10: note On B1 velocity: 109
timestamp 31739000 us: [99 2A 3E] channel 10: note On F#2 velocity: 62
timestamp 31739000 us: [92 3A 56] channel 3: note On A#3 velocity: 86
timestamp 31739000 us: [92 3E 56] channel 3: note On D4 velocity: 86
timestamp 31739000 us: [99 28 4C] channel 10: note On E2 velocity: 76
timestamp 31749000 us: [92 35 4E] channel 3: note On F3 velocity: 78
timestamp 31749000 us: [99 2A 00] channel 10: note On F#2 velocity: 0
timestamp 31749000 us: [99 23 00] channel 10: note On B1 velocity: 0
timestamp 31749000 us: [99 28 00] channel 10: note On E2 velocity: 0
timestamp 31749000 us: [96 3E 5B] channel 7: note On D4 velocity: 91
timestamp 31839000 us: [95 32 00] channel 6: note On D3 velocity: 0
timestamp 31839000 us: [95 2E 00] channel 6: note On A#2 velocity: 0
timestamp 31899000 us: [96 35 00] channel 7: note On F3 velocity: 0
timestamp 31909000 us: [96 3A 00] channel 7: note On A#3 velocity: 0
timestamp 31919000 us: [96 3E 00] channel 7: note On D4 velocity: 0
timestamp 31919000 us: [92 3E 00] channel 3: note On D4 velocity: 0
timestamp 31919000 us: [92 3A 00] channel 3: note On A#3 velocity: 0
timestamp 31929000 us: [92 35 00] channel 3: note On F3 velocity: 0
timestamp 32029000 us: [93 41 00] channel 4: note On F4 velocity: 0
timestamp 32029000 us: [92 33 17] channel 3: note On D#3 velocity: 23
timestamp 32039000 us: [93 3F 57] channel 4: note On D#4 velocity: 87
timestamp 32039000 us: [95 30 2D] channel 6: note On C3 velocity: 45
timestamp 32039000 us: [96 35 41] channel 7: note On F3 velocity: 65
timestamp 32039000 us: [97 3F 4B] channel 8: note On D#4 velocity: 75
timestamp 32039000 us: [97 43 5D] channel 8: note On G4 velocity: 93
timestamp 32039000 us: [99 28 48] channel 10: note On E2 velocity: 72
timestamp 32049000 us: [97 45 00] channel 8: note On A4 velocity: 0
timestamp 32049000 us: [97 41 00] channel 8: note On F4 velocity: 0
timestamp 32049000 us: [99 28 00] channel 10: note On E2 velocity: 0
timestamp 32109000 us: [92 33 00] channel 3: note On D#3 velocity: 0
timestamp 32179000 us: [95 30 00] channel 6: note On C3 velocity: 0
timestamp 32179000 us: [91 1D 00] channel 2: note On F1 velocity: 0
timestamp 32189000 us: [96 35 00] channel 7: note On F3 velocity: 0
timestamp 32189000 us: [91 1B 62] channel 2: note On D#1 velocity: 98
timestamp 32189000 us: [92 33 48] channel 3: note On D#3 velocity: 72
timestamp 32189000 us: [92 37 4B] channel 3: note On G3 velocity: 75
timestamp 32189000 us: [92 3A 44] channel 3: note On A#3 velocity: 68
timestamp 32199000 us: [95 2E 4A] channel 6: note On A#2 velocity: 74
timestamp 32199000 us: [96 33 4E] channel 7: note On D#3 velocity: 78
timestamp 32199000 us: [99 23 6D] channel 10: note On B1 velocity: 109
timestamp 32199000 us: [99 31 41] channel 10: note On C#3 velocity: 65
timestamp 32209000 us: [99 31 00] channel 10: note On C#3 velocity: 0
timestamp 32209000 us: [99 23 00] channel 10: note On B1 velocity: 0
timestamp 32209000 us: [96 37 46] channel 7: note On G3 velocity: 70
timestamp 32219000 us: [96 3A 4D] channel 7: note On A#3 velocity: 77
timestamp 32379000 us: [92 33 00] channel 3: note On D#3 velocity: 0
timestamp 32429000 us: [97 3F 00] channel 8: note On D#4 velocity: 0
timestamp 32429000 us: [97 43 00] channel 8: note On G4 velocity: 0
timestamp 32449000 us: [92 3A 00] channel 3: note On A#3 velocity: 0
timestamp 32449000 us: [93 3F 00] channel 4: note On D#4 velocity: 0
timestamp 32459000 us: [95 2E 00] channel 6: note On A#2 velocity: 0
timestamp 32489000 us: [96 3A 00] channel 7: note On A#3 velocity: 0
timestamp 32489000 us: [96 37 00] channel 7: note On G3 velocity: 0
timestamp 32489000 us: [96 33 00] channel 7: note On D#3 velocity: 0
timestamp 32499000 us: [92 33 56] channel 3: note On D#3 velocity: 86
timestamp 32499000 us: [95 2E 2D] channel 6: note On A#2 velocity: 45
timestamp 32499000 us: [96 33 44] channel 7: note On D#3 velocity: 68
timestamp 32499000 us: [99 2A 25] channel 10: note On F#2 velocity: 37
timestamp 32509000 us: [99 2A 00] channel 10: note On F#2 velocity: 0
timestamp 32539000 us: [92 37 00] channel 3: note On G3 velocity: 0
timestamp 32579000 us: [95 2E 00] channel 6: note On A#2 velocity: 0
timestamp 32659000 us: [92 38 52] channel 3: note On G#3 velocity: 82
timestamp 32659000 us: [92 3C 52] channel 3: note On C4 velocity: 82
timestamp 32659000 us: [95 2C 37] channel 6: note On G#2 velocity: 55
timestamp 32659000 us: [95 30 4C] channel 6: note On C3 velocity: 76
timestamp 32659000 us: [96 38 5E] channel 7: note On G#3 velocity: 94
timestamp 32659000 us: [99 23 6D] channel 10: note On B1 velocity: 109
timestamp 32659000 us: [99 2A 49] channel 10: note On F#2 velocity: 73
timestamp 32669000 us: [99 28 5C] channel 10: note On E2 velocity: 92
timestamp 32669000 us: [99 2A 00] channel 10: note On F#2 velocity: 0
timestamp 32669000 us: [99 23 00] channel 10: note On B1 velocity: 0
timestamp 32669000 us: [99 28 00] channel 10: note On E2 velocity: 0
timestamp 32679000 us: [96 3C 5B] channel 7: note On C4 velocity: 91
timestamp 32779000 us: [95 30 00] channel 6: note On C3 velocity: 0
timestamp 32779000 us: [95 2C 00] channel 6: note On G#2 velocity: 0
timestamp 32829000 us: [96 33 00] channel 7: note On D#3 velocity: 0
timestamp 32839000 us: [96 38 00] channel 7: note On G#3 velocity: 0
timestamp 32849000 us: [92 3C 00] channel 3: note On C4 velocity: 0
timestamp 32849000 us: [96 3C 00] channel 7: note On C4 velocity: 0
timestamp 32869000 us: [92 33 00] channel 3: note On D#3 velocity: 0
timestamp 32889000 us: [92 38 00] channel 3: note On G#3 velocity: 0
timestamp 32959000 us: [92 33 4F] channel 3: note On D#3 velocity: 79
timestamp 32969000 us: [92 37 4F] channel 3: note On G3 velocity: 79
timestamp 32969000 us: [92 3A 44] channel 3: note On A#3 velocity: 68
timestamp 32969000 us: [95 2E 2E] channel 6: note On A#2 velocity: 46
timestamp 32969000 us: [96 33 41] channel 7: note On D#3 velocity: 65
timestamp 32969000 us: [99 2A 25] channel 10: note On F#2 velocity: 37
timestamp 32979000 us: [99 2A 00] channel 10: note On F#2 velocity: 0
timestamp 33029000 us: [95 2E 00] channel 6: note On A#2 velocity: 0
timestamp 33119000 us: [96 33 00] channel 7: note On D#3 velocity: 0
timestamp 33119000 us: [95 2E 45] channel 6: note On A#2 velocity: 69
timestamp 33119000 us: [96 33 4E] channel 7: note On D#3 velocity: 78
timestamp 33119000 us: [99 23 6D] channel 10: note On B1 velocity: 109
timestamp 33119000 us: [99 2A 35] channel 10: note On F#2 velocity: 53
timestamp 33129000 us: [99 2A 00] channel 10: note On F#2 velocity: 0
timestamp 33129000 us: [99 23 00] channel 10: note On B1 velocity: 0
timestamp 33129000 us: [96 37 46] channel 7: note On G3 velocity: 70
timestamp 33149000 us: [96 3A 4D] channel 7: note On A#3 velocity: 77
timestamp 33379000 us: [95 2E 00] channel 6: note On A#2 velocity: 0
timestamp 33419000 us: [96 3A 00] channel 7: note On A#3 velocity: 0
timestamp 33419000 us: [96 37 00] channel 7: note On G3 velocity: 0
timestamp 33419000 us: [96 33 00] channel 7: note On D#3 velocity: 0
timestamp 33429000 us: [95 2E 31] channel 6: note On A#2 velocity: 49
timestamp 33429000 us: [96 33 41] channel 7: note On D#3 velocity: 65
timestamp 33429000 us: [99 2A 25] channel 10: note On F#2 velocity: 37
timestamp 33439000 us: [99 2A 00] channel 10: note On F#2 velocity: 0
timestamp 33589000 us: [93 3F 5D] channel 4: note On D#4 velocity: 93
timestamp 33589000 us: [95 2C 38] channel 6: note On G#2 velocity: 56
timestamp 33589000 us: [95 30 4C] channel 6: note On C3 velocity: 76
timestamp 33589000 us: [96 38 5E] channel 7: note On G#3 velocity: 94
timestamp 33589000 us: [97 3F 4B] channel 8: note On D#4 velocity: 75
timestamp 33589000 us: [97 43 5D] channel 8: note On G4 velocity: 93
timestamp 33589000 us: [99 23 6D] channel 10: note On B1 velocity: 109
timestamp 33599000 us: [99 2A 49] channel 10: note On F#2 velocity: 73
timestamp 33599000 us: [95 2E 00] channel 6: note On A#2 velocity: 0
timestamp 33599000 us: [99 28 5C] channel 10: note On E2 velocity: 92
timestamp 33599000 us: [99 2A 00] channel 10: note On F#2 velocity: 0
timestamp 33599000 us: [99 23 00] channel 10: note On B1 velocity: 0
timestamp 33599000 us: [99 28 00] channel 10: note On E2 velocity: 0
timestamp 33609000 us: [96 3C 5B] channel 7: note On C4 velocity: 91
timestamp 33699000 us: [95 30 00] channel 6: note On C3 velocity: 0
timestamp 33699000 us: [95 2C 00] channel 6: note On G#2 velocity: 0
timestamp 33759000 us: [96 33 00] channel 7: note On D#3 velocity: 0
timestamp 33769000 us: [96 38 00] channel 7: note On G#3 velocity: 0
timestamp 33779000 us: [96 3C 00] channel 7: note On C4 velocity: 0
timestamp 33839000 us: [92 33 00] channel 3: note On D#3 velocity: 0
timestamp 33859000 us: [97 43 00] channel 8: note On G4 velocity: 0
timestamp 33859000 us: [97 3F 00] channel 8: note On D#4 velocity: 0
timestamp 33869000 us: [92 37 00] channel 3: note On G3 velocity: 0
timestamp 33889000 us: [91 1B 00] channel 2: note On D#1 velocity: 0
timestamp 33889000 us: [93 3F 00] channel 4: note On D#4 velocity: 0
timestamp 33899000 us: [92 35 44] channel 3: note On F3 velocity: 68
timestamp 33899000 us: [93 41 5D] channel 4: note On F4 velocity: 93
timestamp 33899000 us: [95 2E 2F] channel 6: note On A#2 velocity: 47
timestamp 33899000 us: [96 33 41] channel 7: note On D#3 velocity: 65
timestamp 33899000 us: [97 3E 4C] channel 8: note On D4 velocity: 76
timestamp 33899000 us: [97 41 5E] channel 8: note On F4 velocity: 94
timestamp 33899000 us: [99 2A 25] channel 10: note On F#2 velocity: 37
timestamp 33909000 us: [92 3A 00] channel 3: note On A#3 velocity: 0
timestamp 33909000 us: [99 2A 00] channel 10: note On F#2 velocity: 0
timestamp 33919000 us: [91 22 62] channel 2: note On A#1 velocity: 98
timestamp 33989000 us: [95 2E 00] channel 6: note On A#2 velocity: 0
timestamp 34029000 us: [92 35 00] channel 3: note On F3 velocity: 0
timestamp 34049000 us: [96 33 00] channel 7: note On D#3 velocity: 0
timestamp 34049000 us: [92 35 4E] channel 3: note On F3 velocity: 78
timestamp 34049000 us: [92 3A 56] channel 3: note On A#3 velocity: 86
timestamp 34049000 us: [92 3E 56] channel 3: note On D4 velocity: 86
timestamp 34059000 us: [95 35 42] channel 6: note On F3 velocity: 66
timestamp 34059000 us: [96 35 4E] channel 7: note On F3 velocity: 78
timestamp 34059000 us: [99 23 6D] channel 10: note On B1 velocity: 109
timestamp 34059000 us: [99 2A 35] channel 10: note On F#2 velocity: 53
timestamp 34059000 us: [99 2A 00] channel 10: note On F#2 velocity: 0
timestamp 34059000 us: [99 23 00] channel 10: note On B1 velocity: 0
timestamp 34069000 us: [96 3A 46] channel 7: note On A#3 velocity: 70
timestamp 34079000 us: [96 3E 4D] channel 7: note On D4 velocity: 77
timestamp 34269000 us: [93 41 00] channel 4: note On F4 velocity: 0
timestamp 34279000 us: [97 41 00] channel 8: note On F4 velocity: 0
timestamp 34279000 us: [97 3E 00] channel 8: note On D4 velocity: 0
timestamp 34329000 us: [95 35 00] channel 6: note On F3 velocity: 0
timestamp 34339000 us: [92 3A 00] channel 3: note On A#3 velocity: 0
timestamp 34339000 us: [92 35 00] channel 3: note On F3 velocity: 0
timestamp 34349000 us: [92 3E 00] channel 3: note On D4 velocity: 0
timestamp 34349000 us: [96 3E 00] channel 7: note On D4 velocity: 0
timestamp 34349000 us: [96 3A 00] channel 7: note On A#3 velocity: 0
timestamp 34349000 us: [96 35 00] channel 7: note On F3 velocity: 0
timestamp 34359000 us: [92 35 36] channel 3: note On F3 velocity: 54
timestamp 34359000 us: [92 3A 41] channel 3: note On A#3 velocity: 65
timestamp 34359000 us: [95 35 32] channel 6: note On F3 velocity: 50
timestamp 34369000 us: [96 35 44] channel 7: note On F3 velocity: 68
timestamp 34369000 us: [99 2A 25] channel 10: note On F#2 velocity: 37
timestamp 34369000 us: [99 2A 00] channel 10: note On F#2 velocity: 0
timestamp 34519000 us: [92 35 00] channel 3: note On F3 velocity: 0
timestamp 34519000 us: [95 35 00] channel 6: note On F3 velocity: 0
timestamp 34519000 us: [92 35 32] channel 3: note On F3 velocity: 50
timestamp 34519000 us: [92 3F 56] channel 3: note On D#4 velocity: 86
timestamp 34519000 us: [95 33 37] channel 6: note On D#3 velocity: 55
timestamp 34519000 us: [95 37 4B] channel 6: note On G3 velocity: 75
timestamp 34519000 us: [96 3A 5E] channel 7: note On A#3 velocity: 94
timestamp 34519000 us: [99 23 6D] channel 10: note On B1 velocity: 109
timestamp 34519000 us: [99 2A 49] channel 10: note On F#2 velocity: 73
timestamp 34531000 us: [99 28 5C] channel 10: note On E2 velocity: 92
timestamp 34533000 us: [99 2A 00] channel 10: note On F#2 velocity: 0
timestamp 34534000 us: [99 23 00] channel 10: note On B1 velocity: 0
timestamp 34535000 us: [99 28 00] channel 10: note On E2 velocity: 0
timestamp 34544000 us: [96 3F 5B] channel 7: note On D#4 velocity: 91
timestamp 34664000 us: [95 37 00] channel 6: note On G3 velocity: 0
timestamp 34665000 us: [95 33 00] channel 6: note On D#3 velocity: 0
timestamp 34693000 us: [96 35 00] channel 7: note On F3 velocity: 0
timestamp 34702000 us: [96 3A 00] channel 7: note On A#3 velocity: 0
timestamp 34712000 us: [96 3F 00] channel 7: note On D#4 velocity: 0
timestamp 34751000 us: [92 3A 00] channel 3: note On A#3 velocity: 0
timestamp 34799000 us: [92 35 00] channel 3: note On F3 velocity: 0
timestamp 34804000 us: [92 3F 00] channel 3: note On D#4 velocity: 0
timestamp 34829000 us: [92 35 48] channel 3: note On F3 velocity: 72
timestamp 34830000 us: [92 3A 41] channel 3: note On A#3 velocity: 65
timestamp 34832000 us: [92 3E 59] channel 3: note On D4 velocity: 89
timestamp 34834000 us: [95 35 2E] channel 6: note On F3 velocity: 46
timestamp 34835000 us: [96 35 41] channel 7: note On F3 velocity: 65
timestamp 34837000 us: [99 2A 25] channel 10: note On F#2 velocity: 37
timestamp 34839000 us: [99 2A 00] channel 10: note On F#2 velocity: 0
timestamp 34930000 us: [95 35 00] channel 6: note On F3 velocity: 0
timestamp 34979000 us: [96 35 00] channel 7: note On F3 velocity: 0
timestamp 34984000 us: [95 35 45] channel 6: note On F3 velocity: 69
timestamp 34986000 us: [96 35 4E] channel 7: note On F3 velocity: 78
timestamp 34988000 us: [99 23 6D] channel 10: note On B1 velocity: 109
timestamp 34989000 us: [99 2A 35] channel 10: note On F#2 velocity: 53
timestamp 34993000 us: [99 2A 00] channel 10: note On F#2 velocity: 0
timestamp 34994000 us: [99 23 00] channel 10: note On B1 velocity: 0
timestamp 34999000 us: [96 3A 46] channel 7: note On A#3 velocity: 70
timestamp 35018000 us: [96 3E 4D] channel 7: note On D4 velocity: 77
timestamp 35245000 us: [95 35 00] channel 6: note On F3 velocity: 0
timestamp 35280000 us: [96 3E 00] channel 7: note On D4 velocity: 0
timestamp 35280000 us: [96 3A 00] channel 7: note On A#3 velocity: 0
timestamp 35284000 us: [96 35 00] channel 7: note On F3 velocity: 0
timestamp 35294000 us: [95 35 30] channel 6: note On F3 velocity: 48
timestamp 35296000 us: [96 35 41] channel 7: note On F3 velocity: 65
timestamp 35298000 us: [99 2A 25] channel 10: note On F#2 velocity: 37
timestamp 35303000 us: [99 2A 00] channel 10: note On F#2 velocity: 0
timestamp 35429000 us: [95 35 00] channel 6: note On F3 velocity: 0
timestamp 35449000 us: [93 41 5E] channel 4: note On F4 velocity: 94
timestamp 35451000 us: [95 33 37] channel 6: note On D#3 velocity: 55
timestamp 35452000 us: [95 37 4B] channel 6: note On G3 velocity: 75
timestamp 35454000 us: [96 3A 5E] channel 7: note On A#3 velocity: 94
timestamp 35456000 us: [97 3E 4C] channel 8: note On D4 velocity: 76
timestamp 35457000 us: [97 41 5E] channel 8: note On F4 velocity: 94
timestamp 35459000 us: [99 23 6D] channel 10: note On B1 velocity: 109
timestamp 35460000 us: [99 2A 49] channel 10: note On F#2 velocity: 73
timestamp 35461000 us: [99 28 5C] channel 10: note On E2 velocity: 92
timestamp 35464000 us: [99 2A 00] channel 10: note On F#2 velocity: 0
timestamp 35465000 us: [99 23 00] channel 10: note On B1 velocity: 0
timestamp 35466000 us: [99 28 00] channel 10: note On E2 velocity: 0
timestamp 35474000 us: [96 3F 5B] channel 7: note On D#4 velocity: 91
timestamp 35560000 us: [95 37 00] channel 6: note On G3 velocity: 0
timestamp 35561000 us: [95 33 00] channel 6: note On D#3 velocity: 0
timestamp 35623000 us: [96 35 00] channel 7: note On F3 velocity: 0
timestamp 35633000 us: [96 3A 00] channel 7: note On A#3 velocity: 0
timestamp 35642000 us: [96 3F 00] channel 7: note On D#4 velocity: 0
timestamp 35706000 us: [91 22 00] channel 2: note On A#1 velocity: 0
timestamp 35711000 us: [92 35 00] channel 3: note On F3 velocity: 0
timestamp 35715000 us: [92 3A 00] channel 3: note On A#3 velocity: 0
timestamp 35716000 us: [93 41 00] channel 4: note On F4 velocity: 0
timestamp 35717000 us: [92 3E 00] channel 3: note On D4 velocity: 0
timestamp 35721000 us: [97 41 00] channel 8: note On F4 velocity: 0
timestamp 35721000 us: [97 3E 00] channel 8: note On D4 velocity: 0
timestamp 35759000 us: [92 35 36] channel 3: note On F3 velocity: 54
timestamp 35761000 us: [93 3C 52] channel 4: note On C4 velocity: 82
timestamp 35762000 us: [95 35 2D] channel 6: note On F3 velocity: 45
timestamp 35764000 us: [96 35 41] channel 7: note On F3 velocity: 65
timestamp 35765000 us: [97 3C 46] channel 8: note On C4 velocity: 70
timestamp 35767000 us: [97 41 58] channel 8: note On F4 velocity: 88
timestamp 35768000 us: [99 2A 25] channel 10: note On F#2 velocity: 37
timestamp 35770000 us: [99 2A 00] channel 10: note On F#2 velocity: 0
timestamp 35789000 us: [91 1D 62] channel 2: note On F1 velocity: 98
timestamp 35895000 us: [E4 00 0C] channel 5: pitch wheel change 1536
timestamp 35900000 us: [94 4D 6E] channel 5: note On F5 velocity: 110
timestamp 35902000 us: [94 59 68] channel 5: note On F6 velocity: 104
timestamp 35904000 us: [95 35 00] channel 6: note On F3 velocity: 0
timestamp 35909000 us: [92 35 00] channel 3: note On F3 velocity: 0
timestamp 35910000 us: [96 35 00] channel 7: note On F3 velocity: 0
timestamp 35915000 us: [95 30 4A] channel 6: note On C3 velocity: 74
timestamp 35917000 us: [96 35 4E] channel 7: note On F3 velocity: 78
timestamp 35918000 us: [99 23 6D] channel 10: note On B1 velocity: 109
timestamp 35919000 us: [99 2A 35] channel 10: note On F#2 velocity: 53
timestamp 35924000 us: [92 35 40] channel 3: note On F3 velocity: 64
timestamp 35927000 us: [92 39 4C] channel 3: note On A3 velocity: 76
timestamp 35928000 us: [92 3C 4F] channel 3: note On C4 velocity: 79
timestamp 35929000 us: [99 2A 00] channel 10: note On F#2 velocity: 0
timestamp 35930000 us: [99 23 00] channel 10: note On B1 velocity: 0
timestamp 35933000 us: [96 39 46] channel 7: note On A3 velocity: 70
timestamp 35950000 us: [96 3C 4D] channel 7: note On C4 velocity: 77
timestamp 36055000 us: [E4 00 16] channel 5: pitch wheel change 2816
timestamp 36074000 us: [E4 00 24] channel 5: pitch wheel change 4608
timestamp 36098000 us: [E4 00 30] channel 5: pitch wheel change 6144
timestamp 36118000 us: [E4 00 37] channel 5: pitch wheel change 7040
timestamp 36132000 us: [E4 00 40] channel 5: pitch wheel change 8192
timestamp 36142000 us: [92 35 00] channel 3: note On F3 velocity: 0
timestamp 36142000 us: [92 39 00] channel 3: note On A3 velocity: 0
timestamp 36149000 us: [92 3C 00] channel 3: note On C4 velocity: 0
timestamp 36150000 us: [97 41 00] channel 8: note On F4 velocity: 0
timestamp 36150000 us: [97 3C 00] channel 8: note On C4 velocity: 0
timestamp 36166000 us: [93 3C 00] channel 4: note On C4 velocity: 0
timestamp 36185000 us: [95 30 00] channel 6: note On C3 velocity: 0
timestamp 36209000 us: [96 3C 00] channel 7: note On C4 velocity: 0
timestamp 36210000 us: [96 39 00] channel 7: note On A3 velocity: 0
timestamp 36214000 us: [96 35 00] channel 7: note On F3 velocity: 0
timestamp 36225000 us: [95 30 2D] channel 6: note On C3 velocity: 45
timestamp 36226000 us: [96 35 44] channel 7: note On F3 velocity: 68
timestamp 36228000 us: [99 2A 25] channel 10: note On F#2 velocity: 37
timestamp 36233000 us: [99 2A 00] channel 10: note On F#2 velocity: 0
timestamp 36244000 us: [92 35 45] channel 3: note On F3 velocity: 69
timestamp 36301000 us: [95 30 00] channel 6: note On C3 velocity: 0
timestamp 36350000 us: [92 35 00] channel 3: note On F3 velocity: 0
timestamp 36380000 us: [95 2E 37] channel 6: note On A#2 velocity: 55
timestamp 36381000 us: [95 32 4C] channel 6: note On D3 velocity: 76
timestamp 36383000 us: [96 3A 5E] channel 7: note On A#3 velocity: 94
timestamp 36384000 us: [99 23 6D] channel 10: note On B1 velocity: 109
timestamp 36386000 us: [99 2A 49] channel 10: note On F#2 velocity: 73
timestamp 36388000 us: [92 35 45] channel 3: note On F3 velocity: 69
timestamp 36389000 us: [92 3A 51] channel 3: note On A#3 velocity: 81
timestamp 36390000 us: [92 3E 56] channel 3: note On D4 velocity: 86
timestamp 36392000 us: [99 28 5C] channel 10: note On E2 velocity: 92
timestamp 36395000 us: [99 2A 00] channel 10: note On F#2 velocity: 0
timestamp 36395000 us: [99 23 00] channel 10: note On B1 velocity: 0
timestamp 36397000 us: [99 28 00] channel 10: note On E2 velocity: 0
timestamp 36404000 us: [96 3E 5B] channel 7: note On D4 velocity: 91
timestamp 36449000 us: [92 3E 00] channel 3: note On D4 velocity: 0
timestamp 36450000 us: [92 3A 00] channel 3: note On A#3 velocity: 0
timestamp 36451000 us: [92 35 00] channel 3: note On F3 velocity: 0
timestamp 36501000 us: [95 32 00] channel 6: note On D3 velocity: 0
timestamp 36501000 us: [95 2E 00] channel 6: note On A#2 velocity: 0
timestamp 36553000 us: [96 35 00] channel 7: note On F3 velocity: 0
timestamp 36563000 us: [96 3A 00] channel 7: note On A#3 velocity: 0
timestamp 36572000 us: [96 3E 00] channel 7: note On D4 velocity: 0
timestamp 36621000 us: [94 59 00] channel 5: note On F6 velocity: 0
timestamp 36622000 us: [94 4D 00] channel 5: note On F5 velocity: 0
timestamp 36670000 us: [94 48 67] channel 5: note On C5 velocity: 103
timestamp 36672000 us: [94 54 5C] channel 5: note On C6 velocity: 92
timestamp 36690000 us: [95 30 2E] channel 6: note On C3 velocity: 46
timestamp 36692000 us: [96 35 41] channel 7: note On F3 velocity: 65
timestamp 36693000 us: [99 2A 25] channel 10: note On F#2 velocity: 37
timestamp 36698000 us: [99 2A 00] channel 10: note On F#2 velocity: 0
timestamp 36719000 us: [92 35 48] channel 3: note On F3 velocity: 72
timestamp 36720000 us: [92 39 44] channel 3: note On A3 velocity: 68
timestamp 36722000 us: [92 3C 45] channel 3: note On C4 velocity: 69
timestamp 36759000 us: [95 30 00] channel 6: note On C3 velocity: 0
timestamp 36762000 us: [94 54 00] channel 5: note On C6 velocity: 0
timestamp 36762000 us: [94 48 00] channel 5: note On C5 velocity: 0
timestamp 36825000 us: [94 4B 69] channel 5: note On D#5 velocity: 105
timestamp 36827000 us: [94 57 5E] channel 5: note On D#6 velocity: 94
timestamp 36839000 us: [96 35 00] channel 7: note On F3 velocity: 0
timestamp 36845000 us: [95 30 45] channel 6: note On C3 velocity: 69
timestamp 36847000 us: [96 35 4E] channel 7: note On F3 velocity: 78
timestamp 36848000 us: [99 23 6D] channel 10: note On B1 velocity: 109
timestamp 36849000 us: [99 2A 35] channel 10: note On F#2 velocity: 53
timestamp 36855000 us: [99 2A 00] channel 10: note On F#2 velocity: 0
timestamp 36855000 us: [99 23 00] channel 10: note On B1 velocity: 0
timestamp 36859000 us: [96 39 46] channel 7: note On A3 velocity: 70
timestamp 36878000 us: [96 3C 4D] channel 7: note On C4 velocity: 77
timestamp 36922000 us: [94 57 00] channel 5: note On D#6 velocity: 0
timestamp 36922000 us: [94 4B 00] channel 5: note On D#5 velocity: 0
timestamp 36980000 us: [94 48 65] channel 5: note On C5 velocity: 101
timestamp 36982000 us: [94 54 5A] channel 5: note On C6 velocity: 90
timestamp 37019000 us: [92 35 00] channel 3: note On F3 velocity: 0
timestamp 37067000 us: [92 39 00] channel 3: note On A3 velocity: 0
timestamp 37082000 us: [94 54 00] channel 5: note On C6 velocity: 0
timestamp 37082000 us: [94 48 00] channel 5: note On C5 velocity: 0
timestamp 37096000 us: [92 3C 00] channel 3: note On C4 velocity: 0
timestamp 37106000 us: [95 30 00] channel 6: note On C3 velocity: 0
timestamp 37136000 us: [94 45 67] channel 5: note On A4 velocity: 103
timestamp 37138000 us: [94 51 5C] channel 5: note On A5 velocity: 92
timestamp 37141000 us: [96 3C 00] channel 7: note On C4 velocity: 0
timestamp 37141000 us: [96 39 00] channel 7: note On A3 velocity: 0
timestamp 37145000 us: [96 35 00] channel 7: note On F3 velocity: 0
timestamp 37155000 us: [95 30 31] channel 6: note On C3 velocity: 49
timestamp 37157000 us: [96 35 41] channel 7: note On F3 velocity: 65
timestamp 37158000 us: [99 2A 25] channel 10: note On F#2 velocity: 37
timestamp 37164000 us: [99 2A 00] channel 10: note On F#2 velocity: 0
timestamp 37174000 us: [92 35 48] channel 3: note On F3 velocity: 72
timestamp 37222000 us: [94 51 00] channel 5: note On A5 velocity: 0
timestamp 37223000 us: [94 45 00] channel 5: note On A4 velocity: 0
timestamp 37275000 us: [92 35 00] channel 3: note On F3 velocity: 0
timestamp 37291000 us: [94 41 65] channel 5: note On F4 velocity: 101
timestamp 37292000 us: [94 4D 5A] channel 5: note On F5 velocity: 90
timestamp 37310000 us: [95 2E 38] channel 6: note On A#2 velocity: 56
timestamp 37312000 us: [95 32 4C] channel 6: note On D3 velocity: 76
timestamp 37314000 us: [96 3A 5E] channel 7: note On A#3 velocity: 94
timestamp 37315000 us: [99 23 6D] channel 10: note On B1 velocity: 109
timestamp 37316000 us: [99 2A 49] channel 10: note On F#2 velocity: 73
timestamp 37319000 us: [92 35 51] channel 3: note On F3 velocity: 81
timestamp 37320000 us: [92 3A 53] channel 3: note On A#3 velocity: 83
timestamp 37322000 us: [92 3E 55] channel 3: note On D4 velocity: 85
timestamp 37323000 us: [95 30 00] channel 6: note On C3 velocity: 0
timestamp 37324000 us: [99 28 5C] channel 10: note On E2 velocity: 92
timestamp 37330000 us: [99 2A 00] channel 10: note On F#2 velocity: 0
timestamp 37331000 us: [99 23 00] channel 10: note On B1 velocity: 0
timestamp 37331000 us: [99 28 00] channel 10: note On E2 velocity: 0
timestamp 37335000 us: [96 3E 5B] channel 7: note On D4 velocity: 91
timestamp 37378000 us: [92 3E 00] channel 3: note On D4 velocity: 0
timestamp 37379000 us: [92 3A 00] channel 3: note On A#3 velocity: 0
timestamp 37379000 us: [92 35 00] channel 3: note On F3 velocity: 0
timestamp 37380000 us: [94 4D 00] channel 5: note On F5 velocity: 0
timestamp 37381000 us: [94 41 00] channel 5: note On F4 velocity: 0
timestamp 37426000 us: [95 32 00] channel 6: note On D3 velocity: 0
timestamp 37426000 us: [95 2E 00] channel 6: note On A#2 velocity: 0
timestamp 37446000 us: [94 3F 6B] channel 5: note On D#4 velocity: 107
timestamp 37448000 us: [94 4B 60] channel 5: note On D#5 velocity: 96
timestamp 37484000 us: [96 35 00] channel 7: note On F3 velocity: 0
timestamp 37493000 us: [96 3A 00] channel 7: note On A#3 velocity: 0
timestamp 37503000 us: [96 3E 00] channel 7: note On D4 velocity: 0
timestamp 37539000 us: [94 4B 00] channel 5: note On D#5 velocity: 0
timestamp 37539000 us: [94 3F 00] channel 5: note On D#4 velocity: 0
timestamp 37601000 us: [94 3C 66] channel 5: note On C4 velocity: 102
timestamp 37603000 us: [94 48 5B] channel 5: note On C5 velocity: 91
timestamp 37620000 us: [95 30 2F] channel 6: note On C3 velocity: 47
timestamp 37622000 us: [96 35 41] channel 7: note On F3 velocity: 65
timestamp 37623000 us: [99 2A 25] channel 10: note On F#2 velocity: 37
timestamp 37629000 us: [99 2A 00] channel 10: note On F#2 velocity: 0
timestamp 37650000 us: [92 35 41] channel 3: note On F3 velocity: 65
timestamp 37652000 us: [92 39 42] channel 3: note On A3 velocity: 66
timestamp 37653000 us: [92 3C 45] channel 3: note On C4 velocity: 69
timestamp 37692000 us: [94 48 00] channel 5: note On C5 velocity: 0
timestamp 37693000 us: [94 3C 00] channel 5: note On C4 velocity: 0
timestamp 37716000 us: [95 30 00] channel 6: note On C3 velocity: 0
timestamp 37756000 us: [94 3F 6B] channel 5: note On D#4 velocity: 107
timestamp 37759000 us: [94 4B 60] channel 5: note On D#5 velocity: 96
timestamp 37770000 us: [96 35 00] channel 7: note On F3 velocity: 0
timestamp 37776000 us: [95 30 42] channel 6: note On C3 velocity: 66
timestamp 37778000 us: [96 35 4E] channel 7: note On F3 velocity: 78
timestamp 37779000 us: [99 23 6D] channel 10: note On B1 velocity: 109
timestamp 37780000 us: [99 2A 35] channel 10: note On F#2 velocity: 53
timestamp 37784000 us: [99 2A 00] channel 10: note On F#2 velocity: 0
timestamp 37785000 us: [99 23 00] channel 10: note On B1 velocity: 0
timestamp 37790000 us: [96 39 46] channel 7: note On A3 velocity: 70
timestamp 37810000 us: [96 3C 4D] channel 7: note On C4 velocity: 77
timestamp 37963000 us: [92 35 00] channel 3: note On F3 velocity: 0
timestamp 38003000 us: [94 4B 00] channel 5: note On D#5 velocity: 0
timestamp 38003000 us: [94 3F 00] channel 5: note On D#4 velocity: 0
timestamp 38026000 us: [92 39 00] channel 3: note On A3 velocity: 0
timestamp 38031000 us: [92 3C 00] channel 3: note On C4 velocity: 0
timestamp 38051000 us: [95 30 00] channel 6: note On C3 velocity: 0
timestamp 38066000 us: [94 41 65] channel 5: note On F4 velocity: 101
timestamp 38068000 us: [94 4D 5A] channel 5: note On F5 velocity: 90
timestamp 38070000 us: [96 3C 00] channel 7: note On C4 velocity: 0
timestamp 38071000 us: [96 39 00] channel 7: note On A3 velocity: 0
timestamp 38075000 us: [96 35 00] channel 7: note On F3 velocity: 0
timestamp 38086000 us: [95 30 32] channel 6: note On C3 velocity: 50
timestamp 38087000 us: [96 35 44] channel 7: note On F3 velocity: 68
timestamp 38089000 us: [99 2A 25] channel 10: note On F#2 velocity: 37
timestamp 38094000 us: [99 2A 00] channel 10: note On F#2 velocity: 0
timestamp 38105000 us: [92 35 46] channel 3: note On F3 velocity: 70
timestamp 38205000 us: [92 35 00] channel 3: note On F3 velocity: 0
timestamp 38235000 us: [95 30 00] channel 6: note On C3 velocity: 0
timestamp 38240000 us: [92 3A 55] channel 3: note On A#3 velocity: 85
timestamp 38242000 us: [92 3E 55] channel 3: note On D4 velocity: 85
timestamp 38243000 us: [95 2E 37] channel 6: note On A#2 velocity: 55
timestamp 38244000 us: [95 32 4B] channel 6: note On D3 velocity: 75
timestamp 38247000 us: [96 3A 5E] channel 7: note On A#3 velocity: 94
timestamp 38248000 us: [99 23 6D] channel 10: note On B1 velocity: 109
timestamp 38249000 us: [99 2A 49] channel 10: note On F#2 velocity: 73
timestamp 38252000 us: [92 35 4E] channel 3: note On F3 velocity: 78
timestamp 38253000 us: [99 28 5C] channel 10: note On E2 velocity: 92
timestamp 38259000 us: [99 2A 00] channel 10: note On F#2 velocity: 0
timestamp 38259000 us: [99 23 00] channel 10: note On B1 velocity: 0
timestamp 38260000 us: [99 28 00] channel 10: note On E2 velocity: 0
timestamp 38264000 us: [96 3E 5B] channel 7: note On D4 velocity: 91
timestamp 38308000 us: [92 3E 00] channel 3: note On D4 velocity: 0
timestamp 38309000 us: [92 3A 00] channel 3: note On A#3 velocity: 0
timestamp 38309000 us: [92 35 00] channel 3: note On F3 velocity: 0
timestamp 38311000 us: [94 4D 00] channel 5: note On F5 velocity: 0
timestamp 38311000 us: [94 41 00] channel 5: note On F4 velocity: 0
timestamp 38385000 us: [95 32 00] channel 6: note On D3 velocity: 0
timestamp 38386000 us: [95 2E 00] channel 6: note On A#2 velocity: 0
timestamp 38414000 us: [96 35 00] channel 7: note On F3 velocity: 0
timestamp 38423000 us: [96 3A 00] channel 7: note On A#3 velocity: 0
timestamp 38433000 us: [96 3E 00] channel 7: note On D4 velocity: 0
timestamp 38531000 us: [94 3C 6B] channel 5: note On C4 velocity: 107
timestamp 38533000 us: [94 48 60] channel 5: note On C5 velocity: 96
timestamp 38550000 us: [95 30 2E] channel 6: note On C3 velocity: 46
timestamp 38552000 us: [96 35 41] channel 7: note On F3 velocity: 65
timestamp 38553000 us: [99 2A 25] channel 10: note On F#2 velocity: 37
timestamp 38559000 us: [99 2A 00] channel 10: note On F#2 velocity: 0
timestamp 38581000 us: [92 35 42] channel 3: note On F3 velocity: 66
timestamp 38582000 us: [92 39 42] channel 3: note On A3 velocity: 66
timestamp 38583000 us: [92 3C 45] channel 3: note On C4 velocity: 69
timestamp 38651000 us: [95 30 00] channel 6: note On C3 velocity: 0
timestamp 38700000 us: [96 35 00] channel 7: note On F3 velocity: 0
timestamp 38706000 us: [95 30 45] channel 6: note On C3 velocity: 69
timestamp 38707000 us: [96 35 4E] channel 7: note On F3 velocity: 78
timestamp 38709000 us: [99 23 6D] channel 10: note On B1 velocity: 109
timestamp 38710000 us: [99 2A 35] channel 10: note On F#2 velocity: 53
timestamp 38714000 us: [99 2A 00] channel 10: note On F#2 velocity: 0
timestamp 38715000 us: [99 23 00] channel 10: note On B1 velocity: 0
timestamp 38721000 us: [96 39 46] channel 7: note On A3 velocity: 70
timestamp 38739000 us: [96 3C 4D] channel 7: note On C4 velocity: 77
timestamp 38930000 us: [92 35 00] channel 3: note On F3 velocity: 0
timestamp 38953000 us: [92 39 00] channel 3: note On A3 velocity: 0
timestamp 38966000 us: [95 30 00] channel 6: note On C3 velocity: 0
timestamp 38991000 us: [92 3C 00] channel 3: note On C4 velocity: 0
timestamp 39000000 us: [96 3C 00] channel 7: note On C4 velocity: 0
timestamp 39001000 us: [96 39 00] channel 7: note On A3 velocity: 0
timestamp 39005000 us: [96 35 00] channel 7: note On F3 velocity: 0
timestamp 39016000 us: [95 30 30] channel 6: note On C3 velocity: 48
timestamp 39017000 us: [96 35 41] channel 7: note On F3 velocity: 65
timestamp 39019000 us: [99 2A 38] channel 10: note On F#2 velocity: 56
timestamp 39020000 us: [99 28 5C] channel 10: note On E2 velocity: 92
timestamp 39024000 us: [99 2A 00] channel 10: note On F#2 velocity: 0
timestamp 39025000 us: [99 28 00] channel 10: note On E2 velocity: 0
timestamp 39035000 us: [92 35 45] channel 3: note On F3 velocity: 69
timestamp 39116000 us: [92 35 00] channel 3: note On F3 velocity: 0
timestamp 39150000 us: [95 30 00] channel 6: note On C3 velocity: 0
timestamp 39170000 us: [95 2E 37] channel 6: note On A#2 velocity: 55
timestamp 39172000 us: [95 32 4B] channel 6: note On D3 velocity: 75
timestamp 39174000 us: [96 3A 5E] channel 7: note On A#3 velocity: 94
timestamp 39175000 us: [99 23 6D] channel 10: note On B1 velocity: 109
timestamp 39176000 us: [99 2A 3E] channel 10: note On F#2 velocity: 62
timestamp 39178000 us: [92 3A 56] channel 3: note On A#3 velocity: 86
timestamp 39179000 us: [92 3E 56] channel 3: note On D4 velocity: 86
timestamp 39181000 us: [99 28 4C] channel 10: note On E2 velocity: 76
timestamp 39185000 us: [92 35 4E] channel 3: note On F3 velocity: 78
timestamp 39186000 us: [99 2A 00] channel 10: note On F#2 velocity: 0
timestamp 39186000 us: [99 23 00] channel 10: note On B1 velocity: 0
timestamp 39187000 us: [99 28 00] channel 10: note On E2 velocity: 0
timestamp 39195000 us: [96 3E 5B] channel 7: note On D4 velocity: 91
timestamp 39239000 us: [92 3E 00] channel 3: note On D4 velocity: 0
timestamp 39239000 us: [92 3A 00] channel 3: note On A#3 velocity: 0
timestamp 39242000 us: [92 35 00] channel 3: note On F3 velocity: 0
timestamp 39281000 us: [95 32 00] channel 6: note On D3 velocity: 0
timestamp 39282000 us: [95 2E 00] channel 6: note On A#2 velocity: 0
timestamp 39344000 us: [96 35 00] channel 7: note On F3 velocity: 0
timestamp 39351000 us: [91 1D 00] channel 2: note On F1 velocity: 0
timestamp 39354000 us: [96 3A 00] channel 7: note On A#3 velocity: 0
timestamp 39363000 us: [96 3E 00] channel 7: note On D4 velocity: 0
timestamp 39398000 us: [94 48 00] channel 5: note On C5 velocity: 0
timestamp 39399000 us: [94 3C 00] channel 5: note On C4 velocity: 0
timestamp 39480000 us: [93 41 4E] channel 4: note On F4 velocity: 78
timestamp 39482000 us: [95 30 2D] channel 6: note On C3 velocity: 45
timestamp 39484000 us: [96 35 41] channel 7: note On F3 velocity: 65
timestamp 39485000 us: [99 28 48] channel 10: note On E2 velocity: 72
timestamp 39490000 us: [99 28 00] channel 10: note On E2 velocity: 0
timestamp 39510000 us: [92 35 40] channel 3: note On F3 velocity: 64
timestamp 39511000 us: [92 39 45] channel 3: note On A3 velocity: 69
timestamp 39512000 us: [92 3C 47] channel 3: note On C4 velocity: 71
timestamp 39620000 us: [93 41 00] channel 4: note On F4 velocity: 0
timestamp 39625000 us: [95 30 00] channel 6: note On C3 velocity: 0
timestamp 39630000 us: [96 35 00] channel 7: note On F3 velocity: 0
timestamp 39636000 us: [91 1D 63] channel 2: note On F1 velocity: 99
timestamp 39637000 us: [93 45 65] channel 4: note On A4 velocity: 101
timestamp 39639000 us: [95 30 4B] channel 6: note On C3 velocity: 75
timestamp 39640000 us: [96 35 4F] channel 7: note On F3 velocity: 79
timestamp 39642000 us: [99 23 6E] channel 10: note On B1 velocity: 110
timestamp 39643000 us: [99 31 42] channel 10: note On C#3 velocity: 66
timestamp 39646000 us: [99 31 00] channel 10: note On C#3 velocity: 0
timestamp 39647000 us: [99 23 00] channel 10: note On B1 velocity: 0
timestamp 39653000 us: [96 39 47] channel 7: note On A3 velocity: 71
timestamp 39669000 us: [96 3C 4E] channel 7: note On C4 velocity: 78
timestamp 39850000 us: [92 3C 00] channel 3: note On C4 velocity: 0
timestamp 39851000 us: [92 39 00] channel 3: note On A3 velocity: 0
timestamp 39851000 us: [92 35 00] channel 3: note On F3 velocity: 0
timestamp 39887000 us: [93 45 00] channel 4: note On A4 velocity: 0
timestamp 39906000 us: [95 30 00] channel 6: note On C3 velocity: 0
timestamp 39930000 us: [96 3C 00] channel 7: note On C4 velocity: 0
timestamp 39931000 us: [96 39 00] channel 7: note On A3 velocity: 0
timestamp 39935000 us: [96 35 00] channel 7: note On F3 velocity: 0
timestamp 39946000 us: [93 45 5A] channel 4: note On A4 velocity: 90
timestamp 39947000 us: [95 30 2E] channel 6: note On C3 velocity: 46
timestamp 39949000 us: [96 35 45] channel 7: note On F3 velocity: 69
timestamp 39950000 us: [99 2A 26] channel 10: note On F#2 velocity: 38
timestamp 39954000 us: [99 2A 00] channel 10: note On F#2 velocity: 0
timestamp 39965000 us: [92 35 46] channel 3: note On F3 velocity: 70
timestamp 40022000 us: [95 30 00] channel 6: note On C3 velocity: 0
timestamp 40066000 us: [93 45 00] channel 4: note On A4 velocity: 0
timestamp 40071000 us: [92 35 00] channel 3: note On F3 velocity: 0
timestamp 40100000 us: [92 35 46] channel 3: note On F3 velocity: 70
timestamp 40102000 us: [92 3A 52] channel 3: note On A#3 velocity: 82
timestamp 40103000 us: [92 3E 57] channel 3: note On D4 velocity: 87
timestamp 40105000 us: [93 45 61] channel 4: note On A4 velocity: 97
timestamp 40107000 us: [95 2E 38] channel 6: note On A#2 velocity: 56
timestamp 40108000 us: [95 32 4D] channel 6: note On D3 velocity: 77
timestamp 40110000 us: [96 3A 5F] channel 7: note On A#3 velocity: 95
timestamp 40111000 us: [99 23 6E] channel 10: note On B1 velocity: 110
timestamp 40112000 us: [99 2A 4A] channel 10: note On F#2 velocity: 74
timestamp 40114000 us: [99 28 5D] channel 10: note On E2 velocity: 93
timestamp 40117000 us: [99 2A 00] channel 10: note On F#2 velocity: 0
timestamp 40118000 us: [99 23 00] channel 10: note On B1 velocity: 0
timestamp 40119000 us: [99 28 00] channel 10: note On E2 velocity: 0
timestamp 40125000 us: [96 3E 5C] channel 7: note On D4 velocity: 92
timestamp 40168000 us: [92 3E 00] channel 3: note On D4 velocity: 0
timestamp 40169000 us: [92 3A 00] channel 3: note On A#3 velocity: 0
timestamp 40170000 us: [92 35 00] channel 3: note On F3 velocity: 0
timestamp 40223000 us: [95 32 00] channel 6: note On D3 velocity: 0
timestamp 40223000 us: [95 2E 00] channel 6: note On A#2 velocity: 0
timestamp 40223000 us: [93 45 00] channel 4: note On A4 velocity: 0
timestamp 40256000 us: [93 45 52] channel 4: note On A4 velocity: 82
timestamp 40274000 us: [96 35 00] channel 7: note On F3 velocity: 0
timestamp 40284000 us: [96 3A 00] channel 7: note On A#3 velocity: 0
timestamp 40293000 us: [96 3E 00] channel 7: note On D4 velocity: 0
timestamp 40406000 us: [93 45 00] channel 4: note On A4 velocity: 0
timestamp 40410000 us: [93 41 63] channel 4: note On F4 velocity: 99
timestamp 40412000 us: [95 30 2F] channel 6: note On C3 velocity: 47
timestamp 40414000 us: [96 35 42] channel 7: note On F3 velocity: 66
timestamp 40415000 us: [99 2A 26] channel 10: note On F#2 velocity: 38
timestamp 40419000 us: [99 2A 00] channel 10: note On F#2 velocity: 0
timestamp 40440000 us: [92 35 49] channel 3: note On F3 velocity: 73
timestamp 40441000 us: [92 39 45] channel 3: note On A3 velocity: 69
timestamp 40442000 us: [92 3C 46] channel 3: note On C4 velocity: 70
timestamp 40478000 us: [95 30 00] channel 6: note On C3 velocity: 0
timestamp 40560000 us: [96 35 00] channel 7: note On F3 velocity: 0
timestamp 40566000 us: [95 30 46] channel 6: note On C3 velocity: 70
timestamp 40567000 us: [96 35 4F] channel 7: note On F3 velocity: 79
timestamp 40569000 us: [99 23 6E] channel 10: note On B1 velocity: 110
timestamp 40570000 us: [99 2A 36] channel 10: note On F#2 velocity: 54
timestamp 40574000 us: [99 2A 00] channel 10: note On F#2 velocity: 0
timestamp 40576000 us: [99 23 00] channel 10: note On B1 velocity: 0
timestamp 40580000 us: [96 39 47] channel 7: note On A3 velocity: 71
timestamp 40600000 us: [96 3C 4E] channel 7: note On C4 velocity: 78
timestamp 40652000 us: [93 41 00] channel 4: note On F4 velocity: 0
timestamp 40720000 us: [93 41 60] channel 4: note On F4 velocity: 96
timestamp 40740000 us: [92 35 00] channel 3: note On F3 velocity: 0
timestamp 40788000 us: [92 39 00] channel 3: note On A3 velocity: 0
timestamp 40817000 us: [92 3C 00] channel 3: note On C4 velocity: 0
timestamp 40827000 us: [95 30 00] channel 6: note On C3 velocity: 0
timestamp 40861000 us: [96 3C 00] channel 7: note On C4 velocity: 0
timestamp 40861000 us: [96 39 00] channel 7: note On A3 velocity: 0
timestamp 40865000 us: [96 35 00] channel 7: note On F3 velocity: 0
timestamp 40876000 us: [95 30 32] channel 6: note On C3 velocity: 50
timestamp 40877000 us: [96 35 42] channel 7: note On F3 velocity: 66
timestamp 40879000 us: [99 2A 26] channel 10: note On F#2 velocity: 38
timestamp 40884000 us: [99 2A 00] channel 10: note On F#2 velocity: 0
timestamp 40895000 us: [92 35 49] channel 3: note On F3 velocity: 73
timestamp 40934000 us: [93 41 00] channel 4: note On F4 velocity: 0
timestamp 40996000 us: [92 35 00] channel 3: note On F3 velocity: 0
timestamp 41031000 us: [95 2E 39] channel 6: note On A#2 velocity: 57
timestamp 41032000 us: [95 32 4D] channel 6: note On D3 velocity: 77
timestamp 41034000 us: [96 3A 5F] channel 7: note On A#3 velocity: 95
timestamp 41035000 us: [99 23 6E] channel 10: note On B1 velocity: 110
timestamp 41037000 us: [99 2A 4A] channel 10: note On F#2 velocity: 74
timestamp 41039000 us: [92 35 52] channel 3: note On F3 velocity: 82
timestamp 41040000 us: [92 3A 54] channel 3: note On A#3 velocity: 84
timestamp 41041000 us: [92 3E 56] channel 3: note On D4 velocity: 86
timestamp 41043000 us: [95 30 00] channel 6: note On C3 velocity: 0
timestamp 41044000 us: [99 28 5D] channel 10: note On E2 velocity: 93
timestamp 41046000 us: [99 2A 00] channel 10: note On F#2 velocity: 0
timestamp 41047000 us: [99 23 00] channel 10: note On B1 velocity: 0
timestamp 41048000 us: [99 28 00] channel 10: note On E2 velocity: 0
timestamp 41055000 us: [96 3E 5C] channel 7: note On D4 velocity: 92
timestamp 41101000 us: [92 3E 00] channel 3: note On D4 velocity: 0
timestamp 41102000 us: [92 3A 00] channel 3: note On A#3 velocity: 0
timestamp 41102000 us: [92 35 00] channel 3: note On F3 velocity: 0
timestamp 41147000 us: [95 32 00] channel 6: note On D3 velocity: 0
timestamp 41147000 us: [95 2E 00] channel 6: note On A#2 velocity: 0
timestamp 41205000 us: [96 35 00] channel 7: note On F3 velocity: 0
timestamp 41214000 us: [96 3A 00] channel 7: note On A#3 velocity: 0
timestamp 41224000 us: [96 3E 00] channel 7: note On D4 velocity: 0
timestamp 41341000 us: [93 41 40] channel 4: note On F4 velocity: 64
timestamp 41343000 us: [95 30 30] channel 6: note On C3 velocity: 48
timestamp 41344000 us: [96 35 42] channel 7: note On F3 velocity: 66
timestamp 41345000 us: [99 2A 26] channel 10: note On F#2 velocity: 38
timestamp 41350000 us: [99 2A 00] channel 10: note On F#2 velocity: 0
timestamp 41370000 us: [92 35 42] channel 3: note On F3 velocity: 66
timestamp 41371000 us: [92 39 43] channel 3: note On A3 velocity: 67
timestamp 41373000 us: [92 3C 46] channel 3: note On C4 velocity: 70
timestamp 41423000 us: [93 41 00] channel 4: note On F4 velocity: 0
timestamp 41438000 us: [95 30 00] channel 6: note On C3 velocity: 0
timestamp 41491000 us: [96 35 00] channel 7: note On F3 velocity: 0
timestamp 41497000 us: [93 45 61] channel 4: note On A4 velocity: 97
timestamp 41498000 us: [95 30 43] channel 6: note On C3 velocity: 67
timestamp 41500000 us: [96 35 4F] channel 7: note On F3 velocity: 79
timestamp 41501000 us: [99 23 6E] channel 10: note On B1 velocity: 110
timestamp 41502000 us: [99 2A 36] channel 10: note On F#2 velocity: 54
timestamp 41505000 us: [99 2A 00] channel 10: note On F#2 velocity: 0
timestamp 41506000 us: [99 23 00] channel 10: note On B1 velocity: 0
timestamp 41511000 us: [96 39 47] channel 7: note On A3 velocity: 71
timestamp 41530000 us: [96 3C 4E] channel 7: note On C4 velocity: 78
timestamp 41684000 us: [92 35 00] channel 3: note On F3 velocity: 0
timestamp 41733000 us: [93 45 00] channel 4: note On A4 velocity: 0
timestamp 41748000 us: [92 39 00] channel 3: note On A3 velocity: 0
timestamp 41752000 us: [92 3C 00] channel 3: note On C4 velocity: 0
timestamp 41772000 us: [95 30 00] channel 6: note On C3 velocity: 0
timestamp 41791000 us: [96 3C 00] channel 7: note On C4 velocity: 0
timestamp 41792000 us: [96 39 00] channel 7: note On A3 velocity: 0
timestamp 41796000 us: [96 35 00] channel 7: note On F3 velocity: 0
timestamp 41806000 us: [93 45 55] channel 4: note On A4 velocity: 85
timestamp 41808000 us: [95 30 33] channel 6: note On C3 velocity: 51
timestamp 41809000 us: [96 35 45] channel 7: note On F3 velocity: 69
timestamp 41811000 us: [99 2A 26] channel 10: note On F#2 velocity: 38
timestamp 41815000 us: [99 2A 00] channel 10: note On F#2 velocity: 0
timestamp 41825000 us: [92 35 47] channel 3: note On F3 velocity: 71
timestamp 41922000 us: [93 45 00] channel 4: note On A4 velocity: 0
timestamp 41927000 us: [92 35 00] channel 3: note On F3 velocity: 0
timestamp 41956000 us: [95 30 00] channel 6: note On C3 velocity: 0
timestamp 41961000 us: [92 35 4F] channel 3: note On F3 velocity: 79
timestamp 41962000 us: [92 3A 56] channel 3: note On A#3 velocity: 86
timestamp 41964000 us: [92 3E 56] channel 3: note On D4 velocity: 86
timestamp 41965000 us: [93 45 5C] channel 4: note On A4 velocity: 92
timestamp 41967000 us: [95 2E 38] channel 6: note On A#2 velocity: 56
timestamp 41968000 us: [95 32 4C] channel 6: note On D3 velocity: 76
timestamp 41970000 us: [96 3A 5F] channel 7: note On A#3 velocity: 95
timestamp 41971000 us: [99 23 6E] channel 10: note On B1 velocity: 110
timestamp 41973000 us: [99 2A 4A] channel 10: note On F#2 velocity: 74
timestamp 41974000 us: [99 28 5D] channel 10: note On E2 velocity: 93
timestamp 41978000 us: [99 2A 00] channel 10: note On F#2 velocity: 0
timestamp 41978000 us: [99 23 00] channel 10: note On B1 velocity: 0
timestamp 41979000 us: [99 28 00] channel 10: note On E2 velocity: 0
timestamp 41985000 us: [96 3E 5C] channel 7: note On D4 velocity: 92
timestamp 42029000 us: [92 3E 00] channel 3: note On D4 velocity: 0
timestamp 42029000 us: [92 3A 00] channel 3: note On A#3 velocity: 0
timestamp 42030000 us: [92 35 00] channel 3: note On F3 velocity: 0
timestamp 42106000 us: [95 32 00] channel 6: note On D3 velocity: 0
timestamp 42107000 us: [95 2E 00] channel 6: note On A#2 velocity: 0
timestamp 42135000 us: [96 35 00] channel 7: note On F3 velocity: 0
timestamp 42144000 us: [96 3A 00] channel 7: note On A#3 velocity: 0
timestamp 42154000 us: [96 3E 00] channel 7: note On D4 velocity: 0
timestamp 42208000 us: [93 45 00] channel 4: note On A4 velocity: 0
timestamp 42271000 us: [93 41 55] channel 4: note On F4 velocity: 85
timestamp 42273000 us: [95 30 2F] channel 6: note On C3 velocity: 47
timestamp 42274000 us: [96 35 42] channel 7: note On F3 velocity: 66
timestamp 42276000 us: [99 2A 26] channel 10: note On F#2 velocity: 38
timestamp 42280000 us: [99 2A 00] channel 10: note On F#2 velocity: 0
timestamp 42300000 us: [92 35 43] channel 3: note On F3 velocity: 67
timestamp 42302000 us: [92 39 43] channel 3: note On A3 velocity: 67
timestamp 42303000 us: [92 3C 46] channel 3: note On C4 velocity: 70
timestamp 42372000 us: [95 30 00] channel 6: note On C3 velocity: 0
timestamp 42421000 us: [96 35 00] channel 7: note On F3 velocity: 0
timestamp 42427000 us: [95 30 46] channel 6: note On C3 velocity: 70
timestamp 42428000 us: [96 35 4F] channel 7: note On F3 velocity: 79
timestamp 42430000 us: [99 23 6E] channel 10: note On B1 velocity: 110
timestamp 42431000 us: [99 2A 36] channel 10: note On F#2 velocity: 54
timestamp 42435000 us: [99 2A 00] channel 10: note On F#2 velocity: 0
timestamp 42436000 us: [99 23 00] channel 10: note On B1 velocity: 0
timestamp 42441000 us: [96 39 47] channel 7: note On A3 velocity: 71
timestamp 42460000 us: [96 3C 4E] channel 7: note On C4 velocity: 78
timestamp 42547000 us: [93 41 00] channel 4: note On F4 velocity: 0
timestamp 42644000 us: [92 35 00] channel 3: note On F3 velocity: 0
timestamp 42672000 us: [92 39 00] channel 3: note On A3 velocity: 0
timestamp 42687000 us: [95 30 00] channel 6: note On C3 velocity: 0
timestamp 42712000 us: [92 3C 00] channel 3: note On C4 velocity: 0
timestamp 42721000 us: [96 3C 00] channel 7: note On C4 velocity: 0
timestamp 42722000 us: [96 39 00] channel 7: note On A3 velocity: 0
timestamp 42726000 us: [96 35 00] channel 7: note On F3 velocity: 0
timestamp 42737000 us: [95 30 31] channel 6: note On C3 velocity: 49
timestamp 42738000 us: [96 35 42] channel 7: note On F3 velocity: 66
timestamp 42739000 us: [99 2A 26] channel 10: note On F#2 velocity: 38
timestamp 42745000 us: [99 2A 00] channel 10: note On F#2 velocity: 0
timestamp 42756000 us: [92 35 46] channel 3: note On F3 velocity: 70
timestamp 42837000 us: [92 35 00] channel 3: note On F3 velocity: 0
timestamp 42871000 us: [95 30 00] channel 6: note On C3 velocity: 0
timestamp 42891000 us: [92 3A 57] channel 3: note On A#3 velocity: 87
timestamp 42893000 us: [95 2E 38] channel 6: note On A#2 velocity: 56
timestamp 42894000 us: [95 32 4C] channel 6: note On D3 velocity: 76
timestamp 42896000 us: [96 3A 5F] channel 7: note On A#3 velocity: 95
timestamp 42897000 us: [99 23 6E] channel 10: note On B1 velocity: 110
timestamp 42899000 us: [99 2A 4A] channel 10: note On F#2 velocity: 74
timestamp 42901000 us: [92 35 4F] channel 3: note On F3 velocity: 79
timestamp 42902000 us: [92 3E 57] channel 3: note On D4 velocity: 87
timestamp 42904000 us: [99 28 5D] channel 10: note On E2 velocity: 93
timestamp 42906000 us: [99 2A 00] channel 10: note On F#2 velocity: 0
timestamp 42907000 us: [99 23 00] channel 10: note On B1 velocity: 0
timestamp 42908000 us: [99 28 00] channel 10: note On E2 velocity: 0
timestamp 42916000 us: [96 3E 5C] channel 7: note On D4 velocity: 92
timestamp 42959000 us: [92 3A 00] channel 3: note On A#3 velocity: 0
timestamp 42960000 us: [92 3E 00] channel 3: note On D4 velocity: 0
timestamp 42960000 us: [92 35 00] channel 3: note On F3 velocity: 0
timestamp 43002000 us: [95 32 00] channel 6: note On D3 velocity: 0
timestamp 43003000 us: [95 2E 00] channel 6: note On A#2 velocity: 0
timestamp 43065000 us: [96 35 00] channel 7: note On F3 velocity: 0
timestamp 43074000 us: [96 3A 00] channel 7: note On A#3 velocity: 0
timestamp 43084000 us: [96 3E 00] channel 7: note On D4 velocity: 0
timestamp 43196000 us: [91 1D 00] channel 2: note On F1 velocity: 0
timestamp 43201000 us: [93 41 53] channel 4: note On F4 velocity: 83
timestamp 43203000 us: [95 30 2E] channel 6: note On C3 velocity: 46
timestamp 43204000 us: [96 35 42] channel 7: note On F3 velocity: 66
timestamp 43206000 us: [99 2A 26] channel 10: note On F#2 velocity: 38
timestamp 43210000 us: [99 2A 00] channel 10: note On F#2 velocity: 0
timestamp 43230000 us: [91 1D 63] channel 2: note On F1 velocity: 99
timestamp 43232000 us: [92 35 41] channel 3: note On F3 velocity: 65
timestamp 43233000 us: [92 39 46] channel 3: note On A3 velocity: 70
timestamp 43235000 us: [92 3C 48] channel 3: note On C4 velocity: 72
timestamp 43332000 us: [93 41 00] channel 4: note On F4 velocity: 0
timestamp 43346000 us: [95 30 00] channel 6: note On C3 velocity: 0
timestamp 43351000 us: [96 35 00] channel 7: note On F3 velocity: 0
timestamp 43357000 us: [93 45 65] channel 4: note On A4 velocity: 101
timestamp 43359000 us: [95 30 4B] channel 6: note On C3 velocity: 75
timestamp 43360000 us: [96 35 4F] channel 7: note On F3 velocity: 79
timestamp 43361000 us: [99 23 6E] channel 10: note On B1 velocity: 110
timestamp 43363000 us: [99 2A 36] channel 10: note On F#2 velocity: 54
timestamp 43366000 us: [99 2A 00] channel 10: note On F#2 velocity: 0
timestamp 43366000 us: [99 23 00] channel 10: note On B1 velocity: 0
timestamp 43371000 us: [96 39 47] channel 7: note On A3 velocity: 71
timestamp 43390000 us: [96 3C 4E] channel 7: note On C4 velocity: 78
timestamp 43564000 us: [92 35 00] channel 3: note On F3 velocity: 0
timestamp 43569000 us: [92 3C 00] channel 3: note On C4 velocity: 0
timestamp 43570000 us: [92 39 00] channel 3: note On A3 velocity: 0
timestamp 43589000 us: [93 45 00] channel 4: note On A4 velocity: 0
timestamp 43627000 us: [95 30 00] channel 6: note On C3 velocity: 0
timestamp 43651000 us: [96 3C 00] channel 7: note On C4 velocity: 0
timestamp 43652000 us: [96 39 00] channel 7: note On A3 velocity: 0
timestamp 43656000 us: [96 35 00] channel 7: note On F3 velocity: 0
timestamp 43667000 us: [93 45 55] channel 4: note On A4 velocity: 85
timestamp 43668000 us: [95 30 2E] channel 6: note On C3 velocity: 46
timestamp 43670000 us: [96 35 45] channel 7: note On F3 velocity: 69
timestamp 43671000 us: [99 2A 26] channel 10: note On F#2 velocity: 38
timestamp 43675000 us: [99 2A 00] channel 10: note On F#2 velocity: 0
timestamp 43686000 us: [92 35 46] channel 3: note On F3 velocity: 70
timestamp 43743000 us: [95 30 00] channel 6: note On C3 velocity: 0
timestamp 43772000 us: [93 45 00] channel 4: note On A4 velocity: 0
timestamp 43792000 us: [92 35 00] channel 3: note On F3 velocity: 0
timestamp 43822000 us: [93 46 60] channel 4: note On A#4 velocity: 96
timestamp 43823000 us: [95 2E 38] channel 6: note On A#2 velocity: 56
timestamp 43824000 us: [95 32 4D] channel 6: note On D3 velocity: 77
timestamp 43826000 us: [96 3A 5F] channel 7: note On A#3 velocity: 95
timestamp 43828000 us: [99 23 6E] channel 10: note On B1 velocity: 110
timestamp 43829000 us: [99 2A 4A] channel 10: note On F#2 velocity: 74
timestamp 43831000 us: [92 35 46] channel 3: note On F3 velocity: 70
timestamp 43832000 us: [92 3A 52] channel 3: note On A#3 velocity: 82
timestamp 43834000 us: [92 3E 57] channel 3: note On D4 velocity: 87
timestamp 43835000 us: [99 28 5D] channel 10: note On E2 velocity: 93
timestamp 43841000 us: [99 2A 00] channel 10: note On F#2 velocity: 0
timestamp 43842000 us: [99 23 00] channel 10: note On B1 velocity: 0
timestamp 43843000 us: [99 28 00] channel 10: note On E2 velocity: 0
timestamp 43846000 us: [96 3E 5C] channel 7: note On D4 velocity: 92
timestamp 43889000 us: [92 3E 00] channel 3: note On D4 velocity: 0
timestamp 43890000 us: [92 3A 00] channel 3: note On A#3 velocity: 0
timestamp 43891000 us: [92 35 00] channel 3: note On F3 velocity: 0
timestamp 43942000 us: [95 32 00] channel 6: note On D3 velocity: 0
timestamp 43943000 us: [95 2E 00] channel 6: note On A#2 velocity: 0
timestamp 43995000 us: [96 35 00] channel 7: note On F3 velocity: 0
timestamp 44005000 us: [96 3A 00] channel 7: note On A#3 velocity: 0
timestamp 44014000 us: [96 3E 00] channel 7: note On D4 velocity: 0
timestamp 44083000 us: [93 46 00] channel 4: note On A#4 velocity: 0
timestamp 44131000 us: [93 46 5E] channel 4: note On A#4 velocity: 94
timestamp 44133000 us: [95 30 2F] channel 6: note On C3 velocity: 47
timestamp 44135000 us: [96 35 42] channel 7: note On F3 velocity: 66
timestamp 44136000 us: [99 2A 26] channel 10: note On F#2 velocity: 38
timestamp 44140000 us: [99 2A 00] channel 10: note On F#2 velocity: 0
timestamp 44161000 us: [92 35 49] channel 3: note On F3 velocity: 73
timestamp 44162000 us: [92 39 45] channel 3: note On A3 velocity: 69
timestamp 44163000 us: [92 3C 46] channel 3: note On C4 velocity: 70
timestamp 44199000 us: [95 30 00] channel 6: note On C3 velocity: 0
timestamp 44267000 us: [93 46 00] channel 4: note On A#4 velocity: 0
timestamp 44281000 us: [96 35 00] channel 7: note On F3 velocity: 0
timestamp 44287000 us: [93 48 60] channel 4: note On C5 velocity: 96
timestamp 44289000 us: [95 30 46] channel 6: note On C3 velocity: 70
timestamp 44290000 us: [96 35 4F] channel 7: note On F3 velocity: 79
timestamp 44292000 us: [99 23 6E] channel 10: note On B1 velocity: 110
timestamp 44293000 us: [99 2A 36] channel 10: note On F#2 velocity: 54
timestamp 44295000 us: [99 2A 00] channel 10: note On F#2 velocity: 0
timestamp 44297000 us: [99 23 00] channel 10: note On B1 velocity: 0
timestamp 44301000 us: [96 39 47] channel 7: note On A3 velocity: 71
timestamp 44322000 us: [96 3C 4E] channel 7: note On C4 velocity: 78
timestamp 44461000 us: [92 35 00] channel 3: note On F3 velocity: 0
timestamp 44490000 us: [93 48 00] channel 4: note On C5 velocity: 0
timestamp 44509000 us: [92 39 00] channel 3: note On A3 velocity: 0
timestamp 44538000 us: [92 3C 00] channel 3: note On C4 velocity: 0
timestamp 44548000 us: [95 30 00] channel 6: note On C3 velocity: 0
timestamp 44582000 us: [96 3C 00] channel 7: note On C4 velocity: 0
timestamp 44582000 us: [96 39 00] channel 7: note On A3 velocity: 0
timestamp 44586000 us: [96 35 00] channel 7: note On F3 velocity: 0
timestamp 44597000 us: [93 48 57] channel 4: note On C5 velocity: 87
timestamp 44598000 us: [95 30 32] channel 6: note On C3 velocity: 50
timestamp 44600000 us: [96 35 42] channel 7: note On F3 velocity: 66
timestamp 44601000 us: [99 2A 26] channel 10: note On F#2 velocity: 38
timestamp 44606000 us: [99 2A 00] channel 10: note On F#2 velocity: 0
timestamp 44616000 us: [92 35 49] channel 3: note On F3 velocity: 73
timestamp 44717000 us: [92 35 00] channel 3: note On F3 velocity: 0
timestamp 44732000 us: [93 48 00] channel 4: note On C5 velocity: 0
timestamp 44752000 us: [95 2E 39] channel 6: note On A#2 velocity: 57
timestamp 44753000 us: [95 32 4D] channel 6: note On D3 velocity: 77
timestamp 44755000 us: [96 3A 5F] channel 7: note On A#3 velocity: 95
timestamp 44756000 us: [99 23 6E] channel 10: note On B1 velocity: 110
timestamp 44758000 us: [99 2A 4A] channel 10: note On F#2 velocity: 74
timestamp 44760000 us: [92 35 52] channel 3: note On F3 velocity: 82
timestamp 44761000 us: [92 3A 54] channel 3: note On A#3 velocity: 84
timestamp 44762000 us: [92 3E 56] channel 3: note On D4 velocity: 86
timestamp 44764000 us: [95 30 00] channel 6: note On C3 velocity: 0
timestamp 44765000 us: [99 28 5D] channel 10: note On E2 velocity: 93
timestamp 44767000 us: [99 2A 00] channel 10: note On F#2 velocity: 0
timestamp 44768000 us: [99 23 00] channel 10: note On B1 velocity: 0
timestamp 44769000 us: [99 28 00] channel 10: note On E2 velocity: 0
timestamp 44776000 us: [96 3E 5C] channel 7: note On D4 velocity: 92
timestamp 44820000 us: [92 3E 00] channel 3: note On D4 velocity: 0
timestamp 44820000 us: [92 3A 00] channel 3: note On A#3 velocity: 0
timestamp 44821000 us: [92 35 00] channel 3: note On F3 velocity: 0
timestamp 44867000 us: [95 32 00] channel 6: note On D3 velocity: 0
timestamp 44868000 us: [95 2E 00] channel 6: note On A#2 velocity: 0
timestamp 44926000 us: [96 35 00] channel 7: note On F3 velocity: 0
timestamp 44935000 us: [96 3A 00] channel 7: note On A#3 velocity: 0
timestamp 44945000 us: [96 3E 00] channel 7: note On D4 velocity: 0
timestamp 45062000 us: [93 48 55] channel 4: note On C5 velocity: 85
timestamp 45064000 us: [95 30 30] channel 6: note On C3 velocity: 48
timestamp 45065000 us: [96 35 42] channel 7: note On F3 velocity: 66
timestamp 45066000 us: [99 2A 26] channel 10: note On F#2 velocity: 38
timestamp 45071000 us: [99 2A 00] channel 10: note On F#2 velocity: 0
timestamp 45092000 us: [92 35 42] channel 3: note On F3 velocity: 66
timestamp 45093000 us: [92 39 43] channel 3: note On A3 velocity: 67
timestamp 45095000 us: [92 3C 46] channel 3: note On C4 velocity: 70
timestamp 45151000 us: [93 48 00] channel 4: note On C5 velocity: 0
timestamp 45159000 us: [95 30 00] channel 6: note On C3 velocity: 0
timestamp 45211000 us: [96 35 00] channel 7: note On F3 velocity: 0
timestamp 45217000 us: [93 48 5E] channel 4: note On C5 velocity: 94
timestamp 45219000 us: [95 30 43] channel 6: note On C3 velocity: 67
timestamp 45220000 us: [96 35 4F] channel 7: note On F3 velocity: 79
timestamp 45222000 us: [99 23 6E] channel 10: note On B1 velocity: 110
timestamp 45223000 us: [99 2A 36] channel 10: note On F#2 velocity: 54
timestamp 45226000 us: [99 2A 00] channel 10: note On F#2 velocity: 0
timestamp 45227000 us: [99 23 00] channel 10: note On B1 velocity: 0
timestamp 45232000 us: [96 39 47] channel 7: note On A3 velocity: 71
timestamp 45252000 us: [96 3C 4E] channel 7: note On C4 velocity: 78
timestamp 45405000 us: [92 35 00] channel 3: note On F3 velocity: 0
timestamp 45451000 us: [93 48 00] channel 4: note On C5 velocity: 0
timestamp 45469000 us: [92 39 00] channel 3: note On A3 velocity: 0
timestamp 45473000 us: [92 3C 00] channel 3: note On C4 velocity: 0
timestamp 45493000 us: [95 30 00] channel 6: note On C3 velocity: 0
timestamp 45512000 us: [96 3C 00] channel 7: note On C4 velocity: 0
timestamp 45512000 us: [96 39 00] channel 7: note On A3 velocity: 0
timestamp 45516000 us: [96 35 00] channel 7: note On F3 velocity: 0
timestamp 45527000 us: [93 48 59] channel 4: note On C5 velocity: 89
timestamp 45529000 us: [95 30 33] channel 6: note On C3 velocity: 51
timestamp 45530000 us: [96 35 45] channel 7: note On F3 velocity: 69
timestamp 45532000 us: [99 2A 26] channel 10: note On F#2 velocity: 38
timestamp 45536000 us: [99 2A 00] channel 10: note On F#2 velocity: 0
timestamp 45546000 us: [92 35 47] channel 3: note On F3 velocity: 71
timestamp 45643000 us: [93 48 00] channel 4: note On C5 velocity: 0
timestamp 45648000 us: [92 35 00] channel 3: note On F3 velocity: 0
timestamp 45677000 us: [95 30 00] channel 6: note On C3 velocity: 0
timestamp 45682000 us: [92 3A 56] channel 3: note On A#3 velocity: 86
timestamp 45683000 us: [92 3E 56] channel 3: note On D4 velocity: 86
timestamp 45685000 us: [93 48 55] channel 4: note On C5 velocity: 85
timestamp 45687000 us: [95 2E 38] channel 6: note On A#2 velocity: 56
timestamp 45688000 us: [95 32 4C] channel 6: note On D3 velocity: 76
timestamp 45690000 us: [96 3A 5F] channel 7: note On A#3 velocity: 95
timestamp 45691000 us: [99 23 6E] channel 10: note On B1 velocity: 110
timestamp 45692000 us: [99 2A 4A] channel 10: note On F#2 velocity: 74
timestamp 45694000 us: [92 35 4F] channel 3: note On F3 velocity: 79
timestamp 45696000 us: [99 28 5D] channel 10: note On E2 velocity: 93
timestamp 45699000 us: [99 2A 00] channel 10: note On F#2 velocity: 0
timestamp 45700000 us: [99 23 00] channel 10: note On B1 velocity: 0
timestamp 45701000 us: [99 28 00] channel 10: note On E2 velocity: 0
timestamp 45706000 us: [96 3E 5C] channel 7: note On D4 velocity: 92
timestamp 45751000 us: [92 3E 00] channel 3: note On D4 velocity: 0
timestamp 45752000 us: [92 3A 00] channel 3: note On A#3 velocity: 0
timestamp 45753000 us: [92 35 00] channel 3: note On F3 velocity: 0
timestamp 45827000 us: [95 32 00] channel 6: note On D3 velocity: 0
timestamp 45828000 us: [95 2E 00] channel 6: note On A#2 velocity: 0
timestamp 45856000 us: [96 35 00] channel 7: note On F3 velocity: 0
timestamp 45865000 us: [96 3A 00] channel 7: note On A#3 velocity: 0
timestamp 45875000 us: [96 3E 00] channel 7: note On D4 velocity: 0
timestamp 45910000 us: [93 48 00] channel 4: note On C5 velocity: 0
timestamp 45992000 us: [93 4A 59] channel 4: note On D5 velocity: 89
timestamp 45994000 us: [95 30 2F] channel 6: note On C3 velocity: 47
timestamp 45995000 us: [96 35 42] channel 7: note On F3 velocity: 66
timestamp 45997000 us: [99 2A 26] channel 10: note On F#2 velocity: 38
timestamp 46001000 us: [99 2A 00] channel 10: note On F#2 velocity: 0
timestamp 46021000 us: [92 35 43] channel 3: note On F3 velocity: 67
timestamp 46022000 us: [92 39 43] channel 3: note On A3 velocity: 67
timestamp 46024000 us: [92 3C 46] channel 3: note On C4 velocity: 70
timestamp 46093000 us: [95 30 00] channel 6: note On C3 velocity: 0
timestamp 46142000 us: [93 4A 00] channel 4: note On D5 velocity: 0
timestamp 46143000 us: [96 35 00] channel 7: note On F3 velocity: 0
timestamp 46147000 us: [93 45 61] channel 4: note On A4 velocity: 97
timestamp 46149000 us: [95 30 46] channel 6: note On C3 velocity: 70
timestamp 46150000 us: [96 35 4F] channel 7: note On F3 velocity: 79
timestamp 46152000 us: [99 23 6E] channel 10: note On B1 velocity: 110
timestamp 46153000 us: [99 2A 36] channel 10: note On F#2 velocity: 54
timestamp 46157000 us: [99 2A 00] channel 10: note On F#2 velocity: 0
timestamp 46158000 us: [99 23 00] channel 10: note On B1 velocity: 0
timestamp 46162000 us: [96 39 47] channel 7: note On A3 velocity: 71
timestamp 46181000 us: [96 3C 4E] channel 7: note On C4 velocity: 78
timestamp 46370000 us: [92 35 00] channel 3: note On F3 velocity: 0
timestamp 46393000 us: [92 39 00] channel 3: note On A3 velocity: 0
timestamp 46399000 us: [93 45 00] channel 4: note On A4 velocity: 0
timestamp 46408000 us: [95 30 00] channel 6: note On C3 velocity: 0
timestamp 46433000 us: [92 3C 00] channel 3: note On C4 velocity: 0
timestamp 46442000 us: [96 3C 00] channel 7: note On C4 velocity: 0
timestamp 46443000 us: [96 39 00] channel 7: note On A3 velocity: 0
timestamp 46447000 us: [96 35 00] channel 7: note On F3 velocity: 0
timestamp 46458000 us: [93 41 5C] channel 4: note On F4 velocity: 92
timestamp 46459000 us: [95 30 31] channel 6: note On C3 velocity: 49
timestamp 46461000 us: [96 35 42] channel 7: note On F3 velocity: 66
timestamp 46462000 us: [99 2A 39] channel 10: note On F#2 velocity: 57
timestamp 46463000 us: [99 28 5D] channel 10: note On E2 velocity: 93
timestamp 46466000 us: [99 2A 00] channel 10: note On F#2 velocity: 0
timestamp 46467000 us: [99 28 00] channel 10: note On E2 velocity: 0
timestamp 46477000 us: [92 35 46] channel 3: note On F3 velocity: 70
timestamp 46558000 us: [92 35 00] channel 3: note On F3 velocity: 0
timestamp 46592000 us: [95 30 00] channel 6: note On C3 velocity: 0
timestamp 46607000 us: [93 41 00] channel 4: note On F4 velocity: 0
timestamp 46612000 us: [93 41 5C] channel 4: note On F4 velocity: 92
timestamp 46614000 us: [95 2E 38] channel 6: note On A#2 velocity: 56
timestamp 46615000 us: [95 32 4C] channel 6: note On D3 velocity: 76
timestamp 46617000 us: [96 3A 5F] channel 7: note On A#3 velocity: 95
timestamp 46619000 us: [97 41 4F] channel 8: note On F4 velocity: 79
timestamp 46620000 us: [97 45 61] channel 8: note On A4 velocity: 97
timestamp 46622000 us: [99 23 6E] channel 10: note On B1 velocity: 110
timestamp 46623000 us: [99 2A 3F] channel 10: note On F#2 velocity: 63
timestamp 46625000 us: [92 3A 57] channel 3: note On A#3 velocity: 87
timestamp 46626000 us: [92 3E 57] channel 3: note On D4 velocity: 87
timestamp 46628000 us: [99 28 4D] channel 10: note On E2 velocity: 77
timestamp 46631000 us: [92 35 4F] channel 3: note On F3 velocity: 79
timestamp 46633000 us: [99 2A 00] channel 10: note On F#2 velocity: 0
timestamp 46633000 us: [99 23 00] channel 10: note On B1 velocity: 0
timestamp 46634000 us: [99 28 00] channel 10: note On E2 velocity: 0
timestamp 46637000 us: [96 3E 5C] channel 7: note On D4 velocity: 92
timestamp 46723000 us: [95 32 00] channel 6: note On D3 velocity: 0
timestamp 46724000 us: [95 2E 00] channel 6: note On A#2 velocity: 0
timestamp 46786000 us: [96 35 00] channel 7: note On F3 velocity: 0
timestamp 46795000 us: [96 3A 00] channel 7: note On A#3 velocity: 0
timestamp 46805000 us: [96 3E 00] channel 7: note On D4 velocity: 0
timestamp 46810000 us: [92 3E 00] channel 3: note On D4 velocity: 0
timestamp 46811000 us: [92 3A 00] channel 3: note On A#3 velocity: 0
timestamp 46815000 us: [92 35 00] channel 3: note On F3 velocity: 0
timestamp 46917000 us: [93 41 00] channel 4: note On F4 velocity: 0
timestamp 46922000 us: [92 33 18] channel 3: note On D#3 velocity: 24
timestamp 46924000 us: [93 3F 58] channel 4: note On D#4 velocity: 88
timestamp 46926000 us: [95 30 2E] channel 6: note On C3 velocity: 46
timestamp 46927000 us: [96 35 42] channel 7: note On F3 velocity: 66
timestamp 46929000 us: [97 3F 4C] channel 8: note On D#4 velocity: 76
timestamp 46930000 us: [97 43 5E] channel 8: note On G4 velocity: 94
timestamp 46932000 us: [99 28 49] channel 10: note On E2 velocity: 73
timestamp 46934000 us: [97 45 00] channel 8: note On A4 velocity: 0
timestamp 46935000 us: [97 41 00] channel 8: note On F4 velocity: 0
timestamp 46936000 us: [99 28 00] channel 10: note On E2 velocity: 0
timestamp 46995000 us: [92 33 00] channel 3: note On D#3 velocity: 0
timestamp 47067000 us: [95 30 00] channel 6: note On C3 velocity: 0
timestamp 47072000 us: [91 1D 00] channel 2: note On F1 velocity: 0
timestamp 47073000 us: [96 35 00] channel 7: note On F3 velocity: 0
timestamp 47078000 us: [91 1B 63] channel 2: note On D#1 velocity: 99
timestamp 47079000 us: [92 33 49] channel 3: note On D#3 velocity: 73
timestamp 47080000 us: [92 37 4C] channel 3: note On G3 velocity: 76
timestamp 47082000 us: [92 3A 45] channel 3: note On A#3 velocity: 69
timestamp 47084000 us: [95 2E 4B] channel 6: note On A#2 velocity: 75
timestamp 47085000 us: [96 33 4F] channel 7: note On D#3 velocity: 79
timestamp 47087000 us: [99 23 6E] channel 10: note On B1 velocity: 110
timestamp 47088000 us: [99 31 42] channel 10: note On C#3 velocity: 66
timestamp 47091000 us: [99 31 00] channel 10: note On C#3 velocity: 0
timestamp 47091000 us: [99 23 00] channel 10: note On B1 velocity: 0
timestamp 47094000 us: [96 37 47] channel 7: note On G3 velocity: 71
timestamp 47111000 us: [96 3A 4E] channel 7: note On A#3 velocity: 78
timestamp 47271000 us: [92 33 00] channel 3: note On D#3 velocity: 0
timestamp 47314000 us: [97 3F 00] channel 8: note On D#4 velocity: 0
timestamp 47315000 us: [97 43 00] channel 8: note On G4 velocity: 0
timestamp 47339000 us: [92 3A 00] channel 3: note On A#3 velocity: 0
timestamp 47340000 us: [93 3F 00] channel 4: note On D#4 velocity: 0
timestamp 47348000 us: [95 2E 00] channel 6: note On A#2 velocity: 0
timestamp 47372000 us: [96 3A 00] channel 7: note On A#3 velocity: 0
timestamp 47373000 us: [96 37 00] channel 7: note On G3 velocity: 0
timestamp 47377000 us: [96 33 00] channel 7: note On D#3 velocity: 0
timestamp 47388000 us: [92 33 57] channel 3: note On D#3 velocity: 87
timestamp 47389000 us: [95 2E 2E] channel 6: note On A#2 velocity: 46
timestamp 47391000 us: [96 33 45] channel 7: note On D#3 velocity: 69
timestamp 47392000 us: [99 2A 26] channel 10: note On F#2 velocity: 38
timestamp 47396000 us: [99 2A 00] channel 10: note On F#2 velocity: 0
timestamp 47426000 us: [92 37 00] channel 3: note On G3 velocity: 0
timestamp 47464000 us: [95 2E 00] channel 6: note On A#2 velocity: 0
timestamp 47543000 us: [92 38 53] channel 3: note On G#3 velocity: 83
timestamp 47544000 us: [92 3C 53] channel 3: note On C4 velocity: 83
timestamp 47546000 us: [95 2C 38] channel 6: note On G#2 velocity: 56
timestamp 47547000 us: [95 30 4D] channel 6: note On C3 velocity: 77
timestamp 47549000 us: [96 38 5F] channel 7: note On G#3 velocity: 95
timestamp 47550000 us: [99 23 6E] channel 10: note On B1 velocity: 110
timestamp 47551000 us: [99 2A 4A] channel 10: note On F#2 velocity: 74
timestamp 47553000 us: [99 28 5D] channel 10: note On E2 velocity: 93
timestamp 47556000 us: [99 2A 00] channel 10: note On F#2 velocity: 0
timestamp 47557000 us: [99 23 00] channel 10: note On B1 velocity: 0
timestamp 47558000 us: [99 28 00] channel 10: note On E2 velocity: 0
timestamp 47567000 us: [96 3C 5C] channel 7: note On C4 velocity: 92
timestamp 47663000 us: [95 30 00] channel 6: note On C3 velocity: 0
timestamp 47664000 us: [95 2C 00] channel 6: note On G#2 velocity: 0
timestamp 47716000 us: [96 33 00] channel 7: note On D#3 velocity: 0
timestamp 47726000 us: [96 38 00] channel 7: note On G#3 velocity: 0
timestamp 47736000 us: [92 3C 00] channel 3: note On C4 velocity: 0
timestamp 47737000 us: [96 3C 00] channel 7: note On C4 velocity: 0
timestamp 47755000 us: [92 33 00] channel 3: note On D#3 velocity: 0
timestamp 47774000 us: [92 38 00] channel 3: note On G#3 velocity: 0
timestamp 47852000 us: [92 33 50] channel 3: note On D#3 velocity: 80
timestamp 47854000 us: [92 37 50] channel 3: note On G3 velocity: 80
timestamp 47855000 us: [92 3A 45] channel 3: note On A#3 velocity: 69
timestamp 47857000 us: [95 2E 2F] channel 6: note On A#2 velocity: 47
timestamp 47859000 us: [96 33 42] channel 7: note On D#3 velocity: 66
timestamp 47860000 us: [99 2A 26] channel 10: note On F#2 velocity: 38
timestamp 47862000 us: [99 2A 00] channel 10: note On F#2 velocity: 0
timestamp 47920000 us: [95 2E 00] channel 6: note On A#2 velocity: 0
timestamp 48002000 us: [96 33 00] channel 7: note On D#3 velocity: 0
timestamp 48008000 us: [95 2E 46] channel 6: note On A#2 velocity: 70
timestamp 48010000 us: [96 33 4F] channel 7: note On D#3 velocity: 79
timestamp 48011000 us: [99 23 6E] channel 10: note On B1 velocity: 110
timestamp 48012000 us: [99 2A 36] channel 10: note On F#2 velocity: 54
timestamp 48017000 us: [99 2A 00] channel 10: note On F#2 velocity: 0
timestamp 48018000 us: [99 23 00] channel 10: note On B1 velocity: 0
timestamp 48022000 us: [96 37 47] channel 7: note On G3 velocity: 71
timestamp 48041000 us: [96 3A 4E] channel 7: note On A#3 velocity: 78
timestamp 48269000 us: [95 2E 00] channel 6: note On A#2 velocity: 0
timestamp 48303000 us: [96 3A 00] channel 7: note On A#3 velocity: 0
timestamp 48303000 us: [96 37 00] channel 7: note On G3 velocity: 0
timestamp 48307000 us: [96 33 00] channel 7: note On D#3 velocity: 0
timestamp 48318000 us: [95 2E 32] channel 6: note On A#2 velocity: 50
timestamp 48320000 us: [96 33 42] channel 7: note On D#3 velocity: 66
timestamp 48321000 us: [99 2A 26] channel 10: note On F#2 velocity: 38
timestamp 48327000 us: [99 2A 00] channel 10: note On F#2 velocity: 0
timestamp 48473000 us: [93 3F 5E] channel 4: note On D#4 velocity: 94
timestamp 48475000 us: [95 2C 39] channel 6: note On G#2 velocity: 57
timestamp 48476000 us: [95 30 4D] channel 6: note On C3 velocity: 77
timestamp 48478000 us: [96 38 5F] channel 7: note On G#3 velocity: 95
timestamp 48479000 us: [97 3F 4C] channel 8: note On D#4 velocity: 76
timestamp 48481000 us: [97 43 5E] channel 8: note On G4 velocity: 94
timestamp 48483000 us: [99 23 6E] channel 10: note On B1 velocity: 110
timestamp 48484000 us: [99 2A 4A] channel 10: note On F#2 velocity: 74
timestamp 48485000 us: [95 2E 00] channel 6: note On A#2 velocity: 0
timestamp 48486000 us: [99 28 5D] channel 10: note On E2 velocity: 93
timestamp 48490000 us: [99 2A 00] channel 10: note On F#2 velocity: 0
timestamp 48491000 us: [99 23 00] channel 10: note On B1 velocity: 0
timestamp 48491000 us: [99 28 00] channel 10: note On E2 velocity: 0
timestamp 48497000 us: [96 3C 5C] channel 7: note On C4 velocity: 92
timestamp 48588000 us: [95 30 00] channel 6: note On C3 velocity: 0
timestamp 48589000 us: [95 2C 00] channel 6: note On G#2 velocity: 0
timestamp 48646000 us: [96 33 00] channel 7: note On D#3 velocity: 0
timestamp 48656000 us: [96 38 00] channel 7: note On G#3 velocity: 0
timestamp 48666000 us: [96 3C 00] channel 7: note On C4 velocity: 0
timestamp 48729000 us: [92 33 00] channel 3: note On D#3 velocity: 0
timestamp 48748000 us: [97 43 00] channel 8: note On G4 velocity: 0
timestamp 48749000 us: [97 3F 00] channel 8: note On D#4 velocity: 0
timestamp 48758000 us: [92 37 00] channel 3: note On G3 velocity: 0
timestamp 48778000 us: [91 1B 00] channel 2: note On D#1 velocity: 0
timestamp 48778000 us: [93 3F 00] channel 4: note On D#4 velocity: 0
timestamp 48783000 us: [92 35 45] channel 3: note On F3 velocity: 69
timestamp 48784000 us: [93 3E 5E] channel 4: note On D4 velocity: 94
timestamp 48786000 us: [95 2E 30] channel 6: note On A#2 velocity: 48
timestamp 48787000 us: [96 33 42] channel 7: note On D#3 velocity: 66
timestamp 48789000 us: [97 3E 4D] channel 8: note On D4 velocity: 77
timestamp 48790000 us: [97 41 5F] channel 8: note On F4 velocity: 95
timestamp 48792000 us: [99 2A 26] channel 10: note On F#2 velocity: 38
timestamp 48794000 us: [92 3A 00] channel 3: note On A#3 velocity: 0
timestamp 48795000 us: [99 2A 00] channel 10: note On F#2 velocity: 0
timestamp 48812000 us: [91 22 63] channel 2: note On A#1 velocity: 99
timestamp 48879000 us: [95 2E 00] channel 6: note On A#2 velocity: 0
timestamp 48918000 us: [92 35 00] channel 3: note On F3 velocity: 0
timestamp 48932000 us: [96 33 00] channel 7: note On D#3 velocity: 0
timestamp 48938000 us: [92 35 4F] channel 3: note On F3 velocity: 79
timestamp 48940000 us: [92 3A 57] channel 3: note On A#3 velocity: 87
timestamp 48941000 us: [92 3E 57] channel 3: note On D4 velocity: 87
timestamp 48943000 us: [95 35 43] channel 6: note On F3 velocity: 67
timestamp 48945000 us: [96 35 4F] channel 7: note On F3 velocity: 79
timestamp 48946000 us: [99 23 6E] channel 10: note On B1 velocity: 110
timestamp 48947000 us: [99 2A 36] channel 10: note On F#2 velocity: 54
timestamp 48951000 us: [99 2A 00] channel 10: note On F#2 velocity: 0
timestamp 48952000 us: [99 23 00] channel 10: note On B1 velocity: 0
timestamp 48954000 us: [96 3A 47] channel 7: note On A#3 velocity: 71
timestamp 48973000 us: [96 3E 4E] channel 7: note On D4 velocity: 78
timestamp 49161000 us: [93 3E 00] channel 4: note On D4 velocity: 0
timestamp 49174000 us: [97 41 00] channel 8: note On F4 velocity: 0
timestamp 49174000 us: [97 3E 00] channel 8: note On D4 velocity: 0
timestamp 49214000 us: [95 35 00] channel 6: note On F3 velocity: 0
timestamp 49228000 us: [92 3A 00] channel 3: note On A#3 velocity: 0
timestamp 49229000 us: [92 35 00] channel 3: note On F3 velocity: 0
timestamp 49233000 us: [92 3E 00] channel 3: note On D4 velocity: 0
timestamp 49234000 us: [96 3E 00] channel 7: note On D4 velocity: 0
timestamp 49234000 us: [96 3A 00] channel 7: note On A#3 velocity: 0
timestamp 49237000 us: [96 35 00] channel 7: note On F3 velocity: 0
timestamp 49248000 us: [92 35 37] channel 3: note On F3 velocity: 55
timestamp 49250000 us: [92 3A 42] channel 3: note On A#3 velocity: 66
timestamp 49251000 us: [95 35 33] channel 6: note On F3 velocity: 51
timestamp 49253000 us: [96 35 45] channel 7: note On F3 velocity: 69
timestamp 49254000 us: [99 2A 26] channel 10: note On F#2 velocity: 38
timestamp 49257000 us: [99 2A 00] channel 10: note On F#2 velocity: 0
timestamp 49398000 us: [92 35 00] channel 3: note On F3 velocity: 0
timestamp 49399000 us: [95 35 00] channel 6: note On F3 velocity: 0
timestamp 49403000 us: [92 35 33] channel 3: note On F3 velocity: 51
timestamp 49404000 us: [92 3F 57] channel 3: note On D#4 velocity: 87
timestamp 49406000 us: [95 33 38] channel 6: note On D#3 velocity: 56
timestamp 49407000 us: [95 37 4C] channel 6: note On G3 velocity: 76
timestamp 49409000 us: [96 3A 5F] channel 7: note On A#3 velocity: 95
timestamp 49411000 us: [99 23 6E] channel 10: note On B1 velocity: 110
timestamp 49412000 us: [99 2A 4A] channel 10: note On F#2 velocity: 74
timestamp 49414000 us: [99 28 5D] channel 10: note On E2 velocity: 93
timestamp 49416000 us: [99 2A 00] channel 10: note On F#2 velocity: 0
timestamp 49417000 us: [99 23 00] channel 10: note On B1 velocity: 0
timestamp 49418000 us: [99 28 00] channel 10: note On E2 velocity: 0
timestamp 49427000 us: [96 3F 5C] channel 7: note On D#4 velocity: 92
timestamp 49548000 us: [95 37 00] channel 6: note On G3 velocity: 0
timestamp 49548000 us: [95 33 00] channel 6: note On D#3 velocity: 0
timestamp 49577000 us: [96 35 00] channel 7: note On F3 velocity: 0
timestamp 49586000 us: [96 3A 00] channel 7: note On A#3 velocity: 0
timestamp 49596000 us: [96 3F 00] channel 7: note On D#4 velocity: 0
timestamp 49635000 us: [92 3A 00] channel 3: note On A#3 velocity: 0
timestamp 49683000 us: [92 35 00] channel 3: note On F3 velocity: 0
timestamp 49688000 us: [92 3F 00] channel 3: note On D#4 velocity: 0
timestamp 49713000 us: [92 35 49] channel 3: note On F3 velocity: 73
timestamp 49714000 us: [92 3A 42] channel 3: note On A#3 velocity: 66
timestamp 49716000 us: [92 3E 5A] channel 3: note On D4 velocity: 90
timestamp 49718000 us: [95 35 2F] channel 6: note On F3 velocity: 47
timestamp 49719000 us: [96 35 42] channel 7: note On F3 velocity: 66
timestamp 49721000 us: [99 2A 26] channel 10: note On F#2 velocity: 38
timestamp 49722000 us: [99 2A 00] channel 10: note On F#2 velocity: 0
timestamp 49814000 us: [95 35 00] channel 6: note On F3 velocity: 0
timestamp 49863000 us: [96 35 00] channel 7: note On F3 velocity: 0
timestamp 49868000 us: [95 35 46] channel 6: note On F3 velocity: 70
timestamp 49870000 us: [96 35 4F] channel 7: note On F3 velocity: 79
timestamp 49871000 us: [99 23 6E] channel 10: note On B1 velocity: 110
timestamp 49873000 us: [99 2A 36] channel 10: note On F#2 velocity: 54
timestamp 49881000 us: [99 2A 00] channel 10: note On F#2 velocity: 0
timestamp 49881000 us: [99 23 00] channel 10: note On B1 velocity: 0
timestamp 49883000 us: [96 3A 47] channel 7: note On A#3 velocity: 71
timestamp 49902000 us: [96 3E 4E] channel 7: note On D4 velocity: 78
timestamp 50129000 us: [95 35 00] channel 6: note On F3 velocity: 0
timestamp 50163000 us: [96 3E 00] channel 7: note On D4 velocity: 0
timestamp 50164000 us: [96 3A 00] channel 7: note On A#3 velocity: 0
timestamp 50168000 us: [96 35 00] channel 7: note On F3 velocity: 0
timestamp 50179000 us: [95 35 31] channel 6: note On F3 velocity: 49
timestamp 50180000 us: [96 35 42] channel 7: note On F3 velocity: 66
timestamp 50181000 us: [99 2A 26] channel 10: note On F#2 velocity: 38
timestamp 50187000 us: [99 2A 00] channel 10: note On F#2 velocity: 0
timestamp 50313000 us: [95 35 00] channel 6: note On F3 velocity: 0
timestamp 50333000 us: [93 41 5F] channel 4: note On F4 velocity: 95
timestamp 50335000 us: [95 33 38] channel 6: note On D#3 velocity: 56
timestamp 50336000 us: [95 37 4C] channel 6: note On G3 velocity: 76
timestamp 50338000 us: [96 3A 5F] channel 7: note On A#3 velocity: 95
timestamp 50339000 us: [97 3E 4D] channel 8: note On D4 velocity: 77
timestamp 50341000 us: [97 41 5F] channel 8: note On F4 velocity: 95
timestamp 50343000 us: [99 23 6E] channel 10: note On B1 velocity: 110
timestamp 50344000 us: [99 2A 4A] channel 10: note On F#2 velocity: 74
timestamp 50346000 us: [99 28 5D] channel 10: note On E2 velocity: 93
timestamp 50348000 us: [99 2A 00] channel 10: note On F#2 velocity: 0
timestamp 50349000 us: [99 23 00] channel 10: note On B1 velocity: 0
timestamp 50350000 us: [99 28 00] channel 10: note On E2 velocity: 0
timestamp 50358000 us: [96 3F 5C] channel 7: note On D#4 velocity: 92
timestamp 50444000 us: [95 37 00] channel 6: note On G3 velocity: 0
timestamp 50445000 us: [95 33 00] channel 6: note On D#3 velocity: 0
timestamp 50507000 us: [96 35 00] channel 7: note On F3 velocity: 0
timestamp 50516000 us: [96 3A 00] channel 7: note On A#3 velocity: 0
timestamp 50526000 us: [96 3F 00] channel 7: note On D#4 velocity: 0
timestamp 50590000 us: [91 22 00] channel 2: note On A#1 velocity: 0
timestamp 50594000 us: [92 35 00] channel 3: note On F3 velocity: 0
timestamp 50599000 us: [92 3A 00] channel 3: note On A#3 velocity: 0
timestamp 50600000 us: [93 41 00] channel 4: note On F4 velocity: 0
timestamp 50601000 us: [92 3E 00] channel 3: note On D4 velocity: 0
timestamp 50604000 us: [97 41 00] channel 8: note On F4 velocity: 0
timestamp 50605000 us: [97 3E 00] channel 8: note On D4 velocity: 0
timestamp 50643000 us: [92 35 37] channel 3: note On F3 velocity: 55
timestamp 50645000 us: [93 41 53] channel 4: note On F4 velocity: 83
timestamp 50646000 us: [95 35 2E] channel 6: note On F3 velocity: 46
timestamp 50648000 us: [96 35 42] channel 7: note On F3 velocity: 66
timestamp 50649000 us: [97 3C 47] channel 8: note On C4 velocity: 71
timestamp 50651000 us: [97 41 59] channel 8: note On F4 velocity: 89
timestamp 50652000 us: [99 2A 26] channel 10: note On F#2 velocity: 38
timestamp 50654000 us: [99 2A 00] channel 10: note On F#2 velocity: 0
timestamp 50673000 us: [91 1D 63] channel 2: note On F1 velocity: 99
timestamp 50779000 us: [E4 00 0C] channel 5: pitch wheel change 1536
timestamp 50784000 us: [94 4D 6F] channel 5: note On F5 velocity: 111
timestamp 50786000 us: [94 59 69] channel 5: note On F6 velocity: 105
timestamp 50788000 us: [95 35 00] channel 6: note On F3 velocity: 0
timestamp 50793000 us: [92 35 00] channel 3: note On F3 velocity: 0
timestamp 50794000 us: [96 35 00] channel 7: note On F3 velocity: 0
timestamp 50799000 us: [95 30 4B] channel 6: note On C3 velocity: 75
timestamp 50801000 us: [96 35 4F] channel 7: note On F3 velocity: 79
timestamp 50802000 us: [99 23 6E] channel 10: note On B1 velocity: 110
timestamp 50803000 us: [99 2A 36] channel 10: note On F#2 velocity: 54
timestamp 50806000 us: [92 35 41] channel 3: note On F3 velocity: 65
timestamp 50808000 us: [92 39 4D] channel 3: note On A3 velocity: 77
timestamp 50811000 us: [92 3C 50] channel 3: note On C4 velocity: 80
timestamp 50812000 us: [99 2A 00] channel 10: note On F#2 velocity: 0
timestamp 50813000 us: [99 23 00] channel 10: note On B1 velocity: 0
timestamp 50815000 us: [96 39 47] channel 7: note On A3 velocity: 71
timestamp 50832000 us: [96 3C 4E] channel 7: note On C4 velocity: 78
timestamp 50939000 us: [E4 00 16] channel 5: pitch wheel change 2816
timestamp 50958000 us: [E4 00 24] channel 5: pitch wheel change 4608
timestamp 50982000 us: [E4 00 30] channel 5: pitch wheel change 6144
timestamp 51001000 us: [E4 00 37] channel 5: pitch wheel change 7040
timestamp 51016000 us: [E4 00 40] channel 5: pitch wheel change 8192
timestamp 51026000 us: [92 35 00] channel 3: note On F3 velocity: 0
timestamp 51026000 us: [92 39 00] channel 3: note On A3 velocity: 0
timestamp 51031000 us: [92 3C 00] channel 3: note On C4 velocity: 0
timestamp 51032000 us: [97 41 00] channel 8: note On F4 velocity: 0
timestamp 51033000 us: [97 3C 00] channel 8: note On C4 velocity: 0
timestamp 51050000 us: [93 41 00] channel 4: note On F4 velocity: 0
timestamp 51069000 us: [95 30 00] channel 6: note On C3 velocity: 0
timestamp 51093000 us: [96 3C 00] channel 7: note On C4 velocity: 0
timestamp 51094000 us: [96 39 00] channel 7: note On A3 velocity: 0
timestamp 51098000 us: [96 35 00] channel 7: note On F3 velocity: 0
timestamp 51109000 us: [95 30 2E] channel 6: note On C3 velocity: 46
timestamp 51110000 us: [96 35 45] channel 7: note On F3 velocity: 69
timestamp 51112000 us: [99 2A 26] channel 10: note On F#2 velocity: 38
timestamp 51118000 us: [99 2A 00] channel 10: note On F#2 velocity: 0
timestamp 51128000 us: [92 35 46] channel 3: note On F3 velocity: 70
timestamp 51185000 us: [95 30 00] channel 6: note On C3 velocity: 0
timestamp 51225000 us: [E4 00 3E] channel 5: pitch wheel change 7936
timestamp 51234000 us: [92 35 00] channel 3: note On F3 velocity: 0
timestamp 51264000 us: [95 2E 38] channel 6: note On A#2 velocity: 56
timestamp 51265000 us: [95 32 4D] channel 6: note On D3 velocity: 77
timestamp 51267000 us: [96 3A 5F] channel 7: note On A#3 velocity: 95
timestamp 51268000 us: [99 23 6E] channel 10: note On B1 velocity: 110
timestamp 51269000 us: [99 2A 4A] channel 10: note On F#2 velocity: 74
timestamp 51272000 us: [92 35 46] channel 3: note On F3 velocity: 70
timestamp 51273000 us: [92 3A 52] channel 3: note On A#3 velocity: 82
timestamp 51274000 us: [92 3E 57] channel 3: note On D4 velocity: 87
timestamp 51276000 us: [99 28 5D] channel 10: note On E2 velocity: 93
timestamp 51283000 us: [99 2A 00] channel 10: note On F#2 velocity: 0
timestamp 51284000 us: [99 23 00] channel 10: note On B1 velocity: 0
timestamp 51285000 us: [99 28 00] channel 10: note On E2 velocity: 0
timestamp 51288000 us: [96 3E 5C] channel 7: note On D4 velocity: 92
timestamp 51331000 us: [92 3E 00] channel 3: note On D4 velocity: 0
timestamp 51332000 us: [92 3A 00] channel 3: note On A#3 velocity: 0
timestamp 51332000 us: [92 35 00] channel 3: note On F3 velocity: 0
timestamp 51346000 us: [E4 00 3B] channel 5: pitch wheel change 7552
timestamp 51384000 us: [95 32 00] channel 6: note On D3 velocity: 0
timestamp 51385000 us: [95 2E 00] channel 6: note On A#2 velocity: 0
timestamp 51437000 us: [96 35 00] channel 7: note On F3 velocity: 0
timestamp 51447000 us: [96 3A 00] channel 7: note On A#3 velocity: 0
timestamp 51456000 us: [96 3E 00] channel 7: note On D4 velocity: 0
timestamp 51462000 us: [E4 00 38] channel 5: pitch wheel change 7168
timestamp 51505000 us: [94 59 00] channel 5: note On F6 velocity: 0
timestamp 51506000 us: [94 4D 00] channel 5: note On F5 velocity: 0
timestamp 51554000 us: [E4 00 40] channel 5: pitch wheel change 8192
timestamp 51557000 us: [94 48 68] channel 5: note On C5 velocity: 104
timestamp 51558000 us: [94 54 5D] channel 5: note On C6 velocity: 93
timestamp 51574000 us: [95 30 2F] channel 6: note On C3 velocity: 47
timestamp 51575000 us: [96 35 42] channel 7: note On F3 velocity: 66
timestamp 51577000 us: [99 2A 26] channel 10: note On F#2 velocity: 38
timestamp 51582000 us: [99 2A 00] channel 10: note On F#2 velocity: 0
timestamp 51603000 us: [92 35 49] channel 3: note On F3 velocity: 73
timestamp 51604000 us: [92 39 45] channel 3: note On A3 velocity: 69
timestamp 51605000 us: [92 3C 46] channel 3: note On C4 velocity: 70
timestamp 51641000 us: [95 30 00] channel 6: note On C3 velocity: 0
timestamp 51646000 us: [94 54 00] channel 5: note On C6 velocity: 0
timestamp 51646000 us: [94 48 00] channel 5: note On C5 velocity: 0
timestamp 51709000 us: [94 4B 6A] channel 5: note On D#5 velocity: 106
timestamp 51711000 us: [94 57 5F] channel 5: note On D#6 velocity: 95
timestamp 51723000 us: [96 35 00] channel 7: note On F3 velocity: 0
timestamp 51729000 us: [95 30 46] channel 6: note On C3 velocity: 70
timestamp 51731000 us: [96 35 4F] channel 7: note On F3 velocity: 79
timestamp 51732000 us: [99 23 6E] channel 10: note On B1 velocity: 110
timestamp 51733000 us: [99 2A 36] channel 10: note On F#2 velocity: 54
timestamp 51738000 us: [99 2A 00] channel 10: note On F#2 velocity: 0
timestamp 51738000 us: [99 23 00] channel 10: note On B1 velocity: 0
timestamp 51743000 us: [96 39 47] channel 7: note On A3 velocity: 71
timestamp 51764000 us: [96 3C 4E] channel 7: note On C4 velocity: 78
timestamp 51806000 us: [94 57 00] channel 5: note On D#6 velocity: 0
timestamp 51806000 us: [94 4B 00] channel 5: note On D#5 velocity: 0
timestamp 51865000 us: [94 48 66] channel 5: note On C5 velocity: 102
timestamp 51866000 us: [94 54 5B] channel 5: note On C6 velocity: 91
timestamp 51902000 us: [92 35 00] channel 3: note On F3 velocity: 0
timestamp 51951000 us: [92 39 00] channel 3: note On A3 velocity: 0
timestamp 51967000 us: [94 54 00] channel 5: note On C6 velocity: 0
timestamp 51967000 us: [94 48 00] channel 5: note On C5 velocity: 0
timestamp 51980000 us: [92 3C 00] channel 3: note On C4 velocity: 0
timestamp 51990000 us: [95 30 00] channel 6: note On C3 velocity: 0
timestamp 52020000 us: [94 45 68] channel 5: note On A4 velocity: 104
timestamp 52021000 us: [94 51 5D] channel 5: note On A5 velocity: 93
timestamp 52024000 us: [96 3C 00] channel 7: note On C4 velocity: 0
timestamp 52024000 us: [96 39 00] channel 7: note On A3 velocity: 0
timestamp 52028000 us: [96 35 00] channel 7: note On F3 velocity: 0
timestamp 52039000 us: [95 30 32] channel 6: note On C3 velocity: 50
timestamp 52041000 us: [96 35 42] channel 7: note On F3 velocity: 66
timestamp 52042000 us: [99 2A 26] channel 10: note On F#2 velocity: 38
timestamp 52048000 us: [99 2A 00] channel 10: note On F#2 velocity: 0
timestamp 52058000 us: [92 35 49] channel 3: note On F3 velocity: 73
timestamp 52106000 us: [94 51 00] channel 5: note On A5 velocity: 0
timestamp 52107000 us: [94 45 00] channel 5: note On A4 velocity: 0
timestamp 52159000 us: [92 35 00] channel 3: note On F3 velocity: 0
timestamp 52175000 us: [94 41 66] channel 5: note On F4 velocity: 102
timestamp 52176000 us: [94 4D 5B] channel 5: note On F5 velocity: 91
timestamp 52194000 us: [95 2E 39] channel 6: note On A#2 velocity: 57
timestamp 52195000 us: [95 32 4D] channel 6: note On D3 velocity: 77
timestamp 52197000 us: [96 3A 5F] channel 7: note On A#3 velocity: 95
timestamp 52199000 us: [99 23 6E] channel 10: note On B1 velocity: 110
timestamp 52200000 us: [99 2A 4A] channel 10: note On F#2 velocity: 74
timestamp 52202000 us: [92 35 52] channel 3: note On F3 velocity: 82
timestamp 52203000 us: [92 3A 54] channel 3: note On A#3 velocity: 84
timestamp 52205000 us: [92 3E 56] channel 3: note On D4 velocity: 86
timestamp 52206000 us: [95 30 00] channel 6: note On C3 velocity: 0
timestamp 52207000 us: [99 28 5D] channel 10: note On E2 velocity: 93
timestamp 52211000 us: [99 2A 00] channel 10: note On F#2 velocity: 0
timestamp 52212000 us: [99 23 00] channel 10: note On B1 velocity: 0
timestamp 52213000 us: [99 28 00] channel 10: note On E2 velocity: 0
timestamp 52218000 us: [96 3E 5C] channel 7: note On D4 velocity: 92
timestamp 52262000 us: [92 3E 00] channel 3: note On D4 velocity: 0
timestamp 52263000 us: [92 3A 00] channel 3: note On A#3 velocity: 0
timestamp 52263000 us: [92 35 00] channel 3: note On F3 velocity: 0
timestamp 52264000 us: [94 4D 00] channel 5: note On F5 velocity: 0
timestamp 52265000 us: [94 41 00] channel 5: note On F4 velocity: 0
timestamp 52309000 us: [95 32 00] channel 6: note On D3 velocity: 0
timestamp 52310000 us: [95 2E 00] channel 6: note On A#2 velocity: 0
timestamp 52330000 us: [94 3F 6C] channel 5: note On D#4 velocity: 108
timestamp 52332000 us: [94 4B 61] channel 5: note On D#5 velocity: 97
timestamp 52368000 us: [96 35 00] channel 7: note On F3 velocity: 0
timestamp 52377000 us: [96 3A 00] channel 7: note On A#3 velocity: 0
timestamp 52387000 us: [96 3E 00] channel 7: note On D4 velocity: 0
timestamp 52421000 us: [94 4B 00] channel 5: note On D#5 velocity: 0
timestamp 52422000 us: [94 3F 00] channel 5: note On D#4 velocity: 0
timestamp 52485000 us: [94 3C 67] channel 5: note On C4 velocity: 103
timestamp 52486000 us: [94 48 5C] channel 5: note On C5 velocity: 92
timestamp 52504000 us: [95 30 30] channel 6: note On C3 velocity: 48
timestamp 52505000 us: [96 35 42] channel 7: note On F3 velocity: 66
timestamp 52507000 us: [99 2A 26] channel 10: note On F#2 velocity: 38
timestamp 52512000 us: [99 2A 00] channel 10: note On F#2 velocity: 0
timestamp 52534000 us: [92 35 42] channel 3: note On F3 velocity: 66
timestamp 52535000 us: [92 39 43] channel 3: note On A3 velocity: 67
timestamp 52537000 us: [92 3C 46] channel 3: note On C4 velocity: 70
timestamp 52576000 us: [94 48 00] channel 5: note On C5 velocity: 0
timestamp 52577000 us: [94 3C 00] channel 5: note On C4 velocity: 0
timestamp 52602000 us: [95 30 00] channel 6: note On C3 velocity: 0
timestamp 52640000 us: [94 3F 6C] channel 5: note On D#4 velocity: 108
timestamp 52642000 us: [94 4B 61] channel 5: note On D#5 velocity: 97
timestamp 52653000 us: [96 35 00] channel 7: note On F3 velocity: 0
timestamp 52660000 us: [95 30 43] channel 6: note On C3 velocity: 67
timestamp 52661000 us: [96 35 4F] channel 7: note On F3 velocity: 79
timestamp 52663000 us: [99 23 6E] channel 10: note On B1 velocity: 110
timestamp 52664000 us: [99 2A 36] channel 10: note On F#2 velocity: 54
timestamp 52668000 us: [99 2A 00] channel 10: note On F#2 velocity: 0
timestamp 52669000 us: [99 23 00] channel 10: note On B1 velocity: 0
timestamp 52676000 us: [96 39 47] channel 7: note On A3 velocity: 71
timestamp 52693000 us: [96 3C 4E] channel 7: note On C4 velocity: 78
timestamp 52847000 us: [92 35 00] channel 3: note On F3 velocity: 0
timestamp 52886000 us: [94 4B 00] channel 5: note On D#5 velocity: 0
timestamp 52887000 us: [94 3F 00] channel 5: note On D#4 velocity: 0
timestamp 52911000 us: [92 39 00] channel 3: note On A3 velocity: 0
timestamp 52915000 us: [92 3C 00] channel 3: note On C4 velocity: 0
timestamp 52935000 us: [95 30 00] channel 6: note On C3 velocity: 0
timestamp 52950000 us: [94 41 66] channel 5: note On F4 velocity: 102
timestamp 52952000 us: [94 4D 5B] channel 5: note On F5 velocity: 91
timestamp 52956000 us: [96 3C 00] channel 7: note On C4 velocity: 0
timestamp 52956000 us: [96 39 00] channel 7: note On A3 velocity: 0
timestamp 52958000 us: [96 35 00] channel 7: note On F3 velocity: 0
timestamp 52969000 us: [95 30 33] channel 6: note On C3 velocity: 51
timestamp 52971000 us: [96 35 45] channel 7: note On F3 velocity: 69
timestamp 52972000 us: [99 2A 26] channel 10: note On F#2 velocity: 38
timestamp 52978000 us: [99 2A 00] channel 10: note On F#2 velocity: 0
timestamp 52988000 us: [92 35 47] channel 3: note On F3 velocity: 71
timestamp 53089000 us: [92 35 00] channel 3: note On F3 velocity: 0
timestamp 53119000 us: [95 30 00] channel 6: note On C3 velocity: 0
timestamp 53124000 us: [92 3A 56] channel 3: note On A#3 velocity: 86
timestamp 53125000 us: [92 3E 56] channel 3: note On D4 velocity: 86
timestamp 53127000 us: [95 2E 38] channel 6: note On A#2 velocity: 56
timestamp 53128000 us: [95 32 4C] channel 6: note On D3 velocity: 76
timestamp 53130000 us: [96 3A 5F] channel 7: note On A#3 velocity: 95
timestamp 53132000 us: [99 23 6E] channel 10: note On B1 velocity: 110
timestamp 53133000 us: [99 2A 4A] channel 10: note On F#2 velocity: 74
timestamp 53135000 us: [92 35 4F] channel 3: note On F3 velocity: 79
timestamp 53137000 us: [99 28 5D] channel 10: note On E2 velocity: 93
timestamp 53139000 us: [99 2A 00] channel 10: note On F#2 velocity: 0
timestamp 53141000 us: [99 23 00] channel 10: note On B1 velocity: 0
timestamp 53141000 us: [99 28 00] channel 10: note On E2 velocity: 0
timestamp 53148000 us: [96 3E 5C] channel 7: note On D4 velocity: 92
timestamp 53191000 us: [92 3E 00] channel 3: note On D4 velocity: 0
timestamp 53192000 us: [92 3A 00] channel 3: note On A#3 velocity: 0
timestamp 53193000 us: [92 35 00] channel 3: note On F3 velocity: 0
timestamp 53194000 us: [94 4D 00] channel 5: note On F5 velocity: 0
timestamp 53195000 us: [94 41 00] channel 5: note On F4 velocity: 0
timestamp 53269000 us: [95 32 00] channel 6: note On D3 velocity: 0
timestamp 53269000 us: [95 2E 00] channel 6: note On A#2 velocity: 0
timestamp 53298000 us: [96 35 00] channel 7: note On F3 velocity: 0
timestamp 53307000 us: [96 3A 00] channel 7: note On A#3 velocity: 0
timestamp 53317000 us: [96 3E 00] channel 7: note On D4 velocity: 0
timestamp 53415000 us: [94 3C 6C] channel 5: note On C4 velocity: 108
timestamp 53416000 us: [94 48 61] channel 5: note On C5 velocity: 97
timestamp 53434000 us: [95 30 2F] channel 6: note On C3 velocity: 47
timestamp 53436000 us: [96 35 42] channel 7: note On F3 velocity: 66
timestamp 53437000 us: [99 2A 26] channel 10: note On F#2 velocity: 38
timestamp 53443000 us: [99 2A 00] channel 10: note On F#2 velocity: 0
timestamp 53463000 us: [92 35 43] channel 3: note On F3 velocity: 67
timestamp 53464000 us: [92 39 43] channel 3: note On A3 velocity: 67
timestamp 53466000 us: [92 3C 46] channel 3: note On C4 velocity: 70
timestamp 53535000 us: [95 30 00] channel 6: note On C3 velocity: 0
timestamp 53584000 us: [96 35 00] channel 7: note On F3 velocity: 0
timestamp 53589000 us: [95 30 46] channel 6: note On C3 velocity: 70
timestamp 53591000 us: [96 35 4F] channel 7: note On F3 velocity: 79
timestamp 53592000 us: [99 23 6E] channel 10: note On B1 velocity: 110
timestamp 53594000 us: [99 2A 36] channel 10: note On F#2 velocity: 54
timestamp 53598000 us: [99 2A 00] channel 10: note On F#2 velocity: 0
timestamp 53599000 us: [99 23 00] channel 10: note On B1 velocity: 0
timestamp 53604000 us: [96 39 47] channel 7: note On A3 velocity: 71
timestamp 53623000 us: [96 3C 4E] channel 7: note On C4 velocity: 78
timestamp 53812000 us: [92 35 00] channel 3: note On F3 velocity: 0
timestamp 53835000 us: [92 39 00] channel 3: note On A3 velocity: 0
timestamp 53851000 us: [95 30 00] channel 6: note On C3 velocity: 0
timestamp 53875000 us: [92 3C 00] channel 3: note On C4 velocity: 0
timestamp 53884000 us: [96 3C 00] channel 7: note On C4 velocity: 0
timestamp 53885000 us: [96 39 00] channel 7: note On A3 velocity: 0
timestamp 53889000 us: [96 35 00] channel 7: note On F3 velocity: 0
timestamp 53899000 us: [95 30 31] channel 6: note On C3 velocity: 49
timestamp 53901000 us: [96 35 42] channel 7: note On F3 velocity: 66
timestamp 53902000 us: [99 2A 39] channel 10: note On F#2 velocity: 57
timestamp 53903000 us: [99 28 5D] channel 10: note On E2 velocity: 93
timestamp 53908000 us: [99 2A 00] channel 10: note On F#2 velocity: 0
timestamp 53909000 us: [99 28 00] channel 10: note On E2 velocity: 0
timestamp 53919000 us: [92 35 46] channel 3: note On F3 velocity: 70
timestamp 54000000 us: [92 35 00] channel 3: note On F3 velocity: 0
timestamp 54034000 us: [95 30 00] channel 6: note On C3 velocity: 0
timestamp 54054000 us: [95 2E 38] channel 6: note On A#2 velocity: 56
timestamp 54056000 us: [95 32 4C] channel 6: note On D3 velocity: 76
timestamp 54057000 us: [96 3A 5F] channel 7: note On A#3 velocity: 95
timestamp 54059000 us: [99 23 6E] channel 10: note On B1 velocity: 110
timestamp 54060000 us: [99 2A 3F] channel 10: note On F#2 velocity: 63
timestamp 54062000 us: [92 3A 57] channel 3: note On A#3 velocity: 87
timestamp 54063000 us: [92 3E 57] channel 3: note On D4 velocity: 87
timestamp 54065000 us: [99 28 4D] channel 10: note On E2 velocity: 77
timestamp 54069000 us: [92 35 4F] channel 3: note On F3 velocity: 79
timestamp 54070000 us: [99 2A 00] channel 10: note On F#2 velocity: 0
timestamp 54071000 us: [99 23 00] channel 10: note On B1 velocity: 0
timestamp 54072000 us: [99 28 00] channel 10: note On E2 velocity: 0
timestamp 54079000 us: [96 3E 5C] channel 7: note On D4 velocity: 92
timestamp 54122000 us: [92 3E 00] channel 3: note On D4 velocity: 0
timestamp 54123000 us: [92 3A 00] channel 3: note On A#3 velocity: 0
timestamp 54126000 us: [92 35 00] channel 3: note On F3 velocity: 0
timestamp 54165000 us: [95 32 00] channel 6: note On D3 velocity: 0
timestamp 54166000 us: [95 2E 00] channel 6: note On A#2 velocity: 0
timestamp 54228000 us: [96 35 00] channel 7: note On F3 velocity: 0
timestamp 54237000 us: [96 3A 00] channel 7: note On A#3 velocity: 0
timestamp 54247000 us: [96 3E 00] channel 7: note On D4 velocity: 0
timestamp 54284000 us: [94 48 00] channel 5: note On C5 velocity: 0
timestamp 54284000 us: [94 3C 00] channel 5: note On C4 velocity: 0
timestamp 54364000 us: [95 30 2E] channel 6: note On C3 velocity: 46
timestamp 54366000 us: [96 35 42] channel 7: note On F3 velocity: 66
timestamp 54367000 us: [99 28 4D] channel 10: note On E2 velocity: 77
timestamp 54373000 us: [99 28 00] channel 10: note On E2 velocity: 0
timestamp 54388000 us: [91 1D 00] channel 2: note On F1 velocity: 0
timestamp 54393000 us: [92 35 41] channel 3: note On F3 velocity: 65
timestamp 54394000 us: [92 39 46] channel 3: note On A3 velocity: 70
timestamp 54396000 us: [92 3C 48] channel 3: note On C4 velocity: 72
timestamp 54509000 us: [95 30 00] channel 6: note On C3 velocity: 0
timestamp 54514000 us: [92 35 00] channel 3: note On F3 velocity: 0
timestamp 54515000 us: [96 35 00] channel 7: note On F3 velocity: 0
timestamp 54520000 us: [91 22 66] channel 2: note On A#1 velocity: 102
timestamp 54521000 us: [92 35 4C] channel 3: note On F3 velocity: 76
timestamp 54522000 us: [92 3A 4F] channel 3: note On A#3 velocity: 79
timestamp 54524000 us: [92 3E 48] channel 3: note On D4 velocity: 72
timestamp 54526000 us: [93 4A 6E] channel 4: note On D5 velocity: 110
timestamp 54527000 us: [95 29 35] channel 6: note On F2 velocity: 53
timestamp 54529000 us: [96 35 52] channel 7: note On F3 velocity: 82
timestamp 54531000 us: [99 23 71] channel 10: note On B1 velocity: 113
timestamp 54532000 us: [99 31 45] channel 10: note On C#3 velocity: 69
timestamp 54536000 us: [95 2E 45] channel 6: note On A#2 velocity: 69
timestamp 54537000 us: [95 32 3A] channel 6: note On D3 velocity: 58
timestamp 54538000 us: [99 31 00] channel 10: note On C#3 velocity: 0
timestamp 54539000 us: [99 23 00] channel 10: note On B1 velocity: 0
timestamp 54540000 us: [96 3A 4A] channel 7: note On A#3 velocity: 74
timestamp 54553000 us: [96 3E 51] channel 7: note On D4 velocity: 81
timestamp 54713000 us: [92 35 00] channel 3: note On F3 velocity: 0
timestamp 54732000 us: [92 39 00] channel 3: note On A3 velocity: 0
timestamp 54732000 us: [92 3C 00] channel 3: note On C4 velocity: 0
timestamp 54781000 us: [92 3E 00] channel 3: note On D4 velocity: 0
timestamp 54782000 us: [93 4A 00] channel 4: note On D5 velocity: 0
timestamp 54815000 us: [96 3E 00] channel 7: note On D4 velocity: 0
timestamp 54815000 us: [96 3A 00] channel 7: note On A#3 velocity: 0
timestamp 54819000 us: [96 35 00] channel 7: note On F3 velocity: 0
timestamp 54830000 us: [92 35 5A] channel 3: note On F3 velocity: 90
timestamp 54831000 us: [93 4A 6A] channel 4: note On D5 velocity: 106
timestamp 54833000 us: [96 35 48] channel 7: note On F3 velocity: 72
timestamp 54834000 us: [99 2A 29] channel 10: note On F#2 velocity: 41
timestamp 54839000 us: [99 2A 00] channel 10: note On F#2 velocity: 0
timestamp 54867000 us: [92 3A 00] channel 3: note On A#3 velocity: 0
timestamp 54950000 us: [93 4A 00] channel 4: note On D5 velocity: 0
timestamp 54984000 us: [92 3A 56] channel 3: note On A#3 velocity: 86
timestamp 54986000 us: [92 3E 56] channel 3: note On D4 velocity: 86
timestamp 54988000 us: [93 4A 6C] channel 4: note On D5 velocity: 108
timestamp 54989000 us: [96 3A 62] channel 7: note On A#3 velocity: 98
timestamp 54991000 us: [99 23 71] channel 10: note On B1 velocity: 113
timestamp 54992000 us: [99 2A 4D] channel 10: note On F#2 velocity: 77
timestamp 54993000 us: [99 28 60] channel 10: note On E2 velocity: 96
timestamp 54999000 us: [99 2A 00] channel 10: note On F#2 velocity: 0
timestamp 54999000 us: [99 23 00] channel 10: note On B1 velocity: 0
timestamp 55001000 us: [99 28 00] channel 10: note On E2 velocity: 0
timestamp 55009000 us: [96 3E 5F] channel 7: note On D4 velocity: 95
timestamp 55115000 us: [95 29 00] channel 6: note On F2 velocity: 0
timestamp 55143000 us: [95 32 00] channel 6: note On D3 velocity: 0
timestamp 55144000 us: [95 2E 00] channel 6: note On A#2 velocity: 0
timestamp 55158000 us: [96 35 00] channel 7: note On F3 velocity: 0
timestamp 55168000 us: [96 3A 00] channel 7: note On A#3 velocity: 0
timestamp 55178000 us: [92 3E 00] channel 3: note On D4 velocity: 0
timestamp 55179000 us: [96 3E 00] channel 7: note On D4 velocity: 0
timestamp 55197000 us: [92 35 00] channel 3: note On F3 velocity: 0
timestamp 55204000 us: [93 4A 00] channel 4: note On D5 velocity: 0
timestamp 55217000 us: [92 3A 00] channel 3: note On A#3 velocity: 0
timestamp 55294000 us: [91 22 00] channel 2: note On A#1 velocity: 0
timestamp 55295000 us: [92 35 53] channel 3: note On F3 velocity: 83
timestamp 55296000 us: [92 39 53] channel 3: note On A3 velocity: 83
timestamp 55298000 us: [92 3C 48] channel 3: note On C4 velocity: 72
timestamp 55300000 us: [93 4A 60] channel 4: note On D5 velocity: 96
timestamp 55302000 us: [95 29 3F] channel 6: note On F2 velocity: 63
timestamp 55303000 us: [96 35 52] channel 7: note On F3 velocity: 82
timestamp 55304000 us: [99 2A 29] channel 10: note On F#2 velocity: 41
timestamp 55307000 us: [95 30 4C] channel 6: note On C3 velocity: 76
timestamp 55308000 us: [99 2A 00] channel 10: note On F#2 velocity: 0
timestamp 55310000 us: [96 39 4A] channel 7: note On A3 velocity: 74
timestamp 55323000 us: [91 29 66] channel 2: note On F2 velocity: 102
timestamp 55329000 us: [96 3C 51] channel 7: note On C4 velocity: 81
timestamp 55444000 us: [93 4A 00] channel 4: note On D5 velocity: 0
timestamp 55449000 us: [93 48 6E] channel 4: note On C5 velocity: 110
timestamp 55451000 us: [99 23 71] channel 10: note On B1 velocity: 113
timestamp 55452000 us: [99 2A 39] channel 10: note On F#2 velocity: 57
timestamp 55459000 us: [99 2A 00] channel 10: note On F#2 velocity: 0
timestamp 55459000 us: [99 23 00] channel 10: note On B1 velocity: 0
timestamp 55643000 us: [95 29 00] channel 6: note On F2 velocity: 0
timestamp 55683000 us: [93 48 00] channel 4: note On C5 velocity: 0
timestamp 55686000 us: [95 30 00] channel 6: note On C3 velocity: 0
timestamp 55745000 us: [96 3C 00] channel 7: note On C4 velocity: 0
timestamp 55745000 us: [96 39 00] channel 7: note On A3 velocity: 0
timestamp 55749000 us: [96 35 00] channel 7: note On F3 velocity: 0
timestamp 55760000 us: [93 41 69] channel 4: note On F4 velocity: 105
timestamp 55762000 us: [95 29 3A] channel 6: note On F2 velocity: 58
timestamp 55763000 us: [96 35 45] channel 7: note On F3 velocity: 69
timestamp 55764000 us: [99 2A 29] channel 10: note On F#2 velocity: 41
timestamp 55769000 us: [99 2A 00] channel 10: note On F#2 velocity: 0
timestamp 55895000 us: [93 41 00] channel 4: note On F4 velocity: 0
timestamp 55909000 us: [95 29 00] channel 6: note On F2 velocity: 0
timestamp 55915000 us: [95 29 3F] channel 6: note On F2 velocity: 63
timestamp 55916000 us: [96 39 62] channel 7: note On A3 velocity: 98
timestamp 55918000 us: [99 23 71] channel 10: note On B1 velocity: 113
timestamp 55919000 us: [99 2A 4D] channel 10: note On F#2 velocity: 77
timestamp 55921000 us: [99 28 60] channel 10: note On E2 velocity: 96
timestamp 55924000 us: [95 30 4C] channel 6: note On C3 velocity: 76
timestamp 55926000 us: [99 2A 00] channel 10: note On F#2 velocity: 0
timestamp 55927000 us: [99 23 00] channel 10: note On B1 velocity: 0
timestamp 55928000 us: [99 28 00] channel 10: note On E2 velocity: 0
timestamp 55939000 us: [96 3C 5F] channel 7: note On C4 velocity: 95
timestamp 56152000 us: [95 30 00] channel 6: note On C3 velocity: 0
timestamp 56153000 us: [95 29 00] channel 6: note On F2 velocity: 0
timestamp 56171000 us: [92 35 00] channel 3: note On F3 velocity: 0
timestamp 56200000 us: [92 39 00] channel 3: note On A3 velocity: 0
timestamp 56205000 us: [96 3C 00] channel 7: note On C4 velocity: 0
timestamp 56209000 us: [96 39 00] channel 7: note On A3 velocity: 0
timestamp 56210000 us: [96 35 00] channel 7: note On F3 velocity: 0
timestamp 56225000 us: [92 35 48] channel 3: note On F3 velocity: 72
timestamp 56226000 us: [93 41 69] channel 4: note On F4 velocity: 105
timestamp 56228000 us: [96 35 45] channel 7: note On F3 velocity: 69
timestamp 56229000 us: [99 2A 29] channel 10: note On F#2 velocity: 41
timestamp 56234000 us: [92 3C 00] channel 3: note On C4 velocity: 0
timestamp 56235000 us: [99 2A 00] channel 10: note On F#2 velocity: 0
timestamp 56345000 us: [93 41 00] channel 4: note On F4 velocity: 0
timestamp 56350000 us: [91 29 00] channel 2: note On F2 velocity: 0
timestamp 56360000 us: [92 35 00] channel 3: note On F3 velocity: 0
timestamp 56374000 us: [96 35 00] channel 7: note On F3 velocity: 0
timestamp 56380000 us: [91 22 66] channel 2: note On A#1 velocity: 102
timestamp 56382000 us: [92 35 52] channel 3: note On F3 velocity: 82
timestamp 56382000 us: [92 3A 5A] channel 3: note On A#3 velocity: 90
timestamp 56384000 us: [92 3E 5A] channel 3: note On D4 velocity: 90
timestamp 56386000 us: [93 4A 70] channel 4: note On D5 velocity: 112
timestamp 56387000 us: [95 29 3E] channel 6: note On F2 velocity: 62
timestamp 56389000 us: [96 35 52] channel 7: note On F3 velocity: 82
timestamp 56391000 us: [99 23 71] channel 10: note On B1 velocity: 113
timestamp 56392000 us: [99 2A 39] channel 10: note On F#2 velocity: 57
timestamp 56398000 us: [95 2E 4A] channel 6: note On A#2 velocity: 74
timestamp 56400000 us: [95 32 40] channel 6: note On D3 velocity: 64
timestamp 56401000 us: [99 2A 00] channel 10: note On F#2 velocity: 0
timestamp 56402000 us: [99 23 00] channel 10: note On B1 velocity: 0
timestamp 56404000 us: [96 3A 4A] channel 7: note On A#3 velocity: 74
timestamp 56414000 us: [96 3E 51] channel 7: note On D4 velocity: 81
timestamp 56588000 us: [93 4A 00] channel 4: note On D5 velocity: 0
timestamp 56670000 us: [92 3A 00] channel 3: note On A#3 velocity: 0
timestamp 56670000 us: [92 35 00] channel 3: note On F3 velocity: 0
timestamp 56675000 us: [92 3E 00] channel 3: note On D4 velocity: 0
timestamp 56676000 us: [96 3E 00] channel 7: note On D4 velocity: 0
timestamp 56676000 us: [96 3A 00] channel 7: note On A#3 velocity: 0
timestamp 56679000 us: [96 35 00] channel 7: note On F3 velocity: 0
timestamp 56690000 us: [92 35 3A] channel 3: note On F3 velocity: 58
timestamp 56691000 us: [92 3A 45] channel 3: note On A#3 velocity: 69
timestamp 56693000 us: [93 4A 6A] channel 4: note On D5 velocity: 106
timestamp 56694000 us: [96 35 48] channel 7: note On F3 velocity: 72
timestamp 56696000 us: [99 2A 29] channel 10: note On F#2 velocity: 41
timestamp 56699000 us: [99 2A 00] channel 10: note On F#2 velocity: 0
timestamp 56806000 us: [93 4A 00] channel 4: note On D5 velocity: 0
timestamp 56839000 us: [92 35 00] channel 3: note On F3 velocity: 0
timestamp 56845000 us: [92 35 36] channel 3: note On F3 velocity: 54
timestamp 56846000 us: [92 3E 5A] channel 3: note On D4 velocity: 90
timestamp 56848000 us: [93 4A 6C] channel 4: note On D5 velocity: 108
timestamp 56849000 us: [96 3A 62] channel 7: note On A#3 velocity: 98
timestamp 56851000 us: [99 23 71] channel 10: note On B1 velocity: 113
timestamp 56852000 us: [99 2A 4D] channel 10: note On F#2 velocity: 77
timestamp 56854000 us: [99 28 60] channel 10: note On E2 velocity: 96
timestamp 56857000 us: [99 2A 00] channel 10: note On F#2 velocity: 0
timestamp 56857000 us: [99 23 00] channel 10: note On B1 velocity: 0
timestamp 56858000 us: [99 28 00] channel 10: note On E2 velocity: 0
timestamp 56870000 us: [96 3E 5F] channel 7: note On D4 velocity: 95
timestamp 56932000 us: [95 29 00] channel 6: note On F2 velocity: 0
timestamp 56994000 us: [95 32 00] channel 6: note On D3 velocity: 0
timestamp 56995000 us: [95 2E 00] channel 6: note On A#2 velocity: 0
timestamp 57019000 us: [96 35 00] channel 7: note On F3 velocity: 0
timestamp 57028000 us: [96 3A 00] channel 7: note On A#3 velocity: 0
timestamp 57034000 us: [93 4A 00] channel 4: note On D5 velocity: 0
timestamp 57038000 us: [96 3E 00] channel 7: note On D4 velocity: 0
timestamp 57077000 us: [92 3A 00] channel 3: note On A#3 velocity: 0
timestamp 57125000 us: [92 35 00] channel 3: note On F3 velocity: 0
timestamp 57130000 us: [92 3E 00] channel 3: note On D4 velocity: 0
timestamp 57154000 us: [91 22 00] channel 2: note On A#1 velocity: 0
timestamp 57156000 us: [92 35 4C] channel 3: note On F3 velocity: 76
timestamp 57157000 us: [92 39 57] channel 3: note On A3 velocity: 87
timestamp 57159000 us: [92 3C 5D] channel 3: note On C4 velocity: 93
timestamp 57161000 us: [93 4A 6A] channel 4: note On D5 velocity: 106
timestamp 57162000 us: [95 29 3C] channel 6: note On F2 velocity: 60
timestamp 57164000 us: [96 35 52] channel 7: note On F3 velocity: 82
timestamp 57166000 us: [99 2A 29] channel 10: note On F#2 velocity: 41
timestamp 57169000 us: [95 30 4A] channel 6: note On C3 velocity: 74
timestamp 57170000 us: [99 2A 00] channel 10: note On F#2 velocity: 0
timestamp 57172000 us: [96 39 4A] channel 7: note On A3 velocity: 74
timestamp 57184000 us: [91 29 66] channel 2: note On F2 velocity: 102
timestamp 57189000 us: [96 3C 51] channel 7: note On C4 velocity: 81
timestamp 57285000 us: [93 4A 00] channel 4: note On D5 velocity: 0
timestamp 57310000 us: [93 48 71] channel 4: note On C5 velocity: 113
timestamp 57312000 us: [99 23 71] channel 10: note On B1 velocity: 113
timestamp 57314000 us: [99 2A 39] channel 10: note On F#2 velocity: 57
timestamp 57319000 us: [99 2A 00] channel 10: note On F#2 velocity: 0
timestamp 57320000 us: [99 23 00] channel 10: note On B1 velocity: 0
timestamp 57557000 us: [93 48 00] channel 4: note On C5 velocity: 0
timestamp 57566000 us: [95 29 00] channel 6: note On F2 velocity: 0
timestamp 57605000 us: [96 3C 00] channel 7: note On C4 velocity: 0
timestamp 57606000 us: [96 39 00] channel 7: note On A3 velocity: 0
timestamp 57609000 us: [96 35 00] channel 7: note On F3 velocity: 0
timestamp 57615000 us: [95 30 00] channel 6: note On C3 velocity: 0
timestamp 57620000 us: [95 29 38] channel 6: note On F2 velocity: 56
timestamp 57622000 us: [96 35 45] channel 7: note On F3 velocity: 69
timestamp 57623000 us: [99 2A 29] channel 10: note On F#2 velocity: 41
timestamp 57629000 us: [99 2A 00] channel 10: note On F#2 velocity: 0
timestamp 57770000 us: [95 29 00] channel 6: note On F2 velocity: 0
timestamp 57775000 us: [95 29 3F] channel 6: note On F2 velocity: 63
timestamp 57777000 us: [96 39 62] channel 7: note On A3 velocity: 98
timestamp 57778000 us: [99 23 71] channel 10: note On B1 velocity: 113
timestamp 57779000 us: [99 2A 4D] channel 10: note On F#2 velocity: 77
timestamp 57781000 us: [99 28 60] channel 10: note On E2 velocity: 96
timestamp 57785000 us: [95 30 4C] channel 6: note On C3 velocity: 76
timestamp 57786000 us: [99 2A 00] channel 10: note On F#2 velocity: 0
timestamp 57787000 us: [99 23 00] channel 10: note On B1 velocity: 0
timestamp 57787000 us: [99 28 00] channel 10: note On E2 velocity: 0
timestamp 57799000 us: [96 3C 5F] channel 7: note On C4 velocity: 95
timestamp 58036000 us: [92 35 00] channel 3: note On F3 velocity: 0
timestamp 58041000 us: [92 39 00] channel 3: note On A3 velocity: 0
timestamp 58042000 us: [92 3C 00] channel 3: note On C4 velocity: 0
timestamp 58065000 us: [96 3C 00] channel 7: note On C4 velocity: 0
timestamp 58070000 us: [96 39 00] channel 7: note On A3 velocity: 0
timestamp 58070000 us: [96 35 00] channel 7: note On F3 velocity: 0
timestamp 58072000 us: [95 30 00] channel 6: note On C3 velocity: 0
timestamp 58072000 us: [95 29 00] channel 6: note On F2 velocity: 0
timestamp 58085000 us: [92 35 3A] channel 3: note On F3 velocity: 58
timestamp 58087000 us: [93 41 59] channel 4: note On F4 velocity: 89
timestamp 58088000 us: [95 29 33] channel 6: note On F2 velocity: 51
timestamp 58090000 us: [96 35 45] channel 7: note On F3 velocity: 69
timestamp 58091000 us: [99 2A 29] channel 10: note On F#2 velocity: 41
timestamp 58094000 us: [99 2A 00] channel 10: note On F#2 velocity: 0
timestamp 58158000 us: [95 29 00] channel 6: note On F2 velocity: 0
timestamp 58191000 us: [93 41 00] channel 4: note On F4 velocity: 0
timestamp 58211000 us: [91 29 00] channel 2: note On F2 velocity: 0
timestamp 58221000 us: [E4 00 0C] channel 5: pitch wheel change 1536
timestamp 58226000 us: [94 4D 72] channel 5: note On F5 velocity: 114
timestamp 58228000 us: [94 59 6C] channel 5: note On F6 velocity: 108
timestamp 58235000 us: [92 35 00] channel 3: note On F3 velocity: 0
timestamp 58236000 us: [96 35 00] channel 7: note On F3 velocity: 0
timestamp 58240000 us: [91 22 66] channel 2: note On A#1 velocity: 102
timestamp 58242000 us: [92 35 4C] channel 3: note On F3 velocity: 76
timestamp 58243000 us: [92 3A 4F] channel 3: note On A#3 velocity: 79
timestamp 58244000 us: [92 3E 48] channel 3: note On D4 velocity: 72
timestamp 58247000 us: [93 4A 69] channel 4: note On D5 velocity: 105
timestamp 58248000 us: [95 29 3E] channel 6: note On F2 velocity: 62
timestamp 58249000 us: [96 35 52] channel 7: note On F3 velocity: 82
timestamp 58251000 us: [99 23 71] channel 10: note On B1 velocity: 113
timestamp 58252000 us: [99 2A 39] channel 10: note On F#2 velocity: 57
timestamp 58256000 us: [95 2E 47] channel 6: note On A#2 velocity: 71
timestamp 58257000 us: [95 32 3C] channel 6: note On D3 velocity: 60
timestamp 58259000 us: [99 2A 00] channel 10: note On F#2 velocity: 0
timestamp 58259000 us: [99 23 00] channel 10: note On B1 velocity: 0
timestamp 58261000 us: [96 3A 4A] channel 7: note On A#3 velocity: 74
timestamp 58274000 us: [96 3E 51] channel 7: note On D4 velocity: 81
timestamp 58380000 us: [E4 00 16] channel 5: pitch wheel change 2816
timestamp 58400000 us: [E4 00 24] channel 5: pitch wheel change 4608
timestamp 58424000 us: [E4 00 30] channel 5: pitch wheel change 6144
timestamp 58434000 us: [92 35 00] channel 3: note On F3 velocity: 0
timestamp 58444000 us: [E4 00 37] channel 5: pitch wheel change 7040
timestamp 58458000 us: [E4 00 40] channel 5: pitch wheel change 8192
timestamp 58487000 us: [93 4A 00] channel 4: note On D5 velocity: 0
timestamp 58502000 us: [92 3E 00] channel 3: note On D4 velocity: 0
timestamp 58535000 us: [96 3E 00] channel 7: note On D4 velocity: 0
timestamp 58536000 us: [96 3A 00] channel 7: note On A#3 velocity: 0
timestamp 58540000 us: [96 35 00] channel 7: note On F3 velocity: 0
timestamp 58551000 us: [92 35 5A] channel 3: note On F3 velocity: 90
timestamp 58552000 us: [93 4A 63] channel 4: note On D5 velocity: 99
timestamp 58554000 us: [96 35 48] channel 7: note On F3 velocity: 72
timestamp 58555000 us: [99 2A 29] channel 10: note On F#2 velocity: 41
timestamp 58560000 us: [99 2A 00] channel 10: note On F#2 velocity: 0
timestamp 58588000 us: [92 3A 00] channel 3: note On A#3 velocity: 0
timestamp 58676000 us: [93 4A 00] channel 4: note On D5 velocity: 0
timestamp 58705000 us: [92 3A 56] channel 3: note On A#3 velocity: 86
timestamp 58707000 us: [92 3E 56] channel 3: note On D4 velocity: 86
timestamp 58709000 us: [93 4A 6E] channel 4: note On D5 velocity: 110
timestamp 58710000 us: [96 3A 62] channel 7: note On A#3 velocity: 98
timestamp 58712000 us: [99 23 71] channel 10: note On B1 velocity: 113
timestamp 58713000 us: [99 2A 4D] channel 10: note On F#2 velocity: 77
timestamp 58714000 us: [99 28 60] channel 10: note On E2 velocity: 96
timestamp 58718000 us: [E4 00 3D] channel 5: pitch wheel change 7808
timestamp 58720000 us: [99 2A 00] channel 10: note On F#2 velocity: 0
timestamp 58721000 us: [99 23 00] channel 10: note On B1 velocity: 0
timestamp 58721000 us: [99 28 00] channel 10: note On E2 velocity: 0
timestamp 58730000 us: [96 3E 5F] channel 7: note On D4 velocity: 95
timestamp 58783000 us: [95 29 00] channel 6: note On F2 velocity: 0
timestamp 58788000 us: [E4 00 3B] channel 5: pitch wheel change 7552
timestamp 58870000 us: [95 32 00] channel 6: note On D3 velocity: 0
timestamp 58870000 us: [95 2E 00] channel 6: note On A#2 velocity: 0
timestamp 58879000 us: [96 35 00] channel 7: note On F3 velocity: 0
timestamp 58889000 us: [96 3A 00] channel 7: note On A#3 velocity: 0
timestamp 58899000 us: [92 3E 00] channel 3: note On D4 velocity: 0
timestamp 58899000 us: [96 3E 00] channel 7: note On D4 velocity: 0
timestamp 58905000 us: [E4 00 38] channel 5: pitch wheel change 7168
timestamp 58918000 us: [92 35 00] channel 3: note On F3 velocity: 0
timestamp 58937000 us: [92 3A 00] channel 3: note On A#3 velocity: 0
timestamp 58943000 us: [93 4A 00] channel 4: note On D5 velocity: 0
timestamp 58996000 us: [E4 00 40] channel 5: pitch wheel change 8192
timestamp 59015000 us: [91 22 00] channel 2: note On A#1 velocity: 0
timestamp 59016000 us: [92 35 53] channel 3: note On F3 velocity: 83
timestamp 59017000 us: [92 39 53] channel 3: note On A3 velocity: 83
timestamp 59019000 us: [92 3C 48] channel 3: note On C4 velocity: 72
timestamp 59021000 us: [93 4A 65] channel 4: note On D5 velocity: 101
timestamp 59023000 us: [95 29 3C] channel 6: note On F2 velocity: 60
timestamp 59024000 us: [96 35 52] channel 7: note On F3 velocity: 82
timestamp 59025000 us: [99 2A 29] channel 10: note On F#2 velocity: 41
timestamp 59028000 us: [95 30 48] channel 6: note On C3 velocity: 72
timestamp 59029000 us: [99 2A 00] channel 10: note On F#2 velocity: 0
timestamp 59031000 us: [96 39 4A] channel 7: note On A3 velocity: 74
timestamp 59044000 us: [91 29 66] channel 2: note On F2 velocity: 102
timestamp 59049000 us: [96 3C 51] channel 7: note On C4 velocity: 81
timestamp 59165000 us: [93 4A 00] channel 4: note On D5 velocity: 0
timestamp 59170000 us: [93 48 6E] channel 4: note On C5 velocity: 110
timestamp 59172000 us: [99 23 71] channel 10: note On B1 velocity: 113
timestamp 59173000 us: [99 2A 39] channel 10: note On F#2 velocity: 57
timestamp 59180000 us: [99 2A 00] channel 10: note On F#2 velocity: 0
timestamp 59180000 us: [99 23 00] channel 10: note On B1 velocity: 0
timestamp 59413000 us: [93 48 00] channel 4: note On C5 velocity: 0
timestamp 59446000 us: [95 29 00] channel 6: note On F2 velocity: 0
timestamp 59466000 us: [96 3C 00] channel 7: note On C4 velocity: 0
timestamp 59466000 us: [96 39 00] channel 7: note On A3 velocity: 0
timestamp 59470000 us: [96 35 00] channel 7: note On F3 velocity: 0
timestamp 59475000 us: [95 30 00] channel 6: note On C3 velocity: 0
timestamp 59481000 us: [93 41 6A] channel 4: note On F4 velocity: 106
timestamp 59482000 us: [95 29 32] channel 6: note On F2 velocity: 50
timestamp 59484000 us: [96 35 45] channel 7: note On F3 velocity: 69
timestamp 59485000 us: [99 2A 29] channel 10: note On F#2 velocity: 41
timestamp 59490000 us: [99 2A 00] channel 10: note On F#2 velocity: 0
timestamp 59630000 us: [95 29 00] channel 6: note On F2 velocity: 0
timestamp 59635000 us: [95 29 3B] channel 6: note On F2 velocity: 59
timestamp 59637000 us: [96 39 62] channel 7: note On A3 velocity: 98
timestamp 59639000 us: [99 23 71] channel 10: note On B1 velocity: 113
timestamp 59640000 us: [99 2A 4D] channel 10: note On F#2 velocity: 77
timestamp 59641000 us: [99 28 60] channel 10: note On E2 velocity: 96
timestamp 59645000 us: [95 30 4A] channel 6: note On C3 velocity: 74
timestamp 59647000 us: [99 2A 00] channel 10: note On F#2 velocity: 0
timestamp 59647000 us: [99 23 00] channel 10: note On B1 velocity: 0
timestamp 59648000 us: [99 28 00] channel 10: note On E2 velocity: 0
timestamp 59660000 us: [96 3C 5F] channel 7: note On C4 velocity: 95
timestamp 59737000 us: [93 41 00] channel 4: note On F4 velocity: 0
timestamp 59893000 us: [92 35 00] channel 3: note On F3 velocity: 0
timestamp 59921000 us: [92 39 00] channel 3: note On A3 velocity: 0
timestamp 59926000 us: [95 30 00] channel 6: note On C3 velocity: 0
timestamp 59927000 us: [95 29 00] channel 6: note On F2 velocity: 0
timestamp 59928000 us: [96 3C 00] channel 7: note On C4 velocity: 0
timestamp 59930000 us: [96 39 00] channel 7: note On A3 velocity: 0
timestamp 59931000 us: [96 35 00] channel 7: note On F3 velocity: 0
timestamp 59946000 us: [92 35 48] channel 3: note On F3 velocity: 72
timestamp 59947000 us: [93 41 5C] channel 4: note On F4 velocity: 92
timestamp 59949000 us: [96 35 45] channel 7: note On F3 velocity: 69
timestamp 59950000 us: [99 2A 29] channel 10: note On F#2 velocity: 41
timestamp 59955000 us: [92 3C 00] channel 3: note On C4 velocity: 0
timestamp 59956000 us: [99 2A 00] channel 10: note On F#2 velocity: 0
timestamp 60043000 us: [93 41 00] channel 4: note On F4 velocity: 0
timestamp 60071000 us: [91 29 00] channel 2: note On F2 velocity: 0
timestamp 60081000 us: [92 35 00] channel 3: note On F3 velocity: 0
timestamp 60095000 us: [96 35 00] channel 7: note On F3 velocity: 0
timestamp 60101000 us: [91 24 66] channel 2: note On C2 velocity: 102
timestamp 60103000 us: [93 48 6C] channel 4: note On C5 velocity: 108
timestamp 60104000 us: [95 2B 37] channel 6: note On G2 velocity: 55
timestamp 60105000 us: [96 34 52] channel 7: note On E3 velocity: 82
timestamp 60107000 us: [99 23 71] channel 10: note On B1 velocity: 113
timestamp 60108000 us: [99 2A 39] channel 10: note On F#2 velocity: 57
timestamp 60115000 us: [95 30 43] channel 6: note On C3 velocity: 67
timestamp 60116000 us: [99 2A 00] channel 10: note On F#2 velocity: 0
timestamp 60117000 us: [99 23 00] channel 10: note On B1 velocity: 0
timestamp 60119000 us: [96 37 4A] channel 7: note On G3 velocity: 74
timestamp 60130000 us: [92 34 4B] channel 3: note On E3 velocity: 75
timestamp 60131000 us: [92 37 4E] channel 3: note On G3 velocity: 78
timestamp 60133000 us: [92 3C 51] channel 3: note On C4 velocity: 81
timestamp 60136000 us: [96 3C 51] channel 7: note On C4 velocity: 81
timestamp 60335000 us: [93 48 00] channel 4: note On C5 velocity: 0
timestamp 60391000 us: [95 30 00] channel 6: note On C3 velocity: 0
timestamp 60391000 us: [95 2B 00] channel 6: note On G2 velocity: 0
timestamp 60396000 us: [96 3C 00] channel 7: note On C4 velocity: 0
timestamp 60397000 us: [96 37 00] channel 7: note On G3 velocity: 0
timestamp 60400000 us: [96 34 00] channel 7: note On E3 velocity: 0
timestamp 60411000 us: [93 48 63] channel 4: note On C5 velocity: 99
timestamp 60413000 us: [95 2B 2B] channel 6: note On G2 velocity: 43
timestamp 60414000 us: [96 34 48] channel 7: note On E3 velocity: 72
timestamp 60415000 us: [99 2A 29] channel 10: note On F#2 velocity: 41
timestamp 60418000 us: [92 3C 00] channel 3: note On C4 velocity: 0
timestamp 60419000 us: [92 37 00] channel 3: note On G3 velocity: 0
timestamp 60419000 us: [92 34 00] channel 3: note On E3 velocity: 0
timestamp 60422000 us: [95 30 34] channel 6: note On C3 velocity: 52
timestamp 60423000 us: [99 2A 00] channel 10: note On F#2 velocity: 0
timestamp 60431000 us: [92 34 4A] channel 3: note On E3 velocity: 74
timestamp 60498000 us: [94 59 00] channel 5: note On F6 velocity: 0
timestamp 60498000 us: [94 4D 00] channel 5: note On F5 velocity: 0
timestamp 60513000 us: [95 30 00] channel 6: note On C3 velocity: 0
timestamp 60517000 us: [93 48 00] channel 4: note On C5 velocity: 0
timestamp 60522000 us: [95 2B 00] channel 6: note On G2 velocity: 0
timestamp 60556000 us: [92 34 00] channel 3: note On E3 velocity: 0
timestamp 60566000 us: [92 37 53] channel 3: note On G3 velocity: 83
timestamp 60567000 us: [92 3C 4D] channel 3: note On C4 velocity: 77
timestamp 60569000 us: [93 48 67] channel 4: note On C5 velocity: 103
timestamp 60570000 us: [95 2B 37] channel 6: note On G2 velocity: 55
timestamp 60572000 us: [96 37 54] channel 7: note On G3 velocity: 84
timestamp 60574000 us: [99 23 71] channel 10: note On B1 velocity: 113
timestamp 60575000 us: [99 2A 4D] channel 10: note On F#2 velocity: 77
timestamp 60577000 us: [92 34 49] channel 3: note On E3 velocity: 73
timestamp 60579000 us: [99 28 60] channel 10: note On E2 velocity: 96
timestamp 60582000 us: [95 30 44] channel 6: note On C3 velocity: 68
timestamp 60583000 us: [99 2A 00] channel 10: note On F#2 velocity: 0
timestamp 60584000 us: [99 23 00] channel 10: note On B1 velocity: 0
timestamp 60584000 us: [99 28 00] channel 10: note On E2 velocity: 0
timestamp 60590000 us: [96 3C 57] channel 7: note On C4 velocity: 87
timestamp 60740000 us: [96 34 00] channel 7: note On E3 velocity: 0
timestamp 60788000 us: [95 2B 00] channel 6: note On G2 velocity: 0
timestamp 60794000 us: [93 48 00] channel 4: note On C5 velocity: 0
timestamp 60795000 us: [95 30 00] channel 6: note On C3 velocity: 0
timestamp 60842000 us: [96 3C 00] channel 7: note On C4 velocity: 0
timestamp 60851000 us: [92 3C 00] channel 3: note On C4 velocity: 0
timestamp 60852000 us: [92 37 00] channel 3: note On G3 velocity: 0
timestamp 60856000 us: [92 34 00] channel 3: note On E3 velocity: 0
timestamp 60866000 us: [96 37 00] channel 7: note On G3 velocity: 0
timestamp 60876000 us: [93 48 6A] channel 4: note On C5 velocity: 106
timestamp 60878000 us: [95 2B 2A] channel 6: note On G2 velocity: 42
timestamp 60879000 us: [96 34 45] channel 7: note On E3 velocity: 69
timestamp 60881000 us: [99 2A 29] channel 10: note On F#2 velocity: 41
timestamp 60886000 us: [95 30 33] channel 6: note On C3 velocity: 51
timestamp 60887000 us: [99 2A 00] channel 10: note On F#2 velocity: 0
timestamp 60896000 us: [92 34 4A] channel 3: note On E3 velocity: 74
timestamp 60987000 us: [91 24 00] channel 2: note On C2 velocity: 0
timestamp 61011000 us: [95 2B 00] channel 6: note On G2 velocity: 0
timestamp 61016000 us: [93 48 00] channel 4: note On C5 velocity: 0
timestamp 61021000 us: [92 34 00] channel 3: note On E3 velocity: 0
timestamp 61026000 us: [95 30 00] channel 6: note On C3 velocity: 0
timestamp 61027000 us: [96 34 00] channel 7: note On E3 velocity: 0
timestamp 61031000 us: [91 24 66] channel 2: note On C2 velocity: 102
timestamp 61032000 us: [93 48 62] channel 4: note On C5 velocity: 98
timestamp 61034000 us: [95 2B 3F] channel 6: note On G2 velocity: 63
timestamp 61035000 us: [96 34 52] channel 7: note On E3 velocity: 82
timestamp 61037000 us: [99 23 71] channel 10: note On B1 velocity: 113
timestamp 61038000 us: [99 2A 39] channel 10: note On F#2 velocity: 57
timestamp 61045000 us: [95 30 44] channel 6: note On C3 velocity: 68
timestamp 61046000 us: [99 2A 00] channel 10: note On F#2 velocity: 0
timestamp 61047000 us: [99 23 00] channel 10: note On B1 velocity: 0
timestamp 61049000 us: [96 37 4A] channel 7: note On G3 velocity: 74
timestamp 61060000 us: [92 34 4D] channel 3: note On E3 velocity: 77
timestamp 61062000 us: [92 37 51] channel 3: note On G3 velocity: 81
timestamp 61063000 us: [92 3C 57] channel 3: note On C4 velocity: 87
timestamp 61066000 us: [96 3C 51] channel 7: note On C4 velocity: 81
timestamp 61167000 us: [94 45 6B] channel 5: note On A4 velocity: 107
timestamp 61169000 us: [94 51 60] channel 5: note On A5 velocity: 96
timestamp 61229000 us: [93 48 00] channel 4: note On C5 velocity: 0
timestamp 61239000 us: [95 2B 00] channel 6: note On G2 velocity: 0
timestamp 61253000 us: [95 30 00] channel 6: note On C3 velocity: 0
timestamp 61258000 us: [94 51 00] channel 5: note On A5 velocity: 0
timestamp 61259000 us: [94 45 00] channel 5: note On A4 velocity: 0
timestamp 61322000 us: [94 48 6D] channel 5: note On C5 velocity: 109
timestamp 61324000 us: [94 54 62] channel 5: note On C6 velocity: 98
timestamp 61341000 us: [93 48 69] channel 4: note On C5 velocity: 105
timestamp 61418000 us: [94 54 00] channel 5: note On C6 velocity: 0
timestamp 61419000 us: [94 48 00] channel 5: note On C5 velocity: 0
timestamp 61462000 us: [93 48 00] channel 4: note On C5 velocity: 0
timestamp 61477000 us: [94 4D 69] channel 5: note On F5 velocity: 105
timestamp 61479000 us: [94 59 5E] channel 5: note On F6 velocity: 94
timestamp 61496000 us: [93 48 65] channel 4: note On C5 velocity: 101
timestamp 61498000 us: [99 2A 49] channel 10: note On F#2 velocity: 73
timestamp 61505000 us: [99 2A 00] channel 10: note On F#2 velocity: 0
timestamp 61578000 us: [94 59 00] channel 5: note On F6 velocity: 0
timestamp 61579000 us: [94 4D 00] channel 5: note On F5 velocity: 0
timestamp 61632000 us: [94 4B 6B] channel 5: note On D#5 velocity: 107
timestamp 61634000 us: [94 57 60] channel 5: note On D#6 velocity: 96
timestamp 61718000 us: [94 57 00] channel 5: note On D#6 velocity: 0
timestamp 61719000 us: [94 4B 00] channel 5: note On D#5 velocity: 0
timestamp 61787000 us: [94 48 69] channel 5: note On C5 velocity: 105
timestamp 61789000 us: [94 54 5E] channel 5: note On C6 velocity: 94
timestamp 61820000 us: [93 48 00] channel 4: note On C5 velocity: 0
timestamp 61875000 us: [94 54 00] channel 5: note On C6 velocity: 0
timestamp 61876000 us: [94 48 00] channel 5: note On C5 velocity: 0
timestamp 61898000 us: [92 3C 00] channel 3: note On C4 velocity: 0
timestamp 61898000 us: [92 37 00] channel 3: note On G3 velocity: 0
timestamp 61899000 us: [92 34 00] channel 3: note On E3 velocity: 0
timestamp 61917000 us: [91 24 00] channel 2: note On C2 velocity: 0
timestamp 61947000 us: [96 3C 00] channel 7: note On C4 velocity: 0
timestamp 61947000 us: [96 37 00] channel 7: note On G3 velocity: 0
timestamp 61951000 us: [96 34 00] channel 7: note On E3 velocity: 0
timestamp 61966000 us: [92 4D 46] channel 3: note On F5 velocity: 70
timestamp 61967000 us: [92 51 46] channel 3: note On A5 velocity: 70
timestamp 61969000 us: [92 54 44] channel 3: note On C6 velocity: 68
timestamp 61971000 us: [93 45 5C] channel 4: note On A4 velocity: 92
timestamp 62097000 us: [92 54 00] channel 3: note On C6 velocity: 0
timestamp 62115000 us: [92 51 00] channel 3: note On A5 velocity: 0
timestamp 62120000 us: [92 4D 00] channel 3: note On F5 velocity: 0
timestamp 62184000 us: [93 45 00] channel 4: note On A4 velocity: 0
timestamp 62276000 us: [92 4D 40] channel 3: note On F5 velocity: 64
timestamp 62278000 us: [92 51 49] channel 3: note On A5 velocity: 73
timestamp 62279000 us: [92 54 3F] channel 3: note On C6 velocity: 63
timestamp 62281000 us: [93 48 5D] channel 4: note On C5 velocity: 93
timestamp 62365000 us: [92 51 00] channel 3: note On A5 velocity: 0
timestamp 62366000 us: [92 4D 00] channel 3: note On F5 velocity: 0
timestamp 62367000 us: [92 54 00] channel 3: note On C6 velocity: 0
timestamp 62377000 us: [93 48 00] channel 4: note On C5 velocity: 0
timestamp 62431000 us: [92 54 40] channel 3: note On C6 velocity: 64
timestamp 62436000 us: [92 4D 32] channel 3: note On F5 velocity: 50
timestamp 62437000 us: [92 51 4D] channel 3: note On A5 velocity: 77
timestamp 62440000 us: [93 48 55] channel 4: note On C5 velocity: 85
timestamp 62561000 us: [92 51 00] channel 3: note On A5 velocity: 0
timestamp 62562000 us: [92 4D 00] channel 3: note On F5 velocity: 0
timestamp 62566000 us: [92 54 00] channel 3: note On C6 velocity: 0
timestamp 62600000 us: [93 48 00] channel 4: note On C5 velocity: 0
timestamp 62736000 us: [92 4D 3B] channel 3: note On F5 velocity: 59
timestamp 62738000 us: [92 54 3F] channel 3: note On C6 velocity: 63
timestamp 62741000 us: [92 51 46] channel 3: note On A5 velocity: 70
timestamp 62746000 us: [93 48 5A] channel 4: note On C5 velocity: 90
timestamp 62809000 us: [92 54 00] channel 3: note On C6 velocity: 0
timestamp 62810000 us: [92 4D 00] channel 3: note On F5 velocity: 0
timestamp 62813000 us: [92 51 00] channel 3: note On A5 velocity: 0
timestamp 62857000 us: [93 48 00] channel 4: note On C5 velocity: 0
timestamp 62896000 us: [92 54 4B] channel 3: note On C6 velocity: 75
timestamp 62901000 us: [92 4F 46] channel 3: note On G5 velocity: 70
timestamp 62906000 us: [92 4C 44] channel 3: note On E5 velocity: 68
timestamp 62908000 us: [93 4A 5A] channel 4: note On D5 velocity: 90
timestamp 63027000 us: [92 4C 00] channel 3: note On E5 velocity: 0
timestamp 63031000 us: [92 54 00] channel 3: note On C6 velocity: 0
timestamp 63041000 us: [92 4F 00] channel 3: note On G5 velocity: 0
timestamp 63172000 us: [93 4A 00] channel 4: note On D5 velocity: 0
timestamp 63197000 us: [92 4C 40] channel 3: note On E5 velocity: 64
timestamp 63201000 us: [92 4F 44] channel 3: note On G5 velocity: 68
timestamp 63203000 us: [92 54 42] channel 3: note On C6 velocity: 66
timestamp 63209000 us: [97 48 57] channel 8: note On C5 velocity: 87
timestamp 63212000 us: [93 48 56] channel 4: note On C5 velocity: 86
timestamp 63264000 us: [92 4F 00] channel 3: note On G5 velocity: 0
timestamp 63275000 us: [92 54 00] channel 3: note On C6 velocity: 0
timestamp 63288000 us: [92 4C 00] channel 3: note On E5 velocity: 0
timestamp 63298000 us: [97 48 00] channel 8: note On C5 velocity: 0
timestamp 63357000 us: [92 4C 42] channel 3: note On E5 velocity: 66
timestamp 63358000 us: [92 54 4B] channel 3: note On C6 velocity: 75
timestamp 63361000 us: [92 4F 4B] channel 3: note On G5 velocity: 75
timestamp 63366000 us: [97 48 57] channel 8: note On C5 velocity: 87
timestamp 63467000 us: [92 4F 00] channel 3: note On G5 velocity: 0
timestamp 63482000 us: [92 4C 00] channel 3: note On E5 velocity: 0
timestamp 63501000 us: [92 54 00] channel 3: note On C6 velocity: 0
timestamp 63511000 us: [97 48 00] channel 8: note On C5 velocity: 0
timestamp 63662000 us: [92 4C 40] channel 3: note On E5 velocity: 64
timestamp 63663000 us: [92 54 38] channel 3: note On C6 velocity: 56
timestamp 63666000 us: [92 4F 3B] channel 3: note On G5 velocity: 59
timestamp 63668000 us: [93 48 00] channel 4: note On C5 velocity: 0
timestamp 63676000 us: [97 48 57] channel 8: note On C5 velocity: 87
timestamp 63691000 us: [93 48 4A] channel 4: note On C5 velocity: 74
timestamp 63719000 us: [92 4F 00] channel 3: note On G5 velocity: 0
timestamp 63753000 us: [92 4C 00] channel 3: note On E5 velocity: 0
timestamp 63767000 us: [92 54 00] channel 3: note On C6 velocity: 0
timestamp 63777000 us: [97 48 00] channel 8: note On C5 velocity: 0
timestamp 63832000 us: [92 4D 47] channel 3: note On F5 velocity: 71
timestamp 63833000 us: [92 52 3F] channel 3: note On A#5 velocity: 63
timestamp 63837000 us: [92 4A 42] channel 3: note On D5 velocity: 66
timestamp 63839000 us: [97 4A 58] channel 8: note On D5 velocity: 88
timestamp 63841000 us: [93 48 00] channel 4: note On C5 velocity: 0
timestamp 63842000 us: [93 46 5F] channel 4: note On A#4 velocity: 95
timestamp 63952000 us: [92 4A 00] channel 3: note On D5 velocity: 0
timestamp 63966000 us: [92 52 00] channel 3: note On A#5 velocity: 0
timestamp 63991000 us: [92 4D 00] channel 3: note On F5 velocity: 0
timestamp 64039000 us: [93 46 00] channel 4: note On A#4 velocity: 0
timestamp 64093000 us: [97 4A 00] channel 8: note On D5 velocity: 0
timestamp 64137000 us: [92 52 49] channel 3: note On A#5 velocity: 73
timestamp 64138000 us: [92 4A 38] channel 3: note On D5 velocity: 56
timestamp 64140000 us: [92 4D 40] channel 3: note On F5 velocity: 64
timestamp 64146000 us: [93 46 53] channel 4: note On A#4 velocity: 83
timestamp 64148000 us: [97 46 5B] channel 8: note On A#4 velocity: 91
timestamp 64199000 us: [92 4A 00] channel 3: note On D5 velocity: 0
timestamp 64234000 us: [92 52 00] channel 3: note On A#5 velocity: 0
timestamp 64237000 us: [92 4D 00] channel 3: note On F5 velocity: 0
timestamp 64262000 us: [93 46 00] channel 4: note On A#4 velocity: 0
timestamp 64297000 us: [92 4A 4E] channel 3: note On D5 velocity: 78
timestamp 64298000 us: [92 4D 36] channel 3: note On F5 velocity: 54
timestamp 64299000 us: [92 52 54] channel 3: note On A#5 velocity: 84
timestamp 64302000 us: [93 46 58] channel 4: note On A#4 velocity: 88
timestamp 64407000 us: [92 4A 00] channel 3: note On D5 velocity: 0
timestamp 64432000 us: [93 46 00] channel 4: note On A#4 velocity: 0
timestamp 64436000 us: [92 4D 00] channel 3: note On F5 velocity: 0
timestamp 64447000 us: [93 46 5A] channel 4: note On A#4 velocity: 90
timestamp 64451000 us: [92 52 00] channel 3: note On A#5 velocity: 0
timestamp 64452000 us: [97 46 00] channel 8: note On A#4 velocity: 0
timestamp 64602000 us: [92 4A 44] channel 3: note On D5 velocity: 68
timestamp 64603000 us: [92 52 4B] channel 3: note On A#5 velocity: 75
timestamp 64609000 us: [92 4D 47] channel 3: note On F5 velocity: 71
timestamp 64610000 us: [93 46 00] channel 4: note On A#4 velocity: 0
timestamp 64612000 us: [97 48 56] channel 8: note On C5 velocity: 86
timestamp 64614000 us: [93 45 5C] channel 4: note On A4 velocity: 92
timestamp 64688000 us: [92 4A 00] channel 3: note On D5 velocity: 0
timestamp 64694000 us: [92 52 00] channel 3: note On A#5 velocity: 0
timestamp 64705000 us: [92 4D 00] channel 3: note On F5 velocity: 0
timestamp 64761000 us: [92 4D 3B] channel 3: note On F5 velocity: 59
timestamp 64766000 us: [92 51 4D] channel 3: note On A5 velocity: 77
timestamp 64771000 us: [92 48 3D] channel 3: note On C5 velocity: 61
timestamp 64863000 us: [92 48 00] channel 3: note On C5 velocity: 0
timestamp 64901000 us: [92 51 00] channel 3: note On A5 velocity: 0
timestamp 64916000 us: [92 4D 00] channel 3: note On F5 velocity: 0
timestamp 64998000 us: [93 45 00] channel 4: note On A4 velocity: 0
timestamp 65067000 us: [92 48 44] channel 3: note On C5 velocity: 68
timestamp 65068000 us: [92 4D 42] channel 3: note On F5 velocity: 66
timestamp 65072000 us: [92 51 40] channel 3: note On A5 velocity: 64
timestamp 65139000 us: [92 51 00] channel 3: note On A5 velocity: 0
timestamp 65148000 us: [92 48 00] channel 3: note On C5 velocity: 0
timestamp 65165000 us: [92 4D 00] channel 3: note On F5 velocity: 0
timestamp 65222000 us: [92 4D 4B] channel 3: note On F5 velocity: 75
timestamp 65226000 us: [92 48 4B] channel 3: note On C5 velocity: 75
timestamp 65228000 us: [92 51 55] channel 3: note On A5 velocity: 85
timestamp 65328000 us: [92 48 00] channel 3: note On C5 velocity: 0
timestamp 65342000 us: [92 4D 00] channel 3: note On F5 velocity: 0
timestamp 65371000 us: [92 51 00] channel 3: note On A5 velocity: 0
timestamp 65434000 us: [97 48 00] channel 8: note On C5 velocity: 0
timestamp 65527000 us: [92 51 3F] channel 3: note On A5 velocity: 63
timestamp 65529000 us: [92 4D 2F] channel 3: note On F5 velocity: 47
timestamp 65532000 us: [92 48 44] channel 3: note On C5 velocity: 68
timestamp 65533000 us: [93 45 55] channel 4: note On A4 velocity: 85
timestamp 65609000 us: [92 4D 00] channel 3: note On F5 velocity: 0
timestamp 65614000 us: [92 48 00] channel 3: note On C5 velocity: 0
timestamp 65624000 us: [92 51 00] channel 3: note On A5 velocity: 0
timestamp 65662000 us: [93 45 00] channel 4: note On A4 velocity: 0
timestamp 65683000 us: [92 52 50] channel 3: note On A#5 velocity: 80
timestamp 65687000 us: [92 4A 50] channel 3: note On D5 velocity: 80
timestamp 65688000 us: [92 4D 4D] channel 3: note On F5 velocity: 77
timestamp 65690000 us: [93 46 5A] channel 4: note On A#4 velocity: 90
timestamp 65822000 us: [92 4A 00] channel 3: note On D5 velocity: 0
timestamp 65823000 us: [92 52 00] channel 3: note On A#5 velocity: 0
timestamp 65831000 us: [92 4D 00] channel 3: note On F5 velocity: 0
timestamp 65936000 us: [93 46 00] channel 4: note On A#4 velocity: 0
timestamp 65992000 us: [92 4A 3F] channel 3: note On D5 velocity: 63
timestamp 65994000 us: [92 4D 49] channel 3: note On F5 velocity: 73
timestamp 65995000 us: [92 52 4B] channel 3: note On A#5 velocity: 75
timestamp 66002000 us: [93 46 5D] channel 4: note On A#4 velocity: 93
timestamp 66060000 us: [92 4A 00] channel 3: note On D5 velocity: 0
timestamp 66075000 us: [92 4D 00] channel 3: note On F5 velocity: 0
timestamp 66079000 us: [92 52 00] channel 3: note On A#5 velocity: 0
timestamp 66122000 us: [93 46 00] channel 4: note On A#4 velocity: 0
timestamp 66152000 us: [92 4A 4D] channel 3: note On D5 velocity: 77
timestamp 66153000 us: [92 4D 3F] channel 3: note On F5 velocity: 63
timestamp 66155000 us: [92 52 4E] channel 3: note On A#5 velocity: 78
timestamp 66162000 us: [93 46 5C] channel 4: note On A#4 velocity: 92
timestamp 66258000 us: [92 4A 00] channel 3: note On D5 velocity: 0
timestamp 66272000 us: [92 52 00] channel 3: note On A#5 velocity: 0
timestamp 66292000 us: [92 4D 00] channel 3: note On F5 velocity: 0
timestamp 66331000 us: [93 46 00] channel 4: note On A#4 velocity: 0
timestamp 66457000 us: [92 52 39] channel 3: note On A#5 velocity: 57
timestamp 66459000 us: [92 4A 2E] channel 3: note On D5 velocity: 46
timestamp 66460000 us: [92 4D 34] channel 3: note On F5 velocity: 52
timestamp 66463000 us: [93 46 5C] channel 4: note On A#4 velocity: 92
timestamp 66525000 us: [92 4A 00] channel 3: note On D5 velocity: 0
timestamp 66525000 us: [92 52 00] channel 3: note On A#5 velocity: 0
timestamp 66568000 us: [92 4D 00] channel 3: note On F5 velocity: 0
timestamp 66569000 us: [93 46 00] channel 4: note On A#4 velocity: 0
timestamp 66622000 us: [92 4D 3F] channel 3: note On F5 velocity: 63
timestamp 66623000 us: [92 51 4E] channel 3: note On A5 velocity: 78
timestamp 66625000 us: [92 48 3F] channel 3: note On C5 velocity: 63
timestamp 66627000 us: [93 46 5F] channel 4: note On A#4 velocity: 95
timestamp 66707000 us: [92 48 00] channel 3: note On C5 velocity: 0
timestamp 66737000 us: [92 51 00] channel 3: note On A5 velocity: 0
timestamp 66752000 us: [92 4D 00] channel 3: note On F5 velocity: 0
timestamp 66917000 us: [93 46 00] channel 4: note On A#4 velocity: 0
timestamp 66922000 us: [92 48 2E] channel 3: note On C5 velocity: 46
timestamp 66924000 us: [92 4D 36] channel 3: note On F5 velocity: 54
timestamp 66925000 us: [92 51 32] channel 3: note On A5 velocity: 50
timestamp 66932000 us: [93 45 56] channel 4: note On A4 velocity: 86
timestamp 67000000 us: [92 48 00] channel 3: note On C5 velocity: 0
timestamp 67000000 us: [92 51 00] channel 3: note On A5 velocity: 0
timestamp 67018000 us: [92 4D 00] channel 3: note On F5 velocity: 0
timestamp 67082000 us: [92 48 49] channel 3: note On C5 velocity: 73
timestamp 67084000 us: [92 4D 3F] channel 3: note On F5 velocity: 63
timestamp 67085000 us: [92 51 49] channel 3: note On A5 velocity: 73
timestamp 67198000 us: [92 4D 00] channel 3: note On F5 velocity: 0
timestamp 67198000 us: [92 48 00] channel 3: note On C5 velocity: 0
timestamp 67222000 us: [92 51 00] channel 3: note On A5 velocity: 0
timestamp 67271000 us: [93 45 00] channel 4: note On A4 velocity: 0
timestamp 67388000 us: [92 48 2E] channel 3: note On C5 velocity: 46
timestamp 67389000 us: [92 4D 3B] channel 3: note On F5 velocity: 59
timestamp 67392000 us: [92 51 40] channel 3: note On A5 velocity: 64
timestamp 67397000 us: [93 45 58] channel 4: note On A4 velocity: 88
timestamp 67465000 us: [92 48 00] channel 3: note On C5 velocity: 0
timestamp 67465000 us: [92 51 00] channel 3: note On A5 velocity: 0
timestamp 67489000 us: [93 45 00] channel 4: note On A4 velocity: 0
timestamp 67495000 us: [92 4D 00] channel 3: note On F5 velocity: 0
timestamp 67543000 us: [92 53 50] channel 3: note On B5 velocity: 80
timestamp 67547000 us: [92 4A 47] channel 3: note On D5 velocity: 71
timestamp 67552000 us: [92 4F 44] channel 3: note On G5 velocity: 68
timestamp 67554000 us: [93 45 4F] channel 4: note On A4 velocity: 79
timestamp 67654000 us: [92 4F 00] channel 3: note On G5 velocity: 0
timestamp 67673000 us: [92 4A 00] channel 3: note On D5 velocity: 0
timestamp 67682000 us: [92 53 00] channel 3: note On B5 velocity: 0
timestamp 67795000 us: [93 45 00] channel 4: note On A4 velocity: 0
timestamp 67848000 us: [92 53 4D] channel 3: note On B5 velocity: 77
timestamp 67849000 us: [92 4A 49] channel 3: note On D5 velocity: 73
timestamp 67851000 us: [92 4F 4E] channel 3: note On G5 velocity: 78
timestamp 67858000 us: [93 43 4B] channel 4: note On G4 velocity: 75
timestamp 67949000 us: [92 4F 00] channel 3: note On G5 velocity: 0
timestamp 67950000 us: [92 4A 00] channel 3: note On D5 velocity: 0
timestamp 67950000 us: [92 53 00] channel 3: note On B5 velocity: 0
timestamp 68008000 us: [92 4A 49] channel 3: note On D5 velocity: 73
timestamp 68009000 us: [92 53 46] channel 3: note On B5 velocity: 70
timestamp 68011000 us: [92 4F 44] channel 3: note On G5 velocity: 68
timestamp 68012000 us: [93 43 00] channel 4: note On G4 velocity: 0
timestamp 68017000 us: [93 43 55] channel 4: note On G4 velocity: 85
timestamp 68109000 us: [92 4F 00] channel 3: note On G5 velocity: 0
timestamp 68114000 us: [92 4A 00] channel 3: note On D5 velocity: 0
timestamp 68123000 us: [92 53 00] channel 3: note On B5 velocity: 0
timestamp 68186000 us: [93 43 00] channel 4: note On G4 velocity: 0
timestamp 68308000 us: [92 53 46] channel 3: note On B5 velocity: 70
timestamp 68313000 us: [92 4A 3B] channel 3: note On D5 velocity: 59
timestamp 68314000 us: [92 4F 4D] channel 3: note On G5 velocity: 77
timestamp 68328000 us: [93 45 51] channel 4: note On A4 velocity: 81
timestamp 68366000 us: [92 4A 00] channel 3: note On D5 velocity: 0
timestamp 68386000 us: [92 53 00] channel 3: note On B5 velocity: 0
timestamp 68390000 us: [92 4F 00] channel 3: note On G5 velocity: 0
timestamp 68463000 us: [93 45 00] channel 4: note On A4 velocity: 0
timestamp 68468000 us: [92 54 50] channel 3: note On C6 velocity: 80
timestamp 68473000 us: [92 4C 49] channel 3: note On E5 velocity: 73
timestamp 68474000 us: [92 4F 3B] channel 3: note On G5 velocity: 59
timestamp 68478000 us: [93 43 5D] channel 4: note On G4 velocity: 93
timestamp 68598000 us: [92 54 00] channel 3: note On C6 velocity: 0
timestamp 68603000 us: [92 4F 00] channel 3: note On G5 velocity: 0
timestamp 68612000 us: [92 4C 00] channel 3: note On E5 velocity: 0
timestamp 68758000 us: [93 43 00] channel 4: note On G4 velocity: 0
timestamp 68773000 us: [97 4D 5A] channel 8: note On F5 velocity: 90
timestamp 68778000 us: [92 4F 44] channel 3: note On G5 velocity: 68
timestamp 68779000 us: [92 54 49] channel 3: note On C6 velocity: 73
timestamp 68781000 us: [92 4C 40] channel 3: note On E5 velocity: 64
timestamp 68783000 us: [93 48 5D] channel 4: note On C5 velocity: 93
timestamp 68845000 us: [92 4C 00] channel 3: note On E5 velocity: 0
timestamp 68850000 us: [92 4F 00] channel 3: note On G5 velocity: 0
timestamp 68851000 us: [92 54 00] channel 3: note On C6 velocity: 0
timestamp 68876000 us: [97 4D 00] channel 8: note On F5 velocity: 0
timestamp 68929000 us: [92 54 39] channel 3: note On C6 velocity: 57
timestamp 68933000 us: [92 4C 3F] channel 3: note On E5 velocity: 63
timestamp 68935000 us: [97 4D 55] channel 8: note On F5 velocity: 85
timestamp 68938000 us: [92 4F 46] channel 3: note On G5 velocity: 70
timestamp 69025000 us: [92 4F 00] channel 3: note On G5 velocity: 0
timestamp 69045000 us: [92 4C 00] channel 3: note On E5 velocity: 0
timestamp 69054000 us: [92 54 00] channel 3: note On C6 velocity: 0
timestamp 69078000 us: [97 4D 00] channel 8: note On F5 velocity: 0
timestamp 69229000 us: [97 4D 58] channel 8: note On F5 velocity: 88
timestamp 69231000 us: [92 54 47] channel 3: note On C6 velocity: 71
timestamp 69233000 us: [92 4C 3F] channel 3: note On E5 velocity: 63
timestamp 69235000 us: [92 4F 4B] channel 3: note On G5 velocity: 75
timestamp 69325000 us: [92 4F 00] channel 3: note On G5 velocity: 0
timestamp 69330000 us: [92 4C 00] channel 3: note On E5 velocity: 0
timestamp 69335000 us: [97 4D 00] channel 8: note On F5 velocity: 0
timestamp 69340000 us: [92 54 00] channel 3: note On C6 velocity: 0
timestamp 69374000 us: [93 48 00] channel 4: note On C5 velocity: 0
timestamp 69394000 us: [97 4D 58] channel 8: note On F5 velocity: 88
timestamp 69409000 us: [92 4D 46] channel 3: note On F5 velocity: 70
timestamp 69410000 us: [92 51 46] channel 3: note On A5 velocity: 70
timestamp 69411000 us: [92 54 44] channel 3: note On C6 velocity: 68
timestamp 69414000 us: [93 45 5C] channel 4: note On A4 velocity: 92
timestamp 69538000 us: [92 54 00] channel 3: note On C6 velocity: 0
timestamp 69557000 us: [92 51 00] channel 3: note On A5 velocity: 0
timestamp 69562000 us: [92 4D 00] channel 3: note On F5 velocity: 0
timestamp 69621000 us: [97 4D 00] channel 8: note On F5 velocity: 0
timestamp 69625000 us: [93 45 00] channel 4: note On A4 velocity: 0
timestamp 69689000 us: [97 48 5A] channel 8: note On C5 velocity: 90
timestamp 69718000 us: [92 4D 40] channel 3: note On F5 velocity: 64
timestamp 69719000 us: [92 51 49] channel 3: note On A5 velocity: 73
timestamp 69721000 us: [92 54 3F] channel 3: note On C6 velocity: 63
timestamp 69723000 us: [93 48 5D] channel 4: note On C5 velocity: 93
timestamp 69806000 us: [92 51 00] channel 3: note On A5 velocity: 0
timestamp 69807000 us: [92 4D 00] channel 3: note On F5 velocity: 0
timestamp 69809000 us: [92 54 00] channel 3: note On C6 velocity: 0
timestamp 69819000 us: [93 48 00] channel 4: note On C5 velocity: 0
timestamp 69873000 us: [92 54 40] channel 3: note On C6 velocity: 64
timestamp 69878000 us: [92 4D 32] channel 3: note On F5 velocity: 50
timestamp 69879000 us: [92 51 4D] channel 3: note On A5 velocity: 77
timestamp 69881000 us: [93 48 55] channel 4: note On C5 velocity: 85
timestamp 69950000 us: [97 48 00] channel 8: note On C5 velocity: 0
timestamp 70003000 us: [92 51 00] channel 3: note On A5 velocity: 0
timestamp 70004000 us: [92 4D 00] channel 3: note On F5 velocity: 0
timestamp 70008000 us: [92 54 00] channel 3: note On C6 velocity: 0
timestamp 70042000 us: [93 48 00] channel 4: note On C5 velocity: 0
timestamp 70154000 us: [97 48 58] channel 8: note On C5 velocity: 88
timestamp 70178000 us: [92 4D 3B] channel 3: note On F5 velocity: 59
timestamp 70180000 us: [92 54 3F] channel 3: note On C6 velocity: 63
timestamp 70183000 us: [92 51 46] channel 3: note On A5 velocity: 70
timestamp 70188000 us: [93 48 5A] channel 4: note On C5 velocity: 90
timestamp 70250000 us: [92 54 00] channel 3: note On C6 velocity: 0
timestamp 70251000 us: [92 4D 00] channel 3: note On F5 velocity: 0
timestamp 70255000 us: [92 51 00] channel 3: note On A5 velocity: 0
timestamp 70299000 us: [93 48 00] channel 4: note On C5 velocity: 0
timestamp 70338000 us: [92 54 4B] channel 3: note On C6 velocity: 75
timestamp 70343000 us: [92 4F 46] channel 3: note On G5 velocity: 70
timestamp 70348000 us: [92 4C 44] channel 3: note On E5 velocity: 68
timestamp 70350000 us: [93 4A 5A] channel 4: note On D5 velocity: 90
timestamp 70469000 us: [92 4C 00] channel 3: note On E5 velocity: 0
timestamp 70473000 us: [92 54 00] channel 3: note On C6 velocity: 0
timestamp 70483000 us: [92 4F 00] channel 3: note On G5 velocity: 0
timestamp 70614000 us: [93 4A 00] channel 4: note On D5 velocity: 0
timestamp 70639000 us: [92 4C 40] channel 3: note On E5 velocity: 64
timestamp 70643000 us: [92 4F 44] channel 3: note On G5 velocity: 68
timestamp 70645000 us: [92 54 42] channel 3: note On C6 velocity: 66
timestamp 70653000 us: [93 48 56] channel 4: note On C5 velocity: 86
timestamp 70707000 us: [92 4F 00] channel 3: note On G5 velocity: 0
timestamp 70715000 us: [92 54 00] channel 3: note On C6 velocity: 0
timestamp 70730000 us: [92 4C 00] channel 3: note On E5 velocity: 0
timestamp 70798000 us: [92 4C 42] channel 3: note On E5 velocity: 66
timestamp 70800000 us: [92 54 4B] channel 3: note On C6 velocity: 75
timestamp 70803000 us: [92 4F 4B] channel 3: note On G5 velocity: 75
timestamp 70909000 us: [92 4F 00] channel 3: note On G5 velocity: 0
timestamp 70924000 us: [92 4C 00] channel 3: note On E5 velocity: 0
timestamp 70943000 us: [92 54 00] channel 3: note On C6 velocity: 0
timestamp 71001000 us: [97 48 00] channel 8: note On C5 velocity: 0
timestamp 71104000 us: [92 4C 40] channel 3: note On E5 velocity: 64
timestamp 71105000 us: [92 54 38] channel 3: note On C6 velocity: 56
timestamp 71109000 us: [92 4F 3B] channel 3: note On G5 velocity: 59
timestamp 71110000 us: [93 48 00] channel 4: note On C5 velocity: 0
timestamp 71133000 us: [93 48 4A] channel 4: note On C5 velocity: 74
timestamp 71161000 us: [92 4F 00] channel 3: note On G5 velocity: 0
timestamp 71196000 us: [92 4C 00] channel 3: note On E5 velocity: 0
timestamp 71209000 us: [92 54 00] channel 3: note On C6 velocity: 0
timestamp 71273000 us: [92 4D 47] channel 3: note On F5 velocity: 71
timestamp 71275000 us: [92 52 3F] channel 3: note On A#5 velocity: 63
timestamp 71278000 us: [92 4A 42] channel 3: note On D5 velocity: 66
timestamp 71283000 us: [93 48 00] channel 4: note On C5 velocity: 0
timestamp 71284000 us: [93 46 5F] channel 4: note On A#4 velocity: 95
timestamp 71394000 us: [92 4A 00] channel 3: note On D5 velocity: 0
timestamp 71408000 us: [92 52 00] channel 3: note On A#5 velocity: 0
timestamp 71432000 us: [92 4D 00] channel 3: note On F5 velocity: 0
timestamp 71481000 us: [93 46 00] channel 4: note On A#4 velocity: 0
timestamp 71579000 us: [92 52 49] channel 3: note On A#5 velocity: 73
timestamp 71580000 us: [92 4A 38] channel 3: note On D5 velocity: 56
timestamp 71581000 us: [92 4D 40] channel 3: note On F5 velocity: 64
timestamp 71588000 us: [93 46 53] channel 4: note On A#4 velocity: 83
timestamp 71641000 us: [92 4A 00] channel 3: note On D5 velocity: 0
timestamp 71676000 us: [92 52 00] channel 3: note On A#5 velocity: 0
timestamp 71679000 us: [92 4D 00] channel 3: note On F5 velocity: 0
timestamp 71704000 us: [93 46 00] channel 4: note On A#4 velocity: 0
timestamp 71738000 us: [92 4A 4E] channel 3: note On D5 velocity: 78
timestamp 71740000 us: [92 4D 36] channel 3: note On F5 velocity: 54
timestamp 71741000 us: [92 52 54] channel 3: note On A#5 velocity: 84
timestamp 71744000 us: [93 46 58] channel 4: note On A#4 velocity: 88
timestamp 71849000 us: [92 4A 00] channel 3: note On D5 velocity: 0
timestamp 71873000 us: [93 46 00] channel 4: note On A#4 velocity: 0
timestamp 71879000 us: [92 4D 00] channel 3: note On F5 velocity: 0
timestamp 71889000 us: [93 46 5A] channel 4: note On A#4 velocity: 90
timestamp 71893000 us: [92 52 00] channel 3: note On A#5 velocity: 0
timestamp 72043000 us: [92 4A 44] channel 3: note On D5 velocity: 68
timestamp 72045000 us: [92 52 4B] channel 3: note On A#5 velocity: 75
timestamp 72048000 us: [92 4D 47] channel 3: note On F5 velocity: 71
timestamp 72049000 us: [93 46 00] channel 4: note On A#4 velocity: 0
timestamp 72051000 us: [93 45 5C] channel 4: note On A4 velocity: 92
timestamp 72131000 us: [92 4A 00] channel 3: note On D5 velocity: 0
timestamp 72135000 us: [92 52 00] channel 3: note On A#5 velocity: 0
timestamp 72145000 us: [92 4D 00] channel 3: note On F5 velocity: 0
timestamp 72203000 us: [92 51 3B] channel 3: note On A5 velocity: 59
timestamp 72208000 us: [92 54 4D] channel 3: note On C6 velocity: 77
timestamp 72213000 us: [92 4D 3D] channel 3: note On F5 velocity: 61
timestamp 72308000 us: [92 4D 00] channel 3: note On F5 velocity: 0
timestamp 72343000 us: [92 54 00] channel 3: note On C6 velocity: 0
timestamp 72358000 us: [92 51 00] channel 3: note On A5 velocity: 0
timestamp 72440000 us: [93 45 00] channel 4: note On A4 velocity: 0
timestamp 72509000 us: [92 4D 44] channel 3: note On F5 velocity: 68
timestamp 72510000 us: [92 51 42] channel 3: note On A5 velocity: 66
timestamp 72513000 us: [92 54 40] channel 3: note On C6 velocity: 64
timestamp 72581000 us: [92 54 00] channel 3: note On C6 velocity: 0
timestamp 72590000 us: [92 4D 00] channel 3: note On F5 velocity: 0
timestamp 72607000 us: [92 51 00] channel 3: note On A5 velocity: 0
timestamp 72664000 us: [92 51 4B] channel 3: note On A5 velocity: 75
timestamp 72668000 us: [92 4D 4B] channel 3: note On F5 velocity: 75
timestamp 72670000 us: [92 54 55] channel 3: note On C6 velocity: 85
timestamp 72769000 us: [92 4D 00] channel 3: note On F5 velocity: 0
timestamp 72784000 us: [92 51 00] channel 3: note On A5 velocity: 0
timestamp 72813000 us: [92 54 00] channel 3: note On C6 velocity: 0
timestamp 72969000 us: [92 54 3F] channel 3: note On C6 velocity: 63
timestamp 72970000 us: [92 51 2F] channel 3: note On A5 velocity: 47
timestamp 72974000 us: [92 4D 44] channel 3: note On F5 velocity: 68
timestamp 72975000 us: [93 41 55] channel 4: note On F4 velocity: 85
timestamp 72977000 us: [97 41 4E] channel 8: note On F4 velocity: 78
timestamp 73095000 us: [92 54 00] channel 3: note On C6 velocity: 0
timestamp 73096000 us: [92 51 00] channel 3: note On A5 velocity: 0
timestamp 73099000 us: [92 4D 00] channel 3: note On F5 velocity: 0
timestamp 73114000 us: [92 3A 44] channel 3: note On A#3 velocity: 68
timestamp 73119000 us: [92 2E 52] channel 3: note On A#2 velocity: 82
timestamp 73121000 us: [92 3E 50] channel 3: note On D4 velocity: 80
timestamp 73124000 us: [91 22 66] channel 2: note On A#1 velocity: 102
timestamp 73126000 us: [92 41 50] channel 3: note On F4 velocity: 80
timestamp 73127000 us: [B8 07 6E] channel 9: control change 7 value: 110
timestamp 73128000 us: [B8 0B 7F] channel 9: control change 11 value: 127
timestamp 73129000 us: [98 41 4E] channel 9: note On F4 velocity: 78
timestamp 73130000 us: [99 23 71] channel 10: note On B1 velocity: 113
timestamp 73131000 us: [93 41 00] channel 4: note On F4 velocity: 0
timestamp 73132000 us: [97 41 00] channel 8: note On F4 velocity: 0
timestamp 73135000 us: [93 41 67] channel 4: note On F4 velocity: 103
timestamp 73137000 us: [97 41 5F] channel 8: note On F4 velocity: 95
timestamp 73138000 us: [99 23 00] channel 10: note On B1 velocity: 0
timestamp 73211000 us: [93 41 00] channel 4: note On F4 velocity: 0
timestamp 73212000 us: [97 41 00] channel 8: note On F4 velocity: 0
timestamp 73279000 us: [93 41 60] channel 4: note On F4 velocity: 96
timestamp 73282000 us: [97 41 5B] channel 8: note On F4 velocity: 91
timestamp 73361000 us: [93 41 00] channel 4: note On F4 velocity: 0
timestamp 73362000 us: [97 41 00] channel 8: note On F4 velocity: 0
timestamp 73439000 us: [93 41 59] channel 4: note On F4 velocity: 89
timestamp 73441000 us: [97 41 52] channel 8: note On F4 velocity: 82
timestamp 73482000 us: [93 41 00] channel 4: note On F4 velocity: 0
timestamp 73483000 us: [97 41 00] channel 8: note On F4 velocity: 0
timestamp 73590000 us: [93 41 6E] channel 4: note On F4 velocity: 110
timestamp 73591000 us: [97 41 67] channel 8: note On F4 velocity: 103
timestamp 73592000 us: [99 23 71] channel 10: note On B1 velocity: 113
timestamp 73598000 us: [99 23 00] channel 10: note On B1 velocity: 0
timestamp 74015000 us: [98 41 00] channel 9: note On F4 velocity: 0
timestamp 74054000 us: [99 23 71] channel 10: note On B1 velocity: 113
timestamp 74063000 us: [99 23 00] channel 10: note On B1 velocity: 0
timestamp 74074000 us: [98 41 4E] channel 9: note On F4 velocity: 78
timestamp 74520000 us: [99 23 71] channel 10: note On B1 velocity: 113
timestamp 74528000 us: [99 23 00] channel 10: note On B1 velocity: 0
timestamp 74694000 us: [98 43 42] channel 9: note On G4 velocity: 66
timestamp 74732000 us: [98 41 00] channel 9: note On F4 velocity: 0
timestamp 74777000 us: [98 45 42] channel 9: note On A4 velocity: 66
timestamp 74800000 us: [98 43 00] channel 9: note On G4 velocity: 0
timestamp 74829000 us: [98 46 42] channel 9: note On A#4 velocity: 66
timestamp 74839000 us: [92 3A 00] channel 3: note On A#3 velocity: 0
timestamp 74848000 us: [98 45 00] channel 9: note On A4 velocity: 0
timestamp 74877000 us: [92 41 00] channel 3: note On F4 velocity: 0
timestamp 74879000 us: [98 48 3F] channel 9: note On C5 velocity: 63
timestamp 74882000 us: [98 46 00] channel 9: note On A#4 velocity: 0
timestamp 74911000 us: [92 3E 00] channel 3: note On D4 velocity: 0
timestamp 74916000 us: [93 41 00] channel 4: note On F4 velocity: 0
timestamp 74917000 us: [97 41 00] channel 8: note On F4 velocity: 0
timestamp 74919000 us: [98 4A 3D] channel 9: note On D5 velocity: 61
timestamp 74930000 us: [98 48 00] channel 9: note On C5 velocity: 0
timestamp 74940000 us: [91 22 00] channel 2: note On A#1 velocity: 0
timestamp 74942000 us: [98 4C 3C] channel 9: note On E5 velocity: 60
timestamp 74955000 us: [E3 00 02] channel 4: pitch wheel change 256
timestamp 74970000 us: [98 4A 00] channel 9: note On D5 velocity: 0
timestamp 74975000 us: [93 4D 6D] channel 4: note On F5 velocity: 109
timestamp 74977000 us: [97 4D 66] channel 8: note On F5 velocity: 102
timestamp 74985000 us: [91 24 66] channel 2: note On C2 velocity: 102
timestamp 74986000 us: [98 4D 6F] channel 9: note On F5 velocity: 111
timestamp 74988000 us: [99 23 71] channel 10: note On B1 velocity: 113
timestamp 74990000 us: [92 2E 00] channel 3: note On A#2 velocity: 0
timestamp 74991000 us: [92 3E 49] channel 3: note On D4 velocity: 73
timestamp 74994000 us: [92 3A 53] channel 3: note On A#3 velocity: 83
timestamp 74996000 us: [E3 00 0A] channel 4: pitch wheel change 1280
timestamp 74997000 us: [99 23 00] channel 10: note On B1 velocity: 0
timestamp 74998000 us: [98 4C 00] channel 9: note On E5 velocity: 0
timestamp 75001000 us: [92 30 52] channel 3: note On C3 velocity: 82
timestamp 75003000 us: [92 41 52] channel 3: note On F4 velocity: 82
timestamp 75028000 us: [E3 00 1E] channel 4: pitch wheel change 3840
timestamp 75062000 us: [E3 00 2B] channel 4: pitch wheel change 5504
timestamp 75097000 us: [E3 00 34] channel 4: pitch wheel change 6656
timestamp 75110000 us: [E3 00 39] channel 4: pitch wheel change 7296
timestamp 75144000 us: [E3 00 40] channel 4: pitch wheel change 8192
timestamp 75449000 us: [93 4D 00] channel 4: note On F5 velocity: 0
timestamp 75450000 us: [97 4D 00] channel 8: note On F5 velocity: 0
timestamp 75451000 us: [99 23 71] channel 10: note On B1 velocity: 113
timestamp 75453000 us: [93 41 69] channel 4: note On F4 velocity: 105
timestamp 75459000 us: [99 23 00] channel 10: note On B1 velocity: 0
timestamp 75648000 us: [93 41 00] channel 4: note On F4 velocity: 0
timestamp 75755000 us: [93 41 62] channel 4: note On F4 velocity: 98
timestamp 75764000 us: [98 4D 00] channel 9: note On F5 velocity: 0
timestamp 75879000 us: [93 41 00] channel 4: note On F4 velocity: 0
timestamp 75910000 us: [93 45 6D] channel 4: note On A4 velocity: 109
timestamp 75915000 us: [99 23 71] channel 10: note On B1 velocity: 113
timestamp 75923000 us: [99 23 00] channel 10: note On B1 velocity: 0
timestamp 76137000 us: [93 45 00] channel 4: note On A4 velocity: 0
timestamp 76210000 us: [93 41 66] channel 4: note On F4 velocity: 102
timestamp 76225000 us: [99 28 40] channel 10: note On E2 velocity: 64
timestamp 76234000 us: [99 28 00] channel 10: note On E2 velocity: 0
timestamp 76327000 us: [93 41 00] channel 4: note On F4 velocity: 0
timestamp 76365000 us: [93 41 66] channel 4: note On F4 velocity: 102
timestamp 76380000 us: [99 23 71] channel 10: note On B1 velocity: 113
timestamp 76381000 us: [99 28 60] channel 10: note On E2 velocity: 96
timestamp 76389000 us: [99 23 00] channel 10: note On B1 velocity: 0
timestamp 76390000 us: [99 28 00] channel 10: note On E2 velocity: 0
timestamp 76573000 us: [93 41 00] channel 4: note On F4 velocity: 0
timestamp 76670000 us: [93 41 69] channel 4: note On F4 velocity: 105
timestamp 76675000 us: [91 24 00] channel 2: note On C2 velocity: 0
timestamp 76719000 us: [91 1D 64] channel 2: note On F1 velocity: 100
timestamp 76748000 us: [92 3A 00] channel 3: note On A#3 velocity: 0
timestamp 76766000 us: [92 3E 00] channel 3: note On D4 velocity: 0
timestamp 76768000 us: [92 30 00] channel 3: note On C3 velocity: 0
timestamp 76782000 us: [92 41 00] channel 3: note On F4 velocity: 0
timestamp 76826000 us: [E4 00 0C] channel 5: pitch wheel change 1536
timestamp 76831000 us: [94 4D 70] channel 5: note On F5 velocity: 112
timestamp 76832000 us: [94 59 6A] channel 5: note On F6 velocity: 106
timestamp 76845000 us: [96 35 50] channel 7: note On F3 velocity: 80
timestamp 76847000 us: [99 23 6F] channel 10: note On B1 velocity: 111
timestamp 76848000 us: [99 31 42] channel 10: note On C#3 velocity: 66
timestamp 76852000 us: [92 35 42] channel 3: note On F3 velocity: 66
timestamp 76853000 us: [92 39 4E] channel 3: note On A3 velocity: 78
timestamp 76855000 us: [92 3C 51] channel 3: note On C4 velocity: 81
timestamp 76856000 us: [99 31 00] channel 10: note On C#3 velocity: 0
timestamp 76857000 us: [99 23 00] channel 10: note On B1 velocity: 0
timestamp 76861000 us: [96 39 48] channel 7: note On A3 velocity: 72
timestamp 76879000 us: [96 3C 4F] channel 7: note On C4 velocity: 79
timestamp 76980000 us: [93 41 00] channel 4: note On F4 velocity: 0
timestamp 76985000 us: [E4 00 16] channel 5: pitch wheel change 2816
timestamp 77004000 us: [E4 00 24] channel 5: pitch wheel change 4608
timestamp 77029000 us: [E4 00 30] channel 5: pitch wheel change 6144
timestamp 77048000 us: [E4 00 37] channel 5: pitch wheel change 7040
timestamp 77062000 us: [E4 00 40] channel 5: pitch wheel change 8192
timestamp 77072000 us: [92 35 00] channel 3: note On F3 velocity: 0
timestamp 77073000 us: [92 39 00] channel 3: note On A3 velocity: 0
timestamp 77077000 us: [92 3C 00] channel 3: note On C4 velocity: 0
timestamp 77140000 us: [96 3C 00] channel 7: note On C4 velocity: 0
timestamp 77141000 us: [96 39 00] channel 7: note On A3 velocity: 0
timestamp 77144000 us: [96 35 00] channel 7: note On F3 velocity: 0
timestamp 77155000 us: [96 35 46] channel 7: note On F3 velocity: 70
timestamp 77157000 us: [99 2A 27] channel 10: note On F#2 velocity: 39
timestamp 77164000 us: [99 2A 00] channel 10: note On F#2 velocity: 0
timestamp 77175000 us: [92 35 47] channel 3: note On F3 velocity: 71
timestamp 77280000 us: [92 35 00] channel 3: note On F3 velocity: 0
timestamp 77311000 us: [96 3A 60] channel 7: note On A#3 velocity: 96
timestamp 77312000 us: [99 23 6F] channel 10: note On B1 velocity: 111
timestamp 77313000 us: [99 2A 4B] channel 10: note On F#2 velocity: 75
timestamp 77315000 us: [92 35 47] channel 3: note On F3 velocity: 71
timestamp 77317000 us: [92 3A 53] channel 3: note On A#3 velocity: 83
timestamp 77318000 us: [92 3E 58] channel 3: note On D4 velocity: 88
timestamp 77319000 us: [99 28 5E] channel 10: note On E2 velocity: 94
timestamp 77322000 us: [99 2A 00] channel 10: note On F#2 velocity: 0
timestamp 77323000 us: [99 23 00] channel 10: note On B1 velocity: 0
timestamp 77324000 us: [99 28 00] channel 10: note On E2 velocity: 0
timestamp 77335000 us: [96 3E 5D] channel 7: note On D4 velocity: 93
timestamp 77377000 us: [92 3E 00] channel 3: note On D4 velocity: 0
timestamp 77378000 us: [92 3A 00] channel 3: note On A#3 velocity: 0
timestamp 77379000 us: [92 35 00] channel 3: note On F3 velocity: 0
timestamp 77484000 us: [96 35 00] channel 7: note On F3 velocity: 0
timestamp 77494000 us: [96 3A 00] channel 7: note On A#3 velocity: 0
timestamp 77503000 us: [96 3E 00] channel 7: note On D4 velocity: 0
timestamp 77552000 us: [94 59 00] channel 5: note On F6 velocity: 0
timestamp 77553000 us: [94 4D 00] channel 5: note On F5 velocity: 0
timestamp 77601000 us: [94 48 69] channel 5: note On C5 velocity: 105
timestamp 77603000 us: [94 54 5E] channel 5: note On C6 velocity: 94
timestamp 77621000 us: [96 35 43] channel 7: note On F3 velocity: 67
timestamp 77622000 us: [99 2A 27] channel 10: note On F#2 velocity: 39
timestamp 77629000 us: [99 2A 00] channel 10: note On F#2 velocity: 0
timestamp 77649000 us: [92 35 4A] channel 3: note On F3 velocity: 74
timestamp 77651000 us: [92 39 46] channel 3: note On A3 velocity: 70
timestamp 77652000 us: [92 3C 47] channel 3: note On C4 velocity: 71
timestamp 77692000 us: [94 54 00] channel 5: note On C6 velocity: 0
timestamp 77693000 us: [94 48 00] channel 5: note On C5 velocity: 0
timestamp 77756000 us: [94 4B 6B] channel 5: note On D#5 velocity: 107
timestamp 77758000 us: [94 57 60] channel 5: note On D#6 velocity: 96
timestamp 77770000 us: [96 35 00] channel 7: note On F3 velocity: 0
timestamp 77775000 us: [96 35 50] channel 7: note On F3 velocity: 80
timestamp 77777000 us: [99 23 6F] channel 10: note On B1 velocity: 111
timestamp 77778000 us: [99 2A 37] channel 10: note On F#2 velocity: 55
timestamp 77784000 us: [99 2A 00] channel 10: note On F#2 velocity: 0
timestamp 77785000 us: [99 23 00] channel 10: note On B1 velocity: 0
timestamp 77790000 us: [96 39 48] channel 7: note On A3 velocity: 72
timestamp 77809000 us: [96 3C 4F] channel 7: note On C4 velocity: 79
timestamp 77852000 us: [94 57 00] channel 5: note On D#6 velocity: 0
timestamp 77853000 us: [94 4B 00] channel 5: note On D#5 velocity: 0
timestamp 77911000 us: [94 48 67] channel 5: note On C5 velocity: 103
timestamp 77913000 us: [94 54 5C] channel 5: note On C6 velocity: 92
timestamp 77949000 us: [92 35 00] channel 3: note On F3 velocity: 0
timestamp 77997000 us: [92 39 00] channel 3: note On A3 velocity: 0
timestamp 78012000 us: [94 54 00] channel 5: note On C6 velocity: 0
timestamp 78013000 us: [94 48 00] channel 5: note On C5 velocity: 0
timestamp 78027000 us: [92 3C 00] channel 3: note On C4 velocity: 0
timestamp 78066000 us: [94 45 69] channel 5: note On A4 velocity: 105
timestamp 78068000 us: [94 51 5E] channel 5: note On A5 velocity: 94
timestamp 78071000 us: [96 3C 00] channel 7: note On C4 velocity: 0
timestamp 78071000 us: [96 39 00] channel 7: note On A3 velocity: 0
timestamp 78075000 us: [96 35 00] channel 7: note On F3 velocity: 0
timestamp 78085000 us: [96 35 43] channel 7: note On F3 velocity: 67
timestamp 78087000 us: [99 2A 27] channel 10: note On F#2 velocity: 39
timestamp 78094000 us: [99 2A 00] channel 10: note On F#2 velocity: 0
timestamp 78105000 us: [92 35 4A] channel 3: note On F3 velocity: 74
timestamp 78153000 us: [94 51 00] channel 5: note On A5 velocity: 0
timestamp 78153000 us: [94 45 00] channel 5: note On A4 velocity: 0
timestamp 78206000 us: [92 35 00] channel 3: note On F3 velocity: 0
timestamp 78221000 us: [94 41 67] channel 5: note On F4 velocity: 103
timestamp 78223000 us: [94 4D 5C] channel 5: note On F5 velocity: 92
timestamp 78241000 us: [96 3A 60] channel 7: note On A#3 velocity: 96
timestamp 78242000 us: [99 23 6F] channel 10: note On B1 velocity: 111
timestamp 78243000 us: [99 2A 4B] channel 10: note On F#2 velocity: 75
timestamp 78246000 us: [92 35 53] channel 3: note On F3 velocity: 83
timestamp 78247000 us: [92 3A 55] channel 3: note On A#3 velocity: 85
timestamp 78249000 us: [92 3E 57] channel 3: note On D4 velocity: 87
timestamp 78251000 us: [99 28 5E] channel 10: note On E2 velocity: 94
timestamp 78252000 us: [99 2A 00] channel 10: note On F#2 velocity: 0
timestamp 78253000 us: [99 23 00] channel 10: note On B1 velocity: 0
timestamp 78254000 us: [99 28 00] channel 10: note On E2 velocity: 0
timestamp 78265000 us: [96 3E 5D] channel 7: note On D4 velocity: 93
timestamp 78309000 us: [92 3E 00] channel 3: note On D4 velocity: 0
timestamp 78309000 us: [92 3A 00] channel 3: note On A#3 velocity: 0
timestamp 78310000 us: [92 35 00] channel 3: note On F3 velocity: 0
timestamp 78311000 us: [94 4D 00] channel 5: note On F5 velocity: 0
timestamp 78312000 us: [94 41 00] channel 5: note On F4 velocity: 0
timestamp 78376000 us: [94 3F 6D] channel 5: note On D#4 velocity: 109
timestamp 78378000 us: [94 4B 62] channel 5: note On D#5 velocity: 98
timestamp 78415000 us: [96 35 00] channel 7: note On F3 velocity: 0
timestamp 78424000 us: [96 3A 00] channel 7: note On A#3 velocity: 0
timestamp 78433000 us: [96 3E 00] channel 7: note On D4 velocity: 0
timestamp 78469000 us: [94 4B 00] channel 5: note On D#5 velocity: 0
timestamp 78470000 us: [94 3F 00] channel 5: note On D#4 velocity: 0
timestamp 78531000 us: [94 3C 68] channel 5: note On C4 velocity: 104
timestamp 78533000 us: [94 48 5D] channel 5: note On C5 velocity: 93
timestamp 78551000 us: [96 35 43] channel 7: note On F3 velocity: 67
timestamp 78552000 us: [99 2A 27] channel 10: note On F#2 velocity: 39
timestamp 78559000 us: [99 2A 00] channel 10: note On F#2 velocity: 0
timestamp 78580000 us: [92 35 43] channel 3: note On F3 velocity: 67
timestamp 78581000 us: [92 39 44] channel 3: note On A3 velocity: 68
timestamp 78583000 us: [92 3C 47] channel 3: note On C4 velocity: 71
timestamp 78623000 us: [94 48 00] channel 5: note On C5 velocity: 0
timestamp 78623000 us: [94 3C 00] channel 5: note On C4 velocity: 0
timestamp 78686000 us: [94 3F 6D] channel 5: note On D#4 velocity: 109
timestamp 78688000 us: [94 4B 62] channel 5: note On D#5 velocity: 98
timestamp 78701000 us: [96 35 00] channel 7: note On F3 velocity: 0
timestamp 78706000 us: [96 35 50] channel 7: note On F3 velocity: 80
timestamp 78708000 us: [99 23 6F] channel 10: note On B1 velocity: 111
timestamp 78709000 us: [99 2A 37] channel 10: note On F#2 velocity: 55
timestamp 78714000 us: [99 2A 00] channel 10: note On F#2 velocity: 0
timestamp 78715000 us: [99 23 00] channel 10: note On B1 velocity: 0
timestamp 78720000 us: [96 39 48] channel 7: note On A3 velocity: 72
timestamp 78739000 us: [96 3C 4F] channel 7: note On C4 velocity: 79
timestamp 78894000 us: [92 35 00] channel 3: note On F3 velocity: 0
timestamp 78933000 us: [94 4B 00] channel 5: note On D#5 velocity: 0
timestamp 78933000 us: [94 3F 00] channel 5: note On D#4 velocity: 0
timestamp 78959000 us: [92 39 00] channel 3: note On A3 velocity: 0
timestamp 78961000 us: [92 3C 00] channel 3: note On C4 velocity: 0
timestamp 78997000 us: [94 41 67] channel 5: note On F4 velocity: 103
timestamp 78998000 us: [94 4D 5C] channel 5: note On F5 velocity: 92
timestamp 79001000 us: [96 3C 00] channel 7: note On C4 velocity: 0
timestamp 79002000 us: [96 39 00] channel 7: note On A3 velocity: 0
timestamp 79005000 us: [96 35 00] channel 7: note On F3 velocity: 0
timestamp 79015000 us: [96 35 46] channel 7: note On F3 velocity: 70
timestamp 79017000 us: [99 2A 27] channel 10: note On F#2 velocity: 39
timestamp 79024000 us: [99 2A 00] channel 10: note On F#2 velocity: 0
timestamp 79035000 us: [92 35 48] channel 3: note On F3 velocity: 72
timestamp 79136000 us: [92 35 00] channel 3: note On F3 velocity: 0
timestamp 79171000 us: [92 3A 57] channel 3: note On A#3 velocity: 87
timestamp 79172000 us: [92 3E 57] channel 3: note On D4 velocity: 87
timestamp 79174000 us: [96 3A 60] channel 7: note On A#3 velocity: 96
timestamp 79175000 us: [99 23 6F] channel 10: note On B1 velocity: 111
timestamp 79177000 us: [99 2A 4B] channel 10: note On F#2 velocity: 75
timestamp 79179000 us: [92 35 50] channel 3: note On F3 velocity: 80
timestamp 79180000 us: [99 28 5E] channel 10: note On E2 velocity: 94
timestamp 79183000 us: [99 2A 00] channel 10: note On F#2 velocity: 0
timestamp 79183000 us: [99 23 00] channel 10: note On B1 velocity: 0
timestamp 79185000 us: [99 28 00] channel 10: note On E2 velocity: 0
timestamp 79195000 us: [96 3E 5D] channel 7: note On D4 velocity: 93
timestamp 79239000 us: [92 3E 00] channel 3: note On D4 velocity: 0
timestamp 79240000 us: [92 3A 00] channel 3: note On A#3 velocity: 0
timestamp 79241000 us: [92 35 00] channel 3: note On F3 velocity: 0
timestamp 79243000 us: [94 4D 00] channel 5: note On F5 velocity: 0
timestamp 79243000 us: [94 41 00] channel 5: note On F4 velocity: 0
timestamp 79345000 us: [96 35 00] channel 7: note On F3 velocity: 0
timestamp 79354000 us: [96 3A 00] channel 7: note On A#3 velocity: 0
timestamp 79364000 us: [96 3E 00] channel 7: note On D4 velocity: 0
timestamp 79462000 us: [94 3C 6D] channel 5: note On C4 velocity: 109
timestamp 79463000 us: [94 48 62] channel 5: note On C5 velocity: 98
timestamp 79481000 us: [96 35 43] channel 7: note On F3 velocity: 67
timestamp 79482000 us: [99 2A 27] channel 10: note On F#2 velocity: 39
timestamp 79489000 us: [99 2A 00] channel 10: note On F#2 velocity: 0
timestamp 79510000 us: [92 35 44] channel 3: note On F3 velocity: 68
timestamp 79511000 us: [92 39 44] channel 3: note On A3 velocity: 68
timestamp 79513000 us: [92 3C 47] channel 3: note On C4 velocity: 71
timestamp 79631000 us: [96 35 00] channel 7: note On F3 velocity: 0
timestamp 79635000 us: [96 35 50] channel 7: note On F3 velocity: 80
timestamp 79637000 us: [99 23 6F] channel 10: note On B1 velocity: 111
timestamp 79639000 us: [99 2A 37] channel 10: note On F#2 velocity: 55
timestamp 79644000 us: [99 2A 00] channel 10: note On F#2 velocity: 0
timestamp 79645000 us: [99 23 00] channel 10: note On B1 velocity: 0
timestamp 79650000 us: [96 39 48] channel 7: note On A3 velocity: 72
timestamp 79669000 us: [96 3C 4F] channel 7: note On C4 velocity: 79
timestamp 79858000 us: [92 35 00] channel 3: note On F3 velocity: 0
timestamp 79882000 us: [92 39 00] channel 3: note On A3 velocity: 0
timestamp 79921000 us: [92 3C 00] channel 3: note On C4 velocity: 0
timestamp 79926000 us: [99 28 32] channel 10: note On E2 velocity: 50
timestamp 79931000 us: [96 3C 00] channel 7: note On C4 velocity: 0
timestamp 79931000 us: [96 39 00] channel 7: note On A3 velocity: 0
timestamp 79935000 us: [96 35 00] channel 7: note On F3 velocity: 0
timestamp 79937000 us: [99 28 00] channel 10: note On E2 velocity: 0
timestamp 79946000 us: [96 35 43] channel 7: note On F3 velocity: 67
timestamp 79947000 us: [99 2A 3A] channel 10: note On F#2 velocity: 58
timestamp 79955000 us: [99 2A 00] channel 10: note On F#2 velocity: 0
timestamp 79965000 us: [92 35 47] channel 3: note On F3 velocity: 71
timestamp 79985000 us: [99 28 26] channel 10: note On E2 velocity: 38
timestamp 79993000 us: [99 28 00] channel 10: note On E2 velocity: 0
timestamp 80043000 us: [99 28 36] channel 10: note On E2 velocity: 54
timestamp 80048000 us: [92 35 00] channel 3: note On F3 velocity: 0
timestamp 80052000 us: [99 28 00] channel 10: note On E2 velocity: 0
timestamp 80101000 us: [96 3A 60] channel 7: note On A#3 velocity: 96
timestamp 80103000 us: [99 23 6F] channel 10: note On B1 velocity: 111
timestamp 80104000 us: [99 2A 40] channel 10: note On F#2 velocity: 64
timestamp 80106000 us: [92 3A 58] channel 3: note On A#3 velocity: 88
timestamp 80107000 us: [92 3E 58] channel 3: note On D4 velocity: 88
timestamp 80109000 us: [99 28 59] channel 10: note On E2 velocity: 89
timestamp 80114000 us: [92 35 50] channel 3: note On F3 velocity: 80
timestamp 80115000 us: [99 2A 00] channel 10: note On F#2 velocity: 0
timestamp 80116000 us: [99 23 00] channel 10: note On B1 velocity: 0
timestamp 80117000 us: [99 28 00] channel 10: note On E2 velocity: 0
timestamp 80126000 us: [96 3E 5D] channel 7: note On D4 velocity: 93
timestamp 80168000 us: [92 3E 00] channel 3: note On D4 velocity: 0
timestamp 80169000 us: [92 3A 00] channel 3: note On A#3 velocity: 0
timestamp 80173000 us: [92 35 00] channel 3: note On F3 velocity: 0
timestamp 80275000 us: [96 35 00] channel 7: note On F3 velocity: 0
timestamp 80284000 us: [96 3A 00] channel 7: note On A#3 velocity: 0
timestamp 80294000 us: [96 3E 00] channel 7: note On D4 velocity: 0
timestamp 80328000 us: [94 48 00] channel 5: note On C5 velocity: 0
timestamp 80329000 us: [94 3C 00] channel 5: note On C4 velocity: 0
timestamp 80411000 us: [93 41 51] channel 4: note On F4 velocity: 81
timestamp 80413000 us: [96 35 43] channel 7: note On F3 velocity: 67
timestamp 80414000 us: [99 28 54] channel 10: note On E2 velocity: 84
timestamp 80420000 us: [99 28 00] channel 10: note On E2 velocity: 0
timestamp 80440000 us: [92 35 42] channel 3: note On F3 velocity: 66
timestamp 80441000 us: [92 39 47] channel 3: note On A3 velocity: 71
timestamp 80443000 us: [92 3C 49] channel 3: note On C4 velocity: 73
timestamp 80551000 us: [93 41 00] channel 4: note On F4 velocity: 0
timestamp 80561000 us: [91 1D 00] channel 2: note On F1 velocity: 0
timestamp 80562000 us: [96 35 00] channel 7: note On F3 velocity: 0
timestamp 80566000 us: [91 1D 66] channel 2: note On F1 velocity: 102
timestamp 80568000 us: [93 45 68] channel 4: note On A4 velocity: 104
timestamp 80569000 us: [95 30 4E] channel 6: note On C3 velocity: 78
timestamp 80571000 us: [96 35 52] channel 7: note On F3 velocity: 82
timestamp 80572000 us: [99 23 71] channel 10: note On B1 velocity: 113
timestamp 80574000 us: [99 31 45] channel 10: note On C#3 velocity: 69
timestamp 80579000 us: [99 31 00] channel 10: note On C#3 velocity: 0
timestamp 80580000 us: [99 23 00] channel 10: note On B1 velocity: 0
timestamp 80582000 us: [96 39 4A] channel 7: note On A3 velocity: 74
timestamp 80600000 us: [96 3C 51] channel 7: note On C4 velocity: 81
timestamp 80780000 us: [92 3C 00] channel 3: note On C4 velocity: 0
timestamp 80780000 us: [92 39 00] channel 3: note On A3 velocity: 0
timestamp 80781000 us: [92 35 00] channel 3: note On F3 velocity: 0
timestamp 80818000 us: [93 45 00] channel 4: note On A4 velocity: 0
timestamp 80838000 us: [95 30 00] channel 6: note On C3 velocity: 0
timestamp 80861000 us: [96 3C 00] channel 7: note On C4 velocity: 0
timestamp 80862000 us: [96 39 00] channel 7: note On A3 velocity: 0
timestamp 80865000 us: [96 35 00] channel 7: note On F3 velocity: 0
timestamp 80876000 us: [93 45 5D] channel 4: note On A4 velocity: 93
timestamp 80878000 us: [95 30 31] channel 6: note On C3 velocity: 49
timestamp 80879000 us: [96 35 48] channel 7: note On F3 velocity: 72
timestamp 80880000 us: [99 2A 29] channel 10: note On F#2 velocity: 41
timestamp 80885000 us: [99 2A 00] channel 10: note On F#2 velocity: 0
timestamp 80896000 us: [92 35 49] channel 3: note On F3 velocity: 73
timestamp 80953000 us: [95 30 00] channel 6: note On C3 velocity: 0
timestamp 80997000 us: [93 45 00] channel 4: note On A4 velocity: 0
timestamp 81001000 us: [92 35 00] channel 3: note On F3 velocity: 0
timestamp 81031000 us: [92 35 49] channel 3: note On F3 velocity: 73
timestamp 81033000 us: [92 3A 55] channel 3: note On A#3 velocity: 85
timestamp 81034000 us: [92 3E 5A] channel 3: note On D4 velocity: 90
timestamp 81036000 us: [93 45 64] channel 4: note On A4 velocity: 100
timestamp 81038000 us: [95 2E 3B] channel 6: note On A#2 velocity: 59
timestamp 81039000 us: [95 32 50] channel 6: note On D3 velocity: 80
timestamp 81040000 us: [96 3A 62] channel 7: note On A#3 velocity: 98
timestamp 81042000 us: [99 23 71] channel 10: note On B1 velocity: 113
timestamp 81043000 us: [99 2A 4D] channel 10: note On F#2 velocity: 77
timestamp 81045000 us: [99 28 60] channel 10: note On E2 velocity: 96
timestamp 81049000 us: [99 2A 00] channel 10: note On F#2 velocity: 0
timestamp 81049000 us: [99 23 00] channel 10: note On B1 velocity: 0
timestamp 81050000 us: [99 28 00] channel 10: note On E2 velocity: 0
timestamp 81056000 us: [96 3E 5F] channel 7: note On D4 velocity: 95
timestamp 81099000 us: [92 3E 00] channel 3: note On D4 velocity: 0
timestamp 81099000 us: [92 3A 00] channel 3: note On A#3 velocity: 0
timestamp 81100000 us: [92 35 00] channel 3: note On F3 velocity: 0
timestamp 81152000 us: [95 32 00] channel 6: note On D3 velocity: 0
timestamp 81152000 us: [95 2E 00] channel 6: note On A#2 velocity: 0
timestamp 81161000 us: [93 45 00] channel 4: note On A4 velocity: 0
timestamp 81186000 us: [93 45 55] channel 4: note On A4 velocity: 85
timestamp 81205000 us: [96 35 00] channel 7: note On F3 velocity: 0
timestamp 81215000 us: [96 3A 00] channel 7: note On A#3 velocity: 0
timestamp 81224000 us: [96 3E 00] channel 7: note On D4 velocity: 0
timestamp 81336000 us: [93 45 00] channel 4: note On A4 velocity: 0
timestamp 81341000 us: [93 41 66] channel 4: note On F4 velocity: 102
timestamp 81343000 us: [95 30 32] channel 6: note On C3 velocity: 50
timestamp 81344000 us: [96 35 45] channel 7: note On F3 velocity: 69
timestamp 81346000 us: [99 2A 29] channel 10: note On F#2 velocity: 41
timestamp 81350000 us: [99 2A 00] channel 10: note On F#2 velocity: 0
timestamp 81370000 us: [92 35 4C] channel 3: note On F3 velocity: 76
timestamp 81371000 us: [92 39 48] channel 3: note On A3 velocity: 72
timestamp 81373000 us: [92 3C 49] channel 3: note On C4 velocity: 73
timestamp 81412000 us: [95 30 00] channel 6: note On C3 velocity: 0
timestamp 81491000 us: [96 35 00] channel 7: note On F3 velocity: 0
timestamp 81496000 us: [95 30 49] channel 6: note On C3 velocity: 73
timestamp 81498000 us: [96 35 52] channel 7: note On F3 velocity: 82
timestamp 81500000 us: [99 23 71] channel 10: note On B1 velocity: 113
timestamp 81500000 us: [99 2A 39] channel 10: note On F#2 velocity: 57
timestamp 81505000 us: [99 2A 00] channel 10: note On F#2 velocity: 0
timestamp 81506000 us: [99 23 00] channel 10: note On B1 velocity: 0
timestamp 81511000 us: [96 39 4A] channel 7: note On A3 velocity: 74
timestamp 81530000 us: [96 3C 51] channel 7: note On C4 velocity: 81
timestamp 81583000 us: [93 41 00] channel 4: note On F4 velocity: 0
timestamp 81651000 us: [93 41 63] channel 4: note On F4 velocity: 99
timestamp 81670000 us: [92 35 00] channel 3: note On F3 velocity: 0
timestamp 81718000 us: [92 39 00] channel 3: note On A3 velocity: 0
timestamp 81748000 us: [92 3C 00] channel 3: note On C4 velocity: 0
timestamp 81760000 us: [95 30 00] channel 6: note On C3 velocity: 0
timestamp 81791000 us: [96 3C 00] channel 7: note On C4 velocity: 0
timestamp 81792000 us: [96 39 00] channel 7: note On A3 velocity: 0
timestamp 81796000 us: [96 35 00] channel 7: note On F3 velocity: 0
timestamp 81806000 us: [95 30 35] channel 6: note On C3 velocity: 53
timestamp 81808000 us: [96 35 45] channel 7: note On F3 velocity: 69
timestamp 81809000 us: [99 2A 29] channel 10: note On F#2 velocity: 41
timestamp 81815000 us: [99 2A 00] channel 10: note On F#2 velocity: 0
timestamp 81826000 us: [92 35 4C] channel 3: note On F3 velocity: 76
timestamp 81864000 us: [93 41 00] channel 4: note On F4 velocity: 0
timestamp 81928000 us: [92 35 00] channel 3: note On F3 velocity: 0
timestamp 81962000 us: [95 2E 3C] channel 6: note On A#2 velocity: 60
timestamp 81963000 us: [95 32 50] channel 6: note On D3 velocity: 80
timestamp 81965000 us: [96 3A 62] channel 7: note On A#3 velocity: 98
timestamp 81966000 us: [99 23 71] channel 10: note On B1 velocity: 113
timestamp 81967000 us: [99 2A 4D] channel 10: note On F#2 velocity: 77
timestamp 81969000 us: [92 35 55] channel 3: note On F3 velocity: 85
timestamp 81970000 us: [92 3A 57] channel 3: note On A#3 velocity: 87
timestamp 81972000 us: [92 3E 59] channel 3: note On D4 velocity: 89
timestamp 81973000 us: [95 30 00] channel 6: note On C3 velocity: 0
timestamp 81975000 us: [99 28 60] channel 10: note On E2 velocity: 96
timestamp 81980000 us: [99 2A 00] channel 10: note On F#2 velocity: 0
timestamp 81981000 us: [99 23 00] channel 10: note On B1 velocity: 0
timestamp 81981000 us: [99 28 00] channel 10: note On E2 velocity: 0
timestamp 81986000 us: [96 3E 5F] channel 7: note On D4 velocity: 95
timestamp 82029000 us: [92 3E 00] channel 3: note On D4 velocity: 0
timestamp 82029000 us: [92 3A 00] channel 3: note On A#3 velocity: 0
timestamp 82030000 us: [92 35 00] channel 3: note On F3 velocity: 0
timestamp 82078000 us: [95 32 00] channel 6: note On D3 velocity: 0
timestamp 82079000 us: [95 2E 00] channel 6: note On A#2 velocity: 0
timestamp 82135000 us: [96 35 00] channel 7: note On F3 velocity: 0
timestamp 82145000 us: [96 3A 00] channel 7: note On A#3 velocity: 0
timestamp 82154000 us: [96 3E 00] channel 7: note On D4 velocity: 0
timestamp 82272000 us: [93 41 43] channel 4: note On F4 velocity: 67
timestamp 82273000 us: [95 30 33] channel 6: note On C3 velocity: 51
timestamp 82275000 us: [96 35 45] channel 7: note On F3 velocity: 69
timestamp 82276000 us: [99 2A 29] channel 10: note On F#2 velocity: 41
timestamp 82280000 us: [99 2A 00] channel 10: note On F#2 velocity: 0
timestamp 82301000 us: [92 35 45] channel 3: note On F3 velocity: 69
timestamp 82302000 us: [92 39 46] channel 3: note On A3 velocity: 70
timestamp 82303000 us: [92 3C 49] channel 3: note On C4 velocity: 73
timestamp 82353000 us: [93 41 00] channel 4: note On F4 velocity: 0
timestamp 82368000 us: [95 30 00] channel 6: note On C3 velocity: 0
timestamp 82421000 us: [96 35 00] channel 7: note On F3 velocity: 0
timestamp 82427000 us: [93 45 64] channel 4: note On A4 velocity: 100
timestamp 82429000 us: [95 30 46] channel 6: note On C3 velocity: 70
timestamp 82430000 us: [96 35 52] channel 7: note On F3 velocity: 82
timestamp 82432000 us: [99 23 71] channel 10: note On B1 velocity: 113
timestamp 82433000 us: [99 2A 39] channel 10: note On F#2 velocity: 57
timestamp 82436000 us: [99 2A 00] channel 10: note On F#2 velocity: 0
timestamp 82436000 us: [99 23 00] channel 10: note On B1 velocity: 0
timestamp 82441000 us: [96 39 4A] channel 7: note On A3 velocity: 74
timestamp 82460000 us: [96 3C 51] channel 7: note On C4 velocity: 81
timestamp 82615000 us: [92 35 00] channel 3: note On F3 velocity: 0
timestamp 82663000 us: [93 45 00] channel 4: note On A4 velocity: 0
timestamp 82678000 us: [92 39 00] channel 3: note On A3 velocity: 0
timestamp 82682000 us: [92 3C 00] channel 3: note On C4 velocity: 0
timestamp 82702000 us: [95 30 00] channel 6: note On C3 velocity: 0
timestamp 82721000 us: [96 3C 00] channel 7: note On C4 velocity: 0
timestamp 82722000 us: [96 39 00] channel 7: note On A3 velocity: 0
timestamp 82726000 us: [96 35 00] channel 7: note On F3 velocity: 0
timestamp 82737000 us: [93 45 58] channel 4: note On A4 velocity: 88
timestamp 82738000 us: [95 30 36] channel 6: note On C3 velocity: 54
timestamp 82740000 us: [96 35 48] channel 7: note On F3 velocity: 72
timestamp 82741000 us: [99 2A 29] channel 10: note On F#2 velocity: 41
timestamp 82745000 us: [99 2A 00] channel 10: note On F#2 velocity: 0
timestamp 82756000 us: [92 35 4A] channel 3: note On F3 velocity: 74
timestamp 82852000 us: [93 45 00] channel 4: note On A4 velocity: 0
timestamp 82858000 us: [92 35 00] channel 3: note On F3 velocity: 0
timestamp 82886000 us: [95 30 00] channel 6: note On C3 velocity: 0
timestamp 82892000 us: [92 35 52] channel 3: note On F3 velocity: 82
timestamp 82893000 us: [92 3A 59] channel 3: note On A#3 velocity: 89
timestamp 82894000 us: [92 3E 59] channel 3: note On D4 velocity: 89
timestamp 82896000 us: [93 45 5F] channel 4: note On A4 velocity: 95
timestamp 82898000 us: [95 2E 3B] channel 6: note On A#2 velocity: 59
timestamp 82899000 us: [95 32 4F] channel 6: note On D3 velocity: 79
timestamp 82901000 us: [96 3A 62] channel 7: note On A#3 velocity: 98
timestamp 82902000 us: [99 23 71] channel 10: note On B1 velocity: 113
timestamp 82904000 us: [99 2A 4D] channel 10: note On F#2 velocity: 77
timestamp 82905000 us: [99 28 60] channel 10: note On E2 velocity: 96
timestamp 82911000 us: [99 2A 00] channel 10: note On F#2 velocity: 0
timestamp 82912000 us: [99 23 00] channel 10: note On B1 velocity: 0
timestamp 82913000 us: [99 28 00] channel 10: note On E2 velocity: 0
timestamp 82916000 us: [96 3E 5F] channel 7: note On D4 velocity: 95
timestamp 82960000 us: [92 3E 00] channel 3: note On D4 velocity: 0
timestamp 82961000 us: [92 3A 00] channel 3: note On A#3 velocity: 0
timestamp 82961000 us: [92 35 00] channel 3: note On F3 velocity: 0
timestamp 83036000 us: [95 32 00] channel 6: note On D3 velocity: 0
timestamp 83037000 us: [95 2E 00] channel 6: note On A#2 velocity: 0
timestamp 83065000 us: [96 35 00] channel 7: note On F3 velocity: 0
timestamp 83075000 us: [96 3A 00] channel 7: note On A#3 velocity: 0
timestamp 83085000 us: [96 3E 00] channel 7: note On D4 velocity: 0
timestamp 83138000 us: [93 45 00] channel 4: note On A4 velocity: 0
timestamp 83202000 us: [93 41 58] channel 4: note On F4 velocity: 88
timestamp 83203000 us: [95 30 32] channel 6: note On C3 velocity: 50
timestamp 83205000 us: [96 35 45] channel 7: note On F3 velocity: 69
timestamp 83206000 us: [99 2A 29] channel 10: note On F#2 velocity: 41
timestamp 83210000 us: [99 2A 00] channel 10: note On F#2 velocity: 0
timestamp 83231000 us: [92 35 46] channel 3: note On F3 velocity: 70
timestamp 83232000 us: [92 39 46] channel 3: note On A3 velocity: 70
timestamp 83234000 us: [92 3C 49] channel 3: note On C4 velocity: 73
timestamp 83303000 us: [95 30 00] channel 6: note On C3 velocity: 0
timestamp 83352000 us: [96 35 00] channel 7: note On F3 velocity: 0
timestamp 83357000 us: [95 30 49] channel 6: note On C3 velocity: 73
timestamp 83358000 us: [96 35 52] channel 7: note On F3 velocity: 82
timestamp 83360000 us: [99 23 71] channel 10: note On B1 velocity: 113
timestamp 83361000 us: [99 2A 39] channel 10: note On F#2 velocity: 57
timestamp 83365000 us: [99 2A 00] channel 10: note On F#2 velocity: 0
timestamp 83366000 us: [99 23 00] channel 10: note On B1 velocity: 0
timestamp 83371000 us: [96 39 4A] channel 7: note On A3 velocity: 74
timestamp 83390000 us: [96 3C 51] channel 7: note On C4 velocity: 81
timestamp 83478000 us: [93 41 00] channel 4: note On F4 velocity: 0
timestamp 83574000 us: [92 35 00] channel 3: note On F3 velocity: 0
timestamp 83603000 us: [92 39 00] channel 3: note On A3 velocity: 0
timestamp 83618000 us: [95 30 00] channel 6: note On C3 velocity: 0
timestamp 83642000 us: [92 3C 00] channel 3: note On C4 velocity: 0
timestamp 83652000 us: [96 3C 00] channel 7: note On C4 velocity: 0
timestamp 83652000 us: [96 39 00] channel 7: note On A3 velocity: 0
timestamp 83656000 us: [96 35 00] channel 7: note On F3 velocity: 0
timestamp 83667000 us: [95 30 34] channel 6: note On C3 velocity: 52
timestamp 83668000 us: [96 35 45] channel 7: note On F3 velocity: 69
timestamp 83670000 us: [99 2A 29] channel 10: note On F#2 velocity: 41
timestamp 83675000 us: [99 2A 00] channel 10: note On F#2 velocity: 0
timestamp 83686000 us: [92 35 49] channel 3: note On F3 velocity: 73
timestamp 83768000 us: [92 35 00] channel 3: note On F3 velocity: 0
timestamp 83802000 us: [95 30 00] channel 6: note On C3 velocity: 0
timestamp 83822000 us: [92 3A 5A] channel 3: note On A#3 velocity: 90
timestamp 83823000 us: [95 2E 3B] channel 6: note On A#2 velocity: 59
timestamp 83825000 us: [95 32 4F] channel 6: note On D3 velocity: 79
timestamp 83827000 us: [96 3A 62] channel 7: note On A#3 velocity: 98
timestamp 83828000 us: [99 23 71] channel 10: note On B1 velocity: 113
timestamp 83829000 us: [99 2A 4D] channel 10: note On F#2 velocity: 77
timestamp 83831000 us: [92 35 52] channel 3: note On F3 velocity: 82
timestamp 83833000 us: [92 3E 5A] channel 3: note On D4 velocity: 90
timestamp 83834000 us: [99 28 60] channel 10: note On E2 velocity: 96
timestamp 83837000 us: [99 2A 00] channel 10: note On F#2 velocity: 0
timestamp 83837000 us: [99 23 00] channel 10: note On B1 velocity: 0
timestamp 83838000 us: [99 28 00] channel 10: note On E2 velocity: 0
timestamp 83846000 us: [96 3E 5F] channel 7: note On D4 velocity: 95
timestamp 83889000 us: [92 3A 00] channel 3: note On A#3 velocity: 0
timestamp 83890000 us: [92 3E 00] channel 3: note On D4 velocity: 0
timestamp 83890000 us: [92 35 00] channel 3: note On F3 velocity: 0
timestamp 83933000 us: [95 32 00] channel 6: note On D3 velocity: 0
timestamp 83933000 us: [95 2E 00] channel 6: note On A#2 velocity: 0
timestamp 83996000 us: [96 35 00] channel 7: note On F3 velocity: 0
timestamp 84005000 us: [96 3A 00] channel 7: note On A#3 velocity: 0
timestamp 84015000 us: [96 3E 00] channel 7: note On D4 velocity: 0
timestamp 84126000 us: [91 1D 00] channel 2: note On F1 velocity: 0
timestamp 84132000 us: [93 41 56] channel 4: note On F4 velocity: 86
timestamp 84134000 us: [95 30 31] channel 6: note On C3 velocity: 49
timestamp 84135000 us: [96 35 45] channel 7: note On F3 velocity: 69
timestamp 84136000 us: [99 2A 29] channel 10: note On F#2 velocity: 41
timestamp 84141000 us: [99 2A 00] channel 10: note On F#2 velocity: 0
timestamp 84161000 us: [91 1D 66] channel 2: note On F1 velocity: 102
timestamp 84163000 us: [92 35 44] channel 3: note On F3 velocity: 68
timestamp 84164000 us: [92 39 49] channel 3: note On A3 velocity: 73
timestamp 84165000 us: [92 3C 4B] channel 3: note On C4 velocity: 75
timestamp 84262000 us: [93 41 00] channel 4: note On F4 velocity: 0
timestamp 84277000 us: [95 30 00] channel 6: note On C3 velocity: 0
timestamp 84282000 us: [96 35 00] channel 7: note On F3 velocity: 0
timestamp 84287000 us: [93 45 68] channel 4: note On A4 velocity: 104
timestamp 84289000 us: [95 30 4E] channel 6: note On C3 velocity: 78
timestamp 84290000 us: [96 35 52] channel 7: note On F3 velocity: 82
timestamp 84292000 us: [99 23 71] channel 10: note On B1 velocity: 113
timestamp 84293000 us: [99 2A 39] channel 10: note On F#2 velocity: 57
timestamp 84296000 us: [99 2A 00] channel 10: note On F#2 velocity: 0
timestamp 84296000 us: [99 23 00] channel 10: note On B1 velocity: 0
timestamp 84302000 us: [96 39 4A] channel 7: note On A3 velocity: 74
timestamp 84321000 us: [96 3C 51] channel 7: note On C4 velocity: 81
timestamp 84495000 us: [92 35 00] channel 3: note On F3 velocity: 0
timestamp 84499000 us: [92 3C 00] channel 3: note On C4 velocity: 0
timestamp 84500000 us: [92 39 00] channel 3: note On A3 velocity: 0
timestamp 84519000 us: [93 45 00] channel 4: note On A4 velocity: 0
timestamp 84561000 us: [95 30 00] channel 6: note On C3 velocity: 0
timestamp 84582000 us: [96 3C 00] channel 7: note On C4 velocity: 0
timestamp 84583000 us: [96 39 00] channel 7: note On A3 velocity: 0
timestamp 84586000 us: [96 35 00] channel 7: note On F3 velocity: 0
timestamp 84597000 us: [93 45 58] channel 4: note On A4 velocity: 88
timestamp 84599000 us: [95 30 31] channel 6: note On C3 velocity: 49
timestamp 84600000 us: [96 35 48] channel 7: note On F3 velocity: 72
timestamp 84601000 us: [99 2A 29] channel 10: note On F#2 velocity: 41
timestamp 84606000 us: [99 2A 00] channel 10: note On F#2 velocity: 0
timestamp 84616000 us: [92 35 49] channel 3: note On F3 velocity: 73
timestamp 84674000 us: [95 30 00] channel 6: note On C3 velocity: 0
timestamp 84703000 us: [93 45 00] channel 4: note On A4 velocity: 0
timestamp 84722000 us: [92 35 00] channel 3: note On F3 velocity: 0
timestamp 84752000 us: [93 46 63] channel 4: note On A#4 velocity: 99
timestamp 84754000 us: [95 2E 3B] channel 6: note On A#2 velocity: 59
timestamp 84755000 us: [95 32 50] channel 6: note On D3 velocity: 80
timestamp 84757000 us: [96 3A 62] channel 7: note On A#3 velocity: 98
timestamp 84759000 us: [99 23 71] channel 10: note On B1 velocity: 113
timestamp 84760000 us: [99 2A 4D] channel 10: note On F#2 velocity: 77
timestamp 84761000 us: [92 35 49] channel 3: note On F3 velocity: 73
timestamp 84763000 us: [92 3A 55] channel 3: note On A#3 velocity: 85
timestamp 84764000 us: [92 3E 5A] channel 3: note On D4 velocity: 90
timestamp 84767000 us: [99 28 60] channel 10: note On E2 velocity: 96
timestamp 84769000 us: [99 2A 00] channel 10: note On F#2 velocity: 0
timestamp 84769000 us: [99 23 00] channel 10: note On B1 velocity: 0
timestamp 84770000 us: [99 28 00] channel 10: note On E2 velocity: 0
timestamp 84777000 us: [96 3E 5F] channel 7: note On D4 velocity: 95
timestamp 84820000 us: [92 3E 00] channel 3: note On D4 velocity: 0
timestamp 84821000 us: [92 3A 00] channel 3: note On A#3 velocity: 0
timestamp 84821000 us: [92 35 00] channel 3: note On F3 velocity: 0
timestamp 84873000 us: [95 32 00] channel 6: note On D3 velocity: 0
timestamp 84873000 us: [95 2E 00] channel 6: note On A#2 velocity: 0
timestamp 84926000 us: [96 35 00] channel 7: note On F3 velocity: 0
timestamp 84936000 us: [96 3A 00] channel 7: note On A#3 velocity: 0
timestamp 84945000 us: [96 3E 00] channel 7: note On D4 velocity: 0
timestamp 85013000 us: [93 46 00] channel 4: note On A#4 velocity: 0
timestamp 85062000 us: [93 46 61] channel 4: note On A#4 velocity: 97
timestamp 85064000 us: [95 30 32] channel 6: note On C3 velocity: 50
timestamp 85065000 us: [96 35 45] channel 7: note On F3 velocity: 69
timestamp 85067000 us: [99 2A 29] channel 10: note On F#2 velocity: 41
timestamp 85071000 us: [99 2A 00] channel 10: note On F#2 velocity: 0
timestamp 85091000 us: [92 35 4C] channel 3: note On F3 velocity: 76
timestamp 85093000 us: [92 39 48] channel 3: note On A3 velocity: 72
timestamp 85094000 us: [92 3C 49] channel 3: note On C4 velocity: 73
timestamp 85131000 us: [95 30 00] channel 6: note On C3 velocity: 0
timestamp 85197000 us: [93 46 00] channel 4: note On A#4 velocity: 0
timestamp 85212000 us: [96 35 00] channel 7: note On F3 velocity: 0
timestamp 85217000 us: [93 48 63] channel 4: note On C5 velocity: 99
timestamp 85219000 us: [95 30 49] channel 6: note On C3 velocity: 73
timestamp 85220000 us: [96 35 52] channel 7: note On F3 velocity: 82
timestamp 85222000 us: [99 23 71] channel 10: note On B1 velocity: 113
timestamp 85223000 us: [99 2A 39] channel 10: note On F#2 velocity: 57
timestamp 85228000 us: [99 2A 00] channel 10: note On F#2 velocity: 0
timestamp 85228000 us: [99 23 00] channel 10: note On B1 velocity: 0
timestamp 85232000 us: [96 39 4A] channel 7: note On A3 velocity: 74
timestamp 85251000 us: [96 3C 51] channel 7: note On C4 velocity: 81
timestamp 85391000 us: [92 35 00] channel 3: note On F3 velocity: 0
timestamp 85421000 us: [93 48 00] channel 4: note On C5 velocity: 0
timestamp 85440000 us: [92 39 00] channel 3: note On A3 velocity: 0
timestamp 85468000 us: [92 3C 00] channel 3: note On C4 velocity: 0
timestamp 85481000 us: [95 30 00] channel 6: note On C3 velocity: 0
timestamp 85512000 us: [96 3C 00] channel 7: note On C4 velocity: 0
timestamp 85513000 us: [96 39 00] channel 7: note On A3 velocity: 0
timestamp 85517000 us: [96 35 00] channel 7: note On F3 velocity: 0
timestamp 85527000 us: [93 48 5A] channel 4: note On C5 velocity: 90
timestamp 85529000 us: [95 30 35] channel 6: note On C3 velocity: 53
timestamp 85530000 us: [96 35 45] channel 7: note On F3 velocity: 69
timestamp 85532000 us: [99 2A 29] channel 10: note On F#2 velocity: 41
timestamp 85536000 us: [99 2A 00] channel 10: note On F#2 velocity: 0
timestamp 85547000 us: [92 35 4C] channel 3: note On F3 velocity: 76
timestamp 85648000 us: [92 35 00] channel 3: note On F3 velocity: 0
timestamp 85662000 us: [93 48 00] channel 4: note On C5 velocity: 0
timestamp 85683000 us: [95 2E 3C] channel 6: note On A#2 velocity: 60
timestamp 85684000 us: [95 32 50] channel 6: note On D3 velocity: 80
timestamp 85686000 us: [96 3A 62] channel 7: note On A#3 velocity: 98
timestamp 85687000 us: [99 23 71] channel 10: note On B1 velocity: 113
timestamp 85688000 us: [99 2A 4D] channel 10: note On F#2 velocity: 77
timestamp 85690000 us: [92 35 55] channel 3: note On F3 velocity: 85
timestamp 85691000 us: [92 3A 57] channel 3: note On A#3 velocity: 87
timestamp 85693000 us: [92 3E 59] channel 3: note On D4 velocity: 89
timestamp 85694000 us: [95 30 00] channel 6: note On C3 velocity: 0
timestamp 85695000 us: [99 28 60] channel 10: note On E2 velocity: 96
timestamp 85700000 us: [99 2A 00] channel 10: note On F#2 velocity: 0
timestamp 85701000 us: [99 23 00] channel 10: note On B1 velocity: 0
timestamp 85702000 us: [99 28 00] channel 10: note On E2 velocity: 0
timestamp 85707000 us: [96 3E 5F] channel 7: note On D4 velocity: 95
timestamp 85750000 us: [92 3E 00] channel 3: note On D4 velocity: 0
timestamp 85750000 us: [92 3A 00] channel 3: note On A#3 velocity: 0
timestamp 85751000 us: [92 35 00] channel 3: note On F3 velocity: 0
timestamp 85799000 us: [95 32 00] channel 6: note On D3 velocity: 0
timestamp 85799000 us: [95 2E 00] channel 6: note On A#2 velocity: 0
timestamp 85856000 us: [96 35 00] channel 7: note On F3 velocity: 0
timestamp 85866000 us: [96 3A 00] channel 7: note On A#3 velocity: 0
timestamp 85875000 us: [96 3E 00] channel 7: note On D4 velocity: 0
timestamp 85993000 us: [93 48 58] channel 4: note On C5 velocity: 88
timestamp 85994000 us: [95 30 33] channel 6: note On C3 velocity: 51
timestamp 85995000 us: [96 35 45] channel 7: note On F3 velocity: 69
timestamp 85997000 us: [99 2A 29] channel 10: note On F#2 velocity: 41
timestamp 86002000 us: [99 2A 00] channel 10: note On F#2 velocity: 0
timestamp 86022000 us: [92 35 45] channel 3: note On F3 velocity: 69
timestamp 86023000 us: [92 39 46] channel 3: note On A3 velocity: 70
timestamp 86024000 us: [92 3C 49] channel 3: note On C4 velocity: 73
timestamp 86079000 us: [93 48 00] channel 4: note On C5 velocity: 0
timestamp 86089000 us: [95 30 00] channel 6: note On C3 velocity: 0
timestamp 86142000 us: [96 35 00] channel 7: note On F3 velocity: 0
timestamp 86148000 us: [93 48 61] channel 4: note On C5 velocity: 97
timestamp 86150000 us: [95 30 46] channel 6: note On C3 velocity: 70
timestamp 86151000 us: [96 35 52] channel 7: note On F3 velocity: 82
timestamp 86153000 us: [99 23 71] channel 10: note On B1 velocity: 113
timestamp 86153000 us: [99 2A 39] channel 10: note On F#2 velocity: 57
timestamp 86156000 us: [99 2A 00] channel 10: note On F#2 velocity: 0
timestamp 86157000 us: [99 23 00] channel 10: note On B1 velocity: 0
timestamp 86162000 us: [96 39 4A] channel 7: note On A3 velocity: 74
timestamp 86181000 us: [96 3C 51] channel 7: note On C4 velocity: 81
timestamp 86336000 us: [92 35 00] channel 3: note On F3 velocity: 0
timestamp 86379000 us: [93 48 00] channel 4: note On C5 velocity: 0
timestamp 86399000 us: [92 39 00] channel 3: note On A3 velocity: 0
timestamp 86404000 us: [92 3C 00] channel 3: note On C4 velocity: 0
timestamp 86423000 us: [95 30 00] channel 6: note On C3 velocity: 0
timestamp 86442000 us: [96 3C 00] channel 7: note On C4 velocity: 0
timestamp 86443000 us: [96 39 00] channel 7: note On A3 velocity: 0
timestamp 86447000 us: [96 35 00] channel 7: note On F3 velocity: 0
timestamp 86458000 us: [93 48 5C] channel 4: note On C5 velocity: 92
timestamp 86459000 us: [95 30 36] channel 6: note On C3 velocity: 54
timestamp 86461000 us: [96 35 48] channel 7: note On F3 velocity: 72
timestamp 86462000 us: [99 2A 29] channel 10: note On F#2 velocity: 41
timestamp 86466000 us: [99 2A 00] channel 10: note On F#2 velocity: 0
timestamp 86477000 us: [92 35 4A] channel 3: note On F3 velocity: 74
timestamp 86573000 us: [93 48 00] channel 4: note On C5 velocity: 0
timestamp 86579000 us: [92 35 00] channel 3: note On F3 velocity: 0
timestamp 86607000 us: [95 30 00] channel 6: note On C3 velocity: 0
timestamp 86613000 us: [92 3A 59] channel 3: note On A#3 velocity: 89
timestamp 86614000 us: [92 3E 59] channel 3: note On D4 velocity: 89
timestamp 86616000 us: [93 48 58] channel 4: note On C5 velocity: 88
timestamp 86617000 us: [95 2E 3B] channel 6: note On A#2 velocity: 59
timestamp 86619000 us: [95 32 4F] channel 6: note On D3 velocity: 79
timestamp 86620000 us: [96 3A 62] channel 7: note On A#3 velocity: 98
timestamp 86622000 us: [99 23 71] channel 10: note On B1 velocity: 113
timestamp 86623000 us: [99 2A 4D] channel 10: note On F#2 velocity: 77
timestamp 86625000 us: [92 35 52] channel 3: note On F3 velocity: 82
timestamp 86627000 us: [99 28 60] channel 10: note On E2 velocity: 96
timestamp 86632000 us: [99 2A 00] channel 10: note On F#2 velocity: 0
timestamp 86632000 us: [99 23 00] channel 10: note On B1 velocity: 0
timestamp 86633000 us: [99 28 00] channel 10: note On E2 velocity: 0
timestamp 86637000 us: [96 3E 5F] channel 7: note On D4 velocity: 95
timestamp 86680000 us: [92 3E 00] channel 3: note On D4 velocity: 0
timestamp 86681000 us: [92 3A 00] channel 3: note On A#3 velocity: 0
timestamp 86681000 us: [92 35 00] channel 3: note On F3 velocity: 0
timestamp 86757000 us: [95 32 00] channel 6: note On D3 velocity: 0
timestamp 86758000 us: [95 2E 00] channel 6: note On A#2 velocity: 0
timestamp 86786000 us: [96 35 00] channel 7: note On F3 velocity: 0
timestamp 86796000 us: [96 3A 00] channel 7: note On A#3 velocity: 0
timestamp 86806000 us: [96 3E 00] channel 7: note On D4 velocity: 0
timestamp 86840000 us: [93 48 00] channel 4: note On C5 velocity: 0
timestamp 86923000 us: [93 4A 5C] channel 4: note On D5 velocity: 92
timestamp 86924000 us: [95 30 32] channel 6: note On C3 velocity: 50
timestamp 86926000 us: [96 35 45] channel 7: note On F3 velocity: 69
timestamp 86927000 us: [99 2A 29] channel 10: note On F#2 velocity: 41
timestamp 86932000 us: [99 2A 00] channel 10: note On F#2 velocity: 0
timestamp 86952000 us: [92 35 46] channel 3: note On F3 velocity: 70
timestamp 86953000 us: [92 39 46] channel 3: note On A3 velocity: 70
timestamp 86955000 us: [92 3C 49] channel 3: note On C4 velocity: 73
timestamp 87024000 us: [95 30 00] channel 6: note On C3 velocity: 0
timestamp 87072000 us: [93 4A 00] channel 4: note On D5 velocity: 0
timestamp 87073000 us: [96 35 00] channel 7: note On F3 velocity: 0
timestamp 87078000 us: [93 45 64] channel 4: note On A4 velocity: 100
timestamp 87079000 us: [95 30 49] channel 6: note On C3 velocity: 73
timestamp 87081000 us: [96 35 52] channel 7: note On F3 velocity: 82
timestamp 87082000 us: [99 23 71] channel 10: note On B1 velocity: 113
timestamp 87084000 us: [99 2A 39] channel 10: note On F#2 velocity: 57
timestamp 87086000 us: [99 2A 00] channel 10: note On F#2 velocity: 0
timestamp 87087000 us: [99 23 00] channel 10: note On B1 velocity: 0
timestamp 87092000 us: [96 39 4A] channel 7: note On A3 velocity: 74
timestamp 87111000 us: [96 3C 51] channel 7: note On C4 velocity: 81
timestamp 87301000 us: [92 35 00] channel 3: note On F3 velocity: 0
timestamp 87324000 us: [92 39 00] channel 3: note On A3 velocity: 0
timestamp 87329000 us: [93 45 00] channel 4: note On A4 velocity: 0
timestamp 87339000 us: [95 30 00] channel 6: note On C3 velocity: 0
timestamp 87363000 us: [92 3C 00] channel 3: note On C4 velocity: 0
timestamp 87373000 us: [96 3C 00] channel 7: note On C4 velocity: 0
timestamp 87373000 us: [96 39 00] channel 7: note On A3 velocity: 0
timestamp 87377000 us: [96 35 00] channel 7: note On F3 velocity: 0
timestamp 87388000 us: [93 41 5F] channel 4: note On F4 velocity: 95
timestamp 87389000 us: [95 30 34] channel 6: note On C3 velocity: 52
timestamp 87391000 us: [96 35 45] channel 7: note On F3 velocity: 69
timestamp 87392000 us: [99 2A 3C] channel 10: note On F#2 velocity: 60
timestamp 87394000 us: [99 28 60] channel 10: note On E2 velocity: 96
timestamp 87396000 us: [99 2A 00] channel 10: note On F#2 velocity: 0
timestamp 87397000 us: [99 28 00] channel 10: note On E2 velocity: 0
timestamp 87407000 us: [92 35 49] channel 3: note On F3 velocity: 73
timestamp 87489000 us: [92 35 00] channel 3: note On F3 velocity: 0
timestamp 87523000 us: [95 30 00] channel 6: note On C3 velocity: 0
timestamp 87537000 us: [93 41 00] channel 4: note On F4 velocity: 0
timestamp 87543000 us: [93 41 5F] channel 4: note On F4 velocity: 95
timestamp 87545000 us: [95 2E 3B] channel 6: note On A#2 velocity: 59
timestamp 87546000 us: [95 32 4F] channel 6: note On D3 velocity: 79
timestamp 87548000 us: [96 3A 62] channel 7: note On A#3 velocity: 98
timestamp 87549000 us: [97 41 52] channel 8: note On F4 velocity: 82
timestamp 87551000 us: [97 45 64] channel 8: note On A4 velocity: 100
timestamp 87552000 us: [99 23 71] channel 10: note On B1 velocity: 113
timestamp 87553000 us: [99 2A 42] channel 10: note On F#2 velocity: 66
timestamp 87555000 us: [92 3A 5A] channel 3: note On A#3 velocity: 90
timestamp 87557000 us: [92 3E 5A] channel 3: note On D4 velocity: 90
timestamp 87559000 us: [99 28 50] channel 10: note On E2 velocity: 80
timestamp 87562000 us: [92 35 52] channel 3: note On F3 velocity: 82
timestamp 87563000 us: [99 2A 00] channel 10: note On F#2 velocity: 0
timestamp 87564000 us: [99 23 00] channel 10: note On B1 velocity: 0
timestamp 87565000 us: [99 28 00] channel 10: note On E2 velocity: 0
timestamp 87567000 us: [96 3E 5F] channel 7: note On D4 velocity: 95
timestamp 87654000 us: [95 32 00] channel 6: note On D3 velocity: 0
timestamp 87655000 us: [95 2E 00] channel 6: note On A#2 velocity: 0
timestamp 87717000 us: [96 35 00] channel 7: note On F3 velocity: 0
timestamp 87726000 us: [96 3A 00] channel 7: note On A#3 velocity: 0
timestamp 87736000 us: [96 3E 00] channel 7: note On D4 velocity: 0
timestamp 87741000 us: [92 3E 00] channel 3: note On D4 velocity: 0
timestamp 87741000 us: [92 3A 00] channel 3: note On A#3 velocity: 0
timestamp 87745000 us: [92 35 00] channel 3: note On F3 velocity: 0
timestamp 87847000 us: [93 41 00] channel 4: note On F4 velocity: 0
timestamp 87853000 us: [92 33 1B] channel 3: note On D#3 velocity: 27
timestamp 87854000 us: [93 3F 5B] channel 4: note On D#4 velocity: 91
timestamp 87856000 us: [95 30 31] channel 6: note On C3 velocity: 49
timestamp 87857000 us: [96 35 45] channel 7: note On F3 velocity: 69
timestamp 87859000 us: [97 3F 4F] channel 8: note On D#4 velocity: 79
timestamp 87860000 us: [97 43 61] channel 8: note On G4 velocity: 97
timestamp 87862000 us: [99 28 4C] channel 10: note On E2 velocity: 76
timestamp 87865000 us: [97 45 00] channel 8: note On A4 velocity: 0
timestamp 87865000 us: [97 41 00] channel 8: note On F4 velocity: 0
timestamp 87867000 us: [99 28 00] channel 10: note On E2 velocity: 0
timestamp 87925000 us: [92 33 00] channel 3: note On D#3 velocity: 0
timestamp 87998000 us: [95 30 00] channel 6: note On C3 velocity: 0
timestamp 88003000 us: [91 1D 00] channel 2: note On F1 velocity: 0
timestamp 88003000 us: [96 35 00] channel 7: note On F3 velocity: 0
timestamp 88008000 us: [91 1B 66] channel 2: note On D#1 velocity: 102
timestamp 88010000 us: [92 33 4C] channel 3: note On D#3 velocity: 76
timestamp 88011000 us: [92 37 4F] channel 3: note On G3 velocity: 79
timestamp 88012000 us: [92 3A 48] channel 3: note On A#3 velocity: 72
timestamp 88014000 us: [95 2E 4E] channel 6: note On A#2 velocity: 78
timestamp 88015000 us: [96 33 52] channel 7: note On D#3 velocity: 82
timestamp 88017000 us: [99 23 71] channel 10: note On B1 velocity: 113
timestamp 88019000 us: [99 31 45] channel 10: note On C#3 velocity: 69
timestamp 88023000 us: [99 31 00] channel 10: note On C#3 velocity: 0
timestamp 88024000 us: [99 23 00] channel 10: note On B1 velocity: 0
timestamp 88026000 us: [96 37 4A] channel 7: note On G3 velocity: 74
timestamp 88042000 us: [96 3A 51] channel 7: note On A#3 velocity: 81
timestamp 88201000 us: [92 33 00] channel 3: note On D#3 velocity: 0
timestamp 88245000 us: [97 3F 00] channel 8: note On D#4 velocity: 0
timestamp 88245000 us: [97 43 00] channel 8: note On G4 velocity: 0
timestamp 88270000 us: [92 3A 00] channel 3: note On A#3 velocity: 0
timestamp 88271000 us: [93 3F 00] channel 4: note On D#4 velocity: 0
timestamp 88279000 us: [95 2E 00] channel 6: note On A#2 velocity: 0
timestamp 88303000 us: [96 3A 00] channel 7: note On A#3 velocity: 0
timestamp 88304000 us: [96 37 00] channel 7: note On G3 velocity: 0
timestamp 88307000 us: [96 33 00] channel 7: note On D#3 velocity: 0
timestamp 88318000 us: [92 33 5A] channel 3: note On D#3 velocity: 90
timestamp 88320000 us: [95 2E 31] channel 6: note On A#2 velocity: 49
timestamp 88321000 us: [96 33 48] channel 7: note On D#3 velocity: 72
timestamp 88322000 us: [99 2A 29] channel 10: note On F#2 velocity: 41
timestamp 88327000 us: [99 2A 00] channel 10: note On F#2 velocity: 0
timestamp 88356000 us: [92 37 00] channel 3: note On G3 velocity: 0
timestamp 88395000 us: [95 2E 00] channel 6: note On A#2 velocity: 0
timestamp 88473000 us: [92 38 56] channel 3: note On G#3 velocity: 86
timestamp 88474000 us: [92 3C 56] channel 3: note On C4 velocity: 86
timestamp 88476000 us: [95 2C 3B] channel 6: note On G#2 velocity: 59
timestamp 88477000 us: [95 30 50] channel 6: note On C3 velocity: 80
timestamp 88479000 us: [96 38 62] channel 7: note On G#3 velocity: 98
timestamp 88481000 us: [99 23 71] channel 10: note On B1 velocity: 113
timestamp 88482000 us: [99 2A 4D] channel 10: note On F#2 velocity: 77
timestamp 88484000 us: [99 28 60] channel 10: note On E2 velocity: 96
timestamp 88487000 us: [99 2A 00] channel 10: note On F#2 velocity: 0
timestamp 88487000 us: [99 23 00] channel 10: note On B1 velocity: 0
timestamp 88488000 us: [99 28 00] channel 10: note On E2 velocity: 0
timestamp 88497000 us: [96 3C 5F] channel 7: note On C4 velocity: 95
timestamp 88594000 us: [95 30 00] channel 6: note On C3 velocity: 0
timestamp 88595000 us: [95 2C 00] channel 6: note On G#2 velocity: 0
timestamp 88647000 us: [96 33 00] channel 7: note On D#3 velocity: 0
timestamp 88656000 us: [96 38 00] channel 7: note On G#3 velocity: 0
timestamp 88666000 us: [92 3C 00] channel 3: note On C4 velocity: 0
timestamp 88667000 us: [96 3C 00] channel 7: note On C4 velocity: 0
timestamp 88686000 us: [92 33 00] channel 3: note On D#3 velocity: 0
timestamp 88705000 us: [92 38 00] channel 3: note On G#3 velocity: 0
timestamp 88783000 us: [92 33 53] channel 3: note On D#3 velocity: 83
timestamp 88784000 us: [92 37 53] channel 3: note On G3 velocity: 83
timestamp 88786000 us: [92 3A 48] channel 3: note On A#3 velocity: 72
timestamp 88788000 us: [95 2E 32] channel 6: note On A#2 velocity: 50
timestamp 88789000 us: [96 33 45] channel 7: note On D#3 velocity: 69
timestamp 88791000 us: [99 2A 29] channel 10: note On F#2 velocity: 41
timestamp 88794000 us: [99 2A 00] channel 10: note On F#2 velocity: 0
timestamp 88851000 us: [95 2E 00] channel 6: note On A#2 velocity: 0
timestamp 88933000 us: [96 33 00] channel 7: note On D#3 velocity: 0
timestamp 88938000 us: [95 2E 49] channel 6: note On A#2 velocity: 73
timestamp 88940000 us: [96 33 52] channel 7: note On D#3 velocity: 82
timestamp 88941000 us: [99 23 71] channel 10: note On B1 velocity: 113
timestamp 88942000 us: [99 2A 39] channel 10: note On F#2 velocity: 57
timestamp 88948000 us: [99 2A 00] channel 10: note On F#2 velocity: 0
timestamp 88948000 us: [99 23 00] channel 10: note On B1 velocity: 0
timestamp 88953000 us: [96 37 4A] channel 7: note On G3 velocity: 74
timestamp 88972000 us: [96 3A 51] channel 7: note On A#3 velocity: 81
timestamp 89200000 us: [95 2E 00] channel 6: note On A#2 velocity: 0
timestamp 89233000 us: [96 3A 00] channel 7: note On A#3 velocity: 0
timestamp 89234000 us: [96 37 00] channel 7: note On G3 velocity: 0
timestamp 89238000 us: [96 33 00] channel 7: note On D#3 velocity: 0
timestamp 89248000 us: [95 2E 35] channel 6: note On A#2 velocity: 53
timestamp 89250000 us: [96 33 45] channel 7: note On D#3 velocity: 69
timestamp 89251000 us: [99 2A 29] channel 10: note On F#2 velocity: 41
timestamp 89257000 us: [99 2A 00] channel 10: note On F#2 velocity: 0
timestamp 89404000 us: [93 3F 61] channel 4: note On D#4 velocity: 97
timestamp 89405000 us: [95 2C 3C] channel 6: note On G#2 velocity: 60
timestamp 89406000 us: [95 30 50] channel 6: note On C3 velocity: 80
timestamp 89408000 us: [96 38 62] channel 7: note On G#3 velocity: 98
timestamp 89410000 us: [97 3F 4F] channel 8: note On D#4 velocity: 79
timestamp 89411000 us: [97 43 61] channel 8: note On G4 velocity: 97
timestamp 89413000 us: [99 23 71] channel 10: note On B1 velocity: 113
timestamp 89414000 us: [99 2A 4D] channel 10: note On F#2 velocity: 77
timestamp 89415000 us: [95 2E 00] channel 6: note On A#2 velocity: 0
timestamp 89416000 us: [99 28 60] channel 10: note On E2 velocity: 96
timestamp 89422000 us: [99 2A 00] channel 10: note On F#2 velocity: 0
timestamp 89423000 us: [99 23 00] channel 10: note On B1 velocity: 0
timestamp 89424000 us: [99 28 00] channel 10: note On E2 velocity: 0
timestamp 89428000 us: [96 3C 5F] channel 7: note On C4 velocity: 95
timestamp 89520000 us: [95 30 00] channel 6: note On C3 velocity: 0
timestamp 89520000 us: [95 2C 00] channel 6: note On G#2 velocity: 0
timestamp 89577000 us: [96 33 00] channel 7: note On D#3 velocity: 0
timestamp 89587000 us: [96 38 00] channel 7: note On G#3 velocity: 0
timestamp 89596000 us: [96 3C 00] channel 7: note On C4 velocity: 0
timestamp 89660000 us: [92 33 00] channel 3: note On D#3 velocity: 0
timestamp 89680000 us: [97 43 00] channel 8: note On G4 velocity: 0
timestamp 89680000 us: [97 3F 00] channel 8: note On D#4 velocity: 0
timestamp 89689000 us: [92 37 00] channel 3: note On G3 velocity: 0
timestamp 89708000 us: [91 1B 00] channel 2: note On D#1 velocity: 0
timestamp 89709000 us: [93 3F 00] channel 4: note On D#4 velocity: 0
timestamp 89714000 us: [92 35 48] channel 3: note On F3 velocity: 72
timestamp 89715000 us: [93 41 61] channel 4: note On F4 velocity: 97
timestamp 89716000 us: [95 2E 33] channel 6: note On A#2 velocity: 51
timestamp 89718000 us: [96 33 45] channel 7: note On D#3 velocity: 69
timestamp 89720000 us: [97 3E 50] channel 8: note On D4 velocity: 80
timestamp 89721000 us: [97 41 62] channel 8: note On F4 velocity: 98
timestamp 89722000 us: [99 2A 29] channel 10: note On F#2 velocity: 41
timestamp 89725000 us: [92 3A 00] channel 3: note On A#3 velocity: 0
timestamp 89726000 us: [99 2A 00] channel 10: note On F#2 velocity: 0
timestamp 89742000 us: [91 22 66] channel 2: note On A#1 velocity: 102
timestamp 89810000 us: [95 2E 00] channel 6: note On A#2 velocity: 0
timestamp 89849000 us: [92 35 00] channel 3: note On F3 velocity: 0
timestamp 89863000 us: [96 33 00] channel 7: note On D#3 velocity: 0
timestamp 89869000 us: [92 35 52] channel 3: note On F3 velocity: 82
timestamp 89870000 us: [92 3A 5A] channel 3: note On A#3 velocity: 90
timestamp 89871000 us: [92 3E 5A] channel 3: note On D4 velocity: 90
timestamp 89873000 us: [95 35 46] channel 6: note On F3 velocity: 70
timestamp 89875000 us: [96 35 52] channel 7: note On F3 velocity: 82
timestamp 89876000 us: [99 23 71] channel 10: note On B1 velocity: 113
timestamp 89878000 us: [99 2A 39] channel 10: note On F#2 velocity: 57
timestamp 89880000 us: [99 2A 00] channel 10: note On F#2 velocity: 0
timestamp 89881000 us: [99 23 00] channel 10: note On B1 velocity: 0
timestamp 89884000 us: [96 3A 4A] channel 7: note On A#3 velocity: 74
timestamp 89902000 us: [96 3E 51] channel 7: note On D4 velocity: 81
timestamp 90091000 us: [93 41 00] channel 4: note On F4 velocity: 0
timestamp 90100000 us: [97 41 00] channel 8: note On F4 velocity: 0
timestamp 90101000 us: [97 3E 00] channel 8: note On D4 velocity: 0
timestamp 90144000 us: [95 35 00] channel 6: note On F3 velocity: 0
timestamp 90159000 us: [92 3A 00] channel 3: note On A#3 velocity: 0
timestamp 90160000 us: [92 35 00] channel 3: note On F3 velocity: 0
timestamp 90163000 us: [92 3E 00] channel 3: note On D4 velocity: 0
timestamp 90164000 us: [96 3E 00] channel 7: note On D4 velocity: 0
timestamp 90165000 us: [96 3A 00] channel 7: note On A#3 velocity: 0
timestamp 90168000 us: [96 35 00] channel 7: note On F3 velocity: 0
timestamp 90179000 us: [92 35 3A] channel 3: note On F3 velocity: 58
timestamp 90180000 us: [92 3A 45] channel 3: note On A#3 velocity: 69
timestamp 90182000 us: [95 35 36] channel 6: note On F3 velocity: 54
timestamp 90183000 us: [96 35 48] channel 7: note On F3 velocity: 72
timestamp 90184000 us: [99 2A 29] channel 10: note On F#2 velocity: 41
timestamp 90187000 us: [99 2A 00] channel 10: note On F#2 velocity: 0
timestamp 90328000 us: [92 35 00] channel 3: note On F3 velocity: 0
timestamp 90329000 us: [95 35 00] channel 6: note On F3 velocity: 0
timestamp 90334000 us: [92 35 36] channel 3: note On F3 velocity: 54
timestamp 90335000 us: [92 3F 5A] channel 3: note On D#4 velocity: 90
timestamp 90337000 us: [95 33 3B] channel 6: note On D#3 velocity: 59
timestamp 90338000 us: [95 37 4F] channel 6: note On G3 velocity: 79
timestamp 90340000 us: [96 3A 62] channel 7: note On A#3 velocity: 98
timestamp 90341000 us: [99 23 71] channel 10: note On B1 velocity: 113
timestamp 90342000 us: [99 2A 4D] channel 10: note On F#2 velocity: 77
timestamp 90344000 us: [99 28 60] channel 10: note On E2 velocity: 96
timestamp 90352000 us: [99 2A 00] channel 10: note On F#2 velocity: 0
timestamp 90353000 us: [99 23 00] channel 10: note On B1 velocity: 0
timestamp 90354000 us: [99 28 00] channel 10: note On E2 velocity: 0
timestamp 90358000 us: [96 3F 5F] channel 7: note On D#4 velocity: 95
timestamp 90478000 us: [95 37 00] channel 6: note On G3 velocity: 0
timestamp 90479000 us: [95 33 00] channel 6: note On D#3 velocity: 0
timestamp 90507000 us: [96 35 00] channel 7: note On F3 velocity: 0
timestamp 90517000 us: [96 3A 00] channel 7: note On A#3 velocity: 0
timestamp 90527000 us: [96 3F 00] channel 7: note On D#4 velocity: 0
timestamp 90565000 us: [92 3A 00] channel 3: note On A#3 velocity: 0
timestamp 90614000 us: [92 35 00] channel 3: note On F3 velocity: 0
timestamp 90619000 us: [92 3F 00] channel 3: note On D#4 velocity: 0
timestamp 90643000 us: [92 35 4C] channel 3: note On F3 velocity: 76
timestamp 90645000 us: [92 3A 45] channel 3: note On A#3 velocity: 69
timestamp 90646000 us: [92 3E 5D] channel 3: note On D4 velocity: 93
timestamp 90648000 us: [95 35 32] channel 6: note On F3 velocity: 50
timestamp 90650000 us: [96 35 45] channel 7: note On F3 velocity: 69
timestamp 90652000 us: [99 2A 29] channel 10: note On F#2 velocity: 41
timestamp 90655000 us: [99 2A 00] channel 10: note On F#2 velocity: 0
timestamp 90745000 us: [95 35 00] channel 6: note On F3 velocity: 0
timestamp 90793000 us: [96 35 00] channel 7: note On F3 velocity: 0
timestamp 90799000 us: [95 35 49] channel 6: note On F3 velocity: 73
timestamp 90800000 us: [96 35 52] channel 7: note On F3 velocity: 82
timestamp 90802000 us: [99 23 71] channel 10: note On B1 velocity: 113
timestamp 90803000 us: [99 2A 39] channel 10: note On F#2 velocity: 57
timestamp 90807000 us: [99 2A 00] channel 10: note On F#2 velocity: 0
timestamp 90808000 us: [99 23 00] channel 10: note On B1 velocity: 0
timestamp 90814000 us: [96 3A 4A] channel 7: note On A#3 velocity: 74
timestamp 90833000 us: [96 3E 51] channel 7: note On D4 velocity: 81
timestamp 91060000 us: [95 35 00] channel 6: note On F3 velocity: 0
timestamp 91094000 us: [96 3E 00] channel 7: note On D4 velocity: 0
timestamp 91094000 us: [96 3A 00] channel 7: note On A#3 velocity: 0
timestamp 91098000 us: [96 35 00] channel 7: note On F3 velocity: 0
timestamp 91109000 us: [95 35 34] channel 6: note On F3 velocity: 52
timestamp 91110000 us: [96 35 45] channel 7: note On F3 velocity: 69
timestamp 91112000 us: [99 2A 29] channel 10: note On F#2 velocity: 41
timestamp 91117000 us: [99 2A 00] channel 10: note On F#2 velocity: 0
timestamp 91244000 us: [95 35 00] channel 6: note On F3 velocity: 0
timestamp 91264000 us: [93 41 62] channel 4: note On F4 velocity: 98
timestamp 91266000 us: [95 33 3B] channel 6: note On D#3 velocity: 59
timestamp 91267000 us: [95 37 4F] channel 6: note On G3 velocity: 79
timestamp 91269000 us: [96 3A 62] channel 7: note On A#3 velocity: 98
timestamp 91270000 us: [97 3E 50] channel 8: note On D4 velocity: 80
timestamp 91271000 us: [97 41 62] channel 8: note On F4 velocity: 98
timestamp 91273000 us: [99 23 71] channel 10: note On B1 velocity: 113
timestamp 91274000 us: [99 2A 4D] channel 10: note On F#2 velocity: 77
timestamp 91276000 us: [99 28 60] channel 10: note On E2 velocity: 96
timestamp 91279000 us: [99 2A 00] channel 10: note On F#2 velocity: 0
timestamp 91279000 us: [99 23 00] channel 10: note On B1 velocity: 0
timestamp 91280000 us: [99 28 00] channel 10: note On E2 velocity: 0
timestamp 91288000 us: [96 3F 5F] channel 7: note On D#4 velocity: 95
timestamp 91375000 us: [95 37 00] channel 6: note On G3 velocity: 0
timestamp 91375000 us: [95 33 00] channel 6: note On D#3 velocity: 0
timestamp 91438000 us: [96 35 00] channel 7: note On F3 velocity: 0
timestamp 91447000 us: [96 3A 00] channel 7: note On A#3 velocity: 0
timestamp 91457000 us: [96 3F 00] channel 7: note On D#4 velocity: 0
timestamp 91520000 us: [91 22 00] channel 2: note On A#1 velocity: 0
timestamp 91525000 us: [92 35 00] channel 3: note On F3 velocity: 0
timestamp 91532000 us: [92 3A 00] channel 3: note On A#3 velocity: 0
timestamp 91533000 us: [93 41 00] channel 4: note On F4 velocity: 0
timestamp 91534000 us: [92 3E 00] channel 3: note On D4 velocity: 0
timestamp 91535000 us: [97 41 00] channel 8: note On F4 velocity: 0
timestamp 91536000 us: [97 3E 00] channel 8: note On D4 velocity: 0
timestamp 91574000 us: [92 35 3A] channel 3: note On F3 velocity: 58
timestamp 91575000 us: [93 3C 56] channel 4: note On C4 velocity: 86
timestamp 91577000 us: [95 35 31] channel 6: note On F3 velocity: 49
timestamp 91578000 us: [96 35 45] channel 7: note On F3 velocity: 69
timestamp 91580000 us: [97 3C 4A] channel 8: note On C4 velocity: 74
timestamp 91581000 us: [97 41 5C] channel 8: note On F4 velocity: 92
timestamp 91583000 us: [99 2A 29] channel 10: note On F#2 velocity: 41
timestamp 91585000 us: [99 2A 00] channel 10: note On F#2 velocity: 0
timestamp 91603000 us: [91 1D 66] channel 2: note On F1 velocity: 102
timestamp 91710000 us: [E4 00 0C] channel 5: pitch wheel change 1536
timestamp 91715000 us: [94 4D 72] channel 5: note On F5 velocity: 114
timestamp 91716000 us: [94 59 6C] channel 5: note On F6 velocity: 108
timestamp 91719000 us: [95 35 00] channel 6: note On F3 velocity: 0
timestamp 91724000 us: [92 35 00] channel 3: note On F3 velocity: 0
timestamp 91724000 us: [96 35 00] channel 7: note On F3 velocity: 0
timestamp 91729000 us: [95 30 4E] channel 6: note On C3 velocity: 78
timestamp 91731000 us: [96 35 52] channel 7: note On F3 velocity: 82
timestamp 91732000 us: [99 23 71] channel 10: note On B1 velocity: 113
timestamp 91734000 us: [99 2A 39] channel 10: note On F#2 velocity: 57
timestamp 91737000 us: [92 35 44] channel 3: note On F3 velocity: 68
timestamp 91739000 us: [92 39 50] channel 3: note On A3 velocity: 80
timestamp 91744000 us: [92 3C 53] channel 3: note On C4 velocity: 83
timestamp 91746000 us: [99 2A 00] channel 10: note On F#2 velocity: 0
timestamp 91746000 us: [99 23 00] channel 10: note On B1 velocity: 0
timestamp 91748000 us: [96 39 4A] channel 7: note On A3 velocity: 74
timestamp 91763000 us: [96 3C 51] channel 7: note On C4 velocity: 81
timestamp 91869000 us: [E4 00 16] channel 5: pitch wheel change 2816
timestamp 91888000 us: [E4 00 24] channel 5: pitch wheel change 4608
timestamp 91912000 us: [E4 00 30] channel 5: pitch wheel change 6144
timestamp 91932000 us: [E4 00 37] channel 5: pitch wheel change 7040
timestamp 91946000 us: [E4 00 40] channel 5: pitch wheel change 8192
timestamp 91956000 us: [92 35 00] channel 3: note On F3 velocity: 0
timestamp 91957000 us: [92 39 00] channel 3: note On A3 velocity: 0
timestamp 91961000 us: [92 3C 00] channel 3: note On C4 velocity: 0
timestamp 91962000 us: [97 41 00] channel 8: note On F4 velocity: 0
timestamp 91962000 us: [97 3C 00] channel 8: note On C4 velocity: 0
timestamp 91980000 us: [93 3C 00] channel 4: note On C4 velocity: 0
timestamp 92000000 us: [95 30 00] channel 6: note On C3 velocity: 0
timestamp 92024000 us: [96 3C 00] channel 7: note On C4 velocity: 0
timestamp 92024000 us: [96 39 00] channel 7: note On A3 velocity: 0
timestamp 92028000 us: [96 35 00] channel 7: note On F3 velocity: 0
timestamp 92039000 us: [95 30 31] channel 6: note On C3 velocity: 49
timestamp 92041000 us: [96 35 48] channel 7: note On F3 velocity: 72
timestamp 92042000 us: [99 2A 29] channel 10: note On F#2 velocity: 41
timestamp 92048000 us: [99 2A 00] channel 10: note On F#2 velocity: 0
timestamp 92058000 us: [92 35 49] channel 3: note On F3 velocity: 73
timestamp 92116000 us: [95 30 00] channel 6: note On C3 velocity: 0
timestamp 92164000 us: [92 35 00] channel 3: note On F3 velocity: 0
timestamp 92194000 us: [95 2E 3B] channel 6: note On A#2 velocity: 59
timestamp 92195000 us: [95 32 50] channel 6: note On D3 velocity: 80
timestamp 92197000 us: [96 3A 62] channel 7: note On A#3 velocity: 98
timestamp 92199000 us: [99 23 71] channel 10: note On B1 velocity: 113
timestamp 92200000 us: [99 2A 4D] channel 10: note On F#2 velocity: 77
timestamp 92202000 us: [92 35 49] channel 3: note On F3 velocity: 73
timestamp 92203000 us: [92 3A 55] channel 3: note On A#3 velocity: 85
timestamp 92205000 us: [92 3E 5A] channel 3: note On D4 velocity: 90
timestamp 92207000 us: [99 28 60] channel 10: note On E2 velocity: 96
timestamp 92210000 us: [99 2A 00] channel 10: note On F#2 velocity: 0
timestamp 92211000 us: [99 23 00] channel 10: note On B1 velocity: 0
timestamp 92212000 us: [99 28 00] channel 10: note On E2 velocity: 0
timestamp 92218000 us: [96 3E 5F] channel 7: note On D4 velocity: 95
timestamp 92261000 us: [92 3E 00] channel 3: note On D4 velocity: 0
timestamp 92262000 us: [92 3A 00] channel 3: note On A#3 velocity: 0
timestamp 92263000 us: [92 35 00] channel 3: note On F3 velocity: 0
timestamp 92314000 us: [95 32 00] channel 6: note On D3 velocity: 0
timestamp 92315000 us: [95 2E 00] channel 6: note On A#2 velocity: 0
timestamp 92368000 us: [96 35 00] channel 7: note On F3 velocity: 0
timestamp 92377000 us: [96 3A 00] channel 7: note On A#3 velocity: 0
timestamp 92387000 us: [96 3E 00] channel 7: note On D4 velocity: 0
timestamp 92436000 us: [94 59 00] channel 5: note On F6 velocity: 0
timestamp 92436000 us: [94 4D 00] channel 5: note On F5 velocity: 0
timestamp 92485000 us: [94 48 6B] channel 5: note On C5 velocity: 107
timestamp 92486000 us: [94 54 60] channel 5: note On C6 velocity: 96
timestamp 92504000 us: [95 30 32] channel 6: note On C3 velocity: 50
timestamp 92506000 us: [96 35 45] channel 7: note On F3 velocity: 69
timestamp 92507000 us: [99 2A 29] channel 10: note On F#2 velocity: 41
timestamp 92513000 us: [99 2A 00] channel 10: note On F#2 velocity: 0
timestamp 92533000 us: [92 35 4C] channel 3: note On F3 velocity: 76
timestamp 92535000 us: [92 39 48] channel 3: note On A3 velocity: 72
timestamp 92536000 us: [92 3C 49] channel 3: note On C4 velocity: 73
timestamp 92572000 us: [95 30 00] channel 6: note On C3 velocity: 0
timestamp 92576000 us: [94 54 00] channel 5: note On C6 velocity: 0
timestamp 92577000 us: [94 48 00] channel 5: note On C5 velocity: 0
timestamp 92640000 us: [94 4B 6D] channel 5: note On D#5 velocity: 109
timestamp 92642000 us: [94 57 62] channel 5: note On D#6 velocity: 98
timestamp 92654000 us: [96 35 00] channel 7: note On F3 velocity: 0
timestamp 92659000 us: [95 30 49] channel 6: note On C3 velocity: 73
timestamp 92661000 us: [96 35 52] channel 7: note On F3 velocity: 82
timestamp 92662000 us: [99 23 71] channel 10: note On B1 velocity: 113
timestamp 92664000 us: [99 2A 39] channel 10: note On F#2 velocity: 57
timestamp 92668000 us: [99 2A 00] channel 10: note On F#2 velocity: 0
timestamp 92668000 us: [99 23 00] channel 10: note On B1 velocity: 0
timestamp 92674000 us: [96 39 4A] channel 7: note On A3 velocity: 74
timestamp 92693000 us: [96 3C 51] channel 7: note On C4 velocity: 81
timestamp 92736000 us: [94 57 00] channel 5: note On D#6 velocity: 0
timestamp 92737000 us: [94 4B 00] channel 5: note On D#5 velocity: 0
timestamp 92795000 us: [94 48 69] channel 5: note On C5 velocity: 105
timestamp 92796000 us: [94 54 5E] channel 5: note On C6 velocity: 94
timestamp 92833000 us: [92 35 00] channel 3: note On F3 velocity: 0
timestamp 92881000 us: [92 39 00] channel 3: note On A3 velocity: 0
timestamp 92896000 us: [94 54 00] channel 5: note On C6 velocity: 0
timestamp 92897000 us: [94 48 00] channel 5: note On C5 velocity: 0
timestamp 92911000 us: [92 3C 00] channel 3: note On C4 velocity: 0
timestamp 92921000 us: [95 30 00] channel 6: note On C3 velocity: 0
timestamp 92951000 us: [94 45 6B] channel 5: note On A4 velocity: 107
timestamp 92952000 us: [94 51 60] channel 5: note On A5 velocity: 96
timestamp 92957000 us: [96 3C 00] channel 7: note On C4 velocity: 0
timestamp 92957000 us: [96 39 00] channel 7: note On A3 velocity: 0
timestamp 92959000 us: [96 35 00] channel 7: note On F3 velocity: 0
timestamp 92969000 us: [95 30 35] channel 6: note On C3 velocity: 53
timestamp 92971000 us: [96 35 45] channel 7: note On F3 velocity: 69
timestamp 92972000 us: [99 2A 29] channel 10: note On F#2 velocity: 41
timestamp 92978000 us: [99 2A 00] channel 10: note On F#2 velocity: 0
timestamp 92989000 us: [92 35 4C] channel 3: note On F3 velocity: 76
timestamp 93036000 us: [94 51 00] channel 5: note On A5 velocity: 0
timestamp 93037000 us: [94 45 00] channel 5: note On A4 velocity: 0
timestamp 93091000 us: [92 35 00] channel 3: note On F3 velocity: 0
timestamp 93105000 us: [94 41 69] channel 5: note On F4 velocity: 105
timestamp 93107000 us: [94 4D 5E] channel 5: note On F5 velocity: 94
timestamp 93125000 us: [95 2E 3C] channel 6: note On A#2 velocity: 60
timestamp 93126000 us: [95 32 50] channel 6: note On D3 velocity: 80
timestamp 93127000 us: [96 3A 62] channel 7: note On A#3 velocity: 98
timestamp 93129000 us: [99 23 71] channel 10: note On B1 velocity: 113
timestamp 93131000 us: [99 2A 4D] channel 10: note On F#2 velocity: 77
timestamp 93133000 us: [92 35 55] channel 3: note On F3 velocity: 85
timestamp 93135000 us: [92 3A 57] channel 3: note On A#3 velocity: 87
timestamp 93136000 us: [92 3E 59] channel 3: note On D4 velocity: 89
timestamp 93137000 us: [95 30 00] channel 6: note On C3 velocity: 0
timestamp 93139000 us: [99 28 60] channel 10: note On E2 velocity: 96
timestamp 93142000 us: [99 2A 00] channel 10: note On F#2 velocity: 0
timestamp 93143000 us: [99 23 00] channel 10: note On B1 velocity: 0
timestamp 93144000 us: [99 28 00] channel 10: note On E2 velocity: 0
timestamp 93149000 us: [96 3E 5F] channel 7: note On D4 velocity: 95
timestamp 93192000 us: [92 3E 00] channel 3: note On D4 velocity: 0
timestamp 93192000 us: [92 3A 00] channel 3: note On A#3 velocity: 0
timestamp 93193000 us: [92 35 00] channel 3: note On F3 velocity: 0
timestamp 93194000 us: [94 4D 00] channel 5: note On F5 velocity: 0
timestamp 93195000 us: [94 41 00] channel 5: note On F4 velocity: 0
timestamp 93241000 us: [95 32 00] channel 6: note On D3 velocity: 0
timestamp 93241000 us: [95 2E 00] channel 6: note On A#2 velocity: 0
timestamp 93261000 us: [94 3F 6F] channel 5: note On D#4 velocity: 111
timestamp 93262000 us: [94 4B 64] channel 5: note On D#5 velocity: 100
timestamp 93298000 us: [96 35 00] channel 7: note On F3 velocity: 0
timestamp 93308000 us: [96 3A 00] channel 7: note On A#3 velocity: 0
timestamp 93318000 us: [96 3E 00] channel 7: note On D4 velocity: 0
timestamp 93352000 us: [94 4B 00] channel 5: note On D#5 velocity: 0
timestamp 93352000 us: [94 3F 00] channel 5: note On D#4 velocity: 0
timestamp 93415000 us: [94 3C 6A] channel 5: note On C4 velocity: 106
timestamp 93417000 us: [94 48 5F] channel 5: note On C5 velocity: 95
timestamp 93435000 us: [95 30 33] channel 6: note On C3 velocity: 51
timestamp 93436000 us: [96 35 45] channel 7: note On F3 velocity: 69
timestamp 93437000 us: [99 2A 29] channel 10: note On F#2 velocity: 41
timestamp 93444000 us: [99 2A 00] channel 10: note On F#2 velocity: 0
timestamp 93463000 us: [92 35 45] channel 3: note On F3 velocity: 69
timestamp 93465000 us: [92 39 46] channel 3: note On A3 velocity: 70
timestamp 93466000 us: [92 3C 49] channel 3: note On C4 velocity: 73
timestamp 93506000 us: [94 48 00] channel 5: note On C5 velocity: 0
timestamp 93507000 us: [94 3C 00] channel 5: note On C4 velocity: 0
timestamp 93531000 us: [95 30 00] channel 6: note On C3 velocity: 0
timestamp 93571000 us: [94 3F 6F] channel 5: note On D#4 velocity: 111
timestamp 93572000 us: [94 4B 64] channel 5: note On D#5 velocity: 100
timestamp 93584000 us: [96 35 00] channel 7: note On F3 velocity: 0
timestamp 93590000 us: [95 30 46] channel 6: note On C3 velocity: 70
timestamp 93592000 us: [96 35 52] channel 7: note On F3 velocity: 82
timestamp 93593000 us: [99 23 71] channel 10: note On B1 velocity: 113
timestamp 93595000 us: [99 2A 39] channel 10: note On F#2 velocity: 57
timestamp 93598000 us: [99 2A 00] channel 10: note On F#2 velocity: 0
timestamp 93599000 us: [99 23 00] channel 10: note On B1 velocity: 0
timestamp 93605000 us: [96 39 4A] channel 7: note On A3 velocity: 74
timestamp 93623000 us: [96 3C 51] channel 7: note On C4 velocity: 81
timestamp 93778000 us: [92 35 00] channel 3: note On F3 velocity: 0
timestamp 93816000 us: [94 4B 00] channel 5: note On D#5 velocity: 0
timestamp 93817000 us: [94 3F 00] channel 5: note On D#4 velocity: 0
timestamp 93841000 us: [92 39 00] channel 3: note On A3 velocity: 0
timestamp 93846000 us: [92 3C 00] channel 3: note On C4 velocity: 0
timestamp 93865000 us: [95 30 00] channel 6: note On C3 velocity: 0
timestamp 93881000 us: [94 41 69] channel 5: note On F4 velocity: 105
timestamp 93882000 us: [94 4D 5E] channel 5: note On F5 velocity: 94
timestamp 93885000 us: [96 3C 00] channel 7: note On C4 velocity: 0
timestamp 93885000 us: [96 39 00] channel 7: note On A3 velocity: 0
timestamp 93889000 us: [96 35 00] channel 7: note On F3 velocity: 0
timestamp 93900000 us: [95 30 36] channel 6: note On C3 velocity: 54
timestamp 93901000 us: [96 35 48] channel 7: note On F3 velocity: 72
timestamp 93903000 us: [99 2A 29] channel 10: note On F#2 velocity: 41
timestamp 93908000 us: [99 2A 00] channel 10: note On F#2 velocity: 0
timestamp 93919000 us: [92 35 4A] channel 3: note On F3 velocity: 74
timestamp 94021000 us: [92 35 00] channel 3: note On F3 velocity: 0
timestamp 94049000 us: [95 30 00] channel 6: note On C3 velocity: 0
timestamp 94055000 us: [92 3A 59] channel 3: note On A#3 velocity: 89
timestamp 94056000 us: [92 3E 59] channel 3: note On D4 velocity: 89
timestamp 94058000 us: [95 2E 3B] channel 6: note On A#2 velocity: 59
timestamp 94059000 us: [95 32 4F] channel 6: note On D3 velocity: 79
timestamp 94061000 us: [96 3A 62] channel 7: note On A#3 velocity: 98
timestamp 94062000 us: [99 23 71] channel 10: note On B1 velocity: 113
timestamp 94063000 us: [99 2A 4D] channel 10: note On F#2 velocity: 77
timestamp 94066000 us: [92 35 52] channel 3: note On F3 velocity: 82
timestamp 94068000 us: [99 28 60] channel 10: note On E2 velocity: 96
timestamp 94075000 us: [99 2A 00] channel 10: note On F#2 velocity: 0
timestamp 94075000 us: [99 23 00] channel 10: note On B1 velocity: 0
timestamp 94076000 us: [99 28 00] channel 10: note On E2 velocity: 0
timestamp 94079000 us: [96 3E 5F] channel 7: note On D4 velocity: 95
timestamp 94122000 us: [92 3E 00] channel 3: note On D4 velocity: 0
timestamp 94122000 us: [92 3A 00] channel 3: note On A#3 velocity: 0
timestamp 94123000 us: [92 35 00] channel 3: note On F3 velocity: 0
timestamp 94124000 us: [94 4D 00] channel 5: note On F5 velocity: 0
timestamp 94125000 us: [94 41 00] channel 5: note On F4 velocity: 0
timestamp 94199000 us: [95 32 00] channel 6: note On D3 velocity: 0
timestamp 94200000 us: [95 2E 00] channel 6: note On A#2 velocity: 0
timestamp 94228000 us: [96 35 00] channel 7: note On F3 velocity: 0
timestamp 94238000 us: [96 3A 00] channel 7: note On A#3 velocity: 0
timestamp 94248000 us: [96 3E 00] channel 7: note On D4 velocity: 0
timestamp 94346000 us: [94 3C 6F] channel 5: note On C4 velocity: 111
timestamp 94347000 us: [94 48 64] channel 5: note On C5 velocity: 100
timestamp 94365000 us: [95 30 32] channel 6: note On C3 velocity: 50
timestamp 94366000 us: [96 35 45] channel 7: note On F3 velocity: 69
timestamp 94368000 us: [99 2A 29] channel 10: note On F#2 velocity: 41
timestamp 94374000 us: [99 2A 00] channel 10: note On F#2 velocity: 0
timestamp 94394000 us: [92 35 46] channel 3: note On F3 velocity: 70
timestamp 94395000 us: [92 39 46] channel 3: note On A3 velocity: 70
timestamp 94396000 us: [92 3C 49] channel 3: note On C4 velocity: 73
timestamp 94466000 us: [95 30 00] channel 6: note On C3 velocity: 0
timestamp 94514000 us: [96 35 00] channel 7: note On F3 velocity: 0
timestamp 94520000 us: [95 30 49] channel 6: note On C3 velocity: 73
timestamp 94522000 us: [96 35 52] channel 7: note On F3 velocity: 82
timestamp 94523000 us: [99 23 71] channel 10: note On B1 velocity: 113
timestamp 94524000 us: [99 2A 39] channel 10: note On F#2 velocity: 57
timestamp 94528000 us: [99 2A 00] channel 10: note On F#2 velocity: 0
timestamp 94529000 us: [99 23 00] channel 10: note On B1 velocity: 0
timestamp 94535000 us: [96 39 4A] channel 7: note On A3 velocity: 74
timestamp 94553000 us: [96 3C 51] channel 7: note On C4 velocity: 81
timestamp 94742000 us: [92 35 00] channel 3: note On F3 velocity: 0
timestamp 94766000 us: [92 39 00] channel 3: note On A3 velocity: 0
timestamp 94781000 us: [95 30 00] channel 6: note On C3 velocity: 0
timestamp 94805000 us: [92 3C 00] channel 3: note On C4 velocity: 0
timestamp 94815000 us: [96 3C 00] channel 7: note On C4 velocity: 0
timestamp 94815000 us: [96 39 00] channel 7: note On A3 velocity: 0
timestamp 94819000 us: [96 35 00] channel 7: note On F3 velocity: 0
timestamp 94830000 us: [95 30 34] channel 6: note On C3 velocity: 52
timestamp 94831000 us: [96 35 45] channel 7: note On F3 velocity: 69
timestamp 94833000 us: [99 2A 3C] channel 10: note On F#2 velocity: 60
timestamp 94834000 us: [99 28 60] channel 10: note On E2 velocity: 96
timestamp 94838000 us: [99 2A 00] channel 10: note On F#2 velocity: 0
timestamp 94840000 us: [99 28 00] channel 10: note On E2 velocity: 0
timestamp 94849000 us: [92 35 49] channel 3: note On F3 velocity: 73
timestamp 94931000 us: [92 35 00] channel 3: note On F3 velocity: 0
timestamp 94965000 us: [95 30 00] channel 6: note On C3 velocity: 0
timestamp 94985000 us: [95 2E 3B] channel 6: note On A#2 velocity: 59
timestamp 94986000 us: [95 32 4F] channel 6: note On D3 velocity: 79
timestamp 94988000 us: [96 3A 62] channel 7: note On A#3 velocity: 98
timestamp 94989000 us: [99 23 71] channel 10: note On B1 velocity: 113
timestamp 94991000 us: [99 2A 42] channel 10: note On F#2 velocity: 66
timestamp 94993000 us: [92 3A 5A] channel 3: note On A#3 velocity: 90
timestamp 94994000 us: [92 3E 5A] channel 3: note On D4 velocity: 90
timestamp 94996000 us: [99 28 50] channel 10: note On E2 velocity: 80
timestamp 94999000 us: [92 35 52] channel 3: note On F3 velocity: 82
timestamp 95000000 us: [99 2A 00] channel 10: note On F#2 velocity: 0
timestamp 95001000 us: [99 23 00] channel 10: note On B1 velocity: 0
timestamp 95002000 us: [99 28 00] channel 10: note On E2 velocity: 0
timestamp 95009000 us: [96 3E 5F] channel 7: note On D4 velocity: 95
timestamp 95052000 us: [92 3E 00] channel 3: note On D4 velocity: 0
timestamp 95053000 us: [92 3A 00] channel 3: note On A#3 velocity: 0
timestamp 95056000 us: [92 35 00] channel 3: note On F3 velocity: 0
timestamp 95096000 us: [95 32 00] channel 6: note On D3 velocity: 0
timestamp 95096000 us: [95 2E 00] channel 6: note On A#2 velocity: 0
timestamp 95158000 us: [96 35 00] channel 7: note On F3 velocity: 0
timestamp 95163000 us: [91 1D 00] channel 2: note On F1 velocity: 0
timestamp 95168000 us: [96 3A 00] channel 7: note On A#3 velocity: 0
timestamp 95178000 us: [96 3E 00] channel 7: note On D4 velocity: 0
timestamp 95212000 us: [94 48 00] channel 5: note On C5 velocity: 0
timestamp 95213000 us: [94 3C 00] channel 5: note On C4 velocity: 0
timestamp 95295000 us: [93 41 52] channel 4: note On F4 velocity: 82
timestamp 95296000 us: [95 30 31] channel 6: note On C3 velocity: 49
timestamp 95298000 us: [96 35 45] channel 7: note On F3 velocity: 69
timestamp 95299000 us: [99 28 4C] channel 10: note On E2 velocity: 76
timestamp 95304000 us: [99 28 00] channel 10: note On E2 velocity: 0
timestamp 95324000 us: [92 35 44] channel 3: note On F3 velocity: 68
timestamp 95325000 us: [92 39 49] channel 3: note On A3 velocity: 73
timestamp 95327000 us: [92 3C 4B] channel 3: note On C4 velocity: 75
timestamp 95435000 us: [93 41 00] channel 4: note On F4 velocity: 0
timestamp 95440000 us: [95 30 00] channel 6: note On C3 velocity: 0
timestamp 95444000 us: [96 35 00] channel 7: note On F3 velocity: 0
timestamp 95450000 us: [91 1D 67] channel 2: note On F1 velocity: 103
timestamp 95452000 us: [93 45 69] channel 4: note On A4 velocity: 105
timestamp 95453000 us: [95 30 4F] channel 6: note On C3 velocity: 79
timestamp 95455000 us: [96 35 53] channel 7: note On F3 velocity: 83
timestamp 95456000 us: [99 23 72] channel 10: note On B1 velocity: 114
timestamp 95457000 us: [99 31 46] channel 10: note On C#3 velocity: 70
timestamp 95466000 us: [99 31 00] channel 10: note On C#3 velocity: 0
timestamp 95467000 us: [99 23 00] channel 10: note On B1 velocity: 0
timestamp 95469000 us: [96 39 4B] channel 7: note On A3 velocity: 75
timestamp 95484000 us: [96 3C 52] channel 7: note On C4 velocity: 82
timestamp 95663000 us: [92 3C 00] channel 3: note On C4 velocity: 0
timestamp 95663000 us: [92 39 00] channel 3: note On A3 velocity: 0
timestamp 95664000 us: [92 35 00] channel 3: note On F3 velocity: 0
timestamp 95701000 us: [93 45 00] channel 4: note On A4 velocity: 0
timestamp 95721000 us: [95 30 00] channel 6: note On C3 velocity: 0
timestamp 95745000 us: [96 3C 00] channel 7: note On C4 velocity: 0
timestamp 95745000 us: [96 39 00] channel 7: note On A3 velocity: 0
timestamp 95749000 us: [96 35 00] channel 7: note On F3 velocity: 0
timestamp 95760000 us: [93 45 5E] channel 4: note On A4 velocity: 94
timestamp 95762000 us: [95 30 32] channel 6: note On C3 velocity: 50
timestamp 95763000 us: [96 35 49] channel 7: note On F3 velocity: 73
timestamp 95764000 us: [99 2A 2A] channel 10: note On F#2 velocity: 42
timestamp 95769000 us: [99 2A 00] channel 10: note On F#2 velocity: 0
timestamp 95779000 us: [92 35 4A] channel 3: note On F3 velocity: 74
timestamp 95837000 us: [95 30 00] channel 6: note On C3 velocity: 0
timestamp 95883000 us: [93 45 00] channel 4: note On A4 velocity: 0
timestamp 95885000 us: [92 35 00] channel 3: note On F3 velocity: 0
timestamp 95915000 us: [92 35 4A] channel 3: note On F3 velocity: 74
timestamp 95916000 us: [92 3A 56] channel 3: note On A#3 velocity: 86
timestamp 95917000 us: [92 3E 5B] channel 3: note On D4 velocity: 91
timestamp 95919000 us: [93 45 65] channel 4: note On A4 velocity: 101
timestamp 95921000 us: [95 2E 3C] channel 6: note On A#2 velocity: 60
timestamp 95922000 us: [95 32 51] channel 6: note On D3 velocity: 81
timestamp 95924000 us: [96 3A 63] channel 7: note On A#3 velocity: 99
timestamp 95926000 us: [99 23 72] channel 10: note On B1 velocity: 114
timestamp 95927000 us: [99 2A 4E] channel 10: note On F#2 velocity: 78
timestamp 95929000 us: [99 28 61] channel 10: note On E2 velocity: 97
timestamp 95931000 us: [99 2A 00] channel 10: note On F#2 velocity: 0
timestamp 95932000 us: [99 23 00] channel 10: note On B1 velocity: 0
timestamp 95933000 us: [99 28 00] channel 10: note On E2 velocity: 0
timestamp 95939000 us: [96 3E 60] channel 7: note On D4 velocity: 96
timestamp 95982000 us: [92 3E 00] channel 3: note On D4 velocity: 0
timestamp 95983000 us: [92 3A 00] channel 3: note On A#3 velocity: 0
timestamp 95984000 us: [92 35 00] channel 3: note On F3 velocity: 0
timestamp 96032000 us: [93 45 00] channel 4: note On A4 velocity: 0
timestamp 96035000 us: [95 32 00] channel 6: note On D3 velocity: 0
timestamp 96036000 us: [95 2E 00] channel 6: note On A#2 velocity: 0
timestamp 96070000 us: [93 45 56] channel 4: note On A4 velocity: 86
timestamp 96089000 us: [96 35 00] channel 7: note On F3 velocity: 0
timestamp 96098000 us: [96 3A 00] channel 7: note On A#3 velocity: 0
timestamp 96108000 us: [96 3E 00] channel 7: note On D4 velocity: 0
timestamp 96220000 us: [93 45 00] channel 4: note On A4 velocity: 0
timestamp 96225000 us: [93 41 67] channel 4: note On F4 velocity: 103
timestamp 96227000 us: [95 30 33] channel 6: note On C3 velocity: 51
timestamp 96228000 us: [96 35 46] channel 7: note On F3 velocity: 70
timestamp 96230000 us: [99 2A 2A] channel 10: note On F#2 velocity: 42
timestamp 96234000 us: [99 2A 00] channel 10: note On F#2 velocity: 0
timestamp 96254000 us: [92 35 4D] channel 3: note On F3 velocity: 77
timestamp 96255000 us: [92 39 49] channel 3: note On A3 velocity: 73
timestamp 96257000 us: [92 3C 4A] channel 3: note On C4 velocity: 74
timestamp 96292000 us: [95 30 00] channel 6: note On C3 velocity: 0
timestamp 96375000 us: [96 35 00] channel 7: note On F3 velocity: 0
timestamp 96380000 us: [95 30 4A] channel 6: note On C3 velocity: 74
timestamp 96382000 us: [96 35 53] channel 7: note On F3 velocity: 83
timestamp 96383000 us: [99 23 72] channel 10: note On B1 velocity: 114
timestamp 96385000 us: [99 2A 3A] channel 10: note On F#2 velocity: 58
timestamp 96389000 us: [99 2A 00] channel 10: note On F#2 velocity: 0
timestamp 96390000 us: [99 23 00] channel 10: note On B1 velocity: 0
timestamp 96395000 us: [96 39 4B] channel 7: note On A3 velocity: 75
timestamp 96414000 us: [96 3C 52] channel 7: note On C4 velocity: 82
timestamp 96467000 us: [93 41 00] channel 4: note On F4 velocity: 0
timestamp 96535000 us: [93 41 64] channel 4: note On F4 velocity: 100
timestamp 96554000 us: [92 35 00] channel 3: note On F3 velocity: 0
timestamp 96602000 us: [92 39 00] channel 3: note On A3 velocity: 0
timestamp 96631000 us: [92 3C 00] channel 3: note On C4 velocity: 0
timestamp 96641000 us: [95 30 00] channel 6: note On C3 velocity: 0
timestamp 96675000 us: [96 3C 00] channel 7: note On C4 velocity: 0
timestamp 96676000 us: [96 39 00] channel 7: note On A3 velocity: 0
timestamp 96680000 us: [96 35 00] channel 7: note On F3 velocity: 0
timestamp 96690000 us: [95 30 36] channel 6: note On C3 velocity: 54
timestamp 96692000 us: [96 35 46] channel 7: note On F3 velocity: 70
timestamp 96693000 us: [99 2A 2A] channel 10: note On F#2 velocity: 42
timestamp 96699000 us: [99 2A 00] channel 10: note On F#2 velocity: 0
timestamp 96710000 us: [92 35 4D] channel 3: note On F3 velocity: 77
timestamp 96748000 us: [93 41 00] channel 4: note On F4 velocity: 0
timestamp 96811000 us: [92 35 00] channel 3: note On F3 velocity: 0
timestamp 96845000 us: [95 2E 3D] channel 6: note On A#2 velocity: 61
timestamp 96847000 us: [95 32 51] channel 6: note On D3 velocity: 81
timestamp 96848000 us: [96 3A 63] channel 7: note On A#3 velocity: 99
timestamp 96850000 us: [99 23 72] channel 10: note On B1 velocity: 114
timestamp 96851000 us: [99 2A 4E] channel 10: note On F#2 velocity: 78
timestamp 96853000 us: [92 35 56] channel 3: note On F3 velocity: 86
timestamp 96854000 us: [92 3A 58] channel 3: note On A#3 velocity: 88
timestamp 96856000 us: [92 3E 5A] channel 3: note On D4 velocity: 90
timestamp 96857000 us: [95 30 00] channel 6: note On C3 velocity: 0
timestamp 96858000 us: [99 28 61] channel 10: note On E2 velocity: 97
timestamp 96862000 us: [99 2A 00] channel 10: note On F#2 velocity: 0
timestamp 96862000 us: [99 23 00] channel 10: note On B1 velocity: 0
timestamp 96863000 us: [99 28 00] channel 10: note On E2 velocity: 0
timestamp 96869000 us: [96 3E 60] channel 7: note On D4 velocity: 96
timestamp 96912000 us: [92 3E 00] channel 3: note On D4 velocity: 0
timestamp 96913000 us: [92 3A 00] channel 3: note On A#3 velocity: 0
timestamp 96914000 us: [92 35 00] channel 3: note On F3 velocity: 0
timestamp 96962000 us: [95 32 00] channel 6: note On D3 velocity: 0
timestamp 96962000 us: [95 2E 00] channel 6: note On A#2 velocity: 0
timestamp 97019000 us: [96 35 00] channel 7: note On F3 velocity: 0
timestamp 97028000 us: [96 3A 00] channel 7: note On A#3 velocity: 0
timestamp 97038000 us: [96 3E 00] channel 7: note On D4 velocity: 0
timestamp 97155000 us: [93 41 44] channel 4: note On F4 velocity: 68
timestamp 97157000 us: [95 30 34] channel 6: note On C3 velocity: 52
timestamp 97158000 us: [96 35 46] channel 7: note On F3 velocity: 70
timestamp 97159000 us: [99 2A 2A] channel 10: note On F#2 velocity: 42
timestamp 97164000 us: [99 2A 00] channel 10: note On F#2 velocity: 0
timestamp 97184000 us: [92 35 46] channel 3: note On F3 velocity: 70
timestamp 97186000 us: [92 39 47] channel 3: note On A3 velocity: 71
timestamp 97187000 us: [92 3C 4A] channel 3: note On C4 velocity: 74
timestamp 97237000 us: [93 41 00] channel 4: note On F4 velocity: 0
timestamp 97252000 us: [95 30 00] channel 6: note On C3 velocity: 0
timestamp 97305000 us: [96 35 00] channel 7: note On F3 velocity: 0
timestamp 97311000 us: [93 45 65] channel 4: note On A4 velocity: 101
timestamp 97312000 us: [95 30 47] channel 6: note On C3 velocity: 71
timestamp 97314000 us: [96 35 53] channel 7: note On F3 velocity: 83
timestamp 97316000 us: [99 23 72] channel 10: note On B1 velocity: 114
timestamp 97317000 us: [99 2A 3A] channel 10: note On F#2 velocity: 58
timestamp 97319000 us: [99 2A 00] channel 10: note On F#2 velocity: 0
timestamp 97320000 us: [99 23 00] channel 10: note On B1 velocity: 0
timestamp 97325000 us: [96 39 4B] channel 7: note On A3 velocity: 75
timestamp 97344000 us: [96 3C 52] channel 7: note On C4 velocity: 82
timestamp 97499000 us: [92 35 00] channel 3: note On F3 velocity: 0
timestamp 97547000 us: [93 45 00] channel 4: note On A4 velocity: 0
timestamp 97562000 us: [92 39 00] channel 3: note On A3 velocity: 0
timestamp 97566000 us: [92 3C 00] channel 3: note On C4 velocity: 0
timestamp 97586000 us: [95 30 00] channel 6: note On C3 velocity: 0
timestamp 97605000 us: [96 3C 00] channel 7: note On C4 velocity: 0
timestamp 97606000 us: [96 39 00] channel 7: note On A3 velocity: 0
timestamp 97610000 us: [96 35 00] channel 7: note On F3 velocity: 0
timestamp 97621000 us: [93 45 59] channel 4: note On A4 velocity: 89
timestamp 97622000 us: [95 30 37] channel 6: note On C3 velocity: 55
timestamp 97623000 us: [96 35 49] channel 7: note On F3 velocity: 73
timestamp 97625000 us: [99 2A 2A] channel 10: note On F#2 velocity: 42
timestamp 97629000 us: [99 2A 00] channel 10: note On F#2 velocity: 0
timestamp 97640000 us: [92 35 4B] channel 3: note On F3 velocity: 75
timestamp 97736000 us: [93 45 00] channel 4: note On A4 velocity: 0
timestamp 97742000 us: [92 35 00] channel 3: note On F3 velocity: 0
timestamp 97770000 us: [95 30 00] channel 6: note On C3 velocity: 0
timestamp 97776000 us: [92 35 53] channel 3: note On F3 velocity: 83
timestamp 97777000 us: [92 3A 5A] channel 3: note On A#3 velocity: 90
timestamp 97778000 us: [92 3E 5A] channel 3: note On D4 velocity: 90
timestamp 97780000 us: [93 45 60] channel 4: note On A4 velocity: 96
timestamp 97782000 us: [95 2E 3C] channel 6: note On A#2 velocity: 60
timestamp 97783000 us: [95 32 50] channel 6: note On D3 velocity: 80
timestamp 97784000 us: [96 3A 63] channel 7: note On A#3 velocity: 99
timestamp 97786000 us: [99 23 72] channel 10: note On B1 velocity: 114
timestamp 97787000 us: [99 2A 4E] channel 10: note On F#2 velocity: 78
timestamp 97789000 us: [99 28 61] channel 10: note On E2 velocity: 97
timestamp 97794000 us: [99 2A 00] channel 10: note On F#2 velocity: 0
timestamp 97795000 us: [99 23 00] channel 10: note On B1 velocity: 0
timestamp 97795000 us: [99 28 00] channel 10: note On E2 velocity: 0
timestamp 97800000 us: [96 3E 60] channel 7: note On D4 velocity: 96
timestamp 97843000 us: [92 3E 00] channel 3: note On D4 velocity: 0
timestamp 97843000 us: [92 3A 00] channel 3: note On A#3 velocity: 0
timestamp 97844000 us: [92 35 00] channel 3: note On F3 velocity: 0
timestamp 97920000 us: [95 32 00] channel 6: note On D3 velocity: 0
timestamp 97921000 us: [95 2E 00] channel 6: note On A#2 velocity: 0
timestamp 97949000 us: [96 35 00] channel 7: note On F3 velocity: 0
timestamp 97959000 us: [96 3A 00] channel 7: note On A#3 velocity: 0
timestamp 97969000 us: [96 3E 00] channel 7: note On D4 velocity: 0
timestamp 98022000 us: [93 45 00] channel 4: note On A4 velocity: 0
timestamp 98085000 us: [93 41 59] channel 4: note On F4 velocity: 89
timestamp 98087000 us: [95 30 33] channel 6: note On C3 velocity: 51
timestamp 98089000 us: [96 35 46] channel 7: note On F3 velocity: 70
timestamp 98090000 us: [99 2A 2A] channel 10: note On F#2 velocity: 42
timestamp 98095000 us: [99 2A 00] channel 10: note On F#2 velocity: 0
timestamp 98115000 us: [92 35 47] channel 3: note On F3 velocity: 71
timestamp 98116000 us: [92 39 47] channel 3: note On A3 velocity: 71
timestamp 98117000 us: [92 3C 4A] channel 3: note On C4 velocity: 74
timestamp 98187000 us: [95 30 00] channel 6: note On C3 velocity: 0
timestamp 98235000 us: [96 35 00] channel 7: note On F3 velocity: 0
timestamp 98241000 us: [95 30 4A] channel 6: note On C3 velocity: 74
timestamp 98242000 us: [96 35 53] channel 7: note On F3 velocity: 83
timestamp 98244000 us: [99 23 72] channel 10: note On B1 velocity: 114
timestamp 98245000 us: [99 2A 3A] channel 10: note On F#2 velocity: 58
timestamp 98249000 us: [99 2A 00] channel 10: note On F#2 velocity: 0
timestamp 98250000 us: [99 23 00] channel 10: note On B1 velocity: 0
timestamp 98256000 us: [96 39 4B] channel 7: note On A3 velocity: 75
timestamp 98274000 us: [96 3C 52] channel 7: note On C4 velocity: 82
timestamp 98362000 us: [93 41 00] channel 4: note On F4 velocity: 0
timestamp 98458000 us: [92 35 00] channel 3: note On F3 velocity: 0
timestamp 98487000 us: [92 39 00] channel 3: note On A3 velocity: 0
timestamp 98502000 us: [95 30 00] channel 6: note On C3 velocity: 0
timestamp 98526000 us: [92 3C 00] channel 3: note On C4 velocity: 0
timestamp 98535000 us: [96 3C 00] channel 7: note On C4 velocity: 0
timestamp 98536000 us: [96 39 00] channel 7: note On A3 velocity: 0
timestamp 98540000 us: [96 35 00] channel 7: note On F3 velocity: 0
timestamp 98551000 us: [95 30 35] channel 6: note On C3 velocity: 53
timestamp 98552000 us: [96 35 46] channel 7: note On F3 velocity: 70
timestamp 98553000 us: [99 2A 2A] channel 10: note On F#2 velocity: 42
timestamp 98559000 us: [99 2A 00] channel 10: note On F#2 velocity: 0
timestamp 98570000 us: [92 35 4A] channel 3: note On F3 velocity: 74
timestamp 98652000 us: [92 35 00] channel 3: note On F3 velocity: 0
timestamp 98686000 us: [95 30 00] channel 6: note On C3 velocity: 0
timestamp 98706000 us: [92 3A 5B] channel 3: note On A#3 velocity: 91
timestamp 98707000 us: [95 2E 3C] channel 6: note On A#2 velocity: 60
timestamp 98708000 us: [95 32 50] channel 6: note On D3 velocity: 80
timestamp 98710000 us: [96 3A 63] channel 7: note On A#3 velocity: 99
timestamp 98712000 us: [99 23 72] channel 10: note On B1 velocity: 114
timestamp 98713000 us: [99 2A 4E] channel 10: note On F#2 velocity: 78
timestamp 98715000 us: [92 35 53] channel 3: note On F3 velocity: 83
timestamp 98716000 us: [92 3E 5B] channel 3: note On D4 velocity: 91
timestamp 98718000 us: [99 28 61] channel 10: note On E2 velocity: 97
timestamp 98720000 us: [99 2A 00] channel 10: note On F#2 velocity: 0
timestamp 98721000 us: [99 23 00] channel 10: note On B1 velocity: 0
timestamp 98722000 us: [99 28 00] channel 10: note On E2 velocity: 0
timestamp 98730000 us: [96 3E 60] channel 7: note On D4 velocity: 96
timestamp 98775000 us: [92 3A 00] channel 3: note On A#3 velocity: 0
timestamp 98775000 us: [92 3E 00] channel 3: note On D4 velocity: 0
timestamp 98776000 us: [92 35 00] channel 3: note On F3 velocity: 0
timestamp 98817000 us: [95 32 00] channel 6: note On D3 velocity: 0
timestamp 98817000 us: [95 2E 00] channel 6: note On A#2 velocity: 0
timestamp 98879000 us: [96 35 00] channel 7: note On F3 velocity: 0
timestamp 98889000 us: [96 3A 00] channel 7: note On A#3 velocity: 0
timestamp 98899000 us: [96 3E 00] channel 7: note On D4 velocity: 0
timestamp 99010000 us: [91 1D 00] channel 2: note On F1 velocity: 0
timestamp 99016000 us: [93 41 57] channel 4: note On F4 velocity: 87
timestamp 99017000 us: [95 30 32] channel 6: note On C3 velocity: 50
timestamp 99019000 us: [96 35 46] channel 7: note On F3 velocity: 70
timestamp 99020000 us: [99 2A 2A] channel 10: note On F#2 velocity: 42
timestamp 99025000 us: [99 2A 00] channel 10: note On F#2 velocity: 0
timestamp 99045000 us: [91 1D 67] channel 2: note On F1 velocity: 103
timestamp 99047000 us: [92 35 45] channel 3: note On F3 velocity: 69
timestamp 99048000 us: [92 39 4A] channel 3: note On A3 velocity: 74
timestamp 99049000 us: [92 3C 4C] channel 3: note On C4 velocity: 76
timestamp 99146000 us: [93 41 00] channel 4: note On F4 velocity: 0
timestamp 99161000 us: [95 30 00] channel 6: note On C3 velocity: 0
timestamp 99165000 us: [96 35 00] channel 7: note On F3 velocity: 0
timestamp 99171000 us: [93 45 69] channel 4: note On A4 velocity: 105
timestamp 99173000 us: [95 30 4F] channel 6: note On C3 velocity: 79
timestamp 99174000 us: [96 35 53] channel 7: note On F3 velocity: 83
timestamp 99176000 us: [99 23 72] channel 10: note On B1 velocity: 114
timestamp 99177000 us: [99 2A 3A] channel 10: note On F#2 velocity: 58
timestamp 99180000 us: [99 2A 00] channel 10: note On F#2 velocity: 0
timestamp 99181000 us: [99 23 00] channel 10: note On B1 velocity: 0
timestamp 99186000 us: [96 39 4B] channel 7: note On A3 velocity: 75
timestamp 99204000 us: [96 3C 52] channel 7: note On C4 velocity: 82
timestamp 99379000 us: [92 35 00] channel 3: note On F3 velocity: 0
timestamp 99383000 us: [92 3C 00] channel 3: note On C4 velocity: 0
timestamp 99384000 us: [92 39 00] channel 3: note On A3 velocity: 0
timestamp 99404000 us: [93 45 00] channel 4: note On A4 velocity: 0
timestamp 99442000 us: [95 30 00] channel 6: note On C3 velocity: 0
timestamp 99466000 us: [96 3C 00] channel 7: note On C4 velocity: 0
timestamp 99466000 us: [96 39 00] channel 7: note On A3 velocity: 0
timestamp 99470000 us: [96 35 00] channel 7: note On F3 velocity: 0
timestamp 99481000 us: [93 45 59] channel 4: note On A4 velocity: 89
timestamp 99483000 us: [95 30 32] channel 6: note On C3 velocity: 50
timestamp 99484000 us: [96 35 49] channel 7: note On F3 velocity: 73
timestamp 99486000 us: [99 2A 2A] channel 10: note On F#2 velocity: 42
timestamp 99490000 us: [99 2A 00] channel 10: note On F#2 velocity: 0
timestamp 99500000 us: [92 35 4A] channel 3: note On F3 velocity: 74
timestamp 99558000 us: [95 30 00] channel 6: note On C3 velocity: 0
timestamp 99587000 us: [93 45 00] channel 4: note On A4 velocity: 0
timestamp 99606000 us: [92 35 00] channel 3: note On F3 velocity: 0
timestamp 99636000 us: [93 46 64] channel 4: note On A#4 velocity: 100
timestamp 99637000 us: [95 2E 3C] channel 6: note On A#2 velocity: 60
timestamp 99639000 us: [95 32 51] channel 6: note On D3 velocity: 81
timestamp 99640000 us: [96 3A 63] channel 7: note On A#3 velocity: 99
timestamp 99642000 us: [99 23 72] channel 10: note On B1 velocity: 114
timestamp 99643000 us: [99 2A 4E] channel 10: note On F#2 velocity: 78
timestamp 99645000 us: [92 35 4A] channel 3: note On F3 velocity: 74
timestamp 99646000 us: [92 3A 56] channel 3: note On A#3 velocity: 86
timestamp 99648000 us: [92 3E 5B] channel 3: note On D4 velocity: 91
timestamp 99650000 us: [99 28 61] channel 10: note On E2 velocity: 97
timestamp 99652000 us: [99 2A 00] channel 10: note On F#2 velocity: 0
timestamp 99653000 us: [99 23 00] channel 10: note On B1 velocity: 0
timestamp 99654000 us: [99 28 00] channel 10: note On E2 velocity: 0
timestamp 99660000 us: [96 3E 60] channel 7: note On D4 velocity: 96
timestamp 99703000 us: [92 3E 00] channel 3: note On D4 velocity: 0
timestamp 99704000 us: [92 3A 00] channel 3: note On A#3 velocity: 0
timestamp 99704000 us: [92 35 00] channel 3: note On F3 velocity: 0
timestamp 99756000 us: [95 32 00] channel 6: note On D3 velocity: 0
timestamp 99757000 us: [95 2E 00] channel 6: note On A#2 velocity: 0
timestamp 99810000 us: [96 35 00] channel 7: note On F3 velocity: 0
timestamp 99819000 us: [96 3A 00] channel 7: note On A#3 velocity: 0
timestamp 99829000 us: [96 3E 00] channel 7: note On D4 velocity: 0
timestamp 99897000 us: [93 46 00] channel 4: note On A#4 velocity: 0
timestamp 99946000 us: [93 46 62] channel 4: note On A#4 velocity: 98
timestamp 99948000 us: [95 30 33] channel 6: note On C3 velocity: 51
timestamp 99949000 us: [96 35 46] channel 7: note On F3 velocity: 70
timestamp 99951000 us: [99 2A 2A] channel 10: note On F#2 velocity: 42
timestamp 99955000 us: [99 2A 00] channel 10: note On F#2 velocity: 0
timestamp 99975000 us: [92 35 4D] channel 3: note On F3 velocity: 77
timestamp 99976000 us: [92 39 49] channel 3: note On A3 velocity: 73
timestamp 99978000 us: [92 3C 4A] channel 3: note On C4 velocity: 74
timestamp 100013000 us: [95 30 00] channel 6: note On C3 velocity: 0
timestamp 100083000 us: [93 46 00] channel 4: note On A#4 velocity: 0
timestamp 100096000 us: [96 35 00] channel 7: note On F3 velocity: 0
timestamp 100101000 us: [93 48 64] channel 4: note On C5 velocity: 100
timestamp 100103000 us: [95 30 4A] channel 6: note On C3 velocity: 74
timestamp 100104000 us: [96 35 53] channel 7: note On F3 velocity: 83
timestamp 100106000 us: [99 23 72] channel 10: note On B1 velocity: 114
timestamp 100107000 us: [99 2A 3A] channel 10: note On F#2 velocity: 58
timestamp 100110000 us: [99 2A 00] channel 10: note On F#2 velocity: 0
timestamp 100111000 us: [99 23 00] channel 10: note On B1 velocity: 0
timestamp 100116000 us: [96 39 4B] channel 7: note On A3 velocity: 75
timestamp 100135000 us: [96 3C 52] channel 7: note On C4 velocity: 82
timestamp 100275000 us: [92 35 00] channel 3: note On F3 velocity: 0
timestamp 100304000 us: [93 48 00] channel 4: note On C5 velocity: 0
timestamp 100324000 us: [92 39 00] channel 3: note On A3 velocity: 0
timestamp 100352000 us: [92 3C 00] channel 3: note On C4 velocity: 0
timestamp 100362000 us: [95 30 00] channel 6: note On C3 velocity: 0
timestamp 100396000 us: [96 3C 00] channel 7: note On C4 velocity: 0
timestamp 100397000 us: [96 39 00] channel 7: note On A3 velocity: 0
timestamp 100401000 us: [96 35 00] channel 7: note On F3 velocity: 0
timestamp 100411000 us: [93 48 5B] channel 4: note On C5 velocity: 91
timestamp 100413000 us: [95 30 36] channel 6: note On C3 velocity: 54
timestamp 100414000 us: [96 35 46] channel 7: note On F3 velocity: 70
timestamp 100416000 us: [99 2A 2A] channel 10: note On F#2 velocity: 42
timestamp 100420000 us: [99 2A 00] channel 10: note On F#2 velocity: 0
timestamp 100430000 us: [92 35 4D] channel 3: note On F3 velocity: 77
timestamp 100533000 us: [92 35 00] channel 3: note On F3 velocity: 0
timestamp 100546000 us: [93 48 00] channel 4: note On C5 velocity: 0
timestamp 100566000 us: [95 2E 3D] channel 6: note On A#2 velocity: 61
timestamp 100568000 us: [95 32 51] channel 6: note On D3 velocity: 81
timestamp 100569000 us: [96 3A 63] channel 7: note On A#3 velocity: 99
timestamp 100571000 us: [99 23 72] channel 10: note On B1 velocity: 114
timestamp 100572000 us: [99 2A 4E] channel 10: note On F#2 velocity: 78
timestamp 100574000 us: [92 35 56] channel 3: note On F3 velocity: 86
timestamp 100575000 us: [92 3A 58] channel 3: note On A#3 velocity: 88
timestamp 100577000 us: [92 3E 5A] channel 3: note On D4 velocity: 90
timestamp 100578000 us: [95 30 00] channel 6: note On C3 velocity: 0
timestamp 100579000 us: [99 28 61] channel 10: note On E2 velocity: 97
timestamp 100583000 us: [99 2A 00] channel 10: note On F#2 velocity: 0
timestamp 100583000 us: [99 23 00] channel 10: note On B1 velocity: 0
timestamp 100584000 us: [99 28 00] channel 10: note On E2 velocity: 0
timestamp 100590000 us: [96 3E 60] channel 7: note On D4 velocity: 96
timestamp 100633000 us: [92 3E 00] channel 3: note On D4 velocity: 0
timestamp 100634000 us: [92 3A 00] channel 3: note On A#3 velocity: 0
timestamp 100635000 us: [92 35 00] channel 3: note On F3 velocity: 0
timestamp 100683000 us: [95 32 00] channel 6: note On D3 velocity: 0
timestamp 100683000 us: [95 2E 00] channel 6: note On A#2 velocity: 0
timestamp 100740000 us: [96 35 00] channel 7: note On F3 velocity: 0
timestamp 100749000 us: [96 3A 00] channel 7: note On A#3 velocity: 0
timestamp 100759000 us: [96 3E 00] channel 7: note On D4 velocity: 0
timestamp 100876000 us: [93 48 59] channel 4: note On C5 velocity: 89
timestamp 100878000 us: [95 30 34] channel 6: note On C3 velocity: 52
timestamp 100879000 us: [96 35 46] channel 7: note On F3 velocity: 70
timestamp 100880000 us: [99 2A 2A] channel 10: note On F#2 velocity: 42
timestamp 100885000 us: [99 2A 00] channel 10: note On F#2 velocity: 0
timestamp 100905000 us: [92 35 46] channel 3: note On F3 velocity: 70
timestamp 100907000 us: [92 39 47] channel 3: note On A3 velocity: 71
timestamp 100908000 us: [92 3C 4A] channel 3: note On C4 velocity: 74
timestamp 100963000 us: [93 48 00] channel 4: note On C5 velocity: 0
timestamp 100972000 us: [95 30 00] channel 6: note On C3 velocity: 0
timestamp 101026000 us: [96 35 00] channel 7: note On F3 velocity: 0
timestamp 101032000 us: [93 48 62] channel 4: note On C5 velocity: 98
timestamp 101033000 us: [95 30 47] channel 6: note On C3 velocity: 71
timestamp 101035000 us: [96 35 53] channel 7: note On F3 velocity: 83
timestamp 101036000 us: [99 23 72] channel 10: note On B1 velocity: 114
timestamp 101038000 us: [99 2A 3A] channel 10: note On F#2 velocity: 58
timestamp 101040000 us: [99 2A 00] channel 10: note On F#2 velocity: 0
timestamp 101041000 us: [99 23 00] channel 10: note On B1 velocity: 0
timestamp 101046000 us: [96 39 4B] channel 7: note On A3 velocity: 75
timestamp 101065000 us: [96 3C 52] channel 7: note On C4 velocity: 82
timestamp 101220000 us: [92 35 00] channel 3: note On F3 velocity: 0
timestamp 101263000 us: [93 48 00] channel 4: note On C5 velocity: 0
timestamp 101283000 us: [92 39 00] channel 3: note On A3 velocity: 0
timestamp 101287000 us: [92 3C 00] channel 3: note On C4 velocity: 0
timestamp 101307000 us: [95 30 00] channel 6: note On C3 velocity: 0
timestamp 101326000 us: [96 3C 00] channel 7: note On C4 velocity: 0
timestamp 101327000 us: [96 39 00] channel 7: note On A3 velocity: 0
timestamp 101331000 us: [96 35 00] channel 7: note On F3 velocity: 0
timestamp 101342000 us: [93 48 5D] channel 4: note On C5 velocity: 93
timestamp 101343000 us: [95 30 37] channel 6: note On C3 velocity: 55
timestamp 101344000 us: [96 35 49] channel 7: note On F3 velocity: 73
timestamp 101346000 us: [99 2A 2A] channel 10: note On F#2 velocity: 42
timestamp 101350000 us: [99 2A 00] channel 10: note On F#2 velocity: 0
timestamp 101361000 us: [92 35 4B] channel 3: note On F3 velocity: 75
timestamp 101457000 us: [93 48 00] channel 4: note On C5 velocity: 0
timestamp 101462000 us: [92 35 00] channel 3: note On F3 velocity: 0
timestamp 101491000 us: [95 30 00] channel 6: note On C3 velocity: 0
timestamp 101496000 us: [92 3A 5A] channel 3: note On A#3 velocity: 90
timestamp 101497000 us: [92 3E 5A] channel 3: note On D4 velocity: 90
timestamp 101499000 us: [93 48 59] channel 4: note On C5 velocity: 89
timestamp 101501000 us: [95 2E 3C] channel 6: note On A#2 velocity: 60
timestamp 101502000 us: [95 32 50] channel 6: note On D3 velocity: 80
timestamp 101504000 us: [96 3A 63] channel 7: note On A#3 velocity: 99
timestamp 101505000 us: [99 23 72] channel 10: note On B1 velocity: 114
timestamp 101507000 us: [99 2A 4E] channel 10: note On F#2 velocity: 78
timestamp 101509000 us: [92 35 53] channel 3: note On F3 velocity: 83
timestamp 101510000 us: [99 28 61] channel 10: note On E2 velocity: 97
timestamp 101513000 us: [99 2A 00] channel 10: note On F#2 velocity: 0
timestamp 101513000 us: [99 23 00] channel 10: note On B1 velocity: 0
timestamp 101514000 us: [99 28 00] channel 10: note On E2 velocity: 0
timestamp 101521000 us: [96 3E 60] channel 7: note On D4 velocity: 96
timestamp 101564000 us: [92 3E 00] channel 3: note On D4 velocity: 0
timestamp 101564000 us: [92 3A 00] channel 3: note On A#3 velocity: 0
timestamp 101565000 us: [92 35 00] channel 3: note On F3 velocity: 0
timestamp 101641000 us: [95 32 00] channel 6: note On D3 velocity: 0
timestamp 101642000 us: [95 2E 00] channel 6: note On A#2 velocity: 0
timestamp 101670000 us: [96 35 00] channel 7: note On F3 velocity: 0
timestamp 101680000 us: [96 3A 00] channel 7: note On A#3 velocity: 0
timestamp 101689000 us: [96 3E 00] channel 7: note On D4 velocity: 0
timestamp 101724000 us: [93 48 00] channel 4: note On C5 velocity: 0
timestamp 101806000 us: [93 4A 5D] channel 4: note On D5 velocity: 93
timestamp 101808000 us: [95 30 33] channel 6: note On C3 velocity: 51
timestamp 101809000 us: [96 35 46] channel 7: note On F3 velocity: 70
timestamp 101811000 us: [99 2A 2A] channel 10: note On F#2 velocity: 42
timestamp 101816000 us: [99 2A 00] channel 10: note On F#2 velocity: 0
timestamp 101836000 us: [92 35 47] channel 3: note On F3 velocity: 71
timestamp 101837000 us: [92 39 47] channel 3: note On A3 velocity: 71
timestamp 101838000 us: [92 3C 4A] channel 3: note On C4 velocity: 74
timestamp 101908000 us: [95 30 00] channel 6: note On C3 velocity: 0
timestamp 101956000 us: [93 4A 00] channel 4: note On D5 velocity: 0
timestamp 101957000 us: [96 35 00] channel 7: note On F3 velocity: 0
timestamp 101962000 us: [93 45 65] channel 4: note On A4 velocity: 101
timestamp 101963000 us: [95 30 4A] channel 6: note On C3 velocity: 74
timestamp 101965000 us: [96 35 53] channel 7: note On F3 velocity: 83
timestamp 101966000 us: [99 23 72] channel 10: note On B1 velocity: 114
timestamp 101967000 us: [99 2A 3A] channel 10: note On F#2 velocity: 58
timestamp 101970000 us: [99 2A 00] channel 10: note On F#2 velocity: 0
timestamp 101971000 us: [99 23 00] channel 10: note On B1 velocity: 0
timestamp 101976000 us: [96 39 4B] channel 7: note On A3 velocity: 75
timestamp 101995000 us: [96 3C 52] channel 7: note On C4 velocity: 82
timestamp 102184000 us: [92 35 00] channel 3: note On F3 velocity: 0
timestamp 102208000 us: [92 39 00] channel 3: note On A3 velocity: 0
timestamp 102213000 us: [93 45 00] channel 4: note On A4 velocity: 0
timestamp 102225000 us: [95 30 00] channel 6: note On C3 velocity: 0
timestamp 102247000 us: [92 3C 00] channel 3: note On C4 velocity: 0
timestamp 102256000 us: [96 3C 00] channel 7: note On C4 velocity: 0
timestamp 102257000 us: [96 39 00] channel 7: note On A3 velocity: 0
timestamp 102261000 us: [96 35 00] channel 7: note On F3 velocity: 0
timestamp 102272000 us: [93 41 60] channel 4: note On F4 velocity: 96
timestamp 102273000 us: [95 30 35] channel 6: note On C3 velocity: 53
timestamp 102275000 us: [96 35 46] channel 7: note On F3 velocity: 70
timestamp 102276000 us: [99 2A 3D] channel 10: note On F#2 velocity: 61
timestamp 102277000 us: [99 28 61] channel 10: note On E2 velocity: 97
timestamp 102280000 us: [99 2A 00] channel 10: note On F#2 velocity: 0
timestamp 102282000 us: [99 28 00] channel 10: note On E2 velocity: 0
timestamp 102291000 us: [92 35 4A] channel 3: note On F3 velocity: 74
timestamp 102372000 us: [92 35 00] channel 3: note On F3 velocity: 0
timestamp 102407000 us: [95 30 00] channel 6: note On C3 velocity: 0
timestamp 102421000 us: [93 41 00] channel 4: note On F4 velocity: 0
timestamp 102426000 us: [93 41 60] channel 4: note On F4 velocity: 96
timestamp 102428000 us: [95 2E 3C] channel 6: note On A#2 velocity: 60
timestamp 102429000 us: [95 32 50] channel 6: note On D3 velocity: 80
timestamp 102431000 us: [96 3A 63] channel 7: note On A#3 velocity: 99
timestamp 102433000 us: [97 41 53] channel 8: note On F4 velocity: 83
timestamp 102434000 us: [97 45 65] channel 8: note On A4 velocity: 101
timestamp 102436000 us: [99 23 72] channel 10: note On B1 velocity: 114
timestamp 102437000 us: [99 2A 43] channel 10: note On F#2 velocity: 67
timestamp 102439000 us: [92 3A 5B] channel 3: note On A#3 velocity: 91
timestamp 102440000 us: [92 3E 5B] channel 3: note On D4 velocity: 91
timestamp 102442000 us: [99 28 51] channel 10: note On E2 velocity: 81
timestamp 102448000 us: [92 35 53] channel 3: note On F3 velocity: 83
timestamp 102449000 us: [99 2A 00] channel 10: note On F#2 velocity: 0
timestamp 102449000 us: [99 23 00] channel 10: note On B1 velocity: 0
timestamp 102450000 us: [99 28 00] channel 10: note On E2 velocity: 0
timestamp 102454000 us: [96 3E 60] channel 7: note On D4 velocity: 96
timestamp 102538000 us: [95 32 00] channel 6: note On D3 velocity: 0
timestamp 102538000 us: [95 2E 00] channel 6: note On A#2 velocity: 0
timestamp 102600000 us: [96 35 00] channel 7: note On F3 velocity: 0
timestamp 102610000 us: [96 3A 00] channel 7: note On A#3 velocity: 0
timestamp 102620000 us: [96 3E 00] channel 7: note On D4 velocity: 0
timestamp 102625000 us: [92 3E 00] channel 3: note On D4 velocity: 0
timestamp 102625000 us: [92 3A 00] channel 3: note On A#3 velocity: 0
timestamp 102630000 us: [92 35 00] channel 3: note On F3 velocity: 0
timestamp 102731000 us: [93 41 00] channel 4: note On F4 velocity: 0
timestamp 102737000 us: [92 33 1C] channel 3: note On D#3 velocity: 28
timestamp 102738000 us: [93 3F 5C] channel 4: note On D#4 velocity: 92
timestamp 102740000 us: [95 30 32] channel 6: note On C3 velocity: 50
timestamp 102741000 us: [96 35 46] channel 7: note On F3 velocity: 70
timestamp 102743000 us: [97 3F 50] channel 8: note On D#4 velocity: 80
timestamp 102744000 us: [97 43 62] channel 8: note On G4 velocity: 98
timestamp 102746000 us: [99 28 4D] channel 10: note On E2 velocity: 77
timestamp 102748000 us: [97 45 00] channel 8: note On A4 velocity: 0
timestamp 102749000 us: [97 41 00] channel 8: note On F4 velocity: 0
timestamp 102750000 us: [99 28 00] channel 10: note On E2 velocity: 0
timestamp 102809000 us: [92 33 00] channel 3: note On D#3 velocity: 0
timestamp 102882000 us: [95 30 00] channel 6: note On C3 velocity: 0
timestamp 102886000 us: [91 1D 00] channel 2: note On F1 velocity: 0
timestamp 102887000 us: [96 35 00] channel 7: note On F3 velocity: 0
timestamp 102892000 us: [91 1B 67] channel 2: note On D#1 velocity: 103
timestamp 102894000 us: [92 33 4D] channel 3: note On D#3 velocity: 77
timestamp 102895000 us: [92 37 50] channel 3: note On G3 velocity: 80
timestamp 102896000 us: [92 3A 49] channel 3: note On A#3 velocity: 73
timestamp 102898000 us: [95 2E 4F] channel 6: note On A#2 velocity: 79
timestamp 102899000 us: [96 33 53] channel 7: note On D#3 velocity: 83
timestamp 102901000 us: [99 23 72] channel 10: note On B1 velocity: 114
timestamp 102902000 us: [99 31 46] channel 10: note On C#3 velocity: 70
timestamp 102905000 us: [99 31 00] channel 10: note On C#3 velocity: 0
timestamp 102906000 us: [99 23 00] channel 10: note On B1 velocity: 0
timestamp 102908000 us: [96 37 4B] channel 7: note On G3 velocity: 75
timestamp 102925000 us: [96 3A 52] channel 7: note On A#3 velocity: 82
timestamp 103085000 us: [92 33 00] channel 3: note On D#3 velocity: 0
timestamp 103129000 us: [97 3F 00] channel 8: note On D#4 velocity: 0
timestamp 103129000 us: [97 43 00] channel 8: note On G4 velocity: 0
timestamp 103155000 us: [92 3A 00] channel 3: note On A#3 velocity: 0
timestamp 103156000 us: [93 3F 00] channel 4: note On D#4 velocity: 0
timestamp 103163000 us: [95 2E 00] channel 6: note On A#2 velocity: 0
timestamp 103187000 us: [96 3A 00] channel 7: note On A#3 velocity: 0
timestamp 103187000 us: [96 37 00] channel 7: note On G3 velocity: 0
timestamp 103192000 us: [96 33 00] channel 7: note On D#3 velocity: 0
timestamp 103202000 us: [92 33 5B] channel 3: note On D#3 velocity: 91
timestamp 103204000 us: [95 2E 32] channel 6: note On A#2 velocity: 50
timestamp 103205000 us: [96 33 49] channel 7: note On D#3 velocity: 73
timestamp 103206000 us: [99 2A 2A] channel 10: note On F#2 velocity: 42
timestamp 103210000 us: [99 2A 00] channel 10: note On F#2 velocity: 0
timestamp 103240000 us: [92 37 00] channel 3: note On G3 velocity: 0
timestamp 103279000 us: [95 2E 00] channel 6: note On A#2 velocity: 0
timestamp 103357000 us: [92 38 57] channel 3: note On G#3 velocity: 87
timestamp 103358000 us: [92 3C 57] channel 3: note On C4 velocity: 87
timestamp 103360000 us: [95 2C 3C] channel 6: note On G#2 velocity: 60
timestamp 103361000 us: [95 30 51] channel 6: note On C3 velocity: 81
timestamp 103363000 us: [96 38 63] channel 7: note On G#3 velocity: 99
timestamp 103364000 us: [99 23 72] channel 10: note On B1 velocity: 114
timestamp 103365000 us: [99 2A 4E] channel 10: note On F#2 velocity: 78
timestamp 103367000 us: [99 28 61] channel 10: note On E2 velocity: 97
timestamp 103373000 us: [99 2A 00] channel 10: note On F#2 velocity: 0
timestamp 103374000 us: [99 23 00] channel 10: note On B1 velocity: 0
timestamp 103375000 us: [99 28 00] channel 10: note On E2 velocity: 0
timestamp 103381000 us: [96 3C 60] channel 7: note On C4 velocity: 96
timestamp 103477000 us: [95 30 00] channel 6: note On C3 velocity: 0
timestamp 103478000 us: [95 2C 00] channel 6: note On G#2 velocity: 0
timestamp 103531000 us: [96 33 00] channel 7: note On D#3 velocity: 0
timestamp 103540000 us: [96 38 00] channel 7: note On G#3 velocity: 0
timestamp 103550000 us: [92 3C 00] channel 3: note On C4 velocity: 0
timestamp 103551000 us: [96 3C 00] channel 7: note On C4 velocity: 0
timestamp 103569000 us: [92 33 00] channel 3: note On D#3 velocity: 0
timestamp 103589000 us: [92 38 00] channel 3: note On G#3 velocity: 0
timestamp 103667000 us: [92 33 54] channel 3: note On D#3 velocity: 84
timestamp 103668000 us: [92 37 54] channel 3: note On G3 velocity: 84
timestamp 103670000 us: [92 3A 49] channel 3: note On A#3 velocity: 73
timestamp 103672000 us: [95 2E 33] channel 6: note On A#2 velocity: 51
timestamp 103673000 us: [96 33 46] channel 7: note On D#3 velocity: 70
timestamp 103674000 us: [99 2A 2A] channel 10: note On F#2 velocity: 42
timestamp 103676000 us: [99 2A 00] channel 10: note On F#2 velocity: 0
timestamp 103734000 us: [95 2E 00] channel 6: note On A#2 velocity: 0
timestamp 103817000 us: [96 33 00] channel 7: note On D#3 velocity: 0
timestamp 103822000 us: [95 2E 4A] channel 6: note On A#2 velocity: 74
timestamp 103824000 us: [96 33 53] channel 7: note On D#3 velocity: 83
timestamp 103825000 us: [99 23 72] channel 10: note On B1 velocity: 114
timestamp 103826000 us: [99 2A 3A] channel 10: note On F#2 velocity: 58
timestamp 103831000 us: [99 2A 00] channel 10: note On F#2 velocity: 0
timestamp 103832000 us: [99 23 00] channel 10: note On B1 velocity: 0
timestamp 103837000 us: [96 37 4B] channel 7: note On G3 velocity: 75
timestamp 103856000 us: [96 3A 52] channel 7: note On A#3 velocity: 82
timestamp 104083000 us: [95 2E 00] channel 6: note On A#2 velocity: 0
timestamp 104117000 us: [96 3A 00] channel 7: note On A#3 velocity: 0
timestamp 104118000 us: [96 37 00] channel 7: note On G3 velocity: 0
timestamp 104122000 us: [96 33 00] channel 7: note On D#3 velocity: 0
timestamp 104132000 us: [95 2E 36] channel 6: note On A#2 velocity: 54
timestamp 104134000 us: [96 33 46] channel 7: note On D#3 velocity: 70
timestamp 104135000 us: [99 2A 2A] channel 10: note On F#2 velocity: 42
timestamp 104141000 us: [99 2A 00] channel 10: note On F#2 velocity: 0
timestamp 104287000 us: [93 3F 62] channel 4: note On D#4 velocity: 98
timestamp 104289000 us: [95 2C 3D] channel 6: note On G#2 velocity: 61
timestamp 104290000 us: [95 30 51] channel 6: note On C3 velocity: 81
timestamp 104292000 us: [96 38 63] channel 7: note On G#3 velocity: 99
timestamp 104294000 us: [97 3F 50] channel 8: note On D#4 velocity: 80
timestamp 104295000 us: [97 43 62] channel 8: note On G4 velocity: 98
timestamp 104296000 us: [99 23 72] channel 10: note On B1 velocity: 114
timestamp 104298000 us: [99 2A 4E] channel 10: note On F#2 velocity: 78
timestamp 104299000 us: [95 2E 00] channel 6: note On A#2 velocity: 0
timestamp 104300000 us: [99 28 61] channel 10: note On E2 velocity: 97
timestamp 104304000 us: [99 2A 00] channel 10: note On F#2 velocity: 0
timestamp 104304000 us: [99 23 00] channel 10: note On B1 velocity: 0
timestamp 104305000 us: [99 28 00] channel 10: note On E2 velocity: 0
timestamp 104311000 us: [96 3C 60] channel 7: note On C4 velocity: 96
timestamp 104403000 us: [95 30 00] channel 6: note On C3 velocity: 0
timestamp 104404000 us: [95 2C 00] channel 6: note On G#2 velocity: 0
timestamp 104461000 us: [96 33 00] channel 7: note On D#3 velocity: 0
timestamp 104470000 us: [96 38 00] channel 7: note On G#3 velocity: 0
timestamp 104480000 us: [96 3C 00] channel 7: note On C4 velocity: 0
timestamp 104543000 us: [92 33 00] channel 3: note On D#3 velocity: 0
timestamp 104563000 us: [97 43 00] channel 8: note On G4 velocity: 0
timestamp 104564000 us: [97 3F 00] channel 8: note On D#4 velocity: 0
timestamp 104573000 us: [92 37 00] channel 3: note On G3 velocity: 0
timestamp 104592000 us: [91 1B 00] channel 2: note On D#1 velocity: 0
timestamp 104593000 us: [93 3F 00] channel 4: note On D#4 velocity: 0
timestamp 104597000 us: [92 35 49] channel 3: note On F3 velocity: 73
timestamp 104599000 us: [93 41 62] channel 4: note On F4 velocity: 98
timestamp 104600000 us: [95 2E 34] channel 6: note On A#2 velocity: 52
timestamp 104602000 us: [96 33 46] channel 7: note On D#3 velocity: 70
timestamp 104603000 us: [97 3E 51] channel 8: note On D4 velocity: 81
timestamp 104605000 us: [97 41 63] channel 8: note On F4 velocity: 99
timestamp 104606000 us: [99 2A 2A] channel 10: note On F#2 velocity: 42
timestamp 104609000 us: [92 3A 00] channel 3: note On A#3 velocity: 0
timestamp 104610000 us: [99 2A 00] channel 10: note On F#2 velocity: 0
timestamp 104627000 us: [91 22 67] channel 2: note On A#1 velocity: 103
timestamp 104695000 us: [95 2E 00] channel 6: note On A#2 velocity: 0
timestamp 104733000 us: [92 35 00] channel 3: note On F3 velocity: 0
timestamp 104747000 us: [96 33 00] channel 7: note On D#3 velocity: 0
timestamp 104753000 us: [92 35 53] channel 3: note On F3 velocity: 83
timestamp 104754000 us: [92 3A 5B] channel 3: note On A#3 velocity: 91
timestamp 104755000 us: [92 3E 5B] channel 3: note On D4 velocity: 91
timestamp 104757000 us: [95 35 47] channel 6: note On F3 velocity: 71
timestamp 104759000 us: [96 35 53] channel 7: note On F3 velocity: 83
timestamp 104760000 us: [99 23 72] channel 10: note On B1 velocity: 114
timestamp 104762000 us: [99 2A 3A] channel 10: note On F#2 velocity: 58
timestamp 104765000 us: [99 2A 00] channel 10: note On F#2 velocity: 0
timestamp 104765000 us: [99 23 00] channel 10: note On B1 velocity: 0
timestamp 104768000 us: [96 3A 4B] channel 7: note On A#3 velocity: 75
timestamp 104786000 us: [96 3E 52] channel 7: note On D4 velocity: 82
timestamp 104974000 us: [93 41 00] channel 4: note On F4 velocity: 0
timestamp 104985000 us: [97 41 00] channel 8: note On F4 velocity: 0
timestamp 104986000 us: [97 3E 00] channel 8: note On D4 velocity: 0
timestamp 105028000 us: [95 35 00] channel 6: note On F3 velocity: 0
timestamp 105043000 us: [92 3A 00] channel 3: note On A#3 velocity: 0
timestamp 105044000 us: [92 35 00] channel 3: note On F3 velocity: 0
timestamp 105047000 us: [92 3E 00] channel 3: note On D4 velocity: 0
timestamp 105048000 us: [96 3E 00] channel 7: note On D4 velocity: 0
timestamp 105048000 us: [96 3A 00] channel 7: note On A#3 velocity: 0
timestamp 105052000 us: [96 35 00] channel 7: note On F3 velocity: 0
timestamp 105062000 us: [92 35 3B] channel 3: note On F3 velocity: 59
timestamp 105064000 us: [92 3A 46] channel 3: note On A#3 velocity: 70
timestamp 105065000 us: [95 35 37] channel 6: note On F3 velocity: 55
timestamp 105067000 us: [96 35 49] channel 7: note On F3 velocity: 73
timestamp 105068000 us: [99 2A 2A] channel 10: note On F#2 velocity: 42
timestamp 105071000 us: [99 2A 00] channel 10: note On F#2 velocity: 0
timestamp 105212000 us: [92 35 00] channel 3: note On F3 velocity: 0
timestamp 105213000 us: [95 35 00] channel 6: note On F3 velocity: 0
timestamp 105217000 us: [92 35 37] channel 3: note On F3 velocity: 55
timestamp 105218000 us: [92 3F 5B] channel 3: note On D#4 velocity: 91
timestamp 105220000 us: [95 33 3C] channel 6: note On D#3 velocity: 60
timestamp 105222000 us: [95 37 50] channel 6: note On G3 velocity: 80
timestamp 105224000 us: [96 3A 63] channel 7: note On A#3 velocity: 99
timestamp 105225000 us: [99 23 72] channel 10: note On B1 velocity: 114
timestamp 105226000 us: [99 2A 4E] channel 10: note On F#2 velocity: 78
timestamp 105228000 us: [99 28 61] channel 10: note On E2 velocity: 97
timestamp 105231000 us: [99 2A 00] channel 10: note On F#2 velocity: 0
timestamp 105232000 us: [99 23 00] channel 10: note On B1 velocity: 0
timestamp 105233000 us: [99 28 00] channel 10: note On E2 velocity: 0
timestamp 105242000 us: [96 3F 60] channel 7: note On D#4 velocity: 96
timestamp 105362000 us: [95 37 00] channel 6: note On G3 velocity: 0
timestamp 105363000 us: [95 33 00] channel 6: note On D#3 velocity: 0
timestamp 105391000 us: [96 35 00] channel 7: note On F3 velocity: 0
timestamp 105401000 us: [96 3A 00] channel 7: note On A#3 velocity: 0
timestamp 105410000 us: [96 3F 00] channel 7: note On D#4 velocity: 0
timestamp 105449000 us: [92 3A 00] channel 3: note On A#3 velocity: 0
timestamp 105498000 us: [92 35 00] channel 3: note On F3 velocity: 0
timestamp 105503000 us: [92 3F 00] channel 3: note On D#4 velocity: 0
timestamp 105527000 us: [92 35 4D] channel 3: note On F3 velocity: 77
timestamp 105529000 us: [92 3A 46] channel 3: note On A#3 velocity: 70
timestamp 105530000 us: [92 3E 5E] channel 3: note On D4 velocity: 94
timestamp 105532000 us: [95 35 33] channel 6: note On F3 velocity: 51
timestamp 105534000 us: [96 35 46] channel 7: note On F3 velocity: 70
timestamp 105535000 us: [99 2A 2A] channel 10: note On F#2 velocity: 42
timestamp 105539000 us: [99 2A 00] channel 10: note On F#2 velocity: 0
timestamp 105629000 us: [95 35 00] channel 6: note On F3 velocity: 0
timestamp 105677000 us: [96 35 00] channel 7: note On F3 velocity: 0
timestamp 105683000 us: [95 35 4A] channel 6: note On F3 velocity: 74
timestamp 105684000 us: [96 35 53] channel 7: note On F3 velocity: 83
timestamp 105686000 us: [99 23 72] channel 10: note On B1 velocity: 114
timestamp 105687000 us: [99 2A 3A] channel 10: note On F#2 velocity: 58
timestamp 105692000 us: [99 2A 00] channel 10: note On F#2 velocity: 0
timestamp 105693000 us: [99 23 00] channel 10: note On B1 velocity: 0
timestamp 105697000 us: [96 3A 4B] channel 7: note On A#3 velocity: 75
timestamp 105716000 us: [96 3E 52] channel 7: note On D4 velocity: 82
timestamp 105944000 us: [95 35 00] channel 6: note On F3 velocity: 0
timestamp 105977000 us: [96 3E 00] channel 7: note On D4 velocity: 0
timestamp 105978000 us: [96 3A 00] channel 7: note On A#3 velocity: 0
timestamp 105982000 us: [96 35 00] channel 7: note On F3 velocity: 0
timestamp 105993000 us: [95 35 35] channel 6: note On F3 velocity: 53
timestamp 105994000 us: [96 35 46] channel 7: note On F3 velocity: 70
timestamp 105995000 us: [99 2A 2A] channel 10: note On F#2 velocity: 42
timestamp 106001000 us: [99 2A 00] channel 10: note On F#2 velocity: 0
timestamp 106128000 us: [95 35 00] channel 6: note On F3 velocity: 0
timestamp 106148000 us: [93 41 63] channel 4: note On F4 velocity: 99
timestamp 106149000 us: [95 33 3C] channel 6: note On D#3 velocity: 60
timestamp 106150000 us: [95 37 50] channel 6: note On G3 velocity: 80
timestamp 106152000 us: [96 3A 63] channel 7: note On A#3 velocity: 99
timestamp 106154000 us: [97 3E 51] channel 8: note On D4 velocity: 81
timestamp 106155000 us: [97 41 63] channel 8: note On F4 velocity: 99
timestamp 106157000 us: [99 23 72] channel 10: note On B1 velocity: 114
timestamp 106158000 us: [99 2A 4E] channel 10: note On F#2 velocity: 78
timestamp 106160000 us: [99 28 61] channel 10: note On E2 velocity: 97
timestamp 106163000 us: [99 2A 00] channel 10: note On F#2 velocity: 0
timestamp 106164000 us: [99 23 00] channel 10: note On B1 velocity: 0
timestamp 106165000 us: [99 28 00] channel 10: note On E2 velocity: 0
timestamp 106172000 us: [96 3F 60] channel 7: note On D#4 velocity: 96
timestamp 106259000 us: [95 37 00] channel 6: note On G3 velocity: 0
timestamp 106259000 us: [95 33 00] channel 6: note On D#3 velocity: 0
timestamp 106321000 us: [96 35 00] channel 7: note On F3 velocity: 0
timestamp 106331000 us: [96 3A 00] channel 7: note On A#3 velocity: 0
timestamp 106340000 us: [96 3F 00] channel 7: note On D#4 velocity: 0
timestamp 106404000 us: [91 22 00] channel 2: note On A#1 velocity: 0
timestamp 106409000 us: [92 35 00] channel 3: note On F3 velocity: 0
timestamp 106413000 us: [92 3A 00] channel 3: note On A#3 velocity: 0
timestamp 106414000 us: [93 41 00] channel 4: note On F4 velocity: 0
timestamp 106415000 us: [92 3E 00] channel 3: note On D4 velocity: 0
timestamp 106418000 us: [97 41 00] channel 8: note On F4 velocity: 0
timestamp 106419000 us: [97 3E 00] channel 8: note On D4 velocity: 0
timestamp 106458000 us: [92 35 3B] channel 3: note On F3 velocity: 59
timestamp 106459000 us: [93 3C 57] channel 4: note On C4 velocity: 87
timestamp 106461000 us: [95 35 32] channel 6: note On F3 velocity: 50
timestamp 106462000 us: [96 35 46] channel 7: note On F3 velocity: 70
timestamp 106464000 us: [97 3C 4B] channel 8: note On C4 velocity: 75
timestamp 106465000 us: [97 41 5D] channel 8: note On F4 velocity: 93
timestamp 106466000 us: [99 2A 2A] channel 10: note On F#2 velocity: 42
timestamp 106469000 us: [99 2A 00] channel 10: note On F#2 velocity: 0
timestamp 106487000 us: [91 1D 67] channel 2: note On F1 velocity: 103
timestamp 106595000 us: [E4 00 0C] channel 5: pitch wheel change 1536
timestamp 106599000 us: [94 4D 73] channel 5: note On F5 velocity: 115
timestamp 106600000 us: [94 59 6D] channel 5: note On F6 velocity: 109
timestamp 106603000 us: [95 35 00] channel 6: note On F3 velocity: 0
timestamp 106607000 us: [92 35 00] channel 3: note On F3 velocity: 0
timestamp 106608000 us: [96 35 00] channel 7: note On F3 velocity: 0
timestamp 106614000 us: [95 30 4F] channel 6: note On C3 velocity: 79
timestamp 106615000 us: [96 35 53] channel 7: note On F3 velocity: 83
timestamp 106616000 us: [99 23 72] channel 10: note On B1 velocity: 114
timestamp 106618000 us: [99 2A 3A] channel 10: note On F#2 velocity: 58
timestamp 106621000 us: [92 35 45] channel 3: note On F3 velocity: 69
timestamp 106623000 us: [92 39 51] channel 3: note On A3 velocity: 81
timestamp 106626000 us: [92 3C 54] channel 3: note On C4 velocity: 84
timestamp 106627000 us: [99 2A 00] channel 10: note On F#2 velocity: 0
timestamp 106628000 us: [99 23 00] channel 10: note On B1 velocity: 0
timestamp 106630000 us: [96 39 4B] channel 7: note On A3 velocity: 75
timestamp 106646000 us: [96 3C 52] channel 7: note On C4 velocity: 82
timestamp 106754000 us: [E4 00 16] channel 5: pitch wheel change 2816
timestamp 106772000 us: [E4 00 24] channel 5: pitch wheel change 4608
timestamp 106796000 us: [E4 00 30] channel 5: pitch wheel change 6144
timestamp 106816000 us: [E4 00 37] channel 5: pitch wheel change 7040
timestamp 106830000 us: [E4 00 40] channel 5: pitch wheel change 8192
timestamp 106840000 us: [92 35 00] channel 3: note On F3 velocity: 0
timestamp 106841000 us: [92 39 00] channel 3: note On A3 velocity: 0
timestamp 106845000 us: [92 3C 00] channel 3: note On C4 velocity: 0
timestamp 106846000 us: [97 41 00] channel 8: note On F4 velocity: 0
timestamp 106846000 us: [97 3C 00] channel 8: note On C4 velocity: 0
timestamp 106864000 us: [93 3C 00] channel 4: note On C4 velocity: 0
timestamp 106884000 us: [95 30 00] channel 6: note On C3 velocity: 0
timestamp 106908000 us: [96 3C 00] channel 7: note On C4 velocity: 0
timestamp 106908000 us: [96 39 00] channel 7: note On A3 velocity: 0
timestamp 106913000 us: [96 35 00] channel 7: note On F3 velocity: 0
timestamp 106923000 us: [95 30 32] channel 6: note On C3 velocity: 50
timestamp 106925000 us: [96 35 49] channel 7: note On F3 velocity: 73
timestamp 106926000 us: [99 2A 2A] channel 10: note On F#2 velocity: 42
timestamp 106931000 us: [99 2A 00] channel 10: note On F#2 velocity: 0
timestamp 106942000 us: [92 35 4A] channel 3: note On F3 velocity: 74
timestamp 107000000 us: [95 30 00] channel 6: note On C3 velocity: 0
timestamp 107048000 us: [92 35 00] channel 3: note On F3 velocity: 0
timestamp 107078000 us: [95 2E 3C] channel 6: note On A#2 velocity: 60
timestamp 107079000 us: [95 32 51] channel 6: note On D3 velocity: 81
timestamp 107081000 us: [96 3A 63] channel 7: note On A#3 velocity: 99
timestamp 107082000 us: [99 23 72] channel 10: note On B1 velocity: 114
timestamp 107084000 us: [99 2A 4E] channel 10: note On F#2 velocity: 78
timestamp 107086000 us: [92 35 4A] channel 3: note On F3 velocity: 74
timestamp 107087000 us: [92 3A 56] channel 3: note On A#3 velocity: 86
timestamp 107088000 us: [92 3E 5B] channel 3: note On D4 velocity: 91
timestamp 107090000 us: [99 28 61] channel 10: note On E2 velocity: 97
timestamp 107096000 us: [E4 00 3D] channel 5: pitch wheel change 7808
timestamp 107098000 us: [99 2A 00] channel 10: note On F#2 velocity: 0
timestamp 107099000 us: [99 23 00] channel 10: note On B1 velocity: 0
timestamp 107099000 us: [99 28 00] channel 10: note On E2 velocity: 0
timestamp 107102000 us: [96 3E 60] channel 7: note On D4 velocity: 96
timestamp 107145000 us: [92 3E 00] channel 3: note On D4 velocity: 0
timestamp 107146000 us: [92 3A 00] channel 3: note On A#3 velocity: 0
timestamp 107146000 us: [92 35 00] channel 3: note On F3 velocity: 0
timestamp 107160000 us: [E4 00 3B] channel 5: pitch wheel change 7552
timestamp 107198000 us: [95 32 00] channel 6: note On D3 velocity: 0
timestamp 107199000 us: [95 2E 00] channel 6: note On A#2 velocity: 0
timestamp 107252000 us: [96 35 00] channel 7: note On F3 velocity: 0
timestamp 107261000 us: [96 3A 00] channel 7: note On A#3 velocity: 0
timestamp 107271000 us: [96 3E 00] channel 7: note On D4 velocity: 0
timestamp 107276000 us: [E4 00 38] channel 5: pitch wheel change 7168
timestamp 107320000 us: [94 59 00] channel 5: note On F6 velocity: 0
timestamp 107320000 us: [94 4D 00] channel 5: note On F5 velocity: 0
timestamp 107368000 us: [E4 00 40] channel 5: pitch wheel change 8192
timestamp 107371000 us: [94 48 6C] channel 5: note On C5 velocity: 108
timestamp 107373000 us: [94 54 61] channel 5: note On C6 velocity: 97
timestamp 107388000 us: [95 30 33] channel 6: note On C3 velocity: 51
timestamp 107390000 us: [96 35 46] channel 7: note On F3 velocity: 70
timestamp 107391000 us: [99 2A 2A] channel 10: note On F#2 velocity: 42
timestamp 107397000 us: [99 2A 00] channel 10: note On F#2 velocity: 0
timestamp 107417000 us: [92 35 4D] channel 3: note On F3 velocity: 77
timestamp 107418000 us: [92 39 49] channel 3: note On A3 velocity: 73
timestamp 107420000 us: [92 3C 4A] channel 3: note On C4 velocity: 74
timestamp 107455000 us: [95 30 00] channel 6: note On C3 velocity: 0
timestamp 107460000 us: [94 54 00] channel 5: note On C6 velocity: 0
timestamp 107461000 us: [94 48 00] channel 5: note On C5 velocity: 0
timestamp 107525000 us: [94 4B 6E] channel 5: note On D#5 velocity: 110
timestamp 107527000 us: [94 57 63] channel 5: note On D#6 velocity: 99
timestamp 107538000 us: [96 35 00] channel 7: note On F3 velocity: 0
timestamp 107543000 us: [95 30 4A] channel 6: note On C3 velocity: 74
timestamp 107545000 us: [96 35 53] channel 7: note On F3 velocity: 83
timestamp 107546000 us: [99 23 72] channel 10: note On B1 velocity: 114
timestamp 107548000 us: [99 2A 3A] channel 10: note On F#2 velocity: 58
timestamp 107552000 us: [99 2A 00] channel 10: note On F#2 velocity: 0
timestamp 107553000 us: [99 23 00] channel 10: note On B1 velocity: 0
timestamp 107558000 us: [96 39 4B] channel 7: note On A3 velocity: 75
timestamp 107577000 us: [96 3C 52] channel 7: note On C4 velocity: 82
timestamp 107620000 us: [94 57 00] channel 5: note On D#6 velocity: 0
timestamp 107621000 us: [94 4B 00] channel 5: note On D#5 velocity: 0
timestamp 107679000 us: [94 48 6A] channel 5: note On C5 velocity: 106
timestamp 107680000 us: [94 54 5F] channel 5: note On C6 velocity: 95
timestamp 107717000 us: [92 35 00] channel 3: note On F3 velocity: 0
timestamp 107765000 us: [92 39 00] channel 3: note On A3 velocity: 0
timestamp 107780000 us: [94 54 00] channel 5: note On C6 velocity: 0
timestamp 107780000 us: [94 48 00] channel 5: note On C5 velocity: 0
timestamp 107794000 us: [92 3C 00] channel 3: note On C4 velocity: 0
timestamp 107804000 us: [95 30 00] channel 6: note On C3 velocity: 0
timestamp 107836000 us: [94 45 6C] channel 5: note On A4 velocity: 108
timestamp 107838000 us: [94 51 61] channel 5: note On A5 velocity: 97
timestamp 107840000 us: [96 3C 00] channel 7: note On C4 velocity: 0
timestamp 107840000 us: [96 39 00] channel 7: note On A3 velocity: 0
timestamp 107843000 us: [96 35 00] channel 7: note On F3 velocity: 0
timestamp 107853000 us: [95 30 36] channel 6: note On C3 velocity: 54
timestamp 107855000 us: [96 35 46] channel 7: note On F3 velocity: 70
timestamp 107856000 us: [99 2A 2A] channel 10: note On F#2 velocity: 42
timestamp 107862000 us: [99 2A 00] channel 10: note On F#2 velocity: 0
timestamp 107873000 us: [92 35 4D] channel 3: note On F3 velocity: 77
timestamp 107920000 us: [94 51 00] channel 5: note On A5 velocity: 0
timestamp 107921000 us: [94 45 00] channel 5: note On A4 velocity: 0
timestamp 107974000 us: [92 35 00] channel 3: note On F3 velocity: 0
timestamp 107989000 us: [94 41 6A] channel 5: note On F4 velocity: 106
timestamp 107991000 us: [94 4D 5F] channel 5: note On F5 velocity: 95
timestamp 108008000 us: [95 2E 3D] channel 6: note On A#2 velocity: 61
timestamp 108009000 us: [95 32 51] channel 6: note On D3 velocity: 81
timestamp 108011000 us: [96 3A 63] channel 7: note On A#3 velocity: 99
timestamp 108013000 us: [99 23 72] channel 10: note On B1 velocity: 114
timestamp 108014000 us: [99 2A 4E] channel 10: note On F#2 velocity: 78
timestamp 108016000 us: [92 35 56] channel 3: note On F3 velocity: 86
timestamp 108018000 us: [92 3A 58] channel 3: note On A#3 velocity: 88
timestamp 108019000 us: [92 3E 5A] channel 3: note On D4 velocity: 90
timestamp 108020000 us: [95 30 00] channel 6: note On C3 velocity: 0
timestamp 108022000 us: [99 28 61] channel 10: note On E2 velocity: 97
timestamp 108025000 us: [99 2A 00] channel 10: note On F#2 velocity: 0
timestamp 108025000 us: [99 23 00] channel 10: note On B1 velocity: 0
timestamp 108026000 us: [99 28 00] channel 10: note On E2 velocity: 0
timestamp 108032000 us: [96 3E 60] channel 7: note On D4 velocity: 96
timestamp 108076000 us: [92 3E 00] channel 3: note On D4 velocity: 0
timestamp 108077000 us: [92 3A 00] channel 3: note On A#3 velocity: 0
timestamp 108078000 us: [92 35 00] channel 3: note On F3 velocity: 0
timestamp 108079000 us: [94 4D 00] channel 5: note On F5 velocity: 0
timestamp 108080000 us: [94 41 00] channel 5: note On F4 velocity: 0
timestamp 108124000 us: [95 32 00] channel 6: note On D3 velocity: 0
timestamp 108125000 us: [95 2E 00] channel 6: note On A#2 velocity: 0
timestamp 108148000 us: [94 3F 70] channel 5: note On D#4 velocity: 112
timestamp 108149000 us: [94 4B 65] channel 5: note On D#5 velocity: 101
timestamp 108182000 us: [96 35 00] channel 7: note On F3 velocity: 0
timestamp 108191000 us: [96 3A 00] channel 7: note On A#3 velocity: 0
timestamp 108201000 us: [96 3E 00] channel 7: note On D4 velocity: 0
timestamp 108235000 us: [94 4B 00] channel 5: note On D#5 velocity: 0
timestamp 108236000 us: [94 3F 00] channel 5: note On D#4 velocity: 0
timestamp 108299000 us: [94 3C 6B] channel 5: note On C4 velocity: 107
timestamp 108300000 us: [94 48 60] channel 5: note On C5 velocity: 96
timestamp 108318000 us: [95 30 34] channel 6: note On C3 velocity: 52
timestamp 108320000 us: [96 35 46] channel 7: note On F3 velocity: 70
timestamp 108321000 us: [99 2A 2A] channel 10: note On F#2 velocity: 42
timestamp 108327000 us: [99 2A 00] channel 10: note On F#2 velocity: 0
timestamp 108348000 us: [92 35 46] channel 3: note On F3 velocity: 70
timestamp 108349000 us: [92 39 47] channel 3: note On A3 velocity: 71
timestamp 108351000 us: [92 3C 4A] channel 3: note On C4 velocity: 74
timestamp 108390000 us: [94 48 00] channel 5: note On C5 velocity: 0
timestamp 108391000 us: [94 3C 00] channel 5: note On C4 velocity: 0
timestamp 108415000 us: [95 30 00] channel 6: note On C3 velocity: 0
timestamp 108455000 us: [94 3F 70] channel 5: note On D#4 velocity: 112
timestamp 108457000 us: [94 4B 65] channel 5: note On D#5 velocity: 101
timestamp 108468000 us: [96 35 00] channel 7: note On F3 velocity: 0
timestamp 108474000 us: [95 30 47] channel 6: note On C3 velocity: 71
timestamp 108476000 us: [96 35 53] channel 7: note On F3 velocity: 83
timestamp 108477000 us: [99 23 72] channel 10: note On B1 velocity: 114
timestamp 108478000 us: [99 2A 3A] channel 10: note On F#2 velocity: 58
timestamp 108482000 us: [99 2A 00] channel 10: note On F#2 velocity: 0
timestamp 108483000 us: [99 23 00] channel 10: note On B1 velocity: 0
timestamp 108488000 us: [96 39 4B] channel 7: note On A3 velocity: 75
timestamp 108507000 us: [96 3C 52] channel 7: note On C4 velocity: 82
timestamp 108662000 us: [92 35 00] channel 3: note On F3 velocity: 0
timestamp 108700000 us: [94 4B 00] channel 5: note On D#5 velocity: 0
timestamp 108701000 us: [94 3F 00] channel 5: note On D#4 velocity: 0
timestamp 108725000 us: [92 39 00] channel 3: note On A3 velocity: 0
timestamp 108729000 us: [92 3C 00] channel 3: note On C4 velocity: 0
timestamp 108749000 us: [95 30 00] channel 6: note On C3 velocity: 0
timestamp 108765000 us: [94 41 6A] channel 5: note On F4 velocity: 106
timestamp 108767000 us: [94 4D 5F] channel 5: note On F5 velocity: 95
timestamp 108768000 us: [96 3C 00] channel 7: note On C4 velocity: 0
timestamp 108769000 us: [96 39 00] channel 7: note On A3 velocity: 0
timestamp 108773000 us: [96 35 00] channel 7: note On F3 velocity: 0
timestamp 108783000 us: [95 30 37] channel 6: note On C3 velocity: 55
timestamp 108785000 us: [96 35 49] channel 7: note On F3 velocity: 73
timestamp 108786000 us: [99 2A 2A] channel 10: note On F#2 velocity: 42
timestamp 108792000 us: [99 2A 00] channel 10: note On F#2 velocity: 0
timestamp 108803000 us: [92 35 4B] channel 3: note On F3 velocity: 75
timestamp 108904000 us: [92 35 00] channel 3: note On F3 velocity: 0
timestamp 108933000 us: [95 30 00] channel 6: note On C3 velocity: 0
timestamp 108938000 us: [92 3A 5A] channel 3: note On A#3 velocity: 90
timestamp 108939000 us: [92 3E 5A] channel 3: note On D4 velocity: 90
timestamp 108941000 us: [95 2E 3C] channel 6: note On A#2 velocity: 60
timestamp 108943000 us: [95 32 50] channel 6: note On D3 velocity: 80
timestamp 108945000 us: [96 3A 63] channel 7: note On A#3 velocity: 99
timestamp 108946000 us: [99 23 72] channel 10: note On B1 velocity: 114
timestamp 108947000 us: [99 2A 4E] channel 10: note On F#2 velocity: 78
timestamp 108950000 us: [92 35 53] channel 3: note On F3 velocity: 83
timestamp 108951000 us: [99 28 61] channel 10: note On E2 velocity: 97
timestamp 108956000 us: [99 2A 00] channel 10: note On F#2 velocity: 0
timestamp 108957000 us: [99 23 00] channel 10: note On B1 velocity: 0
timestamp 108958000 us: [99 28 00] channel 10: note On E2 velocity: 0
timestamp 108963000 us: [96 3E 60] channel 7: note On D4 velocity: 96
timestamp 109006000 us: [92 3E 00] channel 3: note On D4 velocity: 0
timestamp 109006000 us: [92 3A 00] channel 3: note On A#3 velocity: 0
timestamp 109007000 us: [92 35 00] channel 3: note On F3 velocity: 0
timestamp 109008000 us: [94 4D 00] channel 5: note On F5 velocity: 0
timestamp 109009000 us: [94 41 00] channel 5: note On F4 velocity: 0
timestamp 109084000 us: [95 32 00] channel 6: note On D3 velocity: 0
timestamp 109084000 us: [95 2E 00] channel 6: note On A#2 velocity: 0
timestamp 109112000 us: [96 35 00] channel 7: note On F3 velocity: 0
timestamp 109121000 us: [96 3A 00] channel 7: note On A#3 velocity: 0
timestamp 109131000 us: [96 3E 00] channel 7: note On D4 velocity: 0
timestamp 109229000 us: [94 3C 70] channel 5: note On C4 velocity: 112
timestamp 109231000 us: [94 48 65] channel 5: note On C5 velocity: 101
timestamp 109248000 us: [95 30 33] channel 6: note On C3 velocity: 51
timestamp 109250000 us: [96 35 46] channel 7: note On F3 velocity: 70
timestamp 109251000 us: [99 2A 2A] channel 10: note On F#2 velocity: 42
timestamp 109257000 us: [99 2A 00] channel 10: note On F#2 velocity: 0
timestamp 109278000 us: [92 35 47] channel 3: note On F3 velocity: 71
timestamp 109279000 us: [92 39 47] channel 3: note On A3 velocity: 71
timestamp 109280000 us: [92 3C 4A] channel 3: note On C4 velocity: 74
timestamp 109350000 us: [95 30 00] channel 6: note On C3 velocity: 0
timestamp 109398000 us: [96 35 00] channel 7: note On F3 velocity: 0
timestamp 109404000 us: [95 30 4A] channel 6: note On C3 velocity: 74
timestamp 109405000 us: [96 35 53] channel 7: note On F3 velocity: 83
timestamp 109407000 us: [99 23 72] channel 10: note On B1 velocity: 114
timestamp 109408000 us: [99 2A 3A] channel 10: note On F#2 velocity: 58
timestamp 109413000 us: [99 2A 00] channel 10: note On F#2 velocity: 0
timestamp 109413000 us: [99 23 00] channel 10: note On B1 velocity: 0
timestamp 109418000 us: [96 39 4B] channel 7: note On A3 velocity: 75
timestamp 109437000 us: [96 3C 52] channel 7: note On C4 velocity: 82
timestamp 109626000 us: [92 35 00] channel 3: note On F3 velocity: 0
timestamp 109650000 us: [92 39 00] channel 3: note On A3 velocity: 0
timestamp 109665000 us: [95 30 00] channel 6: note On C3 velocity: 0
timestamp 109689000 us: [92 3C 00] channel 3: note On C4 velocity: 0
timestamp 109698000 us: [96 3C 00] channel 7: note On C4 velocity: 0
timestamp 109699000 us: [96 39 00] channel 7: note On A3 velocity: 0
timestamp 109703000 us: [96 35 00] channel 7: note On F3 velocity: 0
timestamp 109714000 us: [95 30 35] channel 6: note On C3 velocity: 53
timestamp 109715000 us: [96 35 46] channel 7: note On F3 velocity: 70
timestamp 109716000 us: [99 2A 3D] channel 10: note On F#2 velocity: 61
timestamp 109718000 us: [99 28 61] channel 10: note On E2 velocity: 97
timestamp 109722000 us: [99 2A 00] channel 10: note On F#2 velocity: 0
timestamp 109723000 us: [99 28 00] channel 10: note On E2 velocity: 0
timestamp 109733000 us: [92 35 4A] channel 3: note On F3 velocity: 74
timestamp 109814000 us: [92 35 00] channel 3: note On F3 velocity: 0
timestamp 109849000 us: [95 30 00] channel 6: note On C3 velocity: 0
timestamp 109868000 us: [95 2E 3C] channel 6: note On A#2 velocity: 60
timestamp 109870000 us: [95 32 50] channel 6: note On D3 velocity: 80
timestamp 109871000 us: [96 3A 63] channel 7: note On A#3 velocity: 99
timestamp 109873000 us: [99 23 72] channel 10: note On B1 velocity: 114
timestamp 109875000 us: [99 2A 43] channel 10: note On F#2 velocity: 67
timestamp 109876000 us: [99 2D 53] channel 10: note On A2 velocity: 83
timestamp 109878000 us: [92 3A 5B] channel 3: note On A#3 velocity: 91
timestamp 109879000 us: [92 3E 5B] channel 3: note On D4 velocity: 91
timestamp 109881000 us: [99 28 43] channel 10: note On E2 velocity: 67
timestamp 109885000 us: [92 35 53] channel 3: note On F3 velocity: 83
timestamp 109886000 us: [99 2D 00] channel 10: note On A2 velocity: 0
timestamp 109887000 us: [99 23 00] channel 10: note On B1 velocity: 0
timestamp 109888000 us: [99 2A 00] channel 10: note On F#2 velocity: 0
timestamp 109889000 us: [99 28 00] channel 10: note On E2 velocity: 0
timestamp 109893000 us: [96 3E 60] channel 7: note On D4 velocity: 96
timestamp 109936000 us: [92 3E 00] channel 3: note On D4 velocity: 0
timestamp 109936000 us: [92 3A 00] channel 3: note On A#3 velocity: 0
timestamp 109940000 us: [92 35 00] channel 3: note On F3 velocity: 0
timestamp 109979000 us: [95 32 00] channel 6: note On D3 velocity: 0
timestamp 109980000 us: [95 2E 00] channel 6: note On A#2 velocity: 0
timestamp 110042000 us: [96 35 00] channel 7: note On F3 velocity: 0
timestamp 110052000 us: [96 3A 00] channel 7: note On A#3 velocity: 0
timestamp 110061000 us: [96 3E 00] channel 7: note On D4 velocity: 0
timestamp 110096000 us: [94 48 00] channel 5: note On C5 velocity: 0
timestamp 110096000 us: [94 3C 00] channel 5: note On C4 velocity: 0
timestamp 110179000 us: [95 30 32] channel 6: note On C3 velocity: 50
timestamp 110180000 us: [96 35 46] channel 7: note On F3 velocity: 70
timestamp 110181000 us: [99 28 51] channel 10: note On E2 velocity: 81
timestamp 110187000 us: [99 28 00] channel 10: note On E2 velocity: 0
timestamp 110208000 us: [92 35 45] channel 3: note On F3 velocity: 69
timestamp 110209000 us: [92 39 4A] channel 3: note On A3 velocity: 74
timestamp 110211000 us: [92 3C 4C] channel 3: note On C4 velocity: 76
timestamp 110285000 us: [91 1D 00] channel 2: note On F1 velocity: 0
timestamp 110324000 us: [95 30 00] channel 6: note On C3 velocity: 0
timestamp 110328000 us: [92 35 00] channel 3: note On F3 velocity: 0
timestamp 110329000 us: [96 35 00] channel 7: note On F3 velocity: 0
timestamp 110334000 us: [91 22 6A] channel 2: note On A#1 velocity: 106
timestamp 110336000 us: [92 35 50] channel 3: note On F3 velocity: 80
timestamp 110337000 us: [92 3A 53] channel 3: note On A#3 velocity: 83
timestamp 110338000 us: [92 3E 4C] channel 3: note On D4 velocity: 76
timestamp 110340000 us: [93 4A 72] channel 4: note On D5 velocity: 114
timestamp 110342000 us: [95 29 39] channel 6: note On F2 velocity: 57
timestamp 110343000 us: [96 35 56] channel 7: note On F3 velocity: 86
timestamp 110345000 us: [99 23 75] channel 10: note On B1 velocity: 117
timestamp 110346000 us: [99 31 49] channel 10: note On C#3 velocity: 73
timestamp 110350000 us: [95 2E 49] channel 6: note On A#2 velocity: 73
timestamp 110352000 us: [95 32 3E] channel 6: note On D3 velocity: 62
timestamp 110353000 us: [99 31 00] channel 10: note On C#3 velocity: 0
timestamp 110354000 us: [99 23 00] channel 10: note On B1 velocity: 0
timestamp 110356000 us: [96 3A 4E] channel 7: note On A#3 velocity: 78
timestamp 110367000 us: [96 3E 55] channel 7: note On D4 velocity: 85
timestamp 110527000 us: [92 35 00] channel 3: note On F3 velocity: 0
timestamp 110546000 us: [92 39 00] channel 3: note On A3 velocity: 0
timestamp 110546000 us: [92 3C 00] channel 3: note On C4 velocity: 0
timestamp 110594000 us: [92 3E 00] channel 3: note On D4 velocity: 0
timestamp 110596000 us: [93 4A 00] channel 4: note On D5 velocity: 0
timestamp 110629000 us: [96 3E 00] channel 7: note On D4 velocity: 0
timestamp 110629000 us: [96 3A 00] channel 7: note On A#3 velocity: 0
timestamp 110634000 us: [96 35 00] channel 7: note On F3 velocity: 0
timestamp 110644000 us: [92 35 5E] channel 3: note On F3 velocity: 94
timestamp 110646000 us: [93 4A 6E] channel 4: note On D5 velocity: 110
timestamp 110647000 us: [96 35 4C] channel 7: note On F3 velocity: 76
timestamp 110649000 us: [99 2A 2D] channel 10: note On F#2 velocity: 45
timestamp 110652000 us: [99 2A 00] channel 10: note On F#2 velocity: 0
timestamp 110682000 us: [92 3A 00] channel 3: note On A#3 velocity: 0
timestamp 110765000 us: [93 4A 00] channel 4: note On D5 velocity: 0
timestamp 110799000 us: [92 3A 5A] channel 3: note On A#3 velocity: 90
timestamp 110800000 us: [92 3E 5A] channel 3: note On D4 velocity: 90
timestamp 110802000 us: [93 4A 70] channel 4: note On D5 velocity: 112
timestamp 110803000 us: [96 3A 66] channel 7: note On A#3 velocity: 102
timestamp 110805000 us: [99 23 75] channel 10: note On B1 velocity: 117
timestamp 110806000 us: [99 2A 51] channel 10: note On F#2 velocity: 81
timestamp 110808000 us: [99 28 64] channel 10: note On E2 velocity: 100
timestamp 110811000 us: [99 2A 00] channel 10: note On F#2 velocity: 0
timestamp 110812000 us: [99 23 00] channel 10: note On B1 velocity: 0
timestamp 110813000 us: [99 28 00] channel 10: note On E2 velocity: 0
timestamp 110823000 us: [96 3E 63] channel 7: note On D4 velocity: 99
timestamp 110929000 us: [95 29 00] channel 6: note On F2 velocity: 0
timestamp 110958000 us: [95 32 00] channel 6: note On D3 velocity: 0
timestamp 110958000 us: [95 2E 00] channel 6: note On A#2 velocity: 0
timestamp 110973000 us: [96 35 00] channel 7: note On F3 velocity: 0
timestamp 110982000 us: [96 3A 00] channel 7: note On A#3 velocity: 0
timestamp 110992000 us: [92 3E 00] channel 3: note On D4 velocity: 0
timestamp 110993000 us: [96 3E 00] channel 7: note On D4 velocity: 0
timestamp 111012000 us: [92 35 00] channel 3: note On F3 velocity: 0
timestamp 111016000 us: [93 4A 00] channel 4: note On D5 velocity: 0
timestamp 111031000 us: [92 3A 00] channel 3: note On A#3 velocity: 0
timestamp 111108000 us: [91 22 00] channel 2: note On A#1 velocity: 0
timestamp 111110000 us: [92 35 57] channel 3: note On F3 velocity: 87
timestamp 111111000 us: [92 39 57] channel 3: note On A3 velocity: 87
timestamp 111112000 us: [92 3C 4C] channel 3: note On C4 velocity: 76
timestamp 111114000 us: [93 4A 64] channel 4: note On D5 velocity: 100
timestamp 111116000 us: [95 29 43] channel 6: note On F2 velocity: 67
timestamp 111117000 us: [96 35 56] channel 7: note On F3 velocity: 86
timestamp 111119000 us: [99 2A 2D] channel 10: note On F#2 velocity: 45
timestamp 111121000 us: [95 30 50] channel 6: note On C3 velocity: 80
timestamp 111123000 us: [99 2A 00] channel 10: note On F#2 velocity: 0
timestamp 111125000 us: [96 39 4E] channel 7: note On A3 velocity: 78
timestamp 111138000 us: [91 29 6A] channel 2: note On F2 velocity: 106
timestamp 111143000 us: [96 3C 55] channel 7: note On C4 velocity: 85
timestamp 111258000 us: [93 4A 00] channel 4: note On D5 velocity: 0
timestamp 111264000 us: [93 48 72] channel 4: note On C5 velocity: 114
timestamp 111266000 us: [99 23 75] channel 10: note On B1 velocity: 117
timestamp 111267000 us: [99 2A 3D] channel 10: note On F#2 velocity: 61
timestamp 111273000 us: [99 2A 00] channel 10: note On F#2 velocity: 0
timestamp 111273000 us: [99 23 00] channel 10: note On B1 velocity: 0
timestamp 111457000 us: [95 29 00] channel 6: note On F2 velocity: 0
timestamp 111496000 us: [93 48 00] channel 4: note On C5 velocity: 0
timestamp 111501000 us: [95 30 00] channel 6: note On C3 velocity: 0
timestamp 111559000 us: [96 3C 00] channel 7: note On C4 velocity: 0
timestamp 111559000 us: [96 39 00] channel 7: note On A3 velocity: 0
timestamp 111565000 us: [96 35 00] channel 7: note On F3 velocity: 0
timestamp 111574000 us: [93 41 6D] channel 4: note On F4 velocity: 109
timestamp 111576000 us: [95 29 3E] channel 6: note On F2 velocity: 62
timestamp 111577000 us: [96 35 49] channel 7: note On F3 velocity: 73
timestamp 111578000 us: [99 2A 2D] channel 10: note On F#2 velocity: 45
timestamp 111583000 us: [99 2A 00] channel 10: note On F#2 velocity: 0
timestamp 111709000 us: [93 41 00] channel 4: note On F4 velocity: 0
timestamp 111724000 us: [95 29 00] channel 6: note On F2 velocity: 0
timestamp 111729000 us: [95 29 43] channel 6: note On F2 velocity: 67
timestamp 111731000 us: [96 39 66] channel 7: note On A3 velocity: 102
timestamp 111732000 us: [99 23 75] channel 10: note On B1 velocity: 117
timestamp 111733000 us: [99 2A 51] channel 10: note On F#2 velocity: 81
timestamp 111735000 us: [99 28 64] channel 10: note On E2 velocity: 100
timestamp 111739000 us: [95 30 50] channel 6: note On C3 velocity: 80
timestamp 111740000 us: [99 2A 00] channel 10: note On F#2 velocity: 0
timestamp 111740000 us: [99 23 00] channel 10: note On B1 velocity: 0
timestamp 111741000 us: [99 28 00] channel 10: note On E2 velocity: 0
timestamp 111753000 us: [96 3C 63] channel 7: note On C4 velocity: 99
timestamp 111966000 us: [95 30 00] channel 6: note On C3 velocity: 0
timestamp 111967000 us: [95 29 00] channel 6: note On F2 velocity: 0
timestamp 111985000 us: [92 35 00] channel 3: note On F3 velocity: 0
timestamp 112015000 us: [92 39 00] channel 3: note On A3 velocity: 0
timestamp 112019000 us: [96 3C 00] channel 7: note On C4 velocity: 0
timestamp 112025000 us: [96 39 00] channel 7: note On A3 velocity: 0
timestamp 112025000 us: [96 35 00] channel 7: note On F3 velocity: 0
timestamp 112039000 us: [92 35 4C] channel 3: note On F3 velocity: 76
timestamp 112041000 us: [93 41 6D] channel 4: note On F4 velocity: 109
timestamp 112042000 us: [96 35 49] channel 7: note On F3 velocity: 73
timestamp 112043000 us: [99 2A 2D] channel 10: note On F#2 velocity: 45
timestamp 112048000 us: [92 3C 00] channel 3: note On C4 velocity: 0
timestamp 112049000 us: [99 2A 00] channel 10: note On F#2 velocity: 0
timestamp 112160000 us: [93 41 00] channel 4: note On F4 velocity: 0
timestamp 112165000 us: [91 29 00] channel 2: note On F2 velocity: 0
timestamp 112175000 us: [92 35 00] channel 3: note On F3 velocity: 0
timestamp 112189000 us: [96 35 00] channel 7: note On F3 velocity: 0
timestamp 112195000 us: [91 22 6A] channel 2: note On A#1 velocity: 106
timestamp 112196000 us: [92 35 56] channel 3: note On F3 velocity: 86
timestamp 112197000 us: [92 3A 5E] channel 3: note On A#3 velocity: 94
timestamp 112198000 us: [92 3E 5E] channel 3: note On D4 velocity: 94
timestamp 112200000 us: [93 4A 74] channel 4: note On D5 velocity: 116
timestamp 112202000 us: [95 29 42] channel 6: note On F2 velocity: 66
timestamp 112203000 us: [96 35 56] channel 7: note On F3 velocity: 86
timestamp 112205000 us: [99 23 75] channel 10: note On B1 velocity: 117
timestamp 112206000 us: [99 2A 3D] channel 10: note On F#2 velocity: 61
timestamp 112210000 us: [95 2E 4E] channel 6: note On A#2 velocity: 78
timestamp 112211000 us: [95 32 44] channel 6: note On D3 velocity: 68
timestamp 112212000 us: [99 2A 00] channel 10: note On F#2 velocity: 0
timestamp 112213000 us: [99 23 00] channel 10: note On B1 velocity: 0
timestamp 112215000 us: [96 3A 4E] channel 7: note On A#3 velocity: 78
timestamp 112229000 us: [96 3E 55] channel 7: note On D4 velocity: 85
timestamp 112402000 us: [93 4A 00] channel 4: note On D5 velocity: 0
timestamp 112485000 us: [92 3A 00] channel 3: note On A#3 velocity: 0
timestamp 112486000 us: [92 35 00] channel 3: note On F3 velocity: 0
timestamp 112489000 us: [92 3E 00] channel 3: note On D4 velocity: 0
timestamp 112490000 us: [96 3E 00] channel 7: note On D4 velocity: 0
timestamp 112491000 us: [96 3A 00] channel 7: note On A#3 velocity: 0
timestamp 112495000 us: [96 35 00] channel 7: note On F3 velocity: 0
timestamp 112505000 us: [92 35 3E] channel 3: note On F3 velocity: 62
timestamp 112505000 us: [92 3A 49] channel 3: note On A#3 velocity: 73
timestamp 112507000 us: [93 4A 6E] channel 4: note On D5 velocity: 110
timestamp 112509000 us: [96 35 4C] channel 7: note On F3 velocity: 76
timestamp 112510000 us: [99 2A 2D] channel 10: note On F#2 velocity: 45
timestamp 112515000 us: [99 2A 00] channel 10: note On F#2 velocity: 0
timestamp 112620000 us: [93 4A 00] channel 4: note On D5 velocity: 0
timestamp 112654000 us: [92 35 00] channel 3: note On F3 velocity: 0
timestamp 112659000 us: [92 35 3A] channel 3: note On F3 velocity: 58
timestamp 112660000 us: [92 3E 5E] channel 3: note On D4 velocity: 94
timestamp 112662000 us: [93 4A 70] channel 4: note On D5 velocity: 112
timestamp 112664000 us: [96 3A 66] channel 7: note On A#3 velocity: 102
timestamp 112665000 us: [99 23 75] channel 10: note On B1 velocity: 117
timestamp 112666000 us: [99 2A 51] channel 10: note On F#2 velocity: 81
timestamp 112668000 us: [99 28 64] channel 10: note On E2 velocity: 100
timestamp 112673000 us: [99 2A 00] channel 10: note On F#2 velocity: 0
timestamp 112673000 us: [99 23 00] channel 10: note On B1 velocity: 0
timestamp 112674000 us: [99 28 00] channel 10: note On E2 velocity: 0
timestamp 112684000 us: [96 3E 63] channel 7: note On D4 velocity: 99
timestamp 112746000 us: [95 29 00] channel 6: note On F2 velocity: 0
timestamp 112809000 us: [95 32 00] channel 6: note On D3 velocity: 0
timestamp 112809000 us: [95 2E 00] channel 6: note On A#2 velocity: 0
timestamp 112833000 us: [96 35 00] channel 7: note On F3 velocity: 0
timestamp 112842000 us: [96 3A 00] channel 7: note On A#3 velocity: 0
timestamp 112848000 us: [93 4A 00] channel 4: note On D5 velocity: 0
timestamp 112852000 us: [96 3E 00] channel 7: note On D4 velocity: 0
timestamp 112891000 us: [92 3A 00] channel 3: note On A#3 velocity: 0
timestamp 112940000 us: [92 35 00] channel 3: note On F3 velocity: 0
timestamp 112945000 us: [92 3E 00] channel 3: note On D4 velocity: 0
timestamp 112969000 us: [91 22 00] channel 2: note On A#1 velocity: 0
timestamp 112970000 us: [92 35 50] channel 3: note On F3 velocity: 80
timestamp 112971000 us: [92 39 5B] channel 3: note On A3 velocity: 91
timestamp 112973000 us: [92 3C 61] channel 3: note On C4 velocity: 97
timestamp 112975000 us: [93 4A 6E] channel 4: note On D5 velocity: 110
timestamp 112976000 us: [95 29 40] channel 6: note On F2 velocity: 64
timestamp 112978000 us: [96 35 56] channel 7: note On F3 velocity: 86
timestamp 112979000 us: [99 2A 2D] channel 10: note On F#2 velocity: 45
timestamp 112982000 us: [95 30 4E] channel 6: note On C3 velocity: 78
timestamp 112983000 us: [99 2A 00] channel 10: note On F#2 velocity: 0
timestamp 112986000 us: [96 39 4E] channel 7: note On A3 velocity: 78
timestamp 112999000 us: [91 29 6A] channel 2: note On F2 velocity: 106
timestamp 113003000 us: [96 3C 55] channel 7: note On C4 velocity: 85
timestamp 113100000 us: [93 4A 00] channel 4: note On D5 velocity: 0
timestamp 113124000 us: [93 48 75] channel 4: note On C5 velocity: 117
timestamp 113126000 us: [99 23 75] channel 10: note On B1 velocity: 117
timestamp 113127000 us: [99 2A 3D] channel 10: note On F#2 velocity: 61
timestamp 113133000 us: [99 2A 00] channel 10: note On F#2 velocity: 0
timestamp 113134000 us: [99 23 00] channel 10: note On B1 velocity: 0
timestamp 113371000 us: [93 48 00] channel 4: note On C5 velocity: 0
timestamp 113381000 us: [95 29 00] channel 6: note On F2 velocity: 0
timestamp 113419000 us: [96 3C 00] channel 7: note On C4 velocity: 0
timestamp 113420000 us: [96 39 00] channel 7: note On A3 velocity: 0
timestamp 113425000 us: [96 35 00] channel 7: note On F3 velocity: 0
timestamp 113429000 us: [95 30 00] channel 6: note On C3 velocity: 0
timestamp 113435000 us: [95 29 3C] channel 6: note On F2 velocity: 60
timestamp 113436000 us: [96 35 49] channel 7: note On F3 velocity: 73
timestamp 113437000 us: [99 2A 2D] channel 10: note On F#2 velocity: 45
timestamp 113443000 us: [99 2A 00] channel 10: note On F#2 velocity: 0
timestamp 113584000 us: [95 29 00] channel 6: note On F2 velocity: 0
timestamp 113589000 us: [95 29 43] channel 6: note On F2 velocity: 67
timestamp 113591000 us: [96 39 66] channel 7: note On A3 velocity: 102
timestamp 113592000 us: [99 23 75] channel 10: note On B1 velocity: 117
timestamp 113594000 us: [99 2A 51] channel 10: note On F#2 velocity: 81
timestamp 113595000 us: [99 28 64] channel 10: note On E2 velocity: 100
timestamp 113599000 us: [95 30 50] channel 6: note On C3 velocity: 80
timestamp 113600000 us: [99 2A 00] channel 10: note On F#2 velocity: 0
timestamp 113601000 us: [99 23 00] channel 10: note On B1 velocity: 0
timestamp 113601000 us: [99 28 00] channel 10: note On E2 velocity: 0
timestamp 113614000 us: [96 3C 63] channel 7: note On C4 velocity: 99
timestamp 113851000 us: [92 35 00] channel 3: note On F3 velocity: 0
timestamp 113855000 us: [92 39 00] channel 3: note On A3 velocity: 0
timestamp 113856000 us: [92 3C 00] channel 3: note On C4 velocity: 0
timestamp 113880000 us: [96 3C 00] channel 7: note On C4 velocity: 0
timestamp 113885000 us: [96 39 00] channel 7: note On A3 velocity: 0
timestamp 113886000 us: [96 35 00] channel 7: note On F3 velocity: 0
timestamp 113887000 us: [95 30 00] channel 6: note On C3 velocity: 0
timestamp 113888000 us: [95 29 00] channel 6: note On F2 velocity: 0
timestamp 113900000 us: [92 35 3E] channel 3: note On F3 velocity: 62
timestamp 113901000 us: [93 41 5D] channel 4: note On F4 velocity: 93
timestamp 113902000 us: [95 29 37] channel 6: note On F2 velocity: 55
timestamp 113904000 us: [96 35 49] channel 7: note On F3 velocity: 73
timestamp 113906000 us: [99 2A 2D] channel 10: note On F#2 velocity: 45
timestamp 113910000 us: [99 2A 00] channel 10: note On F#2 velocity: 0
timestamp 113972000 us: [95 29 00] channel 6: note On F2 velocity: 0
timestamp 114006000 us: [93 41 00] channel 4: note On F4 velocity: 0
timestamp 114025000 us: [91 29 00] channel 2: note On F2 velocity: 0
timestamp 114036000 us: [E4 00 0C] channel 5: pitch wheel change 1536
timestamp 114040000 us: [94 4D 76] channel 5: note On F5 velocity: 118
timestamp 114042000 us: [94 59 70] channel 5: note On F6 velocity: 112
timestamp 114049000 us: [92 35 00] channel 3: note On F3 velocity: 0
timestamp 114050000 us: [96 35 00] channel 7: note On F3 velocity: 0
timestamp 114055000 us: [91 22 6A] channel 2: note On A#1 velocity: 106
timestamp 114056000 us: [92 35 50] channel 3: note On F3 velocity: 80
timestamp 114057000 us: [92 3A 53] channel 3: note On A#3 velocity: 83
timestamp 114059000 us: [92 3E 4C] channel 3: note On D4 velocity: 76
timestamp 114061000 us: [93 4A 6D] channel 4: note On D5 velocity: 109
timestamp 114062000 us: [95 29 42] channel 6: note On F2 velocity: 66
timestamp 114064000 us: [96 35 56] channel 7: note On F3 velocity: 86
timestamp 114066000 us: [99 23 75] channel 10: note On B1 velocity: 117
timestamp 114067000 us: [99 2A 3D] channel 10: note On F#2 velocity: 61
timestamp 114071000 us: [95 2E 4B] channel 6: note On A#2 velocity: 75
timestamp 114073000 us: [95 32 40] channel 6: note On D3 velocity: 64
timestamp 114074000 us: [99 2A 00] channel 10: note On F#2 velocity: 0
timestamp 114074000 us: [99 23 00] channel 10: note On B1 velocity: 0
timestamp 114076000 us: [96 3A 4E] channel 7: note On A#3 velocity: 78
timestamp 114089000 us: [96 3E 55] channel 7: note On D4 velocity: 85
timestamp 114197000 us: [E4 00 16] channel 5: pitch wheel change 2816
timestamp 114214000 us: [E4 00 24] channel 5: pitch wheel change 4608
timestamp 114238000 us: [E4 00 30] channel 5: pitch wheel change 6144
timestamp 114248000 us: [92 35 00] channel 3: note On F3 velocity: 0
timestamp 114258000 us: [E4 00 37] channel 5: pitch wheel change 7040
timestamp 114272000 us: [E4 00 40] channel 5: pitch wheel change 8192
timestamp 114301000 us: [93 4A 00] channel 4: note On D5 velocity: 0
timestamp 114316000 us: [92 3E 00] channel 3: note On D4 velocity: 0
timestamp 114350000 us: [96 3E 00] channel 7: note On D4 velocity: 0
timestamp 114350000 us: [96 3A 00] channel 7: note On A#3 velocity: 0
timestamp 114355000 us: [96 35 00] channel 7: note On F3 velocity: 0
timestamp 114365000 us: [92 35 5E] channel 3: note On F3 velocity: 94
timestamp 114367000 us: [93 4A 67] channel 4: note On D5 velocity: 103
timestamp 114368000 us: [96 35 4C] channel 7: note On F3 velocity: 76
timestamp 114370000 us: [99 2A 2D] channel 10: note On F#2 velocity: 45
timestamp 114373000 us: [99 2A 00] channel 10: note On F#2 velocity: 0
timestamp 114403000 us: [92 3A 00] channel 3: note On A#3 velocity: 0
timestamp 114490000 us: [93 4A 00] channel 4: note On D5 velocity: 0
timestamp 114520000 us: [92 3A 5A] channel 3: note On A#3 velocity: 90
timestamp 114521000 us: [92 3E 5A] channel 3: note On D4 velocity: 90
timestamp 114523000 us: [93 4A 72] channel 4: note On D5 velocity: 114
timestamp 114524000 us: [96 3A 66] channel 7: note On A#3 velocity: 102
timestamp 114526000 us: [99 23 75] channel 10: note On B1 velocity: 117
timestamp 114527000 us: [99 2A 51] channel 10: note On F#2 velocity: 81
timestamp 114529000 us: [99 28 64] channel 10: note On E2 velocity: 100
timestamp 114532000 us: [E4 00 3D] channel 5: pitch wheel change 7808
timestamp 114534000 us: [99 2A 00] channel 10: note On F#2 velocity: 0
timestamp 114534000 us: [99 23 00] channel 10: note On B1 velocity: 0
timestamp 114535000 us: [99 28 00] channel 10: note On E2 velocity: 0
timestamp 114544000 us: [96 3E 63] channel 7: note On D4 velocity: 99
timestamp 114597000 us: [95 29 00] channel 6: note On F2 velocity: 0
timestamp 114602000 us: [E4 00 3B] channel 5: pitch wheel change 7552
timestamp 114684000 us: [95 32 00] channel 6: note On D3 velocity: 0
timestamp 114685000 us: [95 2E 00] channel 6: note On A#2 velocity: 0
timestamp 114694000 us: [96 35 00] channel 7: note On F3 velocity: 0
timestamp 114703000 us: [96 3A 00] channel 7: note On A#3 velocity: 0
timestamp 114713000 us: [92 3E 00] channel 3: note On D4 velocity: 0
timestamp 114714000 us: [96 3E 00] channel 7: note On D4 velocity: 0
timestamp 114718000 us: [E4 00 38] channel 5: pitch wheel change 7168
timestamp 114733000 us: [92 35 00] channel 3: note On F3 velocity: 0
timestamp 114751000 us: [92 3A 00] channel 3: note On A#3 velocity: 0
timestamp 114759000 us: [93 4A 00] channel 4: note On D5 velocity: 0
timestamp 114810000 us: [E4 00 40] channel 5: pitch wheel change 8192
timestamp 114829000 us: [91 22 00] channel 2: note On A#1 velocity: 0
timestamp 114831000 us: [92 35 57] channel 3: note On F3 velocity: 87
timestamp 114832000 us: [92 39 57] channel 3: note On A3 velocity: 87
timestamp 114833000 us: [92 3C 4C] channel 3: note On C4 velocity: 76
timestamp 114835000 us: [93 4A 69] channel 4: note On D5 velocity: 105
timestamp 114837000 us: [95 29 40] channel 6: note On F2 velocity: 64
timestamp 114838000 us: [96 35 56] channel 7: note On F3 velocity: 86
timestamp 114840000 us: [99 2A 2D] channel 10: note On F#2 velocity: 45
timestamp 114842000 us: [95 30 4C] channel 6: note On C3 velocity: 76
timestamp 114844000 us: [99 2A 00] channel 10: note On F#2 velocity: 0
timestamp 114846000 us: [96 39 4E] channel 7: note On A3 velocity: 78
timestamp 114859000 us: [91 29 6A] channel 2: note On F2 velocity: 106
timestamp 114864000 us: [96 3C 55] channel 7: note On C4 velocity: 85
timestamp 114979000 us: [93 4A 00] channel 4: note On D5 velocity: 0
timestamp 114985000 us: [93 48 72] channel 4: note On C5 velocity: 114
timestamp 114987000 us: [99 23 75] channel 10: note On B1 velocity: 117
timestamp 114988000 us: [99 2A 3D] channel 10: note On F#2 velocity: 61
timestamp 114994000 us: [99 2A 00] channel 10: note On F#2 velocity: 0
timestamp 114994000 us: [99 23 00] channel 10: note On B1 velocity: 0
timestamp 115227000 us: [93 48 00] channel 4: note On C5 velocity: 0
timestamp 115261000 us: [95 29 00] channel 6: note On F2 velocity: 0
timestamp 115280000 us: [96 3C 00] channel 7: note On C4 velocity: 0
timestamp 115280000 us: [96 39 00] channel 7: note On A3 velocity: 0
timestamp 115285000 us: [96 35 00] channel 7: note On F3 velocity: 0
timestamp 115289000 us: [95 30 00] channel 6: note On C3 velocity: 0
timestamp 115295000 us: [93 41 6E] channel 4: note On F4 velocity: 110
timestamp 115297000 us: [95 29 36] channel 6: note On F2 velocity: 54
timestamp 115298000 us: [96 35 49] channel 7: note On F3 velocity: 73
timestamp 115300000 us: [99 2A 2D] channel 10: note On F#2 velocity: 45
timestamp 115304000 us: [99 2A 00] channel 10: note On F#2 velocity: 0
timestamp 115445000 us: [95 29 00] channel 6: note On F2 velocity: 0
timestamp 115450000 us: [95 29 3F] channel 6: note On F2 velocity: 63
timestamp 115452000 us: [96 39 66] channel 7: note On A3 velocity: 102
timestamp 115453000 us: [99 23 75] channel 10: note On B1 velocity: 117
timestamp 115454000 us: [99 2A 51] channel 10: note On F#2 velocity: 81
timestamp 115456000 us: [99 28 64] channel 10: note On E2 velocity: 100
timestamp 115461000 us: [95 30 4E] channel 6: note On C3 velocity: 78
timestamp 115462000 us: [99 2A 00] channel 10: note On F#2 velocity: 0
timestamp 115463000 us: [99 23 00] channel 10: note On B1 velocity: 0
timestamp 115464000 us: [99 28 00] channel 10: note On E2 velocity: 0
timestamp 115474000 us: [96 3C 63] channel 7: note On C4 velocity: 99
timestamp 115551000 us: [93 41 00] channel 4: note On F4 velocity: 0
timestamp 115706000 us: [92 35 00] channel 3: note On F3 velocity: 0
timestamp 115737000 us: [92 39 00] channel 3: note On A3 velocity: 0
timestamp 115740000 us: [95 30 00] channel 6: note On C3 velocity: 0
timestamp 115741000 us: [95 29 00] channel 6: note On F2 velocity: 0
timestamp 115742000 us: [96 3C 00] channel 7: note On C4 velocity: 0
timestamp 115745000 us: [96 39 00] channel 7: note On A3 velocity: 0
timestamp 115746000 us: [96 35 00] channel 7: note On F3 velocity: 0
timestamp 115760000 us: [92 35 4C] channel 3: note On F3 velocity: 76
timestamp 115762000 us: [93 41 60] channel 4: note On F4 velocity: 96
timestamp 115763000 us: [96 35 49] channel 7: note On F3 velocity: 73
timestamp 115765000 us: [99 2A 2D] channel 10: note On F#2 velocity: 45
timestamp 115769000 us: [92 3C 00] channel 3: note On C4 velocity: 0
timestamp 115770000 us: [99 2A 00] channel 10: note On F#2 velocity: 0
timestamp 115856000 us: [93 41 00] channel 4: note On F4 velocity: 0
timestamp 115886000 us: [91 29 00] channel 2: note On F2 velocity: 0
timestamp 115896000 us: [92 35 00] channel 3: note On F3 velocity: 0
timestamp 115910000 us: [96 35 00] channel 7: note On F3 velocity: 0
timestamp 115916000 us: [91 24 6A] channel 2: note On C2 velocity: 106
timestamp 115917000 us: [93 48 70] channel 4: note On C5 velocity: 112
timestamp 115918000 us: [95 2B 3B] channel 6: note On G2 velocity: 59
timestamp 115920000 us: [96 34 56] channel 7: note On E3 velocity: 86
timestamp 115921000 us: [99 23 75] channel 10: note On B1 velocity: 117
timestamp 115922000 us: [99 2A 3D] channel 10: note On F#2 velocity: 61
timestamp 115927000 us: [95 30 47] channel 6: note On C3 velocity: 71
timestamp 115928000 us: [99 2A 00] channel 10: note On F#2 velocity: 0
timestamp 115929000 us: [99 23 00] channel 10: note On B1 velocity: 0
timestamp 115931000 us: [96 37 4E] channel 7: note On G3 velocity: 78
timestamp 115944000 us: [92 34 4F] channel 3: note On E3 velocity: 79
timestamp 115946000 us: [92 37 52] channel 3: note On G3 velocity: 82
timestamp 115947000 us: [92 3C 55] channel 3: note On C4 velocity: 85
timestamp 115952000 us: [96 3C 55] channel 7: note On C4 velocity: 85
timestamp 116147000 us: [93 48 00] channel 4: note On C5 velocity: 0
timestamp 116206000 us: [95 30 00] channel 6: note On C3 velocity: 0
timestamp 116207000 us: [95 2B 00] channel 6: note On G2 velocity: 0
timestamp 116210000 us: [96 3C 00] channel 7: note On C4 velocity: 0
timestamp 116211000 us: [96 37 00] channel 7: note On G3 velocity: 0
timestamp 116216000 us: [96 34 00] channel 7: note On E3 velocity: 0
timestamp 116226000 us: [93 48 67] channel 4: note On C5 velocity: 103
timestamp 116227000 us: [95 2B 2F] channel 6: note On G2 velocity: 47
timestamp 116228000 us: [96 34 4C] channel 7: note On E3 velocity: 76
timestamp 116230000 us: [99 2A 2D] channel 10: note On F#2 velocity: 45
timestamp 116234000 us: [92 3C 00] channel 3: note On C4 velocity: 0
timestamp 116235000 us: [92 37 00] channel 3: note On G3 velocity: 0
timestamp 116236000 us: [92 34 00] channel 3: note On E3 velocity: 0
timestamp 116239000 us: [95 30 38] channel 6: note On C3 velocity: 56
timestamp 116240000 us: [99 2A 00] channel 10: note On F#2 velocity: 0
timestamp 116245000 us: [92 34 4E] channel 3: note On E3 velocity: 78
timestamp 116312000 us: [94 59 00] channel 5: note On F6 velocity: 0
timestamp 116313000 us: [94 4D 00] channel 5: note On F5 velocity: 0
timestamp 116327000 us: [95 30 00] channel 6: note On C3 velocity: 0
timestamp 116331000 us: [93 48 00] channel 4: note On C5 velocity: 0
timestamp 116336000 us: [95 2B 00] channel 6: note On G2 velocity: 0
timestamp 116370000 us: [92 34 00] channel 3: note On E3 velocity: 0
timestamp 116380000 us: [92 37 57] channel 3: note On G3 velocity: 87
timestamp 116381000 us: [92 3C 51] channel 3: note On C4 velocity: 81
timestamp 116383000 us: [93 48 6B] channel 4: note On C5 velocity: 107
timestamp 116385000 us: [95 2B 3B] channel 6: note On G2 velocity: 59
timestamp 116386000 us: [96 37 58] channel 7: note On G3 velocity: 88
timestamp 116388000 us: [99 23 75] channel 10: note On B1 velocity: 117
timestamp 116389000 us: [99 2A 51] channel 10: note On F#2 velocity: 81
timestamp 116391000 us: [92 34 4D] channel 3: note On E3 velocity: 77
timestamp 116392000 us: [99 28 64] channel 10: note On E2 velocity: 100
timestamp 116397000 us: [95 30 48] channel 6: note On C3 velocity: 72
timestamp 116398000 us: [99 2A 00] channel 10: note On F#2 velocity: 0
timestamp 116399000 us: [99 23 00] channel 10: note On B1 velocity: 0
timestamp 116400000 us: [99 28 00] channel 10: note On E2 velocity: 0
timestamp 116405000 us: [96 3C 5B] channel 7: note On C4 velocity: 91
timestamp 116554000 us: [96 34 00] channel 7: note On E3 velocity: 0
timestamp 116603000 us: [95 2B 00] channel 6: note On G2 velocity: 0
timestamp 116607000 us: [93 48 00] channel 4: note On C5 velocity: 0
timestamp 116608000 us: [95 30 00] channel 6: note On C3 velocity: 0
timestamp 116656000 us: [96 3C 00] channel 7: note On C4 velocity: 0
timestamp 116666000 us: [92 3C 00] channel 3: note On C4 velocity: 0
timestamp 116667000 us: [92 37 00] channel 3: note On G3 velocity: 0
timestamp 116670000 us: [92 34 00] channel 3: note On E3 velocity: 0
timestamp 116680000 us: [96 37 00] channel 7: note On G3 velocity: 0
timestamp 116690000 us: [93 48 6E] channel 4: note On C5 velocity: 110
timestamp 116692000 us: [95 2B 2E] channel 6: note On G2 velocity: 46
timestamp 116694000 us: [96 34 49] channel 7: note On E3 velocity: 73
timestamp 116695000 us: [99 2A 2D] channel 10: note On F#2 velocity: 45
timestamp 116700000 us: [95 30 37] channel 6: note On C3 velocity: 55
timestamp 116701000 us: [99 2A 00] channel 10: note On F#2 velocity: 0
timestamp 116710000 us: [92 34 4E] channel 3: note On E3 velocity: 78
timestamp 116801000 us: [91 24 00] channel 2: note On C2 velocity: 0
timestamp 116826000 us: [95 2B 00] channel 6: note On G2 velocity: 0
timestamp 116830000 us: [93 48 00] channel 4: note On C5 velocity: 0
timestamp 116836000 us: [92 34 00] channel 3: note On E3 velocity: 0
timestamp 116840000 us: [95 30 00] channel 6: note On C3 velocity: 0
timestamp 116841000 us: [96 34 00] channel 7: note On E3 velocity: 0
timestamp 116846000 us: [91 24 6A] channel 2: note On C2 velocity: 106
timestamp 116847000 us: [93 48 66] channel 4: note On C5 velocity: 102
timestamp 116848000 us: [95 2B 43] channel 6: note On G2 velocity: 67
timestamp 116850000 us: [96 34 56] channel 7: note On E3 velocity: 86
timestamp 116852000 us: [99 23 75] channel 10: note On B1 velocity: 117
timestamp 116853000 us: [99 2A 3D] channel 10: note On F#2 velocity: 61
timestamp 116859000 us: [95 30 48] channel 6: note On C3 velocity: 72
timestamp 116861000 us: [99 2A 00] channel 10: note On F#2 velocity: 0
timestamp 116861000 us: [99 23 00] channel 10: note On B1 velocity: 0
timestamp 116863000 us: [96 37 4E] channel 7: note On G3 velocity: 78
timestamp 116875000 us: [92 34 51] channel 3: note On E3 velocity: 81
timestamp 116876000 us: [92 37 55] channel 3: note On G3 velocity: 85
timestamp 116877000 us: [92 3C 5B] channel 3: note On C4 velocity: 91
timestamp 116882000 us: [96 3C 55] channel 7: note On C4 velocity: 85
timestamp 116981000 us: [94 45 6F] channel 5: note On A4 velocity: 111
timestamp 116983000 us: [94 51 64] channel 5: note On A5 velocity: 100
timestamp 117053000 us: [95 2B 00] channel 6: note On G2 velocity: 0
timestamp 117068000 us: [95 30 00] channel 6: note On C3 velocity: 0
timestamp 117073000 us: [94 51 00] channel 5: note On A5 velocity: 0
timestamp 117073000 us: [94 45 00] channel 5: note On A4 velocity: 0
timestamp 117139000 us: [94 48 71] channel 5: note On C5 velocity: 113
timestamp 117140000 us: [94 54 66] channel 5: note On C6 velocity: 102
timestamp 117198000 us: [93 48 00] channel 4: note On C5 velocity: 0
timestamp 117232000 us: [94 54 00] channel 5: note On C6 velocity: 0
timestamp 117233000 us: [94 48 00] channel 5: note On C5 velocity: 0
timestamp 117291000 us: [94 4D 6D] channel 5: note On F5 velocity: 109
timestamp 117293000 us: [94 59 62] channel 5: note On F6 velocity: 98
timestamp 117311000 us: [93 48 69] channel 4: note On C5 velocity: 105
timestamp 117312000 us: [99 2A 4D] channel 10: note On F#2 velocity: 77
timestamp 117319000 us: [99 2A 00] channel 10: note On F#2 velocity: 0
timestamp 117392000 us: [94 59 00] channel 5: note On F6 velocity: 0
timestamp 117393000 us: [94 4D 00] channel 5: note On F5 velocity: 0
timestamp 117447000 us: [94 4B 6F] channel 5: note On D#5 velocity: 111
timestamp 117449000 us: [94 57 64] channel 5: note On D#6 velocity: 100
timestamp 117533000 us: [94 57 00] channel 5: note On D#6 velocity: 0
timestamp 117533000 us: [94 4B 00] channel 5: note On D#5 velocity: 0
timestamp 117601000 us: [94 48 6D] channel 5: note On C5 velocity: 109
timestamp 117603000 us: [94 54 62] channel 5: note On C6 velocity: 98
timestamp 117688000 us: [94 54 00] channel 5: note On C6 velocity: 0
timestamp 117688000 us: [94 48 00] channel 5: note On C5 velocity: 0
timestamp 117712000 us: [92 3C 00] channel 3: note On C4 velocity: 0
timestamp 117713000 us: [92 37 00] channel 3: note On G3 velocity: 0
timestamp 117713000 us: [92 34 00] channel 3: note On E3 velocity: 0
timestamp 117731000 us: [91 24 00] channel 2: note On C2 velocity: 0
timestamp 117760000 us: [96 3C 00] channel 7: note On C4 velocity: 0
timestamp 117761000 us: [96 37 00] channel 7: note On G3 velocity: 0
timestamp 117769000 us: [93 48 00] channel 4: note On C5 velocity: 0
timestamp 117770000 us: [96 34 00] channel 7: note On E3 velocity: 0
timestamp 117780000 us: [92 4D 4A] channel 3: note On F5 velocity: 74
timestamp 117782000 us: [92 51 4A] channel 3: note On A5 velocity: 74
timestamp 117783000 us: [92 54 48] channel 3: note On C6 velocity: 72
timestamp 117786000 us: [93 45 60] channel 4: note On A4 velocity: 96
timestamp 117911000 us: [92 54 00] channel 3: note On C6 velocity: 0
timestamp 117930000 us: [92 51 00] channel 3: note On A5 velocity: 0
timestamp 117935000 us: [92 4D 00] channel 3: note On F5 velocity: 0
timestamp 117998000 us: [93 45 00] channel 4: note On A4 velocity: 0
timestamp 118090000 us: [92 4D 44] channel 3: note On F5 velocity: 68
timestamp 118092000 us: [92 51 4D] channel 3: note On A5 velocity: 77
timestamp 118093000 us: [92 54 43] channel 3: note On C6 velocity: 67
timestamp 118096000 us: [93 48 61] channel 4: note On C5 velocity: 97
timestamp 118178000 us: [92 51 00] channel 3: note On A5 velocity: 0
timestamp 118178000 us: [92 4D 00] channel 3: note On F5 velocity: 0
timestamp 118182000 us: [92 54 00] channel 3: note On C6 velocity: 0
timestamp 118192000 us: [93 48 00] channel 4: note On C5 velocity: 0
timestamp 118246000 us: [92 54 44] channel 3: note On C6 velocity: 68
timestamp 118250000 us: [92 4D 36] channel 3: note On F5 velocity: 54
timestamp 118252000 us: [92 51 51] channel 3: note On A5 velocity: 81
timestamp 118254000 us: [93 48 59] channel 4: note On C5 velocity: 89
timestamp 118378000 us: [92 51 00] channel 3: note On A5 velocity: 0
timestamp 118378000 us: [92 4D 00] channel 3: note On F5 velocity: 0
timestamp 118380000 us: [92 54 00] channel 3: note On C6 velocity: 0
timestamp 118415000 us: [93 48 00] channel 4: note On C5 velocity: 0
timestamp 118551000 us: [92 4D 3F] channel 3: note On F5 velocity: 63
timestamp 118552000 us: [92 54 43] channel 3: note On C6 velocity: 67
timestamp 118556000 us: [92 51 4A] channel 3: note On A5 velocity: 74
timestamp 118560000 us: [93 48 5E] channel 4: note On C5 velocity: 94
timestamp 118623000 us: [92 54 00] channel 3: note On C6 velocity: 0
timestamp 118624000 us: [92 4D 00] channel 3: note On F5 velocity: 0
timestamp 118627000 us: [92 51 00] channel 3: note On A5 velocity: 0
timestamp 118672000 us: [93 48 00] channel 4: note On C5 velocity: 0
timestamp 118711000 us: [92 54 4F] channel 3: note On C6 velocity: 79
timestamp 118715000 us: [92 4F 4A] channel 3: note On G5 velocity: 74
timestamp 118720000 us: [92 4C 48] channel 3: note On E5 velocity: 72
timestamp 118722000 us: [93 4A 5E] channel 4: note On D5 velocity: 94
timestamp 118841000 us: [92 4C 00] channel 3: note On E5 velocity: 0
timestamp 118846000 us: [92 54 00] channel 3: note On C6 velocity: 0
timestamp 118856000 us: [92 4F 00] channel 3: note On G5 velocity: 0
timestamp 118987000 us: [93 4A 00] channel 4: note On D5 velocity: 0
timestamp 119011000 us: [92 4C 44] channel 3: note On E5 velocity: 68
timestamp 119016000 us: [92 4F 48] channel 3: note On G5 velocity: 72
timestamp 119017000 us: [92 54 46] channel 3: note On C6 velocity: 70
timestamp 119021000 us: [97 48 5B] channel 8: note On C5 velocity: 91
timestamp 119026000 us: [93 48 5A] channel 4: note On C5 velocity: 90
timestamp 119078000 us: [92 4F 00] channel 3: note On G5 velocity: 0
timestamp 119088000 us: [92 54 00] channel 3: note On C6 velocity: 0
timestamp 119102000 us: [92 4C 00] channel 3: note On E5 velocity: 0
timestamp 119112000 us: [97 48 00] channel 8: note On C5 velocity: 0
timestamp 119171000 us: [92 4C 46] channel 3: note On E5 velocity: 70
timestamp 119172000 us: [92 54 4F] channel 3: note On C6 velocity: 79
timestamp 119176000 us: [92 4F 4F] channel 3: note On G5 velocity: 79
timestamp 119181000 us: [97 48 5B] channel 8: note On C5 velocity: 91
timestamp 119282000 us: [92 4F 00] channel 3: note On G5 velocity: 0
timestamp 119296000 us: [92 4C 00] channel 3: note On E5 velocity: 0
timestamp 119316000 us: [92 54 00] channel 3: note On C6 velocity: 0
timestamp 119326000 us: [97 48 00] channel 8: note On C5 velocity: 0
timestamp 119479000 us: [92 4C 44] channel 3: note On E5 velocity: 68
timestamp 119480000 us: [92 54 3C] channel 3: note On C6 velocity: 60
timestamp 119482000 us: [92 4F 3F] channel 3: note On G5 velocity: 63
timestamp 119483000 us: [93 48 00] channel 4: note On C5 velocity: 0
timestamp 119491000 us: [97 48 5B] channel 8: note On C5 velocity: 91
timestamp 119505000 us: [93 48 4E] channel 4: note On C5 velocity: 78
timestamp 119534000 us: [92 4F 00] channel 3: note On G5 velocity: 0
timestamp 119567000 us: [92 4C 00] channel 3: note On E5 velocity: 0
timestamp 119582000 us: [92 54 00] channel 3: note On C6 velocity: 0
timestamp 119592000 us: [97 48 00] channel 8: note On C5 velocity: 0
timestamp 119646000 us: [92 4D 4B] channel 3: note On F5 velocity: 75
timestamp 119647000 us: [92 52 43] channel 3: note On A#5 velocity: 67
timestamp 119650000 us: [92 4A 46] channel 3: note On D5 velocity: 70
timestamp 119652000 us: [97 4A 5C] channel 8: note On D5 velocity: 92
timestamp 119655000 us: [93 48 00] channel 4: note On C5 velocity: 0
timestamp 119657000 us: [93 46 63] channel 4: note On A#4 velocity: 99
timestamp 119767000 us: [92 4A 00] channel 3: note On D5 velocity: 0
timestamp 119780000 us: [92 52 00] channel 3: note On A#5 velocity: 0
timestamp 119805000 us: [92 4D 00] channel 3: note On F5 velocity: 0
timestamp 119854000 us: [93 46 00] channel 4: note On A#4 velocity: 0
timestamp 119907000 us: [97 4A 00] channel 8: note On D5 velocity: 0
timestamp 119951000 us: [92 52 4D] channel 3: note On A#5 velocity: 77
timestamp 119952000 us: [92 4A 3C] channel 3: note On D5 velocity: 60
timestamp 119954000 us: [92 4D 44] channel 3: note On F5 velocity: 68
timestamp 119961000 us: [93 46 57] channel 4: note On A#4 velocity: 87
timestamp 119962000 us: [97 46 5F] channel 8: note On A#4 velocity: 95
timestamp 120014000 us: [92 4A 00] channel 3: note On D5 velocity: 0
timestamp 120047000 us: [92 52 00] channel 3: note On A#5 velocity: 0
timestamp 120052000 us: [92 4D 00] channel 3: note On F5 velocity: 0
timestamp 120080000 us: [93 46 00] channel 4: note On A#4 velocity: 0
timestamp 120111000 us: [92 4A 52] channel 3: note On D5 velocity: 82
timestamp 120112000 us: [92 4D 3A] channel 3: note On F5 velocity: 58
timestamp 120113000 us: [92 52 58] channel 3: note On A#5 velocity: 88
timestamp 120116000 us: [93 46 5C] channel 4: note On A#4 velocity: 92
timestamp 120222000 us: [92 4A 00] channel 3: note On D5 velocity: 0
timestamp 120247000 us: [93 46 00] channel 4: note On A#4 velocity: 0
timestamp 120251000 us: [92 4D 00] channel 3: note On F5 velocity: 0
timestamp 120261000 us: [93 46 5E] channel 4: note On A#4 velocity: 94
timestamp 120265000 us: [92 52 00] channel 3: note On A#5 velocity: 0
timestamp 120266000 us: [97 46 00] channel 8: note On A#4 velocity: 0
timestamp 120417000 us: [92 4A 48] channel 3: note On D5 velocity: 72
timestamp 120418000 us: [92 52 4F] channel 3: note On A#5 velocity: 79
timestamp 120421000 us: [92 4D 4B] channel 3: note On F5 velocity: 75
timestamp 120422000 us: [93 46 00] channel 4: note On A#4 velocity: 0
timestamp 120423000 us: [97 48 5A] channel 8: note On C5 velocity: 90
timestamp 120425000 us: [93 45 60] channel 4: note On A4 velocity: 96
timestamp 120503000 us: [92 4A 00] channel 3: note On D5 velocity: 0
timestamp 120507000 us: [92 52 00] channel 3: note On A#5 velocity: 0
timestamp 120517000 us: [92 4D 00] channel 3: note On F5 velocity: 0
timestamp 120576000 us: [92 4D 3F] channel 3: note On F5 velocity: 63
timestamp 120580000 us: [92 51 51] channel 3: note On A5 velocity: 81
timestamp 120585000 us: [92 48 41] channel 3: note On C5 velocity: 65
timestamp 120678000 us: [92 48 00] channel 3: note On C5 velocity: 0
timestamp 120716000 us: [92 51 00] channel 3: note On A5 velocity: 0
timestamp 120730000 us: [92 4D 00] channel 3: note On F5 velocity: 0
timestamp 120813000 us: [93 45 00] channel 4: note On A4 velocity: 0
timestamp 120881000 us: [92 48 48] channel 3: note On C5 velocity: 72
timestamp 120882000 us: [92 4D 46] channel 3: note On F5 velocity: 70
timestamp 120886000 us: [92 51 44] channel 3: note On A5 velocity: 68
timestamp 120953000 us: [92 51 00] channel 3: note On A5 velocity: 0
timestamp 120963000 us: [92 48 00] channel 3: note On C5 velocity: 0
timestamp 120978000 us: [92 4D 00] channel 3: note On F5 velocity: 0
timestamp 121036000 us: [92 4D 4F] channel 3: note On F5 velocity: 79
timestamp 121041000 us: [92 48 4F] channel 3: note On C5 velocity: 79
timestamp 121042000 us: [92 51 59] channel 3: note On A5 velocity: 89
timestamp 121142000 us: [92 48 00] channel 3: note On C5 velocity: 0
timestamp 121157000 us: [92 4D 00] channel 3: note On F5 velocity: 0
timestamp 121186000 us: [92 51 00] channel 3: note On A5 velocity: 0
timestamp 121249000 us: [97 48 00] channel 8: note On C5 velocity: 0
timestamp 121342000 us: [92 51 43] channel 3: note On A5 velocity: 67
timestamp 121343000 us: [92 4D 33] channel 3: note On F5 velocity: 51
timestamp 121346000 us: [92 48 48] channel 3: note On C5 velocity: 72
timestamp 121348000 us: [93 45 59] channel 4: note On A4 velocity: 89
timestamp 121423000 us: [92 4D 00] channel 3: note On F5 velocity: 0
timestamp 121428000 us: [92 48 00] channel 3: note On C5 velocity: 0
timestamp 121438000 us: [92 51 00] channel 3: note On A5 velocity: 0
timestamp 121480000 us: [93 45 00] channel 4: note On A4 velocity: 0
timestamp 121497000 us: [92 52 54] channel 3: note On A#5 velocity: 84
timestamp 121501000 us: [92 4A 54] channel 3: note On D5 velocity: 84
timestamp 121502000 us: [92 4D 51] channel 3: note On F5 velocity: 81
timestamp 121505000 us: [93 46 5E] channel 4: note On A#4 velocity: 94
timestamp 121637000 us: [92 4A 00] channel 3: note On D5 velocity: 0
timestamp 121638000 us: [92 52 00] channel 3: note On A#5 velocity: 0
timestamp 121647000 us: [92 4D 00] channel 3: note On F5 velocity: 0
timestamp 121748000 us: [93 46 00] channel 4: note On A#4 velocity: 0
timestamp 121807000 us: [92 4A 43] channel 3: note On D5 velocity: 67
timestamp 121808000 us: [92 4D 4D] channel 3: note On F5 velocity: 77
timestamp 121809000 us: [92 52 4F] channel 3: note On A#5 velocity: 79
timestamp 121816000 us: [93 46 61] channel 4: note On A#4 velocity: 97
timestamp 121874000 us: [92 4A 00] channel 3: note On D5 velocity: 0
timestamp 121888000 us: [92 4D 00] channel 3: note On F5 velocity: 0
timestamp 121893000 us: [92 52 00] channel 3: note On A#5 velocity: 0
timestamp 121937000 us: [93 46 00] channel 4: note On A#4 velocity: 0
timestamp 121967000 us: [92 4A 51] channel 3: note On D5 velocity: 81
timestamp 121968000 us: [92 4D 43] channel 3: note On F5 velocity: 67
timestamp 121969000 us: [92 52 52] channel 3: note On A#5 velocity: 82
timestamp 121976000 us: [93 46 60] channel 4: note On A#4 velocity: 96
timestamp 122072000 us: [92 4A 00] channel 3: note On D5 velocity: 0
timestamp 122087000 us: [92 52 00] channel 3: note On A#5 velocity: 0
timestamp 122108000 us: [92 4D 00] channel 3: note On F5 velocity: 0
timestamp 122145000 us: [93 46 00] channel 4: note On A#4 velocity: 0
timestamp 122272000 us: [92 52 3D] channel 3: note On A#5 velocity: 61
timestamp 122273000 us: [92 4A 32] channel 3: note On D5 velocity: 50
timestamp 122275000 us: [92 4D 38] channel 3: note On F5 velocity: 56
timestamp 122279000 us: [93 46 60] channel 4: note On A#4 velocity: 96
timestamp 122339000 us: [92 4A 00] channel 3: note On D5 velocity: 0
timestamp 122340000 us: [92 52 00] channel 3: note On A#5 velocity: 0
timestamp 122382000 us: [92 4D 00] channel 3: note On F5 velocity: 0
timestamp 122383000 us: [93 46 00] channel 4: note On A#4 velocity: 0
timestamp 122437000 us: [92 4D 43] channel 3: note On F5 velocity: 67
timestamp 122438000 us: [92 51 52] channel 3: note On A5 velocity: 82
timestamp 122439000 us: [92 48 43] channel 3: note On C5 velocity: 67
timestamp 122441000 us: [93 46 63] channel 4: note On A#4 velocity: 99
timestamp 122518000 us: [92 48 00] channel 3: note On C5 velocity: 0
timestamp 122552000 us: [92 51 00] channel 3: note On A5 velocity: 0
timestamp 122567000 us: [92 4D 00] channel 3: note On F5 velocity: 0
timestamp 122731000 us: [93 46 00] channel 4: note On A#4 velocity: 0
timestamp 122739000 us: [92 48 32] channel 3: note On C5 velocity: 50
timestamp 122740000 us: [92 4D 3A] channel 3: note On F5 velocity: 58
timestamp 122742000 us: [92 51 36] channel 3: note On A5 velocity: 54
timestamp 122747000 us: [93 45 5A] channel 4: note On A4 velocity: 90
timestamp 122814000 us: [92 48 00] channel 3: note On C5 velocity: 0
timestamp 122814000 us: [92 51 00] channel 3: note On A5 velocity: 0
timestamp 122833000 us: [92 4D 00] channel 3: note On F5 velocity: 0
timestamp 122897000 us: [92 48 4D] channel 3: note On C5 velocity: 77
timestamp 122898000 us: [92 4D 43] channel 3: note On F5 velocity: 67
timestamp 122900000 us: [92 51 4D] channel 3: note On A5 velocity: 77
timestamp 123012000 us: [92 4D 00] channel 3: note On F5 velocity: 0
timestamp 123013000 us: [92 48 00] channel 3: note On C5 velocity: 0
timestamp 123037000 us: [92 51 00] channel 3: note On A5 velocity: 0
timestamp 123085000 us: [93 45 00] channel 4: note On A4 velocity: 0
timestamp 123202000 us: [92 48 32] channel 3: note On C5 velocity: 50
timestamp 123203000 us: [92 4D 3F] channel 3: note On F5 velocity: 63
timestamp 123207000 us: [92 51 44] channel 3: note On A5 velocity: 68
timestamp 123212000 us: [93 45 5C] channel 4: note On A4 velocity: 92
timestamp 123279000 us: [92 48 00] channel 3: note On C5 velocity: 0
timestamp 123279000 us: [92 51 00] channel 3: note On A5 velocity: 0
timestamp 123303000 us: [93 45 00] channel 4: note On A4 velocity: 0
timestamp 123308000 us: [92 4D 00] channel 3: note On F5 velocity: 0
timestamp 123358000 us: [92 53 54] channel 3: note On B5 velocity: 84
timestamp 123362000 us: [92 4A 4B] channel 3: note On D5 velocity: 75
timestamp 123367000 us: [92 4F 48] channel 3: note On G5 velocity: 72
timestamp 123369000 us: [93 45 53] channel 4: note On A4 velocity: 83
timestamp 123468000 us: [92 4F 00] channel 3: note On G5 velocity: 0
timestamp 123487000 us: [92 4A 00] channel 3: note On D5 velocity: 0
timestamp 123497000 us: [92 53 00] channel 3: note On B5 velocity: 0
timestamp 123608000 us: [93 45 00] channel 4: note On A4 velocity: 0
timestamp 123662000 us: [92 53 51] channel 3: note On B5 velocity: 81
timestamp 123664000 us: [92 4A 4D] channel 3: note On D5 velocity: 77
timestamp 123665000 us: [92 4F 52] channel 3: note On G5 velocity: 82
timestamp 123672000 us: [93 43 4F] channel 4: note On G4 velocity: 79
timestamp 123763000 us: [92 4F 00] channel 3: note On G5 velocity: 0
timestamp 123764000 us: [92 4A 00] channel 3: note On D5 velocity: 0
timestamp 123765000 us: [92 53 00] channel 3: note On B5 velocity: 0
timestamp 123822000 us: [92 4A 4D] channel 3: note On D5 velocity: 77
timestamp 123823000 us: [92 53 4A] channel 3: note On B5 velocity: 74
timestamp 123825000 us: [92 4F 48] channel 3: note On G5 velocity: 72
timestamp 123827000 us: [93 43 00] channel 4: note On G4 velocity: 0
timestamp 123832000 us: [93 43 59] channel 4: note On G4 velocity: 89
timestamp 123923000 us: [92 4F 00] channel 3: note On G5 velocity: 0
timestamp 123928000 us: [92 4A 00] channel 3: note On D5 velocity: 0
timestamp 123937000 us: [92 53 00] channel 3: note On B5 velocity: 0
timestamp 124001000 us: [93 43 00] channel 4: note On G4 velocity: 0
timestamp 124123000 us: [92 53 4A] channel 3: note On B5 velocity: 74
timestamp 124128000 us: [92 4A 3F] channel 3: note On D5 velocity: 63
timestamp 124129000 us: [92 4F 51] channel 3: note On G5 velocity: 81
timestamp 124142000 us: [93 45 55] channel 4: note On A4 velocity: 85
timestamp 124180000 us: [92 4A 00] channel 3: note On D5 velocity: 0
timestamp 124199000 us: [92 53 00] channel 3: note On B5 velocity: 0
timestamp 124204000 us: [92 4F 00] channel 3: note On G5 velocity: 0
timestamp 124280000 us: [93 45 00] channel 4: note On A4 velocity: 0
timestamp 124282000 us: [92 54 54] channel 3: note On C6 velocity: 84
timestamp 124288000 us: [92 4C 4D] channel 3: note On E5 velocity: 77
timestamp 124289000 us: [92 4F 3F] channel 3: note On G5 velocity: 63
timestamp 124292000 us: [93 43 61] channel 4: note On G4 velocity: 97
timestamp 124413000 us: [92 54 00] channel 3: note On C6 velocity: 0
timestamp 124418000 us: [92 4F 00] channel 3: note On G5 velocity: 0
timestamp 124427000 us: [92 4C 00] channel 3: note On E5 velocity: 0
timestamp 124573000 us: [93 43 00] channel 4: note On G4 velocity: 0
timestamp 124589000 us: [97 4D 5E] channel 8: note On F5 velocity: 94
timestamp 124593000 us: [92 4F 48] channel 3: note On G5 velocity: 72
timestamp 124594000 us: [92 54 4D] channel 3: note On C6 velocity: 77
timestamp 124596000 us: [92 4C 44] channel 3: note On E5 velocity: 68
timestamp 124599000 us: [93 48 61] channel 4: note On C5 velocity: 97
timestamp 124660000 us: [92 4C 00] channel 3: note On E5 velocity: 0
timestamp 124664000 us: [92 4F 00] channel 3: note On G5 velocity: 0
timestamp 124665000 us: [92 54 00] channel 3: note On C6 velocity: 0
timestamp 124689000 us: [97 4D 00] channel 8: note On F5 velocity: 0
timestamp 124743000 us: [92 54 3D] channel 3: note On C6 velocity: 61
timestamp 124748000 us: [92 4C 43] channel 3: note On E5 velocity: 67
timestamp 124750000 us: [97 4D 59] channel 8: note On F5 velocity: 89
timestamp 124752000 us: [92 4F 4A] channel 3: note On G5 velocity: 74
timestamp 124839000 us: [92 4F 00] channel 3: note On G5 velocity: 0
timestamp 124858000 us: [92 4C 00] channel 3: note On E5 velocity: 0
timestamp 124868000 us: [92 54 00] channel 3: note On C6 velocity: 0
timestamp 124892000 us: [97 4D 00] channel 8: note On F5 velocity: 0
timestamp 125043000 us: [97 4D 5C] channel 8: note On F5 velocity: 92
timestamp 125045000 us: [92 54 4B] channel 3: note On C6 velocity: 75
timestamp 125050000 us: [92 4C 43] channel 3: note On E5 velocity: 67
timestamp 125052000 us: [92 4F 4F] channel 3: note On G5 velocity: 79
timestamp 125139000 us: [92 4F 00] channel 3: note On G5 velocity: 0
timestamp 125144000 us: [92 4C 00] channel 3: note On E5 velocity: 0
timestamp 125149000 us: [97 4D 00] channel 8: note On F5 velocity: 0
timestamp 125154000 us: [92 54 00] channel 3: note On C6 velocity: 0
timestamp 125189000 us: [93 48 00] channel 4: note On C5 velocity: 0
timestamp 125209000 us: [97 4D 5C] channel 8: note On F5 velocity: 92
timestamp 125222000 us: [92 4D 4A] channel 3: note On F5 velocity: 74
timestamp 125223000 us: [92 51 4A] channel 3: note On A5 velocity: 74
timestamp 125225000 us: [92 54 48] channel 3: note On C6 velocity: 72
timestamp 125228000 us: [93 45 60] channel 4: note On A4 velocity: 96
timestamp 125353000 us: [92 54 00] channel 3: note On C6 velocity: 0
timestamp 125372000 us: [92 51 00] channel 3: note On A5 velocity: 0
timestamp 125377000 us: [92 4D 00] channel 3: note On F5 velocity: 0
timestamp 125435000 us: [97 4D 00] channel 8: note On F5 velocity: 0
timestamp 125440000 us: [93 45 00] channel 4: note On A4 velocity: 0
timestamp 125504000 us: [97 48 5E] channel 8: note On C5 velocity: 94
timestamp 125532000 us: [92 4D 44] channel 3: note On F5 velocity: 68
timestamp 125534000 us: [92 51 4D] channel 3: note On A5 velocity: 77
timestamp 125535000 us: [92 54 43] channel 3: note On C6 velocity: 67
timestamp 125538000 us: [93 48 61] channel 4: note On C5 velocity: 97
timestamp 125619000 us: [92 51 00] channel 3: note On A5 velocity: 0
timestamp 125620000 us: [92 4D 00] channel 3: note On F5 velocity: 0
timestamp 125624000 us: [92 54 00] channel 3: note On C6 velocity: 0
timestamp 125634000 us: [93 48 00] channel 4: note On C5 velocity: 0
timestamp 125688000 us: [92 54 44] channel 3: note On C6 velocity: 68
timestamp 125692000 us: [92 4D 36] channel 3: note On F5 velocity: 54
timestamp 125694000 us: [92 51 51] channel 3: note On A5 velocity: 81
timestamp 125696000 us: [93 48 59] channel 4: note On C5 velocity: 89
timestamp 125764000 us: [97 48 00] channel 8: note On C5 velocity: 0
timestamp 125819000 us: [92 51 00] channel 3: note On A5 velocity: 0
timestamp 125820000 us: [92 4D 00] channel 3: note On F5 velocity: 0
timestamp 125822000 us: [92 54 00] channel 3: note On C6 velocity: 0
timestamp 125856000 us: [93 48 00] channel 4: note On C5 velocity: 0
timestamp 125969000 us: [97 48 5C] channel 8: note On C5 velocity: 92
timestamp 125993000 us: [92 4D 3F] channel 3: note On F5 velocity: 63
timestamp 125994000 us: [92 54 43] channel 3: note On C6 velocity: 67
timestamp 125998000 us: [92 51 4A] channel 3: note On A5 velocity: 74
timestamp 126002000 us: [93 48 5E] channel 4: note On C5 velocity: 94
timestamp 126065000 us: [92 54 00] channel 3: note On C6 velocity: 0
timestamp 126066000 us: [92 4D 00] channel 3: note On F5 velocity: 0
timestamp 126069000 us: [92 51 00] channel 3: note On A5 velocity: 0
timestamp 126113000 us: [93 48 00] channel 4: note On C5 velocity: 0
timestamp 126153000 us: [92 54 4F] channel 3: note On C6 velocity: 79
timestamp 126157000 us: [92 4F 4A] channel 3: note On G5 velocity: 74
timestamp 126162000 us: [92 4C 48] channel 3: note On E5 velocity: 72
timestamp 126164000 us: [93 4A 5E] channel 4: note On D5 velocity: 94
timestamp 126283000 us: [92 4C 00] channel 3: note On E5 velocity: 0
timestamp 126288000 us: [92 54 00] channel 3: note On C6 velocity: 0
timestamp 126298000 us: [92 4F 00] channel 3: note On G5 velocity: 0
timestamp 126428000 us: [93 4A 00] channel 4: note On D5 velocity: 0
timestamp 126453000 us: [92 4C 44] channel 3: note On E5 velocity: 68
timestamp 126459000 us: [92 4F 48] channel 3: note On G5 velocity: 72
timestamp 126460000 us: [92 54 46] channel 3: note On C6 velocity: 70
timestamp 126468000 us: [93 48 5A] channel 4: note On C5 velocity: 90
timestamp 126520000 us: [92 4F 00] channel 3: note On G5 velocity: 0
timestamp 126530000 us: [92 54 00] channel 3: note On C6 velocity: 0
timestamp 126544000 us: [92 4C 00] channel 3: note On E5 velocity: 0
timestamp 126613000 us: [92 4C 46] channel 3: note On E5 velocity: 70
timestamp 126614000 us: [92 54 4F] channel 3: note On C6 velocity: 79
timestamp 126618000 us: [92 4F 4F] channel 3: note On G5 velocity: 79
timestamp 126723000 us: [92 4F 00] channel 3: note On G5 velocity: 0
timestamp 126738000 us: [92 4C 00] channel 3: note On E5 velocity: 0
timestamp 126758000 us: [92 54 00] channel 3: note On C6 velocity: 0
timestamp 126816000 us: [97 48 00] channel 8: note On C5 velocity: 0
timestamp 126919000 us: [92 4C 44] channel 3: note On E5 velocity: 68
timestamp 126920000 us: [92 54 3C] channel 3: note On C6 velocity: 60
timestamp 126923000 us: [92 4F 3F] channel 3: note On G5 velocity: 63
timestamp 126924000 us: [93 48 00] channel 4: note On C5 velocity: 0
timestamp 126947000 us: [93 48 4E] channel 4: note On C5 velocity: 78
timestamp 126976000 us: [92 4F 00] channel 3: note On G5 velocity: 0
timestamp 127010000 us: [92 4C 00] channel 3: note On E5 velocity: 0
timestamp 127024000 us: [92 54 00] channel 3: note On C6 velocity: 0
timestamp 127088000 us: [92 4D 4B] channel 3: note On F5 velocity: 75
timestamp 127089000 us: [92 52 43] channel 3: note On A#5 velocity: 67
timestamp 127092000 us: [92 4A 46] channel 3: note On D5 velocity: 70
timestamp 127097000 us: [93 48 00] channel 4: note On C5 velocity: 0
timestamp 127098000 us: [93 46 63] channel 4: note On A#4 velocity: 99
timestamp 127208000 us: [92 4A 00] channel 3: note On D5 velocity: 0
timestamp 127222000 us: [92 52 00] channel 3: note On A#5 velocity: 0
timestamp 127247000 us: [92 4D 00] channel 3: note On F5 velocity: 0
timestamp 127296000 us: [93 46 00] channel 4: note On A#4 velocity: 0
timestamp 127393000 us: [92 52 4D] channel 3: note On A#5 velocity: 77
timestamp 127394000 us: [92 4A 3C] channel 3: note On D5 velocity: 60
timestamp 127396000 us: [92 4D 44] channel 3: note On F5 velocity: 68
timestamp 127403000 us: [93 46 57] channel 4: note On A#4 velocity: 87
timestamp 127455000 us: [92 4A 00] channel 3: note On D5 velocity: 0
timestamp 127489000 us: [92 52 00] channel 3: note On A#5 velocity: 0
timestamp 127494000 us: [92 4D 00] channel 3: note On F5 velocity: 0
timestamp 127518000 us: [93 46 00] channel 4: note On A#4 velocity: 0
timestamp 127553000 us: [92 4A 52] channel 3: note On D5 velocity: 82
timestamp 127554000 us: [92 4D 3A] channel 3: note On F5 velocity: 58
timestamp 127556000 us: [92 52 58] channel 3: note On A#5 velocity: 88
timestamp 127558000 us: [93 46 5C] channel 4: note On A#4 velocity: 92
timestamp 127664000 us: [92 4A 00] channel 3: note On D5 velocity: 0
timestamp 127689000 us: [93 46 00] channel 4: note On A#4 velocity: 0
timestamp 127693000 us: [92 4D 00] channel 3: note On F5 velocity: 0
timestamp 127703000 us: [93 46 5E] channel 4: note On A#4 velocity: 94
timestamp 127708000 us: [92 52 00] channel 3: note On A#5 velocity: 0
timestamp 127858000 us: [92 4A 48] channel 3: note On D5 velocity: 72
timestamp 127859000 us: [92 52 4F] channel 3: note On A#5 velocity: 79
timestamp 127863000 us: [92 4D 4B] channel 3: note On F5 velocity: 75
timestamp 127864000 us: [93 46 00] channel 4: note On A#4 velocity: 0
timestamp 127865000 us: [93 45 60] channel 4: note On A4 velocity: 96
timestamp 127945000 us: [92 4A 00] channel 3: note On D5 velocity: 0
timestamp 127949000 us: [92 52 00] channel 3: note On A#5 velocity: 0
timestamp 127959000 us: [92 4D 00] channel 3: note On F5 velocity: 0
timestamp 128018000 us: [92 51 3F] channel 3: note On A5 velocity: 63
timestamp 128022000 us: [92 54 51] channel 3: note On C6 velocity: 81
timestamp 128027000 us: [92 4D 41] channel 3: note On F5 velocity: 65
timestamp 128119000 us: [92 4D 00] channel 3: note On F5 velocity: 0
timestamp 128158000 us: [92 54 00] channel 3: note On C6 velocity: 0
timestamp 128172000 us: [92 51 00] channel 3: note On A5 velocity: 0
timestamp 128255000 us: [93 45 00] channel 4: note On A4 velocity: 0
timestamp 128323000 us: [92 4D 48] channel 3: note On F5 velocity: 72
timestamp 128324000 us: [92 51 46] channel 3: note On A5 velocity: 70
timestamp 128328000 us: [92 54 44] channel 3: note On C6 velocity: 68
timestamp 128395000 us: [92 54 00] channel 3: note On C6 velocity: 0
timestamp 128405000 us: [92 4D 00] channel 3: note On F5 velocity: 0
timestamp 128419000 us: [92 51 00] channel 3: note On A5 velocity: 0
timestamp 128482000 us: [92 51 4F] channel 3: note On A5 velocity: 79
timestamp 128483000 us: [92 4D 4F] channel 3: note On F5 velocity: 79
timestamp 128485000 us: [92 54 59] channel 3: note On C6 velocity: 89
timestamp 128584000 us: [92 4D 00] channel 3: note On F5 velocity: 0
timestamp 128598000 us: [92 51 00] channel 3: note On A5 velocity: 0
timestamp 128628000 us: [92 54 00] channel 3: note On C6 velocity: 0
timestamp 128783000 us: [92 54 43] channel 3: note On C6 velocity: 67
timestamp 128785000 us: [92 51 33] channel 3: note On A5 velocity: 51
timestamp 128789000 us: [92 4D 48] channel 3: note On F5 velocity: 72
timestamp 128791000 us: [93 41 59] channel 4: note On F4 velocity: 89
timestamp 128793000 us: [97 41 52] channel 8: note On F4 velocity: 82
timestamp 128909000 us: [92 54 00] channel 3: note On C6 velocity: 0
timestamp 128910000 us: [92 51 00] channel 3: note On A5 velocity: 0
timestamp 128914000 us: [92 4D 00] channel 3: note On F5 velocity: 0
timestamp 128929000 us: [92 3A 48] channel 3: note On A#3 velocity: 72
timestamp 128933000 us: [92 2E 56] channel 3: note On A#2 velocity: 86
timestamp 128935000 us: [92 3E 54] channel 3: note On D4 velocity: 84
timestamp 128940000 us: [91 22 6A] channel 2: note On A#1 velocity: 106
timestamp 128941000 us: [92 41 54] channel 3: note On F4 velocity: 84
timestamp 128943000 us: [98 41 52] channel 9: note On F4 velocity: 82
timestamp 128945000 us: [99 23 75] channel 10: note On B1 velocity: 117
timestamp 128946000 us: [93 41 00] channel 4: note On F4 velocity: 0
timestamp 128947000 us: [97 41 00] channel 8: note On F4 velocity: 0
timestamp 128949000 us: [93 41 6B] channel 4: note On F4 velocity: 107
timestamp 128950000 us: [97 41 63] channel 8: note On F4 velocity: 99
timestamp 128951000 us: [99 23 00] channel 10: note On B1 velocity: 0
timestamp 129025000 us: [93 41 00] channel 4: note On F4 velocity: 0
timestamp 129026000 us: [97 41 00] channel 8: note On F4 velocity: 0
timestamp 129094000 us: [93 41 64] channel 4: note On F4 velocity: 100
timestamp 129095000 us: [97 41 5F] channel 8: note On F4 velocity: 95
timestamp 129175000 us: [93 41 00] channel 4: note On F4 velocity: 0
timestamp 129176000 us: [97 41 00] channel 8: note On F4 velocity: 0
timestamp 129253000 us: [93 41 5D] channel 4: note On F4 velocity: 93
timestamp 129255000 us: [97 41 56] channel 8: note On F4 velocity: 86
timestamp 129296000 us: [93 41 00] channel 4: note On F4 velocity: 0
timestamp 129297000 us: [97 41 00] channel 8: note On F4 velocity: 0
timestamp 129404000 us: [93 41 72] channel 4: note On F4 velocity: 114
timestamp 129405000 us: [97 41 6B] channel 8: note On F4 velocity: 107
timestamp 129407000 us: [99 23 75] channel 10: note On B1 velocity: 117
timestamp 129412000 us: [99 23 00] channel 10: note On B1 velocity: 0
timestamp 129829000 us: [98 41 00] channel 9: note On F4 velocity: 0
timestamp 129870000 us: [99 23 75] channel 10: note On B1 velocity: 117
timestamp 129878000 us: [99 23 00] channel 10: note On B1 velocity: 0
timestamp 129888000 us: [98 41 52] channel 9: note On F4 velocity: 82
timestamp 130334000 us: [99 23 75] channel 10: note On B1 velocity: 117
timestamp 130342000 us: [99 23 00] channel 10: note On B1 velocity: 0
timestamp 130508000 us: [98 43 46] channel 9: note On G4 velocity: 70
timestamp 130546000 us: [98 41 00] channel 9: note On F4 velocity: 0
timestamp 130591000 us: [98 45 46] channel 9: note On A4 velocity: 70
timestamp 130614000 us: [98 43 00] channel 9: note On G4 velocity: 0
timestamp 130644000 us: [98 46 46] channel 9: note On A#4 velocity: 70
timestamp 130653000 us: [92 3A 00] channel 3: note On A#3 velocity: 0
timestamp 130663000 us: [98 45 00] channel 9: note On A4 velocity: 0
timestamp 130692000 us: [92 41 00] channel 3: note On F4 velocity: 0
timestamp 130693000 us: [98 48 43] channel 9: note On C5 velocity: 67
timestamp 130696000 us: [98 46 00] channel 9: note On A#4 velocity: 0
timestamp 130726000 us: [92 3E 00] channel 3: note On D4 velocity: 0
timestamp 130730000 us: [93 41 00] channel 4: note On F4 velocity: 0
timestamp 130731000 us: [97 41 00] channel 8: note On F4 velocity: 0
timestamp 130733000 us: [98 4A 41] channel 9: note On D5 velocity: 65
timestamp 130745000 us: [98 48 00] channel 9: note On C5 velocity: 0
timestamp 130755000 us: [91 22 00] channel 2: note On A#1 velocity: 0
timestamp 130756000 us: [98 4C 40] channel 9: note On E5 velocity: 64
timestamp 130770000 us: [E3 00 02] channel 4: pitch wheel change 256
timestamp 130784000 us: [98 4A 00] channel 9: note On D5 velocity: 0
timestamp 130792000 us: [93 4D 71] channel 4: note On F5 velocity: 113
timestamp 130793000 us: [97 4D 6A] channel 8: note On F5 velocity: 106
timestamp 130800000 us: [91 24 6A] channel 2: note On C2 velocity: 106
timestamp 130801000 us: [98 4D 73] channel 9: note On F5 velocity: 115
timestamp 130803000 us: [99 23 75] channel 10: note On B1 velocity: 117
timestamp 130804000 us: [92 2E 00] channel 3: note On A#2 velocity: 0
timestamp 130805000 us: [92 3E 4D] channel 3: note On D4 velocity: 77
timestamp 130809000 us: [92 3A 57] channel 3: note On A#3 velocity: 87
timestamp 130810000 us: [E3 00 0A] channel 4: pitch wheel change 1280
timestamp 130811000 us: [99 23 00] channel 10: note On B1 velocity: 0
timestamp 130813000 us: [98 4C 00] channel 9: note On E5 velocity: 0
timestamp 130816000 us: [92 30 56] channel 3: note On C3 velocity: 86
timestamp 130817000 us: [92 41 56] channel 3: note On F4 velocity: 86
timestamp 130843000 us: [E3 00 1E] channel 4: pitch wheel change 3840
timestamp 130876000 us: [E3 00 2B] channel 4: pitch wheel change 5504
timestamp 130910000 us: [E3 00 34] channel 4: pitch wheel change 6656
timestamp 130944000 us: [E3 00 3E] channel 4: pitch wheel change 7936
timestamp 130959000 us: [E3 00 40] channel 4: pitch wheel change 8192
timestamp 131263000 us: [93 4D 00] channel 4: note On F5 velocity: 0
timestamp 131264000 us: [97 4D 00] channel 8: note On F5 velocity: 0
timestamp 131266000 us: [99 23 75] channel 10: note On B1 velocity: 117
timestamp 131267000 us: [93 41 6D] channel 4: note On F4 velocity: 109
timestamp 131273000 us: [99 23 00] channel 10: note On B1 velocity: 0
timestamp 131462000 us: [93 41 00] channel 4: note On F4 velocity: 0
timestamp 131570000 us: [93 41 66] channel 4: note On F4 velocity: 102
timestamp 131581000 us: [98 4D 00] channel 9: note On F5 velocity: 0
timestamp 131690000 us: [93 41 00] channel 4: note On F4 velocity: 0
timestamp 131724000 us: [93 45 71] channel 4: note On A4 velocity: 113
timestamp 131730000 us: [99 23 75] channel 10: note On B1 velocity: 117
timestamp 131738000 us: [99 23 00] channel 10: note On B1 velocity: 0
timestamp 131951000 us: [93 45 00] channel 4: note On A4 velocity: 0
timestamp 132025000 us: [93 41 6A] channel 4: note On F4 velocity: 106
timestamp 132140000 us: [93 41 00] channel 4: note On F4 velocity: 0
timestamp 132181000 us: [93 41 6A] channel 4: note On F4 velocity: 106
timestamp 132194000 us: [99 23 75] channel 10: note On B1 velocity: 117
timestamp 132203000 us: [99 23 00] channel 10: note On B1 velocity: 0
timestamp 132387000 us: [93 41 00] channel 4: note On F4 velocity: 0
timestamp 132485000 us: [93 41 6D] channel 4: note On F4 velocity: 109
timestamp 132490000 us: [91 24 00] channel 2: note On C2 velocity: 0
timestamp 132533000 us: [91 1D 68] channel 2: note On F1 velocity: 104
timestamp 132562000 us: [92 3A 00] channel 3: note On A#3 velocity: 0
timestamp 132581000 us: [92 3E 00] channel 3: note On D4 velocity: 0
timestamp 132582000 us: [92 30 00] channel 3: note On C3 velocity: 0
timestamp 132596000 us: [92 41 00] channel 3: note On F4 velocity: 0
timestamp 132640000 us: [E4 00 0C] channel 5: pitch wheel change 1536
timestamp 132645000 us: [94 4D 74] channel 5: note On F5 velocity: 116
timestamp 132647000 us: [94 59 6E] channel 5: note On F6 velocity: 110
timestamp 132661000 us: [96 35 54] channel 7: note On F3 velocity: 84
timestamp 132662000 us: [99 23 73] channel 10: note On B1 velocity: 115
timestamp 132664000 us: [92 35 46] channel 3: note On F3 velocity: 70
timestamp 132666000 us: [92 39 52] channel 3: note On A3 velocity: 82
timestamp 132669000 us: [92 3C 55] channel 3: note On C4 velocity: 85
timestamp 132670000 us: [99 23 00] channel 10: note On B1 velocity: 0
timestamp 132674000 us: [96 39 4C] channel 7: note On A3 velocity: 76
timestamp 132693000 us: [96 3C 53] channel 7: note On C4 velocity: 83
timestamp 132795000 us: [93 41 00] channel 4: note On F4 velocity: 0
timestamp 132800000 us: [E4 00 16] channel 5: pitch wheel change 2816
timestamp 132821000 us: [E4 00 24] channel 5: pitch wheel change 4608
timestamp 132843000 us: [E4 00 30] channel 5: pitch wheel change 6144
timestamp 132863000 us: [E4 00 37] channel 5: pitch wheel change 7040
timestamp 132877000 us: [E4 00 40] channel 5: pitch wheel change 8192
timestamp 132887000 us: [92 35 00] channel 3: note On F3 velocity: 0
timestamp 132887000 us: [92 39 00] channel 3: note On A3 velocity: 0
timestamp 132892000 us: [92 3C 00] channel 3: note On C4 velocity: 0
timestamp 132955000 us: [96 3C 00] channel 7: note On C4 velocity: 0
timestamp 132955000 us: [96 39 00] channel 7: note On A3 velocity: 0
timestamp 132961000 us: [96 35 00] channel 7: note On F3 velocity: 0
timestamp 132970000 us: [96 35 4A] channel 7: note On F3 velocity: 74
timestamp 132989000 us: [92 35 4B] channel 3: note On F3 velocity: 75
timestamp 133095000 us: [92 35 00] channel 3: note On F3 velocity: 0
timestamp 133125000 us: [96 3A 64] channel 7: note On A#3 velocity: 100
timestamp 133126000 us: [99 23 73] channel 10: note On B1 velocity: 115
timestamp 133128000 us: [92 35 4B] channel 3: note On F3 velocity: 75
timestamp 133129000 us: [92 3A 57] channel 3: note On A#3 velocity: 87
timestamp 133130000 us: [92 3E 5C] channel 3: note On D4 velocity: 92
timestamp 133134000 us: [99 23 00] channel 10: note On B1 velocity: 0
timestamp 133149000 us: [96 3E 61] channel 7: note On D4 velocity: 97
timestamp 133192000 us: [92 3E 00] channel 3: note On D4 velocity: 0
timestamp 133192000 us: [92 3A 00] channel 3: note On A#3 velocity: 0
timestamp 133193000 us: [92 35 00] channel 3: note On F3 velocity: 0
timestamp 133298000 us: [96 35 00] channel 7: note On F3 velocity: 0
timestamp 133308000 us: [96 3A 00] channel 7: note On A#3 velocity: 0
timestamp 133317000 us: [96 3E 00] channel 7: note On D4 velocity: 0
timestamp 133366000 us: [94 59 00] channel 5: note On F6 velocity: 0
timestamp 133367000 us: [94 4D 00] channel 5: note On F5 velocity: 0
timestamp 133415000 us: [94 48 6D] channel 5: note On C5 velocity: 109
timestamp 133417000 us: [94 54 62] channel 5: note On C6 velocity: 98
timestamp 133435000 us: [96 35 47] channel 7: note On F3 velocity: 71
timestamp 133464000 us: [92 35 4E] channel 3: note On F3 velocity: 78
timestamp 133465000 us: [92 39 4A] channel 3: note On A3 velocity: 74
timestamp 133466000 us: [92 3C 4B] channel 3: note On C4 velocity: 75
timestamp 133507000 us: [94 54 00] channel 5: note On C6 velocity: 0
timestamp 133508000 us: [94 48 00] channel 5: note On C5 velocity: 0
timestamp 133571000 us: [94 4B 6F] channel 5: note On D#5 velocity: 111
timestamp 133573000 us: [94 57 64] channel 5: note On D#6 velocity: 100
timestamp 133584000 us: [96 35 00] channel 7: note On F3 velocity: 0
timestamp 133593000 us: [96 35 54] channel 7: note On F3 velocity: 84
timestamp 133595000 us: [99 23 73] channel 10: note On B1 velocity: 115
timestamp 133599000 us: [99 23 00] channel 10: note On B1 velocity: 0
timestamp 133604000 us: [96 39 4C] channel 7: note On A3 velocity: 76
timestamp 133623000 us: [96 3C 53] channel 7: note On C4 velocity: 83
timestamp 133667000 us: [94 57 00] channel 5: note On D#6 velocity: 0
timestamp 133667000 us: [94 4B 00] channel 5: note On D#5 velocity: 0
timestamp 133725000 us: [94 48 6B] channel 5: note On C5 velocity: 107
timestamp 133727000 us: [94 54 60] channel 5: note On C6 velocity: 96
timestamp 133763000 us: [92 35 00] channel 3: note On F3 velocity: 0
timestamp 133812000 us: [92 39 00] channel 3: note On A3 velocity: 0
timestamp 133827000 us: [94 54 00] channel 5: note On C6 velocity: 0
timestamp 133827000 us: [94 48 00] channel 5: note On C5 velocity: 0
timestamp 133841000 us: [92 3C 00] channel 3: note On C4 velocity: 0
timestamp 133882000 us: [94 45 6D] channel 5: note On A4 velocity: 109
timestamp 133884000 us: [94 51 62] channel 5: note On A5 velocity: 98
timestamp 133886000 us: [96 3C 00] channel 7: note On C4 velocity: 0
timestamp 133886000 us: [96 39 00] channel 7: note On A3 velocity: 0
timestamp 133890000 us: [96 35 00] channel 7: note On F3 velocity: 0
timestamp 133900000 us: [96 35 47] channel 7: note On F3 velocity: 71
timestamp 133919000 us: [92 35 4E] channel 3: note On F3 velocity: 78
timestamp 133967000 us: [94 51 00] channel 5: note On A5 velocity: 0
timestamp 133968000 us: [94 45 00] channel 5: note On A4 velocity: 0
timestamp 134020000 us: [92 35 00] channel 3: note On F3 velocity: 0
timestamp 134036000 us: [94 41 6B] channel 5: note On F4 velocity: 107
timestamp 134038000 us: [94 4D 60] channel 5: note On F5 velocity: 96
timestamp 134055000 us: [96 3A 64] channel 7: note On A#3 velocity: 100
timestamp 134056000 us: [99 23 73] channel 10: note On B1 velocity: 115
timestamp 134058000 us: [92 35 57] channel 3: note On F3 velocity: 87
timestamp 134060000 us: [92 3A 59] channel 3: note On A#3 velocity: 89
timestamp 134061000 us: [92 3E 5B] channel 3: note On D4 velocity: 91
timestamp 134064000 us: [99 23 00] channel 10: note On B1 velocity: 0
timestamp 134079000 us: [96 3E 61] channel 7: note On D4 velocity: 97
timestamp 134122000 us: [92 3E 00] channel 3: note On D4 velocity: 0
timestamp 134123000 us: [92 3A 00] channel 3: note On A#3 velocity: 0
timestamp 134123000 us: [92 35 00] channel 3: note On F3 velocity: 0
timestamp 134125000 us: [94 4D 00] channel 5: note On F5 velocity: 0
timestamp 134125000 us: [94 41 00] channel 5: note On F4 velocity: 0
timestamp 134191000 us: [94 3F 71] channel 5: note On D#4 velocity: 113
timestamp 134193000 us: [94 4B 66] channel 5: note On D#5 velocity: 102
timestamp 134229000 us: [96 35 00] channel 7: note On F3 velocity: 0
timestamp 134238000 us: [96 3A 00] channel 7: note On A#3 velocity: 0
timestamp 134248000 us: [96 3E 00] channel 7: note On D4 velocity: 0
timestamp 134282000 us: [94 4B 00] channel 5: note On D#5 velocity: 0
timestamp 134283000 us: [94 3F 00] channel 5: note On D#4 velocity: 0
timestamp 134346000 us: [94 3C 6C] channel 5: note On C4 velocity: 108
timestamp 134347000 us: [94 48 61] channel 5: note On C5 velocity: 97
timestamp 134365000 us: [96 35 47] channel 7: note On F3 velocity: 71
timestamp 134394000 us: [92 35 47] channel 3: note On F3 velocity: 71
timestamp 134395000 us: [92 39 48] channel 3: note On A3 velocity: 72
timestamp 134397000 us: [92 3C 4B] channel 3: note On C4 velocity: 75
timestamp 134437000 us: [94 48 00] channel 5: note On C5 velocity: 0
timestamp 134438000 us: [94 3C 00] channel 5: note On C4 velocity: 0
timestamp 134502000 us: [94 3F 71] channel 5: note On D#4 velocity: 113
timestamp 134504000 us: [94 4B 66] channel 5: note On D#5 velocity: 102
timestamp 134515000 us: [96 35 00] channel 7: note On F3 velocity: 0
timestamp 134521000 us: [96 35 54] channel 7: note On F3 velocity: 84
timestamp 134523000 us: [99 23 73] channel 10: note On B1 velocity: 115
timestamp 134530000 us: [99 23 00] channel 10: note On B1 velocity: 0
timestamp 134534000 us: [96 39 4C] channel 7: note On A3 velocity: 76
timestamp 134554000 us: [96 3C 53] channel 7: note On C4 velocity: 83
timestamp 134708000 us: [92 35 00] channel 3: note On F3 velocity: 0
timestamp 134747000 us: [94 4B 00] channel 5: note On D#5 velocity: 0
timestamp 134748000 us: [94 3F 00] channel 5: note On D#4 velocity: 0
timestamp 134771000 us: [92 39 00] channel 3: note On A3 velocity: 0
timestamp 134776000 us: [92 3C 00] channel 3: note On C4 velocity: 0
timestamp 134811000 us: [94 41 6B] channel 5: note On F4 velocity: 107
timestamp 134813000 us: [94 4D 60] channel 5: note On F5 velocity: 96
timestamp 134815000 us: [96 3C 00] channel 7: note On C4 velocity: 0
timestamp 134816000 us: [96 39 00] channel 7: note On A3 velocity: 0
timestamp 134820000 us: [96 35 00] channel 7: note On F3 velocity: 0
timestamp 134831000 us: [96 35 4A] channel 7: note On F3 velocity: 74
timestamp 134850000 us: [92 35 4C] channel 3: note On F3 velocity: 76
timestamp 134950000 us: [92 35 00] channel 3: note On F3 velocity: 0
timestamp 134985000 us: [92 3A 5B] channel 3: note On A#3 velocity: 91
timestamp 134986000 us: [92 3E 5B] channel 3: note On D4 velocity: 91
timestamp 134988000 us: [96 3A 64] channel 7: note On A#3 velocity: 100
timestamp 134989000 us: [99 23 73] channel 10: note On B1 velocity: 115
timestamp 134991000 us: [92 35 54] channel 3: note On F3 velocity: 84
timestamp 134996000 us: [99 23 00] channel 10: note On B1 velocity: 0
timestamp 135009000 us: [96 3E 61] channel 7: note On D4 velocity: 97
timestamp 135052000 us: [92 3E 00] channel 3: note On D4 velocity: 0
timestamp 135053000 us: [92 3A 00] channel 3: note On A#3 velocity: 0
timestamp 135054000 us: [92 35 00] channel 3: note On F3 velocity: 0
timestamp 135055000 us: [94 4D 00] channel 5: note On F5 velocity: 0
timestamp 135056000 us: [94 41 00] channel 5: note On F4 velocity: 0
timestamp 135159000 us: [96 35 00] channel 7: note On F3 velocity: 0
timestamp 135168000 us: [96 3A 00] channel 7: note On A#3 velocity: 0
timestamp 135178000 us: [96 3E 00] channel 7: note On D4 velocity: 0
timestamp 135276000 us: [94 3C 71] channel 5: note On C4 velocity: 113
timestamp 135278000 us: [94 48 66] channel 5: note On C5 velocity: 102
timestamp 135295000 us: [96 35 47] channel 7: note On F3 velocity: 71
timestamp 135324000 us: [92 35 48] channel 3: note On F3 velocity: 72
timestamp 135325000 us: [92 39 48] channel 3: note On A3 velocity: 72
timestamp 135327000 us: [92 3C 4B] channel 3: note On C4 velocity: 75
timestamp 135431000 us: [93 41 67] channel 4: note On F4 velocity: 103
timestamp 135445000 us: [96 35 00] channel 7: note On F3 velocity: 0
timestamp 135451000 us: [96 35 54] channel 7: note On F3 velocity: 84
timestamp 135452000 us: [99 23 73] channel 10: note On B1 velocity: 115
timestamp 135460000 us: [99 23 00] channel 10: note On B1 velocity: 0
timestamp 135465000 us: [96 39 4C] channel 7: note On A3 velocity: 76
timestamp 135484000 us: [96 3C 53] channel 7: note On C4 velocity: 83
timestamp 135638000 us: [93 41 00] channel 4: note On F4 velocity: 0
timestamp 135672000 us: [92 35 00] channel 3: note On F3 velocity: 0
timestamp 135696000 us: [92 39 00] channel 3: note On A3 velocity: 0
timestamp 135731000 us: [93 41 64] channel 4: note On F4 velocity: 100
timestamp 135736000 us: [92 3C 00] channel 3: note On C4 velocity: 0
timestamp 135745000 us: [96 3C 00] channel 7: note On C4 velocity: 0
timestamp 135746000 us: [96 39 00] channel 7: note On A3 velocity: 0
timestamp 135750000 us: [96 35 00] channel 7: note On F3 velocity: 0
timestamp 135763000 us: [96 35 47] channel 7: note On F3 velocity: 71
timestamp 135765000 us: [99 2E 37] channel 10: note On A#2 velocity: 55
timestamp 135766000 us: [99 28 61] channel 10: note On E2 velocity: 97
timestamp 135771000 us: [99 2E 00] channel 10: note On A#2 velocity: 0
timestamp 135771000 us: [99 28 00] channel 10: note On E2 velocity: 0
timestamp 135780000 us: [92 35 4B] channel 3: note On F3 velocity: 75
timestamp 135813000 us: [93 41 00] channel 4: note On F4 velocity: 0
timestamp 135861000 us: [92 35 00] channel 3: note On F3 velocity: 0
timestamp 135891000 us: [93 41 62] channel 4: note On F4 velocity: 98
timestamp 135915000 us: [96 3A 64] channel 7: note On A#3 velocity: 100
timestamp 135917000 us: [99 23 73] channel 10: note On B1 velocity: 115
timestamp 135919000 us: [92 3A 5C] channel 3: note On A#3 velocity: 92
timestamp 135920000 us: [92 3E 5C] channel 3: note On D4 velocity: 92
timestamp 135922000 us: [99 28 46] channel 10: note On E2 velocity: 70
timestamp 135925000 us: [92 35 54] channel 3: note On F3 velocity: 84
timestamp 135926000 us: [99 23 00] channel 10: note On B1 velocity: 0
timestamp 135927000 us: [99 28 00] channel 10: note On E2 velocity: 0
timestamp 135940000 us: [96 3E 61] channel 7: note On D4 velocity: 97
timestamp 135982000 us: [92 3E 00] channel 3: note On D4 velocity: 0
timestamp 135983000 us: [92 3A 00] channel 3: note On A#3 velocity: 0
timestamp 135987000 us: [92 35 00] channel 3: note On F3 velocity: 0
timestamp 136060000 us: [93 41 00] channel 4: note On F4 velocity: 0
timestamp 136089000 us: [96 35 00] channel 7: note On F3 velocity: 0
timestamp 136098000 us: [96 3A 00] channel 7: note On A#3 velocity: 0
timestamp 136108000 us: [96 3E 00] channel 7: note On D4 velocity: 0
timestamp 136142000 us: [94 48 00] channel 5: note On C5 velocity: 0
timestamp 136143000 us: [94 3C 00] channel 5: note On C4 velocity: 0
timestamp 136201000 us: [93 44 6E] channel 4: note On G#4 velocity: 110
timestamp 136225000 us: [96 35 47] channel 7: note On F3 velocity: 71
timestamp 136254000 us: [91 1F 68] channel 2: note On G1 velocity: 104
timestamp 136256000 us: [92 35 46] channel 3: note On F3 velocity: 70
timestamp 136257000 us: [92 39 4B] channel 3: note On A3 velocity: 75
timestamp 136259000 us: [92 3C 4D] channel 3: note On C4 velocity: 77
timestamp 136361000 us: [94 4A 7D] channel 5: note On D5 velocity: 125
timestamp 136375000 us: [91 1D 00] channel 2: note On F1 velocity: 0
timestamp 136376000 us: [96 35 00] channel 7: note On F3 velocity: 0
timestamp 136383000 us: [96 37 54] channel 7: note On G3 velocity: 84
timestamp 136384000 us: [98 3E 4F] channel 9: note On D4 velocity: 79
timestamp 136386000 us: [98 43 5A] channel 9: note On G4 velocity: 90
timestamp 136387000 us: [99 23 73] channel 10: note On B1 velocity: 115
timestamp 136389000 us: [99 31 47] channel 10: note On C#3 velocity: 71
timestamp 136395000 us: [92 37 46] channel 3: note On G3 velocity: 70
timestamp 136396000 us: [92 3B 52] channel 3: note On B3 velocity: 82
timestamp 136398000 us: [92 3E 55] channel 3: note On D4 velocity: 85
timestamp 136400000 us: [99 31 00] channel 10: note On C#3 velocity: 0
timestamp 136400000 us: [99 23 00] channel 10: note On B1 velocity: 0
timestamp 136401000 us: [93 44 00] channel 4: note On G#4 velocity: 0
timestamp 136403000 us: [93 43 60] channel 4: note On G4 velocity: 96
timestamp 136406000 us: [96 3B 4C] channel 7: note On B3 velocity: 76
timestamp 136414000 us: [96 3E 53] channel 7: note On D4 velocity: 83
timestamp 136593000 us: [92 3C 00] channel 3: note On C4 velocity: 0
timestamp 136594000 us: [92 35 00] channel 3: note On F3 velocity: 0
timestamp 136594000 us: [92 39 00] channel 3: note On A3 velocity: 0
timestamp 136607000 us: [92 37 00] channel 3: note On G3 velocity: 0
timestamp 136608000 us: [92 3B 00] channel 3: note On B3 velocity: 0
timestamp 136612000 us: [92 3E 00] channel 3: note On D4 velocity: 0
timestamp 136676000 us: [96 3E 00] channel 7: note On D4 velocity: 0
timestamp 136676000 us: [96 3B 00] channel 7: note On B3 velocity: 0
timestamp 136682000 us: [96 37 00] channel 7: note On G3 velocity: 0
timestamp 136691000 us: [96 37 4A] channel 7: note On G3 velocity: 74
timestamp 136693000 us: [99 2A 2B] channel 10: note On F#2 velocity: 43
timestamp 136700000 us: [99 2A 00] channel 10: note On F#2 velocity: 0
timestamp 136710000 us: [92 37 4B] channel 3: note On G3 velocity: 75
timestamp 136729000 us: [93 43 00] channel 4: note On G4 velocity: 0
timestamp 136816000 us: [92 37 00] channel 3: note On G3 velocity: 0
timestamp 136846000 us: [96 3C 64] channel 7: note On C4 velocity: 100
timestamp 136847000 us: [99 23 73] channel 10: note On B1 velocity: 115
timestamp 136848000 us: [99 2A 4F] channel 10: note On F#2 velocity: 79
timestamp 136850000 us: [92 37 4B] channel 3: note On G3 velocity: 75
timestamp 136851000 us: [92 3C 57] channel 3: note On C4 velocity: 87
timestamp 136853000 us: [92 40 5C] channel 3: note On E4 velocity: 92
timestamp 136855000 us: [99 28 62] channel 10: note On E2 velocity: 98
timestamp 136857000 us: [99 2A 00] channel 10: note On F#2 velocity: 0
timestamp 136858000 us: [99 23 00] channel 10: note On B1 velocity: 0
timestamp 136859000 us: [99 28 00] channel 10: note On E2 velocity: 0
timestamp 136870000 us: [96 40 61] channel 7: note On E4 velocity: 97
timestamp 136913000 us: [92 40 00] channel 3: note On E4 velocity: 0
timestamp 136913000 us: [92 3C 00] channel 3: note On C4 velocity: 0
timestamp 136914000 us: [92 37 00] channel 3: note On G3 velocity: 0
timestamp 137020000 us: [96 37 00] channel 7: note On G3 velocity: 0
timestamp 137029000 us: [96 3C 00] channel 7: note On C4 velocity: 0
timestamp 137038000 us: [96 40 00] channel 7: note On E4 velocity: 0
timestamp 137087000 us: [94 4A 00] channel 5: note On D5 velocity: 0
timestamp 137102000 us: [98 43 00] channel 9: note On G4 velocity: 0
timestamp 137102000 us: [98 3E 00] channel 9: note On D4 velocity: 0
timestamp 137137000 us: [94 4F 7C] channel 5: note On G5 velocity: 124
timestamp 137156000 us: [96 37 47] channel 7: note On G3 velocity: 71
timestamp 137157000 us: [98 3E 4E] channel 9: note On D4 velocity: 78
timestamp 137159000 us: [98 43 59] channel 9: note On G4 velocity: 89
timestamp 137160000 us: [99 2A 2B] channel 10: note On F#2 velocity: 43
timestamp 137164000 us: [99 2A 00] channel 10: note On F#2 velocity: 0
timestamp 137185000 us: [92 37 4E] channel 3: note On G3 velocity: 78
timestamp 137186000 us: [92 3B 4A] channel 3: note On B3 velocity: 74
timestamp 137187000 us: [92 3E 4B] channel 3: note On D4 velocity: 75
timestamp 137238000 us: [94 4F 00] channel 5: note On G5 velocity: 0
timestamp 137252000 us: [98 43 00] channel 9: note On G4 velocity: 0
timestamp 137253000 us: [98 3E 00] channel 9: note On D4 velocity: 0
timestamp 137305000 us: [96 37 00] channel 7: note On G3 velocity: 0
timestamp 137311000 us: [96 37 54] channel 7: note On G3 velocity: 84
timestamp 137313000 us: [99 23 73] channel 10: note On B1 velocity: 115
timestamp 137314000 us: [99 2A 3B] channel 10: note On F#2 velocity: 59
timestamp 137321000 us: [99 2A 00] channel 10: note On F#2 velocity: 0
timestamp 137321000 us: [99 23 00] channel 10: note On B1 velocity: 0
timestamp 137325000 us: [96 3B 4C] channel 7: note On B3 velocity: 76
timestamp 137344000 us: [96 3E 53] channel 7: note On D4 velocity: 83
timestamp 137484000 us: [92 37 00] channel 3: note On G3 velocity: 0
timestamp 137533000 us: [92 3B 00] channel 3: note On B3 velocity: 0
timestamp 137562000 us: [92 3E 00] channel 3: note On D4 velocity: 0
timestamp 137602000 us: [94 4A 7D] channel 5: note On D5 velocity: 125
timestamp 137606000 us: [96 3E 00] channel 7: note On D4 velocity: 0
timestamp 137606000 us: [96 3B 00] channel 7: note On B3 velocity: 0
timestamp 137610000 us: [96 37 00] channel 7: note On G3 velocity: 0
timestamp 137621000 us: [96 37 47] channel 7: note On G3 velocity: 71
timestamp 137623000 us: [98 3B 4F] channel 9: note On B3 velocity: 79
timestamp 137624000 us: [98 3E 5A] channel 9: note On D4 velocity: 90
timestamp 137626000 us: [99 2A 2B] channel 10: note On F#2 velocity: 43
timestamp 137630000 us: [99 2A 00] channel 10: note On F#2 velocity: 0
timestamp 137640000 us: [92 37 4E] channel 3: note On G3 velocity: 78
timestamp 137712000 us: [94 4A 00] channel 5: note On D5 velocity: 0
timestamp 137727000 us: [98 3E 00] channel 9: note On D4 velocity: 0
timestamp 137727000 us: [98 3B 00] channel 9: note On B3 velocity: 0
timestamp 137741000 us: [92 37 00] channel 3: note On G3 velocity: 0
timestamp 137776000 us: [96 3C 64] channel 7: note On C4 velocity: 100
timestamp 137777000 us: [99 23 73] channel 10: note On B1 velocity: 115
timestamp 137778000 us: [99 2A 4F] channel 10: note On F#2 velocity: 79
timestamp 137781000 us: [92 37 57] channel 3: note On G3 velocity: 87
timestamp 137782000 us: [92 3C 59] channel 3: note On C4 velocity: 89
timestamp 137783000 us: [92 40 5B] channel 3: note On E4 velocity: 91
timestamp 137785000 us: [99 28 62] channel 10: note On E2 velocity: 98
timestamp 137789000 us: [99 2A 00] channel 10: note On F#2 velocity: 0
timestamp 137790000 us: [99 23 00] channel 10: note On B1 velocity: 0
timestamp 137791000 us: [99 28 00] channel 10: note On E2 velocity: 0
timestamp 137800000 us: [96 40 61] channel 7: note On E4 velocity: 97
timestamp 137843000 us: [92 40 00] channel 3: note On E4 velocity: 0
timestamp 137844000 us: [92 3C 00] channel 3: note On C4 velocity: 0
timestamp 137844000 us: [92 37 00] channel 3: note On G3 velocity: 0
timestamp 137950000 us: [96 37 00] channel 7: note On G3 velocity: 0
timestamp 137959000 us: [96 3C 00] channel 7: note On C4 velocity: 0
timestamp 137969000 us: [96 40 00] channel 7: note On E4 velocity: 0
timestamp 138067000 us: [94 4F 7D] channel 5: note On G5 velocity: 125
timestamp 138086000 us: [96 37 47] channel 7: note On G3 velocity: 71
timestamp 138087000 us: [98 3E 4F] channel 9: note On D4 velocity: 79
timestamp 138088000 us: [98 43 5A] channel 9: note On G4 velocity: 90
timestamp 138090000 us: [99 2A 2B] channel 10: note On F#2 velocity: 43
timestamp 138094000 us: [99 2A 00] channel 10: note On F#2 velocity: 0
timestamp 138115000 us: [92 37 47] channel 3: note On G3 velocity: 71
timestamp 138116000 us: [92 3B 48] channel 3: note On B3 velocity: 72
timestamp 138118000 us: [92 3E 4B] channel 3: note On D4 velocity: 75
timestamp 138177000 us: [94 4F 00] channel 5: note On G5 velocity: 0
timestamp 138192000 us: [98 43 00] channel 9: note On G4 velocity: 0
timestamp 138193000 us: [98 3E 00] channel 9: note On D4 velocity: 0
timestamp 138235000 us: [96 37 00] channel 7: note On G3 velocity: 0
timestamp 138242000 us: [96 37 54] channel 7: note On G3 velocity: 84
timestamp 138243000 us: [99 23 73] channel 10: note On B1 velocity: 115
timestamp 138245000 us: [99 2A 3B] channel 10: note On F#2 velocity: 59
timestamp 138251000 us: [99 2A 00] channel 10: note On F#2 velocity: 0
timestamp 138252000 us: [99 23 00] channel 10: note On B1 velocity: 0
timestamp 138255000 us: [96 3B 4C] channel 7: note On B3 velocity: 76
timestamp 138274000 us: [96 3E 53] channel 7: note On D4 velocity: 83
timestamp 138429000 us: [92 37 00] channel 3: note On G3 velocity: 0
timestamp 138493000 us: [92 3B 00] channel 3: note On B3 velocity: 0
timestamp 138497000 us: [92 3E 00] channel 3: note On D4 velocity: 0
timestamp 138532000 us: [94 51 7D] channel 5: note On A5 velocity: 125
timestamp 138536000 us: [96 3E 00] channel 7: note On D4 velocity: 0
timestamp 138537000 us: [96 3B 00] channel 7: note On B3 velocity: 0
timestamp 138541000 us: [96 37 00] channel 7: note On G3 velocity: 0
timestamp 138551000 us: [96 37 4A] channel 7: note On G3 velocity: 74
timestamp 138553000 us: [98 41 4F] channel 9: note On F4 velocity: 79
timestamp 138554000 us: [98 45 5A] channel 9: note On A4 velocity: 90
timestamp 138556000 us: [99 2A 2B] channel 10: note On F#2 velocity: 43
timestamp 138563000 us: [99 2A 00] channel 10: note On F#2 velocity: 0
timestamp 138571000 us: [92 37 4C] channel 3: note On G3 velocity: 76
timestamp 138671000 us: [92 37 00] channel 3: note On G3 velocity: 0
timestamp 138686000 us: [94 51 00] channel 5: note On A5 velocity: 0
timestamp 138688000 us: [94 4F 78] channel 5: note On G5 velocity: 120
timestamp 138703000 us: [98 45 00] channel 9: note On A4 velocity: 0
timestamp 138703000 us: [98 41 00] channel 9: note On F4 velocity: 0
timestamp 138706000 us: [92 3C 5B] channel 3: note On C4 velocity: 91
timestamp 138707000 us: [92 40 5B] channel 3: note On E4 velocity: 91
timestamp 138709000 us: [96 3C 64] channel 7: note On C4 velocity: 100
timestamp 138711000 us: [98 40 4A] channel 9: note On E4 velocity: 74
timestamp 138712000 us: [98 43 55] channel 9: note On G4 velocity: 85
timestamp 138714000 us: [99 23 73] channel 10: note On B1 velocity: 115
timestamp 138715000 us: [99 2A 4F] channel 10: note On F#2 velocity: 79
timestamp 138717000 us: [92 37 54] channel 3: note On G3 velocity: 84
timestamp 138719000 us: [99 28 62] channel 10: note On E2 velocity: 98
timestamp 138721000 us: [99 2A 00] channel 10: note On F#2 velocity: 0
timestamp 138722000 us: [99 23 00] channel 10: note On B1 velocity: 0
timestamp 138723000 us: [99 28 00] channel 10: note On E2 velocity: 0
timestamp 138731000 us: [96 40 61] channel 7: note On E4 velocity: 97
timestamp 138773000 us: [92 40 00] channel 3: note On E4 velocity: 0
timestamp 138774000 us: [92 3C 00] channel 3: note On C4 velocity: 0
timestamp 138775000 us: [92 37 00] channel 3: note On G3 velocity: 0
timestamp 138880000 us: [96 37 00] channel 7: note On G3 velocity: 0
timestamp 138889000 us: [96 3C 00] channel 7: note On C4 velocity: 0
timestamp 138899000 us: [96 40 00] channel 7: note On E4 velocity: 0
timestamp 138967000 us: [94 4F 00] channel 5: note On G5 velocity: 0
timestamp 138982000 us: [98 43 00] channel 9: note On G4 velocity: 0
timestamp 138982000 us: [98 40 00] channel 9: note On E4 velocity: 0
timestamp 138997000 us: [94 53 7D] channel 5: note On B5 velocity: 125
timestamp 139016000 us: [96 37 47] channel 7: note On G3 velocity: 71
timestamp 139018000 us: [98 43 4F] channel 9: note On G4 velocity: 79
timestamp 139019000 us: [98 47 5A] channel 9: note On B4 velocity: 90
timestamp 139021000 us: [99 2A 2B] channel 10: note On F#2 velocity: 43
timestamp 139025000 us: [99 2A 00] channel 10: note On F#2 velocity: 0
timestamp 139045000 us: [92 37 48] channel 3: note On G3 velocity: 72
timestamp 139046000 us: [92 3B 48] channel 3: note On B3 velocity: 72
timestamp 139048000 us: [92 3E 4B] channel 3: note On D4 velocity: 75
timestamp 139146000 us: [94 53 00] channel 5: note On B5 velocity: 0
timestamp 139166000 us: [98 47 00] channel 9: note On B4 velocity: 0
timestamp 139166000 us: [98 43 00] channel 9: note On G4 velocity: 0
timestamp 139167000 us: [96 37 00] channel 7: note On G3 velocity: 0
timestamp 139172000 us: [96 37 54] channel 7: note On G3 velocity: 84
timestamp 139173000 us: [99 23 73] channel 10: note On B1 velocity: 115
timestamp 139175000 us: [99 2E 43] channel 10: note On A#2 velocity: 67
timestamp 139182000 us: [99 2E 00] channel 10: note On A#2 velocity: 0
timestamp 139182000 us: [99 23 00] channel 10: note On B1 velocity: 0
timestamp 139186000 us: [96 3B 4C] channel 7: note On B3 velocity: 76
timestamp 139205000 us: [96 3E 53] channel 7: note On D4 velocity: 83
timestamp 139393000 us: [92 37 00] channel 3: note On G3 velocity: 0
timestamp 139417000 us: [92 3B 00] channel 3: note On B3 velocity: 0
timestamp 139456000 us: [92 3E 00] channel 3: note On D4 velocity: 0
timestamp 139462000 us: [94 56 7D] channel 5: note On D6 velocity: 125
timestamp 139463000 us: [99 28 36] channel 10: note On E2 velocity: 54
timestamp 139466000 us: [96 3E 00] channel 7: note On D4 velocity: 0
timestamp 139467000 us: [96 3B 00] channel 7: note On B3 velocity: 0
timestamp 139471000 us: [96 37 00] channel 7: note On G3 velocity: 0
timestamp 139472000 us: [99 28 00] channel 10: note On E2 velocity: 0
timestamp 139484000 us: [96 37 47] channel 7: note On G3 velocity: 71
timestamp 139486000 us: [98 47 4F] channel 9: note On B4 velocity: 79
timestamp 139487000 us: [98 4A 5A] channel 9: note On D5 velocity: 90
timestamp 139501000 us: [92 37 4B] channel 3: note On G3 velocity: 75
timestamp 139520000 us: [99 28 2A] channel 10: note On E2 velocity: 42
timestamp 139529000 us: [99 28 00] channel 10: note On E2 velocity: 0
timestamp 139549000 us: [94 56 00] channel 5: note On D6 velocity: 0
timestamp 139568000 us: [98 4A 00] channel 9: note On D5 velocity: 0
timestamp 139568000 us: [98 47 00] channel 9: note On B4 velocity: 0
timestamp 139578000 us: [99 28 3A] channel 10: note On E2 velocity: 58
timestamp 139582000 us: [92 37 00] channel 3: note On G3 velocity: 0
timestamp 139587000 us: [99 28 00] channel 10: note On E2 velocity: 0
timestamp 139617000 us: [94 59 7D] channel 5: note On F6 velocity: 125
timestamp 139636000 us: [96 3C 64] channel 7: note On C4 velocity: 100
timestamp 139638000 us: [98 4A 4F] channel 9: note On D5 velocity: 79
timestamp 139639000 us: [98 4D 5A] channel 9: note On F5 velocity: 90
timestamp 139641000 us: [99 23 73] channel 10: note On B1 velocity: 115
timestamp 139643000 us: [92 3C 5C] channel 3: note On C4 velocity: 92
timestamp 139644000 us: [92 40 5C] channel 3: note On E4 velocity: 92
timestamp 139646000 us: [99 28 5D] channel 10: note On E2 velocity: 93
timestamp 139649000 us: [92 37 54] channel 3: note On G3 velocity: 84
timestamp 139651000 us: [99 23 00] channel 10: note On B1 velocity: 0
timestamp 139651000 us: [99 28 00] channel 10: note On E2 velocity: 0
timestamp 139661000 us: [96 40 61] channel 7: note On E4 velocity: 97
timestamp 139703000 us: [92 40 00] channel 3: note On E4 velocity: 0
timestamp 139704000 us: [92 3C 00] channel 3: note On C4 velocity: 0
timestamp 139708000 us: [92 37 00] channel 3: note On G3 velocity: 0
timestamp 139757000 us: [94 59 00] channel 5: note On F6 velocity: 0
timestamp 139772000 us: [94 56 7C] channel 5: note On D6 velocity: 124
timestamp 139776000 us: [98 4D 00] channel 9: note On F5 velocity: 0
timestamp 139777000 us: [98 4A 00] channel 9: note On D5 velocity: 0
timestamp 139793000 us: [98 47 4E] channel 9: note On B4 velocity: 78
timestamp 139796000 us: [98 4A 59] channel 9: note On D5 velocity: 89
timestamp 139810000 us: [96 37 00] channel 7: note On G3 velocity: 0
timestamp 139820000 us: [96 3C 00] channel 7: note On C4 velocity: 0
timestamp 139829000 us: [96 40 00] channel 7: note On E4 velocity: 0
timestamp 139897000 us: [94 56 00] channel 5: note On D6 velocity: 0
timestamp 139917000 us: [98 4A 00] channel 9: note On D5 velocity: 0
timestamp 139917000 us: [98 47 00] channel 9: note On B4 velocity: 0
timestamp 139927000 us: [94 5B 7C] channel 5: note On G6 velocity: 124
timestamp 139946000 us: [93 43 51] channel 4: note On G4 velocity: 81
timestamp 139948000 us: [96 37 47] channel 7: note On G3 velocity: 71
timestamp 139949000 us: [98 4A 4E] channel 9: note On D5 velocity: 78
timestamp 139951000 us: [98 4F 59] channel 9: note On G5 velocity: 89
timestamp 139953000 us: [99 28 58] channel 10: note On E2 velocity: 88
timestamp 139955000 us: [99 28 00] channel 10: note On E2 velocity: 0
timestamp 139975000 us: [92 37 46] channel 3: note On G3 velocity: 70
timestamp 139977000 us: [92 3B 4B] channel 3: note On B3 velocity: 75
timestamp 139978000 us: [92 3E 4D] channel 3: note On D4 velocity: 77
timestamp 140082000 us: [94 5B 00] channel 5: note On G6 velocity: 0
timestamp 140086000 us: [93 43 00] channel 4: note On G4 velocity: 0
timestamp 140096000 us: [91 1F 00] channel 2: note On G1 velocity: 0
timestamp 140097000 us: [96 37 00] channel 7: note On G3 velocity: 0
timestamp 140102000 us: [91 1F 66] channel 2: note On G1 velocity: 102
timestamp 140104000 us: [93 47 68] channel 4: note On B4 velocity: 104
timestamp 140106000 us: [95 32 4E] channel 6: note On D3 velocity: 78
timestamp 140107000 us: [96 37 52] channel 7: note On G3 velocity: 82
timestamp 140108000 us: [98 4F 00] channel 9: note On G5 velocity: 0
timestamp 140109000 us: [98 4A 00] channel 9: note On D5 velocity: 0
timestamp 140110000 us: [99 23 71] channel 10: note On B1 velocity: 113
timestamp 140112000 us: [99 31 45] channel 10: note On C#3 velocity: 69
timestamp 140116000 us: [99 31 00] channel 10: note On C#3 velocity: 0
timestamp 140117000 us: [99 23 00] channel 10: note On B1 velocity: 0
timestamp 140119000 us: [96 3B 4A] channel 7: note On B3 velocity: 74
timestamp 140135000 us: [96 3E 51] channel 7: note On D4 velocity: 81
timestamp 140314000 us: [92 3E 00] channel 3: note On D4 velocity: 0
timestamp 140315000 us: [92 3B 00] channel 3: note On B3 velocity: 0
timestamp 140316000 us: [92 37 00] channel 3: note On G3 velocity: 0
timestamp 140353000 us: [93 47 00] channel 4: note On B4 velocity: 0
timestamp 140372000 us: [95 32 00] channel 6: note On D3 velocity: 0
timestamp 140397000 us: [96 3E 00] channel 7: note On D4 velocity: 0
timestamp 140397000 us: [96 3B 00] channel 7: note On B3 velocity: 0
timestamp 140401000 us: [96 37 00] channel 7: note On G3 velocity: 0
timestamp 140412000 us: [93 47 5D] channel 4: note On B4 velocity: 93
timestamp 140414000 us: [95 32 31] channel 6: note On D3 velocity: 49
timestamp 140415000 us: [96 37 48] channel 7: note On G3 velocity: 72
timestamp 140416000 us: [99 2A 29] channel 10: note On F#2 velocity: 41
timestamp 140421000 us: [99 2A 00] channel 10: note On F#2 velocity: 0
timestamp 140431000 us: [92 37 49] channel 3: note On G3 velocity: 73
timestamp 140489000 us: [95 32 00] channel 6: note On D3 velocity: 0
timestamp 140533000 us: [93 47 00] channel 4: note On B4 velocity: 0
timestamp 140537000 us: [92 37 00] channel 3: note On G3 velocity: 0
timestamp 140566000 us: [92 37 49] channel 3: note On G3 velocity: 73
timestamp 140568000 us: [92 3C 55] channel 3: note On C4 velocity: 85
timestamp 140569000 us: [92 40 5A] channel 3: note On E4 velocity: 90
timestamp 140571000 us: [93 47 64] channel 4: note On B4 velocity: 100
timestamp 140572000 us: [95 30 3B] channel 6: note On C3 velocity: 59
timestamp 140574000 us: [95 34 50] channel 6: note On E3 velocity: 80
timestamp 140576000 us: [96 3C 62] channel 7: note On C4 velocity: 98
timestamp 140577000 us: [99 23 71] channel 10: note On B1 velocity: 113
timestamp 140578000 us: [99 2A 4D] channel 10: note On F#2 velocity: 77
timestamp 140581000 us: [99 28 60] channel 10: note On E2 velocity: 96
timestamp 140583000 us: [99 2A 00] channel 10: note On F#2 velocity: 0
timestamp 140583000 us: [99 23 00] channel 10: note On B1 velocity: 0
timestamp 140585000 us: [99 28 00] channel 10: note On E2 velocity: 0
timestamp 140591000 us: [96 40 5F] channel 7: note On E4 velocity: 95
timestamp 140634000 us: [92 40 00] channel 3: note On E4 velocity: 0
timestamp 140634000 us: [92 3C 00] channel 3: note On C4 velocity: 0
timestamp 140635000 us: [92 37 00] channel 3: note On G3 velocity: 0
timestamp 140687000 us: [95 34 00] channel 6: note On E3 velocity: 0
timestamp 140688000 us: [95 30 00] channel 6: note On C3 velocity: 0
timestamp 140697000 us: [93 47 00] channel 4: note On B4 velocity: 0
timestamp 140722000 us: [93 47 55] channel 4: note On B4 velocity: 85
timestamp 140741000 us: [96 37 00] channel 7: note On G3 velocity: 0
timestamp 140750000 us: [96 3C 00] channel 7: note On C4 velocity: 0
timestamp 140760000 us: [96 40 00] channel 7: note On E4 velocity: 0
timestamp 140872000 us: [93 47 00] channel 4: note On B4 velocity: 0
timestamp 140876000 us: [93 43 66] channel 4: note On G4 velocity: 102
timestamp 140878000 us: [95 32 32] channel 6: note On D3 velocity: 50
timestamp 140880000 us: [96 37 45] channel 7: note On G3 velocity: 69
timestamp 140881000 us: [99 2A 29] channel 10: note On F#2 velocity: 41
timestamp 140885000 us: [99 2A 00] channel 10: note On F#2 velocity: 0
timestamp 140906000 us: [92 37 4C] channel 3: note On G3 velocity: 76
timestamp 140907000 us: [92 3B 48] channel 3: note On B3 velocity: 72
timestamp 140908000 us: [92 3E 49] channel 3: note On D4 velocity: 73
timestamp 140944000 us: [95 32 00] channel 6: note On D3 velocity: 0
timestamp 141026000 us: [96 37 00] channel 7: note On G3 velocity: 0
timestamp 141034000 us: [95 32 49] channel 6: note On D3 velocity: 73
timestamp 141036000 us: [96 37 52] channel 7: note On G3 velocity: 82
timestamp 141037000 us: [99 23 71] channel 10: note On B1 velocity: 113
timestamp 141038000 us: [99 2A 39] channel 10: note On F#2 velocity: 57
timestamp 141042000 us: [99 2A 00] channel 10: note On F#2 velocity: 0
timestamp 141042000 us: [99 23 00] channel 10: note On B1 velocity: 0
timestamp 141046000 us: [96 3B 4A] channel 7: note On B3 velocity: 74
timestamp 141065000 us: [96 3E 51] channel 7: note On D4 velocity: 81
timestamp 141118000 us: [93 43 00] channel 4: note On G4 velocity: 0
timestamp 141186000 us: [93 43 63] channel 4: note On G4 velocity: 99
timestamp 141205000 us: [92 37 00] channel 3: note On G3 velocity: 0
timestamp 141254000 us: [92 3B 00] channel 3: note On B3 velocity: 0
timestamp 141283000 us: [92 3E 00] channel 3: note On D4 velocity: 0
timestamp 141293000 us: [95 32 00] channel 6: note On D3 velocity: 0
timestamp 141327000 us: [96 3E 00] channel 7: note On D4 velocity: 0
timestamp 141327000 us: [96 3B 00] channel 7: note On B3 velocity: 0
timestamp 141331000 us: [96 37 00] channel 7: note On G3 velocity: 0
timestamp 141342000 us: [95 32 35] channel 6: note On D3 velocity: 53
timestamp 141344000 us: [96 37 45] channel 7: note On G3 velocity: 69
timestamp 141345000 us: [99 2A 29] channel 10: note On F#2 velocity: 41
timestamp 141352000 us: [99 2A 00] channel 10: note On F#2 velocity: 0
timestamp 141361000 us: [92 37 4C] channel 3: note On G3 velocity: 76
timestamp 141404000 us: [93 43 00] channel 4: note On G4 velocity: 0
timestamp 141462000 us: [92 37 00] channel 3: note On G3 velocity: 0
timestamp 141497000 us: [95 30 3C] channel 6: note On C3 velocity: 60
timestamp 141498000 us: [95 34 50] channel 6: note On E3 velocity: 80
timestamp 141500000 us: [96 3C 62] channel 7: note On C4 velocity: 98
timestamp 141502000 us: [99 23 71] channel 10: note On B1 velocity: 113
timestamp 141503000 us: [99 2A 4D] channel 10: note On F#2 velocity: 77
timestamp 141504000 us: [92 37 55] channel 3: note On G3 velocity: 85
timestamp 141506000 us: [92 3C 57] channel 3: note On C4 velocity: 87
timestamp 141507000 us: [92 40 59] channel 3: note On E4 velocity: 89
timestamp 141508000 us: [95 34 00] channel 6: note On E3 velocity: 0
timestamp 141510000 us: [99 28 60] channel 10: note On E2 velocity: 96
timestamp 141513000 us: [99 2A 00] channel 10: note On F#2 velocity: 0
timestamp 141514000 us: [99 23 00] channel 10: note On B1 velocity: 0
timestamp 141515000 us: [99 28 00] channel 10: note On E2 velocity: 0
timestamp 141521000 us: [96 40 5F] channel 7: note On E4 velocity: 95
timestamp 141564000 us: [92 40 00] channel 3: note On E4 velocity: 0
timestamp 141564000 us: [92 3C 00] channel 3: note On C4 velocity: 0
timestamp 141565000 us: [92 37 00] channel 3: note On G3 velocity: 0
timestamp 141613000 us: [95 30 00] channel 6: note On C3 velocity: 0
timestamp 141614000 us: [95 32 00] channel 6: note On D3 velocity: 0
timestamp 141671000 us: [96 37 00] channel 7: note On G3 velocity: 0
timestamp 141680000 us: [96 3C 00] channel 7: note On C4 velocity: 0
timestamp 141690000 us: [96 40 00] channel 7: note On E4 velocity: 0
timestamp 141807000 us: [93 43 43] channel 4: note On G4 velocity: 67
timestamp 141808000 us: [95 32 33] channel 6: note On D3 velocity: 51
timestamp 141810000 us: [96 37 45] channel 7: note On G3 velocity: 69
timestamp 141811000 us: [99 2A 29] channel 10: note On F#2 velocity: 41
timestamp 141817000 us: [99 2A 00] channel 10: note On F#2 velocity: 0
timestamp 141836000 us: [92 37 45] channel 3: note On G3 velocity: 69
timestamp 141837000 us: [92 3B 46] channel 3: note On B3 velocity: 70
timestamp 141838000 us: [92 3E 49] channel 3: note On D4 velocity: 73
timestamp 141889000 us: [93 43 00] channel 4: note On G4 velocity: 0
timestamp 141903000 us: [95 32 00] channel 6: note On D3 velocity: 0
timestamp 141957000 us: [96 37 00] channel 7: note On G3 velocity: 0
timestamp 141963000 us: [93 47 64] channel 4: note On B4 velocity: 100
timestamp 141964000 us: [95 32 46] channel 6: note On D3 velocity: 70
timestamp 141966000 us: [96 37 52] channel 7: note On G3 velocity: 82
timestamp 141967000 us: [99 23 71] channel 10: note On B1 velocity: 113
timestamp 141968000 us: [99 2A 39] channel 10: note On F#2 velocity: 57
timestamp 141972000 us: [99 2A 00] channel 10: note On F#2 velocity: 0
timestamp 141972000 us: [99 23 00] channel 10: note On B1 velocity: 0
timestamp 141976000 us: [96 3B 4A] channel 7: note On B3 velocity: 74
timestamp 141995000 us: [96 3E 51] channel 7: note On D4 velocity: 81
timestamp 142150000 us: [92 37 00] channel 3: note On G3 velocity: 0
timestamp 142199000 us: [93 47 00] channel 4: note On B4 velocity: 0
timestamp 142213000 us: [92 3B 00] channel 3: note On B3 velocity: 0
timestamp 142218000 us: [92 3E 00] channel 3: note On D4 velocity: 0
timestamp 142237000 us: [95 32 00] channel 6: note On D3 velocity: 0
timestamp 142257000 us: [96 3E 00] channel 7: note On D4 velocity: 0
timestamp 142258000 us: [96 3B 00] channel 7: note On B3 velocity: 0
timestamp 142261000 us: [96 37 00] channel 7: note On G3 velocity: 0
timestamp 142273000 us: [93 47 58] channel 4: note On B4 velocity: 88
timestamp 142274000 us: [95 32 36] channel 6: note On D3 velocity: 54
timestamp 142275000 us: [96 37 48] channel 7: note On G3 velocity: 72
timestamp 142277000 us: [99 2A 29] channel 10: note On F#2 velocity: 41
timestamp 142282000 us: [99 2A 00] channel 10: note On F#2 velocity: 0
timestamp 142292000 us: [92 37 4A] channel 3: note On G3 velocity: 74
timestamp 142388000 us: [93 47 00] channel 4: note On B4 velocity: 0
timestamp 142392000 us: [92 37 00] channel 3: note On G3 velocity: 0
timestamp 142422000 us: [95 32 00] channel 6: note On D3 velocity: 0
timestamp 142427000 us: [92 37 52] channel 3: note On G3 velocity: 82
timestamp 142428000 us: [92 3C 59] channel 3: note On C4 velocity: 89
timestamp 142430000 us: [92 40 59] channel 3: note On E4 velocity: 89
timestamp 142432000 us: [93 47 5F] channel 4: note On B4 velocity: 95
timestamp 142433000 us: [95 30 3B] channel 6: note On C3 velocity: 59
timestamp 142434000 us: [95 34 4F] channel 6: note On E3 velocity: 79
timestamp 142436000 us: [96 3C 62] channel 7: note On C4 velocity: 98
timestamp 142438000 us: [99 23 71] channel 10: note On B1 velocity: 113
timestamp 142439000 us: [99 2A 4D] channel 10: note On F#2 velocity: 77
timestamp 142440000 us: [99 28 60] channel 10: note On E2 velocity: 96
timestamp 142443000 us: [99 2A 00] channel 10: note On F#2 velocity: 0
timestamp 142444000 us: [99 23 00] channel 10: note On B1 velocity: 0
timestamp 142445000 us: [99 28 00] channel 10: note On E2 velocity: 0
timestamp 142452000 us: [96 40 5F] channel 7: note On E4 velocity: 95
timestamp 142494000 us: [92 40 00] channel 3: note On E4 velocity: 0
timestamp 142495000 us: [92 3C 00] channel 3: note On C4 velocity: 0
timestamp 142495000 us: [92 37 00] channel 3: note On G3 velocity: 0
timestamp 142572000 us: [95 34 00] channel 6: note On E3 velocity: 0
timestamp 142573000 us: [95 30 00] channel 6: note On C3 velocity: 0
timestamp 142601000 us: [96 37 00] channel 7: note On G3 velocity: 0
timestamp 142610000 us: [96 3C 00] channel 7: note On C4 velocity: 0
timestamp 142620000 us: [96 40 00] channel 7: note On E4 velocity: 0
timestamp 142673000 us: [93 47 00] channel 4: note On B4 velocity: 0
timestamp 142737000 us: [93 47 58] channel 4: note On B4 velocity: 88
timestamp 142739000 us: [95 32 32] channel 6: note On D3 velocity: 50
timestamp 142740000 us: [96 37 45] channel 7: note On G3 velocity: 69
timestamp 142742000 us: [99 2A 29] channel 10: note On F#2 velocity: 41
timestamp 142746000 us: [99 2A 00] channel 10: note On F#2 velocity: 0
timestamp 142766000 us: [92 37 46] channel 3: note On G3 velocity: 70
timestamp 142767000 us: [92 3B 46] channel 3: note On B3 velocity: 70
timestamp 142769000 us: [92 3E 49] channel 3: note On D4 velocity: 73
timestamp 142838000 us: [95 32 00] channel 6: note On D3 velocity: 0
timestamp 142853000 us: [93 47 00] channel 4: note On B4 velocity: 0
timestamp 142887000 us: [96 37 00] channel 7: note On G3 velocity: 0
timestamp 142893000 us: [93 43 58] channel 4: note On G4 velocity: 88
timestamp 142894000 us: [95 32 49] channel 6: note On D3 velocity: 73
timestamp 142896000 us: [96 37 52] channel 7: note On G3 velocity: 82
timestamp 142898000 us: [99 23 71] channel 10: note On B1 velocity: 113
timestamp 142899000 us: [99 2A 39] channel 10: note On F#2 velocity: 57
timestamp 142902000 us: [99 2A 00] channel 10: note On F#2 velocity: 0
timestamp 142903000 us: [99 23 00] channel 10: note On B1 velocity: 0
timestamp 142907000 us: [96 3B 4A] channel 7: note On B3 velocity: 74
timestamp 142926000 us: [96 3E 51] channel 7: note On D4 velocity: 81
timestamp 143109000 us: [92 37 00] channel 3: note On G3 velocity: 0
timestamp 143138000 us: [92 3B 00] channel 3: note On B3 velocity: 0
timestamp 143154000 us: [95 32 00] channel 6: note On D3 velocity: 0
timestamp 143168000 us: [93 43 00] channel 4: note On G4 velocity: 0
timestamp 143177000 us: [92 3E 00] channel 3: note On D4 velocity: 0
timestamp 143187000 us: [96 3E 00] channel 7: note On D4 velocity: 0
timestamp 143188000 us: [96 3B 00] channel 7: note On B3 velocity: 0
timestamp 143192000 us: [96 37 00] channel 7: note On G3 velocity: 0
timestamp 143203000 us: [95 32 34] channel 6: note On D3 velocity: 52
timestamp 143204000 us: [96 37 45] channel 7: note On G3 velocity: 69
timestamp 143206000 us: [99 2A 29] channel 10: note On F#2 velocity: 41
timestamp 143212000 us: [99 2A 00] channel 10: note On F#2 velocity: 0
timestamp 143222000 us: [92 37 49] channel 3: note On G3 velocity: 73
timestamp 143303000 us: [92 37 00] channel 3: note On G3 velocity: 0
timestamp 143337000 us: [95 32 00] channel 6: note On D3 velocity: 0
timestamp 143357000 us: [92 3C 5A] channel 3: note On C4 velocity: 90
timestamp 143359000 us: [95 30 3B] channel 6: note On C3 velocity: 59
timestamp 143360000 us: [95 34 4F] channel 6: note On E3 velocity: 79
timestamp 143362000 us: [96 3C 62] channel 7: note On C4 velocity: 98
timestamp 143363000 us: [99 23 71] channel 10: note On B1 velocity: 113
timestamp 143364000 us: [99 2A 4D] channel 10: note On F#2 velocity: 77
timestamp 143367000 us: [92 37 52] channel 3: note On G3 velocity: 82
timestamp 143368000 us: [92 40 5A] channel 3: note On E4 velocity: 90
timestamp 143370000 us: [99 28 60] channel 10: note On E2 velocity: 96
timestamp 143375000 us: [99 2A 00] channel 10: note On F#2 velocity: 0
timestamp 143376000 us: [99 23 00] channel 10: note On B1 velocity: 0
timestamp 143377000 us: [99 28 00] channel 10: note On E2 velocity: 0
timestamp 143382000 us: [96 40 5F] channel 7: note On E4 velocity: 95
timestamp 143424000 us: [92 3C 00] channel 3: note On C4 velocity: 0
timestamp 143425000 us: [92 40 00] channel 3: note On E4 velocity: 0
timestamp 143426000 us: [92 37 00] channel 3: note On G3 velocity: 0
timestamp 143468000 us: [95 34 00] channel 6: note On E3 velocity: 0
timestamp 143469000 us: [95 30 00] channel 6: note On C3 velocity: 0
timestamp 143531000 us: [96 37 00] channel 7: note On G3 velocity: 0
timestamp 143540000 us: [96 3C 00] channel 7: note On C4 velocity: 0
timestamp 143550000 us: [96 40 00] channel 7: note On E4 velocity: 0
timestamp 143662000 us: [91 1F 00] channel 2: note On G1 velocity: 0
timestamp 143667000 us: [93 43 56] channel 4: note On G4 velocity: 86
timestamp 143669000 us: [95 32 31] channel 6: note On D3 velocity: 49
timestamp 143670000 us: [96 37 45] channel 7: note On G3 velocity: 69
timestamp 143672000 us: [99 2A 29] channel 10: note On F#2 velocity: 41
timestamp 143677000 us: [99 2A 00] channel 10: note On F#2 velocity: 0
timestamp 143696000 us: [91 1F 66] channel 2: note On G1 velocity: 102
timestamp 143698000 us: [92 37 44] channel 3: note On G3 velocity: 68
timestamp 143699000 us: [92 3B 49] channel 3: note On B3 velocity: 73
timestamp 143701000 us: [92 3E 4B] channel 3: note On D4 velocity: 75
timestamp 143797000 us: [93 43 00] channel 4: note On G4 velocity: 0
timestamp 143813000 us: [95 32 00] channel 6: note On D3 velocity: 0
timestamp 143817000 us: [96 37 00] channel 7: note On G3 velocity: 0
timestamp 143825000 us: [93 47 68] channel 4: note On B4 velocity: 104
timestamp 143826000 us: [95 32 4E] channel 6: note On D3 velocity: 78
timestamp 143828000 us: [96 37 52] channel 7: note On G3 velocity: 82
timestamp 143829000 us: [99 23 71] channel 10: note On B1 velocity: 113
timestamp 143830000 us: [99 2A 39] channel 10: note On F#2 velocity: 57
timestamp 143833000 us: [99 2A 00] channel 10: note On F#2 velocity: 0
timestamp 143834000 us: [99 23 00] channel 10: note On B1 velocity: 0
timestamp 143837000 us: [96 3B 4A] channel 7: note On B3 velocity: 74
timestamp 143856000 us: [96 3E 51] channel 7: note On D4 velocity: 81
timestamp 144030000 us: [92 37 00] channel 3: note On G3 velocity: 0
timestamp 144035000 us: [92 3E 00] channel 3: note On D4 velocity: 0
timestamp 144035000 us: [92 3B 00] channel 3: note On B3 velocity: 0
timestamp 144054000 us: [93 47 00] channel 4: note On B4 velocity: 0
timestamp 144093000 us: [95 32 00] channel 6: note On D3 velocity: 0
timestamp 144118000 us: [96 3E 00] channel 7: note On D4 velocity: 0
timestamp 144118000 us: [96 3B 00] channel 7: note On B3 velocity: 0
timestamp 144124000 us: [96 37 00] channel 7: note On G3 velocity: 0
timestamp 144135000 us: [93 47 58] channel 4: note On B4 velocity: 88
timestamp 144137000 us: [95 32 31] channel 6: note On D3 velocity: 49
timestamp 144138000 us: [96 37 48] channel 7: note On G3 velocity: 72
timestamp 144139000 us: [99 2A 29] channel 10: note On F#2 velocity: 41
timestamp 144142000 us: [99 2A 00] channel 10: note On F#2 velocity: 0
timestamp 144152000 us: [92 37 49] channel 3: note On G3 velocity: 73
timestamp 144209000 us: [95 32 00] channel 6: note On D3 velocity: 0
timestamp 144238000 us: [93 47 00] channel 4: note On B4 velocity: 0
timestamp 144258000 us: [92 37 00] channel 3: note On G3 velocity: 0
timestamp 144288000 us: [93 48 63] channel 4: note On C5 velocity: 99
timestamp 144289000 us: [95 30 3B] channel 6: note On C3 velocity: 59
timestamp 144290000 us: [95 34 50] channel 6: note On E3 velocity: 80
timestamp 144292000 us: [96 3C 62] channel 7: note On C4 velocity: 98
timestamp 144294000 us: [98 4A 5F] channel 9: note On D5 velocity: 95
timestamp 144295000 us: [98 4F 5A] channel 9: note On G5 velocity: 90
timestamp 144297000 us: [99 23 71] channel 10: note On B1 velocity: 113
timestamp 144298000 us: [99 2A 4D] channel 10: note On F#2 velocity: 77
timestamp 144300000 us: [92 37 49] channel 3: note On G3 velocity: 73
timestamp 144302000 us: [92 3C 55] channel 3: note On C4 velocity: 85
timestamp 144303000 us: [92 40 5A] channel 3: note On E4 velocity: 90
timestamp 144304000 us: [99 28 60] channel 10: note On E2 velocity: 96
timestamp 144307000 us: [99 2A 00] channel 10: note On F#2 velocity: 0
timestamp 144308000 us: [99 23 00] channel 10: note On B1 velocity: 0
timestamp 144308000 us: [99 28 00] channel 10: note On E2 velocity: 0
timestamp 144312000 us: [96 40 5F] channel 7: note On E4 velocity: 95
timestamp 144355000 us: [92 40 00] channel 3: note On E4 velocity: 0
timestamp 144355000 us: [92 3C 00] channel 3: note On C4 velocity: 0
timestamp 144356000 us: [92 37 00] channel 3: note On G3 velocity: 0
timestamp 144408000 us: [95 34 00] channel 6: note On E3 velocity: 0
timestamp 144409000 us: [95 30 00] channel 6: note On C3 velocity: 0
timestamp 144463000 us: [96 37 00] channel 7: note On G3 velocity: 0
timestamp 144471000 us: [96 3C 00] channel 7: note On C4 velocity: 0
timestamp 144480000 us: [96 40 00] channel 7: note On E4 velocity: 0
timestamp 144548000 us: [93 48 00] channel 4: note On C5 velocity: 0
timestamp 144587000 us: [98 4F 00] channel 9: note On G5 velocity: 0
timestamp 144588000 us: [98 4A 00] channel 9: note On D5 velocity: 0
timestamp 144598000 us: [93 48 61] channel 4: note On C5 velocity: 97
timestamp 144599000 us: [95 32 32] channel 6: note On D3 velocity: 50
timestamp 144601000 us: [96 37 45] channel 7: note On G3 velocity: 69
timestamp 144602000 us: [98 4A 5F] channel 9: note On D5 velocity: 95
timestamp 144604000 us: [98 4F 5C] channel 9: note On G5 velocity: 92
timestamp 144605000 us: [99 2A 29] channel 10: note On F#2 velocity: 41
timestamp 144607000 us: [99 2A 00] channel 10: note On F#2 velocity: 0
timestamp 144627000 us: [92 37 4C] channel 3: note On G3 velocity: 76
timestamp 144628000 us: [92 3B 48] channel 3: note On B3 velocity: 72
timestamp 144629000 us: [92 3E 49] channel 3: note On D4 velocity: 73
timestamp 144665000 us: [95 32 00] channel 6: note On D3 velocity: 0
timestamp 144699000 us: [98 4A 00] channel 9: note On D5 velocity: 0
timestamp 144723000 us: [98 4F 00] channel 9: note On G5 velocity: 0
timestamp 144734000 us: [93 48 00] channel 4: note On C5 velocity: 0
timestamp 144747000 us: [96 37 00] channel 7: note On G3 velocity: 0
timestamp 144753000 us: [93 4A 63] channel 4: note On D5 velocity: 99
timestamp 144755000 us: [95 32 49] channel 6: note On D3 velocity: 73
timestamp 144756000 us: [96 37 52] channel 7: note On G3 velocity: 82
timestamp 144758000 us: [99 23 71] channel 10: note On B1 velocity: 113
timestamp 144759000 us: [99 2A 39] channel 10: note On F#2 velocity: 57
timestamp 144762000 us: [99 2A 00] channel 10: note On F#2 velocity: 0
timestamp 144763000 us: [99 23 00] channel 10: note On B1 velocity: 0
timestamp 144767000 us: [96 3B 4A] channel 7: note On B3 velocity: 74
timestamp 144786000 us: [96 3E 51] channel 7: note On D4 velocity: 81
timestamp 144926000 us: [92 37 00] channel 3: note On G3 velocity: 0
timestamp 144956000 us: [93 4A 00] channel 4: note On D5 velocity: 0
timestamp 144975000 us: [92 3B 00] channel 3: note On B3 velocity: 0
timestamp 145004000 us: [92 3E 00] channel 3: note On D4 velocity: 0
timestamp 145014000 us: [95 32 00] channel 6: note On D3 velocity: 0
timestamp 145048000 us: [96 3E 00] channel 7: note On D4 velocity: 0
timestamp 145048000 us: [96 3B 00] channel 7: note On B3 velocity: 0
timestamp 145054000 us: [96 37 00] channel 7: note On G3 velocity: 0
timestamp 145063000 us: [93 4A 5A] channel 4: note On D5 velocity: 90
timestamp 145064000 us: [95 32 35] channel 6: note On D3 velocity: 53
timestamp 145066000 us: [96 37 45] channel 7: note On G3 velocity: 69
timestamp 145067000 us: [98 4A 3D] channel 9: note On D5 velocity: 61
timestamp 145069000 us: [99 2A 29] channel 10: note On F#2 velocity: 41
timestamp 145072000 us: [99 2A 00] channel 10: note On F#2 velocity: 0
timestamp 145082000 us: [92 37 4C] channel 3: note On G3 velocity: 76
timestamp 145174000 us: [98 4A 00] channel 9: note On D5 velocity: 0
timestamp 145183000 us: [92 37 00] channel 3: note On G3 velocity: 0
timestamp 145198000 us: [93 4A 00] channel 4: note On D5 velocity: 0
timestamp 145218000 us: [95 30 3C] channel 6: note On C3 velocity: 60
timestamp 145219000 us: [95 34 50] channel 6: note On E3 velocity: 80
timestamp 145221000 us: [96 3C 62] channel 7: note On C4 velocity: 98
timestamp 145223000 us: [98 4A 5C] channel 9: note On D5 velocity: 92
timestamp 145224000 us: [98 4F 63] channel 9: note On G5 velocity: 99
timestamp 145225000 us: [99 23 71] channel 10: note On B1 velocity: 113
timestamp 145227000 us: [99 2A 4D] channel 10: note On F#2 velocity: 77
timestamp 145229000 us: [92 37 55] channel 3: note On G3 velocity: 85
timestamp 145230000 us: [92 3C 57] channel 3: note On C4 velocity: 87
timestamp 145231000 us: [92 40 59] channel 3: note On E4 velocity: 89
timestamp 145233000 us: [95 34 00] channel 6: note On E3 velocity: 0
timestamp 145234000 us: [99 28 60] channel 10: note On E2 velocity: 96
timestamp 145237000 us: [99 2A 00] channel 10: note On F#2 velocity: 0
timestamp 145238000 us: [99 23 00] channel 10: note On B1 velocity: 0
timestamp 145238000 us: [99 28 00] channel 10: note On E2 velocity: 0
timestamp 145242000 us: [96 40 5F] channel 7: note On E4 velocity: 95
timestamp 145285000 us: [92 40 00] channel 3: note On E4 velocity: 0
timestamp 145285000 us: [92 3C 00] channel 3: note On C4 velocity: 0
timestamp 145286000 us: [92 37 00] channel 3: note On G3 velocity: 0
timestamp 145333000 us: [95 30 00] channel 6: note On C3 velocity: 0
timestamp 145334000 us: [95 32 00] channel 6: note On D3 velocity: 0
timestamp 145392000 us: [96 37 00] channel 7: note On G3 velocity: 0
timestamp 145401000 us: [96 3C 00] channel 7: note On C4 velocity: 0
timestamp 145410000 us: [96 40 00] channel 7: note On E4 velocity: 0
timestamp 145518000 us: [98 4F 00] channel 9: note On G5 velocity: 0
timestamp 145518000 us: [98 4A 00] channel 9: note On D5 velocity: 0
timestamp 145528000 us: [93 4A 58] channel 4: note On D5 velocity: 88
timestamp 145529000 us: [95 32 33] channel 6: note On D3 velocity: 51
timestamp 145531000 us: [96 37 45] channel 7: note On G3 velocity: 69
timestamp 145532000 us: [98 4A 5E] channel 9: note On D5 velocity: 94
timestamp 145533000 us: [98 4F 58] channel 9: note On G5 velocity: 88
timestamp 145535000 us: [99 2A 29] channel 10: note On F#2 velocity: 41
timestamp 145538000 us: [99 2A 00] channel 10: note On F#2 velocity: 0
timestamp 145557000 us: [92 37 45] channel 3: note On G3 velocity: 69
timestamp 145558000 us: [92 3B 46] channel 3: note On B3 velocity: 70
timestamp 145560000 us: [92 3E 49] channel 3: note On D4 velocity: 73
timestamp 145614000 us: [93 4A 00] channel 4: note On D5 velocity: 0
timestamp 145624000 us: [95 32 00] channel 6: note On D3 velocity: 0
timestamp 145634000 us: [98 4A 00] channel 9: note On D5 velocity: 0
timestamp 145648000 us: [98 4F 00] channel 9: note On G5 velocity: 0
timestamp 145678000 us: [96 37 00] channel 7: note On G3 velocity: 0
timestamp 145684000 us: [93 4A 61] channel 4: note On D5 velocity: 97
timestamp 145685000 us: [95 32 46] channel 6: note On D3 velocity: 70
timestamp 145687000 us: [96 37 52] channel 7: note On G3 velocity: 82
timestamp 145688000 us: [99 23 71] channel 10: note On B1 velocity: 113
timestamp 145689000 us: [99 2A 39] channel 10: note On F#2 velocity: 57
timestamp 145694000 us: [99 2A 00] channel 10: note On F#2 velocity: 0
timestamp 145695000 us: [99 23 00] channel 10: note On B1 velocity: 0
timestamp 145698000 us: [96 3B 4A] channel 7: note On B3 velocity: 74
timestamp 145716000 us: [96 3E 51] channel 7: note On D4 velocity: 81
timestamp 145871000 us: [92 37 00] channel 3: note On G3 velocity: 0
timestamp 145915000 us: [93 4A 00] channel 4: note On D5 velocity: 0
timestamp 145934000 us: [92 3B 00] channel 3: note On B3 velocity: 0
timestamp 145939000 us: [92 3E 00] channel 3: note On D4 velocity: 0
timestamp 145958000 us: [95 32 00] channel 6: note On D3 velocity: 0
timestamp 145978000 us: [96 3E 00] channel 7: note On D4 velocity: 0
timestamp 145979000 us: [96 3B 00] channel 7: note On B3 velocity: 0
timestamp 145982000 us: [96 37 00] channel 7: note On G3 velocity: 0
timestamp 145993000 us: [93 4A 5C] channel 4: note On D5 velocity: 92
timestamp 145995000 us: [95 32 36] channel 6: note On D3 velocity: 54
timestamp 145996000 us: [96 37 48] channel 7: note On G3 velocity: 72
timestamp 145998000 us: [99 2A 29] channel 10: note On F#2 velocity: 41
timestamp 146002000 us: [99 2A 00] channel 10: note On F#2 velocity: 0
timestamp 146013000 us: [92 37 4A] channel 3: note On G3 velocity: 74
timestamp 146108000 us: [93 4A 00] channel 4: note On D5 velocity: 0
timestamp 146114000 us: [92 37 00] channel 3: note On G3 velocity: 0
timestamp 146145000 us: [95 32 00] channel 6: note On D3 velocity: 0
timestamp 146148000 us: [92 3C 59] channel 3: note On C4 velocity: 89
timestamp 146149000 us: [92 40 59] channel 3: note On E4 velocity: 89
timestamp 146151000 us: [93 4A 58] channel 4: note On D5 velocity: 88
timestamp 146152000 us: [95 30 3B] channel 6: note On C3 velocity: 59
timestamp 146154000 us: [95 34 4F] channel 6: note On E3 velocity: 79
timestamp 146155000 us: [96 3C 62] channel 7: note On C4 velocity: 98
timestamp 146157000 us: [98 4A 5F] channel 9: note On D5 velocity: 95
timestamp 146158000 us: [98 4F 5A] channel 9: note On G5 velocity: 90
timestamp 146160000 us: [99 23 71] channel 10: note On B1 velocity: 113
timestamp 146161000 us: [99 2A 4D] channel 10: note On F#2 velocity: 77
timestamp 146164000 us: [92 37 52] channel 3: note On G3 velocity: 82
timestamp 146165000 us: [99 28 60] channel 10: note On E2 velocity: 96
timestamp 146167000 us: [99 2A 00] channel 10: note On F#2 velocity: 0
timestamp 146168000 us: [99 23 00] channel 10: note On B1 velocity: 0
timestamp 146169000 us: [99 28 00] channel 10: note On E2 velocity: 0
timestamp 146173000 us: [96 40 5F] channel 7: note On E4 velocity: 95
timestamp 146215000 us: [92 40 00] channel 3: note On E4 velocity: 0
timestamp 146216000 us: [92 3C 00] channel 3: note On C4 velocity: 0
timestamp 146217000 us: [92 37 00] channel 3: note On G3 velocity: 0
timestamp 146293000 us: [95 34 00] channel 6: note On E3 velocity: 0
timestamp 146293000 us: [95 30 00] channel 6: note On C3 velocity: 0
timestamp 146323000 us: [96 37 00] channel 7: note On G3 velocity: 0
timestamp 146331000 us: [96 3C 00] channel 7: note On C4 velocity: 0
timestamp 146341000 us: [96 40 00] channel 7: note On E4 velocity: 0
timestamp 146375000 us: [93 4A 00] channel 4: note On D5 velocity: 0
timestamp 146448000 us: [98 4F 00] channel 9: note On G5 velocity: 0
timestamp 146448000 us: [98 4A 00] channel 9: note On D5 velocity: 0
timestamp 146458000 us: [93 4C 5C] channel 4: note On E5 velocity: 92
timestamp 146460000 us: [95 32 32] channel 6: note On D3 velocity: 50
timestamp 146461000 us: [96 37 45] channel 7: note On G3 velocity: 69
timestamp 146463000 us: [98 4A 5F] channel 9: note On D5 velocity: 95
timestamp 146464000 us: [98 4F 5C] channel 9: note On G5 velocity: 92
timestamp 146466000 us: [99 2A 29] channel 10: note On F#2 velocity: 41
timestamp 146468000 us: [99 2A 00] channel 10: note On F#2 velocity: 0
timestamp 146487000 us: [92 37 46] channel 3: note On G3 velocity: 70
timestamp 146488000 us: [92 3B 46] channel 3: note On B3 velocity: 70
timestamp 146490000 us: [92 3E 49] channel 3: note On D4 velocity: 73
timestamp 146559000 us: [95 32 00] channel 6: note On D3 velocity: 0
timestamp 146560000 us: [98 4A 00] channel 9: note On D5 velocity: 0
timestamp 146583000 us: [98 4F 00] channel 9: note On G5 velocity: 0
timestamp 146608000 us: [93 4C 00] channel 4: note On E5 velocity: 0
timestamp 146609000 us: [96 37 00] channel 7: note On G3 velocity: 0
timestamp 146615000 us: [93 47 64] channel 4: note On B4 velocity: 100
timestamp 146616000 us: [95 32 49] channel 6: note On D3 velocity: 73
timestamp 146618000 us: [96 37 52] channel 7: note On G3 velocity: 82
timestamp 146619000 us: [99 23 71] channel 10: note On B1 velocity: 113
timestamp 146620000 us: [99 2A 39] channel 10: note On F#2 velocity: 57
timestamp 146623000 us: [99 2A 00] channel 10: note On F#2 velocity: 0
timestamp 146624000 us: [99 23 00] channel 10: note On B1 velocity: 0
timestamp 146628000 us: [96 3B 4A] channel 7: note On B3 velocity: 74
timestamp 146647000 us: [96 3E 51] channel 7: note On D4 velocity: 81
timestamp 146835000 us: [92 37 00] channel 3: note On G3 velocity: 0
timestamp 146859000 us: [92 3B 00] channel 3: note On B3 velocity: 0
timestamp 146864000 us: [93 47 00] channel 4: note On B4 velocity: 0
timestamp 146874000 us: [95 32 00] channel 6: note On D3 velocity: 0
timestamp 146898000 us: [92 3E 00] channel 3: note On D4 velocity: 0
timestamp 146908000 us: [96 3E 00] channel 7: note On D4 velocity: 0
timestamp 146909000 us: [96 3B 00] channel 7: note On B3 velocity: 0
timestamp 146913000 us: [96 37 00] channel 7: note On G3 velocity: 0
timestamp 146924000 us: [93 43 5F] channel 4: note On G4 velocity: 95
timestamp 146925000 us: [95 32 34] channel 6: note On D3 velocity: 52
timestamp 146926000 us: [96 37 45] channel 7: note On G3 velocity: 69
timestamp 146928000 us: [98 4A 3D] channel 9: note On D5 velocity: 61
timestamp 146929000 us: [99 2A 3C] channel 10: note On F#2 velocity: 60
timestamp 146931000 us: [99 28 60] channel 10: note On E2 velocity: 96
timestamp 146933000 us: [99 2A 00] channel 10: note On F#2 velocity: 0
timestamp 146934000 us: [99 28 00] channel 10: note On E2 velocity: 0
timestamp 146944000 us: [92 37 49] channel 3: note On G3 velocity: 73
timestamp 147024000 us: [92 37 00] channel 3: note On G3 velocity: 0
timestamp 147034000 us: [98 4A 00] channel 9: note On D5 velocity: 0
timestamp 147058000 us: [95 32 00] channel 6: note On D3 velocity: 0
timestamp 147073000 us: [93 43 00] channel 4: note On G4 velocity: 0
timestamp 147078000 us: [93 43 5F] channel 4: note On G4 velocity: 95
timestamp 147080000 us: [95 30 3B] channel 6: note On C3 velocity: 59
timestamp 147081000 us: [95 34 4F] channel 6: note On E3 velocity: 79
timestamp 147083000 us: [96 3C 62] channel 7: note On C4 velocity: 98
timestamp 147084000 us: [97 43 52] channel 8: note On G4 velocity: 82
timestamp 147086000 us: [97 47 64] channel 8: note On B4 velocity: 100
timestamp 147088000 us: [98 4A 5C] channel 9: note On D5 velocity: 92
timestamp 147089000 us: [98 4F 63] channel 9: note On G5 velocity: 99
timestamp 147091000 us: [99 23 71] channel 10: note On B1 velocity: 113
timestamp 147092000 us: [99 2A 42] channel 10: note On F#2 velocity: 66
timestamp 147094000 us: [92 3C 5A] channel 3: note On C4 velocity: 90
timestamp 147095000 us: [92 40 5A] channel 3: note On E4 velocity: 90
timestamp 147097000 us: [99 28 50] channel 10: note On E2 velocity: 80
timestamp 147101000 us: [92 37 52] channel 3: note On G3 velocity: 82
timestamp 147102000 us: [99 2A 00] channel 10: note On F#2 velocity: 0
timestamp 147103000 us: [99 23 00] channel 10: note On B1 velocity: 0
timestamp 147103000 us: [99 28 00] channel 10: note On E2 velocity: 0
timestamp 147107000 us: [96 40 5F] channel 7: note On E4 velocity: 95
timestamp 147189000 us: [95 34 00] channel 6: note On E3 velocity: 0
timestamp 147190000 us: [95 30 00] channel 6: note On C3 velocity: 0
timestamp 147254000 us: [96 37 00] channel 7: note On G3 velocity: 0
timestamp 147262000 us: [96 3C 00] channel 7: note On C4 velocity: 0
timestamp 147271000 us: [96 40 00] channel 7: note On E4 velocity: 0
timestamp 147276000 us: [92 40 00] channel 3: note On E4 velocity: 0
timestamp 147277000 us: [92 3C 00] channel 3: note On C4 velocity: 0
timestamp 147281000 us: [92 37 00] channel 3: note On G3 velocity: 0
timestamp 147378000 us: [98 4F 00] channel 9: note On G5 velocity: 0
timestamp 147379000 us: [98 4A 00] channel 9: note On D5 velocity: 0
timestamp 147383000 us: [93 43 00] channel 4: note On G4 velocity: 0
timestamp 147388000 us: [92 35 1B] channel 3: note On F3 velocity: 27
timestamp 147390000 us: [93 41 5B] channel 4: note On F4 velocity: 91
timestamp 147391000 us: [95 32 31] channel 6: note On D3 velocity: 49
timestamp 147393000 us: [96 37 45] channel 7: note On G3 velocity: 69
timestamp 147395000 us: [97 41 4F] channel 8: note On F4 velocity: 79
timestamp 147396000 us: [97 45 61] channel 8: note On A4 velocity: 97
timestamp 147398000 us: [98 48 5E] channel 9: note On C5 velocity: 94
timestamp 147399000 us: [98 4D 58] channel 9: note On F5 velocity: 88
timestamp 147401000 us: [99 28 4C] channel 10: note On E2 velocity: 76
timestamp 147405000 us: [97 45 00] channel 8: note On A4 velocity: 0
timestamp 147406000 us: [97 47 00] channel 8: note On B4 velocity: 0
timestamp 147408000 us: [99 28 00] channel 10: note On E2 velocity: 0
timestamp 147460000 us: [92 35 00] channel 3: note On F3 velocity: 0
timestamp 147533000 us: [95 32 00] channel 6: note On D3 velocity: 0
timestamp 147538000 us: [91 1F 00] channel 2: note On G1 velocity: 0
timestamp 147539000 us: [96 37 00] channel 7: note On G3 velocity: 0
timestamp 147545000 us: [91 1D 66] channel 2: note On F1 velocity: 102
timestamp 147547000 us: [92 35 4C] channel 3: note On F3 velocity: 76
timestamp 147548000 us: [92 39 4F] channel 3: note On A3 velocity: 79
timestamp 147549000 us: [92 3C 48] channel 3: note On C4 velocity: 72
timestamp 147551000 us: [95 30 4E] channel 6: note On C3 velocity: 78
timestamp 147553000 us: [96 35 52] channel 7: note On F3 velocity: 82
timestamp 147554000 us: [99 23 71] channel 10: note On B1 velocity: 113
timestamp 147555000 us: [99 31 45] channel 10: note On C#3 velocity: 69
timestamp 147558000 us: [99 31 00] channel 10: note On C#3 velocity: 0
timestamp 147559000 us: [99 23 00] channel 10: note On B1 velocity: 0
timestamp 147561000 us: [96 39 4A] channel 7: note On A3 velocity: 74
timestamp 147577000 us: [96 3C 51] channel 7: note On C4 velocity: 81
timestamp 147620000 us: [98 4D 00] channel 9: note On F5 velocity: 0
timestamp 147621000 us: [98 48 00] channel 9: note On C5 velocity: 0
timestamp 147736000 us: [92 35 00] channel 3: note On F3 velocity: 0
timestamp 147780000 us: [97 41 00] channel 8: note On F4 velocity: 0
timestamp 147781000 us: [97 43 00] channel 8: note On G4 velocity: 0
timestamp 147804000 us: [92 3C 00] channel 3: note On C4 velocity: 0
timestamp 147805000 us: [93 41 00] channel 4: note On F4 velocity: 0
timestamp 147814000 us: [95 30 00] channel 6: note On C3 velocity: 0
timestamp 147838000 us: [96 3C 00] channel 7: note On C4 velocity: 0
timestamp 147839000 us: [96 39 00] channel 7: note On A3 velocity: 0
timestamp 147843000 us: [96 35 00] channel 7: note On F3 velocity: 0
timestamp 147854000 us: [92 35 5A] channel 3: note On F3 velocity: 90
timestamp 147855000 us: [95 30 31] channel 6: note On C3 velocity: 49
timestamp 147857000 us: [96 35 48] channel 7: note On F3 velocity: 72
timestamp 147858000 us: [99 2A 29] channel 10: note On F#2 velocity: 41
timestamp 147864000 us: [99 2A 00] channel 10: note On F#2 velocity: 0
timestamp 147891000 us: [92 39 00] channel 3: note On A3 velocity: 0
timestamp 147930000 us: [95 30 00] channel 6: note On C3 velocity: 0
timestamp 148009000 us: [92 3A 56] channel 3: note On A#3 velocity: 86
timestamp 148009000 us: [92 3E 56] channel 3: note On D4 velocity: 86
timestamp 148011000 us: [95 2E 3B] channel 6: note On A#2 velocity: 59
timestamp 148013000 us: [95 32 50] channel 6: note On D3 velocity: 80
timestamp 148015000 us: [96 3A 62] channel 7: note On A#3 velocity: 98
timestamp 148016000 us: [99 23 71] channel 10: note On B1 velocity: 113
timestamp 148017000 us: [99 2A 4D] channel 10: note On F#2 velocity: 77
timestamp 148019000 us: [99 28 60] channel 10: note On E2 velocity: 96
timestamp 148022000 us: [99 2A 00] channel 10: note On F#2 velocity: 0
timestamp 148023000 us: [99 23 00] channel 10: note On B1 velocity: 0
timestamp 148023000 us: [99 28 00] channel 10: note On E2 velocity: 0
timestamp 148033000 us: [96 3E 5F] channel 7: note On D4 velocity: 95
timestamp 148129000 us: [95 32 00] channel 6: note On D3 velocity: 0
timestamp 148130000 us: [95 2E 00] channel 6: note On A#2 velocity: 0
timestamp 148183000 us: [96 35 00] channel 7: note On F3 velocity: 0
timestamp 148192000 us: [96 3A 00] channel 7: note On A#3 velocity: 0
timestamp 148202000 us: [92 3E 00] channel 3: note On D4 velocity: 0
timestamp 148202000 us: [96 3E 00] channel 7: note On D4 velocity: 0
timestamp 148221000 us: [92 35 00] channel 3: note On F3 velocity: 0
timestamp 148240000 us: [92 3A 00] channel 3: note On A#3 velocity: 0
timestamp 148319000 us: [92 35 53] channel 3: note On F3 velocity: 83
timestamp 148320000 us: [92 39 53] channel 3: note On A3 velocity: 83
timestamp 148321000 us: [92 3C 48] channel 3: note On C4 velocity: 72
timestamp 148323000 us: [95 30 32] channel 6: note On C3 velocity: 50
timestamp 148325000 us: [96 35 45] channel 7: note On F3 velocity: 69
timestamp 148326000 us: [99 2A 29] channel 10: note On F#2 velocity: 41
timestamp 148328000 us: [99 2A 00] channel 10: note On F#2 velocity: 0
timestamp 148386000 us: [95 30 00] channel 6: note On C3 velocity: 0
timestamp 148468000 us: [96 35 00] channel 7: note On F3 velocity: 0
timestamp 148475000 us: [95 30 49] channel 6: note On C3 velocity: 73
timestamp 148477000 us: [96 35 52] channel 7: note On F3 velocity: 82
timestamp 148478000 us: [99 23 71] channel 10: note On B1 velocity: 113
timestamp 148480000 us: [99 2A 39] channel 10: note On F#2 velocity: 57
timestamp 148483000 us: [99 2A 00] channel 10: note On F#2 velocity: 0
timestamp 148484000 us: [99 23 00] channel 10: note On B1 velocity: 0
timestamp 148488000 us: [96 39 4A] channel 7: note On A3 velocity: 74
timestamp 148507000 us: [96 3C 51] channel 7: note On C4 velocity: 81
timestamp 148735000 us: [95 30 00] channel 6: note On C3 velocity: 0
timestamp 148769000 us: [96 3C 00] channel 7: note On C4 velocity: 0
timestamp 148769000 us: [96 39 00] channel 7: note On A3 velocity: 0
timestamp 148774000 us: [96 35 00] channel 7: note On F3 velocity: 0
timestamp 148784000 us: [95 30 35] channel 6: note On C3 velocity: 53
timestamp 148785000 us: [96 35 45] channel 7: note On F3 velocity: 69
timestamp 148787000 us: [99 2A 29] channel 10: note On F#2 velocity: 41
timestamp 148793000 us: [99 2A 00] channel 10: note On F#2 velocity: 0
timestamp 148939000 us: [93 41 61] channel 4: note On F4 velocity: 97
timestamp 148940000 us: [95 2E 3C] channel 6: note On A#2 velocity: 60
timestamp 148942000 us: [95 32 50] channel 6: note On D3 velocity: 80
timestamp 148944000 us: [96 3A 62] channel 7: note On A#3 velocity: 98
timestamp 148945000 us: [97 41 4F] channel 8: note On F4 velocity: 79
timestamp 148946000 us: [97 45 61] channel 8: note On A4 velocity: 97
timestamp 148948000 us: [99 23 71] channel 10: note On B1 velocity: 113
timestamp 148949000 us: [99 2A 4D] channel 10: note On F#2 velocity: 77
timestamp 148951000 us: [95 32 00] channel 6: note On D3 velocity: 0
timestamp 148952000 us: [99 28 60] channel 10: note On E2 velocity: 96
timestamp 148957000 us: [99 2A 00] channel 10: note On F#2 velocity: 0
timestamp 148957000 us: [99 23 00] channel 10: note On B1 velocity: 0
timestamp 148958000 us: [99 28 00] channel 10: note On E2 velocity: 0
timestamp 148963000 us: [96 3E 5F] channel 7: note On D4 velocity: 95
timestamp 149054000 us: [95 2E 00] channel 6: note On A#2 velocity: 0
timestamp 149055000 us: [95 30 00] channel 6: note On C3 velocity: 0
timestamp 149113000 us: [96 35 00] channel 7: note On F3 velocity: 0
timestamp 149122000 us: [96 3A 00] channel 7: note On A#3 velocity: 0
timestamp 149131000 us: [96 3E 00] channel 7: note On D4 velocity: 0
timestamp 149195000 us: [92 35 00] channel 3: note On F3 velocity: 0
timestamp 149214000 us: [97 45 00] channel 8: note On A4 velocity: 0
timestamp 149215000 us: [97 41 00] channel 8: note On F4 velocity: 0
timestamp 149224000 us: [92 39 00] channel 3: note On A3 velocity: 0
timestamp 149244000 us: [91 1D 00] channel 2: note On F1 velocity: 0
timestamp 149244000 us: [93 41 00] channel 4: note On F4 velocity: 0
timestamp 149249000 us: [92 37 48] channel 3: note On G3 velocity: 72
timestamp 149250000 us: [93 43 61] channel 4: note On G4 velocity: 97
timestamp 149252000 us: [95 30 33] channel 6: note On C3 velocity: 51
timestamp 149253000 us: [96 35 45] channel 7: note On F3 velocity: 69
timestamp 149255000 us: [97 40 50] channel 8: note On E4 velocity: 80
timestamp 149256000 us: [97 43 62] channel 8: note On G4 velocity: 98
timestamp 149258000 us: [99 2A 29] channel 10: note On F#2 velocity: 41
timestamp 149260000 us: [92 3C 00] channel 3: note On C4 velocity: 0
timestamp 149261000 us: [99 2A 00] channel 10: note On F#2 velocity: 0
timestamp 149278000 us: [91 24 66] channel 2: note On C2 velocity: 102
timestamp 149345000 us: [95 30 00] channel 6: note On C3 velocity: 0
timestamp 149385000 us: [92 37 00] channel 3: note On G3 velocity: 0
timestamp 149399000 us: [96 35 00] channel 7: note On F3 velocity: 0
timestamp 149404000 us: [92 37 52] channel 3: note On G3 velocity: 82
timestamp 149405000 us: [92 3C 5A] channel 3: note On C4 velocity: 90
timestamp 149407000 us: [92 40 5A] channel 3: note On E4 velocity: 90
timestamp 149409000 us: [95 37 46] channel 6: note On G3 velocity: 70
timestamp 149410000 us: [96 37 52] channel 7: note On G3 velocity: 82
timestamp 149412000 us: [99 23 71] channel 10: note On B1 velocity: 113
timestamp 149413000 us: [99 2A 39] channel 10: note On F#2 velocity: 57
timestamp 149416000 us: [99 2A 00] channel 10: note On F#2 velocity: 0
timestamp 149417000 us: [99 23 00] channel 10: note On B1 velocity: 0
timestamp 149419000 us: [96 3C 4A] channel 7: note On C4 velocity: 74
timestamp 149437000 us: [96 40 51] channel 7: note On E4 velocity: 81
timestamp 149626000 us: [93 43 00] channel 4: note On G4 velocity: 0
timestamp 149636000 us: [97 43 00] channel 8: note On G4 velocity: 0
timestamp 149636000 us: [97 40 00] channel 8: note On E4 velocity: 0
timestamp 149679000 us: [95 37 00] channel 6: note On G3 velocity: 0
timestamp 149694000 us: [92 3C 00] channel 3: note On C4 velocity: 0
timestamp 149695000 us: [92 37 00] channel 3: note On G3 velocity: 0
timestamp 149699000 us: [92 40 00] channel 3: note On E4 velocity: 0
timestamp 149700000 us: [96 40 00] channel 7: note On E4 velocity: 0
timestamp 149701000 us: [96 3C 00] channel 7: note On C4 velocity: 0
timestamp 149703000 us: [96 37 00] channel 7: note On G3 velocity: 0
timestamp 149714000 us: [92 37 3A] channel 3: note On G3 velocity: 58
timestamp 149715000 us: [92 3C 45] channel 3: note On C4 velocity: 69
timestamp 149717000 us: [95 37 36] channel 6: note On G3 velocity: 54
timestamp 149719000 us: [96 37 48] channel 7: note On G3 velocity: 72
timestamp 149720000 us: [99 2A 29] channel 10: note On F#2 velocity: 41
timestamp 149725000 us: [99 2A 00] channel 10: note On F#2 velocity: 0
timestamp 149865000 us: [92 37 00] channel 3: note On G3 velocity: 0
timestamp 149866000 us: [95 37 00] channel 6: note On G3 velocity: 0
timestamp 149869000 us: [92 37 36] channel 3: note On G3 velocity: 54
timestamp 149870000 us: [92 41 5A] channel 3: note On F4 velocity: 90
timestamp 149872000 us: [95 35 3B] channel 6: note On F3 velocity: 59
timestamp 149874000 us: [95 39 4F] channel 6: note On A3 velocity: 79
timestamp 149875000 us: [96 3C 62] channel 7: note On C4 velocity: 98
timestamp 149877000 us: [99 23 71] channel 10: note On B1 velocity: 113
timestamp 149878000 us: [99 2A 4D] channel 10: note On F#2 velocity: 77
timestamp 149879000 us: [99 28 60] channel 10: note On E2 velocity: 96
timestamp 149885000 us: [99 2A 00] channel 10: note On F#2 velocity: 0
timestamp 149886000 us: [99 23 00] channel 10: note On B1 velocity: 0
timestamp 149887000 us: [99 28 00] channel 10: note On E2 velocity: 0
timestamp 149894000 us: [96 41 5F] channel 7: note On F4 velocity: 95
timestamp 150014000 us: [95 39 00] channel 6: note On A3 velocity: 0
timestamp 150014000 us: [95 35 00] channel 6: note On F3 velocity: 0
timestamp 150044000 us: [96 37 00] channel 7: note On G3 velocity: 0
timestamp 150052000 us: [96 3C 00] channel 7: note On C4 velocity: 0
timestamp 150062000 us: [96 41 00] channel 7: note On F4 velocity: 0
timestamp 150101000 us: [92 3C 00] channel 3: note On C4 velocity: 0
timestamp 150149000 us: [92 37 00] channel 3: note On G3 velocity: 0
timestamp 150154000 us: [92 41 00] channel 3: note On F4 velocity: 0
timestamp 150179000 us: [92 37 4C] channel 3: note On G3 velocity: 76
timestamp 150180000 us: [92 3C 45] channel 3: note On C4 velocity: 69
timestamp 150182000 us: [92 40 5D] channel 3: note On E4 velocity: 93
timestamp 150184000 us: [95 37 32] channel 6: note On G3 velocity: 50
timestamp 150185000 us: [96 37 45] channel 7: note On G3 velocity: 69
timestamp 150186000 us: [99 2A 29] channel 10: note On F#2 velocity: 41
timestamp 150191000 us: [99 2A 00] channel 10: note On F#2 velocity: 0
timestamp 150280000 us: [95 37 00] channel 6: note On G3 velocity: 0
timestamp 150329000 us: [96 37 00] channel 7: note On G3 velocity: 0
timestamp 150334000 us: [95 37 49] channel 6: note On G3 velocity: 73
timestamp 150336000 us: [96 37 52] channel 7: note On G3 velocity: 82
timestamp 150338000 us: [99 23 71] channel 10: note On B1 velocity: 113
timestamp 150339000 us: [99 2A 39] channel 10: note On F#2 velocity: 57
timestamp 150344000 us: [99 2A 00] channel 10: note On F#2 velocity: 0
timestamp 150344000 us: [99 23 00] channel 10: note On B1 velocity: 0
timestamp 150349000 us: [96 3C 4A] channel 7: note On C4 velocity: 74
timestamp 150368000 us: [96 40 51] channel 7: note On E4 velocity: 81
timestamp 150595000 us: [95 37 00] channel 6: note On G3 velocity: 0
timestamp 150629000 us: [96 40 00] channel 7: note On E4 velocity: 0
timestamp 150630000 us: [96 3C 00] channel 7: note On C4 velocity: 0
timestamp 150635000 us: [96 37 00] channel 7: note On G3 velocity: 0
timestamp 150645000 us: [95 37 34] channel 6: note On G3 velocity: 52
timestamp 150646000 us: [96 37 45] channel 7: note On G3 velocity: 69
timestamp 150647000 us: [99 2A 29] channel 10: note On F#2 velocity: 41
timestamp 150653000 us: [99 2A 00] channel 10: note On F#2 velocity: 0
timestamp 150779000 us: [95 37 00] channel 6: note On G3 velocity: 0
timestamp 150799000 us: [93 43 62] channel 4: note On G4 velocity: 98
timestamp 150801000 us: [95 35 3B] channel 6: note On F3 velocity: 59
timestamp 150802000 us: [95 39 4F] channel 6: note On A3 velocity: 79
timestamp 150804000 us: [96 3C 62] channel 7: note On C4 velocity: 98
timestamp 150805000 us: [97 40 50] channel 8: note On E4 velocity: 80
timestamp 150806000 us: [97 43 62] channel 8: note On G4 velocity: 98
timestamp 150809000 us: [99 23 71] channel 10: note On B1 velocity: 113
timestamp 150810000 us: [99 2A 4D] channel 10: note On F#2 velocity: 77
timestamp 150811000 us: [99 28 60] channel 10: note On E2 velocity: 96
timestamp 150815000 us: [99 2A 00] channel 10: note On F#2 velocity: 0
timestamp 150815000 us: [99 23 00] channel 10: note On B1 velocity: 0
timestamp 150816000 us: [99 28 00] channel 10: note On E2 velocity: 0
timestamp 150824000 us: [96 41 5F] channel 7: note On F4 velocity: 95
timestamp 150910000 us: [95 39 00] channel 6: note On A3 velocity: 0
timestamp 150910000 us: [95 35 00] channel 6: note On F3 velocity: 0
timestamp 150974000 us: [96 37 00] channel 7: note On G3 velocity: 0
timestamp 150983000 us: [96 3C 00] channel 7: note On C4 velocity: 0
timestamp 150992000 us: [96 41 00] channel 7: note On F4 velocity: 0
timestamp 151056000 us: [91 24 00] channel 2: note On C2 velocity: 0
timestamp 151060000 us: [92 37 00] channel 3: note On G3 velocity: 0
timestamp 151065000 us: [92 3C 00] channel 3: note On C4 velocity: 0
timestamp 151066000 us: [93 43 00] channel 4: note On G4 velocity: 0
timestamp 151067000 us: [92 40 00] channel 3: note On E4 velocity: 0
timestamp 151070000 us: [97 43 00] channel 8: note On G4 velocity: 0
timestamp 151070000 us: [97 40 00] channel 8: note On E4 velocity: 0
timestamp 151109000 us: [92 37 3A] channel 3: note On G3 velocity: 58
timestamp 151111000 us: [93 3E 56] channel 4: note On D4 velocity: 86
timestamp 151112000 us: [95 37 31] channel 6: note On G3 velocity: 49
timestamp 151114000 us: [96 37 45] channel 7: note On G3 velocity: 69
timestamp 151115000 us: [97 3E 4A] channel 8: note On D4 velocity: 74
timestamp 151116000 us: [97 43 5C] channel 8: note On G4 velocity: 92
timestamp 151118000 us: [99 2A 29] channel 10: note On F#2 velocity: 41
timestamp 151120000 us: [99 2A 00] channel 10: note On F#2 velocity: 0
timestamp 151138000 us: [91 1F 66] channel 2: note On G1 velocity: 102
timestamp 151245000 us: [E4 00 0C] channel 5: pitch wheel change 1536
timestamp 151250000 us: [94 4F 72] channel 5: note On G5 velocity: 114
timestamp 151251000 us: [94 5B 6C] channel 5: note On G6 velocity: 108
timestamp 151254000 us: [95 37 00] channel 6: note On G3 velocity: 0
timestamp 151259000 us: [92 37 00] channel 3: note On G3 velocity: 0
timestamp 151260000 us: [96 37 00] channel 7: note On G3 velocity: 0
timestamp 151267000 us: [95 32 4E] channel 6: note On D3 velocity: 78
timestamp 151268000 us: [96 37 52] channel 7: note On G3 velocity: 82
timestamp 151270000 us: [99 23 71] channel 10: note On B1 velocity: 113
timestamp 151271000 us: [99 2A 39] channel 10: note On F#2 velocity: 57
timestamp 151274000 us: [92 37 44] channel 3: note On G3 velocity: 68
timestamp 151275000 us: [92 3B 50] channel 3: note On B3 velocity: 80
timestamp 151278000 us: [92 3E 53] channel 3: note On D4 velocity: 83
timestamp 151280000 us: [99 2A 00] channel 10: note On F#2 velocity: 0
timestamp 151280000 us: [99 23 00] channel 10: note On B1 velocity: 0
timestamp 151282000 us: [96 3B 4A] channel 7: note On B3 velocity: 74
timestamp 151298000 us: [96 3E 51] channel 7: note On D4 velocity: 81
timestamp 151406000 us: [E4 00 16] channel 5: pitch wheel change 2816
timestamp 151424000 us: [E4 00 24] channel 5: pitch wheel change 4608
timestamp 151448000 us: [E4 00 30] channel 5: pitch wheel change 6144
timestamp 151467000 us: [E4 00 37] channel 5: pitch wheel change 7040
timestamp 151482000 us: [E4 00 40] channel 5: pitch wheel change 8192
timestamp 151491000 us: [92 37 00] channel 3: note On G3 velocity: 0
timestamp 151492000 us: [92 3B 00] channel 3: note On B3 velocity: 0
timestamp 151496000 us: [92 3E 00] channel 3: note On D4 velocity: 0
timestamp 151497000 us: [97 43 00] channel 8: note On G4 velocity: 0
timestamp 151498000 us: [97 3E 00] channel 8: note On D4 velocity: 0
timestamp 151515000 us: [93 3E 00] channel 4: note On D4 velocity: 0
timestamp 151535000 us: [95 32 00] channel 6: note On D3 velocity: 0
timestamp 151559000 us: [96 3E 00] channel 7: note On D4 velocity: 0
timestamp 151560000 us: [96 3B 00] channel 7: note On B3 velocity: 0
timestamp 151564000 us: [96 37 00] channel 7: note On G3 velocity: 0
timestamp 151575000 us: [95 32 31] channel 6: note On D3 velocity: 49
timestamp 151577000 us: [96 37 48] channel 7: note On G3 velocity: 72
timestamp 151578000 us: [99 2A 29] channel 10: note On F#2 velocity: 41
timestamp 151585000 us: [99 2A 00] channel 10: note On F#2 velocity: 0
timestamp 151595000 us: [92 37 49] channel 3: note On G3 velocity: 73
timestamp 151651000 us: [95 32 00] channel 6: note On D3 velocity: 0
timestamp 151700000 us: [92 37 00] channel 3: note On G3 velocity: 0
timestamp 151730000 us: [95 30 3B] channel 6: note On C3 velocity: 59
timestamp 151730000 us: [95 34 50] channel 6: note On E3 velocity: 80
timestamp 151733000 us: [96 3C 62] channel 7: note On C4 velocity: 98
timestamp 151734000 us: [98 4A 5F] channel 9: note On D5 velocity: 95
timestamp 151735000 us: [98 4F 5A] channel 9: note On G5 velocity: 90
timestamp 151737000 us: [99 23 71] channel 10: note On B1 velocity: 113
timestamp 151739000 us: [99 2A 4D] channel 10: note On F#2 velocity: 77
timestamp 151741000 us: [92 37 49] channel 3: note On G3 velocity: 73
timestamp 151742000 us: [92 3C 55] channel 3: note On C4 velocity: 85
timestamp 151744000 us: [92 40 5A] channel 3: note On E4 velocity: 90
timestamp 151746000 us: [99 28 60] channel 10: note On E2 velocity: 96
timestamp 151748000 us: [99 2A 00] channel 10: note On F#2 velocity: 0
timestamp 151748000 us: [99 23 00] channel 10: note On B1 velocity: 0
timestamp 151749000 us: [99 28 00] channel 10: note On E2 velocity: 0
timestamp 151755000 us: [96 40 5F] channel 7: note On E4 velocity: 95
timestamp 151797000 us: [92 40 00] channel 3: note On E4 velocity: 0
timestamp 151797000 us: [92 3C 00] channel 3: note On C4 velocity: 0
timestamp 151798000 us: [92 37 00] channel 3: note On G3 velocity: 0
timestamp 151850000 us: [95 34 00] channel 6: note On E3 velocity: 0
timestamp 151850000 us: [95 30 00] channel 6: note On C3 velocity: 0
timestamp 151906000 us: [96 37 00] channel 7: note On G3 velocity: 0
timestamp 151913000 us: [96 3C 00] channel 7: note On C4 velocity: 0
timestamp 151922000 us: [96 40 00] channel 7: note On E4 velocity: 0
timestamp 151971000 us: [94 5B 00] channel 5: note On G6 velocity: 0
timestamp 151972000 us: [94 4F 00] channel 5: note On G5 velocity: 0
timestamp 152020000 us: [94 4A 6B] channel 5: note On D5 velocity: 107
timestamp 152022000 us: [94 56 60] channel 5: note On D6 velocity: 96
timestamp 152029000 us: [98 4F 00] channel 9: note On G5 velocity: 0
timestamp 152030000 us: [98 4A 00] channel 9: note On D5 velocity: 0
timestamp 152040000 us: [95 32 32] channel 6: note On D3 velocity: 50
timestamp 152041000 us: [96 37 45] channel 7: note On G3 velocity: 69
timestamp 152043000 us: [98 4A 5F] channel 9: note On D5 velocity: 95
timestamp 152044000 us: [98 4F 5C] channel 9: note On G5 velocity: 92
timestamp 152046000 us: [99 2A 29] channel 10: note On F#2 velocity: 41
timestamp 152051000 us: [99 2A 00] channel 10: note On F#2 velocity: 0
timestamp 152069000 us: [92 37 4C] channel 3: note On G3 velocity: 76
timestamp 152070000 us: [92 3B 48] channel 3: note On B3 velocity: 72
timestamp 152071000 us: [92 3E 49] channel 3: note On D4 velocity: 73
timestamp 152107000 us: [95 32 00] channel 6: note On D3 velocity: 0
timestamp 152112000 us: [94 56 00] channel 5: note On D6 velocity: 0
timestamp 152112000 us: [94 4A 00] channel 5: note On D5 velocity: 0
timestamp 152141000 us: [98 4A 00] channel 9: note On D5 velocity: 0
timestamp 152165000 us: [98 4F 00] channel 9: note On G5 velocity: 0
timestamp 152175000 us: [94 4D 6D] channel 5: note On F5 velocity: 109
timestamp 152177000 us: [94 59 62] channel 5: note On F6 velocity: 98
timestamp 152189000 us: [96 37 00] channel 7: note On G3 velocity: 0
timestamp 152197000 us: [95 32 49] channel 6: note On D3 velocity: 73
timestamp 152199000 us: [96 37 52] channel 7: note On G3 velocity: 82
timestamp 152200000 us: [99 23 71] channel 10: note On B1 velocity: 113
timestamp 152201000 us: [99 2A 39] channel 10: note On F#2 velocity: 57
timestamp 152204000 us: [99 2A 00] channel 10: note On F#2 velocity: 0
timestamp 152205000 us: [99 23 00] channel 10: note On B1 velocity: 0
timestamp 152209000 us: [96 3B 4A] channel 7: note On B3 velocity: 74
timestamp 152228000 us: [96 3E 51] channel 7: note On D4 velocity: 81
timestamp 152272000 us: [94 59 00] channel 5: note On F6 velocity: 0
timestamp 152272000 us: [94 4D 00] channel 5: note On F5 velocity: 0
timestamp 152330000 us: [94 4A 69] channel 5: note On D5 velocity: 105
timestamp 152332000 us: [94 56 5E] channel 5: note On D6 velocity: 94
timestamp 152368000 us: [92 37 00] channel 3: note On G3 velocity: 0
timestamp 152416000 us: [92 3B 00] channel 3: note On B3 velocity: 0
timestamp 152432000 us: [94 56 00] channel 5: note On D6 velocity: 0
timestamp 152432000 us: [94 4A 00] channel 5: note On D5 velocity: 0
timestamp 152446000 us: [92 3E 00] channel 3: note On D4 velocity: 0
timestamp 152455000 us: [95 32 00] channel 6: note On D3 velocity: 0
timestamp 152486000 us: [94 47 6B] channel 5: note On B4 velocity: 107
timestamp 152487000 us: [94 53 60] channel 5: note On B5 velocity: 96
timestamp 152489000 us: [96 3E 00] channel 7: note On D4 velocity: 0
timestamp 152490000 us: [96 3B 00] channel 7: note On B3 velocity: 0
timestamp 152496000 us: [96 37 00] channel 7: note On G3 velocity: 0
timestamp 152505000 us: [95 32 35] channel 6: note On D3 velocity: 53
timestamp 152507000 us: [96 37 45] channel 7: note On G3 velocity: 69
timestamp 152508000 us: [98 4A 3D] channel 9: note On D5 velocity: 61
timestamp 152510000 us: [99 2A 29] channel 10: note On F#2 velocity: 41
timestamp 152514000 us: [99 2A 00] channel 10: note On F#2 velocity: 0
timestamp 152525000 us: [92 37 4C] channel 3: note On G3 velocity: 76
timestamp 152572000 us: [94 53 00] channel 5: note On B5 velocity: 0
timestamp 152572000 us: [94 47 00] channel 5: note On B4 velocity: 0
timestamp 152615000 us: [98 4A 00] channel 9: note On D5 velocity: 0
timestamp 152625000 us: [92 37 00] channel 3: note On G3 velocity: 0
timestamp 152640000 us: [94 43 69] channel 5: note On G4 velocity: 105
timestamp 152642000 us: [94 4F 5E] channel 5: note On G5 velocity: 94
timestamp 152660000 us: [95 30 3C] channel 6: note On C3 velocity: 60
timestamp 152661000 us: [95 34 50] channel 6: note On E3 velocity: 80
timestamp 152663000 us: [96 3C 62] channel 7: note On C4 velocity: 98
timestamp 152665000 us: [98 4A 5C] channel 9: note On D5 velocity: 92
timestamp 152666000 us: [98 4F 63] channel 9: note On G5 velocity: 99
timestamp 152668000 us: [99 23 71] channel 10: note On B1 velocity: 113
timestamp 152669000 us: [99 2A 4D] channel 10: note On F#2 velocity: 77
timestamp 152671000 us: [92 37 55] channel 3: note On G3 velocity: 85
timestamp 152672000 us: [92 3C 57] channel 3: note On C4 velocity: 87
timestamp 152674000 us: [92 40 59] channel 3: note On E4 velocity: 89
timestamp 152675000 us: [95 34 00] channel 6: note On E3 velocity: 0
timestamp 152677000 us: [99 28 60] channel 10: note On E2 velocity: 96
timestamp 152679000 us: [99 2A 00] channel 10: note On F#2 velocity: 0
timestamp 152680000 us: [99 23 00] channel 10: note On B1 velocity: 0
timestamp 152681000 us: [99 28 00] channel 10: note On E2 velocity: 0
timestamp 152687000 us: [96 40 5F] channel 7: note On E4 velocity: 95
timestamp 152727000 us: [92 40 00] channel 3: note On E4 velocity: 0
timestamp 152728000 us: [92 3C 00] channel 3: note On C4 velocity: 0
timestamp 152728000 us: [92 37 00] channel 3: note On G3 velocity: 0
timestamp 152729000 us: [94 4F 00] channel 5: note On G5 velocity: 0
timestamp 152730000 us: [94 43 00] channel 5: note On G4 velocity: 0
timestamp 152775000 us: [95 30 00] channel 6: note On C3 velocity: 0
timestamp 152776000 us: [95 32 00] channel 6: note On D3 velocity: 0
timestamp 152796000 us: [94 41 6F] channel 5: note On F4 velocity: 111
timestamp 152797000 us: [94 4D 64] channel 5: note On F5 velocity: 100
timestamp 152835000 us: [96 37 00] channel 7: note On G3 velocity: 0
timestamp 152843000 us: [96 3C 00] channel 7: note On C4 velocity: 0
timestamp 152853000 us: [96 40 00] channel 7: note On E4 velocity: 0
timestamp 152887000 us: [94 4D 00] channel 5: note On F5 velocity: 0
timestamp 152887000 us: [94 41 00] channel 5: note On F4 velocity: 0
timestamp 152943000 us: [94 3E 6A] channel 5: note On D4 velocity: 106
timestamp 152943000 us: [94 4A 5F] channel 5: note On D5 velocity: 95
timestamp 152953000 us: [98 4F 00] channel 9: note On G5 velocity: 0
timestamp 152953000 us: [98 4A 00] channel 9: note On D5 velocity: 0
timestamp 152963000 us: [95 32 33] channel 6: note On D3 velocity: 51
timestamp 152963000 us: [96 37 45] channel 7: note On G3 velocity: 69
timestamp 152973000 us: [98 4A 5E] channel 9: note On D5 velocity: 94
timestamp 152973000 us: [98 4F 58] channel 9: note On G5 velocity: 88
timestamp 152973000 us: [99 2A 29] channel 10: note On F#2 velocity: 41
timestamp 152973000 us: [99 2A 00] channel 10: note On F#2 velocity: 0
timestamp 152993000 us: [92 37 45] channel 3: note On G3 velocity: 69
timestamp 152993000 us: [92 3B 46] channel 3: note On B3 velocity: 70
timestamp 152993000 us: [92 3E 49] channel 3: note On D4 velocity: 73
timestamp 153033000 us: [94 4A 00] channel 5: note On D5 velocity: 0
timestamp 153033000 us: [94 3E 00] channel 5: note On D4 velocity: 0
timestamp 153063000 us: [95 32 00] channel 6: note On D3 velocity: 0
timestamp 153073000 us: [98 4A 00] channel 9: note On D5 velocity: 0
timestamp 153083000 us: [98 4F 00] channel 9: note On G5 velocity: 0
timestamp 153103000 us: [94 41 6F] channel 5: note On F4 velocity: 111
timestamp 153103000 us: [94 4D 64] channel 5: note On F5 velocity: 100
timestamp 153113000 us: [96 37 00] channel 7: note On G3 velocity: 0
timestamp 153123000 us: [95 32 46] channel 6: note On D3 velocity: 70
timestamp 153123000 us: [96 37 52] channel 7: note On G3 velocity: 82
timestamp 153123000 us: [99 23 71] channel 10: note On B1 velocity: 113
timestamp 153123000 us: [99 2A 39] channel 10: note On F#2 velocity: 57
timestamp 153133000 us: [99 2A 00] channel 10: note On F#2 velocity: 0
timestamp 153133000 us: [99 23 00] channel 10: note On B1 velocity: 0
timestamp 153133000 us: [96 3B 4A] channel 7: note On B3 velocity: 74
timestamp 153153000 us: [96 3E 51] channel 7: note On D4 velocity: 81
timestamp 153313000 us: [92 37 00] channel 3: note On G3 velocity: 0
timestamp 153343000 us: [94 4D 00] channel 5: note On F5 velocity: 0
timestamp 153343000 us: [94 41 00] channel 5: note On F4 velocity: 0
timestamp 153373000 us: [92 3B 00] channel 3: note On B3 velocity: 0
timestamp 153373000 us: [92 3E 00] channel 3: note On D4 velocity: 0
timestamp 153393000 us: [95 32 00] channel 6: note On D3 velocity: 0
timestamp 153413000 us: [94 43 69] channel 5: note On G4 velocity: 105
timestamp 153413000 us: [94 4F 5E] channel 5: note On G5 velocity: 94
timestamp 153413000 us: [96 3E 00] channel 7: note On D4 velocity: 0
timestamp 153413000 us: [96 3B 00] channel 7: note On B3 velocity: 0
timestamp 153423000 us: [96 37 00] channel 7: note On G3 velocity: 0
timestamp 153433000 us: [95 32 36] channel 6: note On D3 velocity: 54
timestamp 153433000 us: [96 37 48] channel 7: note On G3 velocity: 72
timestamp 153433000 us: [99 2A 29] channel 10: note On F#2 velocity: 41
timestamp 153443000 us: [99 2A 00] channel 10: note On F#2 velocity: 0
timestamp 153453000 us: [92 37 4A] channel 3: note On G3 velocity: 74
timestamp 153553000 us: [92 37 00] channel 3: note On G3 velocity: 0
timestamp 153583000 us: [95 32 00] channel 6: note On D3 velocity: 0
timestamp 153583000 us: [92 3C 59] channel 3: note On C4 velocity: 89
timestamp 153583000 us: [92 40 59] channel 3: note On E4 velocity: 89
timestamp 153593000 us: [95 30 3B] channel 6: note On C3 velocity: 59
timestamp 153593000 us: [95 34 4F] channel 6: note On E3 velocity: 79
timestamp 153593000 us: [96 3C 62] channel 7: note On C4 velocity: 98
timestamp 153593000 us: [98 4A 5F] channel 9: note On D5 velocity: 95
timestamp 153593000 us: [98 4F 5A] channel 9: note On G5 velocity: 90
timestamp 153593000 us: [99 23 71] channel 10: note On B1 velocity: 113
timestamp 153593000 us: [99 2A 4D] channel 10: note On F#2 velocity: 77
timestamp 153603000 us: [92 37 52] channel 3: note On G3 velocity: 82
timestamp 153603000 us: [99 28 60] channel 10: note On E2 velocity: 96
timestamp 153603000 us: [99 2A 00] channel 10: note On F#2 velocity: 0
timestamp 153603000 us: [99 23 00] channel 10: note On B1 velocity: 0
timestamp 153613000 us: [99 28 00] channel 10: note On E2 velocity: 0
timestamp 153613000 us: [96 40 5F] channel 7: note On E4 velocity: 95
timestamp 153653000 us: [92 40 00] channel 3: note On E4 velocity: 0
timestamp 153653000 us: [92 3C 00] channel 3: note On C4 velocity: 0
timestamp 153653000 us: [92 37 00] channel 3: note On G3 velocity: 0
timestamp 153653000 us: [94 4F 00] channel 5: note On G5 velocity: 0
timestamp 153653000 us: [94 43 00] channel 5: note On G4 velocity: 0
timestamp 153733000 us: [95 34 00] channel 6: note On E3 velocity: 0
timestamp 153733000 us: [95 30 00] channel 6: note On C3 velocity: 0
timestamp 153763000 us: [96 37 00] channel 7: note On G3 velocity: 0
timestamp 153773000 us: [96 3C 00] channel 7: note On C4 velocity: 0
timestamp 153783000 us: [96 40 00] channel 7: note On E4 velocity: 0
timestamp 153873000 us: [94 3E 6F] channel 5: note On D4 velocity: 111
timestamp 153883000 us: [94 4A 64] channel 5: note On D5 velocity: 100
timestamp 153883000 us: [98 4F 00] channel 9: note On G5 velocity: 0
timestamp 153883000 us: [98 4A 00] channel 9: note On D5 velocity: 0
timestamp 153893000 us: [95 32 32] channel 6: note On D3 velocity: 50
timestamp 153893000 us: [96 37 45] channel 7: note On G3 velocity: 69
timestamp 153903000 us: [98 4A 5F] channel 9: note On D5 velocity: 95
timestamp 153903000 us: [98 4F 5C] channel 9: note On G5 velocity: 92
timestamp 153903000 us: [99 2A 29] channel 10: note On F#2 velocity: 41
timestamp 153903000 us: [99 2A 00] channel 10: note On F#2 velocity: 0
timestamp 153923000 us: [92 37 46] channel 3: note On G3 velocity: 70
timestamp 153923000 us: [92 3B 46] channel 3: note On B3 velocity: 70
timestamp 153923000 us: [92 3E 49] channel 3: note On D4 velocity: 73
timestamp 153993000 us: [95 32 00] channel 6: note On D3 velocity: 0
timestamp 153993000 us: [98 4A 00] channel 9: note On D5 velocity: 0
timestamp 154023000 us: [98 4F 00] channel 9: note On G5 velocity: 0
timestamp 154043000 us: [96 37 00] channel 7: note On G3 velocity: 0
timestamp 154053000 us: [95 32 49] channel 6: note On D3 velocity: 73
timestamp 154053000 us: [96 37 52] channel 7: note On G3 velocity: 82
timestamp 154053000 us: [99 23 71] channel 10: note On B1 velocity: 113
timestamp 154053000 us: [99 2A 39] channel 10: note On F#2 velocity: 57
timestamp 154063000 us: [99 2A 00] channel 10: note On F#2 velocity: 0
timestamp 154063000 us: [99 23 00] channel 10: note On B1 velocity: 0
timestamp 154063000 us: [96 3B 4A] channel 7: note On B3 velocity: 74
timestamp 154083000 us: [96 3E 51] channel 7: note On D4 velocity: 81
timestamp 154273000 us: [92 37 00] channel 3: note On G3 velocity: 0
timestamp 154293000 us: [92 3B 00] channel 3: note On B3 velocity: 0
timestamp 154313000 us: [95 32 00] channel 6: note On D3 velocity: 0
timestamp 154333000 us: [92 3E 00] channel 3: note On D4 velocity: 0
timestamp 154343000 us: [96 3E 00] channel 7: note On D4 velocity: 0
timestamp 154343000 us: [96 3B 00] channel 7: note On B3 velocity: 0
timestamp 154353000 us: [96 37 00] channel 7: note On G3 velocity: 0
timestamp 154363000 us: [95 32 34] channel 6: note On D3 velocity: 52
timestamp 154363000 us: [96 37 45] channel 7: note On G3 velocity: 69
timestamp 154363000 us: [99 2A 3C] channel 10: note On F#2 velocity: 60
timestamp 154363000 us: [99 28 60] channel 10: note On E2 velocity: 96
timestamp 154373000 us: [99 2A 00] channel 10: note On F#2 velocity: 0
timestamp 154373000 us: [99 28 00] channel 10: note On E2 velocity: 0
timestamp 154383000 us: [92 37 49] channel 3: note On G3 velocity: 73
timestamp 154463000 us: [92 37 00] channel 3: note On G3 velocity: 0
timestamp 154493000 us: [95 32 00] channel 6: note On D3 velocity: 0
timestamp 154513000 us: [95 30 3B] channel 6: note On C3 velocity: 59
timestamp 154513000 us: [95 34 4F] channel 6: note On E3 velocity: 79
timestamp 154523000 us: [96 3C 62] channel 7: note On C4 velocity: 98
timestamp 154523000 us: [99 23 71] channel 10: note On B1 velocity: 113
timestamp 154523000 us: [99 2A 42] channel 10: note On F#2 velocity: 66
timestamp 154523000 us: [92 3C 5A] channel 3: note On C4 velocity: 90
timestamp 154523000 us: [92 40 5A] channel 3: note On E4 velocity: 90
timestamp 154523000 us: [99 28 50] channel 10: note On E2 velocity: 80
timestamp 154533000 us: [92 37 52] channel 3: note On G3 velocity: 82
timestamp 154533000 us: [99 2A 00] channel 10: note On F#2 velocity: 0
timestamp 154533000 us: [99 23 00] channel 10: note On B1 velocity: 0
timestamp 154533000 us: [99 28 00] channel 10: note On E2 velocity: 0
timestamp 154543000 us: [96 40 5F] channel 7: note On E4 velocity: 95
timestamp 154583000 us: [92 40 00] channel 3: note On E4 velocity: 0
timestamp 154583000 us: [92 3C 00] channel 3: note On C4 velocity: 0
timestamp 154583000 us: [92 37 00] channel 3: note On G3 velocity: 0
timestamp 154623000 us: [95 34 00] channel 6: note On E3 velocity: 0
timestamp 154623000 us: [95 30 00] channel 6: note On C3 velocity: 0
timestamp 154693000 us: [96 37 00] channel 7: note On G3 velocity: 0
timestamp 154693000 us: [91 1F 00] channel 2: note On G1 velocity: 0
timestamp 154703000 us: [96 3C 00] channel 7: note On C4 velocity: 0
timestamp 154713000 us: [96 40 00] channel 7: note On E4 velocity: 0
timestamp 154743000 us: [94 4A 00] channel 5: note On D5 velocity: 0
timestamp 154743000 us: [94 3E 00] channel 5: note On D4 velocity: 0
timestamp 154823000 us: [93 43 52] channel 4: note On G4 velocity: 82
timestamp 154823000 us: [95 32 31] channel 6: note On D3 velocity: 49
timestamp 154833000 us: [96 37 45] channel 7: note On G3 velocity: 69
timestamp 154833000 us: [99 28 4C] channel 10: note On E2 velocity: 76
timestamp 154833000 us: [99 28 00] channel 10: note On E2 velocity: 0
timestamp 154853000 us: [92 37 44] channel 3: note On G3 velocity: 68
timestamp 154853000 us: [92 3B 49] channel 3: note On B3 velocity: 73
timestamp 154853000 us: [92 3E 4B] channel 3: note On D4 velocity: 75
timestamp 154963000 us: [93 43 00] channel 4: note On G4 velocity: 0
timestamp 154973000 us: [95 32 00] channel 6: note On D3 velocity: 0
timestamp 154973000 us: [96 37 00] channel 7: note On G3 velocity: 0
timestamp 154983000 us: [91 1F 67] channel 2: note On G1 velocity: 103
timestamp 154983000 us: [93 47 69] channel 4: note On B4 velocity: 105
timestamp 154983000 us: [95 32 4F] channel 6: note On D3 velocity: 79
timestamp 154983000 us: [96 37 53] channel 7: note On G3 velocity: 83
timestamp 154983000 us: [99 23 72] channel 10: note On B1 velocity: 114
timestamp 154993000 us: [99 31 46] channel 10: note On C#3 velocity: 70
timestamp 154993000 us: [99 31 00] channel 10: note On C#3 velocity: 0
timestamp 154993000 us: [99 23 00] channel 10: note On B1 velocity: 0
timestamp 154993000 us: [96 3B 4B] channel 7: note On B3 velocity: 75
timestamp 155013000 us: [96 3E 52] channel 7: note On D4 velocity: 82
timestamp 155193000 us: [92 3E 00] channel 3: note On D4 velocity: 0
timestamp 155193000 us: [92 3B 00] channel 3: note On B3 velocity: 0
timestamp 155193000 us: [92 37 00] channel 3: note On G3 velocity: 0
timestamp 155233000 us: [93 47 00] channel 4: note On B4 velocity: 0
timestamp 155253000 us: [95 32 00] channel 6: note On D3 velocity: 0
timestamp 155273000 us: [96 3E 00] channel 7: note On D4 velocity: 0
timestamp 155273000 us: [96 3B 00] channel 7: note On B3 velocity: 0
timestamp 155283000 us: [96 37 00] channel 7: note On G3 velocity: 0
timestamp 155293000 us: [93 47 5E] channel 4: note On B4 velocity: 94
timestamp 155293000 us: [95 32 32] channel 6: note On D3 velocity: 50
timestamp 155293000 us: [96 37 49] channel 7: note On G3 velocity: 73
timestamp 155293000 us: [99 2A 2A] channel 10: note On F#2 velocity: 42
timestamp 155303000 us: [99 2A 00] channel 10: note On F#2 velocity: 0
timestamp 155313000 us: [92 37 4A] channel 3: note On G3 velocity: 74
timestamp 155363000 us: [95 32 00] channel 6: note On D3 velocity: 0
timestamp 155413000 us: [93 47 00] channel 4: note On B4 velocity: 0
timestamp 155413000 us: [92 37 00] channel 3: note On G3 velocity: 0
timestamp 155443000 us: [92 37 4A] channel 3: note On G3 velocity: 74
timestamp 155443000 us: [92 3C 56] channel 3: note On C4 velocity: 86
timestamp 155453000 us: [92 40 5B] channel 3: note On E4 velocity: 91
timestamp 155453000 us: [93 47 65] channel 4: note On B4 velocity: 101
timestamp 155453000 us: [95 30 3C] channel 6: note On C3 velocity: 60
timestamp 155453000 us: [95 34 51] channel 6: note On E3 velocity: 81
timestamp 155453000 us: [96 3C 63] channel 7: note On C4 velocity: 99
timestamp 155453000 us: [99 23 72] channel 10: note On B1 velocity: 114
timestamp 155453000 us: [99 2A 4E] channel 10: note On F#2 velocity: 78
timestamp 155463000 us: [99 28 61] channel 10: note On E2 velocity: 97
timestamp 155463000 us: [99 2A 00] channel 10: note On F#2 velocity: 0
timestamp 155463000 us: [99 23 00] channel 10: note On B1 velocity: 0
timestamp 155463000 us: [99 28 00] channel 10: note On E2 velocity: 0
timestamp 155473000 us: [96 40 60] channel 7: note On E4 velocity: 96
timestamp 155513000 us: [92 40 00] channel 3: note On E4 velocity: 0
timestamp 155513000 us: [92 3C 00] channel 3: note On C4 velocity: 0
timestamp 155513000 us: [92 37 00] channel 3: note On G3 velocity: 0
timestamp 155563000 us: [95 34 00] channel 6: note On E3 velocity: 0
timestamp 155563000 us: [95 30 00] channel 6: note On C3 velocity: 0
timestamp 155573000 us: [93 47 00] channel 4: note On B4 velocity: 0
timestamp 155603000 us: [93 47 56] channel 4: note On B4 velocity: 86
timestamp 155623000 us: [96 37 00] channel 7: note On G3 velocity: 0
timestamp 155633000 us: [96 3C 00] channel 7: note On C4 velocity: 0
timestamp 155643000 us: [96 40 00] channel 7: note On E4 velocity: 0
timestamp 155753000 us: [93 47 00] channel 4: note On B4 velocity: 0
timestamp 155753000 us: [93 43 67] channel 4: note On G4 velocity: 103
timestamp 155753000 us: [95 32 33] channel 6: note On D3 velocity: 51
timestamp 155763000 us: [96 37 46] channel 7: note On G3 velocity: 70
timestamp 155763000 us: [99 2A 2A] channel 10: note On F#2 velocity: 42
timestamp 155763000 us: [99 2A 00] channel 10: note On F#2 velocity: 0
timestamp 155783000 us: [92 37 4D] channel 3: note On G3 velocity: 77
timestamp 155783000 us: [92 3B 49] channel 3: note On B3 velocity: 73
timestamp 155783000 us: [92 3E 4A] channel 3: note On D4 velocity: 74
timestamp 155823000 us: [95 32 00] channel 6: note On D3 velocity: 0
timestamp 155903000 us: [96 37 00] channel 7: note On G3 velocity: 0
timestamp 155913000 us: [95 32 4A] channel 6: note On D3 velocity: 74
timestamp 155913000 us: [96 37 53] channel 7: note On G3 velocity: 83
timestamp 155913000 us: [99 23 72] channel 10: note On B1 velocity: 114
timestamp 155913000 us: [99 2A 3A] channel 10: note On F#2 velocity: 58
timestamp 155923000 us: [99 2A 00] channel 10: note On F#2 velocity: 0
timestamp 155923000 us: [99 23 00] channel 10: note On B1 velocity: 0
timestamp 155923000 us: [96 3B 4B] channel 7: note On B3 velocity: 75
timestamp 155943000 us: [96 3E 52] channel 7: note On D4 velocity: 82
timestamp 155993000 us: [93 43 00] channel 4: note On G4 velocity: 0
timestamp 156063000 us: [93 43 64] channel 4: note On G4 velocity: 100
timestamp 156083000 us: [92 37 00] channel 3: note On G3 velocity: 0
timestamp 156133000 us: [92 3B 00] channel 3: note On B3 velocity: 0
timestamp 156163000 us: [92 3E 00] channel 3: note On D4 velocity: 0
timestamp 156173000 us: [95 32 00] channel 6: note On D3 velocity: 0
timestamp 156203000 us: [96 3E 00] channel 7: note On D4 velocity: 0
timestamp 156203000 us: [96 3B 00] channel 7: note On B3 velocity: 0
timestamp 156213000 us: [96 37 00] channel 7: note On G3 velocity: 0
timestamp 156223000 us: [95 32 36] channel 6: note On D3 velocity: 54
timestamp 156223000 us: [96 37 46] channel 7: note On G3 velocity: 70
timestamp 156223000 us: [99 2A 2A] channel 10: note On F#2 velocity: 42
timestamp 156233000 us: [99 2A 00] channel 10: note On F#2 velocity: 0
timestamp 156243000 us: [92 37 4D] channel 3: note On G3 velocity: 77
timestamp 156283000 us: [93 43 00] channel 4: note On G4 velocity: 0
timestamp 156343000 us: [92 37 00] channel 3: note On G3 velocity: 0
timestamp 156373000 us: [95 30 3D] channel 6: note On C3 velocity: 61
timestamp 156373000 us: [95 34 51] channel 6: note On E3 velocity: 81
timestamp 156383000 us: [96 3C 63] channel 7: note On C4 velocity: 99
timestamp 156383000 us: [99 23 72] channel 10: note On B1 velocity: 114
timestamp 156383000 us: [99 2A 4E] channel 10: note On F#2 velocity: 78
timestamp 156383000 us: [92 37 56] channel 3: note On G3 velocity: 86
timestamp 156383000 us: [92 3C 58] channel 3: note On C4 velocity: 88
timestamp 156383000 us: [92 40 5A] channel 3: note On E4 velocity: 90
timestamp 156383000 us: [95 34 00] channel 6: note On E3 velocity: 0
timestamp 156393000 us: [99 28 61] channel 10: note On E2 velocity: 97
timestamp 156393000 us: [99 2A 00] channel 10: note On F#2 velocity: 0
timestamp 156393000 us: [99 23 00] channel 10: note On B1 velocity: 0
timestamp 156393000 us: [99 28 00] channel 10: note On E2 velocity: 0
timestamp 156403000 us: [96 40 60] channel 7: note On E4 velocity: 96
timestamp 156443000 us: [92 40 00] channel 3: note On E4 velocity: 0
timestamp 156443000 us: [92 3C 00] channel 3: note On C4 velocity: 0
timestamp 156443000 us: [92 37 00] channel 3: note On G3 velocity: 0
timestamp 156493000 us: [95 30 00] channel 6: note On C3 velocity: 0
timestamp 156493000 us: [95 32 00] channel 6: note On D3 velocity: 0
timestamp 156553000 us: [96 37 00] channel 7: note On G3 velocity: 0
timestamp 156563000 us: [96 3C 00] channel 7: note On C4 velocity: 0
timestamp 156573000 us: [96 40 00] channel 7: note On E4 velocity: 0
timestamp 156683000 us: [93 43 44] channel 4: note On G4 velocity: 68
timestamp 156683000 us: [95 32 34] channel 6: note On D3 velocity: 52
timestamp 156693000 us: [96 37 46] channel 7: note On G3 velocity: 70
timestamp 156693000 us: [99 2A 2A] channel 10: note On F#2 velocity: 42
timestamp 156693000 us: [99 2A 00] channel 10: note On F#2 velocity: 0
timestamp 156713000 us: [92 37 46] channel 3: note On G3 velocity: 70
timestamp 156713000 us: [92 3B 47] channel 3: note On B3 velocity: 71
timestamp 156723000 us: [92 3E 4A] channel 3: note On D4 velocity: 74
timestamp 156763000 us: [93 43 00] channel 4: note On G4 velocity: 0
timestamp 156783000 us: [95 32 00] channel 6: note On D3 velocity: 0
timestamp 156833000 us: [96 37 00] channel 7: note On G3 velocity: 0
timestamp 156843000 us: [93 47 65] channel 4: note On B4 velocity: 101
timestamp 156843000 us: [95 32 47] channel 6: note On D3 velocity: 71
timestamp 156843000 us: [96 37 53] channel 7: note On G3 velocity: 83
timestamp 156843000 us: [99 23 72] channel 10: note On B1 velocity: 114
timestamp 156853000 us: [99 2A 3A] channel 10: note On F#2 velocity: 58
timestamp 156853000 us: [99 2A 00] channel 10: note On F#2 velocity: 0
timestamp 156853000 us: [99 23 00] channel 10: note On B1 velocity: 0
timestamp 156853000 us: [96 3B 4B] channel 7: note On B3 velocity: 75
timestamp 156873000 us: [96 3E 52] channel 7: note On D4 velocity: 82
timestamp 157033000 us: [92 37 00] channel 3: note On G3 velocity: 0
timestamp 157073000 us: [93 47 00] channel 4: note On B4 velocity: 0
timestamp 157093000 us: [92 3B 00] channel 3: note On B3 velocity: 0
timestamp 157093000 us: [92 3E 00] channel 3: note On D4 velocity: 0
timestamp 157113000 us: [95 32 00] channel 6: note On D3 velocity: 0
timestamp 157133000 us: [96 3E 00] channel 7: note On D4 velocity: 0
timestamp 157133000 us: [96 3B 00] channel 7: note On B3 velocity: 0
timestamp 157143000 us: [96 37 00] channel 7: note On G3 velocity: 0
timestamp 157153000 us: [93 47 59] channel 4: note On B4 velocity: 89
timestamp 157153000 us: [95 32 37] channel 6: note On D3 velocity: 55
timestamp 157153000 us: [96 37 49] channel 7: note On G3 velocity: 73
timestamp 157153000 us: [99 2A 2A] channel 10: note On F#2 velocity: 42
timestamp 157163000 us: [99 2A 00] channel 10: note On F#2 velocity: 0
timestamp 157173000 us: [92 37 4B] channel 3: note On G3 velocity: 75
timestamp 157263000 us: [93 47 00] channel 4: note On B4 velocity: 0
timestamp 157273000 us: [92 37 00] channel 3: note On G3 velocity: 0
timestamp 157303000 us: [95 32 00] channel 6: note On D3 velocity: 0
timestamp 157303000 us: [92 37 53] channel 3: note On G3 velocity: 83
timestamp 157303000 us: [92 3C 5A] channel 3: note On C4 velocity: 90
timestamp 157313000 us: [92 40 5A] channel 3: note On E4 velocity: 90
timestamp 157313000 us: [93 47 60] channel 4: note On B4 velocity: 96
timestamp 157313000 us: [95 30 3C] channel 6: note On C3 velocity: 60
timestamp 157313000 us: [95 34 50] channel 6: note On E3 velocity: 80
timestamp 157313000 us: [96 3C 63] channel 7: note On C4 velocity: 99
timestamp 157313000 us: [99 23 72] channel 10: note On B1 velocity: 114
timestamp 157323000 us: [99 2A 4E] channel 10: note On F#2 velocity: 78
timestamp 157323000 us: [99 28 61] channel 10: note On E2 velocity: 97
timestamp 157323000 us: [99 2A 00] channel 10: note On F#2 velocity: 0
timestamp 157323000 us: [99 23 00] channel 10: note On B1 velocity: 0
timestamp 157323000 us: [99 28 00] channel 10: note On E2 velocity: 0
timestamp 157333000 us: [96 40 60] channel 7: note On E4 velocity: 96
timestamp 157373000 us: [92 40 00] channel 3: note On E4 velocity: 0
timestamp 157373000 us: [92 3C 00] channel 3: note On C4 velocity: 0
timestamp 157373000 us: [92 37 00] channel 3: note On G3 velocity: 0
timestamp 157453000 us: [95 34 00] channel 6: note On E3 velocity: 0
timestamp 157453000 us: [95 30 00] channel 6: note On C3 velocity: 0
timestamp 157483000 us: [96 37 00] channel 7: note On G3 velocity: 0
timestamp 157493000 us: [96 3C 00] channel 7: note On C4 velocity: 0
timestamp 157503000 us: [96 40 00] channel 7: note On E4 velocity: 0
timestamp 157553000 us: [93 47 00] channel 4: note On B4 velocity: 0
timestamp 157613000 us: [93 47 59] channel 4: note On B4 velocity: 89
timestamp 157623000 us: [95 32 33] channel 6: note On D3 velocity: 51
timestamp 157623000 us: [96 37 46] channel 7: note On G3 velocity: 70
timestamp 157623000 us: [99 2A 2A] channel 10: note On F#2 velocity: 42
timestamp 157623000 us: [99 2A 00] channel 10: note On F#2 velocity: 0
timestamp 157643000 us: [92 37 47] channel 3: note On G3 velocity: 71
timestamp 157643000 us: [92 3B 47] channel 3: note On B3 velocity: 71
timestamp 157653000 us: [92 3E 4A] channel 3: note On D4 velocity: 74
timestamp 157713000 us: [95 32 00] channel 6: note On D3 velocity: 0
timestamp 157733000 us: [93 47 00] channel 4: note On B4 velocity: 0
timestamp 157763000 us: [96 37 00] channel 7: note On G3 velocity: 0
timestamp 157773000 us: [93 43 59] channel 4: note On G4 velocity: 89
timestamp 157773000 us: [95 32 4A] channel 6: note On D3 velocity: 74
timestamp 157773000 us: [96 37 53] channel 7: note On G3 velocity: 83
timestamp 157773000 us: [99 23 72] channel 10: note On B1 velocity: 114
timestamp 157773000 us: [99 2A 3A] channel 10: note On F#2 velocity: 58
timestamp 157783000 us: [99 2A 00] channel 10: note On F#2 velocity: 0
timestamp 157783000 us: [99 23 00] channel 10: note On B1 velocity: 0
timestamp 157783000 us: [96 3B 4B] channel 7: note On B3 velocity: 75
timestamp 157803000 us: [96 3E 52] channel 7: note On D4 velocity: 82
timestamp 157993000 us: [92 37 00] channel 3: note On G3 velocity: 0
timestamp 158013000 us: [92 3B 00] channel 3: note On B3 velocity: 0
timestamp 158033000 us: [95 32 00] channel 6: note On D3 velocity: 0
timestamp 158043000 us: [93 43 00] channel 4: note On G4 velocity: 0
timestamp 158053000 us: [92 3E 00] channel 3: note On D4 velocity: 0
timestamp 158063000 us: [96 3E 00] channel 7: note On D4 velocity: 0
timestamp 158063000 us: [96 3B 00] channel 7: note On B3 velocity: 0
timestamp 158073000 us: [96 37 00] channel 7: note On G3 velocity: 0
timestamp 158083000 us: [95 32 35] channel 6: note On D3 velocity: 53
timestamp 158083000 us: [96 37 46] channel 7: note On G3 velocity: 70
timestamp 158083000 us: [99 2A 2A] channel 10: note On F#2 velocity: 42
timestamp 158093000 us: [99 2A 00] channel 10: note On F#2 velocity: 0
timestamp 158103000 us: [92 37 4A] channel 3: note On G3 velocity: 74
timestamp 158183000 us: [92 37 00] channel 3: note On G3 velocity: 0
timestamp 158213000 us: [95 32 00] channel 6: note On D3 velocity: 0
timestamp 158233000 us: [92 3C 5B] channel 3: note On C4 velocity: 91
timestamp 158243000 us: [95 30 3C] channel 6: note On C3 velocity: 60
timestamp 158243000 us: [95 34 50] channel 6: note On E3 velocity: 80
timestamp 158243000 us: [96 3C 63] channel 7: note On C4 velocity: 99
timestamp 158243000 us: [99 23 72] channel 10: note On B1 velocity: 114
timestamp 158243000 us: [99 2A 4E] channel 10: note On F#2 velocity: 78
timestamp 158243000 us: [92 37 53] channel 3: note On G3 velocity: 83
timestamp 158243000 us: [92 40 5B] channel 3: note On E4 velocity: 91
timestamp 158253000 us: [99 28 61] channel 10: note On E2 velocity: 97
timestamp 158253000 us: [99 2A 00] channel 10: note On F#2 velocity: 0
timestamp 158253000 us: [99 23 00] channel 10: note On B1 velocity: 0
timestamp 158253000 us: [99 28 00] channel 10: note On E2 velocity: 0
timestamp 158263000 us: [96 40 60] channel 7: note On E4 velocity: 96
timestamp 158303000 us: [92 3C 00] channel 3: note On C4 velocity: 0
timestamp 158303000 us: [92 40 00] channel 3: note On E4 velocity: 0
timestamp 158303000 us: [92 37 00] channel 3: note On G3 velocity: 0
timestamp 158343000 us: [95 34 00] channel 6: note On E3 velocity: 0
timestamp 158353000 us: [95 30 00] channel 6: note On C3 velocity: 0
timestamp 158413000 us: [96 37 00] channel 7: note On G3 velocity: 0
timestamp 158423000 us: [96 3C 00] channel 7: note On C4 velocity: 0
timestamp 158433000 us: [96 40 00] channel 7: note On E4 velocity: 0
timestamp 158543000 us: [91 1F 00] channel 2: note On G1 velocity: 0
timestamp 158543000 us: [93 43 57] channel 4: note On G4 velocity: 87
timestamp 158553000 us: [95 32 32] channel 6: note On D3 velocity: 50
timestamp 158553000 us: [96 37 46] channel 7: note On G3 velocity: 70
timestamp 158553000 us: [99 2A 2A] channel 10: note On F#2 velocity: 42
timestamp 158553000 us: [99 2A 00] channel 10: note On F#2 velocity: 0
timestamp 158573000 us: [91 1F 67] channel 2: note On G1 velocity: 103
timestamp 158573000 us: [92 37 45] channel 3: note On G3 velocity: 69
timestamp 158583000 us: [92 3B 4A] channel 3: note On B3 velocity: 74
timestamp 158583000 us: [92 3E 4C] channel 3: note On D4 velocity: 76
timestamp 158673000 us: [93 43 00] channel 4: note On G4 velocity: 0
timestamp 158693000 us: [95 32 00] channel 6: note On D3 velocity: 0
timestamp 158693000 us: [96 37 00] channel 7: note On G3 velocity: 0
timestamp 158703000 us: [93 47 69] channel 4: note On B4 velocity: 105
timestamp 158703000 us: [95 32 4F] channel 6: note On D3 velocity: 79
timestamp 158703000 us: [96 37 53] channel 7: note On G3 velocity: 83
timestamp 158703000 us: [99 23 72] channel 10: note On B1 velocity: 114
timestamp 158703000 us: [99 2A 3A] channel 10: note On F#2 velocity: 58
timestamp 158713000 us: [99 2A 00] channel 10: note On F#2 velocity: 0
timestamp 158713000 us: [99 23 00] channel 10: note On B1 velocity: 0
timestamp 158713000 us: [96 3B 4B] channel 7: note On B3 velocity: 75
timestamp 158733000 us: [96 3E 52] channel 7: note On D4 velocity: 82
timestamp 158913000 us: [92 37 00] channel 3: note On G3 velocity: 0
timestamp 158913000 us: [92 3E 00] channel 3: note On D4 velocity: 0
timestamp 158913000 us: [92 3B 00] channel 3: note On B3 velocity: 0
timestamp 158933000 us: [93 47 00] channel 4: note On B4 velocity: 0
timestamp 158973000 us: [95 32 00] channel 6: note On D3 velocity: 0
timestamp 158993000 us: [96 3E 00] channel 7: note On D4 velocity: 0
timestamp 158993000 us: [96 3B 00] channel 7: note On B3 velocity: 0
timestamp 159003000 us: [96 37 00] channel 7: note On G3 velocity: 0
timestamp 159013000 us: [93 47 59] channel 4: note On B4 velocity: 89
timestamp 159013000 us: [95 32 32] channel 6: note On D3 velocity: 50
timestamp 159013000 us: [96 37 49] channel 7: note On G3 velocity: 73
timestamp 159013000 us: [99 2A 2A] channel 10: note On F#2 velocity: 42
timestamp 159023000 us: [99 2A 00] channel 10: note On F#2 velocity: 0
timestamp 159033000 us: [92 37 4A] channel 3: note On G3 velocity: 74
timestamp 159093000 us: [95 32 00] channel 6: note On D3 velocity: 0
timestamp 159113000 us: [93 47 00] channel 4: note On B4 velocity: 0
timestamp 159133000 us: [92 37 00] channel 3: note On G3 velocity: 0
timestamp 159163000 us: [93 48 64] channel 4: note On C5 velocity: 100
timestamp 159173000 us: [95 30 3C] channel 6: note On C3 velocity: 60
timestamp 159173000 us: [95 34 51] channel 6: note On E3 velocity: 81
timestamp 159173000 us: [96 3C 63] channel 7: note On C4 velocity: 99
timestamp 159173000 us: [98 4A 60] channel 9: note On D5 velocity: 96
timestamp 159173000 us: [98 4F 5B] channel 9: note On G5 velocity: 91
timestamp 159173000 us: [99 23 72] channel 10: note On B1 velocity: 114
timestamp 159173000 us: [99 2A 4E] channel 10: note On F#2 velocity: 78
timestamp 159183000 us: [92 37 4A] channel 3: note On G3 velocity: 74
timestamp 159183000 us: [92 3C 56] channel 3: note On C4 velocity: 86
timestamp 159183000 us: [92 40 5B] channel 3: note On E4 velocity: 91
timestamp 159183000 us: [99 28 61] channel 10: note On E2 velocity: 97
timestamp 159193000 us: [99 2A 00] channel 10: note On F#2 velocity: 0
timestamp 159193000 us: [99 23 00] channel 10: note On B1 velocity: 0
timestamp 159193000 us: [99 28 00] channel 10: note On E2 velocity: 0
timestamp 159193000 us: [96 40 60] channel 7: note On E4 velocity: 96
timestamp 159233000 us: [92 40 00] channel 3: note On E4 velocity: 0
timestamp 159233000 us: [92 3C 00] channel 3: note On C4 velocity: 0
timestamp 159233000 us: [92 37 00] channel 3: note On G3 velocity: 0
timestamp 159283000 us: [95 34 00] channel 6: note On E3 velocity: 0
timestamp 159283000 us: [95 30 00] channel 6: note On C3 velocity: 0
timestamp 159343000 us: [96 37 00] channel 7: note On G3 velocity: 0
timestamp 159353000 us: [96 3C 00] channel 7: note On C4 velocity: 0
timestamp 159363000 us: [96 40 00] channel 7: note On E4 velocity: 0
timestamp 159423000 us: [93 48 00] channel 4: note On C5 velocity: 0
timestamp 159463000 us: [98 4F 00] channel 9: note On G5 velocity: 0
timestamp 159463000 us: [98 4A 00] channel 9: note On D5 velocity: 0
timestamp 159473000 us: [93 48 62] channel 4: note On C5 velocity: 98
timestamp 159483000 us: [95 32 33] channel 6: note On D3 velocity: 51
timestamp 159483000 us: [96 37 46] channel 7: note On G3 velocity: 70
timestamp 159483000 us: [98 4A 60] channel 9: note On D5 velocity: 96
timestamp 159483000 us: [98 4F 5D] channel 9: note On G5 velocity: 93
timestamp 159483000 us: [99 2A 2A] channel 10: note On F#2 velocity: 42
timestamp 159483000 us: [99 2A 00] channel 10: note On F#2 velocity: 0
timestamp 159503000 us: [92 37 4D] channel 3: note On G3 velocity: 77
timestamp 159503000 us: [92 3B 49] channel 3: note On B3 velocity: 73
timestamp 159513000 us: [92 3E 4A] channel 3: note On D4 velocity: 74
timestamp 159543000 us: [95 32 00] channel 6: note On D3 velocity: 0
timestamp 159583000 us: [98 4A 00] channel 9: note On D5 velocity: 0
timestamp 159603000 us: [98 4F 00] channel 9: note On G5 velocity: 0
timestamp 159613000 us: [93 48 00] channel 4: note On C5 velocity: 0
timestamp 159623000 us: [96 37 00] channel 7: note On G3 velocity: 0
timestamp 159633000 us: [93 4A 64] channel 4: note On D5 velocity: 100
timestamp 159633000 us: [95 32 4A] channel 6: note On D3 velocity: 74
timestamp 159633000 us: [96 37 53] channel 7: note On G3 velocity: 83
timestamp 159633000 us: [99 23 72] channel 10: note On B1 velocity: 114
timestamp 159633000 us: [99 2A 3A] channel 10: note On F#2 velocity: 58
timestamp 159643000 us: [99 2A 00] channel 10: note On F#2 velocity: 0
timestamp 159643000 us: [99 23 00] channel 10: note On B1 velocity: 0
timestamp 159643000 us: [96 3B 4B] channel 7: note On B3 velocity: 75
timestamp 159663000 us: [96 3E 52] channel 7: note On D4 velocity: 82
timestamp 159803000 us: [92 37 00] channel 3: note On G3 velocity: 0
timestamp 159833000 us: [93 4A 00] channel 4: note On D5 velocity: 0
timestamp 159853000 us: [92 3B 00] channel 3: note On B3 velocity: 0
timestamp 159883000 us: [92 3E 00] channel 3: note On D4 velocity: 0
timestamp 159893000 us: [95 32 00] channel 6: note On D3 velocity: 0
timestamp 159923000 us: [96 3E 00] channel 7: note On D4 velocity: 0
timestamp 159923000 us: [96 3B 00] channel 7: note On B3 velocity: 0
timestamp 159933000 us: [96 37 00] channel 7: note On G3 velocity: 0
timestamp 159943000 us: [93 4A 5B] channel 4: note On D5 velocity: 91
timestamp 159943000 us: [95 32 36] channel 6: note On D3 velocity: 54
timestamp 159943000 us: [96 37 46] channel 7: note On G3 velocity: 70
timestamp 159943000 us: [98 4A 3E] channel 9: note On D5 velocity: 62
timestamp 159943000 us: [99 2A 2A] channel 10: note On F#2 velocity: 42
timestamp 159953000 us: [99 2A 00] channel 10: note On F#2 velocity: 0
timestamp 159963000 us: [92 37 4D] channel 3: note On G3 velocity: 77
timestamp 160053000 us: [98 4A 00] channel 9: note On D5 velocity: 0
timestamp 160063000 us: [92 37 00] channel 3: note On G3 velocity: 0
timestamp 160073000 us: [93 4A 00] channel 4: note On D5 velocity: 0
timestamp 160093000 us: [95 30 3D] channel 6: note On C3 velocity: 61
timestamp 160103000 us: [95 34 51] channel 6: note On E3 velocity: 81
timestamp 160103000 us: [96 3C 63] channel 7: note On C4 velocity: 99
timestamp 160103000 us: [98 4A 5D] channel 9: note On D5 velocity: 93
timestamp 160103000 us: [98 4F 64] channel 9: note On G5 velocity: 100
timestamp 160103000 us: [99 23 72] channel 10: note On B1 velocity: 114
timestamp 160103000 us: [99 2A 4E] channel 10: note On F#2 velocity: 78
timestamp 160103000 us: [92 37 56] channel 3: note On G3 velocity: 86
timestamp 160113000 us: [92 3C 58] channel 3: note On C4 velocity: 88
timestamp 160113000 us: [92 40 5A] channel 3: note On E4 velocity: 90
timestamp 160113000 us: [95 34 00] channel 6: note On E3 velocity: 0
timestamp 160113000 us: [99 28 61] channel 10: note On E2 velocity: 97
timestamp 160113000 us: [99 2A 00] channel 10: note On F#2 velocity: 0
timestamp 160113000 us: [99 23 00] channel 10: note On B1 velocity: 0
timestamp 160113000 us: [99 28 00] channel 10: note On E2 velocity: 0
timestamp 160123000 us: [96 40 60] channel 7: note On E4 velocity: 96
timestamp 160163000 us: [92 40 00] channel 3: note On E4 velocity: 0
timestamp 160163000 us: [92 3C 00] channel 3: note On C4 velocity: 0
timestamp 160163000 us: [92 37 00] channel 3: note On G3 velocity: 0
timestamp 160213000 us: [95 30 00] channel 6: note On C3 velocity: 0
timestamp 160213000 us: [95 32 00] channel 6: note On D3 velocity: 0
timestamp 160273000 us: [96 37 00] channel 7: note On G3 velocity: 0
timestamp 160283000 us: [96 3C 00] channel 7: note On C4 velocity: 0
timestamp 160293000 us: [96 40 00] channel 7: note On E4 velocity: 0
timestamp 160393000 us: [98 4F 00] channel 9: note On G5 velocity: 0
timestamp 160393000 us: [98 4A 00] channel 9: note On D5 velocity: 0
timestamp 160403000 us: [93 4A 59] channel 4: note On D5 velocity: 89
timestamp 160413000 us: [95 32 34] channel 6: note On D3 velocity: 52
timestamp 160413000 us: [96 37 46] channel 7: note On G3 velocity: 70
timestamp 160413000 us: [98 4A 5F] channel 9: note On D5 velocity: 95
timestamp 160413000 us: [98 4F 59] channel 9: note On G5 velocity: 89
timestamp 160413000 us: [99 2A 2A] channel 10: note On F#2 velocity: 42
timestamp 160413000 us: [99 2A 00] channel 10: note On F#2 velocity: 0
timestamp 160433000 us: [92 37 46] channel 3: note On G3 velocity: 70
timestamp 160433000 us: [92 3B 47] channel 3: note On B3 velocity: 71
timestamp 160443000 us: [92 3E 4A] channel 3: note On D4 velocity: 74
timestamp 160493000 us: [93 4A 00] channel 4: note On D5 velocity: 0
timestamp 160503000 us: [95 32 00] channel 6: note On D3 velocity: 0
timestamp 160513000 us: [98 4A 00] channel 9: note On D5 velocity: 0
timestamp 160523000 us: [98 4F 00] channel 9: note On G5 velocity: 0
timestamp 160553000 us: [96 37 00] channel 7: note On G3 velocity: 0
timestamp 160563000 us: [93 4A 62] channel 4: note On D5 velocity: 98
timestamp 160563000 us: [95 32 47] channel 6: note On D3 velocity: 71
timestamp 160563000 us: [96 37 53] channel 7: note On G3 velocity: 83
timestamp 160563000 us: [99 23 72] channel 10: note On B1 velocity: 114
timestamp 160573000 us: [99 2A 3A] channel 10: note On F#2 velocity: 58
timestamp 160573000 us: [99 2A 00] channel 10: note On F#2 velocity: 0
timestamp 160573000 us: [99 23 00] channel 10: note On B1 velocity: 0
timestamp 160573000 us: [96 3B 4B] channel 7: note On B3 velocity: 75
timestamp 160593000 us: [96 3E 52] channel 7: note On D4 velocity: 82
timestamp 160753000 us: [92 37 00] channel 3: note On G3 velocity: 0
timestamp 160793000 us: [93 4A 00] channel 4: note On D5 velocity: 0
timestamp 160813000 us: [92 3B 00] channel 3: note On B3 velocity: 0
timestamp 160823000 us: [92 3E 00] channel 3: note On D4 velocity: 0
timestamp 160833000 us: [95 32 00] channel 6: note On D3 velocity: 0
timestamp 160853000 us: [96 3E 00] channel 7: note On D4 velocity: 0
timestamp 160853000 us: [96 3B 00] channel 7: note On B3 velocity: 0
timestamp 160863000 us: [96 37 00] channel 7: note On G3 velocity: 0
timestamp 160873000 us: [93 4A 5D] channel 4: note On D5 velocity: 93
timestamp 160873000 us: [95 32 37] channel 6: note On D3 velocity: 55
timestamp 160883000 us: [96 37 49] channel 7: note On G3 velocity: 73
timestamp 160883000 us: [99 2A 2A] channel 10: note On F#2 velocity: 42
timestamp 160883000 us: [99 2A 00] channel 10: note On F#2 velocity: 0
timestamp 160893000 us: [92 37 4B] channel 3: note On G3 velocity: 75
timestamp 160983000 us: [93 4A 00] channel 4: note On D5 velocity: 0
timestamp 160993000 us: [92 37 00] channel 3: note On G3 velocity: 0
timestamp 161023000 us: [95 32 00] channel 6: note On D3 velocity: 0
timestamp 161023000 us: [92 3C 5A] channel 3: note On C4 velocity: 90
timestamp 161033000 us: [92 40 5A] channel 3: note On E4 velocity: 90
timestamp 161033000 us: [93 4A 59] channel 4: note On D5 velocity: 89
timestamp 161033000 us: [95 30 3C] channel 6: note On C3 velocity: 60
timestamp 161033000 us: [95 34 50] channel 6: note On E3 velocity: 80
timestamp 161033000 us: [96 3C 63] channel 7: note On C4 velocity: 99
timestamp 161033000 us: [98 4A 60] channel 9: note On D5 velocity: 96
timestamp 161033000 us: [98 4F 5B] channel 9: note On G5 velocity: 91
timestamp 161043000 us: [99 23 72] channel 10: note On B1 velocity: 114
timestamp 161043000 us: [99 2A 4E] channel 10: note On F#2 velocity: 78
timestamp 161043000 us: [92 37 53] channel 3: note On G3 velocity: 83
timestamp 161043000 us: [99 28 61] channel 10: note On E2 velocity: 97
timestamp 161043000 us: [99 2A 00] channel 10: note On F#2 velocity: 0
timestamp 161043000 us: [99 23 00] channel 10: note On B1 velocity: 0
timestamp 161053000 us: [99 28 00] channel 10: note On E2 velocity: 0
timestamp 161053000 us: [96 40 60] channel 7: note On E4 velocity: 96
timestamp 161093000 us: [92 40 00] channel 3: note On E4 velocity: 0
timestamp 161093000 us: [92 3C 00] channel 3: note On C4 velocity: 0
timestamp 161093000 us: [92 37 00] channel 3: note On G3 velocity: 0
timestamp 161173000 us: [95 34 00] channel 6: note On E3 velocity: 0
timestamp 161173000 us: [95 30 00] channel 6: note On C3 velocity: 0
timestamp 161203000 us: [96 37 00] channel 7: note On G3 velocity: 0
timestamp 161213000 us: [96 3C 00] channel 7: note On C4 velocity: 0
timestamp 161223000 us: [96 40 00] channel 7: note On E4 velocity: 0
timestamp 161253000 us: [93 4A 00] channel 4: note On D5 velocity: 0
timestamp 161323000 us: [98 4F 00] channel 9: note On G5 velocity: 0
timestamp 161323000 us: [98 4A 00] channel 9: note On D5 velocity: 0
timestamp 161333000 us: [93 4C 5D] channel 4: note On E5 velocity: 93
timestamp 161343000 us: [95 32 33] channel 6: note On D3 velocity: 51
timestamp 161343000 us: [96 37 46] channel 7: note On G3 velocity: 70
timestamp 161343000 us: [98 4A 60] channel 9: note On D5 velocity: 96
timestamp 161343000 us: [98 4F 5D] channel 9: note On G5 velocity: 93
timestamp 161343000 us: [99 2A 2A] channel 10: note On F#2 velocity: 42
timestamp 161343000 us: [99 2A 00] channel 10: note On F#2 velocity: 0
timestamp 161363000 us: [92 37 47] channel 3: note On G3 velocity: 71
timestamp 161363000 us: [92 3B 47] channel 3: note On B3 velocity: 71
timestamp 161373000 us: [92 3E 4A] channel 3: note On D4 velocity: 74
timestamp 161443000 us: [95 32 00] channel 6: note On D3 velocity: 0
timestamp 161443000 us: [98 4A 00] channel 9: note On D5 velocity: 0
timestamp 161463000 us: [98 4F 00] channel 9: note On G5 velocity: 0
timestamp 161483000 us: [93 4C 00] channel 4: note On E5 velocity: 0
timestamp 161483000 us: [96 37 00] channel 7: note On G3 velocity: 0
timestamp 161493000 us: [93 47 65] channel 4: note On B4 velocity: 101
timestamp 161493000 us: [95 32 4A] channel 6: note On D3 velocity: 74
timestamp 161493000 us: [96 37 53] channel 7: note On G3 velocity: 83
timestamp 161493000 us: [99 23 72] channel 10: note On B1 velocity: 114
timestamp 161503000 us: [99 2A 3A] channel 10: note On F#2 velocity: 58
timestamp 161503000 us: [99 2A 00] channel 10: note On F#2 velocity: 0
timestamp 161503000 us: [99 23 00] channel 10: note On B1 velocity: 0
timestamp 161503000 us: [96 3B 4B] channel 7: note On B3 velocity: 75
timestamp 161523000 us: [96 3E 52] channel 7: note On D4 velocity: 82
timestamp 161713000 us: [92 37 00] channel 3: note On G3 velocity: 0
timestamp 161743000 us: [92 3B 00] channel 3: note On B3 velocity: 0
timestamp 161743000 us: [93 47 00] channel 4: note On B4 velocity: 0
timestamp 161753000 us: [95 32 00] channel 6: note On D3 velocity: 0
timestamp 161773000 us: [92 3E 00] channel 3: note On D4 velocity: 0
timestamp 161783000 us: [96 3E 00] channel 7: note On D4 velocity: 0
timestamp 161783000 us: [96 3B 00] channel 7: note On B3 velocity: 0
timestamp 161793000 us: [96 37 00] channel 7: note On G3 velocity: 0
timestamp 161803000 us: [93 43 60] channel 4: note On G4 velocity: 96
timestamp 161803000 us: [95 32 35] channel 6: note On D3 velocity: 53
timestamp 161803000 us: [96 37 46] channel 7: note On G3 velocity: 70
timestamp 161803000 us: [98 4A 3E] channel 9: note On D5 velocity: 62
timestamp 161813000 us: [99 2A 3D] channel 10: note On F#2 velocity: 61
timestamp 161813000 us: [99 28 61] channel 10: note On E2 velocity: 97
timestamp 161813000 us: [99 2A 00] channel 10: note On F#2 velocity: 0
timestamp 161813000 us: [99 28 00] channel 10: note On E2 velocity: 0
timestamp 161823000 us: [92 37 4A] channel 3: note On G3 velocity: 74
timestamp 161903000 us: [92 37 00] channel 3: note On G3 velocity: 0
timestamp 161913000 us: [98 4A 00] channel 9: note On D5 velocity: 0
timestamp 161933000 us: [95 32 00] channel 6: note On D3 velocity: 0
timestamp 161953000 us: [93 43 00] channel 4: note On G4 velocity: 0
timestamp 161953000 us: [93 43 60] channel 4: note On G4 velocity: 96
timestamp 161963000 us: [95 30 3C] channel 6: note On C3 velocity: 60
timestamp 161963000 us: [95 34 50] channel 6: note On E3 velocity: 80
timestamp 161963000 us: [96 3C 63] channel 7: note On C4 velocity: 99
timestamp 161963000 us: [97 43 53] channel 8: note On G4 velocity: 83
timestamp 161963000 us: [97 47 65] channel 8: note On B4 velocity: 101
timestamp 161963000 us: [98 4A 5D] channel 9: note On D5 velocity: 93
timestamp 161973000 us: [98 4F 64] channel 9: note On G5 velocity: 100
timestamp 161973000 us: [99 23 72] channel 10: note On B1 velocity: 114
timestamp 161973000 us: [99 2A 43] channel 10: note On F#2 velocity: 67
timestamp 161973000 us: [92 3C 5B] channel 3: note On C4 velocity: 91
timestamp 161973000 us: [92 40 5B] channel 3: note On E4 velocity: 91
timestamp 161973000 us: [99 28 51] channel 10: note On E2 velocity: 81
timestamp 161983000 us: [92 37 53] channel 3: note On G3 velocity: 83
timestamp 161983000 us: [99 2A 00] channel 10: note On F#2 velocity: 0
timestamp 161983000 us: [99 23 00] channel 10: note On B1 velocity: 0
timestamp 161983000 us: [99 28 00] channel 10: note On E2 velocity: 0
timestamp 161983000 us: [96 40 60] channel 7: note On E4 velocity: 96
timestamp 162073000 us: [95 34 00] channel 6: note On E3 velocity: 0
timestamp 162073000 us: [95 30 00] channel 6: note On C3 velocity: 0
timestamp 162133000 us: [96 37 00] channel 7: note On G3 velocity: 0
timestamp 162143000 us: [96 3C 00] channel 7: note On C4 velocity: 0
timestamp 162153000 us: [96 40 00] channel 7: note On E4 velocity: 0
timestamp 162153000 us: [92 40 00] channel 3: note On E4 velocity: 0
timestamp 162153000 us: [92 3C 00] channel 3: note On C4 velocity: 0
timestamp 162163000 us: [92 37 00] channel 3: note On G3 velocity: 0
timestamp 162253000 us: [98 4F 00] channel 9: note On G5 velocity: 0
timestamp 162253000 us: [98 4A 00] channel 9: note On D5 velocity: 0
timestamp 162263000 us: [93 43 00] channel 4: note On G4 velocity: 0
timestamp 162263000 us: [92 35 1C] channel 3: note On F3 velocity: 28
timestamp 162273000 us: [93 41 5C] channel 4: note On F4 velocity: 92
timestamp 162273000 us: [95 32 32] channel 6: note On D3 velocity: 50
timestamp 162273000 us: [96 37 46] channel 7: note On G3 velocity: 70
timestamp 162273000 us: [97 41 50] channel 8: note On F4 velocity: 80
timestamp 162273000 us: [97 45 62] channel 8: note On A4 velocity: 98
timestamp 162273000 us: [98 48 5F] channel 9: note On C5 velocity: 95
timestamp 162283000 us: [98 4D 59] channel 9: note On F5 velocity: 89
timestamp 162283000 us: [99 28 4D] channel 10: note On E2 velocity: 77
timestamp 162283000 us: [97 45 00] channel 8: note On A4 velocity: 0
timestamp 162283000 us: [97 47 00] channel 8: note On B4 velocity: 0
timestamp 162283000 us: [99 28 00] channel 10: note On E2 velocity: 0
timestamp 162343000 us: [92 35 00] channel 3: note On F3 velocity: 0
timestamp 162413000 us: [95 32 00] channel 6: note On D3 velocity: 0
timestamp 162413000 us: [91 1F 00] channel 2: note On G1 velocity: 0
timestamp 162423000 us: [96 37 00] channel 7: note On G3 velocity: 0
timestamp 162423000 us: [91 1D 67] channel 2: note On F1 velocity: 103
timestamp 162423000 us: [92 35 4D] channel 3: note On F3 velocity: 77
timestamp 162423000 us: [92 39 50] channel 3: note On A3 velocity: 80
timestamp 162423000 us: [92 3C 49] channel 3: note On C4 velocity: 73
timestamp 162433000 us: [95 30 4F] channel 6: note On C3 velocity: 79
timestamp 162433000 us: [96 35 53] channel 7: note On F3 velocity: 83
timestamp 162433000 us: [99 23 72] channel 10: note On B1 velocity: 114
timestamp 162433000 us: [99 31 46] channel 10: note On C#3 velocity: 70
timestamp 162433000 us: [99 31 00] channel 10: note On C#3 velocity: 0
timestamp 162433000 us: [99 23 00] channel 10: note On B1 velocity: 0
timestamp 162443000 us: [96 39 4B] channel 7: note On A3 velocity: 75
timestamp 162453000 us: [96 3C 52] channel 7: note On C4 velocity: 82
timestamp 162503000 us: [98 4D 00] channel 9: note On F5 velocity: 0
timestamp 162503000 us: [98 48 00] channel 9: note On C5 velocity: 0
timestamp 162613000 us: [92 35 00] channel 3: note On F3 velocity: 0
timestamp 162663000 us: [97 41 00] channel 8: note On F4 velocity: 0
timestamp 162663000 us: [97 43 00] channel 8: note On G4 velocity: 0
timestamp 162683000 us: [92 3C 00] channel 3: note On C4 velocity: 0
timestamp 162683000 us: [93 41 00] channel 4: note On F4 velocity: 0
timestamp 162693000 us: [95 30 00] channel 6: note On C3 velocity: 0
timestamp 162713000 us: [96 3C 00] channel 7: note On C4 velocity: 0
timestamp 162723000 us: [96 39 00] channel 7: note On A3 velocity: 0
timestamp 162723000 us: [96 35 00] channel 7: note On F3 velocity: 0
timestamp 162733000 us: [92 35 5B] channel 3: note On F3 velocity: 91
timestamp 162733000 us: [95 30 32] channel 6: note On C3 velocity: 50
timestamp 162733000 us: [96 35 49] channel 7: note On F3 velocity: 73
timestamp 162733000 us: [99 2A 2A] channel 10: note On F#2 velocity: 42
timestamp 162743000 us: [99 2A 00] channel 10: note On F#2 velocity: 0
timestamp 162773000 us: [92 39 00] channel 3: note On A3 velocity: 0
timestamp 162813000 us: [95 30 00] channel 6: note On C3 velocity: 0
timestamp 162883000 us: [92 3A 57] channel 3: note On A#3 velocity: 87
timestamp 162893000 us: [92 3E 57] channel 3: note On D4 velocity: 87
timestamp 162893000 us: [95 2E 3C] channel 6: note On A#2 velocity: 60
timestamp 162893000 us: [95 32 51] channel 6: note On D3 velocity: 81
timestamp 162893000 us: [96 3A 63] channel 7: note On A#3 velocity: 99
timestamp 162893000 us: [99 23 72] channel 10: note On B1 velocity: 114
timestamp 162893000 us: [99 2A 4E] channel 10: note On F#2 velocity: 78
timestamp 162903000 us: [99 28 61] channel 10: note On E2 velocity: 97
timestamp 162903000 us: [99 2A 00] channel 10: note On F#2 velocity: 0
timestamp 162903000 us: [99 23 00] channel 10: note On B1 velocity: 0
timestamp 162903000 us: [99 28 00] channel 10: note On E2 velocity: 0
timestamp 162913000 us: [96 3E 60] channel 7: note On D4 velocity: 96
timestamp 163013000 us: [95 32 00] channel 6: note On D3 velocity: 0
timestamp 163013000 us: [95 2E 00] channel 6: note On A#2 velocity: 0
timestamp 163063000 us: [96 35 00] channel 7: note On F3 velocity: 0
timestamp 163073000 us: [96 3A 00] channel 7: note On A#3 velocity: 0
timestamp 163083000 us: [92 3E 00] channel 3: note On D4 velocity: 0
timestamp 163083000 us: [96 3E 00] channel 7: note On D4 velocity: 0
timestamp 163103000 us: [92 35 00] channel 3: note On F3 velocity: 0
timestamp 163123000 us: [92 3A 00] channel 3: note On A#3 velocity: 0
timestamp 163193000 us: [92 35 54] channel 3: note On F3 velocity: 84
timestamp 163203000 us: [92 39 54] channel 3: note On A3 velocity: 84
timestamp 163203000 us: [92 3C 49] channel 3: note On C4 velocity: 73
timestamp 163203000 us: [95 30 33] channel 6: note On C3 velocity: 51
timestamp 163203000 us: [96 35 46] channel 7: note On F3 velocity: 70
timestamp 163203000 us: [99 2A 2A] channel 10: note On F#2 velocity: 42
timestamp 163213000 us: [99 2A 00] channel 10: note On F#2 velocity: 0
timestamp 163263000 us: [95 30 00] channel 6: note On C3 velocity: 0
timestamp 163343000 us: [96 35 00] channel 7: note On F3 velocity: 0
timestamp 163353000 us: [95 30 4A] channel 6: note On C3 velocity: 74
timestamp 163353000 us: [96 35 53] channel 7: note On F3 velocity: 83
timestamp 163363000 us: [99 23 72] channel 10: note On B1 velocity: 114
timestamp 163363000 us: [99 2A 3A] channel 10: note On F#2 velocity: 58
timestamp 163363000 us: [99 2A 00] channel 10: note On F#2 velocity: 0
timestamp 163363000 us: [99 23 00] channel 10: note On B1 velocity: 0
timestamp 163363000 us: [96 39 4B] channel 7: note On A3 velocity: 75
timestamp 163383000 us: [96 3C 52] channel 7: note On C4 velocity: 82
timestamp 163613000 us: [95 30 00] channel 6: note On C3 velocity: 0
timestamp 163643000 us: [96 3C 00] channel 7: note On C4 velocity: 0
timestamp 163653000 us: [96 39 00] channel 7: note On A3 velocity: 0
timestamp 163653000 us: [96 35 00] channel 7: note On F3 velocity: 0
timestamp 163663000 us: [95 30 36] channel 6: note On C3 velocity: 54
timestamp 163663000 us: [96 35 46] channel 7: note On F3 velocity: 70
timestamp 163663000 us: [99 2A 2A] channel 10: note On F#2 velocity: 42
timestamp 163673000 us: [99 2A 00] channel 10: note On F#2 velocity: 0
timestamp 163823000 us: [93 41 62] channel 4: note On F4 velocity: 98
timestamp 163823000 us: [95 2E 3D] channel 6: note On A#2 velocity: 61
timestamp 163823000 us: [95 32 51] channel 6: note On D3 velocity: 81
timestamp 163823000 us: [96 3A 63] channel 7: note On A#3 velocity: 99
timestamp 163823000 us: [97 41 50] channel 8: note On F4 velocity: 80
timestamp 163823000 us: [97 45 62] channel 8: note On A4 velocity: 98
timestamp 163823000 us: [99 23 72] channel 10: note On B1 velocity: 114
timestamp 163833000 us: [99 2A 4E] channel 10: note On F#2 velocity: 78
timestamp 163833000 us: [95 32 00] channel 6: note On D3 velocity: 0
timestamp 163833000 us: [99 28 61] channel 10: note On E2 velocity: 97
timestamp 163833000 us: [99 2A 00] channel 10: note On F#2 velocity: 0
timestamp 163833000 us: [99 23 00] channel 10: note On B1 velocity: 0
timestamp 163833000 us: [99 28 00] channel 10: note On E2 velocity: 0
timestamp 163843000 us: [96 3E 60] channel 7: note On D4 velocity: 96
timestamp 163933000 us: [95 2E 00] channel 6: note On A#2 velocity: 0
timestamp 163933000 us: [95 30 00] channel 6: note On C3 velocity: 0
timestamp 163993000 us: [96 35 00] channel 7: note On F3 velocity: 0
timestamp 164003000 us: [96 3A 00] channel 7: note On A#3 velocity: 0
timestamp 164013000 us: [96 3E 00] channel 7: note On D4 velocity: 0
timestamp 164073000 us: [92 35 00] channel 3: note On F3 velocity: 0
timestamp 164093000 us: [97 45 00] channel 8: note On A4 velocity: 0
timestamp 164093000 us: [97 41 00] channel 8: note On F4 velocity: 0
timestamp 164103000 us: [92 39 00] channel 3: note On A3 velocity: 0
timestamp 164123000 us: [91 1D 00] channel 2: note On F1 velocity: 0
timestamp 164123000 us: [93 41 00] channel 4: note On F4 velocity: 0
timestamp 164133000 us: [92 37 49] channel 3: note On G3 velocity: 73
timestamp 164133000 us: [93 43 62] channel 4: note On G4 velocity: 98
timestamp 164133000 us: [95 30 34] channel 6: note On C3 velocity: 52
timestamp 164133000 us: [96 35 46] channel 7: note On F3 velocity: 70
timestamp 164133000 us: [97 40 51] channel 8: note On E4 velocity: 81
timestamp 164133000 us: [97 43 63] channel 8: note On G4 velocity: 99
timestamp 164133000 us: [99 2A 2A] channel 10: note On F#2 velocity: 42
timestamp 164143000 us: [92 3C 00] channel 3: note On C4 velocity: 0
timestamp 164143000 us: [99 2A 00] channel 10: note On F#2 velocity: 0
timestamp 164153000 us: [91 24 67] channel 2: note On C2 velocity: 103
timestamp 164223000 us: [95 30 00] channel 6: note On C3 velocity: 0
timestamp 164263000 us: [92 37 00] channel 3: note On G3 velocity: 0
timestamp 164273000 us: [96 35 00] channel 7: note On F3 velocity: 0
timestamp 164283000 us: [92 37 53] channel 3: note On G3 velocity: 83
timestamp 164283000 us: [92 3C 5B] channel 3: note On C4 velocity: 91
timestamp 164283000 us: [92 40 5B] channel 3: note On E4 velocity: 91
timestamp 164283000 us: [95 37 47] channel 6: note On G3 velocity: 71
timestamp 164293000 us: [96 37 53] channel 7: note On G3 velocity: 83
timestamp 164293000 us: [99 23 72] channel 10: note On B1 velocity: 114
timestamp 164293000 us: [99 2A 3A] channel 10: note On F#2 velocity: 58
timestamp 164293000 us: [99 2A 00] channel 10: note On F#2 velocity: 0
timestamp 164293000 us: [99 23 00] channel 10: note On B1 velocity: 0
timestamp 164293000 us: [96 3C 4B] channel 7: note On C4 velocity: 75
timestamp 164313000 us: [96 40 52] channel 7: note On E4 velocity: 82
timestamp 164503000 us: [93 43 00] channel 4: note On G4 velocity: 0
timestamp 164513000 us: [97 43 00] channel 8: note On G4 velocity: 0
timestamp 164513000 us: [97 40 00] channel 8: note On E4 velocity: 0
timestamp 164563000 us: [95 37 00] channel 6: note On G3 velocity: 0
timestamp 164573000 us: [92 3C 00] channel 3: note On C4 velocity: 0
timestamp 164573000 us: [92 37 00] channel 3: note On G3 velocity: 0
timestamp 164573000 us: [92 40 00] channel 3: note On E4 velocity: 0
timestamp 164583000 us: [96 40 00] channel 7: note On E4 velocity: 0
timestamp 164583000 us: [96 3C 00] channel 7: note On C4 velocity: 0
timestamp 164583000 us: [96 37 00] channel 7: note On G3 velocity: 0
timestamp 164593000 us: [92 37 3B] channel 3: note On G3 velocity: 59
timestamp 164593000 us: [92 3C 46] channel 3: note On C4 velocity: 70
timestamp 164593000 us: [95 37 37] channel 6: note On G3 velocity: 55
timestamp 164593000 us: [96 37 49] channel 7: note On G3 velocity: 73
timestamp 164603000 us: [99 2A 2A] channel 10: note On F#2 velocity: 42
timestamp 164603000 us: [99 2A 00] channel 10: note On F#2 velocity: 0
timestamp 164743000 us: [92 37 00] channel 3: note On G3 velocity: 0
timestamp 164743000 us: [95 37 00] channel 6: note On G3 velocity: 0
timestamp 164753000 us: [92 37 37] channel 3: note On G3 velocity: 55
timestamp 164753000 us: [92 41 5B] channel 3: note On F4 velocity: 91
timestamp 164753000 us: [95 35 3C] channel 6: note On F3 velocity: 60
timestamp 164753000 us: [95 39 50] channel 6: note On A3 velocity: 80
timestamp 164753000 us: [96 3C 63] channel 7: note On C4 velocity: 99
timestamp 164753000 us: [99 23 72] channel 10: note On B1 velocity: 114
timestamp 164753000 us: [99 2A 4E] channel 10: note On F#2 velocity: 78
timestamp 164763000 us: [99 28 61] channel 10: note On E2 velocity: 97
timestamp 164763000 us: [99 2A 00] channel 10: note On F#2 velocity: 0
timestamp 164763000 us: [99 23 00] channel 10: note On B1 velocity: 0
timestamp 164763000 us: [99 28 00] channel 10: note On E2 velocity: 0
timestamp 164773000 us: [96 41 60] channel 7: note On F4 velocity: 96
timestamp 164893000 us: [95 39 00] channel 6: note On A3 velocity: 0
timestamp 164893000 us: [95 35 00] channel 6: note On F3 velocity: 0
timestamp 164923000 us: [96 37 00] channel 7: note On G3 velocity: 0
timestamp 164933000 us: [96 3C 00] channel 7: note On C4 velocity: 0
timestamp 164943000 us: [96 41 00] channel 7: note On F4 velocity: 0
timestamp 164983000 us: [92 3C 00] channel 3: note On C4 velocity: 0
timestamp 165033000 us: [92 37 00] channel 3: note On G3 velocity: 0
timestamp 165033000 us: [92 41 00] channel 3: note On F4 velocity: 0
timestamp 165063000 us: [92 37 4D] channel 3: note On G3 velocity: 77
timestamp 165063000 us: [92 3C 46] channel 3: note On C4 velocity: 70
timestamp 165063000 us: [92 40 5E] channel 3: note On E4 velocity: 94
timestamp 165063000 us: [95 37 33] channel 6: note On G3 velocity: 51
timestamp 165063000 us: [96 37 46] channel 7: note On G3 velocity: 70
timestamp 165063000 us: [99 2A 2A] channel 10: note On F#2 velocity: 42
timestamp 165063000 us: [99 2A 00] channel 10: note On F#2 velocity: 0
timestamp 165163000 us: [95 37 00] channel 6: note On G3 velocity: 0
timestamp 165203000 us: [96 37 00] channel 7: note On G3 velocity: 0
timestamp 165213000 us: [95 37 4A] channel 6: note On G3 velocity: 74
timestamp 165213000 us: [96 37 53] channel 7: note On G3 velocity: 83
timestamp 165213000 us: [99 23 72] channel 10: note On B1 velocity: 114
timestamp 165223000 us: [99 2A 3A] channel 10: note On F#2 velocity: 58
timestamp 165223000 us: [99 2A 00] channel 10: note On F#2 velocity: 0
timestamp 165223000 us: [99 23 00] channel 10: note On B1 velocity: 0
timestamp 165223000 us: [96 3C 4B] channel 7: note On C4 velocity: 75
timestamp 165243000 us: [96 40 52] channel 7: note On E4 velocity: 82
timestamp 165473000 us: [95 37 00] channel 6: note On G3 velocity: 0
timestamp 165513000 us: [96 40 00] channel 7: note On E4 velocity: 0
timestamp 165513000 us: [96 3C 00] channel 7: note On C4 velocity: 0
timestamp 165513000 us: [96 37 00] channel 7: note On G3 velocity: 0
timestamp 165523000 us: [95 37 35] channel 6: note On G3 velocity: 53
timestamp 165523000 us: [96 37 46] channel 7: note On G3 velocity: 70
timestamp 165523000 us: [99 2A 2A] channel 10: note On F#2 velocity: 42
timestamp 165533000 us: [99 2A 00] channel 10: note On F#2 velocity: 0
timestamp 165663000 us: [95 37 00] channel 6: note On G3 velocity: 0
timestamp 165683000 us: [93 43 63] channel 4: note On G4 velocity: 99
timestamp 165683000 us: [95 35 3C] channel 6: note On F3 velocity: 60
timestamp 165683000 us: [95 39 50] channel 6: note On A3 velocity: 80
timestamp 165683000 us: [96 3C 63] channel 7: note On C4 velocity: 99
timestamp 165683000 us: [97 40 51] channel 8: note On E4 velocity: 81
timestamp 165683000 us: [97 43 63] channel 8: note On G4 velocity: 99
timestamp 165683000 us: [99 23 72] channel 10: note On B1 velocity: 114
timestamp 165693000 us: [99 2A 4E] channel 10: note On F#2 velocity: 78
timestamp 165693000 us: [99 28 61] channel 10: note On E2 velocity: 97
timestamp 165693000 us: [99 2A 00] channel 10: note On F#2 velocity: 0
timestamp 165693000 us: [99 23 00] channel 10: note On B1 velocity: 0
timestamp 165693000 us: [99 28 00] channel 10: note On E2 velocity: 0
timestamp 165703000 us: [96 41 60] channel 7: note On F4 velocity: 96
timestamp 165793000 us: [95 39 00] channel 6: note On A3 velocity: 0
timestamp 165793000 us: [95 35 00] channel 6: note On F3 velocity: 0
timestamp 165853000 us: [96 37 00] channel 7: note On G3 velocity: 0
timestamp 165863000 us: [96 3C 00] channel 7: note On C4 velocity: 0
timestamp 165873000 us: [96 41 00] channel 7: note On F4 velocity: 0
timestamp 165933000 us: [91 24 00] channel 2: note On C2 velocity: 0
timestamp 165943000 us: [92 37 00] channel 3: note On G3 velocity: 0
timestamp 165943000 us: [92 3C 00] channel 3: note On C4 velocity: 0
timestamp 165943000 us: [93 43 00] channel 4: note On G4 velocity: 0
timestamp 165943000 us: [92 40 00] channel 3: note On E4 velocity: 0
timestamp 165953000 us: [97 43 00] channel 8: note On G4 velocity: 0
timestamp 165953000 us: [97 40 00] channel 8: note On E4 velocity: 0
timestamp 165993000 us: [92 37 3B] channel 3: note On G3 velocity: 59
timestamp 165993000 us: [93 3E 57] channel 4: note On D4 velocity: 87
timestamp 165993000 us: [95 37 32] channel 6: note On G3 velocity: 50
timestamp 165993000 us: [96 37 46] channel 7: note On G3 velocity: 70
timestamp 165993000 us: [97 3E 4B] channel 8: note On D4 velocity: 75
timestamp 165993000 us: [97 43 5D] channel 8: note On G4 velocity: 93
timestamp 165993000 us: [99 2A 2A] channel 10: note On F#2 velocity: 42
timestamp 166003000 us: [99 2A 00] channel 10: note On F#2 velocity: 0
timestamp 166013000 us: [91 1F 67] channel 2: note On G1 velocity: 103
timestamp 166123000 us: [E4 00 0C] channel 5: pitch wheel change 1536
timestamp 166133000 us: [94 4F 73] channel 5: note On G5 velocity: 115
timestamp 166133000 us: [94 5B 6D] channel 5: note On G6 velocity: 109
timestamp 166133000 us: [95 37 00] channel 6: note On G3 velocity: 0
timestamp 166143000 us: [92 37 00] channel 3: note On G3 velocity: 0
timestamp 166143000 us: [96 37 00] channel 7: note On G3 velocity: 0
timestamp 166143000 us: [95 32 4F] channel 6: note On D3 velocity: 79
timestamp 166143000 us: [96 37 53] channel 7: note On G3 velocity: 83
timestamp 166143000 us: [99 23 72] channel 10: note On B1 velocity: 114
timestamp 166153000 us: [99 2A 3A] channel 10: note On F#2 velocity: 58
timestamp 166153000 us: [92 37 45] channel 3: note On G3 velocity: 69
timestamp 166153000 us: [92 3B 51] channel 3: note On B3 velocity: 81
timestamp 166153000 us: [92 3E 54] channel 3: note On D4 velocity: 84
timestamp 166153000 us: [99 2A 00] channel 10: note On F#2 velocity: 0
timestamp 166153000 us: [99 23 00] channel 10: note On B1 velocity: 0
timestamp 166163000 us: [96 3B 4B] channel 7: note On B3 velocity: 75
timestamp 166173000 us: [96 3E 52] channel 7: note On D4 velocity: 82
timestamp 166283000 us: [E4 00 16] channel 5: pitch wheel change 2816
timestamp 166303000 us: [E4 00 24] channel 5: pitch wheel change 4608
timestamp 166323000 us: [E4 00 30] channel 5: pitch wheel change 6144
timestamp 166343000 us: [E4 00 37] channel 5: pitch wheel change 7040
timestamp 166363000 us: [E4 00 40] channel 5: pitch wheel change 8192
timestamp 166373000 us: [92 37 00] channel 3: note On G3 velocity: 0
timestamp 166373000 us: [92 3B 00] channel 3: note On B3 velocity: 0
timestamp 166373000 us: [92 3E 00] channel 3: note On D4 velocity: 0
timestamp 166373000 us: [97 43 00] channel 8: note On G4 velocity: 0
timestamp 166373000 us: [97 3E 00] channel 8: note On D4 velocity: 0
timestamp 166393000 us: [93 3E 00] channel 4: note On D4 velocity: 0
timestamp 166413000 us: [95 32 00] channel 6: note On D3 velocity: 0
timestamp 166443000 us: [96 3E 00] channel 7: note On D4 velocity: 0
timestamp 166443000 us: [96 3B 00] channel 7: note On B3 velocity: 0
timestamp 166443000 us: [96 37 00] channel 7: note On G3 velocity: 0
timestamp 166453000 us: [95 32 32] channel 6: note On D3 velocity: 50
timestamp 166453000 us: [96 37 49] channel 7: note On G3 velocity: 73
timestamp 166463000 us: [99 2A 2A] channel 10: note On F#2 velocity: 42
timestamp 166463000 us: [99 2A 00] channel 10: note On F#2 velocity: 0
timestamp 166473000 us: [92 37 4A] channel 3: note On G3 velocity: 74
timestamp 166533000 us: [95 32 00] channel 6: note On D3 velocity: 0
timestamp 166583000 us: [92 37 00] channel 3: note On G3 velocity: 0
timestamp 166613000 us: [95 30 3C] channel 6: note On C3 velocity: 60
timestamp 166613000 us: [95 34 51] channel 6: note On E3 velocity: 81
timestamp 166613000 us: [96 3C 63] channel 7: note On C4 velocity: 99
timestamp 166613000 us: [98 4A 60] channel 9: note On D5 velocity: 96
timestamp 166613000 us: [98 4F 5B] channel 9: note On G5 velocity: 91
timestamp 166613000 us: [99 23 72] channel 10: note On B1 velocity: 114
timestamp 166613000 us: [99 2A 4E] channel 10: note On F#2 velocity: 78
timestamp 166623000 us: [92 37 4A] channel 3: note On G3 velocity: 74
timestamp 166623000 us: [92 3C 56] channel 3: note On C4 velocity: 86
timestamp 166623000 us: [92 40 5B] channel 3: note On E4 velocity: 91
timestamp 166623000 us: [99 28 61] channel 10: note On E2 velocity: 97
timestamp 166633000 us: [E4 00 3D] channel 5: pitch wheel change 7808
timestamp 166633000 us: [99 2A 00] channel 10: note On F#2 velocity: 0
timestamp 166633000 us: [99 23 00] channel 10: note On B1 velocity: 0
timestamp 166633000 us: [99 28 00] channel 10: note On E2 velocity: 0
timestamp 166633000 us: [96 40 60] channel 7: note On E4 velocity: 96
timestamp 166673000 us: [92 40 00] channel 3: note On E4 velocity: 0
timestamp 166673000 us: [92 3C 00] channel 3: note On C4 velocity: 0
timestamp 166673000 us: [92 37 00] channel 3: note On G3 velocity: 0
timestamp 166693000 us: [E4 00 3B] channel 5: pitch wheel change 7552
timestamp 166733000 us: [95 34 00] channel 6: note On E3 velocity: 0
timestamp 166733000 us: [95 30 00] channel 6: note On C3 velocity: 0
timestamp 166783000 us: [96 37 00] channel 7: note On G3 velocity: 0
timestamp 166793000 us: [96 3C 00] channel 7: note On C4 velocity: 0
timestamp 166803000 us: [96 40 00] channel 7: note On E4 velocity: 0
timestamp 166803000 us: [E4 00 38] channel 5: pitch wheel change 7168
timestamp 166853000 us: [94 5B 00] channel 5: note On G6 velocity: 0
timestamp 166853000 us: [94 4F 00] channel 5: note On G5 velocity: 0
timestamp 166903000 us: [E4 00 40] channel 5: pitch wheel change 8192
timestamp 166903000 us: [94 4A 6C] channel 5: note On D5 velocity: 108
timestamp 166903000 us: [94 56 61] channel 5: note On D6 velocity: 97
timestamp 166913000 us: [98 4F 00] channel 9: note On G5 velocity: 0
timestamp 166913000 us: [98 4A 00] channel 9: note On D5 velocity: 0
timestamp 166923000 us: [95 32 33] channel 6: note On D3 velocity: 51
timestamp 166923000 us: [96 37 46] channel 7: note On G3 velocity: 70
timestamp 166923000 us: [98 4A 60] channel 9: note On D5 velocity: 96
timestamp 166923000 us: [98 4F 5D] channel 9: note On G5 velocity: 93
timestamp 166923000 us: [99 2A 2A] channel 10: note On F#2 velocity: 42
timestamp 166923000 us: [99 2A 00] channel 10: note On F#2 velocity: 0
timestamp 166943000 us: [92 37 4D] channel 3: note On G3 velocity: 77
timestamp 166953000 us: [92 3B 49] channel 3: note On B3 velocity: 73
timestamp 166953000 us: [92 3E 4A] channel 3: note On D4 velocity: 74
timestamp 166983000 us: [95 32 00] channel 6: note On D3 velocity: 0
timestamp 166993000 us: [94 56 00] channel 5: note On D6 velocity: 0
timestamp 166993000 us: [94 4A 00] channel 5: note On D5 velocity: 0
timestamp 167023000 us: [98 4A 00] channel 9: note On D5 velocity: 0
timestamp 167043000 us: [98 4F 00] channel 9: note On G5 velocity: 0
timestamp 167053000 us: [94 4D 6E] channel 5: note On F5 velocity: 110
timestamp 167053000 us: [94 59 63] channel 5: note On F6 velocity: 99
timestamp 167073000 us: [96 37 00] channel 7: note On G3 velocity: 0
timestamp 167073000 us: [95 32 4A] channel 6: note On D3 velocity: 74
timestamp 167073000 us: [96 37 53] channel 7: note On G3 velocity: 83
timestamp 167073000 us: [99 23 72] channel 10: note On B1 velocity: 114
timestamp 167083000 us: [99 2A 3A] channel 10: note On F#2 velocity: 58
timestamp 167083000 us: [99 2A 00] channel 10: note On F#2 velocity: 0
timestamp 167083000 us: [99 23 00] channel 10: note On B1 velocity: 0
timestamp 167093000 us: [96 3B 4B] channel 7: note On B3 velocity: 75
timestamp 167103000 us: [96 3E 52] channel 7: note On D4 velocity: 82
timestamp 167153000 us: [94 59 00] channel 5: note On F6 velocity: 0
timestamp 167153000 us: [94 4D 00] channel 5: note On F5 velocity: 0
timestamp 167213000 us: [94 4A 6A] channel 5: note On D5 velocity: 106
timestamp 167213000 us: [94 56 5F] channel 5: note On D6 velocity: 95
timestamp 167243000 us: [92 37 00] channel 3: note On G3 velocity: 0
timestamp 167293000 us: [92 3B 00] channel 3: note On B3 velocity: 0
timestamp 167313000 us: [94 56 00] channel 5: note On D6 velocity: 0
timestamp 167313000 us: [94 4A 00] channel 5: note On D5 velocity: 0
timestamp 167323000 us: [92 3E 00] channel 3: note On D4 velocity: 0
timestamp 167333000 us: [95 32 00] channel 6: note On D3 velocity: 0
timestamp 167363000 us: [94 47 6C] channel 5: note On B4 velocity: 108
timestamp 167363000 us: [94 53 61] channel 5: note On B5 velocity: 97
timestamp 167373000 us: [96 3E 00] channel 7: note On D4 velocity: 0
timestamp 167373000 us: [96 3B 00] channel 7: note On B3 velocity: 0
timestamp 167373000 us: [96 37 00] channel 7: note On G3 velocity: 0
timestamp 167383000 us: [95 32 36] channel 6: note On D3 velocity: 54
timestamp 167383000 us: [96 37 46] channel 7: note On G3 velocity: 70
timestamp 167383000 us: [98 4A 3E] channel 9: note On D5 velocity: 62
timestamp 167393000 us: [99 2A 2A] channel 10: note On F#2 velocity: 42
timestamp 167393000 us: [99 2A 00] channel 10: note On F#2 velocity: 0
timestamp 167403000 us: [92 37 4D] channel 3: note On G3 velocity: 77
timestamp 167453000 us: [94 53 00] channel 5: note On B5 velocity: 0
timestamp 167453000 us: [94 47 00] channel 5: note On B4 velocity: 0
timestamp 167493000 us: [98 4A 00] channel 9: note On D5 velocity: 0
timestamp 167503000 us: [92 37 00] channel 3: note On G3 velocity: 0
timestamp 167523000 us: [94 43 6A] channel 5: note On G4 velocity: 106
timestamp 167523000 us: [94 4F 5F] channel 5: note On G5 velocity: 95
timestamp 167543000 us: [95 30 3D] channel 6: note On C3 velocity: 61
timestamp 167543000 us: [95 34 51] channel 6: note On E3 velocity: 81
timestamp 167543000 us: [96 3C 63] channel 7: note On C4 velocity: 99
timestamp 167543000 us: [98 4A 5D] channel 9: note On D5 velocity: 93
timestamp 167543000 us: [98 4F 64] channel 9: note On G5 velocity: 100
timestamp 167543000 us: [99 23 72] channel 10: note On B1 velocity: 114
timestamp 167553000 us: [99 2A 4E] channel 10: note On F#2 velocity: 78
timestamp 167553000 us: [92 37 56] channel 3: note On G3 velocity: 86
timestamp 167553000 us: [92 3C 58] channel 3: note On C4 velocity: 88
timestamp 167553000 us: [92 40 5A] channel 3: note On E4 velocity: 90
timestamp 167553000 us: [95 34 00] channel 6: note On E3 velocity: 0
timestamp 167553000 us: [99 28 61] channel 10: note On E2 velocity: 97
timestamp 167563000 us: [99 2A 00] channel 10: note On F#2 velocity: 0
timestamp 167563000 us: [99 23 00] channel 10: note On B1 velocity: 0
timestamp 167563000 us: [99 28 00] channel 10: note On E2 velocity: 0
timestamp 167563000 us: [96 40 60] channel 7: note On E4 velocity: 96
timestamp 167603000 us: [92 40 00] channel 3: note On E4 velocity: 0
timestamp 167603000 us: [92 3C 00] channel 3: note On C4 velocity: 0
timestamp 167603000 us: [92 37 00] channel 3: note On G3 velocity: 0
timestamp 167613000 us: [94 4F 00] channel 5: note On G5 velocity: 0
timestamp 167613000 us: [94 43 00] channel 5: note On G4 velocity: 0
timestamp 167653000 us: [95 30 00] channel 6: note On C3 velocity: 0
timestamp 167653000 us: [95 32 00] channel 6: note On D3 velocity: 0
timestamp 167673000 us: [94 41 70] channel 5: note On F4 velocity: 112
timestamp 167673000 us: [94 4D 65] channel 5: note On F5 velocity: 101
timestamp 167713000 us: [96 37 00] channel 7: note On G3 velocity: 0
timestamp 167723000 us: [96 3C 00] channel 7: note On C4 velocity: 0
timestamp 167733000 us: [96 40 00] channel 7: note On E4 velocity: 0
timestamp 167763000 us: [94 4D 00] channel 5: note On F5 velocity: 0
timestamp 167763000 us: [94 41 00] channel 5: note On F4 velocity: 0
timestamp 167833000 us: [94 3E 6B] channel 5: note On D4 velocity: 107
timestamp 167833000 us: [94 4A 60] channel 5: note On D5 velocity: 96
timestamp 167843000 us: [98 4F 00] channel 9: note On G5 velocity: 0
timestamp 167843000 us: [98 4A 00] channel 9: note On D5 velocity: 0
timestamp 167853000 us: [95 32 34] channel 6: note On D3 velocity: 52
timestamp 167853000 us: [96 37 46] channel 7: note On G3 velocity: 70
timestamp 167853000 us: [98 4A 5F] channel 9: note On D5 velocity: 95
timestamp 167853000 us: [98 4F 59] channel 9: note On G5 velocity: 89
timestamp 167853000 us: [99 2A 2A] channel 10: note On F#2 velocity: 42
timestamp 167853000 us: [99 2A 00] channel 10: note On F#2 velocity: 0
timestamp 167883000 us: [92 37 46] channel 3: note On G3 velocity: 70
timestamp 167883000 us: [92 3B 47] channel 3: note On B3 velocity: 71
timestamp 167883000 us: [92 3E 4A] channel 3: note On D4 velocity: 74
timestamp 167923000 us: [94 4A 00] channel 5: note On D5 velocity: 0
timestamp 167923000 us: [94 3E 00] channel 5: note On D4 velocity: 0
timestamp 167943000 us: [95 32 00] channel 6: note On D3 velocity: 0
timestamp 167953000 us: [98 4A 00] channel 9: note On D5 velocity: 0
timestamp 167973000 us: [98 4F 00] channel 9: note On G5 velocity: 0
timestamp 167983000 us: [94 41 70] channel 5: note On F4 velocity: 112
timestamp 167983000 us: [94 4D 65] channel 5: note On F5 velocity: 101
timestamp 168003000 us: [96 37 00] channel 7: note On G3 velocity: 0
timestamp 168003000 us: [95 32 47] channel 6: note On D3 velocity: 71
timestamp 168003000 us: [96 37 53] channel 7: note On G3 velocity: 83
timestamp 168003000 us: [99 23 72] channel 10: note On B1 velocity: 114
timestamp 168013000 us: [99 2A 3A] channel 10: note On F#2 velocity: 58
timestamp 168013000 us: [99 2A 00] channel 10: note On F#2 velocity: 0
timestamp 168013000 us: [99 23 00] channel 10: note On B1 velocity: 0
timestamp 168023000 us: [96 3B 4B] channel 7: note On B3 velocity: 75
timestamp 168033000 us: [96 3E 52] channel 7: note On D4 velocity: 82
timestamp 168193000 us: [92 37 00] channel 3: note On G3 velocity: 0
timestamp 168233000 us: [94 4D 00] channel 5: note On F5 velocity: 0
timestamp 168233000 us: [94 41 00] channel 5: note On F4 velocity: 0
timestamp 168253000 us: [92 3B 00] channel 3: note On B3 velocity: 0
timestamp 168263000 us: [92 3E 00] channel 3: note On D4 velocity: 0
timestamp 168283000 us: [95 32 00] channel 6: note On D3 velocity: 0
timestamp 168293000 us: [94 43 6A] channel 5: note On G4 velocity: 106
timestamp 168293000 us: [94 4F 5F] channel 5: note On G5 velocity: 95
timestamp 168303000 us: [96 3E 00] channel 7: note On D4 velocity: 0
timestamp 168303000 us: [96 3B 00] channel 7: note On B3 velocity: 0
timestamp 168303000 us: [96 37 00] channel 7: note On G3 velocity: 0
timestamp 168313000 us: [95 32 37] channel 6: note On D3 velocity: 55
timestamp 168313000 us: [96 37 49] channel 7: note On G3 velocity: 73
timestamp 168313000 us: [99 2A 2A] channel 10: note On F#2 velocity: 42
timestamp 168323000 us: [99 2A 00] channel 10: note On F#2 velocity: 0
timestamp 168333000 us: [92 37 4B] channel 3: note On G3 velocity: 75
timestamp 168433000 us: [92 37 00] channel 3: note On G3 velocity: 0
timestamp 168463000 us: [95 32 00] channel 6: note On D3 velocity: 0
timestamp 168473000 us: [92 3C 5A] channel 3: note On C4 velocity: 90
timestamp 168473000 us: [92 40 5A] channel 3: note On E4 velocity: 90
timestamp 168473000 us: [95 30 3C] channel 6: note On C3 velocity: 60
timestamp 168473000 us: [95 34 50] channel 6: note On E3 velocity: 80
timestamp 168473000 us: [96 3C 63] channel 7: note On C4 velocity: 99
timestamp 168473000 us: [98 4A 60] channel 9: note On D5 velocity: 96
timestamp 168483000 us: [98 4F 5B] channel 9: note On G5 velocity: 91
timestamp 168483000 us: [99 23 72] channel 10: note On B1 velocity: 114
timestamp 168483000 us: [99 2A 4E] channel 10: note On F#2 velocity: 78
timestamp 168483000 us: [92 37 53] channel 3: note On G3 velocity: 83
timestamp 168483000 us: [99 28 61] channel 10: note On E2 velocity: 97
timestamp 168483000 us: [99 2A 00] channel 10: note On F#2 velocity: 0
timestamp 168493000 us: [99 23 00] channel 10: note On B1 velocity: 0
timestamp 168493000 us: [99 28 00] channel 10: note On E2 velocity: 0
timestamp 168493000 us: [96 40 60] channel 7: note On E4 velocity: 96
timestamp 168533000 us: [92 40 00] channel 3: note On E4 velocity: 0
timestamp 168533000 us: [92 3C 00] channel 3: note On C4 velocity: 0
timestamp 168543000 us: [92 37 00] channel 3: note On G3 velocity: 0
timestamp 168543000 us: [94 4F 00] channel 5: note On G5 velocity: 0
timestamp 168543000 us: [94 43 00] channel 5: note On G4 velocity: 0
timestamp 168613000 us: [95 34 00] channel 6: note On E3 velocity: 0
timestamp 168613000 us: [95 30 00] channel 6: note On C3 velocity: 0
timestamp 168643000 us: [96 37 00] channel 7: note On G3 velocity: 0
timestamp 168653000 us: [96 3C 00] channel 7: note On C4 velocity: 0
timestamp 168663000 us: [96 40 00] channel 7: note On E4 velocity: 0
timestamp 168763000 us: [94 3E 70] channel 5: note On D4 velocity: 112
timestamp 168763000 us: [94 4A 65] channel 5: note On D5 velocity: 101
timestamp 168773000 us: [98 4F 00] channel 9: note On G5 velocity: 0
timestamp 168773000 us: [98 4A 00] channel 9: note On D5 velocity: 0
timestamp 168783000 us: [95 32 33] channel 6: note On D3 velocity: 51
timestamp 168783000 us: [96 37 46] channel 7: note On G3 velocity: 70
timestamp 168783000 us: [98 4A 60] channel 9: note On D5 velocity: 96
timestamp 168783000 us: [98 4F 5D] channel 9: note On G5 velocity: 93
timestamp 168783000 us: [99 2A 2A] channel 10: note On F#2 velocity: 42
timestamp 168793000 us: [99 2A 00] channel 10: note On F#2 velocity: 0
timestamp 168813000 us: [92 37 47] channel 3: note On G3 velocity: 71
timestamp 168813000 us: [92 3B 47] channel 3: note On B3 velocity: 71
timestamp 168813000 us: [92 3E 4A] channel 3: note On D4 velocity: 74
timestamp 168883000 us: [95 32 00] channel 6: note On D3 velocity: 0
timestamp 168883000 us: [98 4A 00] channel 9: note On D5 velocity: 0
timestamp 168903000 us: [98 4F 00] channel 9: note On G5 velocity: 0
timestamp 168933000 us: [96 37 00] channel 7: note On G3 velocity: 0
timestamp 168933000 us: [95 32 4A] channel 6: note On D3 velocity: 74
timestamp 168933000 us: [96 37 53] channel 7: note On G3 velocity: 83
timestamp 168943000 us: [99 23 72] channel 10: note On B1 velocity: 114
timestamp 168943000 us: [99 2A 3A] channel 10: note On F#2 velocity: 58
timestamp 168943000 us: [99 2A 00] channel 10: note On F#2 velocity: 0
timestamp 168943000 us: [99 23 00] channel 10: note On B1 velocity: 0
timestamp 168953000 us: [96 3B 4B] channel 7: note On B3 velocity: 75
timestamp 168963000 us: [96 3E 52] channel 7: note On D4 velocity: 82
timestamp 169153000 us: [92 37 00] channel 3: note On G3 velocity: 0
timestamp 169183000 us: [92 3B 00] channel 3: note On B3 velocity: 0
timestamp 169193000 us: [95 32 00] channel 6: note On D3 velocity: 0
timestamp 169223000 us: [92 3E 00] channel 3: note On D4 velocity: 0
timestamp 169233000 us: [96 3E 00] channel 7: note On D4 velocity: 0
timestamp 169233000 us: [96 3B 00] channel 7: note On B3 velocity: 0
timestamp 169233000 us: [96 37 00] channel 7: note On G3 velocity: 0
timestamp 169243000 us: [95 32 35] channel 6: note On D3 velocity: 53
timestamp 169243000 us: [96 37 46] channel 7: note On G3 velocity: 70
timestamp 169243000 us: [99 2A 3D] channel 10: note On F#2 velocity: 61
timestamp 169253000 us: [99 28 61] channel 10: note On E2 velocity: 97
timestamp 169253000 us: [99 2A 00] channel 10: note On F#2 velocity: 0
timestamp 169253000 us: [99 28 00] channel 10: note On E2 velocity: 0
timestamp 169263000 us: [92 37 4A] channel 3: note On G3 velocity: 74
timestamp 169343000 us: [92 37 00] channel 3: note On G3 velocity: 0
timestamp 169383000 us: [95 32 00] channel 6: note On D3 velocity: 0
timestamp 169403000 us: [95 30 3C] channel 6: note On C3 velocity: 60
timestamp 169403000 us: [95 34 50] channel 6: note On E3 velocity: 80
timestamp 169403000 us: [96 3C 63] channel 7: note On C4 velocity: 99
timestamp 169403000 us: [99 23 72] channel 10: note On B1 velocity: 114
timestamp 169403000 us: [99 2A 43] channel 10: note On F#2 velocity: 67
timestamp 169403000 us: [99 2D 53] channel 10: note On A2 velocity: 83
timestamp 169413000 us: [92 3C 5B] channel 3: note On C4 velocity: 91
timestamp 169413000 us: [92 40 5B] channel 3: note On E4 velocity: 91
timestamp 169413000 us: [99 28 43] channel 10: note On E2 velocity: 67
timestamp 169413000 us: [92 37 53] channel 3: note On G3 velocity: 83
timestamp 169413000 us: [99 2D 00] channel 10: note On A2 velocity: 0
timestamp 169413000 us: [99 23 00] channel 10: note On B1 velocity: 0
timestamp 169413000 us: [99 2A 00] channel 10: note On F#2 velocity: 0
timestamp 169423000 us: [99 28 00] channel 10: note On E2 velocity: 0
timestamp 169423000 us: [96 40 60] channel 7: note On E4 velocity: 96
timestamp 169463000 us: [92 40 00] channel 3: note On E4 velocity: 0
timestamp 169463000 us: [92 3C 00] channel 3: note On C4 velocity: 0
timestamp 169473000 us: [92 37 00] channel 3: note On G3 velocity: 0
timestamp 169513000 us: [95 34 00] channel 6: note On E3 velocity: 0
timestamp 169513000 us: [95 30 00] channel 6: note On C3 velocity: 0
timestamp 169573000 us: [96 37 00] channel 7: note On G3 velocity: 0
timestamp 169583000 us: [96 3C 00] channel 7: note On C4 velocity: 0
timestamp 169593000 us: [96 40 00] channel 7: note On E4 velocity: 0
timestamp 169623000 us: [94 4A 00] channel 5: note On D5 velocity: 0
timestamp 169623000 us: [94 3E 00] channel 5: note On D4 velocity: 0
timestamp 169713000 us: [95 32 32] channel 6: note On D3 velocity: 50
timestamp 169713000 us: [96 37 46] channel 7: note On G3 velocity: 70
timestamp 169713000 us: [99 28 51] channel 10: note On E2 velocity: 81
timestamp 169723000 us: [99 28 00] channel 10: note On E2 velocity: 0
timestamp 169743000 us: [92 37 45] channel 3: note On G3 velocity: 69
timestamp 169743000 us: [92 3B 4A] channel 3: note On B3 velocity: 74
timestamp 169743000 us: [92 3E 4C] channel 3: note On D4 velocity: 76
timestamp 169843000 us: [91 1F 00] channel 2: note On G1 velocity: 0
timestamp 169853000 us: [95 32 00] channel 6: note On D3 velocity: 0
timestamp 169863000 us: [92 37 00] channel 3: note On G3 velocity: 0
timestamp 169863000 us: [96 37 00] channel 7: note On G3 velocity: 0
timestamp 169863000 us: [91 24 6A] channel 2: note On C2 velocity: 106
timestamp 169873000 us: [92 37 50] channel 3: note On G3 velocity: 80
timestamp 169873000 us: [92 3C 53] channel 3: note On C4 velocity: 83
timestamp 169873000 us: [92 40 4C] channel 3: note On E4 velocity: 76
timestamp 169873000 us: [93 4C 72] channel 4: note On E5 velocity: 114
timestamp 169873000 us: [95 2B 39] channel 6: note On G2 velocity: 57
timestamp 169873000 us: [96 37 56] channel 7: note On G3 velocity: 86
timestamp 169873000 us: [99 23 75] channel 10: note On B1 velocity: 117
timestamp 169883000 us: [99 31 49] channel 10: note On C#3 velocity: 73
timestamp 169883000 us: [95 30 49] channel 6: note On C3 velocity: 73
timestamp 169883000 us: [95 34 3E] channel 6: note On E3 velocity: 62
timestamp 169883000 us: [99 31 00] channel 10: note On C#3 velocity: 0
timestamp 169883000 us: [99 23 00] channel 10: note On B1 velocity: 0
timestamp 169883000 us: [96 3C 4E] channel 7: note On C4 velocity: 78
timestamp 169903000 us: [96 40 55] channel 7: note On E4 velocity: 85
timestamp 170053000 us: [92 37 00] channel 3: note On G3 velocity: 0
timestamp 170073000 us: [92 3B 00] channel 3: note On B3 velocity: 0
timestamp 170073000 us: [92 3E 00] channel 3: note On D4 velocity: 0
timestamp 170123000 us: [92 40 00] channel 3: note On E4 velocity: 0
timestamp 170123000 us: [93 4C 00] channel 4: note On E5 velocity: 0
timestamp 170163000 us: [96 40 00] channel 7: note On E4 velocity: 0
timestamp 170163000 us: [96 3C 00] channel 7: note On C4 velocity: 0
timestamp 170163000 us: [96 37 00] channel 7: note On G3 velocity: 0
timestamp 170173000 us: [92 37 5E] channel 3: note On G3 velocity: 94
timestamp 170173000 us: [93 4C 6E] channel 4: note On E5 velocity: 110
timestamp 170173000 us: [96 37 4C] channel 7: note On G3 velocity: 76
timestamp 170183000 us: [99 2A 2D] channel 10: note On F#2 velocity: 45
timestamp 170183000 us: [99 2A 00] channel 10: note On F#2 velocity: 0
timestamp 170213000 us: [92 3C 00] channel 3: note On C4 velocity: 0
timestamp 170293000 us: [93 4C 00] channel 4: note On E5 velocity: 0
timestamp 170333000 us: [92 3C 5A] channel 3: note On C4 velocity: 90
timestamp 170333000 us: [92 40 5A] channel 3: note On E4 velocity: 90
timestamp 170333000 us: [93 4C 70] channel 4: note On E5 velocity: 112
timestamp 170333000 us: [96 3C 66] channel 7: note On C4 velocity: 102
timestamp 170333000 us: [99 23 75] channel 10: note On B1 velocity: 117
timestamp 170333000 us: [99 2A 51] channel 10: note On F#2 velocity: 81
timestamp 170343000 us: [99 28 64] channel 10: note On E2 velocity: 100
timestamp 170343000 us: [99 2A 00] channel 10: note On F#2 velocity: 0
timestamp 170343000 us: [99 23 00] channel 10: note On B1 velocity: 0
timestamp 170343000 us: [99 28 00] channel 10: note On E2 velocity: 0
timestamp 170353000 us: [96 40 63] channel 7: note On E4 velocity: 99
timestamp 170463000 us: [95 2B 00] channel 6: note On G2 velocity: 0
timestamp 170493000 us: [95 34 00] channel 6: note On E3 velocity: 0
timestamp 170493000 us: [95 30 00] channel 6: note On C3 velocity: 0
timestamp 170503000 us: [96 37 00] channel 7: note On G3 velocity: 0
timestamp 170513000 us: [96 3C 00] channel 7: note On C4 velocity: 0
timestamp 170523000 us: [92 40 00] channel 3: note On E4 velocity: 0
timestamp 170523000 us: [96 40 00] channel 7: note On E4 velocity: 0
timestamp 170543000 us: [92 37 00] channel 3: note On G3 velocity: 0
timestamp 170543000 us: [93 4C 00] channel 4: note On E5 velocity: 0
timestamp 170563000 us: [92 3C 00] channel 3: note On C4 velocity: 0
timestamp 170643000 us: [91 24 00] channel 2: note On C2 velocity: 0
timestamp 170643000 us: [92 37 57] channel 3: note On G3 velocity: 87
timestamp 170643000 us: [92 3B 57] channel 3: note On B3 velocity: 87
timestamp 170643000 us: [92 3E 4C] channel 3: note On D4 velocity: 76
timestamp 170643000 us: [93 4C 64] channel 4: note On E5 velocity: 100
timestamp 170643000 us: [95 2B 43] channel 6: note On G2 velocity: 67
timestamp 170653000 us: [96 37 56] channel 7: note On G3 velocity: 86
timestamp 170653000 us: [99 2A 2D] channel 10: note On F#2 velocity: 45
timestamp 170653000 us: [95 32 50] channel 6: note On D3 velocity: 80
timestamp 170653000 us: [99 2A 00] channel 10: note On F#2 velocity: 0
timestamp 170653000 us: [96 3B 4E] channel 7: note On B3 velocity: 78
timestamp 170673000 us: [91 2B 6A] channel 2: note On G2 velocity: 106
timestamp 170673000 us: [96 3E 55] channel 7: note On D4 velocity: 85
timestamp 170793000 us: [93 4C 00] channel 4: note On E5 velocity: 0
timestamp 170793000 us: [93 4A 72] channel 4: note On D5 velocity: 114
timestamp 170793000 us: [99 23 75] channel 10: note On B1 velocity: 117
timestamp 170793000 us: [99 2A 3D] channel 10: note On F#2 velocity: 61
timestamp 170803000 us: [99 2A 00] channel 10: note On F#2 velocity: 0
timestamp 170803000 us: [99 23 00] channel 10: note On B1 velocity: 0
timestamp 170983000 us: [95 2B 00] channel 6: note On G2 velocity: 0
timestamp 171023000 us: [93 4A 00] channel 4: note On D5 velocity: 0
timestamp 171033000 us: [95 32 00] channel 6: note On D3 velocity: 0
timestamp 171093000 us: [96 3E 00] channel 7: note On D4 velocity: 0
timestamp 171093000 us: [96 3B 00] channel 7: note On B3 velocity: 0
timestamp 171093000 us: [96 37 00] channel 7: note On G3 velocity: 0
timestamp 171103000 us: [93 43 6D] channel 4: note On G4 velocity: 109
timestamp 171103000 us: [95 2B 3E] channel 6: note On G2 velocity: 62
timestamp 171103000 us: [96 37 49] channel 7: note On G3 velocity: 73
timestamp 171113000 us: [98 3E 59] channel 9: note On D4 velocity: 89
timestamp 171113000 us: [99 2A 2D] channel 10: note On F#2 velocity: 45
timestamp 171113000 us: [99 2A 00] channel 10: note On F#2 velocity: 0
timestamp 171233000 us: [98 3E 00] channel 9: note On D4 velocity: 0
timestamp 171243000 us: [93 43 00] channel 4: note On G4 velocity: 0
timestamp 171253000 us: [95 2B 00] channel 6: note On G2 velocity: 0
timestamp 171263000 us: [95 2B 43] channel 6: note On G2 velocity: 67
timestamp 171263000 us: [96 3B 66] channel 7: note On B3 velocity: 102
timestamp 171263000 us: [98 40 62] channel 9: note On E4 velocity: 98
timestamp 171263000 us: [99 23 75] channel 10: note On B1 velocity: 117
timestamp 171263000 us: [99 2A 51] channel 10: note On F#2 velocity: 81
timestamp 171263000 us: [99 28 64] channel 10: note On E2 velocity: 100
timestamp 171273000 us: [95 32 50] channel 6: note On D3 velocity: 80
timestamp 171273000 us: [99 2A 00] channel 10: note On F#2 velocity: 0
timestamp 171273000 us: [99 23 00] channel 10: note On B1 velocity: 0
timestamp 171273000 us: [99 28 00] channel 10: note On E2 velocity: 0
timestamp 171283000 us: [96 3E 63] channel 7: note On D4 velocity: 99
timestamp 171493000 us: [95 32 00] channel 6: note On D3 velocity: 0
timestamp 171493000 us: [95 2B 00] channel 6: note On G2 velocity: 0
timestamp 171513000 us: [92 37 00] channel 3: note On G3 velocity: 0
timestamp 171543000 us: [98 40 00] channel 9: note On E4 velocity: 0
timestamp 171543000 us: [92 3B 00] channel 3: note On B3 velocity: 0
timestamp 171553000 us: [96 3E 00] channel 7: note On D4 velocity: 0
timestamp 171553000 us: [96 3B 00] channel 7: note On B3 velocity: 0
timestamp 171553000 us: [96 37 00] channel 7: note On G3 velocity: 0
timestamp 171573000 us: [92 37 4C] channel 3: note On G3 velocity: 76
timestamp 171573000 us: [93 43 6D] channel 4: note On G4 velocity: 109
timestamp 171573000 us: [96 37 49] channel 7: note On G3 velocity: 73
timestamp 171573000 us: [98 3E 58] channel 9: note On D4 velocity: 88
timestamp 171573000 us: [99 2A 2D] channel 10: note On F#2 velocity: 45
timestamp 171583000 us: [92 3E 00] channel 3: note On D4 velocity: 0
timestamp 171583000 us: [99 2A 00] channel 10: note On F#2 velocity: 0
timestamp 171693000 us: [93 43 00] channel 4: note On G4 velocity: 0
timestamp 171693000 us: [91 2B 00] channel 2: note On G2 velocity: 0
timestamp 171703000 us: [92 37 00] channel 3: note On G3 velocity: 0
timestamp 171723000 us: [96 37 00] channel 7: note On G3 velocity: 0
timestamp 171723000 us: [91 24 6A] channel 2: note On C2 velocity: 106
timestamp 171723000 us: [92 37 56] channel 3: note On G3 velocity: 86
timestamp 171723000 us: [92 3C 5E] channel 3: note On C4 velocity: 94
timestamp 171733000 us: [92 40 5E] channel 3: note On E4 velocity: 94
timestamp 171733000 us: [93 4C 74] channel 4: note On E5 velocity: 116
timestamp 171733000 us: [95 2B 42] channel 6: note On G2 velocity: 66
timestamp 171733000 us: [96 37 56] channel 7: note On G3 velocity: 86
timestamp 171733000 us: [99 23 75] channel 10: note On B1 velocity: 117
timestamp 171733000 us: [99 2A 3D] channel 10: note On F#2 velocity: 61
timestamp 171743000 us: [95 30 4E] channel 6: note On C3 velocity: 78
timestamp 171743000 us: [95 34 44] channel 6: note On E3 velocity: 68
timestamp 171743000 us: [99 2A 00] channel 10: note On F#2 velocity: 0
timestamp 171743000 us: [99 23 00] channel 10: note On B1 velocity: 0
timestamp 171743000 us: [96 3C 4E] channel 7: note On C4 velocity: 78
timestamp 171763000 us: [96 40 55] channel 7: note On E4 velocity: 85
timestamp 171903000 us: [98 3E 00] channel 9: note On D4 velocity: 0
timestamp 171933000 us: [93 4C 00] channel 4: note On E5 velocity: 0
timestamp 172013000 us: [92 3C 00] channel 3: note On C4 velocity: 0
timestamp 172013000 us: [92 37 00] channel 3: note On G3 velocity: 0
timestamp 172023000 us: [92 40 00] channel 3: note On E4 velocity: 0
timestamp 172023000 us: [96 40 00] channel 7: note On E4 velocity: 0
timestamp 172023000 us: [96 3C 00] channel 7: note On C4 velocity: 0
timestamp 172023000 us: [96 37 00] channel 7: note On G3 velocity: 0
timestamp 172033000 us: [92 37 3E] channel 3: note On G3 velocity: 62
timestamp 172033000 us: [92 3C 49] channel 3: note On C4 velocity: 73
timestamp 172043000 us: [93 4C 6E] channel 4: note On E5 velocity: 110
timestamp 172043000 us: [96 37 4C] channel 7: note On G3 velocity: 76
timestamp 172043000 us: [99 2A 2D] channel 10: note On F#2 velocity: 45
timestamp 172043000 us: [99 2A 00] channel 10: note On F#2 velocity: 0
timestamp 172153000 us: [93 4C 00] channel 4: note On E5 velocity: 0
timestamp 172183000 us: [92 37 00] channel 3: note On G3 velocity: 0
timestamp 172193000 us: [92 37 3A] channel 3: note On G3 velocity: 58
timestamp 172193000 us: [92 40 5E] channel 3: note On E4 velocity: 94
timestamp 172193000 us: [93 4C 70] channel 4: note On E5 velocity: 112
timestamp 172193000 us: [96 3C 66] channel 7: note On C4 velocity: 102
timestamp 172193000 us: [99 23 75] channel 10: note On B1 velocity: 117
timestamp 172193000 us: [99 2A 51] channel 10: note On F#2 velocity: 81
timestamp 172203000 us: [99 28 64] channel 10: note On E2 velocity: 100
timestamp 172203000 us: [99 2A 00] channel 10: note On F#2 velocity: 0
timestamp 172203000 us: [99 23 00] channel 10: note On B1 velocity: 0
timestamp 172203000 us: [99 28 00] channel 10: note On E2 velocity: 0
timestamp 172213000 us: [96 40 63] channel 7: note On E4 velocity: 99
timestamp 172273000 us: [95 2B 00] channel 6: note On G2 velocity: 0
timestamp 172313000 us: [93 4C 00] channel 4: note On E5 velocity: 0
timestamp 172343000 us: [95 34 00] channel 6: note On E3 velocity: 0
timestamp 172343000 us: [95 30 00] channel 6: note On C3 velocity: 0
timestamp 172343000 us: [93 4C 6E] channel 4: note On E5 velocity: 110
timestamp 172363000 us: [96 37 00] channel 7: note On G3 velocity: 0
timestamp 172373000 us: [96 3C 00] channel 7: note On C4 velocity: 0
timestamp 172383000 us: [96 40 00] channel 7: note On E4 velocity: 0
timestamp 172423000 us: [92 3C 00] channel 3: note On C4 velocity: 0
timestamp 172473000 us: [92 37 00] channel 3: note On G3 velocity: 0
timestamp 172473000 us: [92 40 00] channel 3: note On E4 velocity: 0
timestamp 172473000 us: [93 4C 00] channel 4: note On E5 velocity: 0
timestamp 172503000 us: [91 24 00] channel 2: note On C2 velocity: 0
timestamp 172503000 us: [92 37 50] channel 3: note On G3 velocity: 80
timestamp 172503000 us: [92 3B 5B] channel 3: note On B3 velocity: 91
timestamp 172503000 us: [92 3E 61] channel 3: note On D4 velocity: 97
timestamp 172503000 us: [93 4A 75] channel 4: note On D5 velocity: 117
timestamp 172503000 us: [95 2B 40] channel 6: note On G2 velocity: 64
timestamp 172513000 us: [96 37 56] channel 7: note On G3 velocity: 86
timestamp 172513000 us: [99 2A 2D] channel 10: note On F#2 velocity: 45
timestamp 172513000 us: [95 32 4E] channel 6: note On D3 velocity: 78
timestamp 172513000 us: [99 2A 00] channel 10: note On F#2 velocity: 0
timestamp 172523000 us: [96 3B 4E] channel 7: note On B3 velocity: 78
timestamp 172533000 us: [91 2B 6A] channel 2: note On G2 velocity: 106
timestamp 172533000 us: [96 3E 55] channel 7: note On D4 velocity: 85
timestamp 172653000 us: [98 3E 5D] channel 9: note On D4 velocity: 93
timestamp 172663000 us: [99 23 75] channel 10: note On B1 velocity: 117
timestamp 172663000 us: [99 2A 3D] channel 10: note On F#2 velocity: 61
timestamp 172663000 us: [99 2A 00] channel 10: note On F#2 velocity: 0
timestamp 172663000 us: [99 23 00] channel 10: note On B1 velocity: 0
timestamp 172873000 us: [93 4A 00] channel 4: note On D5 velocity: 0
timestamp 172913000 us: [95 2B 00] channel 6: note On G2 velocity: 0
timestamp 172953000 us: [96 3E 00] channel 7: note On D4 velocity: 0
timestamp 172953000 us: [96 3B 00] channel 7: note On B3 velocity: 0
timestamp 172953000 us: [96 37 00] channel 7: note On G3 velocity: 0
timestamp 172963000 us: [95 32 00] channel 6: note On D3 velocity: 0
timestamp 172963000 us: [95 2B 3C] channel 6: note On G2 velocity: 60
timestamp 172973000 us: [96 37 49] channel 7: note On G3 velocity: 73
timestamp 172973000 us: [99 2A 2D] channel 10: note On F#2 velocity: 45
timestamp 172973000 us: [99 2A 00] channel 10: note On F#2 velocity: 0
timestamp 173093000 us: [98 3E 00] channel 9: note On D4 velocity: 0
timestamp 173113000 us: [95 2B 00] channel 6: note On G2 velocity: 0
timestamp 173123000 us: [95 2B 43] channel 6: note On G2 velocity: 67
timestamp 173123000 us: [96 3B 66] channel 7: note On B3 velocity: 102
timestamp 173123000 us: [99 23 75] channel 10: note On B1 velocity: 117
timestamp 173123000 us: [99 2A 51] channel 10: note On F#2 velocity: 81
timestamp 173123000 us: [99 28 64] channel 10: note On E2 velocity: 100
timestamp 173133000 us: [95 32 50] channel 6: note On D3 velocity: 80
timestamp 173133000 us: [99 2A 00] channel 10: note On F#2 velocity: 0
timestamp 173133000 us: [99 23 00] channel 10: note On B1 velocity: 0
timestamp 173133000 us: [99 28 00] channel 10: note On E2 velocity: 0
timestamp 173143000 us: [96 3E 63] channel 7: note On D4 velocity: 99
timestamp 173383000 us: [92 37 00] channel 3: note On G3 velocity: 0
timestamp 173383000 us: [92 3B 00] channel 3: note On B3 velocity: 0
timestamp 173383000 us: [92 3E 00] channel 3: note On D4 velocity: 0
timestamp 173413000 us: [96 3E 00] channel 7: note On D4 velocity: 0
timestamp 173413000 us: [96 3B 00] channel 7: note On B3 velocity: 0
timestamp 173413000 us: [96 37 00] channel 7: note On G3 velocity: 0
timestamp 173413000 us: [95 32 00] channel 6: note On D3 velocity: 0
timestamp 173413000 us: [95 2B 00] channel 6: note On G2 velocity: 0
timestamp 173433000 us: [92 37 3E] channel 3: note On G3 velocity: 62
timestamp 173433000 us: [93 43 5D] channel 4: note On G4 velocity: 93
timestamp 173433000 us: [95 2B 37] channel 6: note On G2 velocity: 55
timestamp 173433000 us: [96 37 49] channel 7: note On G3 velocity: 73
timestamp 173433000 us: [99 2A 2D] channel 10: note On F#2 velocity: 45
timestamp 173443000 us: [99 2A 00] channel 10: note On F#2 velocity: 0
timestamp 173503000 us: [95 2B 00] channel 6: note On G2 velocity: 0
timestamp 173533000 us: [93 43 00] channel 4: note On G4 velocity: 0
timestamp 173553000 us: [91 2B 00] channel 2: note On G2 velocity: 0
timestamp 173563000 us: [E4 00 0C] channel 5: pitch wheel change 1536
timestamp 173573000 us: [94 4F 76] channel 5: note On G5 velocity: 118
timestamp 173573000 us: [94 5B 70] channel 5: note On G6 velocity: 112
timestamp 173583000 us: [92 37 00] channel 3: note On G3 velocity: 0
timestamp 173583000 us: [96 37 00] channel 7: note On G3 velocity: 0
timestamp 173583000 us: [91 24 6A] channel 2: note On C2 velocity: 106
timestamp 173583000 us: [92 37 50] channel 3: note On G3 velocity: 80
timestamp 173593000 us: [92 3C 53] channel 3: note On C4 velocity: 83
timestamp 173593000 us: [92 40 4C] channel 3: note On E4 velocity: 76
timestamp 173593000 us: [93 4C 6D] channel 4: note On E5 velocity: 109
timestamp 173593000 us: [95 2B 42] channel 6: note On G2 velocity: 66
timestamp 173593000 us: [96 37 56] channel 7: note On G3 velocity: 86
timestamp 173593000 us: [99 23 75] channel 10: note On B1 velocity: 117
timestamp 173593000 us: [99 2A 3D] channel 10: note On F#2 velocity: 61
timestamp 173603000 us: [95 30 4B] channel 6: note On C3 velocity: 75
timestamp 173603000 us: [95 34 40] channel 6: note On E3 velocity: 64
timestamp 173603000 us: [99 2A 00] channel 10: note On F#2 velocity: 0
timestamp 173603000 us: [99 23 00] channel 10: note On B1 velocity: 0
timestamp 173603000 us: [96 3C 4E] channel 7: note On C4 velocity: 78
timestamp 173623000 us: [96 40 55] channel 7: note On E4 velocity: 85
timestamp 173723000 us: [E4 00 16] channel 5: pitch wheel change 2816
timestamp 173743000 us: [E4 00 24] channel 5: pitch wheel change 4608
timestamp 173773000 us: [E4 00 30] channel 5: pitch wheel change 6144
timestamp 173783000 us: [92 37 00] channel 3: note On G3 velocity: 0
timestamp 173793000 us: [E4 00 37] channel 5: pitch wheel change 7040
timestamp 173803000 us: [E4 00 40] channel 5: pitch wheel change 8192
timestamp 173833000 us: [93 4C 00] channel 4: note On E5 velocity: 0
timestamp 173843000 us: [92 40 00] channel 3: note On E4 velocity: 0
timestamp 173883000 us: [96 40 00] channel 7: note On E4 velocity: 0
timestamp 173883000 us: [96 3C 00] channel 7: note On C4 velocity: 0
timestamp 173883000 us: [96 37 00] channel 7: note On G3 velocity: 0
timestamp 173893000 us: [92 37 5E] channel 3: note On G3 velocity: 94
timestamp 173893000 us: [93 4C 67] channel 4: note On E5 velocity: 103
timestamp 173903000 us: [96 37 4C] channel 7: note On G3 velocity: 76
timestamp 173903000 us: [98 3E 59] channel 9: note On D4 velocity: 89
timestamp 173903000 us: [99 2A 2D] channel 10: note On F#2 velocity: 45
timestamp 173903000 us: [99 2A 00] channel 10: note On F#2 velocity: 0
timestamp 173933000 us: [92 3C 00] channel 3: note On C4 velocity: 0
timestamp 174013000 us: [98 3E 00] channel 9: note On D4 velocity: 0
timestamp 174023000 us: [93 4C 00] channel 4: note On E5 velocity: 0
timestamp 174053000 us: [92 3C 5A] channel 3: note On C4 velocity: 90
timestamp 174053000 us: [92 40 5A] channel 3: note On E4 velocity: 90
timestamp 174053000 us: [93 4C 72] channel 4: note On E5 velocity: 114
timestamp 174053000 us: [96 3C 66] channel 7: note On C4 velocity: 102
timestamp 174053000 us: [98 40 59] channel 9: note On E4 velocity: 89
timestamp 174063000 us: [99 23 75] channel 10: note On B1 velocity: 117
timestamp 174063000 us: [99 2A 51] channel 10: note On F#2 velocity: 81
timestamp 174063000 us: [99 28 64] channel 10: note On E2 velocity: 100
timestamp 174073000 us: [E4 00 3D] channel 5: pitch wheel change 7808
timestamp 174073000 us: [99 2A 00] channel 10: note On F#2 velocity: 0
timestamp 174073000 us: [99 23 00] channel 10: note On B1 velocity: 0
timestamp 174073000 us: [99 28 00] channel 10: note On E2 velocity: 0
timestamp 174073000 us: [96 40 63] channel 7: note On E4 velocity: 99
timestamp 174123000 us: [95 2B 00] channel 6: note On G2 velocity: 0
timestamp 174133000 us: [E4 00 3B] channel 5: pitch wheel change 7552
timestamp 174213000 us: [95 34 00] channel 6: note On E3 velocity: 0
timestamp 174213000 us: [95 30 00] channel 6: note On C3 velocity: 0
timestamp 174223000 us: [96 37 00] channel 7: note On G3 velocity: 0
timestamp 174233000 us: [96 3C 00] channel 7: note On C4 velocity: 0
timestamp 174243000 us: [92 40 00] channel 3: note On E4 velocity: 0
timestamp 174243000 us: [96 40 00] channel 7: note On E4 velocity: 0
timestamp 174253000 us: [E4 00 38] channel 5: pitch wheel change 7168
timestamp 174263000 us: [92 37 00] channel 3: note On G3 velocity: 0
timestamp 174283000 us: [92 3C 00] channel 3: note On C4 velocity: 0
timestamp 174283000 us: [93 4C 00] channel 4: note On E5 velocity: 0
timestamp 174333000 us: [98 40 00] channel 9: note On E4 velocity: 0
timestamp 174343000 us: [E4 00 40] channel 5: pitch wheel change 8192
timestamp 174363000 us: [91 24 00] channel 2: note On C2 velocity: 0
timestamp 174363000 us: [92 37 57] channel 3: note On G3 velocity: 87
timestamp 174363000 us: [92 3B 57] channel 3: note On B3 velocity: 87
timestamp 174363000 us: [92 3E 4C] channel 3: note On D4 velocity: 76
timestamp 174363000 us: [93 4C 69] channel 4: note On E5 velocity: 105
timestamp 174363000 us: [95 2B 40] channel 6: note On G2 velocity: 64
timestamp 174373000 us: [96 37 56] channel 7: note On G3 velocity: 86
timestamp 174373000 us: [98 3E 58] channel 9: note On D4 velocity: 88
timestamp 174373000 us: [99 2A 2D] channel 10: note On F#2 velocity: 45
timestamp 174373000 us: [95 32 4C] channel 6: note On D3 velocity: 76
timestamp 174383000 us: [99 2A 00] channel 10: note On F#2 velocity: 0
timestamp 174383000 us: [96 3B 4E] channel 7: note On B3 velocity: 78
timestamp 174393000 us: [91 2B 6A] channel 2: note On G2 velocity: 106
timestamp 174393000 us: [96 3E 55] channel 7: note On D4 velocity: 85
timestamp 174513000 us: [93 4C 00] channel 4: note On E5 velocity: 0
timestamp 174513000 us: [93 4A 72] channel 4: note On D5 velocity: 114
timestamp 174513000 us: [99 23 75] channel 10: note On B1 velocity: 117
timestamp 174523000 us: [99 2A 3D] channel 10: note On F#2 velocity: 61
timestamp 174523000 us: [99 2A 00] channel 10: note On F#2 velocity: 0
timestamp 174523000 us: [99 23 00] channel 10: note On B1 velocity: 0
timestamp 174613000 us: [98 3E 00] channel 9: note On D4 velocity: 0
timestamp 174753000 us: [93 4A 00] channel 4: note On D5 velocity: 0
timestamp 174793000 us: [95 2B 00] channel 6: note On G2 velocity: 0
timestamp 174813000 us: [96 3E 00] channel 7: note On D4 velocity: 0
timestamp 174813000 us: [96 3B 00] channel 7: note On B3 velocity: 0
timestamp 174813000 us: [96 37 00] channel 7: note On G3 velocity: 0
timestamp 174823000 us: [95 32 00] channel 6: note On D3 velocity: 0
timestamp 174823000 us: [93 43 6E] channel 4: note On G4 velocity: 110
timestamp 174833000 us: [95 2B 36] channel 6: note On G2 velocity: 54
timestamp 174833000 us: [96 37 49] channel 7: note On G3 velocity: 73
timestamp 174833000 us: [98 4A 5D] channel 9: note On D5 velocity: 93
timestamp 174833000 us: [99 2A 2D] channel 10: note On F#2 velocity: 45
timestamp 174833000 us: [99 2A 00] channel 10: note On F#2 velocity: 0
timestamp 174953000 us: [98 4A 00] channel 9: note On D5 velocity: 0
timestamp 174973000 us: [95 2B 00] channel 6: note On G2 velocity: 0
timestamp 174983000 us: [95 2B 3F] channel 6: note On G2 velocity: 63
timestamp 174983000 us: [96 3B 66] channel 7: note On B3 velocity: 102
timestamp 174983000 us: [98 4C 59] channel 9: note On E5 velocity: 89
timestamp 174983000 us: [99 23 75] channel 10: note On B1 velocity: 117
timestamp 174983000 us: [99 2A 51] channel 10: note On F#2 velocity: 81
timestamp 174993000 us: [99 28 64] channel 10: note On E2 velocity: 100
timestamp 174993000 us: [95 32 4E] channel 6: note On D3 velocity: 78
timestamp 174993000 us: [99 2A 00] channel 10: note On F#2 velocity: 0
timestamp 174993000 us: [99 23 00] channel 10: note On B1 velocity: 0
timestamp 174993000 us: [99 28 00] channel 10: note On E2 velocity: 0
timestamp 175003000 us: [96 3E 63] channel 7: note On D4 velocity: 99
timestamp 175083000 us: [93 43 00] channel 4: note On G4 velocity: 0
timestamp 175233000 us: [92 37 00] channel 3: note On G3 velocity: 0
timestamp 175263000 us: [92 3B 00] channel 3: note On B3 velocity: 0
timestamp 175273000 us: [95 32 00] channel 6: note On D3 velocity: 0
timestamp 175273000 us: [95 2B 00] channel 6: note On G2 velocity: 0
timestamp 175273000 us: [96 3E 00] channel 7: note On D4 velocity: 0
timestamp 175273000 us: [96 3B 00] channel 7: note On B3 velocity: 0
timestamp 175273000 us: [96 37 00] channel 7: note On G3 velocity: 0
timestamp 175283000 us: [98 4C 00] channel 9: note On E5 velocity: 0
timestamp 175293000 us: [92 37 4C] channel 3: note On G3 velocity: 76
timestamp 175293000 us: [93 43 60] channel 4: note On G4 velocity: 96
timestamp 175293000 us: [96 37 49] channel 7: note On G3 velocity: 73
timestamp 175293000 us: [98 4A 59] channel 9: note On D5 velocity: 89
timestamp 175293000 us: [99 2A 2D] channel 10: note On F#2 velocity: 45
timestamp 175303000 us: [92 3E 00] channel 3: note On D4 velocity: 0
timestamp 175303000 us: [99 2A 00] channel 10: note On F#2 velocity: 0
timestamp 175383000 us: [93 43 00] channel 4: note On G4 velocity: 0
timestamp 175413000 us: [91 2B 00] channel 2: note On G2 velocity: 0
timestamp 175423000 us: [92 37 00] channel 3: note On G3 velocity: 0
timestamp 175443000 us: [96 37 00] channel 7: note On G3 velocity: 0
timestamp 175443000 us: [91 26 6A] channel 2: note On D2 velocity: 106
timestamp 175443000 us: [93 4A 70] channel 4: note On D5 velocity: 112
timestamp 175453000 us: [95 2D 3B] channel 6: note On A2 velocity: 59
timestamp 175453000 us: [96 36 56] channel 7: note On F#3 velocity: 86
timestamp 175453000 us: [99 23 75] channel 10: note On B1 velocity: 117
timestamp 175453000 us: [99 2A 3D] channel 10: note On F#2 velocity: 61
timestamp 175463000 us: [95 32 47] channel 6: note On D3 velocity: 71
timestamp 175463000 us: [99 2A 00] channel 10: note On F#2 velocity: 0
timestamp 175463000 us: [99 23 00] channel 10: note On B1 velocity: 0
timestamp 175463000 us: [96 39 4E] channel 7: note On A3 velocity: 78
timestamp 175473000 us: [92 36 4F] channel 3: note On F#3 velocity: 79
timestamp 175473000 us: [92 39 52] channel 3: note On A3 velocity: 82
timestamp 175483000 us: [92 3E 55] channel 3: note On D4 velocity: 85
timestamp 175483000 us: [96 3E 55] channel 7: note On D4 velocity: 85
timestamp 175573000 us: [98 4A 00] channel 9: note On D5 velocity: 0
timestamp 175683000 us: [93 4A 00] channel 4: note On D5 velocity: 0
timestamp 175733000 us: [95 32 00] channel 6: note On D3 velocity: 0
timestamp 175743000 us: [95 2D 00] channel 6: note On A2 velocity: 0
timestamp 175743000 us: [96 3E 00] channel 7: note On D4 velocity: 0
timestamp 175743000 us: [96 39 00] channel 7: note On A3 velocity: 0
timestamp 175743000 us: [96 36 00] channel 7: note On F#3 velocity: 0
timestamp 175753000 us: [93 4A 67] channel 4: note On D5 velocity: 103
timestamp 175753000 us: [95 2D 2F] channel 6: note On A2 velocity: 47
timestamp 175763000 us: [96 36 4C] channel 7: note On F#3 velocity: 76
timestamp 175763000 us: [98 4A 60] channel 9: note On D5 velocity: 96
timestamp 175763000 us: [99 2A 2D] channel 10: note On F#2 velocity: 45
timestamp 175763000 us: [92 3E 00] channel 3: note On D4 velocity: 0
timestamp 175763000 us: [92 39 00] channel 3: note On A3 velocity: 0
timestamp 175763000 us: [92 36 00] channel 3: note On F#3 velocity: 0
timestamp 175773000 us: [95 32 38] channel 6: note On D3 velocity: 56
timestamp 175773000 us: [99 2A 00] channel 10: note On F#2 velocity: 0
timestamp 175773000 us: [92 36 4E] channel 3: note On F#3 velocity: 78
timestamp 175843000 us: [94 5B 00] channel 5: note On G6 velocity: 0
timestamp 175843000 us: [94 4F 00] channel 5: note On G5 velocity: 0
timestamp 175853000 us: [95 32 00] channel 6: note On D3 velocity: 0
timestamp 175863000 us: [93 4A 00] channel 4: note On D5 velocity: 0
timestamp 175863000 us: [95 2D 00] channel 6: note On A2 velocity: 0
timestamp 175883000 us: [98 4A 00] channel 9: note On D5 velocity: 0
timestamp 175903000 us: [92 36 00] channel 3: note On F#3 velocity: 0
timestamp 175913000 us: [92 39 57] channel 3: note On A3 velocity: 87
timestamp 175913000 us: [92 3E 51] channel 3: note On D4 velocity: 81
timestamp 175913000 us: [93 4A 6B] channel 4: note On D5 velocity: 107
timestamp 175913000 us: [95 2D 3B] channel 6: note On A2 velocity: 59
timestamp 175913000 us: [96 39 58] channel 7: note On A3 velocity: 88
timestamp 175923000 us: [98 4C 5B] channel 9: note On E5 velocity: 91
timestamp 175923000 us: [99 23 75] channel 10: note On B1 velocity: 117
timestamp 175923000 us: [99 2A 51] channel 10: note On F#2 velocity: 81
timestamp 175923000 us: [92 36 4D] channel 3: note On F#3 velocity: 77
timestamp 175923000 us: [99 28 64] channel 10: note On E2 velocity: 100
timestamp 175933000 us: [95 32 48] channel 6: note On D3 velocity: 72
timestamp 175933000 us: [99 2A 00] channel 10: note On F#2 velocity: 0
timestamp 175933000 us: [99 23 00] channel 10: note On B1 velocity: 0
timestamp 175933000 us: [99 28 00] channel 10: note On E2 velocity: 0
timestamp 175933000 us: [96 3E 5B] channel 7: note On D4 velocity: 91
timestamp 176083000 us: [96 36 00] channel 7: note On F#3 velocity: 0
timestamp 176133000 us: [95 2D 00] channel 6: note On A2 velocity: 0
timestamp 176143000 us: [93 4A 00] channel 4: note On D5 velocity: 0
timestamp 176143000 us: [95 32 00] channel 6: note On D3 velocity: 0
timestamp 176183000 us: [96 3E 00] channel 7: note On D4 velocity: 0
timestamp 176193000 us: [92 3E 00] channel 3: note On D4 velocity: 0
timestamp 176193000 us: [92 39 00] channel 3: note On A3 velocity: 0
timestamp 176203000 us: [92 36 00] channel 3: note On F#3 velocity: 0
timestamp 176213000 us: [96 39 00] channel 7: note On A3 velocity: 0
timestamp 176223000 us: [93 4A 6E] channel 4: note On D5 velocity: 110
timestamp 176223000 us: [95 2D 2E] channel 6: note On A2 velocity: 46
timestamp 176223000 us: [96 36 49] channel 7: note On F#3 velocity: 73
timestamp 176223000 us: [98 4A 56] channel 9: note On D5 velocity: 86
timestamp 176223000 us: [98 4F 54] channel 9: note On G5 velocity: 84
timestamp 176233000 us: [99 2A 2D] channel 10: note On F#2 velocity: 45
timestamp 176233000 us: [95 32 37] channel 6: note On D3 velocity: 55
timestamp 176233000 us: [98 4C 00] channel 9: note On E5 velocity: 0
timestamp 176233000 us: [99 2A 00] channel 10: note On F#2 velocity: 0
timestamp 176243000 us: [92 36 4E] channel 3: note On F#3 velocity: 78
timestamp 176333000 us: [91 26 00] channel 2: note On D2 velocity: 0
timestamp 176353000 us: [95 2D 00] channel 6: note On A2 velocity: 0
timestamp 176363000 us: [93 4A 00] channel 4: note On D5 velocity: 0
timestamp 176363000 us: [92 36 00] channel 3: note On F#3 velocity: 0
timestamp 176373000 us: [95 32 00] channel 6: note On D3 velocity: 0
timestamp 176373000 us: [96 36 00] channel 7: note On F#3 velocity: 0
timestamp 176383000 us: [91 26 6A] channel 2: note On D2 velocity: 106
timestamp 176383000 us: [93 4A 66] channel 4: note On D5 velocity: 102
timestamp 176383000 us: [95 2D 43] channel 6: note On A2 velocity: 67
timestamp 176383000 us: [96 36 56] channel 7: note On F#3 velocity: 86
timestamp 176383000 us: [99 23 75] channel 10: note On B1 velocity: 117
timestamp 176383000 us: [99 2A 3D] channel 10: note On F#2 velocity: 61
timestamp 176393000 us: [95 32 48] channel 6: note On D3 velocity: 72
timestamp 176393000 us: [99 2A 00] channel 10: note On F#2 velocity: 0
timestamp 176393000 us: [99 23 00] channel 10: note On B1 velocity: 0
timestamp 176393000 us: [96 39 4E] channel 7: note On A3 velocity: 78
timestamp 176403000 us: [92 36 51] channel 3: note On F#3 velocity: 81
timestamp 176403000 us: [92 39 55] channel 3: note On A3 velocity: 85
timestamp 176413000 us: [92 3E 5B] channel 3: note On D4 velocity: 91
timestamp 176413000 us: [96 3E 55] channel 7: note On D4 velocity: 85
timestamp 176513000 us: [94 47 6F] channel 5: note On B4 velocity: 111
timestamp 176513000 us: [94 53 64] channel 5: note On B5 velocity: 100
timestamp 176533000 us: [98 4F 00] channel 9: note On G5 velocity: 0
timestamp 176533000 us: [98 4A 00] channel 9: note On D5 velocity: 0
timestamp 176583000 us: [95 2D 00] channel 6: note On A2 velocity: 0
timestamp 176603000 us: [95 32 00] channel 6: note On D3 velocity: 0
timestamp 176603000 us: [94 53 00] channel 5: note On B5 velocity: 0
timestamp 176603000 us: [94 47 00] channel 5: note On B4 velocity: 0
timestamp 176663000 us: [94 4A 71] channel 5: note On D5 velocity: 113
timestamp 176673000 us: [94 56 66] channel 5: note On D6 velocity: 102
timestamp 176733000 us: [93 4A 00] channel 4: note On D5 velocity: 0
timestamp 176763000 us: [94 56 00] channel 5: note On D6 velocity: 0
timestamp 176763000 us: [94 4A 00] channel 5: note On D5 velocity: 0
timestamp 176823000 us: [94 4F 6D] channel 5: note On G5 velocity: 109
timestamp 176823000 us: [94 5B 62] channel 5: note On G6 velocity: 98
timestamp 176843000 us: [93 4A 69] channel 4: note On D5 velocity: 105
timestamp 176843000 us: [99 23 75] channel 10: note On B1 velocity: 117
timestamp 176843000 us: [99 2A 4D] channel 10: note On F#2 velocity: 77
timestamp 176843000 us: [99 28 64] channel 10: note On E2 velocity: 100
timestamp 176853000 us: [99 2A 00] channel 10: note On F#2 velocity: 0
timestamp 176853000 us: [99 23 00] channel 10: note On B1 velocity: 0
timestamp 176853000 us: [99 28 00] channel 10: note On E2 velocity: 0
timestamp 176923000 us: [94 5B 00] channel 5: note On G6 velocity: 0
timestamp 176923000 us: [94 4F 00] channel 5: note On G5 velocity: 0
timestamp 176983000 us: [94 4D 6F] channel 5: note On F5 velocity: 111
timestamp 176983000 us: [94 59 64] channel 5: note On F6 velocity: 100
timestamp 177063000 us: [94 59 00] channel 5: note On F6 velocity: 0
timestamp 177063000 us: [94 4D 00] channel 5: note On F5 velocity: 0
timestamp 177133000 us: [94 4A 6D] channel 5: note On D5 velocity: 109
timestamp 177133000 us: [94 56 62] channel 5: note On D6 velocity: 98
timestamp 177223000 us: [94 56 00] channel 5: note On D6 velocity: 0
timestamp 177223000 us: [94 4A 00] channel 5: note On D5 velocity: 0
timestamp 177243000 us: [92 3E 00] channel 3: note On D4 velocity: 0
timestamp 177243000 us: [92 39 00] channel 3: note On A3 velocity: 0
timestamp 177243000 us: [92 36 00] channel 3: note On F#3 velocity: 0
timestamp 177263000 us: [91 26 00] channel 2: note On D2 velocity: 0
timestamp 177293000 us: [96 3E 00] channel 7: note On D4 velocity: 0
timestamp 177293000 us: [96 39 00] channel 7: note On A3 velocity: 0
timestamp 177293000 us: [93 4A 00] channel 4: note On D5 velocity: 0
timestamp 177293000 us: [96 36 00] channel 7: note On F#3 velocity: 0
timestamp 177313000 us: [92 4F 4A] channel 3: note On G5 velocity: 74
timestamp 177313000 us: [92 53 4A] channel 3: note On B5 velocity: 74
timestamp 177313000 us: [92 56 48] channel 3: note On D6 velocity: 72
timestamp 177313000 us: [93 47 60] channel 4: note On B4 velocity: 96
timestamp 177443000 us: [92 56 00] channel 3: note On D6 velocity: 0
timestamp 177463000 us: [92 53 00] channel 3: note On B5 velocity: 0
timestamp 177463000 us: [92 4F 00] channel 3: note On G5 velocity: 0
timestamp 177533000 us: [93 47 00] channel 4: note On B4 velocity: 0
timestamp 177623000 us: [92 4F 44] channel 3: note On G5 velocity: 68
timestamp 177623000 us: [92 53 4D] channel 3: note On B5 velocity: 77
timestamp 177623000 us: [92 56 43] channel 3: note On D6 velocity: 67
timestamp 177623000 us: [93 4A 61] channel 4: note On D5 velocity: 97
timestamp 177703000 us: [92 53 00] channel 3: note On B5 velocity: 0
timestamp 177713000 us: [92 4F 00] channel 3: note On G5 velocity: 0
timestamp 177713000 us: [92 56 00] channel 3: note On D6 velocity: 0
timestamp 177723000 us: [93 4A 00] channel 4: note On D5 velocity: 0
timestamp 177783000 us: [92 56 44] channel 3: note On D6 velocity: 68
timestamp 177783000 us: [92 4F 36] channel 3: note On G5 velocity: 54
timestamp 177783000 us: [92 53 51] channel 3: note On B5 velocity: 81
timestamp 177783000 us: [93 4A 59] channel 4: note On D5 velocity: 89
timestamp 177903000 us: [92 53 00] channel 3: note On B5 velocity: 0
timestamp 177903000 us: [92 4F 00] channel 3: note On G5 velocity: 0
timestamp 177913000 us: [92 56 00] channel 3: note On D6 velocity: 0
timestamp 177943000 us: [93 4A 00] channel 4: note On D5 velocity: 0
timestamp 178083000 us: [92 4F 3F] channel 3: note On G5 velocity: 63
timestamp 178083000 us: [92 56 43] channel 3: note On D6 velocity: 67
timestamp 178083000 us: [92 53 4A] channel 3: note On B5 velocity: 74
timestamp 178093000 us: [93 4A 5E] channel 4: note On D5 velocity: 94
timestamp 178153000 us: [92 56 00] channel 3: note On D6 velocity: 0
timestamp 178153000 us: [92 4F 00] channel 3: note On G5 velocity: 0
timestamp 178163000 us: [92 53 00] channel 3: note On B5 velocity: 0
timestamp 178203000 us: [93 4A 00] channel 4: note On D5 velocity: 0
timestamp 178243000 us: [92 56 4F] channel 3: note On D6 velocity: 79
timestamp 178243000 us: [92 51 4A] channel 3: note On A5 velocity: 74
timestamp 178253000 us: [92 4E 48] channel 3: note On F#5 velocity: 72
timestamp 178253000 us: [93 4C 5E] channel 4: note On E5 velocity: 94
timestamp 178373000 us: [92 4E 00] channel 3: note On F#5 velocity: 0
timestamp 178373000 us: [92 56 00] channel 3: note On D6 velocity: 0
timestamp 178383000 us: [92 51 00] channel 3: note On A5 velocity: 0
timestamp 178513000 us: [93 4C 00] channel 4: note On E5 velocity: 0
timestamp 178543000 us: [92 4E 44] channel 3: note On F#5 velocity: 68
timestamp 178543000 us: [92 51 48] channel 3: note On A5 velocity: 72
timestamp 178553000 us: [92 56 46] channel 3: note On D6 velocity: 70
timestamp 178553000 us: [97 4A 5B] channel 8: note On D5 velocity: 91
timestamp 178553000 us: [93 4A 5A] channel 4: note On D5 velocity: 90
timestamp 178613000 us: [92 51 00] channel 3: note On A5 velocity: 0
timestamp 178623000 us: [92 56 00] channel 3: note On D6 velocity: 0
timestamp 178633000 us: [92 4E 00] channel 3: note On F#5 velocity: 0
timestamp 178643000 us: [97 4A 00] channel 8: note On D5 velocity: 0
timestamp 178703000 us: [92 4E 46] channel 3: note On F#5 velocity: 70
timestamp 178703000 us: [92 56 4F] channel 3: note On D6 velocity: 79
timestamp 178703000 us: [92 51 4F] channel 3: note On A5 velocity: 79
timestamp 178713000 us: [97 4A 5B] channel 8: note On D5 velocity: 91
timestamp 178813000 us: [92 51 00] channel 3: note On A5 velocity: 0
timestamp 178823000 us: [92 4E 00] channel 3: note On F#5 velocity: 0
timestamp 178843000 us: [92 56 00] channel 3: note On D6 velocity: 0
timestamp 178853000 us: [97 4A 00] channel 8: note On D5 velocity: 0
timestamp 179003000 us: [92 4E 44] channel 3: note On F#5 velocity: 68
timestamp 179013000 us: [92 56 3C] channel 3: note On D6 velocity: 60
timestamp 179013000 us: [92 51 3F] channel 3: note On A5 velocity: 63
timestamp 179013000 us: [93 4A 00] channel 4: note On D5 velocity: 0
timestamp 179023000 us: [97 4A 5B] channel 8: note On D5 velocity: 91
timestamp 179043000 us: [93 4A 4E] channel 4: note On D5 velocity: 78
timestamp 179063000 us: [92 51 00] channel 3: note On A5 velocity: 0
timestamp 179103000 us: [92 4E 00] channel 3: note On F#5 velocity: 0
timestamp 179113000 us: [92 56 00] channel 3: note On D6 velocity: 0
timestamp 179123000 us: [97 4A 00] channel 8: note On D5 velocity: 0
timestamp 179183000 us: [92 4F 4B] channel 3: note On G5 velocity: 75
timestamp 179183000 us: [92 54 43] channel 3: note On C6 velocity: 67
timestamp 179183000 us: [92 4C 46] channel 3: note On E5 velocity: 70
timestamp 179183000 us: [97 4C 5C] channel 8: note On E5 velocity: 92
timestamp 179183000 us: [93 4A 00] channel 4: note On D5 velocity: 0
timestamp 179193000 us: [93 48 63] channel 4: note On C5 velocity: 99
timestamp 179293000 us: [92 4C 00] channel 3: note On E5 velocity: 0
timestamp 179313000 us: [92 54 00] channel 3: note On C6 velocity: 0
timestamp 179333000 us: [92 4F 00] channel 3: note On G5 velocity: 0
timestamp 179383000 us: [93 48 00] channel 4: note On C5 velocity: 0
timestamp 179433000 us: [97 4C 00] channel 8: note On E5 velocity: 0
timestamp 179483000 us: [92 54 4D] channel 3: note On C6 velocity: 77
timestamp 179483000 us: [92 4C 3C] channel 3: note On E5 velocity: 60
timestamp 179483000 us: [92 4F 44] channel 3: note On G5 velocity: 68
timestamp 179493000 us: [93 48 57] channel 4: note On C5 velocity: 87
timestamp 179493000 us: [97 48 5F] channel 8: note On C5 velocity: 95
timestamp 179543000 us: [92 4C 00] channel 3: note On E5 velocity: 0
timestamp 179583000 us: [92 54 00] channel 3: note On C6 velocity: 0
timestamp 179583000 us: [92 4F 00] channel 3: note On G5 velocity: 0
timestamp 179603000 us: [93 48 00] channel 4: note On C5 velocity: 0
timestamp 179643000 us: [92 4C 52] channel 3: note On E5 velocity: 82
timestamp 179643000 us: [92 4F 3A] channel 3: note On G5 velocity: 58
timestamp 179643000 us: [92 54 58] channel 3: note On C6 velocity: 88
timestamp 179643000 us: [93 48 5C] channel 4: note On C5 velocity: 92
timestamp 179753000 us: [92 4C 00] channel 3: note On E5 velocity: 0
timestamp 179773000 us: [93 48 00] channel 4: note On C5 velocity: 0
timestamp 179783000 us: [92 4F 00] channel 3: note On G5 velocity: 0
timestamp 179793000 us: [93 48 5E] channel 4: note On C5 velocity: 94
timestamp 179793000 us: [92 54 00] channel 3: note On C6 velocity: 0
timestamp 179793000 us: [97 48 00] channel 8: note On C5 velocity: 0
timestamp 179953000 us: [92 4C 48] channel 3: note On E5 velocity: 72
timestamp 179953000 us: [92 54 4F] channel 3: note On C6 velocity: 79
timestamp 179953000 us: [92 4F 4B] channel 3: note On G5 velocity: 75
timestamp 179953000 us: [93 48 00] channel 4: note On C5 velocity: 0
timestamp 179953000 us: [97 4A 5A] channel 8: note On D5 velocity: 90
timestamp 179953000 us: [93 47 60] channel 4: note On B4 velocity: 96
timestamp 180033000 us: [92 4C 00] channel 3: note On E5 velocity: 0
timestamp 180043000 us: [92 54 00] channel 3: note On C6 velocity: 0
timestamp 180043000 us: [92 4F 00] channel 3: note On G5 velocity: 0
timestamp 180103000 us: [92 4F 3F] channel 3: note On G5 velocity: 63
timestamp 180113000 us: [92 53 51] channel 3: note On B5 velocity: 81
timestamp 180113000 us: [92 4A 41] channel 3: note On D5 velocity: 65
timestamp 180203000 us: [92 4A 00] channel 3: note On D5 velocity: 0
timestamp 180243000 us: [92 53 00] channel 3: note On B5 velocity: 0
timestamp 180263000 us: [92 4F 00] channel 3: note On G5 velocity: 0
timestamp 180343000 us: [93 47 00] channel 4: note On B4 velocity: 0
timestamp 180413000 us: [92 4A 48] channel 3: note On D5 velocity: 72
timestamp 180413000 us: [92 4F 46] channel 3: note On G5 velocity: 70
timestamp 180413000 us: [92 53 44] channel 3: note On B5 velocity: 68
timestamp 180483000 us: [92 53 00] channel 3: note On B5 velocity: 0
timestamp 180493000 us: [92 4A 00] channel 3: note On D5 velocity: 0
timestamp 180513000 us: [92 4F 00] channel 3: note On G5 velocity: 0
timestamp 180563000 us: [92 4F 4F] channel 3: note On G5 velocity: 79
timestamp 180573000 us: [92 4A 4F] channel 3: note On D5 velocity: 79
timestamp 180573000 us: [92 53 59] channel 3: note On B5 velocity: 89
timestamp 180673000 us: [92 4A 00] channel 3: note On D5 velocity: 0
timestamp 180683000 us: [92 4F 00] channel 3: note On G5 velocity: 0
timestamp 180713000 us: [92 53 00] channel 3: note On B5 velocity: 0
timestamp 180783000 us: [97 4A 00] channel 8: note On D5 velocity: 0
timestamp 180873000 us: [92 53 43] channel 3: note On B5 velocity: 67
timestamp 180873000 us: [92 4F 33] channel 3: note On G5 velocity: 51
timestamp 180883000 us: [92 4A 48] channel 3: note On D5 velocity: 72
timestamp 180883000 us: [93 47 59] channel 4: note On B4 velocity: 89
timestamp 180953000 us: [92 4F 00] channel 3: note On G5 velocity: 0
timestamp 180963000 us: [92 4A 00] channel 3: note On D5 velocity: 0
timestamp 180973000 us: [92 53 00] channel 3: note On B5 velocity: 0
timestamp 181003000 us: [93 47 00] channel 4: note On B4 velocity: 0
timestamp 181023000 us: [92 54 54] channel 3: note On C6 velocity: 84
timestamp 181033000 us: [92 4C 54] channel 3: note On E5 velocity: 84
timestamp 181033000 us: [92 4F 51] channel 3: note On G5 velocity: 81
timestamp 181033000 us: [93 48 5E] channel 4: note On C5 velocity: 94
timestamp 181163000 us: [92 4C 00] channel 3: note On E5 velocity: 0
timestamp 181163000 us: [92 54 00] channel 3: note On C6 velocity: 0
timestamp 181173000 us: [92 4F 00] channel 3: note On G5 velocity: 0
timestamp 181283000 us: [93 48 00] channel 4: note On C5 velocity: 0
timestamp 181333000 us: [92 4C 43] channel 3: note On E5 velocity: 67
timestamp 181343000 us: [92 4F 4D] channel 3: note On G5 velocity: 77
timestamp 181343000 us: [92 54 4F] channel 3: note On C6 velocity: 79
timestamp 181353000 us: [93 48 61] channel 4: note On C5 velocity: 97
timestamp 181403000 us: [92 4C 00] channel 3: note On E5 velocity: 0
timestamp 181423000 us: [92 4F 00] channel 3: note On G5 velocity: 0
timestamp 181423000 us: [92 54 00] channel 3: note On C6 velocity: 0
timestamp 181463000 us: [93 48 00] channel 4: note On C5 velocity: 0
timestamp 181493000 us: [92 4C 51] channel 3: note On E5 velocity: 81
timestamp 181503000 us: [92 4F 43] channel 3: note On G5 velocity: 67
timestamp 181503000 us: [92 54 52] channel 3: note On C6 velocity: 82
timestamp 181503000 us: [93 48 60] channel 4: note On C5 velocity: 96
timestamp 181603000 us: [92 4C 00] channel 3: note On E5 velocity: 0
timestamp 181613000 us: [92 54 00] channel 3: note On C6 velocity: 0
timestamp 181633000 us: [92 4F 00] channel 3: note On G5 velocity: 0
timestamp 181673000 us: [93 48 00] channel 4: note On C5 velocity: 0
timestamp 181803000 us: [92 54 3D] channel 3: note On C6 velocity: 61
timestamp 181803000 us: [92 4C 32] channel 3: note On E5 velocity: 50
timestamp 181803000 us: [92 4F 38] channel 3: note On G5 velocity: 56
timestamp 181813000 us: [93 48 60] channel 4: note On C5 velocity: 96
timestamp 181873000 us: [92 4C 00] channel 3: note On E5 velocity: 0
timestamp 181873000 us: [92 54 00] channel 3: note On C6 velocity: 0
timestamp 181913000 us: [92 4F 00] channel 3: note On G5 velocity: 0
timestamp 181913000 us: [93 48 00] channel 4: note On C5 velocity: 0
timestamp 181973000 us: [92 4F 43] channel 3: note On G5 velocity: 67
timestamp 181973000 us: [92 53 52] channel 3: note On B5 velocity: 82
timestamp 181973000 us: [92 4A 43] channel 3: note On D5 velocity: 67
timestamp 181973000 us: [93 48 63] channel 4: note On C5 velocity: 99
timestamp 182053000 us: [92 4A 00] channel 3: note On D5 velocity: 0
timestamp 182083000 us: [92 53 00] channel 3: note On B5 velocity: 0
timestamp 182093000 us: [92 4F 00] channel 3: note On G5 velocity: 0
timestamp 182263000 us: [93 48 00] channel 4: note On C5 velocity: 0
timestamp 182263000 us: [92 4A 32] channel 3: note On D5 velocity: 50
timestamp 182273000 us: [92 4F 3A] channel 3: note On G5 velocity: 58
timestamp 182273000 us: [92 53 36] channel 3: note On B5 velocity: 54
timestamp 182283000 us: [93 47 5A] channel 4: note On B4 velocity: 90
timestamp 182343000 us: [92 4A 00] channel 3: note On D5 velocity: 0
timestamp 182343000 us: [92 53 00] channel 3: note On B5 velocity: 0
timestamp 182363000 us: [92 4F 00] channel 3: note On G5 velocity: 0
timestamp 182423000 us: [92 4A 4D] channel 3: note On D5 velocity: 77
timestamp 182433000 us: [92 4F 43] channel 3: note On G5 velocity: 67
timestamp 182433000 us: [92 53 4D] channel 3: note On B5 velocity: 77
timestamp 182543000 us: [92 4F 00] channel 3: note On G5 velocity: 0
timestamp 182543000 us: [92 4A 00] channel 3: note On D5 velocity: 0
timestamp 182563000 us: [92 53 00] channel 3: note On B5 velocity: 0
timestamp 182613000 us: [93 47 00] channel 4: note On B4 velocity: 0
timestamp 182733000 us: [92 4A 32] channel 3: note On D5 velocity: 50
timestamp 182733000 us: [92 4F 3F] channel 3: note On G5 velocity: 63
timestamp 182733000 us: [92 53 44] channel 3: note On B5 velocity: 68
timestamp 182743000 us: [93 47 5C] channel 4: note On B4 velocity: 92
timestamp 182813000 us: [92 4A 00] channel 3: note On D5 velocity: 0
timestamp 182813000 us: [92 53 00] channel 3: note On B5 velocity: 0
timestamp 182833000 us: [93 47 00] channel 4: note On B4 velocity: 0
timestamp 182843000 us: [92 4F 00] channel 3: note On G5 velocity: 0
timestamp 182893000 us: [92 55 54] channel 3: note On C#6 velocity: 84
timestamp 182893000 us: [92 4C 4B] channel 3: note On E5 velocity: 75
timestamp 182893000 us: [92 51 48] channel 3: note On A5 velocity: 72
timestamp 182903000 us: [93 47 53] channel 4: note On B4 velocity: 83
timestamp 183003000 us: [92 51 00] channel 3: note On A5 velocity: 0
timestamp 183013000 us: [92 4C 00] channel 3: note On E5 velocity: 0
timestamp 183023000 us: [92 55 00] channel 3: note On C#6 velocity: 0
timestamp 183143000 us: [93 47 00] channel 4: note On B4 velocity: 0
timestamp 183193000 us: [92 55 51] channel 3: note On C#6 velocity: 81
timestamp 183193000 us: [92 4C 4D] channel 3: note On E5 velocity: 77
timestamp 183193000 us: [92 51 52] channel 3: note On A5 velocity: 82
timestamp 183203000 us: [93 45 4F] channel 4: note On A4 velocity: 79
timestamp 183293000 us: [92 51 00] channel 3: note On A5 velocity: 0
timestamp 183293000 us: [92 4C 00] channel 3: note On E5 velocity: 0
timestamp 183293000 us: [92 55 00] channel 3: note On C#6 velocity: 0
timestamp 183353000 us: [92 4C 4D] channel 3: note On E5 velocity: 77
timestamp 183353000 us: [92 55 4A] channel 3: note On C#6 velocity: 74
timestamp 183353000 us: [92 51 48] channel 3: note On A5 velocity: 72
timestamp 183363000 us: [93 45 00] channel 4: note On A4 velocity: 0
timestamp 183363000 us: [93 45 59] channel 4: note On A4 velocity: 89
timestamp 183453000 us: [92 51 00] channel 3: note On A5 velocity: 0
timestamp 183463000 us: [92 4C 00] channel 3: note On E5 velocity: 0
timestamp 183473000 us: [92 55 00] channel 3: note On C#6 velocity: 0
timestamp 183533000 us: [93 45 00] channel 4: note On A4 velocity: 0
timestamp 183653000 us: [92 55 4A] channel 3: note On C#6 velocity: 74
timestamp 183663000 us: [92 4C 3F] channel 3: note On E5 velocity: 63
timestamp 183663000 us: [92 51 51] channel 3: note On A5 velocity: 81
timestamp 183673000 us: [93 47 55] channel 4: note On B4 velocity: 85
timestamp 183713000 us: [92 4C 00] channel 3: note On E5 velocity: 0
timestamp 183733000 us: [92 55 00] channel 3: note On C#6 velocity: 0
timestamp 183733000 us: [92 51 00] channel 3: note On A5 velocity: 0
timestamp 183803000 us: [93 47 00] channel 4: note On B4 velocity: 0
timestamp 183813000 us: [92 56 54] channel 3: note On D6 velocity: 84
timestamp 183813000 us: [92 4E 4D] channel 3: note On F#5 velocity: 77
timestamp 183823000 us: [92 51 3F] channel 3: note On A5 velocity: 63
timestamp 183823000 us: [93 45 61] channel 4: note On A4 velocity: 97
timestamp 183943000 us: [92 56 00] channel 3: note On D6 velocity: 0
timestamp 183943000 us: [92 51 00] channel 3: note On A5 velocity: 0
timestamp 183953000 us: [92 4E 00] channel 3: note On F#5 velocity: 0
timestamp 184103000 us: [93 45 00] channel 4: note On A4 velocity: 0
timestamp 184123000 us: [97 4F 5E] channel 8: note On G5 velocity: 94
timestamp 184123000 us: [92 51 48] channel 3: note On A5 velocity: 72
timestamp 184123000 us: [92 56 4D] channel 3: note On D6 velocity: 77
timestamp 184123000 us: [92 4E 44] channel 3: note On F#5 velocity: 68
timestamp 184133000 us: [93 4A 61] channel 4: note On D5 velocity: 97
timestamp 184193000 us: [92 4E 00] channel 3: note On F#5 velocity: 0
timestamp 184193000 us: [92 51 00] channel 3: note On A5 velocity: 0
timestamp 184193000 us: [92 56 00] channel 3: note On D6 velocity: 0
timestamp 184223000 us: [97 4F 00] channel 8: note On G5 velocity: 0
timestamp 184273000 us: [92 56 3D] channel 3: note On D6 velocity: 61
timestamp 184283000 us: [92 4E 43] channel 3: note On F#5 velocity: 67
timestamp 184283000 us: [97 4F 59] channel 8: note On G5 velocity: 89
timestamp 184283000 us: [92 51 4A] channel 3: note On A5 velocity: 74
timestamp 184373000 us: [92 51 00] channel 3: note On A5 velocity: 0
timestamp 184393000 us: [92 4E 00] channel 3: note On F#5 velocity: 0
timestamp 184403000 us: [92 56 00] channel 3: note On D6 velocity: 0
timestamp 184423000 us: [97 4F 00] channel 8: note On G5 velocity: 0
timestamp 184573000 us: [97 4F 5C] channel 8: note On G5 velocity: 92
timestamp 184573000 us: [92 56 4B] channel 3: note On D6 velocity: 75
timestamp 184583000 us: [92 4E 43] channel 3: note On F#5 velocity: 67
timestamp 184583000 us: [92 51 4F] channel 3: note On A5 velocity: 79
timestamp 184673000 us: [92 51 00] channel 3: note On A5 velocity: 0
timestamp 184673000 us: [92 4E 00] channel 3: note On F#5 velocity: 0
timestamp 184683000 us: [97 4F 00] channel 8: note On G5 velocity: 0
timestamp 184683000 us: [92 56 00] channel 3: note On D6 velocity: 0
timestamp 184723000 us: [93 4A 00] channel 4: note On D5 velocity: 0
timestamp 184743000 us: [97 4F 5C] channel 8: note On G5 velocity: 92
timestamp 184753000 us: [92 4F 4A] channel 3: note On G5 velocity: 74
timestamp 184753000 us: [92 53 4A] channel 3: note On B5 velocity: 74
timestamp 184753000 us: [92 56 48] channel 3: note On D6 velocity: 72
timestamp 184763000 us: [93 47 60] channel 4: note On B4 velocity: 96
timestamp 184883000 us: [92 56 00] channel 3: note On D6 velocity: 0
timestamp 184903000 us: [92 53 00] channel 3: note On B5 velocity: 0
timestamp 184903000 us: [92 4F 00] channel 3: note On G5 velocity: 0
timestamp 184963000 us: [97 4F 00] channel 8: note On G5 velocity: 0
timestamp 184973000 us: [93 47 00] channel 4: note On B4 velocity: 0
timestamp 185033000 us: [97 4A 5E] channel 8: note On D5 velocity: 94
timestamp 185063000 us: [92 4F 44] channel 3: note On G5 velocity: 68
timestamp 185063000 us: [92 53 4D] channel 3: note On B5 velocity: 77
timestamp 185063000 us: [92 56 43] channel 3: note On D6 velocity: 67
timestamp 185073000 us: [93 4A 61] channel 4: note On D5 velocity: 97
timestamp 185153000 us: [92 53 00] channel 3: note On B5 velocity: 0
timestamp 185153000 us: [92 4F 00] channel 3: note On G5 velocity: 0
timestamp 185153000 us: [92 56 00] channel 3: note On D6 velocity: 0
timestamp 185163000 us: [93 4A 00] channel 4: note On D5 velocity: 0
timestamp 185223000 us: [92 56 44] channel 3: note On D6 velocity: 68
timestamp 185223000 us: [92 4F 36] channel 3: note On G5 velocity: 54
timestamp 185223000 us: [92 53 51] channel 3: note On B5 velocity: 81
timestamp 185223000 us: [93 4A 59] channel 4: note On D5 velocity: 89
timestamp 185293000 us: [97 4A 00] channel 8: note On D5 velocity: 0
timestamp 185353000 us: [92 53 00] channel 3: note On B5 velocity: 0
timestamp 185353000 us: [92 4F 00] channel 3: note On G5 velocity: 0
timestamp 185353000 us: [92 56 00] channel 3: note On D6 velocity: 0
timestamp 185383000 us: [93 4A 00] channel 4: note On D5 velocity: 0
timestamp 185503000 us: [97 4A 5C] channel 8: note On D5 velocity: 92
timestamp 185523000 us: [92 4F 3F] channel 3: note On G5 velocity: 63
timestamp 185523000 us: [92 56 43] channel 3: note On D6 velocity: 67
timestamp 185533000 us: [92 53 4A] channel 3: note On B5 velocity: 74
timestamp 185533000 us: [93 4A 5E] channel 4: note On D5 velocity: 94
timestamp 185593000 us: [92 56 00] channel 3: note On D6 velocity: 0
timestamp 185593000 us: [92 4F 00] channel 3: note On G5 velocity: 0
timestamp 185603000 us: [92 53 00] channel 3: note On B5 velocity: 0
timestamp 185643000 us: [93 4A 00] channel 4: note On D5 velocity: 0
timestamp 185683000 us: [92 56 4F] channel 3: note On D6 velocity: 79
timestamp 185693000 us: [92 51 4A] channel 3: note On A5 velocity: 74
timestamp 185693000 us: [92 4E 48] channel 3: note On F#5 velocity: 72
timestamp 185693000 us: [93 4C 5E] channel 4: note On E5 velocity: 94
timestamp 185813000 us: [92 4E 00] channel 3: note On F#5 velocity: 0
timestamp 185823000 us: [92 56 00] channel 3: note On D6 velocity: 0
timestamp 185833000 us: [92 51 00] channel 3: note On A5 velocity: 0
timestamp 185963000 us: [93 4C 00] channel 4: note On E5 velocity: 0
timestamp 185983000 us: [92 4E 44] channel 3: note On F#5 velocity: 68
timestamp 185993000 us: [92 51 48] channel 3: note On A5 velocity: 72
timestamp 185993000 us: [92 56 46] channel 3: note On D6 velocity: 70
timestamp 186003000 us: [93 4A 5A] channel 4: note On D5 velocity: 90
timestamp 186053000 us: [92 51 00] channel 3: note On A5 velocity: 0
timestamp 186063000 us: [92 56 00] channel 3: note On D6 velocity: 0
timestamp 186073000 us: [92 4E 00] channel 3: note On F#5 velocity: 0
timestamp 186143000 us: [92 4E 46] channel 3: note On F#5 velocity: 70
timestamp 186143000 us: [92 56 4F] channel 3: note On D6 velocity: 79
timestamp 186153000 us: [92 51 4F] channel 3: note On A5 velocity: 79
timestamp 186253000 us: [92 51 00] channel 3: note On A5 velocity: 0
timestamp 186273000 us: [92 4E 00] channel 3: note On F#5 velocity: 0
timestamp 186293000 us: [92 56 00] channel 3: note On D6 velocity: 0
timestamp 186343000 us: [97 4A 00] channel 8: note On D5 velocity: 0
timestamp 186453000 us: [92 4E 44] channel 3: note On F#5 velocity: 68
timestamp 186453000 us: [92 56 3C] channel 3: note On D6 velocity: 60
timestamp 186453000 us: [92 51 3F] channel 3: note On A5 velocity: 63
timestamp 186453000 us: [93 4A 00] channel 4: note On D5 velocity: 0
timestamp 186483000 us: [93 4A 4E] channel 4: note On D5 velocity: 78
timestamp 186503000 us: [92 51 00] channel 3: note On A5 velocity: 0
timestamp 186543000 us: [92 4E 00] channel 3: note On F#5 velocity: 0
timestamp 186553000 us: [92 56 00] channel 3: note On D6 velocity: 0
timestamp 186623000 us: [92 4F 4B] channel 3: note On G5 velocity: 75
timestamp 186623000 us: [92 54 43] channel 3: note On C6 velocity: 67
timestamp 186623000 us: [92 4C 46] channel 3: note On E5 velocity: 70
timestamp 186623000 us: [93 4A 00] channel 4: note On D5 velocity: 0
timestamp 186633000 us: [93 48 63] channel 4: note On C5 velocity: 99
timestamp 186743000 us: [92 4C 00] channel 3: note On E5 velocity: 0
timestamp 186753000 us: [92 54 00] channel 3: note On C6 velocity: 0
timestamp 186783000 us: [92 4F 00] channel 3: note On G5 velocity: 0
timestamp 186823000 us: [93 48 00] channel 4: note On C5 velocity: 0
timestamp 186923000 us: [92 54 4D] channel 3: note On C6 velocity: 77
timestamp 186923000 us: [92 4C 3C] channel 3: note On E5 velocity: 60
timestamp 186923000 us: [92 4F 44] channel 3: note On G5 velocity: 68
timestamp 186933000 us: [93 48 57] channel 4: note On C5 velocity: 87
timestamp 186983000 us: [92 4C 00] channel 3: note On E5 velocity: 0
timestamp 187023000 us: [92 54 00] channel 3: note On C6 velocity: 0
timestamp 187023000 us: [92 4F 00] channel 3: note On G5 velocity: 0
timestamp 187053000 us: [93 48 00] channel 4: note On C5 velocity: 0
timestamp 187083000 us: [92 4C 52] channel 3: note On E5 velocity: 82
timestamp 187083000 us: [92 4F 3A] channel 3: note On G5 velocity: 58
timestamp 187083000 us: [92 54 58] channel 3: note On C6 velocity: 88
timestamp 187093000 us: [93 48 5C] channel 4: note On C5 velocity: 92
timestamp 187193000 us: [92 4C 00] channel 3: note On E5 velocity: 0
timestamp 187223000 us: [93 48 00] channel 4: note On C5 velocity: 0
timestamp 187223000 us: [92 4F 00] channel 3: note On G5 velocity: 0
timestamp 187233000 us: [93 48 5E] channel 4: note On C5 velocity: 94
timestamp 187243000 us: [92 54 00] channel 3: note On C6 velocity: 0
timestamp 187393000 us: [92 4C 48] channel 3: note On E5 velocity: 72
timestamp 187393000 us: [92 54 4F] channel 3: note On C6 velocity: 79
timestamp 187393000 us: [92 4F 4B] channel 3: note On G5 velocity: 75
timestamp 187393000 us: [93 48 00] channel 4: note On C5 velocity: 0
timestamp 187393000 us: [93 47 60] channel 4: note On B4 velocity: 96
timestamp 187473000 us: [92 4C 00] channel 3: note On E5 velocity: 0
timestamp 187483000 us: [92 54 00] channel 3: note On C6 velocity: 0
timestamp 187493000 us: [92 4F 00] channel 3: note On G5 velocity: 0
timestamp 187553000 us: [92 53 3F] channel 3: note On B5 velocity: 63
timestamp 187553000 us: [92 56 51] channel 3: note On D6 velocity: 81
timestamp 187563000 us: [92 4F 41] channel 3: note On G5 velocity: 65
timestamp 187653000 us: [92 4F 00] channel 3: note On G5 velocity: 0
timestamp 187693000 us: [92 56 00] channel 3: note On D6 velocity: 0
timestamp 187703000 us: [92 53 00] channel 3: note On B5 velocity: 0
timestamp 187783000 us: [93 47 00] channel 4: note On B4 velocity: 0
timestamp 187853000 us: [92 4F 48] channel 3: note On G5 velocity: 72
timestamp 187853000 us: [92 53 46] channel 3: note On B5 velocity: 70
timestamp 187863000 us: [92 56 44] channel 3: note On D6 velocity: 68
timestamp 187923000 us: [92 56 00] channel 3: note On D6 velocity: 0
timestamp 187933000 us: [92 4F 00] channel 3: note On G5 velocity: 0
timestamp 187953000 us: [92 53 00] channel 3: note On B5 velocity: 0
timestamp 188013000 us: [92 53 4F] channel 3: note On B5 velocity: 79
timestamp 188013000 us: [92 4F 4F] channel 3: note On G5 velocity: 79
timestamp 188013000 us: [92 56 59] channel 3: note On D6 velocity: 89
timestamp 188113000 us: [92 4F 00] channel 3: note On G5 velocity: 0
timestamp 188133000 us: [92 53 00] channel 3: note On B5 velocity: 0
timestamp 188163000 us: [92 56 00] channel 3: note On D6 velocity: 0
timestamp 188313000 us: [92 56 43] channel 3: note On D6 velocity: 67
timestamp 188313000 us: [92 53 33] channel 3: note On B5 velocity: 51
timestamp 188323000 us: [92 4F 48] channel 3: note On G5 velocity: 72
timestamp 188323000 us: [93 43 59] channel 4: note On G4 velocity: 89
timestamp 188323000 us: [97 43 52] channel 8: note On G4 velocity: 82
timestamp 188443000 us: [92 56 00] channel 3: note On D6 velocity: 0
timestamp 188443000 us: [92 53 00] channel 3: note On B5 velocity: 0
timestamp 188443000 us: [92 4F 00] channel 3: note On G5 velocity: 0
timestamp 188463000 us: [92 3C 48] channel 3: note On C4 velocity: 72
timestamp 188463000 us: [92 30 56] channel 3: note On C3 velocity: 86
timestamp 188463000 us: [92 40 54] channel 3: note On E4 velocity: 84
timestamp 188473000 us: [91 24 6A] channel 2: note On C2 velocity: 106
timestamp 188473000 us: [92 43 54] channel 3: note On G4 velocity: 84
timestamp 188473000 us: [98 43 52] channel 9: note On G4 velocity: 82
timestamp 188473000 us: [99 23 75] channel 10: note On B1 velocity: 117
timestamp 188473000 us: [93 43 00] channel 4: note On G4 velocity: 0
timestamp 188473000 us: [97 43 00] channel 8: note On G4 velocity: 0
timestamp 188483000 us: [93 43 6B] channel 4: note On G4 velocity: 107
timestamp 188483000 us: [97 43 63] channel 8: note On G4 velocity: 99
timestamp 188483000 us: [99 23 00] channel 10: note On B1 velocity: 0
timestamp 188553000 us: [93 43 00] channel 4: note On G4 velocity: 0
timestamp 188553000 us: [97 43 00] channel 8: note On G4 velocity: 0
timestamp 188623000 us: [93 43 64] channel 4: note On G4 velocity: 100
timestamp 188623000 us: [97 43 5F] channel 8: note On G4 velocity: 95
timestamp 188703000 us: [93 43 00] channel 4: note On G4 velocity: 0
timestamp 188703000 us: [97 43 00] channel 8: note On G4 velocity: 0
timestamp 188783000 us: [93 43 5D] channel 4: note On G4 velocity: 93
timestamp 188783000 us: [97 43 56] channel 8: note On G4 velocity: 86
timestamp 188833000 us: [93 43 00] channel 4: note On G4 velocity: 0
timestamp 188833000 us: [97 43 00] channel 8: note On G4 velocity: 0
timestamp 188933000 us: [93 43 72] channel 4: note On G4 velocity: 114
timestamp 188933000 us: [97 43 6B] channel 8: note On G4 velocity: 107
timestamp 188933000 us: [99 23 75] channel 10: note On B1 velocity: 117
timestamp 188943000 us: [99 23 00] channel 10: note On B1 velocity: 0
timestamp 189363000 us: [98 43 00] channel 9: note On G4 velocity: 0
timestamp 189403000 us: [99 23 75] channel 10: note On B1 velocity: 117
timestamp 189413000 us: [99 23 00] channel 10: note On B1 velocity: 0
timestamp 189423000 us: [98 43 52] channel 9: note On G4 velocity: 82
timestamp 189863000 us: [99 23 75] channel 10: note On B1 velocity: 117
timestamp 189873000 us: [99 23 00] channel 10: note On B1 velocity: 0
timestamp 190043000 us: [98 45 46] channel 9: note On A4 velocity: 70
timestamp 190073000 us: [98 43 00] channel 9: note On G4 velocity: 0
timestamp 190123000 us: [98 47 46] channel 9: note On B4 velocity: 70
timestamp 190143000 us: [98 45 00] channel 9: note On A4 velocity: 0
timestamp 190173000 us: [98 48 46] channel 9: note On C5 velocity: 70
timestamp 190183000 us: [92 3C 00] channel 3: note On C4 velocity: 0
timestamp 190193000 us: [98 47 00] channel 9: note On B4 velocity: 0
timestamp 190223000 us: [92 43 00] channel 3: note On G4 velocity: 0
timestamp 190223000 us: [98 4A 43] channel 9: note On D5 velocity: 67
timestamp 190233000 us: [98 48 00] channel 9: note On C5 velocity: 0
timestamp 190253000 us: [92 40 00] channel 3: note On E4 velocity: 0
timestamp 190263000 us: [93 43 00] channel 4: note On G4 velocity: 0
timestamp 190263000 us: [97 43 00] channel 8: note On G4 velocity: 0
timestamp 190263000 us: [98 4C 41] channel 9: note On E5 velocity: 65
timestamp 190273000 us: [98 4A 00] channel 9: note On D5 velocity: 0
timestamp 190283000 us: [91 24 00] channel 2: note On C2 velocity: 0
timestamp 190283000 us: [98 4E 40] channel 9: note On F#5 velocity: 64
timestamp 190303000 us: [E3 00 02] channel 4: pitch wheel change 256
timestamp 190313000 us: [98 4C 00] channel 9: note On E5 velocity: 0
timestamp 190323000 us: [93 4F 71] channel 4: note On G5 velocity: 113
timestamp 190323000 us: [97 4F 6A] channel 8: note On G5 velocity: 106
timestamp 190333000 us: [91 26 6A] channel 2: note On D2 velocity: 106
timestamp 190333000 us: [98 4F 73] channel 9: note On G5 velocity: 115
timestamp 190333000 us: [99 23 75] channel 10: note On B1 velocity: 117
timestamp 190333000 us: [92 30 00] channel 3: note On C3 velocity: 0
timestamp 190333000 us: [92 40 4D] channel 3: note On E4 velocity: 77
timestamp 190343000 us: [92 3C 57] channel 3: note On C4 velocity: 87
timestamp 190343000 us: [E3 00 0A] channel 4: pitch wheel change 1280
timestamp 190343000 us: [99 23 00] channel 10: note On B1 velocity: 0
timestamp 190343000 us: [98 4E 00] channel 9: note On F#5 velocity: 0
timestamp 190343000 us: [92 32 56] channel 3: note On D3 velocity: 86
timestamp 190343000 us: [92 43 56] channel 3: note On G4 velocity: 86
timestamp 190373000 us: [E3 00 1E] channel 4: pitch wheel change 3840
timestamp 190403000 us: [E3 00 2B] channel 4: pitch wheel change 5504
timestamp 190453000 us: [E3 00 39] channel 4: pitch wheel change 7296
timestamp 190493000 us: [E3 00 40] channel 4: pitch wheel change 8192
timestamp 190793000 us: [93 4F 00] channel 4: note On G5 velocity: 0
timestamp 190793000 us: [97 4F 00] channel 8: note On G5 velocity: 0
timestamp 190793000 us: [99 23 75] channel 10: note On B1 velocity: 117
timestamp 190803000 us: [93 43 6D] channel 4: note On G4 velocity: 109
timestamp 190803000 us: [99 23 00] channel 10: note On B1 velocity: 0
timestamp 190993000 us: [93 43 00] channel 4: note On G4 velocity: 0
timestamp 191103000 us: [93 43 66] channel 4: note On G4 velocity: 102
timestamp 191113000 us: [98 4F 00] channel 9: note On G5 velocity: 0
timestamp 191223000 us: [93 43 00] channel 4: note On G4 velocity: 0
timestamp 191253000 us: [93 47 71] channel 4: note On B4 velocity: 113
timestamp 191263000 us: [99 23 75] channel 10: note On B1 velocity: 117
timestamp 191273000 us: [99 23 00] channel 10: note On B1 velocity: 0
timestamp 191483000 us: [93 47 00] channel 4: note On B4 velocity: 0
timestamp 191553000 us: [93 43 6A] channel 4: note On G4 velocity: 106
timestamp 191573000 us: [99 28 4C] channel 10: note On E2 velocity: 76
timestamp 191583000 us: [99 28 00] channel 10: note On E2 velocity: 0
timestamp 191673000 us: [93 43 00] channel 4: note On G4 velocity: 0
timestamp 191713000 us: [93 43 6A] channel 4: note On G4 velocity: 106
timestamp 191723000 us: [99 23 75] channel 10: note On B1 velocity: 117
timestamp 191723000 us: [99 28 64] channel 10: note On E2 velocity: 100
timestamp 191733000 us: [99 23 00] channel 10: note On B1 velocity: 0
timestamp 191733000 us: [99 28 00] channel 10: note On E2 velocity: 0
timestamp 191923000 us: [93 43 00] channel 4: note On G4 velocity: 0
timestamp 192013000 us: [93 43 6D] channel 4: note On G4 velocity: 109
timestamp 192023000 us: [91 26 00] channel 2: note On D2 velocity: 0
timestamp 192033000 us: [99 23 51] channel 10: note On B1 velocity: 81
timestamp 192043000 us: [99 23 00] channel 10: note On B1 velocity: 0
timestamp 192063000 us: [91 1F 6B] channel 2: note On G1 velocity: 107
timestamp 192093000 us: [92 3C 00] channel 3: note On C4 velocity: 0
timestamp 192113000 us: [92 40 00] channel 3: note On E4 velocity: 0
timestamp 192113000 us: [92 32 00] channel 3: note On D3 velocity: 0
timestamp 192123000 us: [92 43 00] channel 3: note On G4 velocity: 0
timestamp 192173000 us: [E4 00 0C] channel 5: pitch wheel change 1536
timestamp 192173000 us: [94 4F 75] channel 5: note On G5 velocity: 117
timestamp 192173000 us: [94 5B 6F] channel 5: note On G6 velocity: 111
timestamp 192193000 us: [96 37 57] channel 7: note On G3 velocity: 87
timestamp 192193000 us: [99 23 74] channel 10: note On B1 velocity: 116
timestamp 192193000 us: [99 2A 3C] channel 10: note On F#2 velocity: 60
timestamp 192193000 us: [92 37 49] channel 3: note On G3 velocity: 73
timestamp 192193000 us: [92 3B 55] channel 3: note On B3 velocity: 85
timestamp 192203000 us: [92 3E 58] channel 3: note On D4 velocity: 88
timestamp 192203000 us: [99 2A 00] channel 10: note On F#2 velocity: 0
timestamp 192203000 us: [99 23 00] channel 10: note On B1 velocity: 0
timestamp 192203000 us: [96 3B 4F] channel 7: note On B3 velocity: 79
timestamp 192223000 us: [96 3E 56] channel 7: note On D4 velocity: 86
timestamp 192323000 us: [93 43 00] channel 4: note On G4 velocity: 0
timestamp 192333000 us: [E4 00 16] channel 5: pitch wheel change 2816
timestamp 192353000 us: [E4 00 24] channel 5: pitch wheel change 4608
timestamp 192373000 us: [E4 00 30] channel 5: pitch wheel change 6144
timestamp 192393000 us: [E4 00 37] channel 5: pitch wheel change 7040
timestamp 192403000 us: [E4 00 40] channel 5: pitch wheel change 8192
timestamp 192413000 us: [92 37 00] channel 3: note On G3 velocity: 0
timestamp 192423000 us: [92 3B 00] channel 3: note On B3 velocity: 0
timestamp 192423000 us: [92 3E 00] channel 3: note On D4 velocity: 0
timestamp 192483000 us: [96 3E 00] channel 7: note On D4 velocity: 0
timestamp 192483000 us: [96 3B 00] channel 7: note On B3 velocity: 0
timestamp 192493000 us: [96 37 00] channel 7: note On G3 velocity: 0
timestamp 192503000 us: [96 37 4D] channel 7: note On G3 velocity: 77
timestamp 192503000 us: [99 2A 2C] channel 10: note On F#2 velocity: 44
timestamp 192513000 us: [99 2A 00] channel 10: note On F#2 velocity: 0
timestamp 192523000 us: [92 37 4E] channel 3: note On G3 velocity: 78
timestamp 192623000 us: [92 37 00] channel 3: note On G3 velocity: 0
timestamp 192653000 us: [96 3C 67] channel 7: note On C4 velocity: 103
timestamp 192653000 us: [98 4A 62] channel 9: note On D5 velocity: 98
timestamp 192663000 us: [98 4F 5D] channel 9: note On G5 velocity: 93
timestamp 192663000 us: [99 23 74] channel 10: note On B1 velocity: 116
timestamp 192663000 us: [99 2A 50] channel 10: note On F#2 velocity: 80
timestamp 192663000 us: [92 37 4E] channel 3: note On G3 velocity: 78
timestamp 192663000 us: [92 3C 5A] channel 3: note On C4 velocity: 90
timestamp 192663000 us: [92 40 5F] channel 3: note On E4 velocity: 95
timestamp 192663000 us: [99 28 63] channel 10: note On E2 velocity: 99
timestamp 192673000 us: [99 2A 00] channel 10: note On F#2 velocity: 0
timestamp 192673000 us: [99 23 00] channel 10: note On B1 velocity: 0
timestamp 192673000 us: [99 28 00] channel 10: note On E2 velocity: 0
timestamp 192683000 us: [96 40 64] channel 7: note On E4 velocity: 100
timestamp 192723000 us: [92 40 00] channel 3: note On E4 velocity: 0
timestamp 192723000 us: [92 3C 00] channel 3: note On C4 velocity: 0
timestamp 192723000 us: [92 37 00] channel 3: note On G3 velocity: 0
timestamp 192833000 us: [96 37 00] channel 7: note On G3 velocity: 0
timestamp 192843000 us: [96 3C 00] channel 7: note On C4 velocity: 0
timestamp 192853000 us: [96 40 00] channel 7: note On E4 velocity: 0
timestamp 192893000 us: [94 5B 00] channel 5: note On G6 velocity: 0
timestamp 192893000 us: [94 4F 00] channel 5: note On G5 velocity: 0
timestamp 192943000 us: [94 4A 6E] channel 5: note On D5 velocity: 110
timestamp 192943000 us: [94 56 63] channel 5: note On D6 velocity: 99
timestamp 192953000 us: [98 4F 00] channel 9: note On G5 velocity: 0
timestamp 192953000 us: [98 4A 00] channel 9: note On D5 velocity: 0
timestamp 192963000 us: [96 37 4A] channel 7: note On G3 velocity: 74
timestamp 192963000 us: [98 4A 62] channel 9: note On D5 velocity: 98
timestamp 192973000 us: [98 4F 5F] channel 9: note On G5 velocity: 95
timestamp 192973000 us: [99 2A 2C] channel 10: note On F#2 velocity: 44
timestamp 192973000 us: [99 2A 00] channel 10: note On F#2 velocity: 0
timestamp 192993000 us: [92 37 51] channel 3: note On G3 velocity: 81
timestamp 192993000 us: [92 3B 4D] channel 3: note On B3 velocity: 77
timestamp 192993000 us: [92 3E 4E] channel 3: note On D4 velocity: 78
timestamp 193033000 us: [94 56 00] channel 5: note On D6 velocity: 0
timestamp 193043000 us: [94 4A 00] channel 5: note On D5 velocity: 0
timestamp 193063000 us: [98 4A 00] channel 9: note On D5 velocity: 0
timestamp 193093000 us: [98 4F 00] channel 9: note On G5 velocity: 0
timestamp 193103000 us: [94 4D 70] channel 5: note On F5 velocity: 112
timestamp 193103000 us: [94 59 65] channel 5: note On F6 velocity: 101
timestamp 193113000 us: [96 37 00] channel 7: note On G3 velocity: 0
timestamp 193123000 us: [96 37 57] channel 7: note On G3 velocity: 87
timestamp 193123000 us: [99 23 74] channel 10: note On B1 velocity: 116
timestamp 193123000 us: [99 2A 3C] channel 10: note On F#2 velocity: 60
timestamp 193133000 us: [99 2A 00] channel 10: note On F#2 velocity: 0
timestamp 193133000 us: [99 23 00] channel 10: note On B1 velocity: 0
timestamp 193133000 us: [96 3B 4F] channel 7: note On B3 velocity: 79
timestamp 193153000 us: [96 3E 56] channel 7: note On D4 velocity: 86
timestamp 193193000 us: [94 59 00] channel 5: note On F6 velocity: 0
timestamp 193203000 us: [94 4D 00] channel 5: note On F5 velocity: 0
timestamp 193253000 us: [94 4A 6C] channel 5: note On D5 velocity: 108
timestamp 193263000 us: [94 56 61] channel 5: note On D6 velocity: 97
timestamp 193293000 us: [92 37 00] channel 3: note On G3 velocity: 0
timestamp 193343000 us: [92 3B 00] channel 3: note On B3 velocity: 0
timestamp 193353000 us: [94 56 00] channel 5: note On D6 velocity: 0
timestamp 193363000 us: [94 4A 00] channel 5: note On D5 velocity: 0
timestamp 193373000 us: [92 3E 00] channel 3: note On D4 velocity: 0
timestamp 193413000 us: [94 47 6E] channel 5: note On B4 velocity: 110
timestamp 193413000 us: [94 53 63] channel 5: note On B5 velocity: 99
timestamp 193413000 us: [96 3E 00] channel 7: note On D4 velocity: 0
timestamp 193413000 us: [96 3B 00] channel 7: note On B3 velocity: 0
timestamp 193423000 us: [96 37 00] channel 7: note On G3 velocity: 0
timestamp 193433000 us: [96 37 4A] channel 7: note On G3 velocity: 74
timestamp 193433000 us: [98 4A 40] channel 9: note On D5 velocity: 64
timestamp 193433000 us: [99 2A 2C] channel 10: note On F#2 velocity: 44
timestamp 193443000 us: [99 2A 00] channel 10: note On F#2 velocity: 0
timestamp 193453000 us: [92 37 51] channel 3: note On G3 velocity: 81
timestamp 193503000 us: [94 53 00] channel 5: note On B5 velocity: 0
timestamp 193503000 us: [94 47 00] channel 5: note On B4 velocity: 0
timestamp 193543000 us: [98 4A 00] channel 9: note On D5 velocity: 0
timestamp 193553000 us: [92 37 00] channel 3: note On G3 velocity: 0
timestamp 193563000 us: [94 43 6C] channel 5: note On G4 velocity: 108
timestamp 193573000 us: [94 4F 61] channel 5: note On G5 velocity: 97
timestamp 193583000 us: [96 3C 67] channel 7: note On C4 velocity: 103
timestamp 193583000 us: [98 4A 5F] channel 9: note On D5 velocity: 95
timestamp 193593000 us: [98 4F 66] channel 9: note On G5 velocity: 102
timestamp 193593000 us: [99 23 74] channel 10: note On B1 velocity: 116
timestamp 193593000 us: [99 2A 50] channel 10: note On F#2 velocity: 80
timestamp 193593000 us: [92 37 5A] channel 3: note On G3 velocity: 90
timestamp 193593000 us: [92 3C 5C] channel 3: note On C4 velocity: 92
timestamp 193593000 us: [92 40 5E] channel 3: note On E4 velocity: 94
timestamp 193603000 us: [99 28 63] channel 10: note On E2 velocity: 99
timestamp 193603000 us: [99 2A 00] channel 10: note On F#2 velocity: 0
timestamp 193603000 us: [99 23 00] channel 10: note On B1 velocity: 0
timestamp 193603000 us: [99 28 00] channel 10: note On E2 velocity: 0
timestamp 193613000 us: [96 40 64] channel 7: note On E4 velocity: 100
timestamp 193653000 us: [92 40 00] channel 3: note On E4 velocity: 0
timestamp 193653000 us: [92 3C 00] channel 3: note On C4 velocity: 0
timestamp 193653000 us: [92 37 00] channel 3: note On G3 velocity: 0
timestamp 193653000 us: [94 4F 00] channel 5: note On G5 velocity: 0
timestamp 193653000 us: [94 43 00] channel 5: note On G4 velocity: 0
timestamp 193723000 us: [94 41 72] channel 5: note On F4 velocity: 114
timestamp 193723000 us: [94 4D 67] channel 5: note On F5 velocity: 103
timestamp 193763000 us: [96 37 00] channel 7: note On G3 velocity: 0
timestamp 193773000 us: [96 3C 00] channel 7: note On C4 velocity: 0
timestamp 193783000 us: [96 40 00] channel 7: note On E4 velocity: 0
timestamp 193813000 us: [94 4D 00] channel 5: note On F5 velocity: 0
timestamp 193813000 us: [94 41 00] channel 5: note On F4 velocity: 0
timestamp 193873000 us: [94 3E 6D] channel 5: note On D4 velocity: 109
timestamp 193883000 us: [94 4A 62] channel 5: note On D5 velocity: 98
timestamp 193883000 us: [98 4F 00] channel 9: note On G5 velocity: 0
timestamp 193883000 us: [98 4A 00] channel 9: note On D5 velocity: 0
timestamp 193893000 us: [96 37 4A] channel 7: note On G3 velocity: 74
timestamp 193893000 us: [98 4A 61] channel 9: note On D5 velocity: 97
timestamp 193903000 us: [98 4F 5B] channel 9: note On G5 velocity: 91
timestamp 193903000 us: [99 2A 2C] channel 10: note On F#2 velocity: 44
timestamp 193903000 us: [99 2A 00] channel 10: note On F#2 velocity: 0
timestamp 193923000 us: [92 37 4A] channel 3: note On G3 velocity: 74
timestamp 193923000 us: [92 3B 4B] channel 3: note On B3 velocity: 75
timestamp 193923000 us: [92 3E 4E] channel 3: note On D4 velocity: 78
timestamp 193963000 us: [94 4A 00] channel 5: note On D5 velocity: 0
timestamp 193973000 us: [94 3E 00] channel 5: note On D4 velocity: 0
timestamp 194003000 us: [98 4A 00] channel 9: note On D5 velocity: 0
timestamp 194013000 us: [98 4F 00] channel 9: note On G5 velocity: 0
timestamp 194033000 us: [94 41 72] channel 5: note On F4 velocity: 114
timestamp 194033000 us: [94 4D 67] channel 5: note On F5 velocity: 103
timestamp 194043000 us: [96 37 00] channel 7: note On G3 velocity: 0
timestamp 194053000 us: [96 37 57] channel 7: note On G3 velocity: 87
timestamp 194053000 us: [99 23 74] channel 10: note On B1 velocity: 116
timestamp 194053000 us: [99 2A 3C] channel 10: note On F#2 velocity: 60
timestamp 194063000 us: [99 2A 00] channel 10: note On F#2 velocity: 0
timestamp 194063000 us: [99 23 00] channel 10: note On B1 velocity: 0
timestamp 194063000 us: [96 3B 4F] channel 7: note On B3 velocity: 79
timestamp 194083000 us: [96 3E 56] channel 7: note On D4 velocity: 86
timestamp 194243000 us: [92 37 00] channel 3: note On G3 velocity: 0
timestamp 194283000 us: [94 4D 00] channel 5: note On F5 velocity: 0
timestamp 194283000 us: [94 41 00] channel 5: note On F4 velocity: 0
timestamp 194303000 us: [92 3B 00] channel 3: note On B3 velocity: 0
timestamp 194303000 us: [92 3E 00] channel 3: note On D4 velocity: 0
timestamp 194343000 us: [94 43 6C] channel 5: note On G4 velocity: 108
timestamp 194343000 us: [94 4F 61] channel 5: note On G5 velocity: 97
timestamp 194343000 us: [96 3E 00] channel 7: note On D4 velocity: 0
timestamp 194343000 us: [96 3B 00] channel 7: note On B3 velocity: 0
timestamp 194353000 us: [96 37 00] channel 7: note On G3 velocity: 0
timestamp 194363000 us: [96 37 4D] channel 7: note On G3 velocity: 77
timestamp 194363000 us: [99 2A 2C] channel 10: note On F#2 velocity: 44
timestamp 194373000 us: [99 2A 00] channel 10: note On F#2 velocity: 0
timestamp 194383000 us: [92 37 4F] channel 3: note On G3 velocity: 79
timestamp 194483000 us: [92 37 00] channel 3: note On G3 velocity: 0
timestamp 194513000 us: [92 3C 5E] channel 3: note On C4 velocity: 94
timestamp 194513000 us: [92 40 5E] channel 3: note On E4 velocity: 94
timestamp 194523000 us: [96 3C 67] channel 7: note On C4 velocity: 103
timestamp 194523000 us: [98 4A 62] channel 9: note On D5 velocity: 98
timestamp 194523000 us: [98 4F 5D] channel 9: note On G5 velocity: 93
timestamp 194523000 us: [99 23 74] channel 10: note On B1 velocity: 116
timestamp 194523000 us: [99 2A 50] channel 10: note On F#2 velocity: 80
timestamp 194523000 us: [92 37 57] channel 3: note On G3 velocity: 87
timestamp 194533000 us: [99 28 63] channel 10: note On E2 velocity: 99
timestamp 194533000 us: [99 2A 00] channel 10: note On F#2 velocity: 0
timestamp 194533000 us: [99 23 00] channel 10: note On B1 velocity: 0
timestamp 194533000 us: [99 28 00] channel 10: note On E2 velocity: 0
timestamp 194543000 us: [96 40 64] channel 7: note On E4 velocity: 100
timestamp 194583000 us: [92 40 00] channel 3: note On E4 velocity: 0
timestamp 194583000 us: [92 3C 00] channel 3: note On C4 velocity: 0
timestamp 194583000 us: [92 37 00] channel 3: note On G3 velocity: 0
timestamp 194583000 us: [94 4F 00] channel 5: note On G5 velocity: 0
timestamp 194583000 us: [94 43 00] channel 5: note On G4 velocity: 0
timestamp 194693000 us: [96 37 00] channel 7: note On G3 velocity: 0
timestamp 194703000 us: [96 3C 00] channel 7: note On C4 velocity: 0
timestamp 194713000 us: [96 40 00] channel 7: note On E4 velocity: 0
timestamp 194803000 us: [94 3E 72] channel 5: note On D4 velocity: 114
timestamp 194813000 us: [94 4A 67] channel 5: note On D5 velocity: 103
timestamp 194813000 us: [98 4F 00] channel 9: note On G5 velocity: 0
timestamp 194813000 us: [98 4A 00] channel 9: note On D5 velocity: 0
timestamp 194823000 us: [96 37 4A] channel 7: note On G3 velocity: 74
timestamp 194823000 us: [98 4A 62] channel 9: note On D5 velocity: 98
timestamp 194833000 us: [98 4F 5F] channel 9: note On G5 velocity: 95
timestamp 194833000 us: [99 2A 2C] channel 10: note On F#2 velocity: 44
timestamp 194833000 us: [99 2A 00] channel 10: note On F#2 velocity: 0
timestamp 194853000 us: [92 37 4B] channel 3: note On G3 velocity: 75
timestamp 194853000 us: [92 3B 4B] channel 3: note On B3 velocity: 75
timestamp 194853000 us: [92 3E 4E] channel 3: note On D4 velocity: 78
timestamp 194933000 us: [98 4A 00] channel 9: note On D5 velocity: 0
timestamp 194953000 us: [98 4F 00] channel 9: note On G5 velocity: 0
timestamp 194973000 us: [96 37 00] channel 7: note On G3 velocity: 0
timestamp 194983000 us: [96 37 57] channel 7: note On G3 velocity: 87
timestamp 194983000 us: [99 23 74] channel 10: note On B1 velocity: 116
timestamp 194983000 us: [99 2A 3C] channel 10: note On F#2 velocity: 60
timestamp 194983000 us: [99 28 5F] channel 10: note On E2 velocity: 95
timestamp 194993000 us: [99 2A 00] channel 10: note On F#2 velocity: 0
timestamp 194993000 us: [99 23 00] channel 10: note On B1 velocity: 0
timestamp 194993000 us: [99 28 00] channel 10: note On E2 velocity: 0
timestamp 194993000 us: [96 3B 4F] channel 7: note On B3 velocity: 79
timestamp 195013000 us: [96 3E 56] channel 7: note On D4 velocity: 86
timestamp 195133000 us: [99 28 53] channel 10: note On E2 velocity: 83
timestamp 195143000 us: [99 28 00] channel 10: note On E2 velocity: 0
timestamp 195203000 us: [92 37 00] channel 3: note On G3 velocity: 0
timestamp 195223000 us: [92 3B 00] channel 3: note On B3 velocity: 0
timestamp 195263000 us: [92 3E 00] channel 3: note On D4 velocity: 0
timestamp 195273000 us: [96 3E 00] channel 7: note On D4 velocity: 0
timestamp 195273000 us: [96 3B 00] channel 7: note On B3 velocity: 0
timestamp 195283000 us: [96 37 00] channel 7: note On G3 velocity: 0
timestamp 195293000 us: [96 37 4A] channel 7: note On G3 velocity: 74
timestamp 195293000 us: [99 2A 3F] channel 10: note On F#2 velocity: 63
timestamp 195293000 us: [99 28 5B] channel 10: note On E2 velocity: 91
timestamp 195303000 us: [99 2A 00] channel 10: note On F#2 velocity: 0
timestamp 195303000 us: [99 28 00] channel 10: note On E2 velocity: 0
timestamp 195313000 us: [92 37 4E] channel 3: note On G3 velocity: 78
timestamp 195393000 us: [92 37 00] channel 3: note On G3 velocity: 0
timestamp 195443000 us: [96 3C 67] channel 7: note On C4 velocity: 103
timestamp 195443000 us: [99 23 74] channel 10: note On B1 velocity: 116
timestamp 195453000 us: [99 2A 45] channel 10: note On F#2 velocity: 69
timestamp 195453000 us: [92 3C 5F] channel 3: note On C4 velocity: 95
timestamp 195453000 us: [92 40 5F] channel 3: note On E4 velocity: 95
timestamp 195453000 us: [99 28 63] channel 10: note On E2 velocity: 99
timestamp 195463000 us: [92 37 57] channel 3: note On G3 velocity: 87
timestamp 195463000 us: [99 2A 00] channel 10: note On F#2 velocity: 0
timestamp 195463000 us: [99 23 00] channel 10: note On B1 velocity: 0
timestamp 195463000 us: [99 28 00] channel 10: note On E2 velocity: 0
timestamp 195473000 us: [96 40 64] channel 7: note On E4 velocity: 100
timestamp 195513000 us: [92 40 00] channel 3: note On E4 velocity: 0
timestamp 195513000 us: [92 3C 00] channel 3: note On C4 velocity: 0
timestamp 195513000 us: [92 37 00] channel 3: note On G3 velocity: 0
timestamp 195603000 us: [99 28 57] channel 10: note On E2 velocity: 87
timestamp 195613000 us: [99 28 00] channel 10: note On E2 velocity: 0
timestamp 195623000 us: [96 37 00] channel 7: note On G3 velocity: 0
timestamp 195633000 us: [96 3C 00] channel 7: note On C4 velocity: 0
timestamp 195643000 us: [96 40 00] channel 7: note On E4 velocity: 0
timestamp 195673000 us: [94 4A 00] channel 5: note On D5 velocity: 0
timestamp 195673000 us: [94 3E 00] channel 5: note On D4 velocity: 0
timestamp 195753000 us: [96 37 4A] channel 7: note On G3 velocity: 74
timestamp 195753000 us: [99 28 59] channel 10: note On E2 velocity: 89
timestamp 195763000 us: [99 28 00] channel 10: note On E2 velocity: 0
timestamp 195783000 us: [92 37 49] channel 3: note On G3 velocity: 73
timestamp 195783000 us: [92 3B 4E] channel 3: note On B3 velocity: 78
timestamp 195793000 us: [92 3E 50] channel 3: note On D4 velocity: 80
timestamp 195903000 us: [91 1F 00] channel 2: note On G1 velocity: 0
timestamp 195903000 us: [96 37 00] channel 7: note On G3 velocity: 0
timestamp 195913000 us: [91 2B 6A] channel 2: note On G2 velocity: 106
timestamp 195913000 us: [93 47 61] channel 4: note On B4 velocity: 97
timestamp 195913000 us: [95 37 4D] channel 6: note On G3 velocity: 77
timestamp 195913000 us: [96 37 58] channel 7: note On G3 velocity: 88
timestamp 195923000 us: [99 23 76] channel 10: note On B1 velocity: 118
timestamp 195923000 us: [99 31 4A] channel 10: note On C#3 velocity: 74
timestamp 195923000 us: [92 4F 45] channel 3: note On G5 velocity: 69
timestamp 195923000 us: [92 53 45] channel 3: note On B5 velocity: 69
timestamp 195923000 us: [92 56 43] channel 3: note On D6 velocity: 67
timestamp 195923000 us: [99 31 00] channel 10: note On C#3 velocity: 0
timestamp 195933000 us: [99 23 00] channel 10: note On B1 velocity: 0
timestamp 195933000 us: [96 3B 54] channel 7: note On B3 velocity: 84
timestamp 195943000 us: [96 3E 58] channel 7: note On D4 velocity: 88
timestamp 196013000 us: [95 37 00] channel 6: note On G3 velocity: 0
timestamp 196043000 us: [92 56 00] channel 3: note On D6 velocity: 0
timestamp 196063000 us: [92 53 00] channel 3: note On B5 velocity: 0
timestamp 196073000 us: [92 4F 00] channel 3: note On G5 velocity: 0
timestamp 196123000 us: [92 37 00] channel 3: note On G3 velocity: 0
timestamp 196123000 us: [92 3B 00] channel 3: note On B3 velocity: 0
timestamp 196123000 us: [92 3E 00] channel 3: note On D4 velocity: 0
timestamp 196123000 us: [93 47 00] channel 4: note On B4 velocity: 0
timestamp 196203000 us: [96 3E 00] channel 7: note On D4 velocity: 0
timestamp 196203000 us: [96 3B 00] channel 7: note On B3 velocity: 0
timestamp 196213000 us: [96 37 00] channel 7: note On G3 velocity: 0
timestamp 196223000 us: [93 4A 62] channel 4: note On D5 velocity: 98
timestamp 196223000 us: [95 37 4A] channel 6: note On G3 velocity: 74
timestamp 196223000 us: [96 37 53] channel 7: note On G3 velocity: 83
timestamp 196223000 us: [99 2A 2E] channel 10: note On F#2 velocity: 46
timestamp 196233000 us: [92 4F 3F] channel 3: note On G5 velocity: 63
timestamp 196233000 us: [92 53 48] channel 3: note On B5 velocity: 72
timestamp 196233000 us: [92 56 3E] channel 3: note On D6 velocity: 62
timestamp 196233000 us: [99 2A 00] channel 10: note On F#2 velocity: 0
timestamp 196313000 us: [92 53 00] channel 3: note On B5 velocity: 0
timestamp 196313000 us: [92 4F 00] channel 3: note On G5 velocity: 0
timestamp 196313000 us: [92 56 00] channel 3: note On D6 velocity: 0
timestamp 196323000 us: [93 4A 00] channel 4: note On D5 velocity: 0
timestamp 196323000 us: [95 37 00] channel 6: note On G3 velocity: 0
timestamp 196353000 us: [94 4A 5F] channel 5: note On D5 velocity: 95
timestamp 196363000 us: [94 56 6C] channel 5: note On D6 velocity: 108
timestamp 196373000 us: [93 4A 5A] channel 4: note On D5 velocity: 90
timestamp 196373000 us: [95 37 4D] channel 6: note On G3 velocity: 77
timestamp 196383000 us: [96 3B 60] channel 7: note On B3 velocity: 96
timestamp 196383000 us: [99 23 76] channel 10: note On B1 velocity: 118
timestamp 196383000 us: [99 2A 52] channel 10: note On F#2 velocity: 82
timestamp 196383000 us: [99 28 65] channel 10: note On E2 velocity: 101
timestamp 196383000 us: [92 56 3F] channel 3: note On D6 velocity: 63
timestamp 196393000 us: [92 4F 31] channel 3: note On G5 velocity: 49
timestamp 196393000 us: [92 53 4C] channel 3: note On B5 velocity: 76
timestamp 196393000 us: [99 2A 00] channel 10: note On F#2 velocity: 0
timestamp 196393000 us: [99 23 00] channel 10: note On B1 velocity: 0
timestamp 196393000 us: [99 28 00] channel 10: note On E2 velocity: 0
timestamp 196403000 us: [96 3E 5F] channel 7: note On D4 velocity: 95
timestamp 196513000 us: [92 53 00] channel 3: note On B5 velocity: 0
timestamp 196513000 us: [92 4F 00] channel 3: note On G5 velocity: 0
timestamp 196513000 us: [92 56 00] channel 3: note On D6 velocity: 0
timestamp 196533000 us: [95 37 00] channel 6: note On G3 velocity: 0
timestamp 196533000 us: [93 4A 00] channel 4: note On D5 velocity: 0
timestamp 196643000 us: [96 37 00] channel 7: note On G3 velocity: 0
timestamp 196653000 us: [96 3B 00] channel 7: note On B3 velocity: 0
timestamp 196663000 us: [96 3E 00] channel 7: note On D4 velocity: 0
timestamp 196683000 us: [93 4A 5F] channel 4: note On D5 velocity: 95
timestamp 196683000 us: [95 37 43] channel 6: note On G3 velocity: 67
timestamp 196693000 us: [96 37 52] channel 7: note On G3 velocity: 82
timestamp 196693000 us: [99 2A 2E] channel 10: note On F#2 velocity: 46
timestamp 196693000 us: [92 4F 3A] channel 3: note On G5 velocity: 58
timestamp 196693000 us: [92 56 3E] channel 3: note On D6 velocity: 62
timestamp 196693000 us: [92 53 45] channel 3: note On B5 velocity: 69
timestamp 196693000 us: [99 2A 00] channel 10: note On F#2 velocity: 0
timestamp 196713000 us: [91 2B 00] channel 2: note On G2 velocity: 0
timestamp 196763000 us: [92 56 00] channel 3: note On D6 velocity: 0
timestamp 196763000 us: [92 4F 00] channel 3: note On G5 velocity: 0
timestamp 196763000 us: [92 53 00] channel 3: note On B5 velocity: 0
timestamp 196793000 us: [93 4A 00] channel 4: note On D5 velocity: 0
timestamp 196813000 us: [95 37 00] channel 6: note On G3 velocity: 0
timestamp 196833000 us: [96 37 00] channel 7: note On G3 velocity: 0
timestamp 196843000 us: [91 2A 6A] channel 2: note On F#2 velocity: 106
timestamp 196843000 us: [95 36 4F] channel 6: note On F#3 velocity: 79
timestamp 196843000 us: [96 36 58] channel 7: note On F#3 velocity: 88
timestamp 196843000 us: [99 23 76] channel 10: note On B1 velocity: 118
timestamp 196843000 us: [99 2A 3E] channel 10: note On F#2 velocity: 62
timestamp 196853000 us: [93 4C 5F] channel 4: note On E5 velocity: 95
timestamp 196853000 us: [92 56 4A] channel 3: note On D6 velocity: 74
timestamp 196853000 us: [92 51 45] channel 3: note On A5 velocity: 69
timestamp 196853000 us: [99 2A 00] channel 10: note On F#2 velocity: 0
timestamp 196853000 us: [99 23 00] channel 10: note On B1 velocity: 0
timestamp 196863000 us: [92 4E 43] channel 3: note On F#5 velocity: 67
timestamp 196863000 us: [96 39 54] channel 7: note On A3 velocity: 84
timestamp 196873000 us: [96 3E 58] channel 7: note On D4 velocity: 88
timestamp 196973000 us: [92 4E 00] channel 3: note On F#5 velocity: 0
timestamp 196983000 us: [92 56 00] channel 3: note On D6 velocity: 0
timestamp 196993000 us: [92 51 00] channel 3: note On A5 velocity: 0
timestamp 197003000 us: [95 36 00] channel 6: note On F#3 velocity: 0
timestamp 197113000 us: [93 4C 00] channel 4: note On E5 velocity: 0
timestamp 197133000 us: [96 3E 00] channel 7: note On D4 velocity: 0
timestamp 197133000 us: [96 39 00] channel 7: note On A3 velocity: 0
timestamp 197143000 us: [96 36 00] channel 7: note On F#3 velocity: 0
timestamp 197143000 us: [92 4E 3F] channel 3: note On F#5 velocity: 63
timestamp 197153000 us: [93 4A 5B] channel 4: note On D5 velocity: 91
timestamp 197153000 us: [92 51 43] channel 3: note On A5 velocity: 67
timestamp 197153000 us: [92 56 41] channel 3: note On D6 velocity: 65
timestamp 197153000 us: [95 36 4A] channel 6: note On F#3 velocity: 74
timestamp 197153000 us: [96 36 53] channel 7: note On F#3 velocity: 83
timestamp 197153000 us: [99 2A 2E] channel 10: note On F#2 velocity: 46
timestamp 197163000 us: [97 4A 5C] channel 8: note On D5 velocity: 92
timestamp 197163000 us: [99 2A 00] channel 10: note On F#2 velocity: 0
timestamp 197213000 us: [92 51 00] channel 3: note On A5 velocity: 0
timestamp 197223000 us: [92 56 00] channel 3: note On D6 velocity: 0
timestamp 197233000 us: [92 4E 00] channel 3: note On F#5 velocity: 0
timestamp 197243000 us: [97 4A 00] channel 8: note On D5 velocity: 0
timestamp 197253000 us: [95 36 00] channel 6: note On F#3 velocity: 0
timestamp 197303000 us: [95 36 52] channel 6: note On F#3 velocity: 82
timestamp 197313000 us: [96 39 60] channel 7: note On A3 velocity: 96
timestamp 197313000 us: [99 23 76] channel 10: note On B1 velocity: 118
timestamp 197313000 us: [99 2A 52] channel 10: note On F#2 velocity: 82
timestamp 197313000 us: [92 4E 41] channel 3: note On F#5 velocity: 65
timestamp 197313000 us: [92 56 4A] channel 3: note On D6 velocity: 74
timestamp 197313000 us: [99 28 65] channel 10: note On E2 velocity: 101
timestamp 197323000 us: [92 51 4A] channel 3: note On A5 velocity: 74
timestamp 197323000 us: [99 2A 00] channel 10: note On F#2 velocity: 0
timestamp 197323000 us: [99 23 00] channel 10: note On B1 velocity: 0
timestamp 197323000 us: [97 4A 5C] channel 8: note On D5 velocity: 92
timestamp 197323000 us: [99 28 00] channel 10: note On E2 velocity: 0
timestamp 197333000 us: [96 3E 5F] channel 7: note On D4 velocity: 95
timestamp 197413000 us: [92 51 00] channel 3: note On A5 velocity: 0
timestamp 197433000 us: [92 4E 00] channel 3: note On F#5 velocity: 0
timestamp 197453000 us: [95 36 00] channel 6: note On F#3 velocity: 0
timestamp 197453000 us: [92 56 00] channel 3: note On D6 velocity: 0
timestamp 197463000 us: [97 4A 00] channel 8: note On D5 velocity: 0
timestamp 197573000 us: [96 36 00] channel 7: note On F#3 velocity: 0
timestamp 197583000 us: [96 39 00] channel 7: note On A3 velocity: 0
timestamp 197593000 us: [96 3E 00] channel 7: note On D4 velocity: 0
timestamp 197603000 us: [93 4A 00] channel 4: note On D5 velocity: 0
timestamp 197613000 us: [92 4E 3F] channel 3: note On F#5 velocity: 63
timestamp 197613000 us: [92 56 37] channel 3: note On D6 velocity: 55
timestamp 197613000 us: [92 51 3A] channel 3: note On A5 velocity: 58
timestamp 197623000 us: [95 36 48] channel 6: note On F#3 velocity: 72
timestamp 197623000 us: [96 36 52] channel 7: note On F#3 velocity: 82
timestamp 197623000 us: [99 2A 2E] channel 10: note On F#2 velocity: 46
timestamp 197623000 us: [97 4A 5C] channel 8: note On D5 velocity: 92
timestamp 197623000 us: [99 2A 00] channel 10: note On F#2 velocity: 0
timestamp 197633000 us: [93 4A 4F] channel 4: note On D5 velocity: 79
timestamp 197643000 us: [91 2A 00] channel 2: note On F#2 velocity: 0
timestamp 197673000 us: [92 51 00] channel 3: note On A5 velocity: 0
timestamp 197703000 us: [92 4E 00] channel 3: note On F#5 velocity: 0
timestamp 197713000 us: [95 36 00] channel 6: note On F#3 velocity: 0
timestamp 197713000 us: [94 56 00] channel 5: note On D6 velocity: 0
timestamp 197713000 us: [94 4A 00] channel 5: note On D5 velocity: 0
timestamp 197713000 us: [92 56 00] channel 3: note On D6 velocity: 0
timestamp 197723000 us: [97 4A 00] channel 8: note On D5 velocity: 0
timestamp 197753000 us: [94 47 5C] channel 5: note On B4 velocity: 92
timestamp 197753000 us: [94 53 69] channel 5: note On B5 velocity: 105
timestamp 197763000 us: [96 36 00] channel 7: note On F#3 velocity: 0
timestamp 197773000 us: [91 28 6A] channel 2: note On E2 velocity: 106
timestamp 197773000 us: [95 34 4B] channel 6: note On E3 velocity: 75
timestamp 197773000 us: [96 37 58] channel 7: note On G3 velocity: 88
timestamp 197773000 us: [99 23 76] channel 10: note On B1 velocity: 118
timestamp 197773000 us: [99 2A 3E] channel 10: note On F#2 velocity: 62
timestamp 197783000 us: [93 4A 00] channel 4: note On D5 velocity: 0
timestamp 197783000 us: [92 4F 46] channel 3: note On G5 velocity: 70
timestamp 197783000 us: [93 48 64] channel 4: note On C5 velocity: 100
timestamp 197783000 us: [99 2A 00] channel 10: note On F#2 velocity: 0
timestamp 197783000 us: [99 23 00] channel 10: note On B1 velocity: 0
timestamp 197783000 us: [92 54 3E] channel 3: note On C6 velocity: 62
timestamp 197793000 us: [92 4C 41] channel 3: note On E5 velocity: 65
timestamp 197793000 us: [96 3C 54] channel 7: note On C4 velocity: 84
timestamp 197793000 us: [97 4C 5D] channel 8: note On E5 velocity: 93
timestamp 197803000 us: [96 40 58] channel 7: note On E4 velocity: 88
timestamp 197903000 us: [92 4C 00] channel 3: note On E5 velocity: 0
timestamp 197913000 us: [92 54 00] channel 3: note On C6 velocity: 0
timestamp 197933000 us: [95 34 00] channel 6: note On E3 velocity: 0
timestamp 197943000 us: [92 4F 00] channel 3: note On G5 velocity: 0
timestamp 197983000 us: [93 48 00] channel 4: note On C5 velocity: 0
timestamp 198043000 us: [94 53 00] channel 5: note On B5 velocity: 0
timestamp 198043000 us: [94 47 00] channel 5: note On B4 velocity: 0
timestamp 198043000 us: [97 4C 00] channel 8: note On E5 velocity: 0
timestamp 198063000 us: [94 43 5D] channel 5: note On G4 velocity: 93
timestamp 198063000 us: [94 4F 6A] channel 5: note On G5 velocity: 106
timestamp 198063000 us: [96 40 00] channel 7: note On E4 velocity: 0
timestamp 198063000 us: [96 3C 00] channel 7: note On C4 velocity: 0
timestamp 198073000 us: [96 37 00] channel 7: note On G3 velocity: 0
timestamp 198083000 us: [95 34 4A] channel 6: note On E3 velocity: 74
timestamp 198083000 us: [96 37 53] channel 7: note On G3 velocity: 83
timestamp 198083000 us: [99 2A 2E] channel 10: note On F#2 velocity: 46
timestamp 198083000 us: [93 48 58] channel 4: note On C5 velocity: 88
timestamp 198093000 us: [92 54 48] channel 3: note On C6 velocity: 72
timestamp 198093000 us: [92 4C 37] channel 3: note On E5 velocity: 55
timestamp 198093000 us: [92 4F 3F] channel 3: note On G5 velocity: 63
timestamp 198093000 us: [99 2A 00] channel 10: note On F#2 velocity: 0
timestamp 198093000 us: [97 48 60] channel 8: note On C5 velocity: 96
timestamp 198153000 us: [92 4C 00] channel 3: note On E5 velocity: 0
timestamp 198183000 us: [95 34 00] channel 6: note On E3 velocity: 0
timestamp 198183000 us: [92 54 00] channel 3: note On C6 velocity: 0
timestamp 198183000 us: [92 4F 00] channel 3: note On G5 velocity: 0
timestamp 198193000 us: [93 48 00] channel 4: note On C5 velocity: 0
timestamp 198233000 us: [95 34 48] channel 6: note On E3 velocity: 72
timestamp 198243000 us: [96 3C 60] channel 7: note On C4 velocity: 96
timestamp 198243000 us: [99 23 76] channel 10: note On B1 velocity: 118
timestamp 198243000 us: [99 2A 52] channel 10: note On F#2 velocity: 82
timestamp 198243000 us: [99 28 65] channel 10: note On E2 velocity: 101
timestamp 198243000 us: [93 48 5D] channel 4: note On C5 velocity: 93
timestamp 198253000 us: [99 2A 00] channel 10: note On F#2 velocity: 0
timestamp 198253000 us: [99 23 00] channel 10: note On B1 velocity: 0
timestamp 198253000 us: [92 4C 4D] channel 3: note On E5 velocity: 77
timestamp 198253000 us: [92 4F 35] channel 3: note On G5 velocity: 53
timestamp 198253000 us: [92 54 53] channel 3: note On C6 velocity: 83
timestamp 198253000 us: [99 28 00] channel 10: note On E2 velocity: 0
timestamp 198263000 us: [94 4F 00] channel 5: note On G5 velocity: 0
timestamp 198263000 us: [94 43 00] channel 5: note On G4 velocity: 0
timestamp 198263000 us: [96 40 5F] channel 7: note On E4 velocity: 95
timestamp 198353000 us: [92 4C 00] channel 3: note On E5 velocity: 0
timestamp 198373000 us: [93 48 00] channel 4: note On C5 velocity: 0
timestamp 198383000 us: [92 4F 00] channel 3: note On G5 velocity: 0
timestamp 198393000 us: [93 48 5F] channel 4: note On C5 velocity: 95
timestamp 198393000 us: [95 34 00] channel 6: note On E3 velocity: 0
timestamp 198403000 us: [92 54 00] channel 3: note On C6 velocity: 0
timestamp 198403000 us: [97 48 00] channel 8: note On C5 velocity: 0
timestamp 198503000 us: [96 37 00] channel 7: note On G3 velocity: 0
timestamp 198513000 us: [96 3C 00] channel 7: note On C4 velocity: 0
timestamp 198533000 us: [94 43 5D] channel 5: note On G4 velocity: 93
timestamp 198533000 us: [94 4F 6A] channel 5: note On G5 velocity: 106
timestamp 198533000 us: [96 40 00] channel 7: note On E4 velocity: 0
timestamp 198543000 us: [93 48 00] channel 4: note On C5 velocity: 0
timestamp 198543000 us: [93 47 61] channel 4: note On B4 velocity: 97
timestamp 198553000 us: [95 34 48] channel 6: note On E3 velocity: 72
timestamp 198553000 us: [96 37 52] channel 7: note On G3 velocity: 82
timestamp 198553000 us: [99 2A 2E] channel 10: note On F#2 velocity: 46
timestamp 198553000 us: [92 4C 43] channel 3: note On E5 velocity: 67
timestamp 198553000 us: [92 54 4A] channel 3: note On C6 velocity: 74
timestamp 198553000 us: [92 4F 46] channel 3: note On G5 velocity: 70
timestamp 198563000 us: [97 4A 5B] channel 8: note On D5 velocity: 91
timestamp 198563000 us: [99 2A 00] channel 10: note On F#2 velocity: 0
timestamp 198573000 us: [91 28 00] channel 2: note On E2 velocity: 0
timestamp 198643000 us: [92 4C 00] channel 3: note On E5 velocity: 0
timestamp 198643000 us: [92 54 00] channel 3: note On C6 velocity: 0
timestamp 198653000 us: [92 4F 00] channel 3: note On G5 velocity: 0
timestamp 198653000 us: [95 34 00] channel 6: note On E3 velocity: 0
timestamp 198693000 us: [96 37 00] channel 7: note On G3 velocity: 0
timestamp 198703000 us: [91 26 6A] channel 2: note On D2 velocity: 106
timestamp 198703000 us: [95 32 44] channel 6: note On D3 velocity: 68
timestamp 198703000 us: [96 37 58] channel 7: note On G3 velocity: 88
timestamp 198703000 us: [99 23 76] channel 10: note On B1 velocity: 118
timestamp 198703000 us: [99 2A 3E] channel 10: note On F#2 velocity: 62
timestamp 198713000 us: [99 2A 00] channel 10: note On F#2 velocity: 0
timestamp 198713000 us: [99 23 00] channel 10: note On B1 velocity: 0
timestamp 198713000 us: [92 4F 3A] channel 3: note On G5 velocity: 58
timestamp 198713000 us: [92 53 4C] channel 3: note On B5 velocity: 76
timestamp 198723000 us: [96 3B 54] channel 7: note On B3 velocity: 84
timestamp 198723000 us: [92 4A 3C] channel 3: note On D5 velocity: 60
timestamp 198733000 us: [96 3E 58] channel 7: note On D4 velocity: 88
timestamp 198813000 us: [92 4A 00] channel 3: note On D5 velocity: 0
timestamp 198843000 us: [95 32 00] channel 6: note On D3 velocity: 0
timestamp 198853000 us: [92 53 00] channel 3: note On B5 velocity: 0
timestamp 198863000 us: [92 4F 00] channel 3: note On G5 velocity: 0
timestamp 198933000 us: [93 47 00] channel 4: note On B4 velocity: 0
timestamp 198993000 us: [96 3E 00] channel 7: note On D4 velocity: 0
timestamp 198993000 us: [96 3B 00] channel 7: note On B3 velocity: 0
timestamp 199003000 us: [96 37 00] channel 7: note On G3 velocity: 0
timestamp 199013000 us: [95 32 48] channel 6: note On D3 velocity: 72
timestamp 199013000 us: [96 37 53] channel 7: note On G3 velocity: 83
timestamp 199013000 us: [98 4A 5A] channel 9: note On D5 velocity: 90
timestamp 199013000 us: [99 2A 2E] channel 10: note On F#2 velocity: 46
timestamp 199023000 us: [92 4A 43] channel 3: note On D5 velocity: 67
timestamp 199023000 us: [92 4F 41] channel 3: note On G5 velocity: 65
timestamp 199023000 us: [92 53 3F] channel 3: note On B5 velocity: 63
timestamp 199023000 us: [99 2A 00] channel 10: note On F#2 velocity: 0
timestamp 199093000 us: [92 53 00] channel 3: note On B5 velocity: 0
timestamp 199103000 us: [92 4A 00] channel 3: note On D5 velocity: 0
timestamp 199113000 us: [92 4F 00] channel 3: note On G5 velocity: 0
timestamp 199123000 us: [95 32 00] channel 6: note On D3 velocity: 0
timestamp 199133000 us: [98 4A 00] channel 9: note On D5 velocity: 0
timestamp 199163000 us: [95 32 46] channel 6: note On D3 velocity: 70
timestamp 199173000 us: [96 3B 60] channel 7: note On B3 velocity: 96
timestamp 199173000 us: [98 4C 5A] channel 9: note On E5 velocity: 90
timestamp 199173000 us: [99 23 76] channel 10: note On B1 velocity: 118
timestamp 199173000 us: [99 2A 52] channel 10: note On F#2 velocity: 82
timestamp 199173000 us: [99 28 65] channel 10: note On E2 velocity: 101
timestamp 199183000 us: [92 4F 4A] channel 3: note On G5 velocity: 74
timestamp 199183000 us: [92 4A 4A] channel 3: note On D5 velocity: 74
timestamp 199183000 us: [92 53 54] channel 3: note On B5 velocity: 84
timestamp 199183000 us: [99 2A 00] channel 10: note On F#2 velocity: 0
timestamp 199183000 us: [99 23 00] channel 10: note On B1 velocity: 0
timestamp 199183000 us: [99 28 00] channel 10: note On E2 velocity: 0
timestamp 199193000 us: [96 3E 5F] channel 7: note On D4 velocity: 95
timestamp 199273000 us: [92 4A 00] channel 3: note On D5 velocity: 0
timestamp 199293000 us: [92 4F 00] channel 3: note On G5 velocity: 0
timestamp 199323000 us: [92 53 00] channel 3: note On B5 velocity: 0
timestamp 199323000 us: [95 32 00] channel 6: note On D3 velocity: 0
timestamp 199383000 us: [97 4A 00] channel 8: note On D5 velocity: 0
timestamp 199433000 us: [96 37 00] channel 7: note On G3 velocity: 0
timestamp 199443000 us: [96 3B 00] channel 7: note On B3 velocity: 0
timestamp 199453000 us: [98 4C 00] channel 9: note On E5 velocity: 0
timestamp 199453000 us: [96 3E 00] channel 7: note On D4 velocity: 0
timestamp 199473000 us: [93 47 5A] channel 4: note On B4 velocity: 90
timestamp 199473000 us: [92 53 3E] channel 3: note On B5 velocity: 62
timestamp 199483000 us: [95 32 43] channel 6: note On D3 velocity: 67
timestamp 199483000 us: [96 37 52] channel 7: note On G3 velocity: 82
timestamp 199483000 us: [98 4F 59] channel 9: note On G5 velocity: 89
timestamp 199483000 us: [99 2A 2E] channel 10: note On F#2 velocity: 46
timestamp 199483000 us: [92 4F 2E] channel 3: note On G5 velocity: 46
timestamp 199483000 us: [92 4A 43] channel 3: note On D5 velocity: 67
timestamp 199493000 us: [99 2A 00] channel 10: note On F#2 velocity: 0
timestamp 199503000 us: [91 26 00] channel 2: note On D2 velocity: 0
timestamp 199563000 us: [92 4F 00] channel 3: note On G5 velocity: 0
timestamp 199563000 us: [92 4A 00] channel 3: note On D5 velocity: 0
timestamp 199573000 us: [92 53 00] channel 3: note On B5 velocity: 0
timestamp 199593000 us: [93 47 00] channel 4: note On B4 velocity: 0
timestamp 199613000 us: [95 32 00] channel 6: note On D3 velocity: 0
timestamp 199623000 us: [93 48 5F] channel 4: note On C5 velocity: 95
timestamp 199633000 us: [96 37 00] channel 7: note On G3 velocity: 0
timestamp 199633000 us: [91 24 6A] channel 2: note On C2 velocity: 106
timestamp 199633000 us: [95 30 4D] channel 6: note On C3 velocity: 77
timestamp 199633000 us: [96 37 58] channel 7: note On G3 velocity: 88
timestamp 199633000 us: [99 23 76] channel 10: note On B1 velocity: 118
timestamp 199643000 us: [99 2A 3E] channel 10: note On F#2 velocity: 62
timestamp 199643000 us: [92 54 4F] channel 3: note On C6 velocity: 79
timestamp 199643000 us: [92 4C 4F] channel 3: note On E5 velocity: 79
timestamp 199643000 us: [92 4F 4C] channel 3: note On G5 velocity: 76
timestamp 199643000 us: [99 2A 00] channel 10: note On F#2 velocity: 0
timestamp 199643000 us: [99 23 00] channel 10: note On B1 velocity: 0
timestamp 199653000 us: [96 3C 54] channel 7: note On C4 velocity: 84
timestamp 199663000 us: [96 40 58] channel 7: note On E4 velocity: 88
timestamp 199723000 us: [94 4F 00] channel 5: note On G5 velocity: 0
timestamp 199723000 us: [94 43 00] channel 5: note On G4 velocity: 0
timestamp 199733000 us: [98 4F 00] channel 9: note On G5 velocity: 0
timestamp 199773000 us: [92 4C 00] channel 3: note On E5 velocity: 0
timestamp 199773000 us: [92 54 00] channel 3: note On C6 velocity: 0
timestamp 199783000 us: [92 4F 00] channel 3: note On G5 velocity: 0
timestamp 199783000 us: [95 30 00] channel 6: note On C3 velocity: 0
timestamp 199873000 us: [93 48 00] channel 4: note On C5 velocity: 0
timestamp 199923000 us: [94 3E 5A] channel 5: note On D4 velocity: 90
timestamp 199923000 us: [94 4A 67] channel 5: note On D5 velocity: 103
timestamp 199923000 us: [96 40 00] channel 7: note On E4 velocity: 0
timestamp 199923000 us: [96 3C 00] channel 7: note On C4 velocity: 0
timestamp 199933000 us: [96 37 00] channel 7: note On G3 velocity: 0
timestamp 199933000 us: [93 48 62] channel 4: note On C5 velocity: 98
timestamp 199943000 us: [92 4C 3E] channel 3: note On E5 velocity: 62
timestamp 199943000 us: [92 4F 48] channel 3: note On G5 velocity: 72
timestamp 199943000 us: [92 54 4A] channel 3: note On C6 velocity: 74
timestamp 199943000 us: [95 30 4A] channel 6: note On C3 velocity: 74
timestamp 199953000 us: [96 37 53] channel 7: note On G3 velocity: 83
timestamp 199953000 us: [98 4A 5E] channel 9: note On D5 velocity: 94
timestamp 199953000 us: [99 2A 2E] channel 10: note On F#2 velocity: 46
timestamp 199953000 us: [99 2A 00] channel 10: note On F#2 velocity: 0
timestamp 200013000 us: [92 4C 00] channel 3: note On E5 velocity: 0
timestamp 200023000 us: [92 4F 00] channel 3: note On G5 velocity: 0
timestamp 200033000 us: [92 54 00] channel 3: note On C6 velocity: 0
timestamp 200053000 us: [95 30 00] channel 6: note On C3 velocity: 0
timestamp 200053000 us: [93 48 00] channel 4: note On C5 velocity: 0
timestamp 200073000 us: [98 4A 00] channel 9: note On D5 velocity: 0
timestamp 200073000 us: [94 4A 00] channel 5: note On D5 velocity: 0
timestamp 200073000 us: [94 3E 00] channel 5: note On D4 velocity: 0
timestamp 200083000 us: [94 40 5A] channel 5: note On E4 velocity: 90
timestamp 200083000 us: [94 4C 67] channel 5: note On E5 velocity: 103
timestamp 200093000 us: [95 30 48] channel 6: note On C3 velocity: 72
timestamp 200103000 us: [96 3C 60] channel 7: note On C4 velocity: 96
timestamp 200103000 us: [98 4C 5A] channel 9: note On E5 velocity: 90
timestamp 200103000 us: [99 23 76] channel 10: note On B1 velocity: 118
timestamp 200103000 us: [99 2A 52] channel 10: note On F#2 velocity: 82
timestamp 200103000 us: [93 48 61] channel 4: note On C5 velocity: 97
timestamp 200103000 us: [99 28 65] channel 10: note On E2 velocity: 101
timestamp 200113000 us: [92 4C 4C] channel 3: note On E5 velocity: 76
timestamp 200113000 us: [92 4F 3E] channel 3: note On G5 velocity: 62
timestamp 200113000 us: [92 54 4D] channel 3: note On C6 velocity: 77
timestamp 200113000 us: [99 2A 00] channel 10: note On F#2 velocity: 0
timestamp 200123000 us: [99 23 00] channel 10: note On B1 velocity: 0
timestamp 200123000 us: [99 28 00] channel 10: note On E2 velocity: 0
timestamp 200123000 us: [96 40 5F] channel 7: note On E4 velocity: 95
timestamp 200213000 us: [92 4C 00] channel 3: note On E5 velocity: 0
timestamp 200223000 us: [92 54 00] channel 3: note On C6 velocity: 0
timestamp 200243000 us: [92 4F 00] channel 3: note On G5 velocity: 0
timestamp 200253000 us: [95 30 00] channel 6: note On C3 velocity: 0
timestamp 200263000 us: [93 48 00] channel 4: note On C5 velocity: 0
timestamp 200373000 us: [96 37 00] channel 7: note On G3 velocity: 0
timestamp 200373000 us: [96 3C 00] channel 7: note On C4 velocity: 0
timestamp 200383000 us: [94 4C 00] channel 5: note On E5 velocity: 0
timestamp 200393000 us: [94 40 00] channel 5: note On E4 velocity: 0
timestamp 200393000 us: [94 43 5F] channel 5: note On G4 velocity: 95
timestamp 200393000 us: [94 4F 6C] channel 5: note On G5 velocity: 108
timestamp 200393000 us: [96 40 00] channel 7: note On E4 velocity: 0
timestamp 200393000 us: [98 4C 00] channel 9: note On E5 velocity: 0
timestamp 200403000 us: [93 48 61] channel 4: note On C5 velocity: 97
timestamp 200403000 us: [92 54 38] channel 3: note On C6 velocity: 56
timestamp 200413000 us: [95 30 41] channel 6: note On C3 velocity: 65
timestamp 200413000 us: [96 37 52] channel 7: note On G3 velocity: 82
timestamp 200413000 us: [98 4F 5A] channel 9: note On G5 velocity: 90
timestamp 200413000 us: [99 2A 2E] channel 10: note On F#2 velocity: 46
timestamp 200413000 us: [92 4C 2D] channel 3: note On E5 velocity: 45
timestamp 200413000 us: [92 4F 33] channel 3: note On G5 velocity: 51
timestamp 200423000 us: [99 2A 00] channel 10: note On F#2 velocity: 0
timestamp 200433000 us: [91 24 00] channel 2: note On C2 velocity: 0
timestamp 200473000 us: [92 4C 00] channel 3: note On E5 velocity: 0
timestamp 200473000 us: [92 54 00] channel 3: note On C6 velocity: 0
timestamp 200503000 us: [93 48 00] channel 4: note On C5 velocity: 0
timestamp 200523000 us: [92 4F 00] channel 3: note On G5 velocity: 0
timestamp 200533000 us: [95 30 00] channel 6: note On C3 velocity: 0
timestamp 200553000 us: [96 37 00] channel 7: note On G3 velocity: 0
timestamp 200563000 us: [91 23 6A] channel 2: note On B1 velocity: 106
timestamp 200563000 us: [93 48 64] channel 4: note On C5 velocity: 100
timestamp 200563000 us: [95 2F 41] channel 6: note On B2 velocity: 65
timestamp 200563000 us: [96 37 58] channel 7: note On G3 velocity: 88
timestamp 200573000 us: [99 23 76] channel 10: note On B1 velocity: 118
timestamp 200573000 us: [99 2A 3E] channel 10: note On F#2 velocity: 62
timestamp 200573000 us: [92 4F 3E] channel 3: note On G5 velocity: 62
timestamp 200573000 us: [92 53 4D] channel 3: note On B5 velocity: 77
timestamp 200573000 us: [99 2A 00] channel 10: note On F#2 velocity: 0
timestamp 200573000 us: [99 23 00] channel 10: note On B1 velocity: 0
timestamp 200583000 us: [92 4A 3E] channel 3: note On D5 velocity: 62
timestamp 200583000 us: [96 3B 54] channel 7: note On B3 velocity: 84
timestamp 200593000 us: [96 3E 58] channel 7: note On D4 velocity: 88
timestamp 200653000 us: [92 4A 00] channel 3: note On D5 velocity: 0
timestamp 200683000 us: [92 53 00] channel 3: note On B5 velocity: 0
timestamp 200693000 us: [95 2F 00] channel 6: note On B2 velocity: 0
timestamp 200703000 us: [92 4F 00] channel 3: note On G5 velocity: 0
timestamp 200853000 us: [93 48 00] channel 4: note On C5 velocity: 0
timestamp 200853000 us: [96 3E 00] channel 7: note On D4 velocity: 0
timestamp 200863000 us: [96 3B 00] channel 7: note On B3 velocity: 0
timestamp 200863000 us: [96 37 00] channel 7: note On G3 velocity: 0
timestamp 200863000 us: [97 4F 5F] channel 8: note On G5 velocity: 95
timestamp 200863000 us: [93 47 5B] channel 4: note On B4 velocity: 91
timestamp 200873000 us: [92 4A 2D] channel 3: note On D5 velocity: 45
timestamp 200873000 us: [92 4F 35] channel 3: note On G5 velocity: 53
timestamp 200873000 us: [95 2F 46] channel 6: note On B2 velocity: 70
timestamp 200873000 us: [96 37 53] channel 7: note On G3 velocity: 83
timestamp 200883000 us: [99 2A 2E] channel 10: note On F#2 velocity: 46
timestamp 200883000 us: [92 53 31] channel 3: note On B5 velocity: 49
timestamp 200883000 us: [99 2A 00] channel 10: note On F#2 velocity: 0
timestamp 200953000 us: [92 4A 00] channel 3: note On D5 velocity: 0
timestamp 200953000 us: [92 53 00] channel 3: note On B5 velocity: 0
timestamp 200963000 us: [97 4F 00] channel 8: note On G5 velocity: 0
timestamp 200973000 us: [92 4F 00] channel 3: note On G5 velocity: 0
timestamp 200993000 us: [95 2F 00] channel 6: note On B2 velocity: 0
timestamp 201023000 us: [97 4F 5A] channel 8: note On G5 velocity: 90
timestamp 201023000 us: [98 4F 00] channel 9: note On G5 velocity: 0
timestamp 201023000 us: [95 2F 4B] channel 6: note On B2 velocity: 75
timestamp 201033000 us: [96 3B 60] channel 7: note On B3 velocity: 96
timestamp 201033000 us: [99 23 76] channel 10: note On B1 velocity: 118
timestamp 201033000 us: [99 2A 52] channel 10: note On F#2 velocity: 82
timestamp 201033000 us: [99 28 65] channel 10: note On E2 velocity: 101
timestamp 201033000 us: [92 4A 48] channel 3: note On D5 velocity: 72
timestamp 201043000 us: [92 4F 3E] channel 3: note On G5 velocity: 62
timestamp 201043000 us: [92 53 48] channel 3: note On B5 velocity: 72
timestamp 201043000 us: [99 2A 00] channel 10: note On F#2 velocity: 0
timestamp 201043000 us: [99 23 00] channel 10: note On B1 velocity: 0
timestamp 201043000 us: [99 28 00] channel 10: note On E2 velocity: 0
timestamp 201053000 us: [96 3E 5F] channel 7: note On D4 velocity: 95
timestamp 201153000 us: [92 4F 00] channel 3: note On G5 velocity: 0
timestamp 201153000 us: [92 4A 00] channel 3: note On D5 velocity: 0
timestamp 201163000 us: [95 2F 00] channel 6: note On B2 velocity: 0
timestamp 201163000 us: [97 4F 00] channel 8: note On G5 velocity: 0
timestamp 201173000 us: [92 53 00] channel 3: note On B5 velocity: 0
timestamp 201203000 us: [93 47 00] channel 4: note On B4 velocity: 0
timestamp 201303000 us: [96 37 00] channel 7: note On G3 velocity: 0
timestamp 201303000 us: [96 3B 00] channel 7: note On B3 velocity: 0
timestamp 201323000 us: [97 4F 5D] channel 8: note On G5 velocity: 93
timestamp 201323000 us: [96 3E 00] channel 7: note On D4 velocity: 0
timestamp 201333000 us: [92 4A 2D] channel 3: note On D5 velocity: 45
timestamp 201343000 us: [93 43 5D] channel 4: note On G4 velocity: 93
timestamp 201343000 us: [95 2F 46] channel 6: note On B2 velocity: 70
timestamp 201343000 us: [96 37 52] channel 7: note On G3 velocity: 82
timestamp 201343000 us: [99 2A 2E] channel 10: note On F#2 velocity: 46
timestamp 201343000 us: [92 4F 3A] channel 3: note On G5 velocity: 58
timestamp 201353000 us: [92 53 3F] channel 3: note On B5 velocity: 63
timestamp 201353000 us: [99 2A 00] channel 10: note On F#2 velocity: 0
timestamp 201363000 us: [91 23 00] channel 2: note On B1 velocity: 0
timestamp 201373000 us: [94 4F 00] channel 5: note On G5 velocity: 0
timestamp 201373000 us: [94 43 00] channel 5: note On G4 velocity: 0
timestamp 201413000 us: [92 4A 00] channel 3: note On D5 velocity: 0
timestamp 201413000 us: [92 53 00] channel 3: note On B5 velocity: 0
timestamp 201423000 us: [97 4F 00] channel 8: note On G5 velocity: 0
timestamp 201423000 us: [93 43 00] channel 4: note On G4 velocity: 0
timestamp 201443000 us: [92 4F 00] channel 3: note On G5 velocity: 0
timestamp 201463000 us: [95 2F 00] channel 6: note On B2 velocity: 0
timestamp 201473000 us: [94 45 5E] channel 5: note On A4 velocity: 94
timestamp 201473000 us: [94 51 6B] channel 5: note On A5 velocity: 107
timestamp 201483000 us: [97 4F 5D] channel 8: note On G5 velocity: 93
timestamp 201483000 us: [96 37 00] channel 7: note On G3 velocity: 0
timestamp 201493000 us: [91 21 6A] channel 2: note On A1 velocity: 106
timestamp 201493000 us: [93 45 54] channel 4: note On A4 velocity: 84
timestamp 201493000 us: [95 2D 48] channel 6: note On A2 velocity: 72
timestamp 201493000 us: [96 34 58] channel 7: note On E3 velocity: 88
timestamp 201503000 us: [98 51 5C] channel 9: note On A5 velocity: 92
timestamp 201503000 us: [99 23 76] channel 10: note On B1 velocity: 118
timestamp 201503000 us: [99 2A 3E] channel 10: note On F#2 velocity: 62
timestamp 201503000 us: [92 55 4F] channel 3: note On C#6 velocity: 79
timestamp 201503000 us: [92 4C 46] channel 3: note On E5 velocity: 70
timestamp 201513000 us: [92 51 43] channel 3: note On A5 velocity: 67
timestamp 201513000 us: [99 2A 00] channel 10: note On F#2 velocity: 0
timestamp 201513000 us: [99 23 00] channel 10: note On B1 velocity: 0
timestamp 201513000 us: [96 39 54] channel 7: note On A3 velocity: 84
timestamp 201523000 us: [96 3D 58] channel 7: note On C#4 velocity: 88
timestamp 201603000 us: [92 51 00] channel 3: note On A5 velocity: 0
timestamp 201623000 us: [95 2D 00] channel 6: note On A2 velocity: 0
timestamp 201623000 us: [92 4C 00] channel 3: note On E5 velocity: 0
timestamp 201633000 us: [92 55 00] channel 3: note On C#6 velocity: 0
timestamp 201713000 us: [97 4F 00] channel 8: note On G5 velocity: 0
timestamp 201733000 us: [98 51 00] channel 9: note On A5 velocity: 0
timestamp 201733000 us: [93 45 00] channel 4: note On A4 velocity: 0
timestamp 201763000 us: [94 51 00] channel 5: note On A5 velocity: 0
timestamp 201763000 us: [94 45 00] channel 5: note On A4 velocity: 0
timestamp 201783000 us: [97 4A 5F] channel 8: note On D5 velocity: 95
timestamp 201783000 us: [94 45 5C] channel 5: note On A4 velocity: 92
timestamp 201783000 us: [94 51 69] channel 5: note On A5 velocity: 105
timestamp 201783000 us: [96 3D 00] channel 7: note On C#4 velocity: 0
timestamp 201793000 us: [96 39 00] channel 7: note On A3 velocity: 0
timestamp 201793000 us: [96 34 00] channel 7: note On E3 velocity: 0
timestamp 201793000 us: [92 55 4C] channel 3: note On C#6 velocity: 76
timestamp 201803000 us: [93 45 50] channel 4: note On A4 velocity: 80
timestamp 201803000 us: [92 4C 48] channel 3: note On E5 velocity: 72
timestamp 201803000 us: [92 51 4D] channel 3: note On A5 velocity: 77
timestamp 201803000 us: [95 2D 4A] channel 6: note On A2 velocity: 74
timestamp 201803000 us: [96 34 53] channel 7: note On E3 velocity: 83
timestamp 201813000 us: [98 51 58] channel 9: note On A5 velocity: 88
timestamp 201813000 us: [99 2A 2E] channel 10: note On F#2 velocity: 46
timestamp 201813000 us: [99 2A 00] channel 10: note On F#2 velocity: 0
timestamp 201903000 us: [92 51 00] channel 3: note On A5 velocity: 0
timestamp 201903000 us: [92 4C 00] channel 3: note On E5 velocity: 0
timestamp 201903000 us: [92 55 00] channel 3: note On C#6 velocity: 0
timestamp 201913000 us: [95 2D 00] channel 6: note On A2 velocity: 0
timestamp 201943000 us: [98 51 00] channel 9: note On A5 velocity: 0
timestamp 201943000 us: [94 51 00] channel 5: note On A5 velocity: 0
timestamp 201953000 us: [94 45 00] channel 5: note On A4 velocity: 0
timestamp 201953000 us: [93 45 00] channel 4: note On A4 velocity: 0
timestamp 201953000 us: [93 45 5A] channel 4: note On A4 velocity: 90
timestamp 201953000 us: [92 4C 48] channel 3: note On E5 velocity: 72
timestamp 201963000 us: [92 55 45] channel 3: note On C#6 velocity: 69
timestamp 201963000 us: [95 2D 44] channel 6: note On A2 velocity: 68
timestamp 201963000 us: [96 39 60] channel 7: note On A3 velocity: 96
timestamp 201963000 us: [99 23 76] channel 10: note On B1 velocity: 118
timestamp 201963000 us: [99 2A 52] channel 10: note On F#2 velocity: 82
timestamp 201963000 us: [92 51 43] channel 3: note On A5 velocity: 67
timestamp 201973000 us: [99 28 65] channel 10: note On E2 velocity: 101
timestamp 201973000 us: [99 2A 00] channel 10: note On F#2 velocity: 0
timestamp 201973000 us: [99 23 00] channel 10: note On B1 velocity: 0
timestamp 201973000 us: [99 28 00] channel 10: note On E2 velocity: 0
timestamp 201983000 us: [96 3D 5F] channel 7: note On C#4 velocity: 95
timestamp 202043000 us: [97 4A 00] channel 8: note On D5 velocity: 0
timestamp 202063000 us: [92 51 00] channel 3: note On A5 velocity: 0
timestamp 202063000 us: [92 4C 00] channel 3: note On E5 velocity: 0
timestamp 202073000 us: [92 55 00] channel 3: note On C#6 velocity: 0
timestamp 202103000 us: [95 2D 00] channel 6: note On A2 velocity: 0
timestamp 202123000 us: [93 45 00] channel 4: note On A4 velocity: 0
timestamp 202233000 us: [96 34 00] channel 7: note On E3 velocity: 0
timestamp 202243000 us: [96 39 00] channel 7: note On A3 velocity: 0
timestamp 202243000 us: [97 4A 5D] channel 8: note On D5 velocity: 93
timestamp 202253000 us: [94 45 5C] channel 5: note On A4 velocity: 92
timestamp 202253000 us: [94 51 69] channel 5: note On A5 velocity: 105
timestamp 202253000 us: [96 3D 00] channel 7: note On C#4 velocity: 0
timestamp 202263000 us: [92 55 45] channel 3: note On C#6 velocity: 69
timestamp 202263000 us: [92 4C 3A] channel 3: note On E5 velocity: 58
timestamp 202263000 us: [92 51 4C] channel 3: note On A5 velocity: 76
timestamp 202263000 us: [93 47 56] channel 4: note On B4 velocity: 86
timestamp 202273000 us: [95 2D 46] channel 6: note On A2 velocity: 70
timestamp 202273000 us: [96 34 52] channel 7: note On E3 velocity: 82
timestamp 202273000 us: [98 51 5E] channel 9: note On A5 velocity: 94
timestamp 202273000 us: [99 2A 2E] channel 10: note On F#2 velocity: 46
timestamp 202273000 us: [99 2A 00] channel 10: note On F#2 velocity: 0
timestamp 202293000 us: [91 21 00] channel 2: note On A1 velocity: 0
timestamp 202313000 us: [92 4C 00] channel 3: note On E5 velocity: 0
timestamp 202333000 us: [92 55 00] channel 3: note On C#6 velocity: 0
timestamp 202343000 us: [92 51 00] channel 3: note On A5 velocity: 0
timestamp 202383000 us: [95 2D 00] channel 6: note On A2 velocity: 0
timestamp 202403000 us: [93 47 00] channel 4: note On B4 velocity: 0
timestamp 202413000 us: [93 45 62] channel 4: note On A4 velocity: 98
timestamp 202423000 us: [92 56 4F] channel 3: note On D6 velocity: 79
timestamp 202423000 us: [96 34 00] channel 7: note On E3 velocity: 0
timestamp 202423000 us: [91 26 6A] channel 2: note On D2 velocity: 106
timestamp 202423000 us: [92 4E 48] channel 3: note On F#5 velocity: 72
timestamp 202433000 us: [92 51 3A] channel 3: note On A5 velocity: 58
timestamp 202433000 us: [95 32 4F] channel 6: note On D3 velocity: 79
timestamp 202433000 us: [96 36 58] channel 7: note On F#3 velocity: 88
timestamp 202433000 us: [99 23 76] channel 10: note On B1 velocity: 118
timestamp 202433000 us: [99 2A 3E] channel 10: note On F#2 velocity: 62
timestamp 202443000 us: [99 2A 00] channel 10: note On F#2 velocity: 0
timestamp 202443000 us: [99 23 00] channel 10: note On B1 velocity: 0
timestamp 202443000 us: [96 39 54] channel 7: note On A3 velocity: 84
timestamp 202453000 us: [96 3E 58] channel 7: note On D4 velocity: 88
timestamp 202463000 us: [94 51 00] channel 5: note On A5 velocity: 0
timestamp 202463000 us: [94 45 00] channel 5: note On A4 velocity: 0
timestamp 202553000 us: [92 56 00] channel 3: note On D6 velocity: 0
timestamp 202553000 us: [92 51 00] channel 3: note On A5 velocity: 0
timestamp 202563000 us: [92 4E 00] channel 3: note On F#5 velocity: 0
timestamp 202583000 us: [95 32 00] channel 6: note On D3 velocity: 0
timestamp 202703000 us: [93 45 00] channel 4: note On A4 velocity: 0
timestamp 202713000 us: [94 48 72] channel 5: note On C5 velocity: 114
timestamp 202713000 us: [94 54 6C] channel 5: note On C6 velocity: 108
timestamp 202723000 us: [93 4A 62] channel 4: note On D5 velocity: 98
timestamp 202723000 us: [96 3E 00] channel 7: note On D4 velocity: 0
timestamp 202723000 us: [96 39 00] channel 7: note On A3 velocity: 0
timestamp 202723000 us: [96 36 00] channel 7: note On F#3 velocity: 0
timestamp 202733000 us: [92 51 43] channel 3: note On A5 velocity: 67
timestamp 202733000 us: [92 56 48] channel 3: note On D6 velocity: 72
timestamp 202733000 us: [92 4E 3F] channel 3: note On F#5 velocity: 63
timestamp 202733000 us: [95 32 48] channel 6: note On D3 velocity: 72
timestamp 202733000 us: [96 36 53] channel 7: note On F#3 velocity: 83
timestamp 202733000 us: [99 2A 41] channel 10: note On F#2 velocity: 65
timestamp 202743000 us: [99 28 65] channel 10: note On E2 velocity: 101
timestamp 202743000 us: [99 2A 00] channel 10: note On F#2 velocity: 0
timestamp 202743000 us: [99 28 00] channel 10: note On E2 velocity: 0
timestamp 202793000 us: [92 4E 00] channel 3: note On F#5 velocity: 0
timestamp 202803000 us: [92 51 00] channel 3: note On A5 velocity: 0
timestamp 202803000 us: [92 56 00] channel 3: note On D6 velocity: 0
timestamp 202813000 us: [94 54 00] channel 5: note On C6 velocity: 0
timestamp 202813000 us: [94 48 00] channel 5: note On C5 velocity: 0
timestamp 202853000 us: [95 32 00] channel 6: note On D3 velocity: 0
timestamp 202873000 us: [94 4A 6E] channel 5: note On D5 velocity: 110
timestamp 202873000 us: [94 56 6B] channel 5: note On D6 velocity: 107
timestamp 202883000 us: [92 56 38] channel 3: note On D6 velocity: 56
timestamp 202883000 us: [92 4E 3E] channel 3: note On F#5 velocity: 62
timestamp 202883000 us: [92 51 45] channel 3: note On A5 velocity: 69
timestamp 202893000 us: [95 32 48] channel 6: note On D3 velocity: 72
timestamp 202893000 us: [96 39 60] channel 7: note On A3 velocity: 96
timestamp 202893000 us: [99 23 76] channel 10: note On B1 velocity: 118
timestamp 202893000 us: [99 2A 47] channel 10: note On F#2 velocity: 71
timestamp 202893000 us: [99 28 55] channel 10: note On E2 velocity: 85
timestamp 202903000 us: [99 2A 00] channel 10: note On F#2 velocity: 0
timestamp 202903000 us: [99 23 00] channel 10: note On B1 velocity: 0
timestamp 202903000 us: [98 51 00] channel 9: note On A5 velocity: 0
timestamp 202903000 us: [99 28 00] channel 10: note On E2 velocity: 0
timestamp 202913000 us: [96 3E 5F] channel 7: note On D4 velocity: 95
timestamp 202973000 us: [94 4A 00] channel 5: note On D5 velocity: 0
timestamp 202973000 us: [94 56 00] channel 5: note On D6 velocity: 0
timestamp 202973000 us: [92 51 00] channel 3: note On A5 velocity: 0
timestamp 202993000 us: [92 4E 00] channel 3: note On F#5 velocity: 0
timestamp 203003000 us: [92 56 00] channel 3: note On D6 velocity: 0
timestamp 203023000 us: [94 48 70] channel 5: note On C5 velocity: 112
timestamp 203023000 us: [94 54 57] channel 5: note On C6 velocity: 87
timestamp 203043000 us: [95 32 00] channel 6: note On D3 velocity: 0
timestamp 203093000 us: [97 4A 00] channel 8: note On D5 velocity: 0
timestamp 203113000 us: [94 48 00] channel 5: note On C5 velocity: 0
timestamp 203123000 us: [94 54 00] channel 5: note On C6 velocity: 0
timestamp 203163000 us: [96 36 00] channel 7: note On F#3 velocity: 0
timestamp 203173000 us: [96 39 00] channel 7: note On A3 velocity: 0
timestamp 203183000 us: [92 56 46] channel 3: note On D6 velocity: 70
timestamp 203183000 us: [94 45 6E] channel 5: note On A4 velocity: 110
timestamp 203183000 us: [94 51 6A] channel 5: note On A5 velocity: 106
timestamp 203183000 us: [96 3E 00] channel 7: note On D4 velocity: 0
timestamp 203183000 us: [92 4E 3E] channel 3: note On F#5 velocity: 62
timestamp 203183000 us: [92 51 4A] channel 3: note On A5 velocity: 74
timestamp 203203000 us: [95 32 41] channel 6: note On D3 velocity: 65
timestamp 203203000 us: [96 36 52] channel 7: note On F#3 velocity: 82
timestamp 203203000 us: [99 28 51] channel 10: note On E2 velocity: 81
timestamp 203203000 us: [99 28 00] channel 10: note On E2 velocity: 0
timestamp 203223000 us: [91 26 00] channel 2: note On D2 velocity: 0
timestamp 203263000 us: [94 45 00] channel 5: note On A4 velocity: 0
timestamp 203273000 us: [92 51 00] channel 3: note On A5 velocity: 0
timestamp 203273000 us: [94 51 00] channel 5: note On A5 velocity: 0
timestamp 203283000 us: [92 4E 00] channel 3: note On F#5 velocity: 0
timestamp 203293000 us: [92 56 00] channel 3: note On D6 velocity: 0
timestamp 203303000 us: [95 32 00] channel 6: note On D3 velocity: 0
timestamp 203313000 us: [93 4A 00] channel 4: note On D5 velocity: 0
timestamp 203343000 us: [96 36 00] channel 7: note On F#3 velocity: 0
timestamp 203353000 us: [91 2B 6A] channel 2: note On G2 velocity: 106
timestamp 203353000 us: [93 47 61] channel 4: note On B4 velocity: 97
timestamp 203353000 us: [95 37 4D] channel 6: note On G3 velocity: 77
timestamp 203353000 us: [96 37 58] channel 7: note On G3 velocity: 88
timestamp 203363000 us: [99 23 76] channel 10: note On B1 velocity: 118
timestamp 203363000 us: [99 31 4A] channel 10: note On C#3 velocity: 74
timestamp 203363000 us: [92 4F 45] channel 3: note On G5 velocity: 69
timestamp 203363000 us: [92 53 45] channel 3: note On B5 velocity: 69
timestamp 203363000 us: [92 56 43] channel 3: note On D6 velocity: 67
timestamp 203373000 us: [99 31 00] channel 10: note On C#3 velocity: 0
timestamp 203373000 us: [99 23 00] channel 10: note On B1 velocity: 0
timestamp 203373000 us: [96 3B 54] channel 7: note On B3 velocity: 84
timestamp 203383000 us: [96 3E 58] channel 7: note On D4 velocity: 88
timestamp 203463000 us: [95 37 00] channel 6: note On G3 velocity: 0
timestamp 203493000 us: [92 56 00] channel 3: note On D6 velocity: 0
timestamp 203503000 us: [92 53 00] channel 3: note On B5 velocity: 0
timestamp 203513000 us: [92 4F 00] channel 3: note On G5 velocity: 0
timestamp 203563000 us: [93 47 00] channel 4: note On B4 velocity: 0
timestamp 203653000 us: [96 3E 00] channel 7: note On D4 velocity: 0
timestamp 203653000 us: [96 3B 00] channel 7: note On B3 velocity: 0
timestamp 203653000 us: [96 37 00] channel 7: note On G3 velocity: 0
timestamp 203663000 us: [93 4A 62] channel 4: note On D5 velocity: 98
timestamp 203663000 us: [95 37 4A] channel 6: note On G3 velocity: 74
timestamp 203663000 us: [96 37 53] channel 7: note On G3 velocity: 83
timestamp 203663000 us: [99 2A 2E] channel 10: note On F#2 velocity: 46
timestamp 203673000 us: [92 4F 3F] channel 3: note On G5 velocity: 63
timestamp 203673000 us: [92 53 48] channel 3: note On B5 velocity: 72
timestamp 203673000 us: [92 56 3E] channel 3: note On D6 velocity: 62
timestamp 203673000 us: [99 2A 00] channel 10: note On F#2 velocity: 0
timestamp 203753000 us: [92 53 00] channel 3: note On B5 velocity: 0
timestamp 203753000 us: [92 4F 00] channel 3: note On G5 velocity: 0
timestamp 203763000 us: [92 56 00] channel 3: note On D6 velocity: 0
timestamp 203763000 us: [93 4A 00] channel 4: note On D5 velocity: 0
timestamp 203763000 us: [95 37 00] channel 6: note On G3 velocity: 0
timestamp 203803000 us: [94 4A 5F] channel 5: note On D5 velocity: 95
timestamp 203803000 us: [94 56 6C] channel 5: note On D6 velocity: 108
timestamp 203823000 us: [93 4A 5A] channel 4: note On D5 velocity: 90
timestamp 203823000 us: [95 37 4D] channel 6: note On G3 velocity: 77
timestamp 203823000 us: [96 3B 60] channel 7: note On B3 velocity: 96
timestamp 203823000 us: [99 23 76] channel 10: note On B1 velocity: 118
timestamp 203823000 us: [99 2A 52] channel 10: note On F#2 velocity: 82
timestamp 203823000 us: [99 28 65] channel 10: note On E2 velocity: 101
timestamp 203833000 us: [92 56 3F] channel 3: note On D6 velocity: 63
timestamp 203833000 us: [92 4F 31] channel 3: note On G5 velocity: 49
timestamp 203833000 us: [92 53 4C] channel 3: note On B5 velocity: 76
timestamp 203833000 us: [99 2A 00] channel 10: note On F#2 velocity: 0
timestamp 203833000 us: [99 23 00] channel 10: note On B1 velocity: 0
timestamp 203843000 us: [99 28 00] channel 10: note On E2 velocity: 0
timestamp 203843000 us: [96 3E 5F] channel 7: note On D4 velocity: 95
timestamp 203953000 us: [92 53 00] channel 3: note On B5 velocity: 0
timestamp 203953000 us: [92 4F 00] channel 3: note On G5 velocity: 0
timestamp 203953000 us: [92 56 00] channel 3: note On D6 velocity: 0
timestamp 203973000 us: [95 37 00] channel 6: note On G3 velocity: 0
timestamp 203983000 us: [93 4A 00] channel 4: note On D5 velocity: 0
timestamp 204093000 us: [96 37 00] channel 7: note On G3 velocity: 0
timestamp 204103000 us: [96 3B 00] channel 7: note On B3 velocity: 0
timestamp 204113000 us: [96 3E 00] channel 7: note On D4 velocity: 0
timestamp 204123000 us: [93 4A 5F] channel 4: note On D5 velocity: 95
timestamp 204133000 us: [95 37 43] channel 6: note On G3 velocity: 67
timestamp 204133000 us: [96 37 52] channel 7: note On G3 velocity: 82
timestamp 204133000 us: [99 2A 2E] channel 10: note On F#2 velocity: 46
timestamp 204133000 us: [92 4F 3A] channel 3: note On G5 velocity: 58
timestamp 204133000 us: [92 56 3E] channel 3: note On D6 velocity: 62
timestamp 204133000 us: [92 53 45] channel 3: note On B5 velocity: 69
timestamp 204143000 us: [99 2A 00] channel 10: note On F#2 velocity: 0
timestamp 204153000 us: [91 2B 00] channel 2: note On G2 velocity: 0
timestamp 204203000 us: [92 56 00] channel 3: note On D6 velocity: 0
timestamp 204203000 us: [92 4F 00] channel 3: note On G5 velocity: 0
timestamp 204203000 us: [92 53 00] channel 3: note On B5 velocity: 0
timestamp 204243000 us: [93 4A 00] channel 4: note On D5 velocity: 0
timestamp 204253000 us: [95 37 00] channel 6: note On G3 velocity: 0
timestamp 204273000 us: [96 37 00] channel 7: note On G3 velocity: 0
timestamp 204283000 us: [91 2A 6A] channel 2: note On F#2 velocity: 106
timestamp 204283000 us: [95 36 4F] channel 6: note On F#3 velocity: 79
timestamp 204283000 us: [96 36 58] channel 7: note On F#3 velocity: 88
timestamp 204293000 us: [99 23 76] channel 10: note On B1 velocity: 118
timestamp 204293000 us: [99 2A 3E] channel 10: note On F#2 velocity: 62
timestamp 204293000 us: [93 4C 5F] channel 4: note On E5 velocity: 95
timestamp 204293000 us: [92 56 4A] channel 3: note On D6 velocity: 74
timestamp 204293000 us: [92 51 45] channel 3: note On A5 velocity: 69
timestamp 204293000 us: [99 2A 00] channel 10: note On F#2 velocity: 0
timestamp 204303000 us: [99 23 00] channel 10: note On B1 velocity: 0
timestamp 204303000 us: [92 4E 43] channel 3: note On F#5 velocity: 67
timestamp 204303000 us: [96 39 54] channel 7: note On A3 velocity: 84
timestamp 204313000 us: [96 3E 58] channel 7: note On D4 velocity: 88
timestamp 204423000 us: [92 4E 00] channel 3: note On F#5 velocity: 0
timestamp 204423000 us: [92 56 00] channel 3: note On D6 velocity: 0
timestamp 204433000 us: [92 51 00] channel 3: note On A5 velocity: 0
timestamp 204443000 us: [95 36 00] channel 6: note On F#3 velocity: 0
timestamp 204553000 us: [93 4C 00] channel 4: note On E5 velocity: 0
timestamp 204583000 us: [96 3E 00] channel 7: note On D4 velocity: 0
timestamp 204583000 us: [96 39 00] channel 7: note On A3 velocity: 0
timestamp 204583000 us: [96 36 00] channel 7: note On F#3 velocity: 0
timestamp 204593000 us: [92 4E 3F] channel 3: note On F#5 velocity: 63
timestamp 204593000 us: [93 4A 5B] channel 4: note On D5 velocity: 91
timestamp 204593000 us: [92 51 43] channel 3: note On A5 velocity: 67
timestamp 204593000 us: [92 56 41] channel 3: note On D6 velocity: 65
timestamp 204593000 us: [95 36 4A] channel 6: note On F#3 velocity: 74
timestamp 204593000 us: [96 36 53] channel 7: note On F#3 velocity: 83
timestamp 204603000 us: [99 2A 2E] channel 10: note On F#2 velocity: 46
timestamp 204603000 us: [97 4A 5C] channel 8: note On D5 velocity: 92
timestamp 204603000 us: [99 2A 00] channel 10: note On F#2 velocity: 0
timestamp 204653000 us: [92 51 00] channel 3: note On A5 velocity: 0
timestamp 204663000 us: [92 56 00] channel 3: note On D6 velocity: 0
timestamp 204683000 us: [92 4E 00] channel 3: note On F#5 velocity: 0
timestamp 204693000 us: [97 4A 00] channel 8: note On D5 velocity: 0
timestamp 204693000 us: [95 36 00] channel 6: note On F#3 velocity: 0
timestamp 204753000 us: [95 36 52] channel 6: note On F#3 velocity: 82
timestamp 204753000 us: [96 39 60] channel 7: note On A3 velocity: 96
timestamp 204753000 us: [99 23 76] channel 10: note On B1 velocity: 118
timestamp 204753000 us: [99 2A 52] channel 10: note On F#2 velocity: 82
timestamp 204753000 us: [92 4E 41] channel 3: note On F#5 velocity: 65
timestamp 204753000 us: [92 56 4A] channel 3: note On D6 velocity: 74
timestamp 204753000 us: [99 28 65] channel 10: note On E2 velocity: 101
timestamp 204763000 us: [92 51 4A] channel 3: note On A5 velocity: 74
timestamp 204763000 us: [99 2A 00] channel 10: note On F#2 velocity: 0
timestamp 204763000 us: [99 23 00] channel 10: note On B1 velocity: 0
timestamp 204763000 us: [97 4A 5C] channel 8: note On D5 velocity: 92
timestamp 204763000 us: [99 28 00] channel 10: note On E2 velocity: 0
timestamp 204773000 us: [96 3E 5F] channel 7: note On D4 velocity: 95
timestamp 204863000 us: [92 51 00] channel 3: note On A5 velocity: 0
timestamp 204873000 us: [92 4E 00] channel 3: note On F#5 velocity: 0
timestamp 204893000 us: [95 36 00] channel 6: note On F#3 velocity: 0
timestamp 204893000 us: [92 56 00] channel 3: note On D6 velocity: 0
timestamp 204903000 us: [97 4A 00] channel 8: note On D5 velocity: 0
timestamp 205023000 us: [96 36 00] channel 7: note On F#3 velocity: 0
timestamp 205033000 us: [96 39 00] channel 7: note On A3 velocity: 0
timestamp 205043000 us: [96 3E 00] channel 7: note On D4 velocity: 0
timestamp 205043000 us: [93 4A 00] channel 4: note On D5 velocity: 0
timestamp 205053000 us: [92 4E 3F] channel 3: note On F#5 velocity: 63
timestamp 205053000 us: [92 56 37] channel 3: note On D6 velocity: 55
timestamp 205063000 us: [92 51 3A] channel 3: note On A5 velocity: 58
timestamp 205063000 us: [95 36 48] channel 6: note On F#3 velocity: 72
timestamp 205063000 us: [96 36 52] channel 7: note On F#3 velocity: 82
timestamp 205063000 us: [99 2A 2E] channel 10: note On F#2 velocity: 46
timestamp 205073000 us: [97 4A 5C] channel 8: note On D5 velocity: 92
timestamp 205073000 us: [99 2A 00] channel 10: note On F#2 velocity: 0
timestamp 205073000 us: [93 4A 4F] channel 4: note On D5 velocity: 79
timestamp 205083000 us: [91 2A 00] channel 2: note On F#2 velocity: 0
timestamp 205113000 us: [92 51 00] channel 3: note On A5 velocity: 0
timestamp 205143000 us: [92 4E 00] channel 3: note On F#5 velocity: 0
timestamp 205153000 us: [95 36 00] channel 6: note On F#3 velocity: 0
timestamp 205153000 us: [94 56 00] channel 5: note On D6 velocity: 0
timestamp 205153000 us: [94 4A 00] channel 5: note On D5 velocity: 0
timestamp 205163000 us: [92 56 00] channel 3: note On D6 velocity: 0
timestamp 205173000 us: [97 4A 00] channel 8: note On D5 velocity: 0
timestamp 205193000 us: [94 47 5C] channel 5: note On B4 velocity: 92
timestamp 205193000 us: [94 53 69] channel 5: note On B5 velocity: 105
timestamp 205213000 us: [96 36 00] channel 7: note On F#3 velocity: 0
timestamp 205213000 us: [91 28 6A] channel 2: note On E2 velocity: 106
timestamp 205213000 us: [95 34 4B] channel 6: note On E3 velocity: 75
timestamp 205213000 us: [96 37 58] channel 7: note On G3 velocity: 88
timestamp 205223000 us: [99 23 76] channel 10: note On B1 velocity: 118
timestamp 205223000 us: [99 2A 3E] channel 10: note On F#2 velocity: 62
timestamp 205223000 us: [93 4A 00] channel 4: note On D5 velocity: 0
timestamp 205223000 us: [92 4F 46] channel 3: note On G5 velocity: 70
timestamp 205233000 us: [93 48 64] channel 4: note On C5 velocity: 100
timestamp 205233000 us: [99 2A 00] channel 10: note On F#2 velocity: 0
timestamp 205233000 us: [99 23 00] channel 10: note On B1 velocity: 0
timestamp 205233000 us: [92 54 3E] channel 3: note On C6 velocity: 62
timestamp 205233000 us: [92 4C 41] channel 3: note On E5 velocity: 65
timestamp 205233000 us: [96 3C 54] channel 7: note On C4 velocity: 84
timestamp 205243000 us: [97 4C 5D] channel 8: note On E5 velocity: 93
timestamp 205243000 us: [96 40 58] channel 7: note On E4 velocity: 88
timestamp 205343000 us: [92 4C 00] channel 3: note On E5 velocity: 0
timestamp 205363000 us: [92 54 00] channel 3: note On C6 velocity: 0
timestamp 205373000 us: [95 34 00] channel 6: note On E3 velocity: 0
timestamp 205383000 us: [92 4F 00] channel 3: note On G5 velocity: 0
timestamp 205423000 us: [93 48 00] channel 4: note On C5 velocity: 0
timestamp 205483000 us: [94 53 00] channel 5: note On B5 velocity: 0
timestamp 205483000 us: [94 47 00] channel 5: note On B4 velocity: 0
timestamp 205483000 us: [97 4C 00] channel 8: note On E5 velocity: 0
timestamp 205503000 us: [94 43 5D] channel 5: note On G4 velocity: 93
timestamp 205503000 us: [94 4F 6A] channel 5: note On G5 velocity: 106
timestamp 205513000 us: [96 40 00] channel 7: note On E4 velocity: 0
timestamp 205513000 us: [96 3C 00] channel 7: note On C4 velocity: 0
timestamp 205513000 us: [96 37 00] channel 7: note On G3 velocity: 0
timestamp 205523000 us: [95 34 4A] channel 6: note On E3 velocity: 74
timestamp 205523000 us: [96 37 53] channel 7: note On G3 velocity: 83
timestamp 205523000 us: [99 2A 2E] channel 10: note On F#2 velocity: 46
timestamp 205533000 us: [93 48 58] channel 4: note On C5 velocity: 88
timestamp 205533000 us: [92 54 48] channel 3: note On C6 velocity: 72
timestamp 205533000 us: [92 4C 37] channel 3: note On E5 velocity: 55
timestamp 205533000 us: [92 4F 3F] channel 3: note On G5 velocity: 63
timestamp 205533000 us: [99 2A 00] channel 10: note On F#2 velocity: 0
timestamp 205543000 us: [97 48 60] channel 8: note On C5 velocity: 96
timestamp 205593000 us: [92 4C 00] channel 3: note On E5 velocity: 0
timestamp 205623000 us: [95 34 00] channel 6: note On E3 velocity: 0
timestamp 205623000 us: [92 54 00] channel 3: note On C6 velocity: 0
timestamp 205633000 us: [92 4F 00] channel 3: note On G5 velocity: 0
timestamp 205643000 us: [93 48 00] channel 4: note On C5 velocity: 0
timestamp 205683000 us: [95 34 48] channel 6: note On E3 velocity: 72
timestamp 205683000 us: [96 3C 60] channel 7: note On C4 velocity: 96
timestamp 205683000 us: [99 23 76] channel 10: note On B1 velocity: 118
timestamp 205683000 us: [99 2A 52] channel 10: note On F#2 velocity: 82
timestamp 205683000 us: [99 28 65] channel 10: note On E2 velocity: 101
timestamp 205693000 us: [93 48 5D] channel 4: note On C5 velocity: 93
timestamp 205693000 us: [99 2A 00] channel 10: note On F#2 velocity: 0
timestamp 205693000 us: [99 23 00] channel 10: note On B1 velocity: 0
timestamp 205693000 us: [92 4C 4D] channel 3: note On E5 velocity: 77
timestamp 205693000 us: [92 4F 35] channel 3: note On G5 velocity: 53
timestamp 205693000 us: [92 54 53] channel 3: note On C6 velocity: 83
timestamp 205703000 us: [99 28 00] channel 10: note On E2 velocity: 0
timestamp 205703000 us: [94 4F 00] channel 5: note On G5 velocity: 0
timestamp 205703000 us: [94 43 00] channel 5: note On G4 velocity: 0
timestamp 205703000 us: [96 40 5F] channel 7: note On E4 velocity: 95
timestamp 205803000 us: [92 4C 00] channel 3: note On E5 velocity: 0
timestamp 205813000 us: [93 48 00] channel 4: note On C5 velocity: 0
timestamp 205833000 us: [92 4F 00] channel 3: note On G5 velocity: 0
timestamp 205833000 us: [93 48 5F] channel 4: note On C5 velocity: 95
timestamp 205833000 us: [95 34 00] channel 6: note On E3 velocity: 0
timestamp 205843000 us: [92 54 00] channel 3: note On C6 velocity: 0
timestamp 205843000 us: [97 48 00] channel 8: note On C5 velocity: 0
timestamp 205953000 us: [96 37 00] channel 7: note On G3 velocity: 0
timestamp 205963000 us: [96 3C 00] channel 7: note On C4 velocity: 0
timestamp 205973000 us: [94 43 5D] channel 5: note On G4 velocity: 93
timestamp 205973000 us: [94 4F 6A] channel 5: note On G5 velocity: 106
timestamp 205973000 us: [96 40 00] channel 7: note On E4 velocity: 0
timestamp 205983000 us: [93 48 00] channel 4: note On C5 velocity: 0
timestamp 205993000 us: [93 47 61] channel 4: note On B4 velocity: 97
timestamp 205993000 us: [95 34 48] channel 6: note On E3 velocity: 72
timestamp 205993000 us: [96 37 52] channel 7: note On G3 velocity: 82
timestamp 205993000 us: [99 2A 2E] channel 10: note On F#2 velocity: 46
timestamp 205993000 us: [92 4C 43] channel 3: note On E5 velocity: 67
timestamp 205993000 us: [92 54 4A] channel 3: note On C6 velocity: 74
timestamp 206003000 us: [92 4F 46] channel 3: note On G5 velocity: 70
timestamp 206003000 us: [97 4A 5B] channel 8: note On D5 velocity: 91
timestamp 206003000 us: [99 2A 00] channel 10: note On F#2 velocity: 0
timestamp 206013000 us: [91 28 00] channel 2: note On E2 velocity: 0
timestamp 206083000 us: [92 4C 00] channel 3: note On E5 velocity: 0
timestamp 206083000 us: [92 54 00] channel 3: note On C6 velocity: 0
timestamp 206093000 us: [92 4F 00] channel 3: note On G5 velocity: 0
timestamp 206103000 us: [95 34 00] channel 6: note On E3 velocity: 0
timestamp 206143000 us: [96 37 00] channel 7: note On G3 velocity: 0
timestamp 206143000 us: [91 26 6A] channel 2: note On D2 velocity: 106
timestamp 206143000 us: [95 32 44] channel 6: note On D3 velocity: 68
timestamp 206143000 us: [96 37 58] channel 7: note On G3 velocity: 88
timestamp 206153000 us: [99 23 76] channel 10: note On B1 velocity: 118
timestamp 206153000 us: [99 2A 3E] channel 10: note On F#2 velocity: 62
timestamp 206153000 us: [99 2A 00] channel 10: note On F#2 velocity: 0
timestamp 206153000 us: [99 23 00] channel 10: note On B1 velocity: 0
timestamp 206153000 us: [92 4F 3A] channel 3: note On G5 velocity: 58
timestamp 206153000 us: [92 53 4C] channel 3: note On B5 velocity: 76
timestamp 206163000 us: [96 3B 54] channel 7: note On B3 velocity: 84
timestamp 206163000 us: [92 4A 3C] channel 3: note On D5 velocity: 60
timestamp 206173000 us: [96 3E 58] channel 7: note On D4 velocity: 88
timestamp 206253000 us: [92 4A 00] channel 3: note On D5 velocity: 0
timestamp 206293000 us: [95 32 00] channel 6: note On D3 velocity: 0
timestamp 206293000 us: [92 53 00] channel 3: note On B5 velocity: 0
timestamp 206303000 us: [92 4F 00] channel 3: note On G5 velocity: 0
timestamp 206373000 us: [93 47 00] channel 4: note On B4 velocity: 0
timestamp 206443000 us: [96 3E 00] channel 7: note On D4 velocity: 0
timestamp 206443000 us: [96 3B 00] channel 7: note On B3 velocity: 0
timestamp 206443000 us: [96 37 00] channel 7: note On G3 velocity: 0
timestamp 206453000 us: [95 32 48] channel 6: note On D3 velocity: 72
timestamp 206453000 us: [96 37 53] channel 7: note On G3 velocity: 83
timestamp 206463000 us: [98 4A 5A] channel 9: note On D5 velocity: 90
timestamp 206463000 us: [99 2A 2E] channel 10: note On F#2 velocity: 46
timestamp 206463000 us: [92 4A 43] channel 3: note On D5 velocity: 67
timestamp 206463000 us: [92 4F 41] channel 3: note On G5 velocity: 65
timestamp 206463000 us: [92 53 3F] channel 3: note On B5 velocity: 63
timestamp 206463000 us: [99 2A 00] channel 10: note On F#2 velocity: 0
timestamp 206533000 us: [92 53 00] channel 3: note On B5 velocity: 0
timestamp 206543000 us: [92 4A 00] channel 3: note On D5 velocity: 0
timestamp 206553000 us: [92 4F 00] channel 3: note On G5 velocity: 0
timestamp 206573000 us: [95 32 00] channel 6: note On D3 velocity: 0
timestamp 206573000 us: [98 4A 00] channel 9: note On D5 velocity: 0
timestamp 206613000 us: [95 32 46] channel 6: note On D3 velocity: 70
timestamp 206613000 us: [96 3B 60] channel 7: note On B3 velocity: 96
timestamp 206613000 us: [98 4C 5A] channel 9: note On E5 velocity: 90
timestamp 206613000 us: [99 23 76] channel 10: note On B1 velocity: 118
timestamp 206613000 us: [99 2A 52] channel 10: note On F#2 velocity: 82
timestamp 206613000 us: [99 28 65] channel 10: note On E2 velocity: 101
timestamp 206623000 us: [92 4F 4A] channel 3: note On G5 velocity: 74
timestamp 206623000 us: [92 4A 4A] channel 3: note On D5 velocity: 74
timestamp 206623000 us: [92 53 54] channel 3: note On B5 velocity: 84
timestamp 206623000 us: [99 2A 00] channel 10: note On F#2 velocity: 0
timestamp 206623000 us: [99 23 00] channel 10: note On B1 velocity: 0
timestamp 206623000 us: [99 28 00] channel 10: note On E2 velocity: 0
timestamp 206633000 us: [96 3E 5F] channel 7: note On D4 velocity: 95
timestamp 206723000 us: [92 4A 00] channel 3: note On D5 velocity: 0
timestamp 206733000 us: [92 4F 00] channel 3: note On G5 velocity: 0
timestamp 206763000 us: [92 53 00] channel 3: note On B5 velocity: 0
timestamp 206773000 us: [95 32 00] channel 6: note On D3 velocity: 0
timestamp 206823000 us: [97 4A 00] channel 8: note On D5 velocity: 0
timestamp 206883000 us: [96 37 00] channel 7: note On G3 velocity: 0
timestamp 206893000 us: [96 3B 00] channel 7: note On B3 velocity: 0
timestamp 206893000 us: [98 4C 00] channel 9: note On E5 velocity: 0
timestamp 206903000 us: [96 3E 00] channel 7: note On D4 velocity: 0
timestamp 206913000 us: [93 43 5A] channel 4: note On G4 velocity: 90
timestamp 206923000 us: [92 53 3E] channel 3: note On B5 velocity: 62
timestamp 206923000 us: [95 32 43] channel 6: note On D3 velocity: 67
timestamp 206923000 us: [96 37 52] channel 7: note On G3 velocity: 82
timestamp 206923000 us: [98 4F 59] channel 9: note On G5 velocity: 89
timestamp 206923000 us: [99 2A 2E] channel 10: note On F#2 velocity: 46
timestamp 206923000 us: [92 4F 2E] channel 3: note On G5 velocity: 46
timestamp 206933000 us: [92 4A 43] channel 3: note On D5 velocity: 67
timestamp 206933000 us: [99 2A 00] channel 10: note On F#2 velocity: 0
timestamp 206943000 us: [91 26 00] channel 2: note On D2 velocity: 0
timestamp 207003000 us: [92 4F 00] channel 3: note On G5 velocity: 0
timestamp 207003000 us: [92 4A 00] channel 3: note On D5 velocity: 0
timestamp 207013000 us: [92 53 00] channel 3: note On B5 velocity: 0
timestamp 207053000 us: [95 32 00] channel 6: note On D3 velocity: 0
timestamp 207063000 us: [93 43 00] channel 4: note On G4 velocity: 0
timestamp 207073000 us: [93 48 5F] channel 4: note On C5 velocity: 95
timestamp 207073000 us: [96 37 00] channel 7: note On G3 velocity: 0
timestamp 207073000 us: [91 24 6A] channel 2: note On C2 velocity: 106
timestamp 207073000 us: [95 30 4D] channel 6: note On C3 velocity: 77
timestamp 207073000 us: [96 37 58] channel 7: note On G3 velocity: 88
timestamp 207083000 us: [99 23 76] channel 10: note On B1 velocity: 118
timestamp 207083000 us: [99 2A 3E] channel 10: note On F#2 velocity: 62
timestamp 207083000 us: [92 54 4F] channel 3: note On C6 velocity: 79
timestamp 207083000 us: [92 4C 4F] channel 3: note On E5 velocity: 79
timestamp 207093000 us: [92 4F 4C] channel 3: note On G5 velocity: 76
timestamp 207093000 us: [99 2A 00] channel 10: note On F#2 velocity: 0
timestamp 207093000 us: [99 23 00] channel 10: note On B1 velocity: 0
timestamp 207093000 us: [96 3C 54] channel 7: note On C4 velocity: 84
timestamp 207103000 us: [96 40 58] channel 7: note On E4 velocity: 88
timestamp 207163000 us: [94 4F 00] channel 5: note On G5 velocity: 0
timestamp 207163000 us: [94 43 00] channel 5: note On G4 velocity: 0
timestamp 207173000 us: [98 4F 00] channel 9: note On G5 velocity: 0
timestamp 207213000 us: [92 4C 00] channel 3: note On E5 velocity: 0
timestamp 207213000 us: [92 54 00] channel 3: note On C6 velocity: 0
timestamp 207223000 us: [92 4F 00] channel 3: note On G5 velocity: 0
timestamp 207223000 us: [95 30 00] channel 6: note On C3 velocity: 0
timestamp 207313000 us: [93 48 00] channel 4: note On C5 velocity: 0
timestamp 207363000 us: [94 3E 5A] channel 5: note On D4 velocity: 90
timestamp 207363000 us: [94 4A 67] channel 5: note On D5 velocity: 103
timestamp 207373000 us: [96 40 00] channel 7: note On E4 velocity: 0
timestamp 207373000 us: [96 3C 00] channel 7: note On C4 velocity: 0
timestamp 207373000 us: [96 37 00] channel 7: note On G3 velocity: 0
timestamp 207383000 us: [93 48 62] channel 4: note On C5 velocity: 98
timestamp 207383000 us: [92 4C 3E] channel 3: note On E5 velocity: 62
timestamp 207383000 us: [92 4F 48] channel 3: note On G5 velocity: 72
timestamp 207383000 us: [92 54 4A] channel 3: note On C6 velocity: 74
timestamp 207393000 us: [95 30 4A] channel 6: note On C3 velocity: 74
timestamp 207393000 us: [96 37 53] channel 7: note On G3 velocity: 83
timestamp 207393000 us: [98 4A 5E] channel 9: note On D5 velocity: 94
timestamp 207393000 us: [99 2A 2E] channel 10: note On F#2 velocity: 46
timestamp 207393000 us: [99 2A 00] channel 10: note On F#2 velocity: 0
timestamp 207453000 us: [92 4C 00] channel 3: note On E5 velocity: 0
timestamp 207463000 us: [92 4F 00] channel 3: note On G5 velocity: 0
timestamp 207473000 us: [92 54 00] channel 3: note On C6 velocity: 0
timestamp 207493000 us: [95 30 00] channel 6: note On C3 velocity: 0
timestamp 207503000 us: [93 48 00] channel 4: note On C5 velocity: 0
timestamp 207513000 us: [98 4A 00] channel 9: note On D5 velocity: 0
timestamp 207523000 us: [94 4A 00] channel 5: note On D5 velocity: 0
timestamp 207523000 us: [94 3E 00] channel 5: note On D4 velocity: 0
timestamp 207523000 us: [94 40 5A] channel 5: note On E4 velocity: 90
timestamp 207523000 us: [94 4C 67] channel 5: note On E5 velocity: 103
timestamp 207543000 us: [95 30 48] channel 6: note On C3 velocity: 72
timestamp 207543000 us: [96 3C 60] channel 7: note On C4 velocity: 96
timestamp 207543000 us: [98 4C 5A] channel 9: note On E5 velocity: 90
timestamp 207543000 us: [99 23 76] channel 10: note On B1 velocity: 118
timestamp 207543000 us: [99 2A 52] channel 10: note On F#2 velocity: 82
timestamp 207543000 us: [93 48 61] channel 4: note On C5 velocity: 97
timestamp 207553000 us: [99 28 65] channel 10: note On E2 velocity: 101
timestamp 207553000 us: [92 4C 4C] channel 3: note On E5 velocity: 76
timestamp 207553000 us: [92 4F 3E] channel 3: note On G5 velocity: 62
timestamp 207553000 us: [92 54 4D] channel 3: note On C6 velocity: 77
timestamp 207553000 us: [99 2A 00] channel 10: note On F#2 velocity: 0
timestamp 207563000 us: [99 23 00] channel 10: note On B1 velocity: 0
timestamp 207563000 us: [99 28 00] channel 10: note On E2 velocity: 0
timestamp 207563000 us: [96 40 5F] channel 7: note On E4 velocity: 95
timestamp 207653000 us: [92 4C 00] channel 3: note On E5 velocity: 0
timestamp 207663000 us: [92 54 00] channel 3: note On C6 velocity: 0
timestamp 207683000 us: [92 4F 00] channel 3: note On G5 velocity: 0
timestamp 207703000 us: [95 30 00] channel 6: note On C3 velocity: 0
timestamp 207713000 us: [93 48 00] channel 4: note On C5 velocity: 0
timestamp 207813000 us: [96 37 00] channel 7: note On G3 velocity: 0
timestamp 207823000 us: [96 3C 00] channel 7: note On C4 velocity: 0
timestamp 207833000 us: [94 4C 00] channel 5: note On E5 velocity: 0
timestamp 207833000 us: [94 40 00] channel 5: note On E4 velocity: 0
timestamp 207833000 us: [94 43 5F] channel 5: note On G4 velocity: 95
timestamp 207833000 us: [94 4F 6C] channel 5: note On G5 velocity: 108
timestamp 207833000 us: [96 40 00] channel 7: note On E4 velocity: 0
timestamp 207843000 us: [98 4C 00] channel 9: note On E5 velocity: 0
timestamp 207843000 us: [93 48 61] channel 4: note On C5 velocity: 97
timestamp 207853000 us: [92 54 38] channel 3: note On C6 velocity: 56
timestamp 207853000 us: [95 30 41] channel 6: note On C3 velocity: 65
timestamp 207853000 us: [96 37 52] channel 7: note On G3 velocity: 82
timestamp 207853000 us: [98 4F 5A] channel 9: note On G5 velocity: 90
timestamp 207853000 us: [99 2A 2E] channel 10: note On F#2 velocity: 46
timestamp 207853000 us: [92 4C 2D] channel 3: note On E5 velocity: 45
timestamp 207863000 us: [92 4F 33] channel 3: note On G5 velocity: 51
timestamp 207863000 us: [99 2A 00] channel 10: note On F#2 velocity: 0
timestamp 207873000 us: [91 24 00] channel 2: note On C2 velocity: 0
timestamp 207913000 us: [92 4C 00] channel 3: note On E5 velocity: 0
timestamp 207913000 us: [92 54 00] channel 3: note On C6 velocity: 0
timestamp 207943000 us: [93 48 00] channel 4: note On C5 velocity: 0
timestamp 207963000 us: [92 4F 00] channel 3: note On G5 velocity: 0
timestamp 207983000 us: [95 30 00] channel 6: note On C3 velocity: 0
timestamp 208003000 us: [96 37 00] channel 7: note On G3 velocity: 0
timestamp 208003000 us: [91 23 6A] channel 2: note On B1 velocity: 106
timestamp 208003000 us: [93 48 64] channel 4: note On C5 velocity: 100
timestamp 208003000 us: [95 2F 41] channel 6: note On B2 velocity: 65
timestamp 208013000 us: [96 37 58] channel 7: note On G3 velocity: 88
timestamp 208013000 us: [99 23 76] channel 10: note On B1 velocity: 118
timestamp 208013000 us: [99 2A 3E] channel 10: note On F#2 velocity: 62
timestamp 208013000 us: [92 4F 3E] channel 3: note On G5 velocity: 62
timestamp 208013000 us: [92 53 4D] channel 3: note On B5 velocity: 77
timestamp 208023000 us: [99 2A 00] channel 10: note On F#2 velocity: 0
timestamp 208023000 us: [99 23 00] channel 10: note On B1 velocity: 0
timestamp 208023000 us: [92 4A 3E] channel 3: note On D5 velocity: 62
timestamp 208023000 us: [96 3B 54] channel 7: note On B3 velocity: 84
timestamp 208033000 us: [96 3E 58] channel 7: note On D4 velocity: 88
timestamp 208093000 us: [92 4A 00] channel 3: note On D5 velocity: 0
timestamp 208133000 us: [92 53 00] channel 3: note On B5 velocity: 0
timestamp 208133000 us: [95 2F 00] channel 6: note On B2 velocity: 0
timestamp 208143000 us: [92 4F 00] channel 3: note On G5 velocity: 0
timestamp 208293000 us: [93 48 00] channel 4: note On C5 velocity: 0
timestamp 208303000 us: [96 3E 00] channel 7: note On D4 velocity: 0
timestamp 208303000 us: [96 3B 00] channel 7: note On B3 velocity: 0
timestamp 208303000 us: [96 37 00] channel 7: note On G3 velocity: 0
timestamp 208303000 us: [97 4F 5F] channel 8: note On G5 velocity: 95
timestamp 208313000 us: [93 47 5B] channel 4: note On B4 velocity: 91
timestamp 208313000 us: [92 4A 2D] channel 3: note On D5 velocity: 45
timestamp 208313000 us: [92 4F 35] channel 3: note On G5 velocity: 53
timestamp 208313000 us: [95 2F 46] channel 6: note On B2 velocity: 70
timestamp 208323000 us: [96 37 53] channel 7: note On G3 velocity: 83
timestamp 208323000 us: [99 2A 2E] channel 10: note On F#2 velocity: 46
timestamp 208323000 us: [92 53 31] channel 3: note On B5 velocity: 49
timestamp 208323000 us: [99 2A 00] channel 10: note On F#2 velocity: 0
timestamp 208393000 us: [92 4A 00] channel 3: note On D5 velocity: 0
timestamp 208393000 us: [92 53 00] channel 3: note On B5 velocity: 0
timestamp 208403000 us: [97 4F 00] channel 8: note On G5 velocity: 0
timestamp 208413000 us: [92 4F 00] channel 3: note On G5 velocity: 0
timestamp 208433000 us: [95 2F 00] channel 6: note On B2 velocity: 0
timestamp 208463000 us: [97 4F 5A] channel 8: note On G5 velocity: 90
timestamp 208463000 us: [98 4F 00] channel 9: note On G5 velocity: 0
timestamp 208473000 us: [95 2F 4B] channel 6: note On B2 velocity: 75
timestamp 208473000 us: [96 3B 60] channel 7: note On B3 velocity: 96
timestamp 208473000 us: [99 23 76] channel 10: note On B1 velocity: 118
timestamp 208473000 us: [99 2A 52] channel 10: note On F#2 velocity: 82
timestamp 208473000 us: [99 28 65] channel 10: note On E2 velocity: 101
timestamp 208483000 us: [92 4A 48] channel 3: note On D5 velocity: 72
timestamp 208483000 us: [92 4F 3E] channel 3: note On G5 velocity: 62
timestamp 208483000 us: [92 53 48] channel 3: note On B5 velocity: 72
timestamp 208483000 us: [99 2A 00] channel 10: note On F#2 velocity: 0
timestamp 208483000 us: [99 23 00] channel 10: note On B1 velocity: 0
timestamp 208483000 us: [99 28 00] channel 10: note On E2 velocity: 0
timestamp 208493000 us: [96 3E 5F] channel 7: note On D4 velocity: 95
timestamp 208593000 us: [92 4F 00] channel 3: note On G5 velocity: 0
timestamp 208593000 us: [92 4A 00] channel 3: note On D5 velocity: 0
timestamp 208603000 us: [95 2F 00] channel 6: note On B2 velocity: 0
timestamp 208613000 us: [97 4F 00] channel 8: note On G5 velocity: 0
timestamp 208613000 us: [92 53 00] channel 3: note On B5 velocity: 0
timestamp 208653000 us: [93 47 00] channel 4: note On B4 velocity: 0
timestamp 208743000 us: [96 37 00] channel 7: note On G3 velocity: 0
timestamp 208753000 us: [96 3B 00] channel 7: note On B3 velocity: 0
timestamp 208763000 us: [97 4F 5D] channel 8: note On G5 velocity: 93
timestamp 208763000 us: [96 3E 00] channel 7: note On D4 velocity: 0
timestamp 208783000 us: [92 4A 2D] channel 3: note On D5 velocity: 45
timestamp 208783000 us: [93 43 5D] channel 4: note On G4 velocity: 93
timestamp 208783000 us: [95 2F 46] channel 6: note On B2 velocity: 70
timestamp 208783000 us: [96 37 52] channel 7: note On G3 velocity: 82
timestamp 208783000 us: [99 2A 2E] channel 10: note On F#2 velocity: 46
timestamp 208783000 us: [92 4F 3A] channel 3: note On G5 velocity: 58
timestamp 208793000 us: [92 53 3F] channel 3: note On B5 velocity: 63
timestamp 208793000 us: [99 2A 00] channel 10: note On F#2 velocity: 0
timestamp 208803000 us: [91 23 00] channel 2: note On B1 velocity: 0
timestamp 208813000 us: [94 4F 00] channel 5: note On G5 velocity: 0
timestamp 208823000 us: [94 43 00] channel 5: note On G4 velocity: 0
timestamp 208853000 us: [92 4A 00] channel 3: note On D5 velocity: 0
timestamp 208853000 us: [92 53 00] channel 3: note On B5 velocity: 0
timestamp 208863000 us: [97 4F 00] channel 8: note On G5 velocity: 0
timestamp 208863000 us: [93 43 00] channel 4: note On G4 velocity: 0
timestamp 208883000 us: [92 4F 00] channel 3: note On G5 velocity: 0
timestamp 208893000 us: [E3 00 02] channel 4: pitch wheel change 256
timestamp 208903000 us: [95 2F 00] channel 6: note On B2 velocity: 0
timestamp 208913000 us: [94 45 5E] channel 5: note On A4 velocity: 94
timestamp 208913000 us: [94 51 6B] channel 5: note On A5 velocity: 107
timestamp 208923000 us: [97 4F 5D] channel 8: note On G5 velocity: 93
timestamp 208933000 us: [E3 00 0A] channel 4: pitch wheel change 1280
timestamp 208933000 us: [96 37 00] channel 7: note On G3 velocity: 0
timestamp 208933000 us: [91 21 6A] channel 2: note On A1 velocity: 106
timestamp 208933000 us: [93 45 54] channel 4: note On A4 velocity: 84
timestamp 208933000 us: [95 2D 48] channel 6: note On A2 velocity: 72
timestamp 208943000 us: [96 34 58] channel 7: note On E3 velocity: 88
timestamp 208943000 us: [98 51 5C] channel 9: note On A5 velocity: 92
timestamp 208943000 us: [99 23 76] channel 10: note On B1 velocity: 118
timestamp 208943000 us: [99 2A 3E] channel 10: note On F#2 velocity: 62
timestamp 208943000 us: [92 55 4F] channel 3: note On C#6 velocity: 79
timestamp 208953000 us: [92 4C 46] channel 3: note On E5 velocity: 70
timestamp 208953000 us: [92 51 43] channel 3: note On A5 velocity: 67
timestamp 208953000 us: [99 2A 00] channel 10: note On F#2 velocity: 0
timestamp 208953000 us: [99 23 00] channel 10: note On B1 velocity: 0
timestamp 208953000 us: [96 39 54] channel 7: note On A3 velocity: 84
timestamp 208963000 us: [E3 00 1E] channel 4: pitch wheel change 3840
timestamp 208973000 us: [96 3D 58] channel 7: note On C#4 velocity: 88
timestamp 208993000 us: [E3 00 2B] channel 4: pitch wheel change 5504
timestamp 209033000 us: [E3 00 34] channel 4: pitch wheel change 6656
timestamp 209043000 us: [92 51 00] channel 3: note On A5 velocity: 0
timestamp 209063000 us: [95 2D 00] channel 6: note On A2 velocity: 0
timestamp 209063000 us: [92 4C 00] channel 3: note On E5 velocity: 0
timestamp 209063000 us: [E3 00 3E] channel 4: pitch wheel change 7936
timestamp 209073000 us: [92 55 00] channel 3: note On C#6 velocity: 0
timestamp 209083000 us: [E3 00 40] channel 4: pitch wheel change 8192
timestamp 209153000 us: [97 4F 00] channel 8: note On G5 velocity: 0
timestamp 209173000 us: [98 51 00] channel 9: note On A5 velocity: 0
timestamp 209173000 us: [93 45 00] channel 4: note On A4 velocity: 0
timestamp 209203000 us: [94 51 00] channel 5: note On A5 velocity: 0
timestamp 209203000 us: [94 45 00] channel 5: note On A4 velocity: 0
timestamp 209223000 us: [97 4A 5F] channel 8: note On D5 velocity: 95
timestamp 209223000 us: [94 45 5C] channel 5: note On A4 velocity: 92
timestamp 209223000 us: [94 51 69] channel 5: note On A5 velocity: 105
timestamp 209233000 us: [96 3D 00] channel 7: note On C#4 velocity: 0
timestamp 209233000 us: [96 39 00] channel 7: note On A3 velocity: 0
timestamp 209233000 us: [96 34 00] channel 7: note On E3 velocity: 0
timestamp 209243000 us: [92 55 4C] channel 3: note On C#6 velocity: 76
timestamp 209243000 us: [93 45 50] channel 4: note On A4 velocity: 80
timestamp 209243000 us: [92 4C 48] channel 3: note On E5 velocity: 72
timestamp 209243000 us: [92 51 4D] channel 3: note On A5 velocity: 77
timestamp 209253000 us: [95 2D 4A] channel 6: note On A2 velocity: 74
timestamp 209253000 us: [96 34 53] channel 7: note On E3 velocity: 83
timestamp 209253000 us: [98 51 58] channel 9: note On A5 velocity: 88
timestamp 209253000 us: [99 2A 2E] channel 10: note On F#2 velocity: 46
timestamp 209263000 us: [99 2A 00] channel 10: note On F#2 velocity: 0
timestamp 209343000 us: [92 51 00] channel 3: note On A5 velocity: 0
timestamp 209343000 us: [92 4C 00] channel 3: note On E5 velocity: 0
timestamp 209343000 us: [92 55 00] channel 3: note On C#6 velocity: 0
timestamp 209353000 us: [95 2D 00] channel 6: note On A2 velocity: 0
timestamp 209383000 us: [98 51 00] channel 9: note On A5 velocity: 0
timestamp 209393000 us: [94 51 00] channel 5: note On A5 velocity: 0
timestamp 209393000 us: [94 45 00] channel 5: note On A4 velocity: 0
timestamp 209393000 us: [93 45 00] channel 4: note On A4 velocity: 0
timestamp 209393000 us: [93 45 5A] channel 4: note On A4 velocity: 90
timestamp 209403000 us: [92 4C 48] channel 3: note On E5 velocity: 72
timestamp 209403000 us: [92 55 45] channel 3: note On C#6 velocity: 69
timestamp 209403000 us: [95 2D 44] channel 6: note On A2 velocity: 68
timestamp 209403000 us: [96 39 60] channel 7: note On A3 velocity: 96
timestamp 209403000 us: [99 23 76] channel 10: note On B1 velocity: 118
timestamp 209403000 us: [99 2A 52] channel 10: note On F#2 velocity: 82
timestamp 209413000 us: [92 51 43] channel 3: note On A5 velocity: 67
timestamp 209413000 us: [99 28 65] channel 10: note On E2 velocity: 101
timestamp 209413000 us: [99 2A 00] channel 10: note On F#2 velocity: 0
timestamp 209413000 us: [99 23 00] channel 10: note On B1 velocity: 0
timestamp 209413000 us: [99 28 00] channel 10: note On E2 velocity: 0
timestamp 209423000 us: [96 3D 5F] channel 7: note On C#4 velocity: 95
timestamp 209483000 us: [97 4A 00] channel 8: note On D5 velocity: 0
timestamp 209503000 us: [92 51 00] channel 3: note On A5 velocity: 0
timestamp 209503000 us: [92 4C 00] channel 3: note On E5 velocity: 0
timestamp 209513000 us: [92 55 00] channel 3: note On C#6 velocity: 0
timestamp 209543000 us: [95 2D 00] channel 6: note On A2 velocity: 0
timestamp 209573000 us: [93 45 00] channel 4: note On A4 velocity: 0
timestamp 209673000 us: [96 34 00] channel 7: note On E3 velocity: 0
timestamp 209683000 us: [96 39 00] channel 7: note On A3 velocity: 0
timestamp 209683000 us: [97 4A 5D] channel 8: note On D5 velocity: 93
timestamp 209693000 us: [94 45 5C] channel 5: note On A4 velocity: 92
timestamp 209693000 us: [94 51 69] channel 5: note On A5 velocity: 105
timestamp 209693000 us: [96 3D 00] channel 7: note On C#4 velocity: 0
timestamp 209703000 us: [92 55 45] channel 3: note On C#6 velocity: 69
timestamp 209703000 us: [92 4C 3A] channel 3: note On E5 velocity: 58
timestamp 209703000 us: [92 51 4C] channel 3: note On A5 velocity: 76
timestamp 209713000 us: [93 47 56] channel 4: note On B4 velocity: 86
timestamp 209713000 us: [95 2D 46] channel 6: note On A2 velocity: 70
timestamp 209713000 us: [96 34 52] channel 7: note On E3 velocity: 82
timestamp 209713000 us: [98 51 5E] channel 9: note On A5 velocity: 94
timestamp 209713000 us: [99 2A 2E] channel 10: note On F#2 velocity: 46
timestamp 209723000 us: [99 2A 00] channel 10: note On F#2 velocity: 0
timestamp 209733000 us: [91 21 00] channel 2: note On A1 velocity: 0
timestamp 209753000 us: [92 4C 00] channel 3: note On E5 velocity: 0
timestamp 209773000 us: [92 55 00] channel 3: note On C#6 velocity: 0
timestamp 209783000 us: [92 51 00] channel 3: note On A5 velocity: 0
timestamp 209823000 us: [95 2D 00] channel 6: note On A2 velocity: 0
timestamp 209843000 us: [93 47 00] channel 4: note On B4 velocity: 0
timestamp 209863000 us: [93 45 62] channel 4: note On A4 velocity: 98
timestamp 209863000 us: [92 56 4F] channel 3: note On D6 velocity: 79
timestamp 209863000 us: [96 34 00] channel 7: note On E3 velocity: 0
timestamp 209863000 us: [91 26 6A] channel 2: note On D2 velocity: 106
timestamp 209863000 us: [92 4E 48] channel 3: note On F#5 velocity: 72
timestamp 209873000 us: [92 51 3A] channel 3: note On A5 velocity: 58
timestamp 209873000 us: [95 32 4F] channel 6: note On D3 velocity: 79
timestamp 209873000 us: [96 36 58] channel 7: note On F#3 velocity: 88
timestamp 209873000 us: [99 23 76] channel 10: note On B1 velocity: 118
timestamp 209873000 us: [99 2E 40] channel 10: note On A#2 velocity: 64
timestamp 209873000 us: [99 28 55] channel 10: note On E2 velocity: 85
timestamp 209883000 us: [99 2E 00] channel 10: note On A#2 velocity: 0
timestamp 209883000 us: [99 23 00] channel 10: note On B1 velocity: 0
timestamp 209883000 us: [99 28 00] channel 10: note On E2 velocity: 0
timestamp 209883000 us: [96 39 54] channel 7: note On A3 velocity: 84
timestamp 209903000 us: [96 3E 58] channel 7: note On D4 velocity: 88
timestamp 209913000 us: [94 51 00] channel 5: note On A5 velocity: 0
timestamp 209913000 us: [94 45 00] channel 5: note On A4 velocity: 0
timestamp 209993000 us: [92 56 00] channel 3: note On D6 velocity: 0
timestamp 209993000 us: [92 51 00] channel 3: note On A5 velocity: 0
timestamp 210003000 us: [92 4E 00] channel 3: note On F#5 velocity: 0
timestamp 210023000 us: [99 28 4D] channel 10: note On E2 velocity: 77
timestamp 210023000 us: [95 32 00] channel 6: note On D3 velocity: 0
timestamp 210033000 us: [99 28 00] channel 10: note On E2 velocity: 0
timestamp 210143000 us: [93 45 00] channel 4: note On A4 velocity: 0
timestamp 210153000 us: [94 48 72] channel 5: note On C5 velocity: 114
timestamp 210153000 us: [94 54 6C] channel 5: note On C6 velocity: 108
timestamp 210163000 us: [93 4A 62] channel 4: note On D5 velocity: 98
timestamp 210163000 us: [96 3E 00] channel 7: note On D4 velocity: 0
timestamp 210163000 us: [96 39 00] channel 7: note On A3 velocity: 0
timestamp 210163000 us: [96 36 00] channel 7: note On F#3 velocity: 0
timestamp 210173000 us: [92 51 43] channel 3: note On A5 velocity: 67
timestamp 210173000 us: [92 56 48] channel 3: note On D6 velocity: 72
timestamp 210173000 us: [92 4E 3F] channel 3: note On F#5 velocity: 63
timestamp 210183000 us: [95 32 48] channel 6: note On D3 velocity: 72
timestamp 210183000 us: [96 36 53] channel 7: note On F#3 velocity: 83
timestamp 210183000 us: [99 28 51] channel 10: note On E2 velocity: 81
timestamp 210183000 us: [99 28 00] channel 10: note On E2 velocity: 0
timestamp 210233000 us: [92 4E 00] channel 3: note On F#5 velocity: 0
timestamp 210243000 us: [92 51 00] channel 3: note On A5 velocity: 0
timestamp 210243000 us: [92 56 00] channel 3: note On D6 velocity: 0
timestamp 210253000 us: [94 54 00] channel 5: note On C6 velocity: 0
timestamp 210253000 us: [94 48 00] channel 5: note On C5 velocity: 0
timestamp 210293000 us: [95 32 00] channel 6: note On D3 velocity: 0
timestamp 210313000 us: [94 4A 6E] channel 5: note On D5 velocity: 110
timestamp 210313000 us: [94 56 6B] channel 5: note On D6 velocity: 107
timestamp 210323000 us: [92 56 38] channel 3: note On D6 velocity: 56
timestamp 210323000 us: [92 4E 3E] channel 3: note On F#5 velocity: 62
timestamp 210333000 us: [92 51 45] channel 3: note On A5 velocity: 69
timestamp 210333000 us: [95 32 48] channel 6: note On D3 velocity: 72
timestamp 210333000 us: [96 39 60] channel 7: note On A3 velocity: 96
timestamp 210333000 us: [99 23 76] channel 10: note On B1 velocity: 118
timestamp 210333000 us: [99 28 5F] channel 10: note On E2 velocity: 95
timestamp 210343000 us: [99 23 00] channel 10: note On B1 velocity: 0
timestamp 210343000 us: [98 51 00] channel 9: note On A5 velocity: 0
timestamp 210343000 us: [99 28 00] channel 10: note On E2 velocity: 0
timestamp 210353000 us: [96 3E 5F] channel 7: note On D4 velocity: 95
timestamp 210413000 us: [94 4A 00] channel 5: note On D5 velocity: 0
timestamp 210413000 us: [94 56 00] channel 5: note On D6 velocity: 0
timestamp 210413000 us: [92 51 00] channel 3: note On A5 velocity: 0
timestamp 210433000 us: [92 4E 00] channel 3: note On F#5 velocity: 0
timestamp 210443000 us: [92 56 00] channel 3: note On D6 velocity: 0
timestamp 210463000 us: [94 48 70] channel 5: note On C5 velocity: 112
timestamp 210463000 us: [94 54 57] channel 5: note On C6 velocity: 87
timestamp 210483000 us: [95 32 00] channel 6: note On D3 velocity: 0
timestamp 210483000 us: [99 28 55] channel 10: note On E2 velocity: 85
timestamp 210493000 us: [99 28 00] channel 10: note On E2 velocity: 0
timestamp 210533000 us: [97 4A 00] channel 8: note On D5 velocity: 0
timestamp 210553000 us: [94 48 00] channel 5: note On C5 velocity: 0
timestamp 210563000 us: [94 54 00] channel 5: note On C6 velocity: 0
timestamp 210603000 us: [96 36 00] channel 7: note On F#3 velocity: 0
timestamp 210613000 us: [96 39 00] channel 7: note On A3 velocity: 0
timestamp 210623000 us: [92 56 46] channel 3: note On D6 velocity: 70
timestamp 210623000 us: [94 45 6E] channel 5: note On A4 velocity: 110
timestamp 210623000 us: [94 51 6A] channel 5: note On A5 velocity: 106
timestamp 210623000 us: [96 3E 00] channel 7: note On D4 velocity: 0
timestamp 210633000 us: [92 4E 3E] channel 3: note On F#5 velocity: 62
timestamp 210633000 us: [92 51 4A] channel 3: note On A5 velocity: 74
timestamp 210643000 us: [95 32 41] channel 6: note On D3 velocity: 65
timestamp 210643000 us: [96 36 52] channel 7: note On F#3 velocity: 82
timestamp 210643000 us: [99 28 55] channel 10: note On E2 velocity: 85
timestamp 210653000 us: [99 28 00] channel 10: note On E2 velocity: 0
timestamp 210663000 us: [91 26 00] channel 2: note On D2 velocity: 0
timestamp 210703000 us: [94 45 00] channel 5: note On A4 velocity: 0
timestamp 210713000 us: [92 51 00] channel 3: note On A5 velocity: 0
timestamp 210713000 us: [94 51 00] channel 5: note On A5 velocity: 0
timestamp 210723000 us: [92 4E 00] channel 3: note On F#5 velocity: 0
timestamp 210733000 us: [92 56 00] channel 3: note On D6 velocity: 0
timestamp 210743000 us: [95 32 00] channel 6: note On D3 velocity: 0
timestamp 210753000 us: [93 4A 00] channel 4: note On D5 velocity: 0
timestamp 210793000 us: [96 36 00] channel 7: note On F#3 velocity: 0
timestamp 210793000 us: [91 2B 6A] channel 2: note On G2 velocity: 106
timestamp 210793000 us: [93 47 1A] channel 4: note On B4 velocity: 26
timestamp 210803000 us: [95 37 4D] channel 6: note On G3 velocity: 77
timestamp 210803000 us: [96 37 58] channel 7: note On G3 velocity: 88
timestamp 210803000 us: [99 23 76] channel 10: note On B1 velocity: 118
timestamp 210803000 us: [99 31 4A] channel 10: note On C#3 velocity: 74
timestamp 210813000 us: [92 4F 45] channel 3: note On G5 velocity: 69
timestamp 210813000 us: [92 53 45] channel 3: note On B5 velocity: 69
timestamp 210813000 us: [92 56 43] channel 3: note On D6 velocity: 67
timestamp 210813000 us: [99 31 00] channel 10: note On C#3 velocity: 0
timestamp 210813000 us: [99 23 00] channel 10: note On B1 velocity: 0
timestamp 210813000 us: [96 3B 54] channel 7: note On B3 velocity: 84
timestamp 210833000 us: [96 3E 58] channel 7: note On D4 velocity: 88
timestamp 210903000 us: [95 37 00] channel 6: note On G3 velocity: 0
timestamp 210933000 us: [92 56 00] channel 3: note On D6 velocity: 0
timestamp 210953000 us: [92 53 00] channel 3: note On B5 velocity: 0
timestamp 210953000 us: [92 4F 00] channel 3: note On G5 velocity: 0
timestamp 211003000 us: [93 47 00] channel 4: note On B4 velocity: 0
timestamp 211093000 us: [96 3E 00] channel 7: note On D4 velocity: 0
timestamp 211093000 us: [96 3B 00] channel 7: note On B3 velocity: 0
timestamp 211093000 us: [96 37 00] channel 7: note On G3 velocity: 0
timestamp 211103000 us: [93 4A 62] channel 4: note On D5 velocity: 98
timestamp 211103000 us: [95 37 4A] channel 6: note On G3 velocity: 74
timestamp 211113000 us: [96 37 53] channel 7: note On G3 velocity: 83
timestamp 211113000 us: [99 2A 2E] channel 10: note On F#2 velocity: 46
timestamp 211113000 us: [92 4F 3F] channel 3: note On G5 velocity: 63
timestamp 211113000 us: [92 53 48] channel 3: note On B5 velocity: 72
timestamp 211113000 us: [92 56 3E] channel 3: note On D6 velocity: 62
timestamp 211113000 us: [99 2A 00] channel 10: note On F#2 velocity: 0
timestamp 211193000 us: [92 53 00] channel 3: note On B5 velocity: 0
timestamp 211193000 us: [92 4F 00] channel 3: note On G5 velocity: 0
timestamp 211203000 us: [92 56 00] channel 3: note On D6 velocity: 0
timestamp 211203000 us: [93 4A 00] channel 4: note On D5 velocity: 0
timestamp 211203000 us: [95 37 00] channel 6: note On G3 velocity: 0
timestamp 211243000 us: [94 4A 5F] channel 5: note On D5 velocity: 95
timestamp 211243000 us: [94 56 6C] channel 5: note On D6 velocity: 108
timestamp 211263000 us: [93 4A 5A] channel 4: note On D5 velocity: 90
timestamp 211263000 us: [95 37 4D] channel 6: note On G3 velocity: 77
timestamp 211263000 us: [96 3B 60] channel 7: note On B3 velocity: 96
timestamp 211263000 us: [99 23 76] channel 10: note On B1 velocity: 118
timestamp 211263000 us: [99 2A 52] channel 10: note On F#2 velocity: 82
timestamp 211273000 us: [99 28 65] channel 10: note On E2 velocity: 101
timestamp 211273000 us: [92 56 3F] channel 3: note On D6 velocity: 63
timestamp 211273000 us: [92 4F 31] channel 3: note On G5 velocity: 49
timestamp 211273000 us: [92 53 4C] channel 3: note On B5 velocity: 76
timestamp 211273000 us: [99 2A 00] channel 10: note On F#2 velocity: 0
timestamp 211273000 us: [99 23 00] channel 10: note On B1 velocity: 0
timestamp 211283000 us: [99 28 00] channel 10: note On E2 velocity: 0
timestamp 211283000 us: [96 3E 5F] channel 7: note On D4 velocity: 95
timestamp 211393000 us: [92 53 00] channel 3: note On B5 velocity: 0
timestamp 211393000 us: [92 4F 00] channel 3: note On G5 velocity: 0
timestamp 211403000 us: [92 56 00] channel 3: note On D6 velocity: 0
timestamp 211423000 us: [95 37 00] channel 6: note On G3 velocity: 0
timestamp 211423000 us: [93 4A 00] channel 4: note On D5 velocity: 0
timestamp 211533000 us: [96 37 00] channel 7: note On G3 velocity: 0
timestamp 211543000 us: [96 3B 00] channel 7: note On B3 velocity: 0
timestamp 211553000 us: [96 3E 00] channel 7: note On D4 velocity: 0
timestamp 211563000 us: [93 4A 5F] channel 4: note On D5 velocity: 95
timestamp 211573000 us: [95 37 43] channel 6: note On G3 velocity: 67
timestamp 211573000 us: [96 37 52] channel 7: note On G3 velocity: 82
timestamp 211573000 us: [99 2A 2E] channel 10: note On F#2 velocity: 46
timestamp 211573000 us: [92 4F 3A] channel 3: note On G5 velocity: 58
timestamp 211573000 us: [92 56 3E] channel 3: note On D6 velocity: 62
timestamp 211583000 us: [92 53 45] channel 3: note On B5 velocity: 69
timestamp 211583000 us: [99 2A 00] channel 10: note On F#2 velocity: 0
timestamp 211593000 us: [91 2B 00] channel 2: note On G2 velocity: 0
timestamp 211643000 us: [92 56 00] channel 3: note On D6 velocity: 0
timestamp 211643000 us: [92 4F 00] channel 3: note On G5 velocity: 0
timestamp 211643000 us: [92 53 00] channel 3: note On B5 velocity: 0
timestamp 211683000 us: [93 4A 00] channel 4: note On D5 velocity: 0
timestamp 211693000 us: [95 37 00] channel 6: note On G3 velocity: 0
timestamp 211723000 us: [96 37 00] channel 7: note On G3 velocity: 0
timestamp 211723000 us: [91 2A 6A] channel 2: note On F#2 velocity: 106
timestamp 211723000 us: [95 36 4F] channel 6: note On F#3 velocity: 79
timestamp 211733000 us: [96 36 58] channel 7: note On F#3 velocity: 88
timestamp 211733000 us: [99 23 76] channel 10: note On B1 velocity: 118
timestamp 211733000 us: [99 2A 3E] channel 10: note On F#2 velocity: 62
timestamp 211733000 us: [93 4C 5F] channel 4: note On E5 velocity: 95
timestamp 211733000 us: [92 56 4A] channel 3: note On D6 velocity: 74
timestamp 211743000 us: [92 51 45] channel 3: note On A5 velocity: 69
timestamp 211743000 us: [99 2A 00] channel 10: note On F#2 velocity: 0
timestamp 211743000 us: [99 23 00] channel 10: note On B1 velocity: 0
timestamp 211743000 us: [92 4E 43] channel 3: note On F#5 velocity: 67
timestamp 211743000 us: [96 39 54] channel 7: note On A3 velocity: 84
timestamp 211763000 us: [96 3E 58] channel 7: note On D4 velocity: 88
timestamp 211863000 us: [92 4E 00] channel 3: note On F#5 velocity: 0
timestamp 211863000 us: [92 56 00] channel 3: note On D6 velocity: 0
timestamp 211873000 us: [92 51 00] channel 3: note On A5 velocity: 0
timestamp 211883000 us: [95 36 00] channel 6: note On F#3 velocity: 0
timestamp 211993000 us: [93 4C 00] channel 4: note On E5 velocity: 0
timestamp 212023000 us: [96 3E 00] channel 7: note On D4 velocity: 0
timestamp 212023000 us: [96 39 00] channel 7: note On A3 velocity: 0
timestamp 212023000 us: [96 36 00] channel 7: note On F#3 velocity: 0
timestamp 212033000 us: [92 4E 3F] channel 3: note On F#5 velocity: 63
timestamp 212033000 us: [93 4A 5B] channel 4: note On D5 velocity: 91
timestamp 212033000 us: [92 51 43] channel 3: note On A5 velocity: 67
timestamp 212033000 us: [92 56 41] channel 3: note On D6 velocity: 65
timestamp 212043000 us: [95 36 4A] channel 6: note On F#3 velocity: 74
timestamp 212043000 us: [96 36 53] channel 7: note On F#3 velocity: 83
timestamp 212043000 us: [99 2A 2E] channel 10: note On F#2 velocity: 46
timestamp 212043000 us: [97 4A 5C] channel 8: note On D5 velocity: 92
timestamp 212043000 us: [99 2A 00] channel 10: note On F#2 velocity: 0
timestamp 212093000 us: [92 51 00] channel 3: note On A5 velocity: 0
timestamp 212103000 us: [92 56 00] channel 3: note On D6 velocity: 0
timestamp 212123000 us: [92 4E 00] channel 3: note On F#5 velocity: 0
timestamp 212133000 us: [97 4A 00] channel 8: note On D5 velocity: 0
timestamp 212133000 us: [95 36 00] channel 6: note On F#3 velocity: 0
timestamp 212193000 us: [95 36 52] channel 6: note On F#3 velocity: 82
timestamp 212193000 us: [96 39 60] channel 7: note On A3 velocity: 96
timestamp 212193000 us: [99 23 76] channel 10: note On B1 velocity: 118
timestamp 212193000 us: [99 2A 52] channel 10: note On F#2 velocity: 82
timestamp 212193000 us: [92 4E 41] channel 3: note On F#5 velocity: 65
timestamp 212203000 us: [92 56 4A] channel 3: note On D6 velocity: 74
timestamp 212203000 us: [99 28 65] channel 10: note On E2 velocity: 101
timestamp 212203000 us: [92 51 4A] channel 3: note On A5 velocity: 74
timestamp 212213000 us: [99 2A 00] channel 10: note On F#2 velocity: 0
timestamp 212213000 us: [99 23 00] channel 10: note On B1 velocity: 0
timestamp 212213000 us: [97 4A 5C] channel 8: note On D5 velocity: 92
timestamp 212213000 us: [99 28 00] channel 10: note On E2 velocity: 0
timestamp 212213000 us: [96 3E 5F] channel 7: note On D4 velocity: 95
timestamp 212303000 us: [92 51 00] channel 3: note On A5 velocity: 0
timestamp 212313000 us: [92 4E 00] channel 3: note On F#5 velocity: 0
timestamp 212333000 us: [95 36 00] channel 6: note On F#3 velocity: 0
timestamp 212333000 us: [92 56 00] channel 3: note On D6 velocity: 0
timestamp 212343000 us: [97 4A 00] channel 8: note On D5 velocity: 0
timestamp 212463000 us: [96 36 00] channel 7: note On F#3 velocity: 0
timestamp 212473000 us: [96 39 00] channel 7: note On A3 velocity: 0
timestamp 212483000 us: [96 3E 00] channel 7: note On D4 velocity: 0
timestamp 212483000 us: [93 4A 00] channel 4: note On D5 velocity: 0
timestamp 212493000 us: [92 4E 3F] channel 3: note On F#5 velocity: 63
timestamp 212493000 us: [92 56 37] channel 3: note On D6 velocity: 55
timestamp 212503000 us: [92 51 3A] channel 3: note On A5 velocity: 58
timestamp 212503000 us: [95 36 48] channel 6: note On F#3 velocity: 72
timestamp 212503000 us: [96 36 52] channel 7: note On F#3 velocity: 82
timestamp 212503000 us: [99 2A 2E] channel 10: note On F#2 velocity: 46
timestamp 212513000 us: [97 4A 5C] channel 8: note On D5 velocity: 92
timestamp 212513000 us: [99 2A 00] channel 10: note On F#2 velocity: 0
timestamp 212513000 us: [93 4A 4F] channel 4: note On D5 velocity: 79
timestamp 212523000 us: [91 2A 00] channel 2: note On F#2 velocity: 0
timestamp 212553000 us: [92 51 00] channel 3: note On A5 velocity: 0
timestamp 212583000 us: [92 4E 00] channel 3: note On F#5 velocity: 0
timestamp 212593000 us: [95 36 00] channel 6: note On F#3 velocity: 0
timestamp 212593000 us: [94 56 00] channel 5: note On D6 velocity: 0
timestamp 212593000 us: [94 4A 00] channel 5: note On D5 velocity: 0
timestamp 212603000 us: [92 56 00] channel 3: note On D6 velocity: 0
timestamp 212613000 us: [97 4A 00] channel 8: note On D5 velocity: 0
timestamp 212633000 us: [94 47 5C] channel 5: note On B4 velocity: 92
timestamp 212643000 us: [94 53 69] channel 5: note On B5 velocity: 105
timestamp 212653000 us: [96 36 00] channel 7: note On F#3 velocity: 0
timestamp 212653000 us: [91 28 6A] channel 2: note On E2 velocity: 106
timestamp 212653000 us: [95 34 4B] channel 6: note On E3 velocity: 75
timestamp 212663000 us: [96 37 58] channel 7: note On G3 velocity: 88
timestamp 212663000 us: [99 23 76] channel 10: note On B1 velocity: 118
timestamp 212663000 us: [99 2A 3E] channel 10: note On F#2 velocity: 62
timestamp 212663000 us: [93 4A 00] channel 4: note On D5 velocity: 0
timestamp 212663000 us: [92 4F 46] channel 3: note On G5 velocity: 70
timestamp 212673000 us: [93 48 64] channel 4: note On C5 velocity: 100
timestamp 212673000 us: [99 2A 00] channel 10: note On F#2 velocity: 0
timestamp 212673000 us: [99 23 00] channel 10: note On B1 velocity: 0
timestamp 212673000 us: [92 54 3E] channel 3: note On C6 velocity: 62
timestamp 212673000 us: [92 4C 41] channel 3: note On E5 velocity: 65
timestamp 212673000 us: [96 3C 54] channel 7: note On C4 velocity: 84
timestamp 212673000 us: [97 4C 5D] channel 8: note On E5 velocity: 93
timestamp 212693000 us: [96 40 58] channel 7: note On E4 velocity: 88
timestamp 212783000 us: [92 4C 00] channel 3: note On E5 velocity: 0
timestamp 212803000 us: [92 54 00] channel 3: note On C6 velocity: 0
timestamp 212813000 us: [95 34 00] channel 6: note On E3 velocity: 0
timestamp 212823000 us: [92 4F 00] channel 3: note On G5 velocity: 0
timestamp 212863000 us: [93 48 00] channel 4: note On C5 velocity: 0
timestamp 212923000 us: [94 53 00] channel 5: note On B5 velocity: 0
timestamp 212923000 us: [94 47 00] channel 5: note On B4 velocity: 0
timestamp 212923000 us: [97 4C 00] channel 8: note On E5 velocity: 0
timestamp 212943000 us: [94 43 5D] channel 5: note On G4 velocity: 93
timestamp 212953000 us: [94 4F 6A] channel 5: note On G5 velocity: 106
timestamp 212953000 us: [96 40 00] channel 7: note On E4 velocity: 0
timestamp 212953000 us: [96 3C 00] channel 7: note On C4 velocity: 0
timestamp 212953000 us: [96 37 00] channel 7: note On G3 velocity: 0
timestamp 212963000 us: [95 34 4A] channel 6: note On E3 velocity: 74
timestamp 212963000 us: [96 37 53] channel 7: note On G3 velocity: 83
timestamp 212973000 us: [99 2A 2E] channel 10: note On F#2 velocity: 46
timestamp 212973000 us: [93 48 58] channel 4: note On C5 velocity: 88
timestamp 212973000 us: [92 54 48] channel 3: note On C6 velocity: 72
timestamp 212973000 us: [92 4C 37] channel 3: note On E5 velocity: 55
timestamp 212973000 us: [92 4F 3F] channel 3: note On G5 velocity: 63
timestamp 212983000 us: [99 2A 00] channel 10: note On F#2 velocity: 0
timestamp 212983000 us: [97 48 60] channel 8: note On C5 velocity: 96
timestamp 213033000 us: [92 4C 00] channel 3: note On E5 velocity: 0
timestamp 213063000 us: [95 34 00] channel 6: note On E3 velocity: 0
timestamp 213063000 us: [92 54 00] channel 3: note On C6 velocity: 0
timestamp 213073000 us: [92 4F 00] channel 3: note On G5 velocity: 0
timestamp 213083000 us: [93 48 00] channel 4: note On C5 velocity: 0
timestamp 213123000 us: [95 34 48] channel 6: note On E3 velocity: 72
timestamp 213123000 us: [96 3C 60] channel 7: note On C4 velocity: 96
timestamp 213123000 us: [99 23 76] channel 10: note On B1 velocity: 118
timestamp 213123000 us: [99 2A 52] channel 10: note On F#2 velocity: 82
timestamp 213123000 us: [99 28 65] channel 10: note On E2 velocity: 101
timestamp 213133000 us: [93 48 5D] channel 4: note On C5 velocity: 93
timestamp 213133000 us: [99 2A 00] channel 10: note On F#2 velocity: 0
timestamp 213133000 us: [99 23 00] channel 10: note On B1 velocity: 0
timestamp 213133000 us: [92 4C 4D] channel 3: note On E5 velocity: 77
timestamp 213133000 us: [92 4F 35] channel 3: note On G5 velocity: 53
timestamp 213133000 us: [92 54 53] channel 3: note On C6 velocity: 83
timestamp 213143000 us: [99 28 00] channel 10: note On E2 velocity: 0
timestamp 213143000 us: [94 4F 00] channel 5: note On G5 velocity: 0
timestamp 213143000 us: [94 43 00] channel 5: note On G4 velocity: 0
timestamp 213143000 us: [96 40 5F] channel 7: note On E4 velocity: 95
timestamp 213243000 us: [92 4C 00] channel 3: note On E5 velocity: 0
timestamp 213253000 us: [93 48 00] channel 4: note On C5 velocity: 0
timestamp 213273000 us: [92 4F 00] channel 3: note On G5 velocity: 0
timestamp 213273000 us: [93 48 5F] channel 4: note On C5 velocity: 95
timestamp 213283000 us: [95 34 00] channel 6: note On E3 velocity: 0
timestamp 213283000 us: [92 54 00] channel 3: note On C6 velocity: 0
timestamp 213283000 us: [97 48 00] channel 8: note On C5 velocity: 0
timestamp 213393000 us: [96 37 00] channel 7: note On G3 velocity: 0
timestamp 213403000 us: [96 3C 00] channel 7: note On C4 velocity: 0
timestamp 213413000 us: [94 43 5D] channel 5: note On G4 velocity: 93
timestamp 213413000 us: [94 4F 6A] channel 5: note On G5 velocity: 106
timestamp 213413000 us: [96 40 00] channel 7: note On E4 velocity: 0
timestamp 213423000 us: [93 48 00] channel 4: note On C5 velocity: 0
timestamp 213433000 us: [93 47 61] channel 4: note On B4 velocity: 97
timestamp 213433000 us: [95 34 48] channel 6: note On E3 velocity: 72
timestamp 213433000 us: [96 37 52] channel 7: note On G3 velocity: 82
timestamp 213433000 us: [99 2A 2E] channel 10: note On F#2 velocity: 46
timestamp 213443000 us: [92 4C 43] channel 3: note On E5 velocity: 67
timestamp 213443000 us: [92 54 4A] channel 3: note On C6 velocity: 74
timestamp 213443000 us: [92 4F 46] channel 3: note On G5 velocity: 70
timestamp 213443000 us: [97 4A 5B] channel 8: note On D5 velocity: 91
timestamp 213443000 us: [99 2A 00] channel 10: note On F#2 velocity: 0
timestamp 213453000 us: [91 28 00] channel 2: note On E2 velocity: 0
timestamp 213523000 us: [92 4C 00] channel 3: note On E5 velocity: 0
timestamp 213523000 us: [92 54 00] channel 3: note On C6 velocity: 0
timestamp 213533000 us: [92 4F 00] channel 3: note On G5 velocity: 0
timestamp 213543000 us: [95 34 00] channel 6: note On E3 velocity: 0
timestamp 213583000 us: [96 37 00] channel 7: note On G3 velocity: 0
timestamp 213583000 us: [91 26 6A] channel 2: note On D2 velocity: 106
timestamp 213583000 us: [95 32 44] channel 6: note On D3 velocity: 68
timestamp 213593000 us: [96 37 58] channel 7: note On G3 velocity: 88
timestamp 213593000 us: [99 23 76] channel 10: note On B1 velocity: 118
timestamp 213593000 us: [99 2A 3E] channel 10: note On F#2 velocity: 62
timestamp 213593000 us: [99 2A 00] channel 10: note On F#2 velocity: 0
timestamp 213593000 us: [99 23 00] channel 10: note On B1 velocity: 0
timestamp 213593000 us: [92 4F 3A] channel 3: note On G5 velocity: 58
timestamp 213603000 us: [92 53 4C] channel 3: note On B5 velocity: 76
timestamp 213603000 us: [96 3B 54] channel 7: note On B3 velocity: 84
timestamp 213603000 us: [92 4A 3C] channel 3: note On D5 velocity: 60
timestamp 213623000 us: [96 3E 58] channel 7: note On D4 velocity: 88
timestamp 213693000 us: [92 4A 00] channel 3: note On D5 velocity: 0
timestamp 213733000 us: [95 32 00] channel 6: note On D3 velocity: 0
timestamp 213733000 us: [92 53 00] channel 3: note On B5 velocity: 0
timestamp 213753000 us: [92 4F 00] channel 3: note On G5 velocity: 0
timestamp 213813000 us: [93 47 00] channel 4: note On B4 velocity: 0
timestamp 213883000 us: [96 3E 00] channel 7: note On D4 velocity: 0
timestamp 213883000 us: [96 3B 00] channel 7: note On B3 velocity: 0
timestamp 213883000 us: [96 37 00] channel 7: note On G3 velocity: 0
timestamp 213893000 us: [95 32 48] channel 6: note On D3 velocity: 72
timestamp 213893000 us: [96 37 53] channel 7: note On G3 velocity: 83
timestamp 213903000 us: [98 4A 5A] channel 9: note On D5 velocity: 90
timestamp 213903000 us: [99 2A 2E] channel 10: note On F#2 velocity: 46
timestamp 213903000 us: [92 4A 43] channel 3: note On D5 velocity: 67
timestamp 213903000 us: [92 4F 41] channel 3: note On G5 velocity: 65
timestamp 213903000 us: [92 53 3F] channel 3: note On B5 velocity: 63
timestamp 213903000 us: [99 2A 00] channel 10: note On F#2 velocity: 0
timestamp 213913000 us: [98 4A 00] channel 9: note On D5 velocity: 0
timestamp 213973000 us: [92 53 00] channel 3: note On B5 velocity: 0
timestamp 213983000 us: [92 4A 00] channel 3: note On D5 velocity: 0
timestamp 213993000 us: [92 4F 00] channel 3: note On G5 velocity: 0
timestamp 214013000 us: [95 32 00] channel 6: note On D3 velocity: 0
timestamp 214053000 us: [95 32 46] channel 6: note On D3 velocity: 70
timestamp 214053000 us: [96 3B 60] channel 7: note On B3 velocity: 96
timestamp 214053000 us: [98 4C 5A] channel 9: note On E5 velocity: 90
timestamp 214053000 us: [99 23 76] channel 10: note On B1 velocity: 118
timestamp 214053000 us: [99 2A 52] channel 10: note On F#2 velocity: 82
timestamp 214063000 us: [99 28 65] channel 10: note On E2 velocity: 101
timestamp 214063000 us: [92 4F 4A] channel 3: note On G5 velocity: 74
timestamp 214063000 us: [92 4A 4A] channel 3: note On D5 velocity: 74
timestamp 214063000 us: [92 53 54] channel 3: note On B5 velocity: 84
timestamp 214063000 us: [99 2A 00] channel 10: note On F#2 velocity: 0
timestamp 214063000 us: [99 23 00] channel 10: note On B1 velocity: 0
timestamp 214073000 us: [99 28 00] channel 10: note On E2 velocity: 0
timestamp 214073000 us: [96 3E 5F] channel 7: note On D4 velocity: 95
timestamp 214163000 us: [92 4A 00] channel 3: note On D5 velocity: 0
timestamp 214173000 us: [92 4F 00] channel 3: note On G5 velocity: 0
timestamp 214203000 us: [92 53 00] channel 3: note On B5 velocity: 0
timestamp 214213000 us: [95 32 00] channel 6: note On D3 velocity: 0
timestamp 214273000 us: [97 4A 00] channel 8: note On D5 velocity: 0
timestamp 214323000 us: [96 37 00] channel 7: note On G3 velocity: 0
timestamp 214333000 us: [96 3B 00] channel 7: note On B3 velocity: 0
timestamp 214333000 us: [98 4C 00] channel 9: note On E5 velocity: 0
timestamp 214343000 us: [96 3E 00] channel 7: note On D4 velocity: 0
timestamp 214353000 us: [93 47 5A] channel 4: note On B4 velocity: 90
timestamp 214363000 us: [92 53 3E] channel 3: note On B5 velocity: 62
timestamp 214363000 us: [95 32 43] channel 6: note On D3 velocity: 67
timestamp 214363000 us: [96 37 52] channel 7: note On G3 velocity: 82
timestamp 214363000 us: [98 4F 59] channel 9: note On G5 velocity: 89
timestamp 214363000 us: [99 2A 2E] channel 10: note On F#2 velocity: 46
timestamp 214373000 us: [92 4F 2E] channel 3: note On G5 velocity: 46
timestamp 214373000 us: [92 4A 43] channel 3: note On D5 velocity: 67
timestamp 214373000 us: [99 2A 00] channel 10: note On F#2 velocity: 0
timestamp 214383000 us: [91 26 00] channel 2: note On D2 velocity: 0
timestamp 214443000 us: [92 4F 00] channel 3: note On G5 velocity: 0
timestamp 214443000 us: [92 4A 00] channel 3: note On D5 velocity: 0
timestamp 214453000 us: [92 53 00] channel 3: note On B5 velocity: 0
timestamp 214483000 us: [93 47 00] channel 4: note On B4 velocity: 0
timestamp 214493000 us: [95 32 00] channel 6: note On D3 velocity: 0
timestamp 214513000 us: [93 48 5F] channel 4: note On C5 velocity: 95
timestamp 214513000 us: [96 37 00] channel 7: note On G3 velocity: 0
timestamp 214513000 us: [91 24 6A] channel 2: note On C2 velocity: 106
timestamp 214523000 us: [95 30 4D] channel 6: note On C3 velocity: 77
timestamp 214523000 us: [96 37 58] channel 7: note On G3 velocity: 88
timestamp 214523000 us: [99 23 76] channel 10: note On B1 velocity: 118
timestamp 214523000 us: [99 2A 3E] channel 10: note On F#2 velocity: 62
timestamp 214523000 us: [92 54 4F] channel 3: note On C6 velocity: 79
timestamp 214533000 us: [92 4C 4F] channel 3: note On E5 velocity: 79
timestamp 214533000 us: [92 4F 4C] channel 3: note On G5 velocity: 76
timestamp 214533000 us: [99 2A 00] channel 10: note On F#2 velocity: 0
timestamp 214533000 us: [99 23 00] channel 10: note On B1 velocity: 0
timestamp 214543000 us: [96 3C 54] channel 7: note On C4 velocity: 84
timestamp 214553000 us: [96 40 58] channel 7: note On E4 velocity: 88
timestamp 214603000 us: [94 4F 00] channel 5: note On G5 velocity: 0
timestamp 214613000 us: [94 43 00] channel 5: note On G4 velocity: 0
timestamp 214613000 us: [98 4F 00] channel 9: note On G5 velocity: 0
timestamp 214653000 us: [92 4C 00] channel 3: note On E5 velocity: 0
timestamp 214653000 us: [92 54 00] channel 3: note On C6 velocity: 0
timestamp 214663000 us: [92 4F 00] channel 3: note On G5 velocity: 0
timestamp 214663000 us: [95 30 00] channel 6: note On C3 velocity: 0
timestamp 214753000 us: [93 48 00] channel 4: note On C5 velocity: 0
timestamp 214803000 us: [94 3E 5A] channel 5: note On D4 velocity: 90
timestamp 214813000 us: [94 4A 67] channel 5: note On D5 velocity: 103
timestamp 214813000 us: [96 40 00] channel 7: note On E4 velocity: 0
timestamp 214813000 us: [96 3C 00] channel 7: note On C4 velocity: 0
timestamp 214813000 us: [96 37 00] channel 7: note On G3 velocity: 0
timestamp 214823000 us: [93 48 62] channel 4: note On C5 velocity: 98
timestamp 214823000 us: [92 4C 3E] channel 3: note On E5 velocity: 62
timestamp 214823000 us: [92 4F 48] channel 3: note On G5 velocity: 72
timestamp 214833000 us: [92 54 4A] channel 3: note On C6 velocity: 74
timestamp 214833000 us: [95 30 4A] channel 6: note On C3 velocity: 74
timestamp 214833000 us: [96 37 53] channel 7: note On G3 velocity: 83
timestamp 214833000 us: [98 4A 5E] channel 9: note On D5 velocity: 94
timestamp 214833000 us: [99 2A 2E] channel 10: note On F#2 velocity: 46
timestamp 214843000 us: [99 2A 00] channel 10: note On F#2 velocity: 0
timestamp 214893000 us: [92 4C 00] channel 3: note On E5 velocity: 0
timestamp 214903000 us: [92 4F 00] channel 3: note On G5 velocity: 0
timestamp 214913000 us: [92 54 00] channel 3: note On C6 velocity: 0
timestamp 214933000 us: [95 30 00] channel 6: note On C3 velocity: 0
timestamp 214943000 us: [93 48 00] channel 4: note On C5 velocity: 0
timestamp 214953000 us: [98 4A 00] channel 9: note On D5 velocity: 0
timestamp 214963000 us: [94 4A 00] channel 5: note On D5 velocity: 0
timestamp 214963000 us: [94 3E 00] channel 5: note On D4 velocity: 0
timestamp 214963000 us: [94 40 5A] channel 5: note On E4 velocity: 90
timestamp 214963000 us: [94 4C 67] channel 5: note On E5 velocity: 103
timestamp 214983000 us: [95 30 48] channel 6: note On C3 velocity: 72
timestamp 214983000 us: [96 3C 60] channel 7: note On C4 velocity: 96
timestamp 214983000 us: [98 4C 5A] channel 9: note On E5 velocity: 90
timestamp 214983000 us: [99 23 76] channel 10: note On B1 velocity: 118
timestamp 214983000 us: [99 2A 52] channel 10: note On F#2 velocity: 82
timestamp 214993000 us: [93 48 61] channel 4: note On C5 velocity: 97
timestamp 214993000 us: [99 28 65] channel 10: note On E2 velocity: 101
timestamp 214993000 us: [92 4C 4C] channel 3: note On E5 velocity: 76
timestamp 214993000 us: [92 4F 3E] channel 3: note On G5 velocity: 62
timestamp 215003000 us: [92 54 4D] channel 3: note On C6 velocity: 77
timestamp 215003000 us: [99 2A 00] channel 10: note On F#2 velocity: 0
timestamp 215003000 us: [99 23 00] channel 10: note On B1 velocity: 0
timestamp 215003000 us: [99 28 00] channel 10: note On E2 velocity: 0
timestamp 215003000 us: [96 40 5F] channel 7: note On E4 velocity: 95
timestamp 215093000 us: [92 4C 00] channel 3: note On E5 velocity: 0
timestamp 215103000 us: [92 54 00] channel 3: note On C6 velocity: 0
timestamp 215123000 us: [92 4F 00] channel 3: note On G5 velocity: 0
timestamp 215143000 us: [95 30 00] channel 6: note On C3 velocity: 0
timestamp 215153000 us: [93 48 00] channel 4: note On C5 velocity: 0
timestamp 215253000 us: [96 37 00] channel 7: note On G3 velocity: 0
timestamp 215263000 us: [96 3C 00] channel 7: note On C4 velocity: 0
timestamp 215273000 us: [94 4C 00] channel 5: note On E5 velocity: 0
timestamp 215273000 us: [94 40 00] channel 5: note On E4 velocity: 0
timestamp 215273000 us: [94 43 5F] channel 5: note On G4 velocity: 95
timestamp 215273000 us: [94 4F 6C] channel 5: note On G5 velocity: 108
timestamp 215273000 us: [96 40 00] channel 7: note On E4 velocity: 0
timestamp 215283000 us: [98 4C 00] channel 9: note On E5 velocity: 0
timestamp 215283000 us: [93 48 61] channel 4: note On C5 velocity: 97
timestamp 215293000 us: [92 54 38] channel 3: note On C6 velocity: 56
timestamp 215293000 us: [95 30 41] channel 6: note On C3 velocity: 65
timestamp 215293000 us: [96 37 52] channel 7: note On G3 velocity: 82
timestamp 215293000 us: [98 4F 5A] channel 9: note On G5 velocity: 90
timestamp 215293000 us: [99 2A 2E] channel 10: note On F#2 velocity: 46
timestamp 215303000 us: [92 4C 2D] channel 3: note On E5 velocity: 45
timestamp 215303000 us: [92 4F 33] channel 3: note On G5 velocity: 51
timestamp 215303000 us: [99 2A 00] channel 10: note On F#2 velocity: 0
timestamp 215313000 us: [91 24 00] channel 2: note On C2 velocity: 0
timestamp 215363000 us: [92 4C 00] channel 3: note On E5 velocity: 0
timestamp 215363000 us: [92 54 00] channel 3: note On C6 velocity: 0
timestamp 215383000 us: [93 48 00] channel 4: note On C5 velocity: 0
timestamp 215403000 us: [92 4F 00] channel 3: note On G5 velocity: 0
timestamp 215423000 us: [95 30 00] channel 6: note On C3 velocity: 0
timestamp 215443000 us: [96 37 00] channel 7: note On G3 velocity: 0
timestamp 215443000 us: [91 23 6A] channel 2: note On B1 velocity: 106
timestamp 215443000 us: [93 48 64] channel 4: note On C5 velocity: 100
timestamp 215453000 us: [95 2F 41] channel 6: note On B2 velocity: 65
timestamp 215453000 us: [96 37 58] channel 7: note On G3 velocity: 88
timestamp 215453000 us: [99 23 76] channel 10: note On B1 velocity: 118
timestamp 215453000 us: [99 2A 3E] channel 10: note On F#2 velocity: 62
timestamp 215453000 us: [92 4F 3E] channel 3: note On G5 velocity: 62
timestamp 215463000 us: [92 53 4D] channel 3: note On B5 velocity: 77
timestamp 215463000 us: [99 2A 00] channel 10: note On F#2 velocity: 0
timestamp 215463000 us: [99 23 00] channel 10: note On B1 velocity: 0
timestamp 215463000 us: [92 4A 3E] channel 3: note On D5 velocity: 62
timestamp 215463000 us: [96 3B 54] channel 7: note On B3 velocity: 84
timestamp 215483000 us: [96 3E 58] channel 7: note On D4 velocity: 88
timestamp 215533000 us: [92 4A 00] channel 3: note On D5 velocity: 0
timestamp 215573000 us: [92 53 00] channel 3: note On B5 velocity: 0
timestamp 215573000 us: [95 2F 00] channel 6: note On B2 velocity: 0
timestamp 215583000 us: [92 4F 00] channel 3: note On G5 velocity: 0
timestamp 215733000 us: [93 48 00] channel 4: note On C5 velocity: 0
timestamp 215743000 us: [96 3E 00] channel 7: note On D4 velocity: 0
timestamp 215743000 us: [96 3B 00] channel 7: note On B3 velocity: 0
timestamp 215743000 us: [96 37 00] channel 7: note On G3 velocity: 0
timestamp 215743000 us: [97 4F 5F] channel 8: note On G5 velocity: 95
timestamp 215753000 us: [93 47 5B] channel 4: note On B4 velocity: 91
timestamp 215753000 us: [92 4A 2D] channel 3: note On D5 velocity: 45
timestamp 215753000 us: [92 4F 35] channel 3: note On G5 velocity: 53
timestamp 215763000 us: [95 2F 46] channel 6: note On B2 velocity: 70
timestamp 215763000 us: [96 37 53] channel 7: note On G3 velocity: 83
timestamp 215763000 us: [99 2A 2E] channel 10: note On F#2 velocity: 46
timestamp 215763000 us: [92 53 31] channel 3: note On B5 velocity: 49
timestamp 215763000 us: [99 2A 00] channel 10: note On F#2 velocity: 0
timestamp 215833000 us: [92 4A 00] channel 3: note On D5 velocity: 0
timestamp 215833000 us: [92 53 00] channel 3: note On B5 velocity: 0
timestamp 215843000 us: [97 4F 00] channel 8: note On G5 velocity: 0
timestamp 215853000 us: [92 4F 00] channel 3: note On G5 velocity: 0
timestamp 215873000 us: [95 2F 00] channel 6: note On B2 velocity: 0
timestamp 215903000 us: [97 4F 5A] channel 8: note On G5 velocity: 90
timestamp 215903000 us: [98 4F 00] channel 9: note On G5 velocity: 0
timestamp 215913000 us: [95 2F 4B] channel 6: note On B2 velocity: 75
timestamp 215913000 us: [96 3B 60] channel 7: note On B3 velocity: 96
timestamp 215913000 us: [99 23 76] channel 10: note On B1 velocity: 118
timestamp 215913000 us: [99 2A 52] channel 10: note On F#2 velocity: 82
timestamp 215913000 us: [99 28 65] channel 10: note On E2 velocity: 101
timestamp 215923000 us: [92 4A 48] channel 3: note On D5 velocity: 72
timestamp 215923000 us: [92 4F 3E] channel 3: note On G5 velocity: 62
timestamp 215923000 us: [92 53 48] channel 3: note On B5 velocity: 72
timestamp 215933000 us: [99 2A 00] channel 10: note On F#2 velocity: 0
timestamp 215933000 us: [99 23 00] channel 10: note On B1 velocity: 0
timestamp 215933000 us: [99 28 00] channel 10: note On E2 velocity: 0
timestamp 215933000 us: [96 3E 5F] channel 7: note On D4 velocity: 95
timestamp 216033000 us: [92 4F 00] channel 3: note On G5 velocity: 0
timestamp 216033000 us: [92 4A 00] channel 3: note On D5 velocity: 0
timestamp 216043000 us: [95 2F 00] channel 6: note On B2 velocity: 0
timestamp 216053000 us: [97 4F 00] channel 8: note On G5 velocity: 0
timestamp 216053000 us: [92 53 00] channel 3: note On B5 velocity: 0
timestamp 216093000 us: [93 47 00] channel 4: note On B4 velocity: 0
timestamp 216183000 us: [96 37 00] channel 7: note On G3 velocity: 0
timestamp 216193000 us: [96 3B 00] channel 7: note On B3 velocity: 0
timestamp 216203000 us: [97 4F 5D] channel 8: note On G5 velocity: 93
timestamp 216203000 us: [96 3E 00] channel 7: note On D4 velocity: 0
timestamp 216223000 us: [92 4A 2D] channel 3: note On D5 velocity: 45
timestamp 216223000 us: [93 43 5D] channel 4: note On G4 velocity: 93
timestamp 216223000 us: [95 2F 46] channel 6: note On B2 velocity: 70
timestamp 216223000 us: [96 37 52] channel 7: note On G3 velocity: 82
timestamp 216223000 us: [99 2A 2E] channel 10: note On F#2 velocity: 46
timestamp 216233000 us: [92 4F 3A] channel 3: note On G5 velocity: 58
timestamp 216233000 us: [92 53 3F] channel 3: note On B5 velocity: 63
timestamp 216233000 us: [99 2A 00] channel 10: note On F#2 velocity: 0
timestamp 216243000 us: [91 23 00] channel 2: note On B1 velocity: 0
timestamp 216263000 us: [94 4F 00] channel 5: note On G5 velocity: 0
timestamp 216263000 us: [94 43 00] channel 5: note On G4 velocity: 0
timestamp 216303000 us: [92 4A 00] channel 3: note On D5 velocity: 0
timestamp 216303000 us: [92 53 00] channel 3: note On B5 velocity: 0
timestamp 216303000 us: [97 4F 00] channel 8: note On G5 velocity: 0
timestamp 216313000 us: [93 43 00] channel 4: note On G4 velocity: 0
timestamp 216323000 us: [92 4F 00] channel 3: note On G5 velocity: 0
timestamp 216343000 us: [95 2F 00] channel 6: note On B2 velocity: 0
timestamp 216353000 us: [94 45 5E] channel 5: note On A4 velocity: 94
timestamp 216363000 us: [94 51 6B] channel 5: note On A5 velocity: 107
timestamp 216363000 us: [97 4F 5D] channel 8: note On G5 velocity: 93
timestamp 216373000 us: [96 37 00] channel 7: note On G3 velocity: 0
timestamp 216373000 us: [91 21 6A] channel 2: note On A1 velocity: 106
timestamp 216383000 us: [93 45 54] channel 4: note On A4 velocity: 84
timestamp 216383000 us: [95 2D 48] channel 6: note On A2 velocity: 72
timestamp 216383000 us: [96 34 58] channel 7: note On E3 velocity: 88
timestamp 216383000 us: [98 51 5C] channel 9: note On A5 velocity: 92
timestamp 216383000 us: [99 23 76] channel 10: note On B1 velocity: 118
timestamp 216383000 us: [99 2A 3E] channel 10: note On F#2 velocity: 62
timestamp 216393000 us: [92 55 4F] channel 3: note On C#6 velocity: 79
timestamp 216393000 us: [92 4C 46] channel 3: note On E5 velocity: 70
timestamp 216393000 us: [92 51 43] channel 3: note On A5 velocity: 67
timestamp 216393000 us: [99 2A 00] channel 10: note On F#2 velocity: 0
timestamp 216393000 us: [99 23 00] channel 10: note On B1 velocity: 0
timestamp 216393000 us: [96 39 54] channel 7: note On A3 velocity: 84
timestamp 216413000 us: [96 3D 58] channel 7: note On C#4 velocity: 88
timestamp 216483000 us: [92 51 00] channel 3: note On A5 velocity: 0
timestamp 216503000 us: [95 2D 00] channel 6: note On A2 velocity: 0
timestamp 216503000 us: [92 4C 00] channel 3: note On E5 velocity: 0
timestamp 216513000 us: [92 55 00] channel 3: note On C#6 velocity: 0
timestamp 216593000 us: [97 4F 00] channel 8: note On G5 velocity: 0
timestamp 216613000 us: [98 51 00] channel 9: note On A5 velocity: 0
timestamp 216623000 us: [93 45 00] channel 4: note On A4 velocity: 0
timestamp 216643000 us: [94 51 00] channel 5: note On A5 velocity: 0
timestamp 216653000 us: [94 45 00] channel 5: note On A4 velocity: 0
timestamp 216663000 us: [97 4A 5F] channel 8: note On D5 velocity: 95
timestamp 216663000 us: [94 45 5C] channel 5: note On A4 velocity: 92
timestamp 216673000 us: [94 51 69] channel 5: note On A5 velocity: 105
timestamp 216673000 us: [96 3D 00] channel 7: note On C#4 velocity: 0
timestamp 216673000 us: [96 39 00] channel 7: note On A3 velocity: 0
timestamp 216673000 us: [96 34 00] channel 7: note On E3 velocity: 0
timestamp 216683000 us: [92 55 4C] channel 3: note On C#6 velocity: 76
timestamp 216683000 us: [93 45 50] channel 4: note On A4 velocity: 80
timestamp 216683000 us: [92 4C 48] channel 3: note On E5 velocity: 72
timestamp 216683000 us: [92 51 4D] channel 3: note On A5 velocity: 77
timestamp 216693000 us: [95 2D 4A] channel 6: note On A2 velocity: 74
timestamp 216693000 us: [96 34 53] channel 7: note On E3 velocity: 83
timestamp 216693000 us: [98 51 58] channel 9: note On A5 velocity: 88
timestamp 216693000 us: [99 2A 2E] channel 10: note On F#2 velocity: 46
timestamp 216703000 us: [99 2A 00] channel 10: note On F#2 velocity: 0
timestamp 216783000 us: [92 51 00] channel 3: note On A5 velocity: 0
timestamp 216783000 us: [92 4C 00] channel 3: note On E5 velocity: 0
timestamp 216783000 us: [92 55 00] channel 3: note On C#6 velocity: 0
timestamp 216793000 us: [95 2D 00] channel 6: note On A2 velocity: 0
timestamp 216823000 us: [98 51 00] channel 9: note On A5 velocity: 0
timestamp 216833000 us: [94 51 00] channel 5: note On A5 velocity: 0
timestamp 216833000 us: [94 45 00] channel 5: note On A4 velocity: 0
timestamp 216833000 us: [93 45 00] channel 4: note On A4 velocity: 0
timestamp 216833000 us: [93 45 5A] channel 4: note On A4 velocity: 90
timestamp 216843000 us: [92 4C 48] channel 3: note On E5 velocity: 72
timestamp 216843000 us: [92 55 45] channel 3: note On C#6 velocity: 69
timestamp 216843000 us: [95 2D 44] channel 6: note On A2 velocity: 68
timestamp 216843000 us: [96 39 60] channel 7: note On A3 velocity: 96
timestamp 216853000 us: [99 23 76] channel 10: note On B1 velocity: 118
timestamp 216853000 us: [99 2A 52] channel 10: note On F#2 velocity: 82
timestamp 216853000 us: [92 51 43] channel 3: note On A5 velocity: 67
timestamp 216853000 us: [99 28 65] channel 10: note On E2 velocity: 101
timestamp 216853000 us: [99 2A 00] channel 10: note On F#2 velocity: 0
timestamp 216853000 us: [99 23 00] channel 10: note On B1 velocity: 0
timestamp 216853000 us: [99 28 00] channel 10: note On E2 velocity: 0
timestamp 216863000 us: [96 3D 5F] channel 7: note On C#4 velocity: 95
timestamp 216923000 us: [97 4A 00] channel 8: note On D5 velocity: 0
timestamp 216943000 us: [92 51 00] channel 3: note On A5 velocity: 0
timestamp 216943000 us: [92 4C 00] channel 3: note On E5 velocity: 0
timestamp 216953000 us: [92 55 00] channel 3: note On C#6 velocity: 0
timestamp 216983000 us: [95 2D 00] channel 6: note On A2 velocity: 0
timestamp 217013000 us: [93 45 00] channel 4: note On A4 velocity: 0
timestamp 217113000 us: [96 34 00] channel 7: note On E3 velocity: 0
timestamp 217123000 us: [96 39 00] channel 7: note On A3 velocity: 0
timestamp 217123000 us: [97 4A 5D] channel 8: note On D5 velocity: 93
timestamp 217133000 us: [94 45 5C] channel 5: note On A4 velocity: 92
timestamp 217133000 us: [94 51 69] channel 5: note On A5 velocity: 105
timestamp 217133000 us: [96 3D 00] channel 7: note On C#4 velocity: 0
timestamp 217143000 us: [92 55 45] channel 3: note On C#6 velocity: 69
timestamp 217143000 us: [92 4C 3A] channel 3: note On E5 velocity: 58
timestamp 217153000 us: [92 51 4C] channel 3: note On A5 velocity: 76
timestamp 217153000 us: [93 47 56] channel 4: note On B4 velocity: 86
timestamp 217153000 us: [95 2D 46] channel 6: note On A2 velocity: 70
timestamp 217153000 us: [96 34 52] channel 7: note On E3 velocity: 82
timestamp 217153000 us: [98 51 5E] channel 9: note On A5 velocity: 94
timestamp 217153000 us: [99 2A 2E] channel 10: note On F#2 velocity: 46
timestamp 217163000 us: [99 2A 00] channel 10: note On F#2 velocity: 0
timestamp 217173000 us: [91 21 00] channel 2: note On A1 velocity: 0
timestamp 217203000 us: [92 4C 00] channel 3: note On E5 velocity: 0
timestamp 217223000 us: [92 55 00] channel 3: note On C#6 velocity: 0
timestamp 217223000 us: [92 51 00] channel 3: note On A5 velocity: 0
timestamp 217263000 us: [95 2D 00] channel 6: note On A2 velocity: 0
timestamp 217283000 us: [93 47 00] channel 4: note On B4 velocity: 0
timestamp 217303000 us: [93 45 62] channel 4: note On A4 velocity: 98
timestamp 217303000 us: [92 56 4F] channel 3: note On D6 velocity: 79
timestamp 217303000 us: [96 34 00] channel 7: note On E3 velocity: 0
timestamp 217303000 us: [91 26 6A] channel 2: note On D2 velocity: 106
timestamp 217313000 us: [92 4E 48] channel 3: note On F#5 velocity: 72
timestamp 217313000 us: [92 51 3A] channel 3: note On A5 velocity: 58
timestamp 217313000 us: [95 32 4F] channel 6: note On D3 velocity: 79
timestamp 217313000 us: [96 36 58] channel 7: note On F#3 velocity: 88
timestamp 217313000 us: [99 23 76] channel 10: note On B1 velocity: 118
timestamp 217313000 us: [99 2A 3E] channel 10: note On F#2 velocity: 62
timestamp 217323000 us: [99 2A 00] channel 10: note On F#2 velocity: 0
timestamp 217323000 us: [99 23 00] channel 10: note On B1 velocity: 0
timestamp 217323000 us: [96 39 54] channel 7: note On A3 velocity: 84
timestamp 217343000 us: [96 3E 58] channel 7: note On D4 velocity: 88
timestamp 217353000 us: [94 51 00] channel 5: note On A5 velocity: 0
timestamp 217353000 us: [94 45 00] channel 5: note On A4 velocity: 0
timestamp 217433000 us: [92 56 00] channel 3: note On D6 velocity: 0
timestamp 217433000 us: [92 51 00] channel 3: note On A5 velocity: 0
timestamp 217443000 us: [92 4E 00] channel 3: note On F#5 velocity: 0
timestamp 217463000 us: [95 32 00] channel 6: note On D3 velocity: 0
timestamp 217583000 us: [93 45 00] channel 4: note On A4 velocity: 0
timestamp 217593000 us: [94 48 72] channel 5: note On C5 velocity: 114
timestamp 217603000 us: [94 54 6C] channel 5: note On C6 velocity: 108
timestamp 217603000 us: [93 4A 62] channel 4: note On D5 velocity: 98
timestamp 217603000 us: [96 3E 00] channel 7: note On D4 velocity: 0
timestamp 217603000 us: [96 39 00] channel 7: note On A3 velocity: 0
timestamp 217613000 us: [96 36 00] channel 7: note On F#3 velocity: 0
timestamp 217613000 us: [92 51 43] channel 3: note On A5 velocity: 67
timestamp 217613000 us: [92 56 48] channel 3: note On D6 velocity: 72
timestamp 217613000 us: [92 4E 3F] channel 3: note On F#5 velocity: 63
timestamp 217623000 us: [95 32 48] channel 6: note On D3 velocity: 72
timestamp 217623000 us: [96 36 53] channel 7: note On F#3 velocity: 83
timestamp 217623000 us: [99 2A 41] channel 10: note On F#2 velocity: 65
timestamp 217623000 us: [99 28 65] channel 10: note On E2 velocity: 101
timestamp 217623000 us: [99 2A 00] channel 10: note On F#2 velocity: 0
timestamp 217623000 us: [99 28 00] channel 10: note On E2 velocity: 0
timestamp 217683000 us: [92 4E 00] channel 3: note On F#5 velocity: 0
timestamp 217683000 us: [92 51 00] channel 3: note On A5 velocity: 0
timestamp 217683000 us: [92 56 00] channel 3: note On D6 velocity: 0
timestamp 217693000 us: [94 54 00] channel 5: note On C6 velocity: 0
timestamp 217693000 us: [94 48 00] channel 5: note On C5 velocity: 0
timestamp 217733000 us: [95 32 00] channel 6: note On D3 velocity: 0
timestamp 217753000 us: [94 4A 6E] channel 5: note On D5 velocity: 110
timestamp 217753000 us: [94 56 6B] channel 5: note On D6 velocity: 107
timestamp 217763000 us: [92 56 38] channel 3: note On D6 velocity: 56
timestamp 217763000 us: [92 4E 3E] channel 3: note On F#5 velocity: 62
timestamp 217773000 us: [92 51 45] channel 3: note On A5 velocity: 69
timestamp 217773000 us: [95 32 48] channel 6: note On D3 velocity: 72
timestamp 217773000 us: [96 39 60] channel 7: note On A3 velocity: 96
timestamp 217773000 us: [99 23 76] channel 10: note On B1 velocity: 118
timestamp 217783000 us: [99 2A 47] channel 10: note On F#2 velocity: 71
timestamp 217783000 us: [99 28 55] channel 10: note On E2 velocity: 85
timestamp 217783000 us: [99 2A 00] channel 10: note On F#2 velocity: 0
timestamp 217783000 us: [99 23 00] channel 10: note On B1 velocity: 0
timestamp 217783000 us: [98 51 00] channel 9: note On A5 velocity: 0
timestamp 217783000 us: [99 28 00] channel 10: note On E2 velocity: 0
timestamp 217793000 us: [96 3E 5F] channel 7: note On D4 velocity: 95
timestamp 217853000 us: [94 4A 00] channel 5: note On D5 velocity: 0
timestamp 217853000 us: [94 56 00] channel 5: note On D6 velocity: 0
timestamp 217863000 us: [92 51 00] channel 3: note On A5 velocity: 0
timestamp 217873000 us: [92 4E 00] channel 3: note On F#5 velocity: 0
timestamp 217883000 us: [92 56 00] channel 3: note On D6 velocity: 0
timestamp 217903000 us: [94 48 70] channel 5: note On C5 velocity: 112
timestamp 217913000 us: [94 54 57] channel 5: note On C6 velocity: 87
timestamp 217923000 us: [95 32 00] channel 6: note On D3 velocity: 0
timestamp 217973000 us: [97 4A 00] channel 8: note On D5 velocity: 0
timestamp 217993000 us: [94 48 00] channel 5: note On C5 velocity: 0
timestamp 218013000 us: [94 54 00] channel 5: note On C6 velocity: 0
timestamp 218043000 us: [96 36 00] channel 7: note On F#3 velocity: 0
timestamp 218053000 us: [96 39 00] channel 7: note On A3 velocity: 0
timestamp 218063000 us: [92 56 46] channel 3: note On D6 velocity: 70
timestamp 218063000 us: [94 45 6E] channel 5: note On A4 velocity: 110
timestamp 218063000 us: [94 51 6A] channel 5: note On A5 velocity: 106
timestamp 218063000 us: [96 3E 00] channel 7: note On D4 velocity: 0
timestamp 218073000 us: [92 4E 3E] channel 3: note On F#5 velocity: 62
timestamp 218073000 us: [92 51 4A] channel 3: note On A5 velocity: 74
timestamp 218083000 us: [95 32 41] channel 6: note On D3 velocity: 65
timestamp 218083000 us: [96 36 52] channel 7: note On F#3 velocity: 82
timestamp 218083000 us: [99 28 51] channel 10: note On E2 velocity: 81
timestamp 218093000 us: [99 28 00] channel 10: note On E2 velocity: 0
timestamp 218103000 us: [91 26 00] channel 2: note On D2 velocity: 0
timestamp 218153000 us: [94 45 00] channel 5: note On A4 velocity: 0
timestamp 218163000 us: [92 51 00] channel 3: note On A5 velocity: 0
timestamp 218163000 us: [94 51 00] channel 5: note On A5 velocity: 0
timestamp 218163000 us: [92 4E 00] channel 3: note On F#5 velocity: 0
timestamp 218173000 us: [92 56 00] channel 3: note On D6 velocity: 0
timestamp 218193000 us: [95 32 00] channel 6: note On D3 velocity: 0
timestamp 218193000 us: [93 4A 00] channel 4: note On D5 velocity: 0
timestamp 218233000 us: [96 36 00] channel 7: note On F#3 velocity: 0
timestamp 218243000 us: [91 2B 6A] channel 2: note On G2 velocity: 106
timestamp 218243000 us: [93 47 61] channel 4: note On B4 velocity: 97
timestamp 218243000 us: [95 37 4D] channel 6: note On G3 velocity: 77
timestamp 218243000 us: [96 37 58] channel 7: note On G3 velocity: 88
timestamp 218243000 us: [99 23 76] channel 10: note On B1 velocity: 118
timestamp 218243000 us: [99 31 4A] channel 10: note On C#3 velocity: 74
timestamp 218253000 us: [92 4F 45] channel 3: note On G5 velocity: 69
timestamp 218253000 us: [92 53 45] channel 3: note On B5 velocity: 69
timestamp 218253000 us: [92 56 43] channel 3: note On D6 velocity: 67
timestamp 218253000 us: [99 31 00] channel 10: note On C#3 velocity: 0
timestamp 218253000 us: [99 23 00] channel 10: note On B1 velocity: 0
timestamp 218263000 us: [96 3B 54] channel 7: note On B3 velocity: 84
timestamp 218273000 us: [96 3E 58] channel 7: note On D4 velocity: 88
timestamp 218343000 us: [95 37 00] channel 6: note On G3 velocity: 0
timestamp 218373000 us: [92 56 00] channel 3: note On D6 velocity: 0
timestamp 218393000 us: [92 53 00] channel 3: note On B5 velocity: 0
timestamp 218393000 us: [92 4F 00] channel 3: note On G5 velocity: 0
timestamp 218453000 us: [93 47 00] channel 4: note On B4 velocity: 0
timestamp 218533000 us: [96 3E 00] channel 7: note On D4 velocity: 0
timestamp 218533000 us: [96 3B 00] channel 7: note On B3 velocity: 0
timestamp 218533000 us: [96 37 00] channel 7: note On G3 velocity: 0
timestamp 218543000 us: [93 4A 62] channel 4: note On D5 velocity: 98
timestamp 218553000 us: [95 37 4A] channel 6: note On G3 velocity: 74
timestamp 218553000 us: [96 37 53] channel 7: note On G3 velocity: 83
timestamp 218553000 us: [99 2A 2E] channel 10: note On F#2 velocity: 46
timestamp 218553000 us: [92 4F 3F] channel 3: note On G5 velocity: 63
timestamp 218553000 us: [92 53 48] channel 3: note On B5 velocity: 72
timestamp 218553000 us: [92 56 3E] channel 3: note On D6 velocity: 62
timestamp 218563000 us: [99 2A 00] channel 10: note On F#2 velocity: 0
timestamp 218643000 us: [92 53 00] channel 3: note On B5 velocity: 0
timestamp 218643000 us: [92 4F 00] channel 3: note On G5 velocity: 0
timestamp 218643000 us: [92 56 00] channel 3: note On D6 velocity: 0
timestamp 218643000 us: [93 4A 00] channel 4: note On D5 velocity: 0
timestamp 218643000 us: [95 37 00] channel 6: note On G3 velocity: 0
timestamp 218683000 us: [94 4A 5F] channel 5: note On D5 velocity: 95
timestamp 218683000 us: [94 56 6C] channel 5: note On D6 velocity: 108
timestamp 218703000 us: [93 4A 5A] channel 4: note On D5 velocity: 90
timestamp 218703000 us: [95 37 4D] channel 6: note On G3 velocity: 77
timestamp 218703000 us: [96 3B 60] channel 7: note On B3 velocity: 96
timestamp 218703000 us: [99 23 76] channel 10: note On B1 velocity: 118
timestamp 218713000 us: [99 2A 52] channel 10: note On F#2 velocity: 82
timestamp 218713000 us: [99 28 65] channel 10: note On E2 velocity: 101
timestamp 218713000 us: [92 56 3F] channel 3: note On D6 velocity: 63
timestamp 218713000 us: [92 4F 31] channel 3: note On G5 velocity: 49
timestamp 218713000 us: [92 53 4C] channel 3: note On B5 velocity: 76
timestamp 218723000 us: [99 2A 00] channel 10: note On F#2 velocity: 0
timestamp 218723000 us: [99 23 00] channel 10: note On B1 velocity: 0
timestamp 218723000 us: [99 28 00] channel 10: note On E2 velocity: 0
timestamp 218733000 us: [96 3E 5F] channel 7: note On D4 velocity: 95
timestamp 218833000 us: [92 53 00] channel 3: note On B5 velocity: 0
timestamp 218843000 us: [92 4F 00] channel 3: note On G5 velocity: 0
timestamp 218843000 us: [92 56 00] channel 3: note On D6 velocity: 0
timestamp 218863000 us: [95 37 00] channel 6: note On G3 velocity: 0
timestamp 218863000 us: [93 4A 00] channel 4: note On D5 velocity: 0
timestamp 218973000 us: [96 37 00] channel 7: note On G3 velocity: 0
timestamp 218983000 us: [96 3B 00] channel 7: note On B3 velocity: 0
timestamp 218993000 us: [96 3E 00] channel 7: note On D4 velocity: 0
timestamp 219003000 us: [93 4A 5F] channel 4: note On D5 velocity: 95
timestamp 219013000 us: [95 37 43] channel 6: note On G3 velocity: 67
timestamp 219013000 us: [96 37 52] channel 7: note On G3 velocity: 82
timestamp 219013000 us: [99 2A 2E] channel 10: note On F#2 velocity: 46
timestamp 219013000 us: [92 4F 3A] channel 3: note On G5 velocity: 58
timestamp 219023000 us: [92 56 3E] channel 3: note On D6 velocity: 62
timestamp 219023000 us: [92 53 45] channel 3: note On B5 velocity: 69
timestamp 219023000 us: [99 2A 00] channel 10: note On F#2 velocity: 0
timestamp 219033000 us: [91 2B 00] channel 2: note On G2 velocity: 0
timestamp 219083000 us: [92 56 00] channel 3: note On D6 velocity: 0
timestamp 219083000 us: [92 4F 00] channel 3: note On G5 velocity: 0
timestamp 219093000 us: [92 53 00] channel 3: note On B5 velocity: 0
timestamp 219123000 us: [93 4A 00] channel 4: note On D5 velocity: 0
timestamp 219133000 us: [95 37 00] channel 6: note On G3 velocity: 0
timestamp 219163000 us: [96 37 00] channel 7: note On G3 velocity: 0
timestamp 219163000 us: [91 2A 6A] channel 2: note On F#2 velocity: 106
timestamp 219173000 us: [95 36 4F] channel 6: note On F#3 velocity: 79
timestamp 219173000 us: [96 36 58] channel 7: note On F#3 velocity: 88
timestamp 219173000 us: [99 23 76] channel 10: note On B1 velocity: 118
timestamp 219173000 us: [99 2A 3E] channel 10: note On F#2 velocity: 62
timestamp 219173000 us: [93 4C 5F] channel 4: note On E5 velocity: 95
timestamp 219183000 us: [92 56 4A] channel 3: note On D6 velocity: 74
timestamp 219183000 us: [92 51 45] channel 3: note On A5 velocity: 69
timestamp 219183000 us: [99 2A 00] channel 10: note On F#2 velocity: 0
timestamp 219183000 us: [99 23 00] channel 10: note On B1 velocity: 0
timestamp 219183000 us: [92 4E 43] channel 3: note On F#5 velocity: 67
timestamp 219183000 us: [96 39 54] channel 7: note On A3 velocity: 84
timestamp 219203000 us: [96 3E 58] channel 7: note On D4 velocity: 88
timestamp 219303000 us: [92 4E 00] channel 3: note On F#5 velocity: 0
timestamp 219303000 us: [92 56 00] channel 3: note On D6 velocity: 0
timestamp 219313000 us: [92 51 00] channel 3: note On A5 velocity: 0
timestamp 219323000 us: [95 36 00] channel 6: note On F#3 velocity: 0
timestamp 219443000 us: [93 4C 00] channel 4: note On E5 velocity: 0
timestamp 219463000 us: [96 3E 00] channel 7: note On D4 velocity: 0
timestamp 219463000 us: [96 39 00] channel 7: note On A3 velocity: 0
timestamp 219463000 us: [96 36 00] channel 7: note On F#3 velocity: 0
timestamp 219473000 us: [92 4E 3F] channel 3: note On F#5 velocity: 63
timestamp 219473000 us: [93 4A 5B] channel 4: note On D5 velocity: 91
timestamp 219473000 us: [92 51 43] channel 3: note On A5 velocity: 67
timestamp 219483000 us: [92 56 41] channel 3: note On D6 velocity: 65
timestamp 219483000 us: [95 36 4A] channel 6: note On F#3 velocity: 74
timestamp 219483000 us: [96 36 53] channel 7: note On F#3 velocity: 83
timestamp 219483000 us: [99 2A 2E] channel 10: note On F#2 velocity: 46
timestamp 219483000 us: [97 4A 5C] channel 8: note On D5 velocity: 92
timestamp 219483000 us: [99 2A 00] channel 10: note On F#2 velocity: 0
timestamp 219543000 us: [92 51 00] channel 3: note On A5 velocity: 0
timestamp 219553000 us: [92 56 00] channel 3: note On D6 velocity: 0
timestamp 219563000 us: [92 4E 00] channel 3: note On F#5 velocity: 0
timestamp 219573000 us: [97 4A 00] channel 8: note On D5 velocity: 0
timestamp 219583000 us: [95 36 00] channel 6: note On F#3 velocity: 0
timestamp 219633000 us: [95 36 52] channel 6: note On F#3 velocity: 82
timestamp 219633000 us: [96 39 60] channel 7: note On A3 velocity: 96
timestamp 219633000 us: [99 23 76] channel 10: note On B1 velocity: 118
timestamp 219633000 us: [99 2A 52] channel 10: note On F#2 velocity: 82
timestamp 219643000 us: [92 4E 41] channel 3: note On F#5 velocity: 65
timestamp 219643000 us: [92 56 4A] channel 3: note On D6 velocity: 74
timestamp 219643000 us: [99 28 65] channel 10: note On E2 velocity: 101
timestamp 219653000 us: [92 51 4A] channel 3: note On A5 velocity: 74
timestamp 219653000 us: [99 2A 00] channel 10: note On F#2 velocity: 0
timestamp 219653000 us: [99 23 00] channel 10: note On B1 velocity: 0
timestamp 219653000 us: [97 4A 5C] channel 8: note On D5 velocity: 92
timestamp 219653000 us: [99 28 00] channel 10: note On E2 velocity: 0
timestamp 219653000 us: [96 3E 5F] channel 7: note On D4 velocity: 95
timestamp 219743000 us: [92 51 00] channel 3: note On A5 velocity: 0
timestamp 219753000 us: [92 4E 00] channel 3: note On F#5 velocity: 0
timestamp 219773000 us: [95 36 00] channel 6: note On F#3 velocity: 0
timestamp 219783000 us: [92 56 00] channel 3: note On D6 velocity: 0
timestamp 219783000 us: [97 4A 00] channel 8: note On D5 velocity: 0
timestamp 219903000 us: [96 36 00] channel 7: note On F#3 velocity: 0
timestamp 219913000 us: [96 39 00] channel 7: note On A3 velocity: 0
timestamp 219923000 us: [96 3E 00] channel 7: note On D4 velocity: 0
timestamp 219923000 us: [93 4A 00] channel 4: note On D5 velocity: 0
timestamp 219933000 us: [92 4E 3F] channel 3: note On F#5 velocity: 63
timestamp 219943000 us: [92 56 37] channel 3: note On D6 velocity: 55
timestamp 219943000 us: [92 51 3A] channel 3: note On A5 velocity: 58
timestamp 219943000 us: [95 36 48] channel 6: note On F#3 velocity: 72
timestamp 219943000 us: [96 36 52] channel 7: note On F#3 velocity: 82
timestamp 219943000 us: [99 2A 2E] channel 10: note On F#2 velocity: 46
timestamp 219953000 us: [97 4A 5C] channel 8: note On D5 velocity: 92
timestamp 219953000 us: [99 2A 00] channel 10: note On F#2 velocity: 0
timestamp 219953000 us: [93 4A 4F] channel 4: note On D5 velocity: 79
timestamp 219963000 us: [91 2A 00] channel 2: note On F#2 velocity: 0
timestamp 219993000 us: [92 51 00] channel 3: note On A5 velocity: 0
timestamp 220033000 us: [92 4E 00] channel 3: note On F#5 velocity: 0
timestamp 220033000 us: [95 36 00] channel 6: note On F#3 velocity: 0
timestamp 220043000 us: [94 56 00] channel 5: note On D6 velocity: 0
timestamp 220043000 us: [94 4A 00] channel 5: note On D5 velocity: 0
timestamp 220043000 us: [92 56 00] channel 3: note On D6 velocity: 0
timestamp 220053000 us: [97 4A 00] channel 8: note On D5 velocity: 0
timestamp 220083000 us: [94 47 5C] channel 5: note On B4 velocity: 92
timestamp 220083000 us: [94 53 69] channel 5: note On B5 velocity: 105
timestamp 220093000 us: [96 36 00] channel 7: note On F#3 velocity: 0
timestamp 220093000 us: [91 28 6A] channel 2: note On E2 velocity: 106
timestamp 220103000 us: [95 34 4B] channel 6: note On E3 velocity: 75
timestamp 220103000 us: [96 37 58] channel 7: note On G3 velocity: 88
timestamp 220103000 us: [99 23 76] channel 10: note On B1 velocity: 118
timestamp 220103000 us: [99 2A 3E] channel 10: note On F#2 velocity: 62
timestamp 220103000 us: [93 4A 00] channel 4: note On D5 velocity: 0
timestamp 220113000 us: [92 4F 46] channel 3: note On G5 velocity: 70
timestamp 220113000 us: [93 48 64] channel 4: note On C5 velocity: 100
timestamp 220113000 us: [99 2A 00] channel 10: note On F#2 velocity: 0
timestamp 220113000 us: [99 23 00] channel 10: note On B1 velocity: 0
timestamp 220113000 us: [92 54 3E] channel 3: note On C6 velocity: 62
timestamp 220113000 us: [92 4C 41] channel 3: note On E5 velocity: 65
timestamp 220113000 us: [96 3C 54] channel 7: note On C4 velocity: 84
timestamp 220123000 us: [97 4C 5D] channel 8: note On E5 velocity: 93
timestamp 220133000 us: [96 40 58] channel 7: note On E4 velocity: 88
timestamp 220223000 us: [92 4C 00] channel 3: note On E5 velocity: 0
timestamp 220243000 us: [92 54 00] channel 3: note On C6 velocity: 0
timestamp 220253000 us: [95 34 00] channel 6: note On E3 velocity: 0
timestamp 220263000 us: [92 4F 00] channel 3: note On G5 velocity: 0
timestamp 220303000 us: [93 48 00] channel 4: note On C5 velocity: 0
timestamp 220373000 us: [94 53 00] channel 5: note On B5 velocity: 0
timestamp 220373000 us: [94 47 00] channel 5: note On B4 velocity: 0
timestamp 220373000 us: [97 4C 00] channel 8: note On E5 velocity: 0
timestamp 220393000 us: [94 43 5D] channel 5: note On G4 velocity: 93
timestamp 220393000 us: [94 4F 6A] channel 5: note On G5 velocity: 106
timestamp 220393000 us: [96 40 00] channel 7: note On E4 velocity: 0
timestamp 220393000 us: [96 3C 00] channel 7: note On C4 velocity: 0
timestamp 220393000 us: [96 37 00] channel 7: note On G3 velocity: 0
timestamp 220403000 us: [95 34 4A] channel 6: note On E3 velocity: 74
timestamp 220413000 us: [96 37 53] channel 7: note On G3 velocity: 83
timestamp 220413000 us: [99 2A 2E] channel 10: note On F#2 velocity: 46
timestamp 220413000 us: [93 48 58] channel 4: note On C5 velocity: 88
timestamp 220413000 us: [92 54 48] channel 3: note On C6 velocity: 72
timestamp 220413000 us: [92 4C 37] channel 3: note On E5 velocity: 55
timestamp 220413000 us: [92 4F 3F] channel 3: note On G5 velocity: 63
timestamp 220423000 us: [99 2A 00] channel 10: note On F#2 velocity: 0
timestamp 220423000 us: [97 48 60] channel 8: note On C5 velocity: 96
timestamp 220473000 us: [92 4C 00] channel 3: note On E5 velocity: 0
timestamp 220513000 us: [95 34 00] channel 6: note On E3 velocity: 0
timestamp 220513000 us: [92 54 00] channel 3: note On C6 velocity: 0
timestamp 220513000 us: [92 4F 00] channel 3: note On G5 velocity: 0
timestamp 220523000 us: [93 48 00] channel 4: note On C5 velocity: 0
timestamp 220563000 us: [95 34 48] channel 6: note On E3 velocity: 72
timestamp 220563000 us: [96 3C 60] channel 7: note On C4 velocity: 96
timestamp 220563000 us: [99 23 76] channel 10: note On B1 velocity: 118
timestamp 220563000 us: [99 2A 52] channel 10: note On F#2 velocity: 82
timestamp 220573000 us: [99 28 65] channel 10: note On E2 velocity: 101
timestamp 220573000 us: [93 48 5D] channel 4: note On C5 velocity: 93
timestamp 220573000 us: [99 2A 00] channel 10: note On F#2 velocity: 0
timestamp 220573000 us: [99 23 00] channel 10: note On B1 velocity: 0
timestamp 220573000 us: [92 4C 4D] channel 3: note On E5 velocity: 77
timestamp 220573000 us: [92 4F 35] channel 3: note On G5 velocity: 53
timestamp 220583000 us: [92 54 53] channel 3: note On C6 velocity: 83
timestamp 220583000 us: [99 28 00] channel 10: note On E2 velocity: 0
timestamp 220583000 us: [94 4F 00] channel 5: note On G5 velocity: 0
timestamp 220583000 us: [94 43 00] channel 5: note On G4 velocity: 0
timestamp 220583000 us: [96 40 5F] channel 7: note On E4 velocity: 95
timestamp 220683000 us: [92 4C 00] channel 3: note On E5 velocity: 0
timestamp 220693000 us: [93 48 00] channel 4: note On C5 velocity: 0
timestamp 220713000 us: [92 4F 00] channel 3: note On G5 velocity: 0
timestamp 220713000 us: [93 48 5F] channel 4: note On C5 velocity: 95
timestamp 220723000 us: [95 34 00] channel 6: note On E3 velocity: 0
timestamp 220723000 us: [92 54 00] channel 3: note On C6 velocity: 0
timestamp 220723000 us: [97 48 00] channel 8: note On C5 velocity: 0
timestamp 220833000 us: [96 37 00] channel 7: note On G3 velocity: 0
timestamp 220843000 us: [96 3C 00] channel 7: note On C4 velocity: 0
timestamp 220853000 us: [94 43 5D] channel 5: note On G4 velocity: 93
timestamp 220853000 us: [94 4F 6A] channel 5: note On G5 velocity: 106
timestamp 220853000 us: [96 40 00] channel 7: note On E4 velocity: 0
timestamp 220863000 us: [93 48 00] channel 4: note On C5 velocity: 0
timestamp 220873000 us: [93 47 61] channel 4: note On B4 velocity: 97
timestamp 220873000 us: [95 34 48] channel 6: note On E3 velocity: 72
timestamp 220873000 us: [96 37 52] channel 7: note On G3 velocity: 82
timestamp 220873000 us: [99 2A 2E] channel 10: note On F#2 velocity: 46
timestamp 220883000 us: [92 4C 43] channel 3: note On E5 velocity: 67
timestamp 220883000 us: [92 54 4A] channel 3: note On C6 velocity: 74
timestamp 220883000 us: [92 4F 46] channel 3: note On G5 velocity: 70
timestamp 220883000 us: [97 4A 5B] channel 8: note On D5 velocity: 91
timestamp 220883000 us: [99 2A 00] channel 10: note On F#2 velocity: 0
timestamp 220893000 us: [91 28 00] channel 2: note On E2 velocity: 0
timestamp 220963000 us: [92 4C 00] channel 3: note On E5 velocity: 0
timestamp 220973000 us: [92 54 00] channel 3: note On C6 velocity: 0
timestamp 220983000 us: [92 4F 00] channel 3: note On G5 velocity: 0
timestamp 220983000 us: [95 34 00] channel 6: note On E3 velocity: 0
timestamp 221023000 us: [96 37 00] channel 7: note On G3 velocity: 0
timestamp 221023000 us: [91 26 6A] channel 2: note On D2 velocity: 106
timestamp 221033000 us: [95 32 44] channel 6: note On D3 velocity: 68
timestamp 221033000 us: [96 37 58] channel 7: note On G3 velocity: 88
timestamp 221033000 us: [99 23 76] channel 10: note On B1 velocity: 118
timestamp 221033000 us: [99 2A 3E] channel 10: note On F#2 velocity: 62
timestamp 221043000 us: [99 2A 00] channel 10: note On F#2 velocity: 0
timestamp 221043000 us: [99 23 00] channel 10: note On B1 velocity: 0
timestamp 221043000 us: [92 4F 3A] channel 3: note On G5 velocity: 58
timestamp 221043000 us: [92 53 4C] channel 3: note On B5 velocity: 76
timestamp 221043000 us: [96 3B 54] channel 7: note On B3 velocity: 84
timestamp 221053000 us: [92 4A 3C] channel 3: note On D5 velocity: 60
timestamp 221063000 us: [96 3E 58] channel 7: note On D4 velocity: 88
timestamp 221143000 us: [92 4A 00] channel 3: note On D5 velocity: 0
timestamp 221173000 us: [95 32 00] channel 6: note On D3 velocity: 0
timestamp 221173000 us: [92 53 00] channel 3: note On B5 velocity: 0
timestamp 221193000 us: [92 4F 00] channel 3: note On G5 velocity: 0
timestamp 221263000 us: [93 47 00] channel 4: note On B4 velocity: 0
timestamp 221323000 us: [96 3E 00] channel 7: note On D4 velocity: 0
timestamp 221323000 us: [96 3B 00] channel 7: note On B3 velocity: 0
timestamp 221323000 us: [96 37 00] channel 7: note On G3 velocity: 0
timestamp 221333000 us: [95 32 48] channel 6: note On D3 velocity: 72
timestamp 221343000 us: [96 37 53] channel 7: note On G3 velocity: 83
timestamp 221343000 us: [98 4A 5A] channel 9: note On D5 velocity: 90
timestamp 221343000 us: [99 2A 2E] channel 10: note On F#2 velocity: 46
timestamp 221343000 us: [92 4A 43] channel 3: note On D5 velocity: 67
timestamp 221343000 us: [92 4F 41] channel 3: note On G5 velocity: 65
timestamp 221353000 us: [92 53 3F] channel 3: note On B5 velocity: 63
timestamp 221353000 us: [99 2A 00] channel 10: note On F#2 velocity: 0
timestamp 221413000 us: [92 53 00] channel 3: note On B5 velocity: 0
timestamp 221423000 us: [92 4A 00] channel 3: note On D5 velocity: 0
timestamp 221443000 us: [92 4F 00] channel 3: note On G5 velocity: 0
timestamp 221453000 us: [95 32 00] channel 6: note On D3 velocity: 0
timestamp 221463000 us: [98 4A 00] channel 9: note On D5 velocity: 0
timestamp 221493000 us: [95 32 46] channel 6: note On D3 velocity: 70
timestamp 221493000 us: [96 3B 60] channel 7: note On B3 velocity: 96
timestamp 221493000 us: [98 4C 5A] channel 9: note On E5 velocity: 90
timestamp 221493000 us: [99 23 76] channel 10: note On B1 velocity: 118
timestamp 221503000 us: [99 2A 52] channel 10: note On F#2 velocity: 82
timestamp 221503000 us: [99 28 65] channel 10: note On E2 velocity: 101
timestamp 221503000 us: [92 4F 4A] channel 3: note On G5 velocity: 74
timestamp 221503000 us: [92 4A 4A] channel 3: note On D5 velocity: 74
timestamp 221503000 us: [92 53 54] channel 3: note On B5 velocity: 84
timestamp 221513000 us: [99 2A 00] channel 10: note On F#2 velocity: 0
timestamp 221513000 us: [99 23 00] channel 10: note On B1 velocity: 0
timestamp 221513000 us: [99 28 00] channel 10: note On E2 velocity: 0
timestamp 221513000 us: [96 3E 5F] channel 7: note On D4 velocity: 95
timestamp 221603000 us: [92 4A 00] channel 3: note On D5 velocity: 0
timestamp 221613000 us: [92 4F 00] channel 3: note On G5 velocity: 0
timestamp 221643000 us: [92 53 00] channel 3: note On B5 velocity: 0
timestamp 221653000 us: [95 32 00] channel 6: note On D3 velocity: 0
timestamp 221713000 us: [97 4A 00] channel 8: note On D5 velocity: 0
timestamp 221763000 us: [96 37 00] channel 7: note On G3 velocity: 0
timestamp 221773000 us: [96 3B 00] channel 7: note On B3 velocity: 0
timestamp 221773000 us: [98 4C 00] channel 9: note On E5 velocity: 0
timestamp 221783000 us: [96 3E 00] channel 7: note On D4 velocity: 0
timestamp 221793000 us: [93 43 5A] channel 4: note On G4 velocity: 90
timestamp 221803000 us: [92 53 3E] channel 3: note On B5 velocity: 62
timestamp 221803000 us: [95 32 43] channel 6: note On D3 velocity: 67
timestamp 221803000 us: [96 37 52] channel 7: note On G3 velocity: 82
timestamp 221803000 us: [98 4F 59] channel 9: note On G5 velocity: 89
timestamp 221813000 us: [99 2A 2E] channel 10: note On F#2 velocity: 46
timestamp 221813000 us: [92 4F 2E] channel 3: note On G5 velocity: 46
timestamp 221813000 us: [92 4A 43] channel 3: note On D5 velocity: 67
timestamp 221813000 us: [99 2A 00] channel 10: note On F#2 velocity: 0
timestamp 221823000 us: [91 26 00] channel 2: note On D2 velocity: 0
timestamp 221883000 us: [92 4F 00] channel 3: note On G5 velocity: 0
timestamp 221893000 us: [92 4A 00] channel 3: note On D5 velocity: 0
timestamp 221903000 us: [92 53 00] channel 3: note On B5 velocity: 0
timestamp 221933000 us: [95 32 00] channel 6: note On D3 velocity: 0
timestamp 221953000 us: [93 43 00] channel 4: note On G4 velocity: 0
timestamp 221953000 us: [93 48 5F] channel 4: note On C5 velocity: 95
timestamp 221953000 us: [96 37 00] channel 7: note On G3 velocity: 0
timestamp 221953000 us: [91 24 6A] channel 2: note On C2 velocity: 106
timestamp 221963000 us: [95 30 4D] channel 6: note On C3 velocity: 77
timestamp 221963000 us: [96 37 58] channel 7: note On G3 velocity: 88
timestamp 221963000 us: [99 23 76] channel 10: note On B1 velocity: 118
timestamp 221963000 us: [99 2A 3E] channel 10: note On F#2 velocity: 62
timestamp 221963000 us: [92 54 4F] channel 3: note On C6 velocity: 79
timestamp 221973000 us: [92 4C 4F] channel 3: note On E5 velocity: 79
timestamp 221973000 us: [92 4F 4C] channel 3: note On G5 velocity: 76
timestamp 221973000 us: [99 2A 00] channel 10: note On F#2 velocity: 0
timestamp 221973000 us: [99 23 00] channel 10: note On B1 velocity: 0
timestamp 221973000 us: [96 3C 54] channel 7: note On C4 velocity: 84
timestamp 221993000 us: [96 40 58] channel 7: note On E4 velocity: 88
timestamp 222053000 us: [94 4F 00] channel 5: note On G5 velocity: 0
timestamp 222053000 us: [94 43 00] channel 5: note On G4 velocity: 0
timestamp 222053000 us: [98 4F 00] channel 9: note On G5 velocity: 0
timestamp 222093000 us: [92 4C 00] channel 3: note On E5 velocity: 0
timestamp 222103000 us: [92 54 00] channel 3: note On C6 velocity: 0
timestamp 222103000 us: [92 4F 00] channel 3: note On G5 velocity: 0
timestamp 222113000 us: [95 30 00] channel 6: note On C3 velocity: 0
timestamp 222203000 us: [93 48 00] channel 4: note On C5 velocity: 0
timestamp 222253000 us: [94 3E 5A] channel 5: note On D4 velocity: 90
timestamp 222253000 us: [94 4A 67] channel 5: note On D5 velocity: 103
timestamp 222253000 us: [96 40 00] channel 7: note On E4 velocity: 0
timestamp 222253000 us: [96 3C 00] channel 7: note On C4 velocity: 0
timestamp 222253000 us: [96 37 00] channel 7: note On G3 velocity: 0
timestamp 222263000 us: [93 48 62] channel 4: note On C5 velocity: 98
timestamp 222263000 us: [92 4C 3E] channel 3: note On E5 velocity: 62
timestamp 222273000 us: [92 4F 48] channel 3: note On G5 velocity: 72
timestamp 222273000 us: [92 54 4A] channel 3: note On C6 velocity: 74
timestamp 222273000 us: [95 30 4A] channel 6: note On C3 velocity: 74
timestamp 222273000 us: [96 37 53] channel 7: note On G3 velocity: 83
timestamp 222273000 us: [98 4A 5E] channel 9: note On D5 velocity: 94
timestamp 222273000 us: [99 2A 2E] channel 10: note On F#2 velocity: 46
timestamp 222283000 us: [99 2A 00] channel 10: note On F#2 velocity: 0
timestamp 222333000 us: [92 4C 00] channel 3: note On E5 velocity: 0
timestamp 222353000 us: [92 4F 00] channel 3: note On G5 velocity: 0
timestamp 222353000 us: [92 54 00] channel 3: note On C6 velocity: 0
timestamp 222383000 us: [95 30 00] channel 6: note On C3 velocity: 0
timestamp 222383000 us: [93 48 00] channel 4: note On C5 velocity: 0
timestamp 222403000 us: [98 4A 00] channel 9: note On D5 velocity: 0
timestamp 222403000 us: [94 4A 00] channel 5: note On D5 velocity: 0
timestamp 222403000 us: [94 3E 00] channel 5: note On D4 velocity: 0
timestamp 222403000 us: [94 40 5A] channel 5: note On E4 velocity: 90
timestamp 222403000 us: [94 4C 67] channel 5: note On E5 velocity: 103
timestamp 222423000 us: [95 30 48] channel 6: note On C3 velocity: 72
timestamp 222423000 us: [96 3C 60] channel 7: note On C4 velocity: 96
timestamp 222423000 us: [98 4C 5A] channel 9: note On E5 velocity: 90
timestamp 222433000 us: [99 23 76] channel 10: note On B1 velocity: 118
timestamp 222433000 us: [99 2A 52] channel 10: note On F#2 velocity: 82
timestamp 222433000 us: [93 48 61] channel 4: note On C5 velocity: 97
timestamp 222433000 us: [99 28 65] channel 10: note On E2 velocity: 101
timestamp 222443000 us: [92 4C 4C] channel 3: note On E5 velocity: 76
timestamp 222443000 us: [92 4F 3E] channel 3: note On G5 velocity: 62
timestamp 222443000 us: [92 54 4D] channel 3: note On C6 velocity: 77
timestamp 222443000 us: [99 2A 00] channel 10: note On F#2 velocity: 0
timestamp 222443000 us: [99 23 00] channel 10: note On B1 velocity: 0
timestamp 222443000 us: [99 28 00] channel 10: note On E2 velocity: 0
timestamp 222453000 us: [96 40 5F] channel 7: note On E4 velocity: 95
timestamp 222533000 us: [92 4C 00] channel 3: note On E5 velocity: 0
timestamp 222553000 us: [92 54 00] channel 3: note On C6 velocity: 0
timestamp 222563000 us: [92 4F 00] channel 3: note On G5 velocity: 0
timestamp 222583000 us: [95 30 00] channel 6: note On C3 velocity: 0
timestamp 222593000 us: [93 48 00] channel 4: note On C5 velocity: 0
timestamp 222693000 us: [96 37 00] channel 7: note On G3 velocity: 0
timestamp 222703000 us: [96 3C 00] channel 7: note On C4 velocity: 0
timestamp 222713000 us: [94 4C 00] channel 5: note On E5 velocity: 0
timestamp 222713000 us: [94 40 00] channel 5: note On E4 velocity: 0
timestamp 222713000 us: [94 43 5F] channel 5: note On G4 velocity: 95
timestamp 222713000 us: [94 4F 6C] channel 5: note On G5 velocity: 108
timestamp 222723000 us: [96 40 00] channel 7: note On E4 velocity: 0
timestamp 222723000 us: [98 4C 00] channel 9: note On E5 velocity: 0
timestamp 222733000 us: [93 48 61] channel 4: note On C5 velocity: 97
timestamp 222733000 us: [92 54 38] channel 3: note On C6 velocity: 56
timestamp 222733000 us: [95 30 41] channel 6: note On C3 velocity: 65
timestamp 222733000 us: [96 37 52] channel 7: note On G3 velocity: 82
timestamp 222743000 us: [98 4F 5A] channel 9: note On G5 velocity: 90
timestamp 222743000 us: [99 2A 2E] channel 10: note On F#2 velocity: 46
timestamp 222743000 us: [92 4C 2D] channel 3: note On E5 velocity: 45
timestamp 222743000 us: [92 4F 33] channel 3: note On G5 velocity: 51
timestamp 222743000 us: [99 2A 00] channel 10: note On F#2 velocity: 0
timestamp 222753000 us: [91 24 00] channel 2: note On C2 velocity: 0
timestamp 222803000 us: [92 4C 00] channel 3: note On E5 velocity: 0
timestamp 222803000 us: [92 54 00] channel 3: note On C6 velocity: 0
timestamp 222833000 us: [93 48 00] channel 4: note On C5 velocity: 0
timestamp 222843000 us: [92 4F 00] channel 3: note On G5 velocity: 0
timestamp 222863000 us: [95 30 00] channel 6: note On C3 velocity: 0
timestamp 222883000 us: [96 37 00] channel 7: note On G3 velocity: 0
timestamp 222883000 us: [91 23 6A] channel 2: note On B1 velocity: 106
timestamp 222893000 us: [93 48 64] channel 4: note On C5 velocity: 100
timestamp 222893000 us: [95 2F 41] channel 6: note On B2 velocity: 65
timestamp 222893000 us: [96 37 58] channel 7: note On G3 velocity: 88
timestamp 222893000 us: [99 23 76] channel 10: note On B1 velocity: 118
timestamp 222893000 us: [99 2A 3E] channel 10: note On F#2 velocity: 62
timestamp 222903000 us: [92 4F 3E] channel 3: note On G5 velocity: 62
timestamp 222903000 us: [92 53 4D] channel 3: note On B5 velocity: 77
timestamp 222903000 us: [99 2A 00] channel 10: note On F#2 velocity: 0
timestamp 222903000 us: [99 23 00] channel 10: note On B1 velocity: 0
timestamp 222903000 us: [92 4A 3E] channel 3: note On D5 velocity: 62
timestamp 222903000 us: [96 3B 54] channel 7: note On B3 velocity: 84
timestamp 222923000 us: [96 3E 58] channel 7: note On D4 velocity: 88
timestamp 222983000 us: [92 4A 00] channel 3: note On D5 velocity: 0
timestamp 223013000 us: [92 53 00] channel 3: note On B5 velocity: 0
timestamp 223023000 us: [95 2F 00] channel 6: note On B2 velocity: 0
timestamp 223023000 us: [92 4F 00] channel 3: note On G5 velocity: 0
timestamp 223183000 us: [93 48 00] channel 4: note On C5 velocity: 0
timestamp 223183000 us: [96 3E 00] channel 7: note On D4 velocity: 0
timestamp 223183000 us: [96 3B 00] channel 7: note On B3 velocity: 0
timestamp 223183000 us: [96 37 00] channel 7: note On G3 velocity: 0
timestamp 223193000 us: [97 4F 5F] channel 8: note On G5 velocity: 95
timestamp 223193000 us: [93 47 5B] channel 4: note On B4 velocity: 91
timestamp 223203000 us: [92 4A 2D] channel 3: note On D5 velocity: 45
timestamp 223203000 us: [92 4F 35] channel 3: note On G5 velocity: 53
timestamp 223203000 us: [95 2F 46] channel 6: note On B2 velocity: 70
timestamp 223203000 us: [96 37 53] channel 7: note On G3 velocity: 83
timestamp 223203000 us: [99 2A 2E] channel 10: note On F#2 velocity: 46
timestamp 223203000 us: [92 53 31] channel 3: note On B5 velocity: 49
timestamp 223213000 us: [99 2A 00] channel 10: note On F#2 velocity: 0
timestamp 223273000 us: [92 4A 00] channel 3: note On D5 velocity: 0
timestamp 223283000 us: [92 53 00] channel 3: note On B5 velocity: 0
timestamp 223293000 us: [97 4F 00] channel 8: note On G5 velocity: 0
timestamp 223293000 us: [92 4F 00] channel 3: note On G5 velocity: 0
timestamp 223323000 us: [95 2F 00] channel 6: note On B2 velocity: 0
timestamp 223353000 us: [97 4F 5A] channel 8: note On G5 velocity: 90
timestamp 223353000 us: [98 4F 00] channel 9: note On G5 velocity: 0
timestamp 223353000 us: [95 2F 4B] channel 6: note On B2 velocity: 75
timestamp 223353000 us: [96 3B 60] channel 7: note On B3 velocity: 96
timestamp 223353000 us: [99 23 76] channel 10: note On B1 velocity: 118
timestamp 223353000 us: [99 2A 52] channel 10: note On F#2 velocity: 82
timestamp 223363000 us: [99 28 65] channel 10: note On E2 velocity: 101
timestamp 223363000 us: [92 4A 48] channel 3: note On D5 velocity: 72
timestamp 223363000 us: [92 4F 3E] channel 3: note On G5 velocity: 62
timestamp 223363000 us: [92 53 48] channel 3: note On B5 velocity: 72
timestamp 223373000 us: [99 2A 00] channel 10: note On F#2 velocity: 0
timestamp 223373000 us: [99 23 00] channel 10: note On B1 velocity: 0
timestamp 223373000 us: [99 28 00] channel 10: note On E2 velocity: 0
timestamp 223373000 us: [96 3E 5F] channel 7: note On D4 velocity: 95
timestamp 223473000 us: [92 4F 00] channel 3: note On G5 velocity: 0
timestamp 223473000 us: [92 4A 00] channel 3: note On D5 velocity: 0
timestamp 223493000 us: [95 2F 00] channel 6: note On B2 velocity: 0
timestamp 223493000 us: [97 4F 00] channel 8: note On G5 velocity: 0
timestamp 223493000 us: [92 53 00] channel 3: note On B5 velocity: 0
timestamp 223533000 us: [93 47 00] channel 4: note On B4 velocity: 0
timestamp 223623000 us: [96 37 00] channel 7: note On G3 velocity: 0
timestamp 223633000 us: [96 3B 00] channel 7: note On B3 velocity: 0
timestamp 223643000 us: [97 4F 5D] channel 8: note On G5 velocity: 93
timestamp 223643000 us: [96 3E 00] channel 7: note On D4 velocity: 0
timestamp 223663000 us: [92 4A 2D] channel 3: note On D5 velocity: 45
timestamp 223663000 us: [93 43 5D] channel 4: note On G4 velocity: 93
timestamp 223663000 us: [95 2F 46] channel 6: note On B2 velocity: 70
timestamp 223673000 us: [96 37 52] channel 7: note On G3 velocity: 82
timestamp 223673000 us: [99 2A 2E] channel 10: note On F#2 velocity: 46
timestamp 223673000 us: [92 4F 3A] channel 3: note On G5 velocity: 58
timestamp 223673000 us: [92 53 3F] channel 3: note On B5 velocity: 63
timestamp 223673000 us: [99 2A 00] channel 10: note On F#2 velocity: 0
timestamp 223683000 us: [91 23 00] channel 2: note On B1 velocity: 0
timestamp 223703000 us: [94 4F 00] channel 5: note On G5 velocity: 0
timestamp 223703000 us: [94 43 00] channel 5: note On G4 velocity: 0
timestamp 223743000 us: [92 4A 00] channel 3: note On D5 velocity: 0
timestamp 223743000 us: [92 53 00] channel 3: note On B5 velocity: 0
timestamp 223753000 us: [97 4F 00] channel 8: note On G5 velocity: 0
timestamp 223753000 us: [93 43 00] channel 4: note On G4 velocity: 0
timestamp 223773000 us: [92 4F 00] channel 3: note On G5 velocity: 0
timestamp 223773000 us: [E3 00 02] channel 4: pitch wheel change 256
timestamp 223793000 us: [95 2F 00] channel 6: note On B2 velocity: 0
timestamp 223803000 us: [94 45 5E] channel 5: note On A4 velocity: 94
timestamp 223803000 us: [94 51 6B] channel 5: note On A5 velocity: 107
timestamp 223813000 us: [97 4F 5D] channel 8: note On G5 velocity: 93
timestamp 223813000 us: [E3 00 0A] channel 4: pitch wheel change 1280
timestamp 223813000 us: [96 37 00] channel 7: note On G3 velocity: 0
timestamp 223823000 us: [91 21 6A] channel 2: note On A1 velocity: 106
timestamp 223823000 us: [93 45 54] channel 4: note On A4 velocity: 84
timestamp 223823000 us: [95 2D 48] channel 6: note On A2 velocity: 72
timestamp 223823000 us: [96 34 58] channel 7: note On E3 velocity: 88
timestamp 223823000 us: [98 51 5C] channel 9: note On A5 velocity: 92
timestamp 223823000 us: [99 23 76] channel 10: note On B1 velocity: 118
timestamp 223823000 us: [99 2A 3E] channel 10: note On F#2 velocity: 62
timestamp 223833000 us: [92 55 4F] channel 3: note On C#6 velocity: 79
timestamp 223833000 us: [92 4C 46] channel 3: note On E5 velocity: 70
timestamp 223833000 us: [92 51 43] channel 3: note On A5 velocity: 67
timestamp 223833000 us: [99 2A 00] channel 10: note On F#2 velocity: 0
timestamp 223833000 us: [99 23 00] channel 10: note On B1 velocity: 0
timestamp 223843000 us: [E3 00 12] channel 4: pitch wheel change 2304
timestamp 223843000 us: [96 39 54] channel 7: note On A3 velocity: 84
timestamp 223853000 us: [96 3D 58] channel 7: note On C#4 velocity: 88
timestamp 223863000 us: [E3 00 26] channel 4: pitch wheel change 4864
timestamp 223903000 us: [E3 00 2F] channel 4: pitch wheel change 6016
timestamp 223933000 us: [92 51 00] channel 3: note On A5 velocity: 0
timestamp 223933000 us: [E3 00 39] channel 4: pitch wheel change 7296
timestamp 223943000 us: [95 2D 00] channel 6: note On A2 velocity: 0
timestamp 223953000 us: [92 4C 00] channel 3: note On E5 velocity: 0
timestamp 223953000 us: [92 55 00] channel 3: note On C#6 velocity: 0
timestamp 223973000 us: [E3 00 40] channel 4: pitch wheel change 8192
timestamp 224033000 us: [97 4F 00] channel 8: note On G5 velocity: 0
timestamp 224053000 us: [98 51 00] channel 9: note On A5 velocity: 0
timestamp 224063000 us: [93 45 00] channel 4: note On A4 velocity: 0
timestamp 224093000 us: [94 51 00] channel 5: note On A5 velocity: 0
timestamp 224093000 us: [94 45 00] channel 5: note On A4 velocity: 0
timestamp 224103000 us: [97 4A 5F] channel 8: note On D5 velocity: 95
timestamp 224113000 us: [94 45 5C] channel 5: note On A4 velocity: 92
timestamp 224113000 us: [94 51 69] channel 5: note On A5 velocity: 105
timestamp 224113000 us: [96 3D 00] channel 7: note On C#4 velocity: 0
timestamp 224113000 us: [96 39 00] channel 7: note On A3 velocity: 0
timestamp 224113000 us: [96 34 00] channel 7: note On E3 velocity: 0
timestamp 224123000 us: [92 55 4C] channel 3: note On C#6 velocity: 76
timestamp 224123000 us: [93 45 50] channel 4: note On A4 velocity: 80
timestamp 224123000 us: [92 4C 48] channel 3: note On E5 velocity: 72
timestamp 224133000 us: [92 51 4D] channel 3: note On A5 velocity: 77
timestamp 224133000 us: [95 2D 4A] channel 6: note On A2 velocity: 74
timestamp 224133000 us: [96 34 53] channel 7: note On E3 velocity: 83
timestamp 224133000 us: [98 51 58] channel 9: note On A5 velocity: 88
timestamp 224133000 us: [99 2A 2E] channel 10: note On F#2 velocity: 46
timestamp 224143000 us: [99 2A 00] channel 10: note On F#2 velocity: 0
timestamp 224223000 us: [92 51 00] channel 3: note On A5 velocity: 0
timestamp 224223000 us: [92 4C 00] channel 3: note On E5 velocity: 0
timestamp 224223000 us: [92 55 00] channel 3: note On C#6 velocity: 0
timestamp 224233000 us: [95 2D 00] channel 6: note On A2 velocity: 0
timestamp 224263000 us: [98 51 00] channel 9: note On A5 velocity: 0
timestamp 224273000 us: [94 51 00] channel 5: note On A5 velocity: 0
timestamp 224273000 us: [94 45 00] channel 5: note On A4 velocity: 0
timestamp 224273000 us: [93 45 00] channel 4: note On A4 velocity: 0
timestamp 224283000 us: [93 45 5A] channel 4: note On A4 velocity: 90
timestamp 224283000 us: [92 4C 48] channel 3: note On E5 velocity: 72
timestamp 224283000 us: [92 55 45] channel 3: note On C#6 velocity: 69
timestamp 224283000 us: [95 2D 44] channel 6: note On A2 velocity: 68
timestamp 224293000 us: [96 39 60] channel 7: note On A3 velocity: 96
timestamp 224293000 us: [99 23 76] channel 10: note On B1 velocity: 118
timestamp 224293000 us: [99 2A 52] channel 10: note On F#2 velocity: 82
timestamp 224293000 us: [92 51 43] channel 3: note On A5 velocity: 67
timestamp 224293000 us: [99 28 65] channel 10: note On E2 velocity: 101
timestamp 224293000 us: [99 2A 00] channel 10: note On F#2 velocity: 0
timestamp 224303000 us: [99 23 00] channel 10: note On B1 velocity: 0
timestamp 224303000 us: [99 28 00] channel 10: note On E2 velocity: 0
timestamp 224303000 us: [96 3D 5F] channel 7: note On C#4 velocity: 95
timestamp 224363000 us: [97 4A 00] channel 8: note On D5 velocity: 0
timestamp 224383000 us: [92 51 00] channel 3: note On A5 velocity: 0
timestamp 224393000 us: [92 4C 00] channel 3: note On E5 velocity: 0
timestamp 224403000 us: [92 55 00] channel 3: note On C#6 velocity: 0
timestamp 224433000 us: [95 2D 00] channel 6: note On A2 velocity: 0
timestamp 224453000 us: [93 45 00] channel 4: note On A4 velocity: 0
timestamp 224553000 us: [96 34 00] channel 7: note On E3 velocity: 0
timestamp 224563000 us: [96 39 00] channel 7: note On A3 velocity: 0
timestamp 224573000 us: [97 4A 5D] channel 8: note On D5 velocity: 93
timestamp 224573000 us: [94 45 5C] channel 5: note On A4 velocity: 92
timestamp 224573000 us: [94 51 69] channel 5: note On A5 velocity: 105
timestamp 224573000 us: [96 3D 00] channel 7: note On C#4 velocity: 0
timestamp 224583000 us: [92 55 45] channel 3: note On C#6 velocity: 69
timestamp 224593000 us: [92 4C 3A] channel 3: note On E5 velocity: 58
timestamp 224593000 us: [92 51 4C] channel 3: note On A5 velocity: 76
timestamp 224593000 us: [93 47 56] channel 4: note On B4 velocity: 86
timestamp 224593000 us: [95 2D 46] channel 6: note On A2 velocity: 70
timestamp 224593000 us: [96 34 52] channel 7: note On E3 velocity: 82
timestamp 224593000 us: [98 51 5E] channel 9: note On A5 velocity: 94
timestamp 224603000 us: [99 2A 2E] channel 10: note On F#2 velocity: 46
timestamp 224603000 us: [99 2A 00] channel 10: note On F#2 velocity: 0
timestamp 224623000 us: [91 21 00] channel 2: note On A1 velocity: 0
timestamp 224643000 us: [92 4C 00] channel 3: note On E5 velocity: 0
timestamp 224663000 us: [92 55 00] channel 3: note On C#6 velocity: 0
timestamp 224663000 us: [92 51 00] channel 3: note On A5 velocity: 0
timestamp 224713000 us: [95 2D 00] channel 6: note On A2 velocity: 0
timestamp 224723000 us: [93 47 00] channel 4: note On B4 velocity: 0
timestamp 224743000 us: [93 45 62] channel 4: note On A4 velocity: 98
timestamp 224743000 us: [92 56 4F] channel 3: note On D6 velocity: 79
timestamp 224743000 us: [96 34 00] channel 7: note On E3 velocity: 0
timestamp 224753000 us: [91 26 6A] channel 2: note On D2 velocity: 106
timestamp 224753000 us: [92 4E 48] channel 3: note On F#5 velocity: 72
timestamp 224753000 us: [92 51 3A] channel 3: note On A5 velocity: 58
timestamp 224753000 us: [95 32 4F] channel 6: note On D3 velocity: 79
timestamp 224753000 us: [96 36 58] channel 7: note On F#3 velocity: 88
timestamp 224753000 us: [99 23 76] channel 10: note On B1 velocity: 118
timestamp 224763000 us: [99 2E 40] channel 10: note On A#2 velocity: 64
timestamp 224763000 us: [99 28 55] channel 10: note On E2 velocity: 85
timestamp 224773000 us: [99 2E 00] channel 10: note On A#2 velocity: 0
timestamp 224773000 us: [99 23 00] channel 10: note On B1 velocity: 0
timestamp 224773000 us: [99 28 00] channel 10: note On E2 velocity: 0
timestamp 224773000 us: [96 39 54] channel 7: note On A3 velocity: 84
timestamp 224783000 us: [96 3E 58] channel 7: note On D4 velocity: 88
timestamp 224793000 us: [94 51 00] channel 5: note On A5 velocity: 0
timestamp 224793000 us: [94 45 00] channel 5: note On A4 velocity: 0
timestamp 224873000 us: [92 56 00] channel 3: note On D6 velocity: 0
timestamp 224883000 us: [92 51 00] channel 3: note On A5 velocity: 0
timestamp 224893000 us: [92 4E 00] channel 3: note On F#5 velocity: 0
timestamp 224903000 us: [99 28 4D] channel 10: note On E2 velocity: 77
timestamp 224903000 us: [95 32 00] channel 6: note On D3 velocity: 0
timestamp 224913000 us: [99 28 00] channel 10: note On E2 velocity: 0
timestamp 225043000 us: [94 48 72] channel 5: note On C5 velocity: 114
timestamp 225043000 us: [94 54 6C] channel 5: note On C6 velocity: 108
timestamp 225043000 us: [96 3E 00] channel 7: note On D4 velocity: 0
timestamp 225043000 us: [96 39 00] channel 7: note On A3 velocity: 0
timestamp 225053000 us: [96 36 00] channel 7: note On F#3 velocity: 0
timestamp 225053000 us: [92 51 43] channel 3: note On A5 velocity: 67
timestamp 225053000 us: [92 56 48] channel 3: note On D6 velocity: 72
timestamp 225053000 us: [92 4E 3F] channel 3: note On F#5 velocity: 63
timestamp 225063000 us: [95 32 48] channel 6: note On D3 velocity: 72
timestamp 225063000 us: [96 36 53] channel 7: note On F#3 velocity: 83
timestamp 225063000 us: [99 28 51] channel 10: note On E2 velocity: 81
timestamp 225063000 us: [99 28 00] channel 10: note On E2 velocity: 0
timestamp 225123000 us: [92 4E 00] channel 3: note On F#5 velocity: 0
timestamp 225123000 us: [92 51 00] channel 3: note On A5 velocity: 0
timestamp 225123000 us: [92 56 00] channel 3: note On D6 velocity: 0
timestamp 225133000 us: [94 54 00] channel 5: note On C6 velocity: 0
timestamp 225143000 us: [94 48 00] channel 5: note On C5 velocity: 0
timestamp 225173000 us: [95 32 00] channel 6: note On D3 velocity: 0
timestamp 225193000 us: [94 4A 6E] channel 5: note On D5 velocity: 110
timestamp 225193000 us: [94 56 6B] channel 5: note On D6 velocity: 107
timestamp 225203000 us: [92 56 38] channel 3: note On D6 velocity: 56
timestamp 225213000 us: [92 4E 3E] channel 3: note On F#5 velocity: 62
timestamp 225213000 us: [92 51 45] channel 3: note On A5 velocity: 69
timestamp 225213000 us: [95 32 48] channel 6: note On D3 velocity: 72
timestamp 225213000 us: [96 39 60] channel 7: note On A3 velocity: 96
timestamp 225223000 us: [99 23 76] channel 10: note On B1 velocity: 118
timestamp 225223000 us: [99 28 5F] channel 10: note On E2 velocity: 95
timestamp 225223000 us: [99 23 00] channel 10: note On B1 velocity: 0
timestamp 225223000 us: [98 51 00] channel 9: note On A5 velocity: 0
timestamp 225223000 us: [99 28 00] channel 10: note On E2 velocity: 0
timestamp 225243000 us: [96 3E 5F] channel 7: note On D4 velocity: 95
timestamp 225293000 us: [94 4A 00] channel 5: note On D5 velocity: 0
timestamp 225293000 us: [94 56 00] channel 5: note On D6 velocity: 0
timestamp 225303000 us: [92 51 00] channel 3: note On A5 velocity: 0
timestamp 225323000 us: [92 4E 00] channel 3: note On F#5 velocity: 0
timestamp 225333000 us: [92 56 00] channel 3: note On D6 velocity: 0
timestamp 225353000 us: [94 48 70] channel 5: note On C5 velocity: 112
timestamp 225353000 us: [94 54 57] channel 5: note On C6 velocity: 87
timestamp 225373000 us: [95 32 00] channel 6: note On D3 velocity: 0
timestamp 225373000 us: [99 28 55] channel 10: note On E2 velocity: 85
timestamp 225373000 us: [99 28 00] channel 10: note On E2 velocity: 0
timestamp 225413000 us: [97 4A 00] channel 8: note On D5 velocity: 0
timestamp 225433000 us: [94 48 00] channel 5: note On C5 velocity: 0
timestamp 225453000 us: [94 54 00] channel 5: note On C6 velocity: 0
timestamp 225483000 us: [96 36 00] channel 7: note On F#3 velocity: 0
timestamp 225493000 us: [93 45 00] channel 4: note On A4 velocity: 0
timestamp 225493000 us: [96 39 00] channel 7: note On A3 velocity: 0
timestamp 225503000 us: [92 56 46] channel 3: note On D6 velocity: 70
timestamp 225503000 us: [94 45 6E] channel 5: note On A4 velocity: 110
timestamp 225503000 us: [94 51 6A] channel 5: note On A5 velocity: 106
timestamp 225513000 us: [96 3E 00] channel 7: note On D4 velocity: 0
timestamp 225513000 us: [92 4E 3E] channel 3: note On F#5 velocity: 62
timestamp 225513000 us: [92 51 4A] channel 3: note On A5 velocity: 74
timestamp 225523000 us: [95 32 41] channel 6: note On D3 velocity: 65
timestamp 225523000 us: [96 36 52] channel 7: note On F#3 velocity: 82
timestamp 225523000 us: [99 28 55] channel 10: note On E2 velocity: 85
timestamp 225533000 us: [99 28 00] channel 10: note On E2 velocity: 0
timestamp 225543000 us: [91 26 00] channel 2: note On D2 velocity: 0
timestamp 225593000 us: [94 45 00] channel 5: note On A4 velocity: 0
timestamp 225603000 us: [92 51 00] channel 3: note On A5 velocity: 0
timestamp 225603000 us: [94 51 00] channel 5: note On A5 velocity: 0
timestamp 225603000 us: [92 4E 00] channel 3: note On F#5 velocity: 0
timestamp 225613000 us: [92 56 00] channel 3: note On D6 velocity: 0
timestamp 225633000 us: [95 32 00] channel 6: note On D3 velocity: 0
timestamp 225663000 us: [94 43 52] channel 5: note On G4 velocity: 82
timestamp 225663000 us: [94 4F 63] channel 5: note On G5 velocity: 99
timestamp 225673000 us: [96 36 00] channel 7: note On F#3 velocity: 0
timestamp 225683000 us: [91 1F 6A] channel 2: note On G1 velocity: 106
timestamp 225683000 us: [95 37 44] channel 6: note On G3 velocity: 68
timestamp 225683000 us: [96 37 58] channel 7: note On G3 velocity: 88
timestamp 225683000 us: [98 4F 58] channel 9: note On G5 velocity: 88
timestamp 225683000 us: [99 23 76] channel 10: note On B1 velocity: 118
timestamp 225683000 us: [99 2C 3E] channel 10: note On G#2 velocity: 62
timestamp 225693000 us: [99 31 4A] channel 10: note On C#3 velocity: 74
timestamp 225693000 us: [92 4F 42] channel 3: note On G5 velocity: 66
timestamp 225693000 us: [92 53 42] channel 3: note On B5 velocity: 66
timestamp 225693000 us: [92 56 42] channel 3: note On D6 velocity: 66
timestamp 225693000 us: [99 31 00] channel 10: note On C#3 velocity: 0
timestamp 225703000 us: [99 2C 00] channel 10: note On G#2 velocity: 0
timestamp 225703000 us: [99 23 00] channel 10: note On B1 velocity: 0
timestamp 225723000 us: [96 3B 54] channel 7: note On B3 velocity: 84
timestamp 225773000 us: [96 3E 58] channel 7: note On D4 velocity: 88
timestamp 228363000 us: [96 3E 00] channel 7: note On D4 velocity: 0
timestamp 228363000 us: [96 3B 00] channel 7: note On B3 velocity: 0
timestamp 228363000 us: [91 1F 00] channel 2: note On G1 velocity: 0
timestamp 228363000 us: [96 37 00] channel 7: note On G3 velocity: 0
timestamp 228403000 us: [98 4F 00] channel 9: note On G5 velocity: 0
timestamp 228433000 us: [94 4F 00] channel 5: note On G5 velocity: 0
timestamp 228433000 us: [94 43 00] channel 5: note On G4 velocity: 0
timestamp 228443000 us: [92 56 00] channel 3: note On D6 velocity: 0
timestamp 228443000 us: [92 53 00] channel 3: note On B5 velocity: 0
timestamp 228443000 us: [92 4F 00] channel 3: note On G5 velocity: 0
timestamp 228443000 us: [95 37 00] channel 6: note On G3 velocity: 0
timestamp 230313000 us: [B4 78 00] channel 5: control change 120 value: 0
timestamp 230333000 us: [B1 78 00] channel 2: control change 120 value: 0
timestamp 230333000 us: [B2 78 00] channel 3: control change 120 value: 0
timestamp 230333000 us: [B3 78 00] channel 4: control change 120 value: 0
timestamp 230333000 us: [B5 78 00] channel 6: control change 120 value: 0
timestamp 230333000 us: [B6 78 00] channel 7: control change 120 value: 0
timestamp 230333000 us: [B7 78 00] channel 8: control change 120 value: 0
timestamp 230333000 us: [B8 78 00] channel 9: control change 120 value: 0
timestamp 230333000 us: [B9 78 00] channel 10: control change 120 value: 0
timestamp 230463000 us: [B4 7B 00] channel 5: control change 123 value: 0
timestamp 230483000 us: [B1 7B 00] channel 2: control change 123 value: 0
timestamp 230483000 us: [B2 7B 00] channel 3: control change 123 value: 0
timestamp 230493000 us: [B3 7B 00] channel 4: control change 123 value: 0
timestamp 230493000 us: [B5 7B 00] channel 6: control change 123 value: 0
timestamp 230493000 us: [B6 7B 00] channel 7: control change 123 value: 0
timestamp 230493000 us: [B7 7B 00] channel 8: control change 123 value: 0
timestamp 230493000 us: [B8 7B 00] channel 9: control change 123 value: 0
timestamp 230493000 us: [B9 7B 00] channel 10: control change 123 value: 0
timestamp 230493000 us: [B0 40 00] channel 1: control change 64 value: 0
timestamp 230503000 us: [B0 42 00] channel 1: control change 66 value: 0
timestamp 230503000 us: [B1 40 00] channel 2: control change 64 value: 0
timestamp 230503000 us: [B1 42 00] channel 2: control change 66 value: 0
timestamp 230503000 us: [B2 40 00] channel 3: control change 64 value: 0
timestamp 230503000 us: [B2 42 00] channel 3: control change 66 value: 0
timestamp 230503000 us: [B3 40 00] channel 4: control change 64 value: 0
timestamp 230503000 us: [B3 42 00] channel 4: control change 66 value: 0
timestamp 230503000 us: [B4 40 00] channel 5: control change 64 value: 0
timestamp 230503000 us: [B4 42 00] channel 5: control change 66 value: 0
timestamp 230503000 us: [B5 40 00] channel 6: control change 64 value: 0
timestamp 230503000 us: [B5 42 00] channel 6: control change 66 value: 0
timestamp 230503000 us: [B6 40 00] channel 7: control change 64 value: 0
timestamp 230513000 us: [B6 42 00] channel 7: control change 66 value: 0
timestamp 230513000 us: [B7 40 00] channel 8: control change 64 value: 0
timestamp 230513000 us: [B7 42 00] channel 8: control change 66 value: 0
timestamp 230513000 us: [B8 40 00] channel 9: control change 64 value: 0
timestamp 230513000 us: [B8 42 00] channel 9: control change 66 value: 0
timestamp 230513000 us: [B9 40 00] channel 10: control change 64 value: 0
timestamp 230513000 us: [B9 42 00] channel 10: control change 66 value: 0
timestamp 230513000 us: [BA 40 00] channel 11: control change 64 value: 0
timestamp 230513000 us: [BA 42 00] channel 11: control change 66 value: 0
timestamp 230513000 us: [BB 40 00] channel 12: control change 64 value: 0
timestamp 230513000 us: [BB 42 00] channel 12: control change 66 value: 0
timestamp 230513000 us: [BC 40 00] channel 13: control change 64 value: 0
timestamp 230513000 us: [BC 42 00] channel 13: control change 66 value: 0
timestamp 230523000 us: [BD 40 00] channel 14: control change 64 value: 0
timestamp 230523000 us: [BD 42 00] channel 14: control change 66 value: 0
timestamp 230523000 us: [BE 40 00] channel 15: control change 64 value: 0
timestamp 230523000 us: [BE 42 00] channel 15: control change 66 value: 0
timestamp 230523000 us: [BF 40 00] channel 16: control change 64 value: 0
timestamp 230523000 us: [BF 42 00] channel 16: control change 66 value: 0
timestamp 230523000 us: [B9 78 00] channel 10: control change 120 value: 0
timestamp 230523000 us: [FC] Stop
timestamp 231623000 us: Sysex message: F0 43 10 4C 00 00 00 00 04 00 00 F7
timestamp 231623000 us: [B0 64 7F] channel 1: control change 100 value: 127
timestamp 231623000 us: [B0 65 7F] channel 1: control change 101 value: 127
timestamp 231623000 us: Sysex message: F0 43 73 01 11 00 45 00 F7
timestamp 231623000 us: [B1 5B 28] channel 2: control change 91 value: 40
timestamp 231623000 us: [B1 5D 00] channel 2: control change 93 value: 0
timestamp 231623000 us: [B1 64 7F] channel 2: control change 100 value: 127
timestamp 231623000 us: [B1 65 7F] channel 2: control change 101 value: 127
timestamp 231633000 us: Sysex message: F0 43 73 01 11 01 45 00 F7
timestamp 231633000 us: [B2 5B 28] channel 3: control change 91 value: 40
timestamp 231633000 us: [B2 64 7F] channel 3: control change 100 value: 127
timestamp 231633000 us: [B2 65 7F] channel 3: control change 101 value: 127
timestamp 231633000 us: Sysex message: F0 43 73 01 11 02 45 00 F7
timestamp 231633000 us: [B3 5B 28] channel 4: control change 91 value: 40
timestamp 231633000 us: [B3 64 7F] channel 4: control change 100 value: 127
timestamp 231643000 us: [B3 65 7F] channel 4: control change 101 value: 127
timestamp 231643000 us: Sysex message: F0 43 73 01 11 03 45 00 F7
timestamp 231643000 us: [B4 5B 28] channel 5: control change 91 value: 40
timestamp 231643000 us: [B4 5D 00] channel 5: control change 93 value: 0
timestamp 231643000 us: [B4 64 7F] channel 5: control change 100 value: 127
timestamp 231643000 us: [B4 65 7F] channel 5: control change 101 value: 127
timestamp 231643000 us: Sysex message: F0 43 73 01 11 04 45 00 F7
timestamp 231643000 us: [B5 5B 28] channel 6: control change 91 value: 40
timestamp 231653000 us: [B5 5D 00] channel 6: control change 93 value: 0
timestamp 231653000 us: [B5 64 7F] channel 6: control change 100 value: 127
timestamp 231653000 us: [B5 65 7F] channel 6: control change 101 value: 127
timestamp 231653000 us: Sysex message: F0 43 73 01 11 05 45 00 F7
timestamp 231653000 us: [B6 5B 28] channel 7: control change 91 value: 40
timestamp 231653000 us: [B6 64 7F] channel 7: control change 100 value: 127
timestamp 231653000 us: [B6 65 7F] channel 7: control change 101 value: 127
timestamp 231653000 us: Sysex message: F0 43 73 01 11 06 45 00 F7
timestamp 231663000 us: [B7 5B 28] channel 8: control change 91 value: 40
timestamp 231663000 us: [B7 64 7F] channel 8: control change 100 value: 127
timestamp 231663000 us: [B7 65 7F] channel 8: control change 101 value: 127
timestamp 231663000 us: Sysex message: F0 43 73 01 11 07 45 00 F7
timestamp 231663000 us: [B8 5B 28] channel 9: control change 91 value: 40
timestamp 231663000 us: [B8 64 7F] channel 9: control change 100 value: 127
timestamp 231663000 us: [B8 65 7F] channel 9: control change 101 value: 127
timestamp 231673000 us: Sysex message: F0 43 73 01 11 08 45 00 F7
timestamp 231673000 us: [B9 5B 28] channel 10: control change 91 value: 40
timestamp 231673000 us: [B9 64 7F] channel 10: control change 100 value: 127
timestamp 231673000 us: [B9 65 7F] channel 10: control change 101 value: 127
timestamp 231673000 us: Sysex message: F0 43 73 01 11 09 45 00 F7
timestamp 231673000 us: [BA 64 7F] channel 11: control change 100 value: 127
timestamp 231673000 us: [BA 65 7F] channel 11: control change 101 value: 127
timestamp 231673000 us: Sysex message: F0 43 73 01 11 0A 45 00 F7
timestamp 231683000 us: [BB 64 7F] channel 12: control change 100 value: 127
timestamp 231683000 us: [BB 65 7F] channel 12: control change 101 value: 127
timestamp 231683000 us: Sysex message: F0 43 73 01 11 0B 45 00 F7
timestamp 231683000 us: [BC 64 7F] channel 13: control change 100 value: 127
timestamp 231683000 us: [BC 65 7F] channel 13: control change 101 value: 127
timestamp 231683000 us: Sysex message: F0 43 73 01 11 0C 45 00 F7
timestamp 231683000 us: [BD 64 7F] channel 14: control change 100 value: 127
timestamp 231693000 us: [BD 65 7F] channel 14: control change 101 value: 127
timestamp 231693000 us: Sysex message: F0 43 73 01 11 0D 45 00 F7
timestamp 231693000 us: [BE 64 7F] channel 15: control change 100 value: 127
timestamp 231693000 us: [BE 65 7F] channel 15: control change 101 value: 127
timestamp 231693000 us: Sysex message: F0 43 73 01 11 0E 45 00 F7
timestamp 231693000 us: [BF 64 7F] channel 16: control change 100 value: 127
timestamp 231693000 us: [BF 65 7F] channel 16: control change 101 value: 127
timestamp 231703000 us: Sysex message: F0 43 73 01 11 0F 45 00 F7
timestamp 231853000 us: Sysex message: F0 43 7E 01 00 1C 31 5C F7
timestamp 231853000 us: Sysex message: F0 43 7E 01 00 1C 31 5C F7
